<svg width="260" height="302" viewBox="0 0 260 302" fill="none" xmlns="http://www.w3.org/2000/svg">
<path opacity="0.3" fill-rule="evenodd" clip-rule="evenodd" d="M207.828 301.852C250.387 305.169 256.995 252.016 279.882 226.987C298.623 206.491 372.88 204.297 388.256 182.504C408.329 154.053 402.078 161.606 402.083 129.95C402.088 100.401 314.149 38.0671 279.882 20.4086C245.142 2.50708 209.987 2.75476 166.809 0.279053C121.73 -2.3056 115.213 13.3791 81.6268 34.3279C49.5195 54.354 46.7444 86.802 33.6905 115.304C20.7611 143.535 -13.6355 173.427 5.84124 199.8C25.6777 226.66 69.7627 265.372 104.981 283.166C140.375 301.048 164.267 298.456 207.828 301.852Z" fill="url(#paint0_linear_6197_88995)"/>
<defs>
<linearGradient id="paint0_linear_6197_88995" x1="203.739" y1="302.424" x2="203.739" y2="-93.4082" gradientUnits="userSpaceOnUse">
<stop stop-color="#6581A9"/>
<stop offset="1" stop-color="#DBF5FD"/>
</linearGradient>
</defs>
</svg>
