<svg width="220" height="243" viewBox="0 0 220 243" fill="none" xmlns="http://www.w3.org/2000/svg">
<path opacity="0.3" fill-rule="evenodd" clip-rule="evenodd" d="M33.164 231.169C5.30908 223.832 -30.823 190.929 -39.2703 168.602C-46.1875 150.319 -99.2836 128.246 -103.746 109.833C-109.572 85.7955 -97.067 28.9589 -59.2461 6.833C-20.0875 -16.0755 29.8567 26.324 55.9356 21.9571C82.3735 17.5301 104.655 25.6391 132.698 33.6929C161.975 42.1012 190.866 42.7511 207.107 64.697C222.633 85.6765 218.33 73.8415 219.682 96.3288C221.022 118.602 205.191 193.142 186.388 206.823C167.239 220.757 129.792 237.34 103.075 241.585C76.2262 245.851 61.6742 238.679 33.164 231.169Z" fill="url(#paint0_linear_6197_89039)"/>
<defs>
<linearGradient id="paint0_linear_6197_89039" x1="99.9689" y1="197.042" x2="196.397" y2="-74.3156" gradientUnits="userSpaceOnUse">
<stop stop-color="#6581A9"/>
<stop offset="1" stop-color="#DBF5FD"/>
</linearGradient>
</defs>
</svg>
