<svg width="168" height="221" viewBox="0 0 168 221" fill="none" xmlns="http://www.w3.org/2000/svg">
<path opacity="0.3" fill-rule="evenodd" clip-rule="evenodd" d="M251.544 11.3645C289.402 8.43162 259.462 -2.41607 279.82 19.7143C296.491 37.8361 276.209 62.8075 289.886 82.0769C307.742 107.233 367.995 115.957 368 143.946C368.005 170.073 320.388 182.794 289.907 198.408C259.005 214.236 246.402 213.435 207.993 215.624C167.895 217.909 108.025 228.998 78.1488 210.476C49.5887 192.769 47.1202 164.08 35.5084 138.879C24.0075 113.918 -6.58904 87.4883 10.736 64.1702C28.381 40.4214 -20.5902 21.0359 10.7376 5.30294C42.221 -10.5081 212.796 14.3664 251.544 11.3645Z" fill="url(#paint0_linear_6197_82364)"/>
<defs>
<linearGradient id="paint0_linear_6197_82364" x1="28.4541" y1="0.0218138" x2="120.673" y2="322.565" gradientUnits="userSpaceOnUse">
<stop stop-color="#DBF5FD"/>
<stop offset="1" stop-color="#6581A9"/>
</linearGradient>
</defs>
</svg>
