<svg width="1950" height="1948" viewBox="0 0 1950 1948" fill="none" xmlns="http://www.w3.org/2000/svg">
<path opacity="0.3" fill-rule="evenodd" clip-rule="evenodd" d="M1525.83 1947.85C1568.39 1951.17 1575 1898.01 1597.88 1872.98C1616.62 1852.49 1690.88 1850.3 1706.26 1828.5C1726.33 1800.05 1720.08 1807.6 1720.08 1775.95C1720.09 1746.4 1632.15 1684.07 1597.88 1666.41C1563.14 1648.51 1527.99 1648.75 1484.81 1646.28C1439.73 1643.69 1433.21 1659.38 1399.63 1680.33C1367.52 1700.35 1364.75 1732.8 1351.69 1761.3C1338.76 1789.53 1304.37 1819.43 1323.84 1845.8C1343.68 1872.66 1387.76 1911.37 1422.98 1929.16C1458.38 1947.05 1482.27 1944.45 1525.83 1947.85Z" fill="url(#paint0_linear_6443_17742)"/>
<path opacity="0.3" fill-rule="evenodd" clip-rule="evenodd" d="M171.165 987.67C143.31 980.333 107.178 947.43 98.7307 925.103C91.8134 906.82 38.7173 884.747 34.2549 866.334C28.4292 842.296 40.934 785.46 78.7549 763.334C117.914 740.425 167.858 782.825 193.937 778.458C220.375 774.031 242.656 782.14 270.699 790.194C299.976 798.602 328.867 799.252 345.108 821.198C360.634 842.177 356.331 830.342 357.683 852.83C359.023 875.103 343.192 949.643 324.389 963.324C305.24 977.258 267.793 993.841 241.076 998.086C214.227 1002.35 199.675 995.18 171.165 987.67Z" fill="url(#paint1_linear_6443_17742)"/>
<path opacity="0.3" fill-rule="evenodd" clip-rule="evenodd" d="M1759.43 376.235C1794.08 365 1835.87 318.102 1843.66 286.907C1850.05 261.363 1898.06 228.415 1901.28 202.788C1905.5 169.332 1870.38 131.057 1857.59 101.359C1845.66 73.6383 1737.44 75.2865 1703.49 70.2727C1669.07 65.1899 1632.62 86.4395 1597.83 98.6721C1561.51 111.443 1542.93 116.134 1525.11 147.107C1508.08 176.717 1436.45 189.903 1437.75 221.04C1439.04 251.881 1482.68 367.311 1508.58 385.486C1534.96 403.996 1595.56 413.261 1630.31 418.082C1665.23 422.926 1723.97 387.734 1759.43 376.235Z" fill="url(#paint2_linear_6443_17742)"/>
<defs>
<linearGradient id="paint0_linear_6443_17742" x1="1521.74" y1="1948.42" x2="1521.74" y2="1552.59" gradientUnits="userSpaceOnUse">
<stop stop-color="#6581A9"/>
<stop offset="1" stop-color="#DBF5FD"/>
</linearGradient>
<linearGradient id="paint1_linear_6443_17742" x1="237.97" y1="953.543" x2="334.398" y2="682.185" gradientUnits="userSpaceOnUse">
<stop stop-color="#6581A9"/>
<stop offset="1" stop-color="#DBF5FD"/>
</linearGradient>
<linearGradient id="paint2_linear_6443_17742" x1="1807.17" y1="356.308" x2="1647.22" y2="-15.0118" gradientUnits="userSpaceOnUse">
<stop stop-color="#6581A9"/>
<stop offset="1" stop-color="#DBF5FD"/>
</linearGradient>
</defs>
</svg>
