<svg width="196" height="336" viewBox="0 0 196 336" fill="none" xmlns="http://www.w3.org/2000/svg">
<path opacity="0.3" fill-rule="evenodd" clip-rule="evenodd" d="M177.726 335.835C213.766 339.526 219.361 280.389 238.742 252.541C254.612 229.738 317.494 227.298 330.515 203.051C347.513 171.396 342.219 179.8 342.224 144.58C342.228 111.704 267.76 42.3528 238.742 22.7063C209.324 2.78934 179.554 3.06491 142.99 0.310486C104.817 -2.56519 99.2986 14.8854 70.8572 38.1926C43.6683 60.4734 30.0858 76.4388 19.0316 108.15C8.08282 139.559 -9.81211 192.952 6.68107 222.294C23.4789 252.178 46.4184 299.403 76.2421 319.2C106.214 339.096 140.838 332.058 177.726 335.835Z" fill="url(#paint0_linear_6197_88992)"/>
<defs>
<linearGradient id="paint0_linear_6197_88992" x1="48.5" y1="31" x2="153.395" y2="351.895" gradientUnits="userSpaceOnUse">
<stop stop-color="#DBF5FD"/>
<stop offset="1" stop-color="#6581A9"/>
</linearGradient>
</defs>
</svg>
