<svg width="222" height="321" viewBox="0 0 222 321" fill="none" xmlns="http://www.w3.org/2000/svg">
<path opacity="0.3" fill-rule="evenodd" clip-rule="evenodd" d="M-48.4719 319.843C12.2521 323.357 93.8451 284.524 126.5 258.003C153.24 236.286 187.025 216.474 208.963 193.381C237.604 163.234 208.956 120.546 208.963 87.0029C208.971 55.6926 103.227 40.3357 54.3347 21.6248C4.76889 2.65625 -45.3908 2.9187 -106.998 0.295441C-171.316 -2.44327 -180.614 14.1763 -228.535 36.3737C-274.346 57.5934 -278.305 91.9754 -296.93 122.176C-315.378 152.089 -364.455 183.764 -336.666 211.708C-308.363 240.169 -245.463 281.188 -195.212 300.043C-144.713 318.991 -110.624 316.245 -48.4719 319.843Z" fill="url(#paint0_linear_6197_88291)"/>
<defs>
<linearGradient id="paint0_linear_6197_88291" x1="113.461" y1="76.292" x2="-52.5391" y2="300.292" gradientUnits="userSpaceOnUse">
<stop stop-color="#DBF5FD"/>
<stop offset="1" stop-color="#6581A9"/>
</linearGradient>
</defs>
</svg>
