<svg width="1016" height="617" viewBox="0 0 1016 617" fill="none" xmlns="http://www.w3.org/2000/svg">
<g opacity="0.5">
<path d="M647.507 42.8541H667.311M647.507 53.2426H661.63M657.409 70.7763C662.346 70.7752 667.149 69.1665 671.09 66.1934C675.032 63.2203 677.898 59.0445 679.256 54.2976C680.613 49.5507 680.388 44.4908 678.614 39.8832C676.841 35.2756 673.615 31.3708 669.425 28.7595C665.235 26.1482 660.308 24.9723 655.39 25.4097C650.473 25.8471 645.831 27.874 642.167 31.1838C638.504 34.4936 636.018 38.9064 635.085 43.7547C634.152 48.603 634.824 53.6232 636.998 58.056C637.263 58.5966 637.352 59.2059 637.216 59.7907L635.211 68.4789C635.155 68.7228 635.161 68.977 635.23 69.2176C635.299 69.4582 635.428 69.6773 635.605 69.8543C635.782 70.0313 636.001 70.1603 636.242 70.2292C636.482 70.2981 636.737 70.3046 636.981 70.248L645.666 68.2406C646.253 68.1122 646.866 68.1903 647.401 68.4617C650.515 69.991 653.939 70.783 657.409 70.7763Z" stroke="#334155" stroke-width="4" stroke-linecap="round" stroke-linejoin="round"/>
</g>
<g opacity="0.5">
<path d="M12.2853 418.523H4.91406V448.008H54.0557V418.523H46.6844" stroke="#334155" stroke-width="4" stroke-linecap="round" stroke-linejoin="round"/>
<path d="M12.2853 424.052L29.4849 436.952L46.6844 424.052M12.2853 424.052V403.781H46.6844V424.052M12.2853 424.052L4.91406 418.524M46.6844 424.052L54.0557 418.524M23.3422 419.752L29.4849 425.895M29.4849 425.895L35.6276 419.752M29.4849 425.895V412.381" stroke="#334155" stroke-width="4" stroke-linecap="round" stroke-linejoin="round"/>
</g>
<g opacity="0.5" clip-path="url(#clip0_6197_89100)">
<path d="M175.109 45.556C172.641 43.9146 173.247 40.3302 176.108 39.5536C185.808 36.9211 204.696 32.5779 223.854 32.54C224.599 32.5324 225.334 32.7087 225.994 33.0531C226.654 33.3976 227.218 33.8997 227.638 34.5147C228.058 35.1298 228.319 35.8389 228.399 36.5792C228.479 37.3194 228.375 38.0679 228.096 38.7583C221.069 56.5805 210.133 72.582 204.143 80.6524C202.375 83.0326 198.816 82.2883 198.189 79.3911C196.843 73.1665 195.913 66.9464 195.494 63.9144C195.327 62.6893 195.641 61.4472 196.369 60.4478L202.9 51.3886L192.083 54.1645C190.886 54.4774 189.616 54.3158 188.536 53.7135C185.866 52.217 180.414 49.0817 175.109 45.556Z" stroke="#334155" stroke-width="4" stroke-linejoin="round"/>
</g>
<g opacity="0.5">
<path d="M456.05 39.7355C450.765 34.4411 446.702 28.0562 444.143 21.0273C442.735 17.1845 444.025 12.9632 446.919 10.0688L448.71 8.28C449.192 7.79747 449.764 7.41465 450.393 7.15346C451.023 6.89226 451.698 6.75781 452.38 6.75781C453.062 6.75781 453.737 6.89226 454.366 7.15346C454.996 7.41465 455.568 7.79747 456.05 8.28L460.244 12.4742C460.726 12.9558 461.109 13.5278 461.37 14.1575C461.631 14.7872 461.766 15.4622 461.766 16.1439C461.766 16.8256 461.631 17.5006 461.37 18.1303C461.109 18.76 460.726 19.332 460.244 19.8135L459.212 20.8455C458.799 21.2585 458.471 21.7488 458.247 22.2884C458.024 22.8281 457.909 23.4065 457.909 23.9906C457.909 24.5747 458.024 25.1531 458.247 25.6927C458.471 26.2323 458.799 26.7226 459.212 27.1356L468.647 36.5733C469.06 36.9863 469.55 37.314 470.09 37.5376C470.63 37.7611 471.208 37.8762 471.792 37.8762C472.376 37.8762 472.955 37.7611 473.494 37.5376C474.034 37.314 474.524 36.9863 474.937 36.5733L475.972 35.5413C476.453 35.0588 477.025 34.676 477.655 34.4148C478.284 34.1536 478.959 34.0191 479.641 34.0191C480.323 34.0191 480.998 34.1536 481.628 34.4148C482.257 34.676 482.829 35.0588 483.311 35.5413L487.505 39.7355C487.988 40.2171 488.37 40.7891 488.632 41.4188C488.893 42.0485 489.027 42.7235 489.027 43.4052C489.027 44.0869 488.893 44.7619 488.632 45.3916C488.37 46.0213 487.988 46.5933 487.505 47.0748L485.716 48.8636C482.822 51.7605 478.601 53.0504 474.758 51.6425C467.729 49.0835 461.344 45.0197 456.05 39.7355Z" stroke="#334155" stroke-width="4" stroke-linejoin="round"/>
</g>
<g opacity="0.5">
<path d="M972.344 375.343C976.005 371.754 980.935 369.756 986.062 369.781C991.19 369.807 996.099 371.856 999.725 375.481C1003.35 379.106 1005.4 384.016 1005.42 389.143C1005.45 394.27 1003.45 399.2 999.863 402.862L989.578 413.147C988.656 414.069 987.406 414.586 986.103 414.586C984.8 414.586 983.55 414.069 982.629 413.147L972.344 402.862C968.695 399.213 966.645 394.263 966.645 389.102C966.645 383.942 968.695 378.992 972.344 375.343Z" stroke="#334155" stroke-width="4" stroke-linejoin="round"/>
<path d="M986.106 396.477C990.177 396.477 993.477 393.177 993.477 389.106C993.477 385.035 990.177 381.734 986.106 381.734C982.035 381.734 978.734 385.035 978.734 389.106C978.734 393.177 982.035 396.477 986.106 396.477Z" stroke="#334155" stroke-width="4" stroke-linecap="round" stroke-linejoin="round"/>
</g>
<g opacity="0.5">
<path d="M284.156 198.446V188.695H277.422C276.529 188.695 275.672 188.34 275.041 187.708C274.409 187.077 274.055 186.221 274.055 185.327V161.758C274.055 160.865 274.409 160.008 275.041 159.377C275.672 158.745 276.529 158.391 277.422 158.391H314.46C315.353 158.391 316.209 158.745 316.841 159.377C317.472 160.008 317.827 160.865 317.827 161.758V185.327C317.827 186.221 317.472 187.077 316.841 187.708C316.209 188.34 315.353 188.695 314.46 188.695H295.941L285.594 199.042C285.476 199.16 285.326 199.24 285.162 199.273C284.999 199.305 284.829 199.289 284.675 199.225C284.521 199.161 284.39 199.053 284.297 198.914C284.205 198.776 284.156 198.612 284.156 198.446Z" stroke="#334155" stroke-width="4"/>
<path d="M284.156 178.594H307.726M284.156 168.492H307.726" stroke="#334155" stroke-width="4" stroke-linecap="round"/>
</g>
<g opacity="0.5">
<path d="M596.592 415.18H580.621C576.55 415.18 573.25 418.48 573.25 422.551V453.264C573.25 457.335 576.55 460.636 580.621 460.636H596.592C600.663 460.636 603.963 457.335 603.963 453.264V422.551C603.963 418.48 600.663 415.18 596.592 415.18Z" stroke="#334155" stroke-width="4" stroke-linecap="round" stroke-linejoin="round"/>
<path d="M586.148 452.039H591.063" stroke="#334155" stroke-width="4" stroke-linecap="round" stroke-linejoin="round"/>
</g>
<g opacity="0.5">
<path d="M39.3126 196.563C37.9612 196.563 36.8047 196.083 35.8432 195.121C34.8817 194.159 34.4001 193.002 34.3984 191.649V162.164C34.3984 160.813 34.88 159.656 35.8432 158.695C36.8064 157.733 37.9628 157.252 39.3126 157.25H78.6259C79.9773 157.25 81.1346 157.732 82.0977 158.695C83.0609 159.658 83.5417 160.814 83.54 162.164V191.649C83.54 193.001 83.0593 194.158 82.0977 195.121C81.1362 196.084 79.9789 196.565 78.6259 196.563H39.3126ZM78.6259 167.078L60.2592 178.565C60.0544 178.688 59.8399 178.781 59.6154 178.843C59.391 178.905 59.1756 178.935 58.9692 178.934C58.7628 178.932 58.5483 178.902 58.3255 178.843C58.1027 178.784 57.8873 178.691 57.6793 178.565L39.3126 167.078V191.649H78.6259V167.078ZM58.9692 174.45L78.6259 162.164H39.3126L58.9692 174.45ZM39.3126 167.693V164.068V164.13V164.1V167.693Z" fill="#334155"/>
</g>
<g opacity="0.5">
<path d="M441.184 580.713L441.207 580.688" stroke="#334155" stroke-width="4" stroke-linecap="round" stroke-linejoin="round"/>
<path d="M455.927 578.235V586.589C455.927 586.783 455.888 586.975 455.814 587.153C455.74 587.332 455.632 587.495 455.495 587.632C455.358 587.769 455.195 587.877 455.017 587.951C454.838 588.025 454.646 588.063 454.452 588.063H427.916C427.722 588.063 427.531 588.025 427.352 587.951C427.173 587.877 427.01 587.769 426.873 587.632C426.737 587.495 426.628 587.332 426.554 587.153C426.48 586.975 426.442 586.783 426.442 586.589V578.235M455.927 548.75V540.396C455.927 540.005 455.771 539.63 455.495 539.354C455.218 539.077 454.843 538.922 454.452 538.922H427.916C427.525 538.922 427.15 539.077 426.873 539.354C426.597 539.63 426.442 540.005 426.442 540.396V548.75" stroke="#334155" stroke-width="4" stroke-linecap="round"/>
<path d="M449.784 554.891L458.384 563.49L449.784 572.09M432.584 554.891L423.985 563.49L432.584 572.09" stroke="#334155" stroke-width="4" stroke-linecap="round" stroke-linejoin="round"/>
</g>
<g opacity="0.5" clip-path="url(#clip1_6197_89100)">
<path d="M853.7 81.364H831.586V44.5078H880.728V49.422M841.414 88.7352H853.7" stroke="#334155" stroke-width="4" stroke-linecap="square"/>
<path d="M863.527 59.25H883.184V88.735H863.527V59.25Z" stroke="#334155" stroke-width="4" stroke-linecap="square"/>
<path d="M873.352 81.3594H873.361V81.3684H873.352V81.3594Z" stroke="#334155" stroke-width="4" stroke-linecap="square"/>
</g>
<g opacity="0.5" clip-path="url(#clip2_6197_89100)">
<path d="M101.152 565.346C101.276 565.079 101.309 564.779 101.246 564.492C101.183 564.205 101.029 563.946 100.805 563.754C100.582 563.563 100.302 563.45 100.008 563.432C99.7148 563.414 99.4235 563.493 99.1787 563.656L99.1733 563.659L99.1652 563.664L99.1409 563.68L99.0599 563.734L98.7845 563.937C98.479 564.168 98.1818 564.411 97.8935 564.663C97.2131 565.257 96.3356 566.14 95.7119 567.193C95.1667 568.066 94.7297 569.001 94.4105 569.979C94.0865 570.949 93.8516 571.999 93.8516 572.879C93.8516 575.182 94.7048 577.145 96.0359 578.35L95.8631 578.549C95.1071 579.478 94.667 580.682 94.3916 581.87C93.8516 584.219 93.8516 587.044 93.8516 589.012V589.079C93.8516 596.604 94.8749 600.873 96.0008 603.314C96.5678 604.542 97.1699 605.325 97.691 605.817C97.9529 606.065 98.1905 606.235 98.3876 606.351C98.5026 606.42 98.6226 606.481 98.7467 606.532C98.7467 606.532 99.0518 606.629 99.2516 606.629C99.4514 606.629 99.7565 606.532 99.7565 606.532C99.8805 606.481 100.001 606.42 100.116 606.351C100.366 606.199 100.6 606.02 100.812 605.817C101.333 605.323 101.935 604.542 102.502 603.314C103.628 600.873 104.652 596.604 104.652 589.079V589.012C104.652 587.041 104.652 584.219 104.112 581.87C103.836 580.682 103.396 579.478 102.64 578.549L102.467 578.35C103.798 577.145 104.652 575.182 104.652 572.879C104.652 570.997 104.271 569.704 103.582 568.67C103.276 568.226 102.923 567.816 102.529 567.447L102.07 567.015C101.906 566.861 101.754 566.721 101.557 566.523C101.152 566.118 101.106 565.794 101.106 565.624C101.105 565.53 101.121 565.436 101.152 565.346ZM101.952 572.879C101.952 575.768 100.294 576.927 99.257 576.929H99.2516C98.2121 576.929 96.5516 575.774 96.5516 572.879C96.5516 572.412 96.692 571.672 96.9728 570.835C97.228 570.045 97.5808 569.289 98.0231 568.586C98.258 568.189 98.5631 567.803 98.8925 567.45C99.0761 567.781 99.3281 568.109 99.6485 568.435C99.8456 568.632 100.102 568.87 100.321 569.075L100.656 569.388C100.939 569.664 101.158 569.904 101.333 570.171C101.657 570.655 101.952 571.386 101.952 572.879ZM97.0241 582.478C97.2563 581.468 97.5749 580.723 97.9556 580.256C98.1036 580.054 98.2985 579.892 98.5234 579.783C98.7483 579.674 98.9963 579.621 99.2462 579.629H99.2516C99.8186 579.629 100.207 579.84 100.548 580.256C100.928 580.723 101.25 581.468 101.479 582.478C101.946 584.497 101.952 587.035 101.952 589.079C101.952 596.404 100.95 600.236 100.051 602.182C99.7538 602.822 99.4757 603.249 99.2516 603.532C98.9315 603.116 98.6631 602.663 98.4524 602.182C97.5533 600.236 96.5516 596.404 96.5516 589.079C96.5516 587.035 96.557 584.497 97.0241 582.478ZM112.752 593.129C110.821 593.129 108.982 592.724 107.325 591.995C107.361 591.034 107.379 590.035 107.379 588.998C109.014 589.936 110.866 590.429 112.752 590.429V585.029C112.752 583.597 113.32 582.224 114.333 581.211C115.346 580.198 116.719 579.629 118.152 579.629H123.552C123.552 577.712 123.041 575.828 122.073 574.173C121.104 572.518 119.712 571.151 118.04 570.211C116.368 569.272 114.476 568.795 112.559 568.83C110.641 568.864 108.768 569.408 107.13 570.406C106.962 569.5 106.654 568.626 106.218 567.814C108.273 566.677 110.589 566.096 112.938 566.129C115.287 566.161 117.586 566.806 119.609 567.999C121.633 569.192 123.31 570.893 124.474 572.932C125.639 574.972 126.252 577.28 126.252 579.629H131.652C133.084 579.629 134.457 580.198 135.47 581.211C136.483 582.224 137.052 583.597 137.052 585.029V598.529C137.052 599.961 136.483 601.335 135.47 602.348C134.457 603.36 133.084 603.929 131.652 603.929H118.152C116.719 603.929 115.346 603.36 114.333 602.348C113.32 601.335 112.752 599.961 112.752 598.529V593.129ZM125.982 582.329C125.449 584.922 124.168 587.302 122.296 589.174C120.424 591.045 118.045 592.327 115.452 592.859V598.529C115.452 599.245 115.736 599.932 116.242 600.438C116.749 600.945 117.435 601.229 118.152 601.229H131.652C132.368 601.229 133.054 600.945 133.561 600.438C134.067 599.932 134.352 599.245 134.352 598.529V585.029C134.352 584.313 134.067 583.626 133.561 583.12C133.054 582.614 132.368 582.329 131.652 582.329H125.982ZM123.211 582.329H118.152C117.435 582.329 116.749 582.614 116.242 583.12C115.736 583.626 115.452 584.313 115.452 585.029V590.089C117.319 589.604 119.023 588.629 120.387 587.265C121.752 585.901 122.727 584.197 123.211 582.329Z" fill="#334155"/>
</g>
<g opacity="0.5">
<path d="M256.454 436.051L272.091 420.414M291.782 413.461L287.101 427.503C287.026 427.728 286.898 427.932 286.728 428.097C286.558 428.262 286.35 428.384 286.123 428.452L257.429 436.98C257.171 437.057 256.896 437.061 256.635 436.993C256.374 436.924 256.137 436.786 255.95 436.592C255.762 436.398 255.632 436.156 255.572 435.894C255.512 435.631 255.526 435.356 255.611 435.1L264.928 407.154C264.995 406.953 265.104 406.769 265.248 406.614C265.392 406.459 265.568 406.338 265.764 406.257L279 400.807C279.269 400.696 279.565 400.667 279.85 400.724C280.136 400.781 280.398 400.921 280.604 401.126L291.425 411.952C291.619 412.146 291.755 412.39 291.818 412.656C291.881 412.922 291.868 413.201 291.782 413.461Z" stroke="#334155" stroke-width="4" stroke-linecap="round" stroke-linejoin="round"/>
<path d="M292.073 412.593L299.022 405.642C299.943 404.72 300.46 403.47 300.46 402.167C300.46 400.864 299.943 399.615 299.022 398.693L293.813 393.479C293.356 393.023 292.814 392.66 292.218 392.413C291.622 392.166 290.982 392.039 290.337 392.039C289.691 392.039 289.052 392.166 288.456 392.413C287.86 392.66 287.318 393.023 286.861 393.479L279.913 400.43M277.303 415.197C276.961 414.855 276.555 414.584 276.107 414.398C275.66 414.213 275.181 414.118 274.697 414.118C274.213 414.118 273.733 414.214 273.286 414.399C272.839 414.584 272.433 414.856 272.091 415.198C271.748 415.541 271.477 415.947 271.292 416.394C271.107 416.842 271.012 417.321 271.012 417.805C271.012 418.289 271.107 418.768 271.293 419.216C271.478 419.663 271.75 420.069 272.092 420.411C272.783 421.102 273.721 421.49 274.699 421.49C275.676 421.49 276.614 421.101 277.305 420.41C277.996 419.719 278.384 418.781 278.384 417.803C278.383 416.826 277.995 415.888 277.303 415.197Z" stroke="#334155" stroke-width="4" stroke-linecap="round" stroke-linejoin="round"/>
</g>
<g opacity="0.5" clip-path="url(#clip3_6197_89100)">
<path d="M776.439 545.061V581.917H717.469V545.061H735.897V541.376C735.897 540.857 735.993 540.377 736.185 539.936C736.377 539.494 736.636 539.11 736.962 538.784C737.289 538.458 737.682 538.189 738.143 537.978C738.603 537.767 739.083 537.671 739.582 537.69H754.325C754.843 537.69 755.323 537.786 755.765 537.978C756.206 538.17 756.59 538.429 756.916 538.755C757.243 539.082 757.511 539.475 757.723 539.936C757.934 540.397 758.03 540.876 758.011 541.376V545.061H776.439ZM739.582 545.061H754.325V541.376H739.582V545.061ZM721.154 548.747V554.074L739.582 563.259V559.804H754.325V563.259L772.753 554.074V548.747H721.154ZM743.268 563.489V567.175H750.639V563.489H743.268ZM772.753 578.232V558.162L754.325 567.405V570.86H739.582V567.405L721.154 558.162V578.232H772.753Z" fill="#334155"/>
</g>
<g opacity="0.5">
<path d="M737.368 207.619C730.597 207.619 724.52 206.392 719.035 200.897C718.621 200.483 718.059 200.25 717.473 200.25C716.887 200.25 716.325 200.483 715.91 200.897C710.411 206.392 704.33 207.619 697.567 207.619C696.98 207.619 696.418 207.852 696.003 208.267C695.588 208.682 695.355 209.244 695.355 209.831V223.106C695.355 237.34 702.616 247.015 716.769 251.736C717.223 251.888 717.715 251.888 718.169 251.736C732.326 247.019 739.583 237.34 739.583 223.106V209.831C739.583 208.611 738.588 207.619 737.368 207.619ZM735.893 223.103C735.893 235.619 729.864 243.794 717.465 248.076C705.067 243.794 699.037 235.619 699.037 223.103V211.286C704.857 211.143 711.391 210 717.469 204.494C723.536 209.997 730.074 211.139 735.893 211.286V223.103ZM715.619 228.97L725.371 219.218C725.542 219.047 725.746 218.911 725.97 218.818C726.194 218.725 726.433 218.678 726.676 218.678C726.918 218.678 727.158 218.725 727.382 218.818C727.606 218.911 727.809 219.047 727.98 219.218C728.152 219.389 728.288 219.593 728.38 219.817C728.473 220.04 728.521 220.28 728.521 220.523C728.521 220.765 728.473 221.005 728.38 221.229C728.288 221.453 728.152 221.656 727.98 221.827L716.924 232.884C716.752 233.056 716.549 233.192 716.325 233.285C716.101 233.378 715.861 233.426 715.619 233.426C715.376 233.426 715.136 233.378 714.913 233.285C714.689 233.192 714.485 233.056 714.314 232.884L708.786 227.356C708.44 227.01 708.245 226.54 708.245 226.051C708.245 225.562 708.44 225.092 708.786 224.746C709.132 224.4 709.601 224.206 710.09 224.206C710.58 224.206 711.049 224.4 711.395 224.746L715.619 228.97Z" fill="#334155"/>
</g>
<g opacity="0.5" clip-path="url(#clip4_6197_89100)">
<mask id="mask0_6197_89100" style="mask-type:luminance" maskUnits="userSpaceOnUse" x="459" y="157" width="60" height="60">
<path d="M459.746 157.25H518.716V216.22H459.746V157.25Z" fill="white"/>
</mask>
<g mask="url(#mask0_6197_89100)">
<path d="M518.716 185.975C518.716 182.068 513.824 178.365 506.322 176.07C508.055 168.426 507.286 162.342 503.895 160.394C503.073 159.934 502.143 159.703 501.202 159.723V162.401C501.755 162.401 502.2 162.512 502.573 162.716C504.207 163.655 504.917 167.222 504.364 171.815C504.232 172.945 504.015 174.134 503.75 175.348C501.237 174.745 498.688 174.307 496.118 174.038C494.586 171.926 492.916 169.919 491.118 168.028C495.037 164.387 498.715 162.392 501.217 162.392V159.711C497.909 159.711 493.583 162.067 489.206 166.153C484.833 162.094 480.504 159.76 477.199 159.76V162.438C479.688 162.438 483.378 164.424 487.297 168.04C485.614 169.81 483.931 171.815 482.332 174.038C479.756 174.303 477.202 174.745 474.688 175.36C474.412 174.158 474.204 172.996 474.061 171.876C473.496 167.281 474.194 163.714 475.818 162.765C476.177 162.549 476.646 162.451 477.199 162.451V159.772C476.191 159.772 475.275 159.989 474.484 160.443C471.105 162.392 470.348 168.461 472.09 176.082C464.614 178.392 459.746 182.08 459.746 185.975C459.746 189.881 464.638 193.584 472.14 195.877C470.407 203.523 471.176 209.607 474.567 211.553C475.349 212.01 476.263 212.226 477.27 212.226C480.577 212.226 484.904 209.87 489.28 205.784C493.654 209.845 497.981 212.177 501.288 212.177C502.236 212.195 503.173 211.962 504.003 211.504C507.381 209.558 508.138 203.489 506.396 195.867C513.849 193.572 518.716 189.869 518.716 185.975ZM503.064 177.957C502.598 179.564 502.056 181.148 501.443 182.704C500.44 180.749 499.337 178.848 498.138 177.006C499.848 177.257 501.491 177.574 503.067 177.957M497.563 190.759C496.663 192.33 495.696 193.862 494.666 195.351C491.06 195.668 487.433 195.672 483.825 195.363C481.757 192.407 479.948 189.279 478.417 186.012C479.944 182.736 481.746 179.596 483.803 176.625C487.409 176.308 491.035 176.303 494.642 176.611C495.641 178.044 496.61 179.567 497.551 181.181C498.463 182.755 499.297 184.349 500.052 185.962C499.288 187.594 498.457 189.194 497.563 190.759ZM501.443 189.196C502.091 190.808 502.647 192.417 503.101 193.98C501.529 194.366 499.868 194.69 498.15 194.941C499.343 193.082 500.442 191.164 501.443 189.196ZM489.256 202.022C488.135 200.865 487.021 199.583 485.914 198.174C486.995 198.223 488.101 198.26 489.219 198.26C490.351 198.262 491.465 198.233 492.56 198.174C491.479 199.582 490.361 200.867 489.256 202.022ZM480.312 194.941C478.655 194.701 477.01 194.384 475.383 193.992C475.828 192.442 476.381 190.842 477.005 189.245C477.498 190.203 478.017 191.166 478.582 192.13C479.147 193.091 479.724 194.028 480.312 194.941ZM489.194 169.927C490.315 171.084 491.428 172.367 492.536 173.775C491.455 173.726 490.349 173.689 489.231 173.689C488.099 173.688 486.985 173.716 485.889 173.775C486.971 172.367 488.089 171.082 489.194 169.927ZM480.3 177.009C479.107 178.864 478.009 180.777 477.007 182.741C476.376 181.175 475.823 179.578 475.349 177.957C476.921 177.584 478.582 177.259 480.3 177.009ZM469.422 192.056C465.166 190.243 462.414 187.862 462.414 185.975C462.414 184.088 465.166 181.694 469.422 179.893C470.454 179.449 471.584 179.051 472.751 178.68C473.437 181.033 474.339 183.486 475.454 185.999C474.4 188.363 473.509 190.796 472.788 193.282C471.647 192.928 470.524 192.519 469.422 192.056ZM475.889 209.231C474.255 208.297 473.545 204.725 474.098 200.135C474.231 199.005 474.447 197.813 474.712 196.599C477.066 197.176 479.639 197.621 482.344 197.911C483.876 200.023 485.546 202.031 487.344 203.921C483.425 207.563 479.747 209.558 477.245 209.558C476.774 209.56 476.309 209.448 475.889 209.233M504.401 200.076C504.966 204.668 504.268 208.238 502.644 209.187C502.286 209.403 501.816 209.499 501.263 209.499C498.774 209.499 495.084 207.516 491.165 203.897C492.956 202.015 494.615 200.012 496.131 197.901C498.706 197.636 501.26 197.195 503.775 196.579C504.055 197.792 504.263 198.957 504.401 200.076ZM509.028 192.058C507.996 192.503 506.866 192.901 505.698 193.272C504.964 190.774 504.061 188.329 502.996 185.953C504.101 183.454 504.988 181.014 505.662 178.67C506.854 179.042 507.98 179.45 509.04 179.896C513.296 181.709 516.048 184.09 516.048 185.977C516.035 187.864 513.283 190.257 509.028 192.058Z" fill="#334155"/>
<path d="M489.221 191.472C490.678 191.472 492.075 190.894 493.105 189.863C494.136 188.833 494.715 187.436 494.715 185.978C494.715 184.521 494.136 183.124 493.105 182.094C492.075 181.063 490.678 180.484 489.221 180.484C487.763 180.484 486.366 181.063 485.336 182.094C484.305 183.124 483.727 184.521 483.727 185.978C483.727 187.436 484.305 188.833 485.336 189.863C486.366 190.894 487.763 191.472 489.221 191.472Z" fill="#334155"/>
</g>
</g>
<g opacity="0.5">
<path d="M801.405 392.982C799.192 392.982 797.07 392.103 795.506 390.538C793.941 388.974 793.062 386.852 793.062 384.639C793.062 382.427 793.941 380.305 795.506 378.74C797.07 377.176 799.192 376.297 801.405 376.297H809.746V392.982M801.405 392.982H809.746M801.405 392.982C799.193 392.982 797.071 393.86 795.507 395.425C793.943 396.989 793.064 399.11 793.064 401.323C793.064 403.535 793.943 405.656 795.507 407.221C797.071 408.785 799.193 409.664 801.405 409.664H809.746V392.982" stroke="#334155" stroke-width="3"/>
<path d="M826.429 401.319C826.429 403.531 825.55 405.653 823.986 407.218C822.422 408.782 820.3 409.661 818.087 409.661C815.875 409.661 813.753 408.782 812.188 407.218C810.624 405.653 809.745 403.531 809.745 401.319C809.745 399.106 810.624 396.984 812.188 395.42C813.753 393.855 815.875 392.977 818.087 392.977C820.3 392.977 822.422 393.855 823.986 395.42C825.55 396.984 826.429 399.106 826.429 401.319ZM801.404 409.663H809.745V418.004C809.744 419.653 809.255 421.266 808.338 422.637C807.421 424.008 806.118 425.077 804.594 425.708C803.07 426.339 801.393 426.504 799.775 426.182C798.157 425.86 796.671 425.065 795.505 423.898C794.338 422.732 793.544 421.245 793.223 419.627C792.901 418.01 793.066 416.333 793.698 414.809C794.329 413.285 795.398 411.982 796.77 411.066C798.141 410.149 799.754 409.663 801.404 409.663Z" stroke="#334155" stroke-width="3"/>
<path d="M809.746 376.297H818.087C820.3 376.297 822.422 377.176 823.986 378.74C825.551 380.305 826.429 382.427 826.429 384.639C826.429 386.852 825.551 388.974 823.986 390.538C822.422 392.103 820.3 392.982 818.087 392.982H809.746V376.297Z" stroke="#334155" stroke-width="3"/>
</g>
<defs>
<clipPath id="clip0_6197_89100">
<rect width="58.9699" height="58.9699" fill="white" transform="translate(165.988 40.875) rotate(-34.2987)"/>
</clipPath>
<clipPath id="clip1_6197_89100">
<rect width="58.9699" height="58.9699" fill="white" transform="translate(826.672 37.1328)"/>
</clipPath>
<clipPath id="clip2_6197_89100">
<rect width="58.9699" height="58.9699" fill="white" transform="translate(88.4531 558.031)"/>
</clipPath>
<clipPath id="clip3_6197_89100">
<rect width="58.9699" height="58.9699" fill="white" transform="translate(717.469 534.008)"/>
</clipPath>
<clipPath id="clip4_6197_89100">
<rect width="58.9699" height="58.9699" fill="white" transform="translate(459.746 157.25)"/>
</clipPath>
</defs>
</svg>
