<svg width="771" height="579" viewBox="0 0 771 579" fill="none" xmlns="http://www.w3.org/2000/svg">
<path d="M0.5 567.82H770.5" stroke="#263238" stroke-linecap="round" stroke-linejoin="round"/>
<path d="M593.079 308.078V308.275C593.079 308.597 593.151 308.938 593.294 309.296C594.095 313.219 594.692 317.181 595.084 321.167C595.425 324.586 595.693 328.49 595.765 332.841C595.935 342.896 595.246 352.947 593.706 362.885C593.312 365.499 592.846 368.257 592.291 371.014C591.414 375.562 590.34 380.324 589.015 385.248C588.424 387.54 587.743 389.886 587.027 392.249L586.186 395.132C585.863 396.296 585.541 397.459 585.237 398.713C583.179 406.667 581.535 414.723 580.313 422.849C578.791 432.965 577.842 443.009 577.323 452.517C576.625 465.194 576.66 476.903 576.965 486.536C576.956 486.697 576.956 486.859 576.965 487.02C577.287 496.814 577.896 504.495 578.308 508.864C578.54 511.424 578.702 512.874 578.719 512.964" stroke="#263238" stroke-linecap="round" stroke-linejoin="round"/>
<path d="M593.134 308.324C590.454 305.941 587.224 304.262 583.734 303.436L593.134 308.324Z" fill="white"/>
<path d="M593.134 308.324C590.454 305.941 587.224 304.262 583.734 303.436" stroke="#263238" stroke-linecap="round" stroke-linejoin="round"/>
<path d="M595.133 321.212L599.896 316.896" stroke="#263238" stroke-linecap="round" stroke-linejoin="round"/>
<path d="M589.064 385.258C588.815 384.001 588.443 382.772 587.954 381.587C587.248 379.85 586.289 378.227 585.107 376.771C584.225 375.677 583.222 374.686 582.117 373.816" stroke="#263238" stroke-linecap="round" stroke-linejoin="round"/>
<path d="M585.258 398.699C585.933 397.027 586.943 395.511 588.228 394.245C589.512 392.979 591.042 391.99 592.724 391.34" stroke="#263238" stroke-linecap="round" stroke-linejoin="round"/>
<path d="M576.984 465.295C578.578 463.361 579.778 456.038 580.422 452.099C580.583 451.168 580.709 450.308 580.834 449.789" fill="white"/>
<path d="M576.984 465.295C578.578 463.361 579.778 456.038 580.422 452.099C580.583 451.168 580.709 450.308 580.834 449.789" stroke="#263238" stroke-linecap="round" stroke-linejoin="round"/>
<path d="M564.719 478.585C565.249 478.532 565.782 478.532 566.312 478.585C568.658 478.813 570.896 479.675 572.789 481.079C574.681 482.482 576.156 484.375 577.055 486.553" fill="white"/>
<path d="M564.719 478.585C565.249 478.532 565.782 478.532 566.312 478.585C568.658 478.813 570.896 479.675 572.789 481.079C574.681 482.482 576.156 484.375 577.055 486.553" stroke="#263238" stroke-linecap="round" stroke-linejoin="round"/>
<path d="M592.346 371.147C592.346 371.147 593.188 342.087 577.234 331.541" stroke="#263238" stroke-linecap="round" stroke-linejoin="round"/>
<path d="M593.703 433.44C595.798 440.226 581.169 453.136 581.169 453.136C581.169 453.136 561.85 450.719 559.684 443.95C557.517 437.182 562.477 426.046 571.859 423.181C581.241 420.316 591.68 426.654 593.703 433.44Z" fill="#00DF3F"/>
<path d="M609.982 351.205C608.191 358.367 594.297 363.506 594.297 363.506C594.297 363.506 584.754 352.351 586.544 345.153C588.335 337.956 596.052 330.042 602.533 331.707C609.015 333.372 611.844 344.007 609.982 351.205Z" fill="#00DF3F"/>
<path d="M554.499 458.765C563.183 462.131 568.501 477.494 568.501 477.494C568.501 477.494 554.177 485.211 545.511 481.827C536.845 478.443 527.606 468.917 530.113 462.561C532.62 456.205 545.816 455.31 554.499 458.765Z" fill="#00DF3F"/>
<path d="M573.525 374.25C575.283 375.728 577.298 376.869 579.469 377.616C580.56 377.969 581.726 378.015 582.841 377.75C583.955 377.485 584.976 376.918 585.79 376.112C587.58 373.981 587.151 370.741 585.987 368.073C583.659 362.97 575.101 354.286 568.53 356.775C559.04 360.409 569.3 371.152 573.525 374.25Z" fill="#00DF3F"/>
<path d="M592.956 387.265C591.703 388.805 590.378 390.757 591.076 392.637C591.465 393.426 592.105 394.065 592.895 394.454C593.685 394.842 594.582 394.959 595.445 394.785C597.162 394.377 598.766 393.588 600.136 392.475C603.484 390.148 610.36 385.313 605.973 380.712C601.586 376.11 595.499 384.024 592.956 387.265Z" fill="#00DF3F"/>
<path d="M564.937 322.324C564.214 322.366 563.523 322.634 562.961 323.09C562.399 323.546 561.994 324.168 561.804 324.866C561.517 326.531 562.896 327.982 564.221 329.002C567.551 331.581 577.56 338.492 579.78 331.813C581.893 325.511 569.342 321.84 564.937 322.324Z" fill="#00DF3F"/>
<path d="M583.358 300.368C581.299 300.565 579.24 299.813 577.163 299.938C575.086 300.063 572.812 301.728 573.26 303.77C573.708 305.811 576.017 306.258 577.915 306.366C581.183 306.576 584.464 306.353 587.674 305.703C588.434 305.631 589.138 305.273 589.643 304.701C590.485 303.465 589.16 301.818 587.727 301.388C586.257 301.193 584.811 300.845 583.412 300.35L583.358 300.368Z" fill="#00DF3F"/>
<path d="M603.518 314.586C605.577 314.586 607.582 313.762 609.659 313.744C611.736 313.726 614.135 315.248 613.795 317.325C613.455 319.402 611.235 319.993 609.337 320.226C606.092 320.656 602.805 320.656 599.561 320.226C598.793 320.208 598.061 319.894 597.52 319.349C596.606 318.185 597.824 316.448 599.203 315.911C600.662 315.638 602.086 315.2 603.446 314.604L603.518 314.586Z" fill="#00DF3F"/>
<path d="M601.477 467.151C601.951 466.656 602.586 466.345 603.268 466.273C603.728 466.317 604.158 466.52 604.485 466.847C604.812 467.173 605.014 467.604 605.058 468.064C605.157 468.949 605.047 469.844 604.736 470.678C603.321 475.387 587.565 509.388 583.93 503.283C581.8 499.702 587.064 487.723 588.621 484.339C591.594 477.736 595.983 471.868 601.477 467.151Z" fill="#00DF3F"/>
<path d="M593.797 310.275C593.797 310.275 592.848 302.021 594.835 301.322" stroke="#263238" stroke-linecap="round" stroke-linejoin="round"/>
<path d="M592.039 301.662C593.054 298.747 594.806 296.145 597.124 294.106C599.613 292.316 603.606 292.173 605.414 294.661C607.437 297.437 605.414 301.644 602.316 303.13C599.219 304.617 595.566 304.169 592.164 303.685C592.164 303.184 592.164 302.683 592.164 302.181L592.039 301.662Z" fill="#00DF3F"/>
<path d="M600.527 567.412C583.649 570.259 566.412 570.259 549.534 567.412L529.695 508.881H620.366L600.527 567.412Z" fill="#400000" stroke="#263238" stroke-linecap="round" stroke-linejoin="round"/>
<path d="M254.494 144.533V144.73C254.566 145.052 254.637 145.393 254.709 145.751C255.52 149.672 256.118 153.635 256.499 157.622C256.84 161.042 257.09 164.945 257.18 169.296C257.363 179.325 256.692 189.353 255.174 199.268C254.78 201.883 254.315 204.64 253.76 207.397C252.883 211.945 251.79 216.708 250.483 221.632C249.875 223.924 249.212 226.269 248.496 228.633C248.209 229.599 247.923 230.548 247.654 231.515C247.386 232.482 246.992 233.843 246.687 235.096C244.631 243.051 242.987 251.107 241.764 259.232C240.242 269.348 239.311 279.393 238.791 288.9C238.093 301.577 238.111 313.287 238.433 322.92V323.403C238.773 333.197 239.364 340.878 239.794 345.265C240.009 347.808 240.188 349.258 240.188 349.347" stroke="#263238" stroke-linecap="round" stroke-linejoin="round"/>
<path d="M254.527 144.786C253.243 143.662 251.838 142.683 250.338 141.868C248.684 140.996 246.927 140.335 245.109 139.898" fill="white"/>
<path d="M254.527 144.786C253.243 143.662 251.838 142.683 250.338 141.868C248.684 140.996 246.927 140.335 245.109 139.898" stroke="#263238" stroke-linecap="round" stroke-linejoin="round"/>
<path d="M256.531 157.674L261.312 153.359" stroke="#263238" stroke-linecap="round" stroke-linejoin="round"/>
<path d="M250.488 221.721C250.233 220.463 249.855 219.234 249.36 218.05C248.655 216.313 247.695 214.69 246.514 213.234C245.631 212.139 244.628 211.148 243.523 210.279" stroke="#263238" stroke-linecap="round" stroke-linejoin="round"/>
<path d="M246.672 235.07C247.34 233.397 248.346 231.879 249.628 230.613C250.91 229.347 252.439 228.359 254.12 227.711" stroke="#263238" stroke-linecap="round" stroke-linejoin="round"/>
<path d="M238.383 301.75C239.976 299.816 241.194 292.493 241.838 288.554C241.982 287.623 242.125 286.763 242.232 286.244" fill="white"/>
<path d="M238.383 301.75C239.976 299.816 241.194 292.493 241.838 288.554C241.982 287.623 242.125 286.763 242.232 286.244" stroke="#263238" stroke-linecap="round" stroke-linejoin="round"/>
<path d="M226.117 314.966C226.653 314.912 227.193 314.912 227.729 314.966C230.072 315.2 232.308 316.064 234.2 317.467C236.092 318.87 237.568 320.759 238.472 322.934" fill="white"/>
<path d="M226.117 314.966C226.653 314.912 227.193 314.912 227.729 314.966C230.072 315.2 232.308 316.064 234.2 317.467C236.092 318.87 237.568 320.759 238.472 322.934" stroke="#263238" stroke-linecap="round" stroke-linejoin="round"/>
<path d="M253.745 207.535C253.745 207.535 254.604 178.476 238.633 167.93" stroke="#263238" stroke-linecap="round" stroke-linejoin="round"/>
<path d="M255.196 269.902C257.273 276.688 242.662 289.597 242.662 289.597C242.662 289.597 223.325 287.18 221.177 280.412C219.028 273.644 223.988 262.507 233.352 259.642C242.716 256.778 253.101 263.134 255.196 269.902Z" fill="#00DF3F"/>
<path d="M271.415 187.66C269.625 194.822 255.73 199.961 255.73 199.961C255.73 199.961 246.08 188.806 247.942 181.608C249.804 174.411 257.431 166.497 263.913 168.162C270.394 169.827 273.205 180.463 271.415 187.66Z" fill="#00DF3F"/>
<path d="M215.909 295.212C224.593 298.596 229.929 313.941 229.929 313.941C229.929 313.941 215.605 321.658 206.921 318.274C198.237 314.89 189.016 305.364 191.541 299.008C194.065 292.652 207.208 291.828 215.909 295.212Z" fill="#00DF3F"/>
<path d="M234.949 210.705C236.7 212.182 238.709 213.324 240.875 214.071C241.965 214.424 243.132 214.47 244.246 214.205C245.361 213.94 246.381 213.373 247.196 212.567C248.986 210.436 248.556 207.196 247.393 204.528C245.065 199.425 236.524 190.741 229.935 193.23C220.464 196.829 230.705 207.572 234.949 210.705Z" fill="#00DF3F"/>
<path d="M254.354 223.738C253.119 225.278 251.794 227.319 252.474 229.109C252.863 229.899 253.503 230.538 254.293 230.926C255.083 231.315 255.98 231.431 256.843 231.258C258.562 230.854 260.166 230.064 261.534 228.948C264.882 226.638 271.758 221.786 267.371 217.185C262.984 212.583 256.986 220.479 254.354 223.738Z" fill="#00DF3F"/>
<path d="M226.336 158.787C225.614 158.831 224.924 159.1 224.362 159.556C223.8 160.012 223.395 160.632 223.202 161.329C222.916 162.994 224.294 164.445 225.637 165.465C228.968 168.043 238.958 174.955 241.197 168.276C243.291 161.974 230.758 158.303 226.336 158.787Z" fill="#00DF3F"/>
<path d="M244.75 136.831C242.691 137.028 240.632 136.276 238.573 136.401C236.514 136.526 234.204 138.191 234.67 140.233C235.135 142.274 237.409 142.721 239.325 142.829C242.587 143.038 245.862 142.816 249.065 142.166C249.831 142.095 250.541 141.737 251.053 141.164C251.876 139.928 250.552 138.281 249.137 137.851C247.661 137.656 246.208 137.308 244.804 136.813L244.75 136.831Z" fill="#00DF3F"/>
<path d="M264.916 151.023C266.993 151.023 268.998 150.2 271.057 150.182C273.116 150.164 275.534 151.686 275.211 153.763C274.889 155.84 272.633 156.431 270.735 156.663C267.491 157.093 264.204 157.093 260.959 156.663C260.191 156.646 259.459 156.331 258.918 155.786C258.005 154.622 259.222 152.885 260.619 152.348C262.077 152.071 263.5 151.632 264.862 151.041L264.916 151.023Z" fill="#00DF3F"/>
<path d="M262.875 303.621C263.351 303.129 263.985 302.819 264.666 302.744C265.122 302.797 265.547 303.003 265.872 303.328C266.197 303.653 266.403 304.078 266.456 304.535C266.549 305.421 266.432 306.316 266.116 307.149C264.719 311.858 248.945 345.859 245.328 339.754C243.18 336.173 248.444 324.194 250.002 320.81C252.979 314.205 257.375 308.337 262.875 303.621Z" fill="#00DF3F"/>
<path d="M255.193 146.771C255.193 146.771 254.244 138.517 256.249 137.818" stroke="#263238" stroke-linecap="round" stroke-linejoin="round"/>
<path d="M253.508 138.117C254.51 135.196 256.264 132.59 258.593 130.561C261.082 128.771 265.056 128.628 266.865 131.116C268.888 133.892 266.865 138.099 263.767 139.585C260.67 141.072 257.035 140.624 253.633 140.141C253.633 139.639 253.633 139.138 253.633 138.636L253.508 138.117Z" fill="#00DF3F"/>
<path d="M19.5 409.789V232.871" stroke="#1300DF" stroke-linecap="round" stroke-linejoin="round"/>
<path d="M571.87 409.787H550.008" stroke="#1300DF" stroke-linecap="round" stroke-linejoin="round"/>
<path d="M743.311 409.787H698.781" stroke="#1300DF" stroke-linecap="round" stroke-linejoin="round"/>
<path d="M548 141.02H626.907V65.8555" stroke="#1300DF" stroke-linecap="round" stroke-linejoin="round"/>
<path d="M88.1016 118.066H171.932V179.212H263.82" stroke="#1300DF" stroke-linecap="round" stroke-linejoin="round"/>
<path d="M38.6484 325.14V190.029" stroke="#1300DF" stroke-linecap="round" stroke-linejoin="round"/>
<path d="M76.1016 131.379V237.268" stroke="#1300DF" stroke-linecap="round" stroke-linejoin="round"/>
<path d="M113.539 131.379V224.986" stroke="#1300DF" stroke-linecap="round" stroke-linejoin="round"/>
<path d="M150.977 131.379V295.119" stroke="#1300DF" stroke-linecap="round" stroke-linejoin="round"/>
<path d="M330.336 108.162V0.5H482.76V108.162" stroke="#1300DF" stroke-linecap="round" stroke-linejoin="round"/>
<path d="M341.508 53.9849V13.2871H369.69" stroke="#1300DF" stroke-linecap="round" stroke-linejoin="round"/>
<path d="M375.883 53.9849V13.2871H404.065" stroke="#1300DF" stroke-linecap="round" stroke-linejoin="round"/>
<path d="M410.266 53.9849V13.2871H438.448" stroke="#1300DF" stroke-linecap="round" stroke-linejoin="round"/>
<path d="M444.641 53.9849V13.2871H472.823" stroke="#1300DF" stroke-linecap="round" stroke-linejoin="round"/>
<path d="M341.508 108.169V67.4707H369.69" stroke="#1300DF" stroke-linecap="round" stroke-linejoin="round"/>
<path d="M375.883 108.169V67.4707H404.065" stroke="#1300DF" stroke-linecap="round" stroke-linejoin="round"/>
<path d="M410.266 108.169V67.4707H438.448" stroke="#1300DF" stroke-linecap="round" stroke-linejoin="round"/>
<path d="M444.641 108.169V67.4707H472.823" stroke="#1300DF" stroke-linecap="round" stroke-linejoin="round"/>
<path d="M639.117 75.166V210.079" stroke="#1300DF" stroke-linecap="round" stroke-linejoin="round"/>
<path d="M694.461 399.902H698.776" stroke="#1300DF" stroke-linecap="round" stroke-linejoin="round"/>
<path d="M672.297 113.914V264.96" stroke="#1300DF" stroke-linecap="round" stroke-linejoin="round"/>
<path d="M705.492 361.328V399.895H731.973" stroke="#1300DF" stroke-linecap="round" stroke-linejoin="round"/>
<path d="M705.492 163.146V265.724" stroke="#1300DF" stroke-linecap="round" stroke-linejoin="round"/>
<path d="M738.672 240.982V399.906H744.706" stroke="#1300DF" stroke-linecap="round" stroke-linejoin="round"/>
<path d="M342.484 345.695H0.5V567.823H342.484V345.695Z" fill="#FFE0DD" stroke="#263238" stroke-linecap="round" stroke-linejoin="round"/>
<path d="M0.5 345.695L171.492 456.759L342.484 345.695H0.5Z" fill="#FFE0DD" stroke="#263238" stroke-linecap="round" stroke-linejoin="round"/>
<path d="M120.087 423.367L0.5 567.824" stroke="#263238" stroke-linecap="round" stroke-linejoin="round"/>
<path d="M223.828 423.367L343.415 567.824" stroke="#263238" stroke-linecap="round" stroke-linejoin="round"/>
<path d="M550.071 73.682C550.08 70.6616 549.493 67.669 548.344 64.8758C547.195 62.0826 545.505 59.5437 543.373 57.4047C541.24 55.2656 538.707 53.5684 535.917 52.4104C533.128 51.2523 530.137 50.6562 527.117 50.6563H303.001C299.987 50.6539 297.003 51.2454 294.218 52.397C291.433 53.5486 288.903 55.2377 286.771 57.3678C284.639 59.4978 282.948 62.0271 281.794 64.811C280.641 67.5949 280.047 70.5789 280.047 73.5924V544.831C280.047 550.915 282.463 556.748 286.765 561.05C291.066 565.351 296.9 567.768 302.983 567.768H527.117C533.201 567.768 539.037 565.352 543.341 561.051C547.645 556.75 550.066 550.916 550.071 544.831V73.682ZM542.318 526.927C542.252 531.329 540.443 535.525 537.288 538.596C534.133 541.667 529.89 543.362 525.487 543.31H304.612C300.212 543.362 295.97 541.667 292.818 538.595C289.666 535.524 287.861 531.327 287.8 526.927V78.6416C287.828 76.4619 288.285 74.3091 289.145 72.306C290.005 70.303 291.251 68.489 292.813 66.9677C294.374 65.4463 296.219 64.2475 298.244 63.4395C300.269 62.6315 302.433 62.2302 304.612 62.2586H384.056C386.362 62.258 388.625 62.8819 390.605 64.0641C392.585 65.2463 394.208 66.9426 395.301 68.973C397.254 72.4987 400.116 75.4372 403.589 77.4832C407.062 79.5293 411.019 80.6084 415.05 80.6084C419.081 80.6084 423.038 79.5293 426.511 77.4832C429.984 75.4372 432.845 72.4987 434.799 68.973C435.902 66.9659 437.525 65.2922 439.497 64.1268C441.468 62.9614 443.717 62.3471 446.007 62.3482H525.505C527.685 62.3198 529.849 62.721 531.873 63.529C533.898 64.337 535.744 65.5359 537.305 67.0572C538.866 68.5785 540.112 70.3925 540.972 72.3956C541.833 74.3986 542.29 76.5514 542.318 78.7311V526.927Z" fill="#263238"/>
<path d="M195.862 241.397C195.226 242.579 194.31 243.588 193.194 244.333C184.934 250.922 176.483 257.243 167.84 263.295C164.671 265.515 161.377 267.807 158.315 270.296C139.909 282.614 151.153 285.622 139.909 311.692C137.259 317.923 137.742 348.45 137.742 348.45H136.829C134.674 346.323 132.383 344.338 129.972 342.506C129.639 342.282 129.292 342.078 128.933 341.897C128.597 341.724 128.234 341.609 127.859 341.557C126.068 341.45 119.247 342.273 112.353 341.826L110.563 341.682C109.56 341.575 108.575 341.45 107.591 341.271C106.606 341.092 105.657 340.895 104.744 340.644C98.2019 338.546 91.7871 336.071 85.5317 333.231L82.4163 331.888L80.8764 331.226L79.4799 330.617L78.4772 330.187L77.5103 329.776C75.881 329.095 74.3591 328.469 72.9625 327.985C72.3223 327.756 71.6709 327.558 71.0108 327.394C71.0108 328.863 70.7781 330.367 70.5811 331.835C69.7217 338.836 67.8059 345.299 64.386 346.159C64.3156 346.177 64.2416 346.177 64.1712 346.159C63.87 346.215 63.5644 346.245 63.258 346.248H62.9894C62.2319 346.233 61.4819 346.094 60.7692 345.836C57.6655 344.512 55.1292 342.134 53.6073 339.122C52.9272 337.852 52.5474 336.443 52.4972 335.004C52.4972 329.794 51.0469 299.051 51.0469 290.098C51.0469 281.146 52.8374 265.479 57.2957 259.66C59.038 257.193 61.2385 255.084 63.7773 253.447C67.044 250.724 70.7907 248.635 74.8246 247.288C79.5873 245.73 90.2407 241.755 97.6712 238.944L86.4449 243.277C89.2917 248.147 95.3973 255.811 106.409 256.795C116.758 257.673 123.168 248.308 126.444 241.469C126.731 241.576 144.743 238.156 148.915 238.353C162.505 238.944 173.588 231.585 178.601 228.667C180.114 227.763 181.81 227.213 183.565 227.057C185.32 226.902 187.087 227.145 188.735 227.768C190.382 228.391 191.868 229.379 193.08 230.657C194.293 231.935 195.201 233.47 195.736 235.148V235.309C196.52 237.255 196.564 239.421 195.862 241.397Z" fill="#334155" stroke="#263238" stroke-linecap="round" stroke-linejoin="round"/>
<path d="M126.245 241.576L125.422 241.289" stroke="#263238" stroke-linecap="round" stroke-linejoin="round"/>
<path d="M141.521 356.328C141.529 356.399 141.529 356.471 141.521 356.543C141.448 356.716 141.337 356.87 141.197 356.995C141.057 357.119 140.89 357.211 140.71 357.262C140.529 357.314 140.339 357.324 140.154 357.293C139.969 357.261 139.794 357.189 139.641 357.08C138.817 356.615 137.546 353.624 137.546 353.624L136.131 352.156L135.2 351.171C135.344 351.529 136.472 354.269 135.881 355.54C135.851 355.627 135.802 355.707 135.738 355.773C135.342 356.302 134.828 356.731 134.238 357.026C133.647 357.321 132.996 357.475 132.336 357.474C131.566 357.474 129.31 357.742 127.34 357.868H127.125C126.529 357.901 125.931 357.901 125.335 357.868C123.745 357.663 122.212 357.146 120.823 356.346C117.673 355.883 114.57 355.146 111.548 354.144L111.011 353.857L110.527 353.571C110.21 353.379 109.915 353.15 109.65 352.89C108.559 351.981 107.632 350.891 106.911 349.667C106.911 349.667 99.6413 349.363 89.8831 348.611C86.3021 348.342 82.4347 348.002 78.424 347.608C72.2647 346.982 67.1797 347.017 63.1869 346.462H62.9004C62.1126 346.355 61.3785 346.212 60.6802 346.051C58.9761 345.718 57.4004 344.911 56.1337 343.723C54.8669 342.536 53.9605 341.015 53.5183 339.336C53.2838 338.541 53.0926 337.735 52.9453 336.919L56.0608 331.548C57.6846 330.245 59.4954 329.195 61.4322 328.432C64.4372 327.175 67.7554 326.869 70.9397 327.555C71.5998 327.719 72.2512 327.916 72.8914 328.146C74.2879 328.683 75.8099 329.31 77.4392 329.936L78.424 330.348L79.4266 330.778L80.8232 331.386C88.7909 334.681 98.2984 338.924 104.655 340.715C106.564 341.215 108.51 341.562 110.474 341.753L112.264 341.897C119.158 342.344 125.961 341.521 127.77 341.628C129.578 341.736 134.001 345.943 136.83 348.539C137.6 349.256 138.28 349.846 138.746 350.205L138.96 350.384L139.122 350.527C140.147 351.579 140.865 352.892 141.199 354.323C141.339 354.802 141.435 355.294 141.485 355.791C141.518 355.968 141.53 356.148 141.521 356.328Z" fill="white" stroke="#263238" stroke-linecap="round" stroke-linejoin="round"/>
<path d="M141.519 356.322C141.527 356.394 141.527 356.466 141.519 356.537C141.444 356.709 141.332 356.862 141.191 356.984C141.05 357.107 140.883 357.196 140.703 357.246C140.523 357.296 140.333 357.305 140.149 357.272C139.965 357.239 139.791 357.166 139.639 357.057C138.753 356.029 138.045 354.861 137.544 353.601L136.129 352.151L135.198 351.184C135.324 351.47 136.488 354.263 135.897 355.553C135.867 355.64 135.818 355.719 135.753 355.785C135.555 356.049 135.327 356.29 135.073 356.502C134.301 357.122 133.342 357.463 132.352 357.468C131.564 357.468 129.326 357.719 127.374 357.862H127.123C126.527 357.895 125.929 357.895 125.333 357.862C123.753 357.651 122.227 357.141 120.839 356.358C117.689 355.887 114.586 355.144 111.564 354.138L111.045 353.887L110.561 353.601C110.252 353.397 109.958 353.17 109.684 352.921C108.577 352.004 107.638 350.901 106.909 349.662C106.909 349.662 99.8541 349.357 90.2929 348.623C86.7119 348.355 82.5759 347.997 78.422 347.585C72.764 347.03 68.0908 346.869 64.3129 346.278L63.1491 346.063L61.8062 345.759C61.4966 343.565 61.724 341.328 62.4687 339.241C63.1628 337.48 64.2391 335.896 65.6201 334.601C67.0011 333.307 68.6522 332.336 70.4543 331.757C72.6908 330.935 74.9823 330.271 77.3119 329.77L78.2787 330.181L79.2814 330.611L80.678 331.22C88.7889 334.711 98.189 338.937 104.563 340.674C106.471 341.176 108.417 341.517 110.382 341.694L112.173 341.837C119.066 342.303 125.87 341.479 127.678 341.587C129.487 341.694 133.891 345.884 136.631 348.48C137.252 349.074 137.904 349.636 138.582 350.163L138.797 350.324L138.958 350.468C140.003 351.505 140.725 352.824 141.035 354.263C141.176 354.743 141.272 355.234 141.322 355.732C141.413 355.919 141.48 356.118 141.519 356.322Z" fill="white" stroke="#263238" stroke-linecap="round" stroke-linejoin="round"/>
<path d="M120.086 351.568C120.086 351.568 124.15 353.681 125.762 354.415C127.373 355.149 127.23 358.104 127.23 358.104" fill="white"/>
<path d="M120.086 351.568C120.086 351.568 124.15 353.681 125.762 354.415C127.373 355.149 127.23 358.104 127.23 358.104" stroke="#263238" stroke-linecap="round" stroke-linejoin="round"/>
<path d="M124.438 348.697C126.994 350.522 129.457 352.476 131.814 354.552C132.159 354.957 132.383 355.449 132.462 355.974C132.541 356.5 132.472 357.037 132.262 357.524" fill="white"/>
<path d="M124.438 348.697C126.994 350.522 129.457 352.476 131.814 354.552C132.159 354.957 132.383 355.449 132.462 355.974C132.541 356.5 132.472 357.037 132.262 357.524" stroke="#263238" stroke-linecap="round" stroke-linejoin="round"/>
<path d="M135.144 351.149C133.026 348.879 130.784 346.727 128.43 344.703L135.144 351.149Z" fill="white"/>
<path d="M135.144 351.149C133.026 348.879 130.784 346.727 128.43 344.703" stroke="#263238" stroke-linecap="round" stroke-linejoin="round"/>
<path d="M126.224 241.613C122.983 248.434 116.555 257.727 106.206 256.921C95.2484 255.99 89.0891 248.273 86.2422 243.385C90.1813 241.881 94.174 240.341 97.4506 239.052C97.4506 235.722 97.3432 231.729 96.9851 227.772C96.9851 226.913 96.8061 225.982 96.7165 225.176C96.627 224.37 96.5196 223.797 96.4122 223.135H117.236C117.236 223.135 117.11 223.958 116.949 225.337C116.824 226.572 116.663 228.22 116.537 230.082C116.376 232.553 116.269 235.453 116.34 238.193C117.343 238.533 118.364 238.909 119.384 239.303L121.354 239.983C122.142 240.27 122.911 240.52 123.735 240.789L125.526 241.326C125.764 241.407 125.997 241.503 126.224 241.613Z" fill="white" stroke="#263238" stroke-linecap="round" stroke-linejoin="round"/>
<path d="M96.7188 225.098C96.7188 225.098 100.604 235.196 106.244 236.915C111.884 238.634 116.987 225.33 116.987 225.33C116.987 225.33 109.037 233.817 106.083 232.492C103.129 231.167 96.7546 225.169 96.7546 225.169" fill="#263238"/>
<path d="M93.3758 169.337C88.1139 174.074 83.9417 179.895 81.1468 186.4C78.5864 191.772 76.4199 197.949 78.3895 203.571C79.568 206.363 81.2355 208.921 83.3133 211.127C87.1808 215.764 92.6059 228.71 96.4734 233.347C96.7241 225.093 89.8128 211.754 90.5469 204.824C91.436 199.471 93.1961 194.3 95.7572 189.516C98.3618 183.242 101.768 177.332 105.891 171.933C108.237 169.104 115.775 164.073 108.165 163.464C103.116 163.052 97.1896 166.204 93.3758 169.337Z" fill="#263238" stroke="#263238" stroke-linecap="round" stroke-linejoin="round"/>
<path d="M88.5014 197.477C88.5014 197.477 85.8336 192.303 83.0225 197.209C80.9992 200.79 83.9177 206.43 85.1711 208.524C85.587 209.121 86.1503 209.599 86.8061 209.913C87.462 210.227 88.1879 210.365 88.9132 210.315L88.5014 197.477Z" fill="white" stroke="#263238" stroke-linecap="round" stroke-linejoin="round"/>
<path d="M123.555 216.165C121.845 219.546 119.615 222.639 116.949 225.332L115.337 226.997C112.007 230.292 108.408 232.906 106.045 232.369C103.985 231.957 101.3 229.844 98.6677 227.14C98.0052 226.478 97.3606 225.762 96.7161 225.045C93.8503 221.91 91.39 218.427 89.3929 214.679C88.8382 213.273 88.4826 211.796 88.3366 210.292C87.8848 205.807 87.7293 201.297 87.871 196.792C87.871 195.198 87.871 193.927 87.871 193.211C87.871 190.095 99.545 179.263 99.545 179.263C99.8597 179.147 100.198 179.11 100.53 179.155C102.538 179.521 104.473 180.21 106.259 181.196C113.332 184.634 123.197 191.456 123.914 194.052C125.006 197.83 124.594 212.799 123.555 216.165Z" fill="white" stroke="#263238" stroke-linecap="round" stroke-linejoin="round"/>
<path d="M100.367 201.806C100.367 203.059 99.9015 204.08 99.3822 204.08C98.863 204.08 98.3438 203.095 98.3438 201.806C98.3438 200.517 98.8093 199.496 99.3822 199.496C99.9552 199.496 100.367 200.552 100.367 201.806Z" fill="#263238"/>
<path d="M113.71 199.521C114.283 199.521 114.749 200.542 114.749 201.813C114.749 203.085 114.283 204.087 113.71 204.087C113.137 204.087 112.672 203.067 112.672 201.813C112.672 200.56 113.137 199.521 113.71 199.521Z" fill="#263238"/>
<path d="M93.7109 196.169C93.7109 196.169 95.5014 192.588 101.84 193.68" stroke="#263238" stroke-linecap="round" stroke-linejoin="round"/>
<path d="M119.605 196.169C119.605 196.169 117.815 192.588 111.477 193.68" stroke="#263238" stroke-linecap="round" stroke-linejoin="round"/>
<path d="M107.875 210.57C108.519 210.53 109.133 210.284 109.626 209.868C110.119 209.452 110.466 208.888 110.614 208.261C110.614 208.261 107.141 202.889 108.197 197.625" stroke="#263238" stroke-linecap="round" stroke-linejoin="round"/>
<path d="M86.2463 184.943C84.8038 186.9 83.7131 189.094 83.0234 191.425" stroke="white" stroke-linecap="round" stroke-linejoin="round"/>
<path d="M101.214 170.617C101.214 170.617 99.2263 173.912 90.4708 180.626C89.9066 181.034 89.3684 181.476 88.8594 181.951" stroke="white" stroke-linecap="round" stroke-linejoin="round"/>
<path d="M73.1357 275.594C71.942 292.615 70.7483 309.649 69.5547 326.694V325.387" fill="#263238"/>
<path d="M73.1357 275.594C71.942 292.615 70.7483 309.649 69.5547 326.694V325.387" stroke="#263238" stroke-linecap="round" stroke-linejoin="round"/>
<path d="M186.246 219.388C187.864 218.755 189.613 218.529 191.339 218.729C193.065 218.928 194.716 219.548 196.147 220.533C199.003 222.556 201.081 225.493 202.038 228.859C203.179 232.211 203.065 235.863 201.716 239.137C201.018 240.75 199.894 242.144 198.466 243.169C197.037 244.194 195.357 244.811 193.605 244.956C190.993 244.922 188.469 244.008 186.443 242.359C179.746 237.346 176.398 223.631 186.246 219.388Z" fill="white" stroke="#263238" stroke-linecap="round" stroke-linejoin="round"/>
<path d="M201.07 162.219C201.07 162.434 201.07 163.848 201.195 164.099C201.822 166.856 203.147 173.75 199.799 175.146C201.07 179.676 204.186 209.273 203.774 224.367C203.666 228.879 202.879 234.232 198.832 236.166C192.01 239.407 185.529 231.511 186.299 225.334C187.498 216.9 187.086 208.306 188.089 199.783C189.181 190.938 191.187 181.878 188.984 173.23C188.447 172.639 185.009 165.818 183.881 163.938C183.375 163.134 182.978 162.267 182.7 161.359C182.259 158.27 182.043 155.152 182.055 152.031C183.076 150.097 184.401 151.888 185.099 153.159C185.668 154.709 185.865 156.371 185.672 158.011C185.606 158.412 185.662 158.824 185.833 159.193C185.983 159.404 186.187 159.571 186.423 159.678C186.658 159.785 186.918 159.828 187.176 159.802C189.378 159.479 189.289 157.635 189.253 156.221C189.253 151.476 189.253 146.731 189.253 142.022C189.253 141.234 189.504 139.104 190.256 139.032C191.008 138.96 192.136 139.569 192.243 142.094C192.368 144.941 192.368 153.714 192.368 153.714C192.439 153.786 192.528 153.839 192.625 153.867C192.722 153.895 192.825 153.898 192.923 153.875C193.102 153.875 193.174 153.553 193.246 153.374C194.302 148.969 195.376 144.565 196.433 140.16C196.558 139.641 197.328 138.566 197.883 138.566C199.208 138.566 199.244 140.106 199.315 140.554C199.781 142.917 196.469 152.658 195.914 154.878C195.914 155.272 195.914 155.863 196.325 155.755L201.518 145.281C201.758 144.669 202.137 144.121 202.625 143.68C203.113 143.239 203.696 142.916 204.329 142.738C204.416 142.711 204.51 142.711 204.597 142.738C204.691 142.792 204.766 142.874 204.812 142.971C205.314 143.866 204.812 145.102 204.526 146.086C204.239 147.071 200.354 154.305 198.975 157.223C198.778 157.635 198.456 158.566 198.85 159.014C199.244 159.461 199.96 158.602 200.247 158.011C201.124 156.221 201.947 154.538 202.753 152.783C203.004 152.264 203.38 151.53 203.971 151.655C207.462 152.407 202.503 159.73 201.07 162.219Z" fill="white" stroke="#263238" stroke-linecap="round" stroke-linejoin="round"/>
<path d="M191.438 160.682C193.24 162.109 194.805 163.814 196.075 165.731C196.701 166.695 197.12 167.778 197.305 168.912C197.49 170.047 197.437 171.207 197.149 172.32C197.062 172.61 196.948 172.892 196.809 173.161" fill="white"/>
<path d="M191.438 160.682C193.24 162.109 194.805 163.814 196.075 165.731C196.701 166.695 197.12 167.778 197.305 168.912C197.49 170.047 197.437 171.207 197.149 172.32C197.062 172.61 196.948 172.892 196.809 173.161" stroke="#263238" stroke-linecap="round" stroke-linejoin="round"/>
<path d="M141 272.533C142.895 276.354 144.17 280.452 144.778 284.673C145.297 288.898 145.458 292.211 142.576 304.082" stroke="#263238" stroke-linecap="round" stroke-linejoin="round"/>
<path d="M100.588 176.575C100.342 177.307 100.281 178.088 100.409 178.849C100.748 179.807 101.373 180.638 102.199 181.231C107.922 186.246 114.323 190.429 121.214 193.657C122.078 193.882 122.827 194.421 123.314 195.17C123.801 195.919 123.991 196.822 123.846 197.703V211.544C123.934 212.971 123.795 214.403 123.434 215.787C122.432 219.01 120.211 221.606 118.6 224.579C116.962 227.397 116.132 230.612 116.201 233.871C115.753 230.451 127.713 223.827 130.954 210.362C131.402 208.464 140.712 197.166 135.126 183.899C129.755 171.168 121.304 165.689 118.457 165.027C116.524 164.462 114.485 164.365 112.508 164.745C110.531 165.125 108.673 165.97 107.087 167.211C103.958 169.541 101.676 172.829 100.588 176.575Z" fill="#263238" stroke="#263238" stroke-linecap="round" stroke-linejoin="round"/>
<path d="M112.317 215.386C111.296 215.6 110.258 215.797 109.219 215.923C105.638 216.37 101.806 215.815 99.4609 213.201C99.64 215.547 101.251 224.41 106.068 224.66C110.884 224.911 112.317 215.386 112.317 215.386Z" stroke="#263238" stroke-linecap="round" stroke-linejoin="round"/>
<path d="M107.664 171.174C109.729 175.862 113.02 179.907 117.189 182.884C120.215 185.05 123.671 186.608 126.446 189.079C130.027 192.355 132.373 197.548 130.994 202.257" stroke="white" stroke-linecap="round" stroke-linejoin="round"/>
<path d="M145.082 243.504C141.633 246.272 139.361 250.246 138.726 254.623C138.109 258.405 138.574 262.285 140.069 265.813" stroke="#263238" stroke-linecap="round" stroke-linejoin="round"/>
<path d="M78.3855 273.057C78.099 277.748 75.1805 281.812 72.3516 285.59L78.3855 273.057Z" fill="#263238"/>
<path d="M78.3855 273.057C78.099 277.748 75.1805 281.812 72.3516 285.59" stroke="#263238" stroke-linecap="round" stroke-linejoin="round"/>
<path d="M71.4062 308.918C72.8284 311.299 74.7318 313.357 76.9948 314.96C79.2579 316.563 81.8306 317.677 84.5484 318.229" stroke="#263238" stroke-linecap="round" stroke-linejoin="round"/>
<path d="M139.908 311.723C139.908 311.723 135.092 318.885 118.727 320.389" stroke="#263238" stroke-linecap="round" stroke-linejoin="round"/>
<path d="M619.308 248.963C619.308 248.963 556.91 268.3 545.164 253.027L546.758 175.123H556.229L567.366 230.002L618.502 220.637C618.502 220.637 625.056 240.941 619.308 248.963Z" fill="white"/>
<mask id="mask0_4519_4592" style="mask-type:luminance" maskUnits="userSpaceOnUse" x="545" y="175" width="77" height="84">
<path d="M619.308 248.967C619.308 248.967 556.91 268.304 545.164 253.031L546.758 175.127H556.229L567.366 230.005L618.502 220.641C618.502 220.641 625.056 240.945 619.308 248.967Z" fill="white"/>
</mask>
<g mask="url(#mask0_4519_4592)">
<path d="M593.024 251.683C589.446 253.106 586.031 254.906 582.836 257.055C587.061 258.398 591.574 256.697 595.799 255.354C601.38 253.64 607.068 252.3 612.827 251.343C613.095 249.749 611.036 246.115 610.23 244.7C608.762 242.229 608.44 242.015 605.969 243.232C601.475 245.488 597.643 249.409 593.024 251.683Z" fill="#334155"/>
</g>
<path d="M619.308 248.963C619.308 248.963 556.91 268.3 545.164 253.027L546.758 175.123H556.229L567.366 230.002L618.502 220.637C618.502 220.637 625.056 240.941 619.308 248.963Z" stroke="#263238" stroke-linecap="round" stroke-linejoin="round"/>
<path d="M613.182 250.999L624.14 318.465C623.853 362.189 644.712 355.618 659.197 355.492C675.938 355.349 701.346 338.751 688.884 312.915L693.682 219.397L664.515 217.177C654.9 216.425 615.509 217.661 612.376 222.692C604.247 235.745 613.182 250.999 613.182 250.999Z" fill="white"/>
<mask id="mask1_4519_4592" style="mask-type:luminance" maskUnits="userSpaceOnUse" x="608" y="216" width="86" height="140">
<path d="M613.182 251.003L624.14 318.469C623.853 362.193 644.712 355.622 659.197 355.496C675.938 355.353 701.346 338.755 688.884 312.919L693.682 219.401L664.515 217.181C654.9 216.429 615.509 217.664 612.376 222.696C604.247 235.748 613.182 251.003 613.182 251.003Z" fill="white"/>
</mask>
<g mask="url(#mask1_4519_4592)">
<path d="M614.896 256.572C621.403 281.191 637.011 302.423 658.566 315.981C656.232 315.612 653.953 314.956 651.78 314.029C649.594 313.087 647.144 312.954 644.869 313.653C644.319 313.851 643.814 314.156 643.382 314.549C642.951 314.943 642.601 315.418 642.353 315.946C642.105 316.475 641.964 317.048 641.938 317.631C641.912 318.215 642.001 318.798 642.201 319.347C642.723 320.186 643.434 320.891 644.278 321.406C647.833 323.905 651.72 325.894 655.826 327.315C652.225 326.945 648.586 327.224 645.083 328.138C644.439 331.254 647.912 333.51 650.652 335.032C655.023 337.608 658.766 341.125 661.61 345.327C651.996 345.347 642.39 345.897 632.836 346.974C631.577 347.256 630.26 347.131 629.076 346.616C627.837 345.693 627.003 344.326 626.749 342.802C624.62 335.353 623.382 327.678 623.06 319.938C622.881 315.587 623.06 311.2 622.487 306.885C622.026 303.483 621.393 300.107 620.589 296.769C617.808 283.853 615.678 270.836 614.197 257.718C613.535 257.772 614.896 256.572 614.896 256.572Z" fill="#334155"/>
<path d="M688.861 251.192C686.446 250.417 684.194 249.203 682.219 247.611C682.774 250.297 686.784 254.934 689.13 256.367C689.613 256.671 690.312 256.922 690.741 256.51C691.171 256.098 691.458 255.042 691.887 254.72L688.861 251.192Z" fill="#334155"/>
</g>
<path d="M613.182 250.999L624.14 318.465C623.853 362.189 644.712 355.618 659.197 355.492C675.938 355.349 701.346 338.751 688.884 312.915L693.682 219.397L664.515 217.177C654.9 216.425 615.509 217.661 612.376 222.692C604.247 235.745 613.182 250.999 613.182 250.999Z" stroke="#263238" stroke-linecap="round" stroke-linejoin="round"/>
<path d="M634.511 215.788C631.373 221.535 629.862 228.029 630.142 234.571C630.139 235.142 630.248 235.707 630.465 236.236C631.27 237.829 633.473 237.829 635.245 238.026C642.139 238.904 646.418 246.173 652.917 248.608C653.145 248.749 653.399 248.842 653.664 248.882C653.928 248.922 654.198 248.908 654.458 248.841C654.717 248.774 654.96 248.656 655.172 248.492C655.384 248.329 655.561 248.125 655.693 247.892C658.522 244.311 659.524 239.28 663.392 236.97C665.075 235.967 667.206 235.555 668.369 233.98C669.694 232.189 669.103 229.611 668.459 227.427C667.402 223.846 666.221 220.121 663.481 217.633C660.563 215.354 656.978 214.097 653.275 214.052C647.857 213.608 642.404 214.117 637.161 215.556C637.233 216.236 634.511 215.788 634.511 215.788Z" fill="#334155" stroke="#263238" stroke-linecap="round" stroke-linejoin="round"/>
<path d="M721.177 261.576C716.8 255.204 713.576 248.114 711.651 240.627C710.95 236.877 709.858 233.21 708.392 229.688C707.01 226.966 705.015 224.604 702.563 222.786C700.111 220.968 697.271 219.745 694.265 219.213C692.983 218.931 691.649 218.993 690.398 219.392C687.802 220.377 686.656 223.367 686.137 226.089C685.013 231.934 685.345 237.966 687.104 243.653C688.303 247.521 702.717 275.56 712.17 286.428C711.347 280.949 717.649 262.633 721.177 261.576Z" fill="white"/>
<mask id="mask2_4519_4592" style="mask-type:luminance" maskUnits="userSpaceOnUse" x="685" y="219" width="37" height="68">
<path d="M721.177 261.584C716.8 255.212 713.576 248.122 711.651 240.635C710.95 236.885 709.858 233.218 708.392 229.695C707.01 226.974 705.015 224.612 702.563 222.794C700.111 220.976 697.271 219.753 694.265 219.221C692.983 218.939 691.649 219.001 690.398 219.4C687.802 220.385 686.656 223.375 686.137 226.096C685.013 231.942 685.345 237.974 687.104 243.661C688.303 247.529 702.717 275.568 712.17 286.436C711.347 280.957 717.649 262.64 721.177 261.584Z" fill="white"/>
</mask>
<g mask="url(#mask2_4519_4592)">
<path d="M692.898 256.082L701.743 272.752C703.014 275.133 704.446 277.676 706.917 278.714C705.362 273.207 704.479 267.531 704.285 261.812C704.382 258.938 704.05 256.065 703.3 253.289C702.942 253.594 702.566 252.304 702.566 252.304C702.172 253.039 701.134 253.056 700.328 252.895C694.545 251.678 690.57 246.521 687.132 241.723C686.685 243.33 686.614 245.019 686.924 246.658C687.235 248.298 687.918 249.844 688.923 251.176C688.923 251.176 692.611 255.527 692.898 256.082Z" fill="#334155"/>
</g>
<path d="M721.177 261.576C716.8 255.204 713.576 248.114 711.651 240.627C710.95 236.877 709.858 233.21 708.392 229.688C707.01 226.966 705.015 224.604 702.563 222.786C700.111 220.968 697.271 219.745 694.265 219.213C692.983 218.931 691.649 218.993 690.398 219.392C687.802 220.377 686.656 223.367 686.137 226.089C685.013 231.934 685.345 237.966 687.104 243.653C688.303 247.521 702.717 275.56 712.17 286.428C711.347 280.949 717.649 262.633 721.177 261.576Z" stroke="#263238" stroke-linecap="round" stroke-linejoin="round"/>
<path d="M708.742 281.637C699.109 263.177 703.765 220.635 703.478 213.796L716.191 213.115C717.462 213.115 723.353 249.391 727.363 264.449C730.944 278.164 727.507 292.04 721.168 292.04C715.904 292.04 710.766 285.523 708.742 281.637Z" fill="white" stroke="#263238" stroke-linecap="round" stroke-linejoin="round"/>
<path d="M593.961 233.705C602.913 220.634 620.478 219.596 620.478 219.596" stroke="#263238" stroke-linecap="round" stroke-linejoin="round"/>
<path d="M559.414 241.029C562.122 238.541 564.244 235.483 565.627 232.076L559.414 241.029Z" fill="white"/>
<path d="M559.414 241.029C562.122 238.541 564.244 235.483 565.627 232.076" stroke="#263238" stroke-linecap="round" stroke-linejoin="round"/>
<path d="M625.938 302.801C631.04 311.162 664.093 320.097 677.271 318.181" stroke="#263238" stroke-linecap="round" stroke-linejoin="round"/>
<path d="M635.281 326.399C644.802 328.037 654.561 327.665 663.929 325.307" stroke="#263238" stroke-linecap="round" stroke-linejoin="round"/>
<path d="M679.133 245.264L685.435 253.804C686.295 254.968 687.494 256.275 688.909 255.953" stroke="#263238" stroke-linecap="round" stroke-linejoin="round"/>
<path d="M725.965 569.247C725.41 571.521 725.231 574.224 726.86 575.925C728.489 577.626 730.853 577.59 733.055 577.555L740.629 577.411C743.55 577.557 746.469 577.1 749.205 576.069C750.574 575.537 751.746 574.597 752.562 573.377C753.379 572.157 753.801 570.715 753.771 569.247C753.585 568.111 753.222 567.012 752.697 565.988C752.016 564.52 751.336 563.034 750.674 561.566C742.312 543.141 729.546 554.35 725.965 569.247Z" fill="white" stroke="#263238" stroke-linecap="round" stroke-linejoin="round"/>
<path d="M715.299 547.53C715.564 555.987 714.855 564.446 713.186 572.74C712.792 574.62 713.186 577.467 714.977 577.288C715.679 577.18 716.317 576.817 716.767 576.268C723.348 569.776 728.055 561.63 730.393 552.687C730.745 551.758 730.908 550.768 730.874 549.775C730.841 548.783 730.61 547.807 730.196 546.904C729.705 546.179 729.101 545.538 728.405 545.006C722.336 540.153 714.744 535.337 715.299 547.53Z" fill="white" stroke="#263238" stroke-linecap="round" stroke-linejoin="round"/>
<path d="M694.508 331.105C694.508 331.105 703.944 347.506 705.967 351.32C707.99 355.134 750.729 411.302 758.93 452.196C760.47 459.967 728.939 546.877 728.939 546.877L721.777 542.831C721.777 542.831 726.755 463.566 725.537 456.977C724.32 450.388 692.861 401.758 692.861 401.758C692.861 401.758 675.296 388.849 668.062 373.844L694.508 331.105Z" fill="#263238"/>
<path d="M695.534 372.193C695.534 372.193 690.162 384.153 690.162 385.872C690.162 387.591 719.705 480.947 728.389 502.54C733.88 516.446 738.72 530.675 742.91 545.226C742.91 545.226 746.276 549.648 743.734 554.178C741.191 558.708 731.075 561.68 728.998 557.634C726.921 553.587 706.456 532.567 697.825 511.654C689.195 490.741 677.056 455.791 670.145 442.774C661.092 426.141 653.056 408.974 646.08 391.369C637.396 369.149 628.516 345.192 628.516 345.192C632.123 345.517 635.746 345.619 639.366 345.496C647.889 345.206 656.328 343.711 664.433 341.056C683.305 334.718 691.469 322.578 691.469 322.578C691.469 322.578 696.142 335.237 697.36 337.69L695.534 372.193Z" fill="#263238"/>
<path d="M755.782 460.205C753.932 463.374 751.445 466.124 748.477 468.28" stroke="white" stroke-linecap="round" stroke-linejoin="round"/>
<path d="M758.092 454.988C757.823 455.861 757.5 456.716 757.125 457.549" stroke="white" stroke-linecap="round" stroke-linejoin="round"/>
<path d="M678.469 344.311C683.231 352.511 687.69 364.31 686.974 373.764C686.59 375.481 685.988 377.142 685.183 378.706" stroke="white" stroke-linecap="round" stroke-linejoin="round"/>
<path d="M649.637 353.412C650.156 357.978 650.855 365.57 649.852 370.046C649.005 374.624 646.378 378.68 642.547 381.326" stroke="white" stroke-linecap="round" stroke-linejoin="round"/>
<path d="M690.242 336.139C691.282 337.435 692.127 338.877 692.749 340.418C693.961 342.632 695.628 344.564 697.64 346.089C699.652 347.613 701.963 348.695 704.423 349.263" stroke="white" stroke-linecap="round" stroke-linejoin="round"/>
<path d="M675.047 354.445C681.367 368.268 686.202 382.126 696.014 405.617" stroke="white" stroke-linecap="round" stroke-linejoin="round"/>
<path d="M671.68 347.363C672.217 348.438 672.736 349.512 673.255 350.586" stroke="white" stroke-linecap="round" stroke-linejoin="round"/>
<path d="M724.289 453.107C727.186 458.69 730.87 463.828 735.229 468.362" stroke="white" stroke-linecap="round" stroke-linejoin="round"/>
<path d="M727.273 458.273C729.17 467.034 732.634 475.381 737.497 482.911" stroke="white" stroke-linecap="round" stroke-linejoin="round"/>
<path d="M682.764 458.723C668.816 428.965 653.937 399.44 635.656 354.445" stroke="white" stroke-linecap="round" stroke-linejoin="round"/>
<path d="M685.918 467.366C685.578 466.327 685.22 465.289 684.844 464.232" stroke="white" stroke-linecap="round" stroke-linejoin="round"/>
<path d="M734.13 558.857C730.549 554.184 704.443 517.676 697.962 501.132C693.647 490.103 690.388 482.314 687.219 471.32" stroke="white" stroke-linecap="round" stroke-linejoin="round"/>
<path d="M724.289 488.594L736.697 525.066" stroke="white" stroke-linecap="round" stroke-linejoin="round"/>
<path d="M715.926 213.128L712.166 213.432C707.401 214.279 702.508 214.052 697.842 212.77C694.852 212.035 687.922 209.887 687.099 209.744C685.04 209.304 682.96 208.969 680.868 208.741C674.547 208.365 677.752 206.002 680.384 206.109C683.858 206.27 685.022 206.198 687.69 206.395C687.367 206.216 686.383 206.019 686.365 205.25C686.365 203.37 688.836 203.459 688.836 203.459C688.836 203.459 686.132 202.313 686.508 200.899C686.884 199.484 688.692 199.108 689.838 199.216C689.838 199.216 688.316 198.481 688.388 197.694C688.71 194.65 694.959 194.435 694.959 194.435C693.448 193.76 692.033 192.887 690.751 191.839C690.284 191.335 689.956 190.718 689.802 190.048C689.769 189.729 689.822 189.407 689.955 189.115C690.089 188.824 690.298 188.573 690.562 188.39C690.825 188.207 691.133 188.098 691.453 188.075C691.773 188.052 692.093 188.115 692.381 188.258C693.997 189.334 695.557 190.494 697.054 191.731C698.988 193.11 701.226 193.987 703.267 195.223C705.256 196.925 706.861 199.031 707.976 201.4C708.298 201.901 715.926 213.128 715.926 213.128Z" fill="white" stroke="#263238" stroke-linecap="round" stroke-linejoin="round"/>
<path d="M546.758 175.126V165.26C546.735 160.309 547.46 155.384 548.907 150.65C549.731 148.035 550.697 145.762 551.575 145.421C553.204 144.83 553.92 151.437 553.92 151.437C552.695 146.14 551.911 140.75 551.575 135.323C551.575 129.576 559.31 153.443 559.31 153.443L556.23 175.126H546.758Z" fill="white" stroke="#263238" stroke-linecap="round" stroke-linejoin="round"/>
<path d="M556.102 159.073C557.037 158.351 557.735 157.366 558.107 156.244L556.102 159.073Z" fill="white"/>
<path d="M556.102 159.073C557.037 158.351 557.735 157.366 558.107 156.244" stroke="#263238" stroke-linecap="round" stroke-linejoin="round"/>
<path d="M631.094 195.692C634.438 201.322 636.287 207.713 636.465 214.259C636.788 225.145 649.393 240.382 652.991 241.116C656.59 241.851 659.921 223.928 659.76 218.503C659.598 213.077 657.593 198.091 657.593 198.091C657.593 198.091 640.351 185.056 631.094 195.692Z" fill="white" stroke="#263238" stroke-linecap="round" stroke-linejoin="round"/>
<path d="M636.156 210.112C636.156 210.112 652.682 232.654 659.164 209.736C665.646 186.818 640.991 216.003 636.156 210.112Z" fill="#263238"/>
<path d="M664.058 193.91C663.18 207.285 657.075 214.805 650.038 216.13C643.61 217.312 634.21 210.759 629.519 201.037C629.161 200.804 623.45 196.847 622.089 195.88C621.378 195.383 620.798 194.721 620.399 193.95C620 193.18 619.793 192.325 619.797 191.457C619.842 190.625 620.136 189.825 620.64 189.162C621.145 188.498 621.836 188 622.626 187.733H622.787C623.593 187.558 624.433 187.62 625.204 187.912C624.022 183.347 623.056 178.709 622.322 174.036C622.662 163.293 626.225 154.52 637.684 153.66C649.143 152.801 658.722 159.211 659.17 163.83C659.492 167.411 660.656 176.883 661.694 186.677C661.981 189.219 664.255 190.902 664.058 193.91Z" fill="white" stroke="#263238" stroke-linecap="round" stroke-linejoin="round"/>
<path d="M659.165 178.427C659.165 178.427 651.788 175.043 653.042 186.036C653.292 188.203 657.321 191.408 657.321 191.408C657.321 191.408 656.283 194.649 654.367 194.649" fill="white"/>
<path d="M659.165 178.427C659.165 178.427 651.788 175.043 653.042 186.036C653.292 188.203 657.321 191.408 657.321 191.408C657.321 191.408 656.283 194.649 654.367 194.649" stroke="#263238" stroke-linecap="round" stroke-linejoin="round"/>
<path d="M644.914 182.186C644.914 182.186 641.154 179.894 638.576 181.309C637.231 181.894 636.086 182.858 635.281 184.084" fill="white"/>
<path d="M644.914 182.186C644.914 182.186 641.154 179.894 638.576 181.309C637.231 181.894 636.086 182.858 635.281 184.084" stroke="#263238" stroke-linecap="round" stroke-linejoin="round"/>
<path d="M642.771 188.529C643.057 189.854 642.771 191.036 642.001 191.197C641.231 191.358 640.479 190.391 640.21 189.067C639.942 187.742 640.21 186.56 640.998 186.399C641.786 186.238 642.502 187.187 642.771 188.529Z" fill="#263238"/>
<path d="M657.302 184.656C657.589 185.981 657.302 187.163 656.532 187.324C655.762 187.485 655.01 186.518 654.742 185.211C654.473 183.904 654.742 182.687 655.512 182.544C656.282 182.4 657.034 183.349 657.302 184.656Z" fill="#263238"/>
<path d="M621.458 160.161C620.149 161.444 619.24 163.08 618.844 164.87C617.772 168.656 617.462 172.617 617.932 176.523C618.402 180.43 619.643 184.204 621.584 187.627C622.777 187.481 623.986 187.529 625.165 187.77C626.418 188.093 628.029 190.241 628.62 191.351C629.138 192.535 629.435 193.803 629.497 195.094C629.211 191.692 628.942 188.308 628.656 184.906C628.464 183.545 628.524 182.161 628.835 180.823C629.712 178.03 628.745 171.441 628.996 165.55C636.427 174.628 647.223 173.017 650.804 172.712C656.176 172.265 660.759 166.768 660.473 162.847C660.186 158.926 659.13 148.827 641.422 147.789C637.521 147.374 633.588 148.194 630.178 150.134C629.097 150.847 628.179 151.78 627.485 152.872C626.79 153.964 626.335 155.192 626.149 156.473C625.899 158.12 626.525 158.263 625.272 159.069C624.019 159.875 622.694 159.105 621.458 160.161Z" fill="#263238" stroke="#263238" stroke-linecap="round" stroke-linejoin="round"/>
<path d="M644.914 200.959C644.914 200.959 647.546 203.86 653.043 201.944L644.914 200.959Z" fill="white"/>
<path d="M644.914 200.959C644.914 200.959 647.546 203.86 653.043 201.944" stroke="#263238" stroke-linecap="round" stroke-linejoin="round"/>
</svg>
