<svg width="32" height="32" viewBox="0 0 32 32" fill="none" xmlns="http://www.w3.org/2000/svg">
<path d="M21.3307 13.3333C21.3307 10.3867 18.9441 8 15.9974 8C13.0507 8 10.6641 10.3867 10.6641 13.3333C10.6641 16.28 13.0507 18.6667 15.9974 18.6667C18.9441 18.6667 21.3307 16.28 21.3307 13.3333ZM13.3307 13.3333C13.3307 11.8667 14.5307 10.6667 15.9974 10.6667C17.4641 10.6667 18.6641 11.8667 18.6641 13.3333C18.6641 14.8 17.4641 16 15.9974 16C14.5307 16 13.3307 14.8 13.3307 13.3333Z" fill="black"/>
<path d="M15.2294 29.0829C15.4561 29.2429 15.7361 29.3363 16.0027 29.3363C16.2694 29.3363 16.5494 29.2563 16.7761 29.0829C17.1761 28.7896 26.7094 21.9229 26.6694 13.3229C26.6694 7.44292 21.8827 2.65625 16.0027 2.65625C10.1227 2.65625 5.33606 7.44292 5.33606 13.3229C5.29606 21.9096 14.8294 28.7896 15.2294 29.0829ZM16.0027 5.33625C20.4161 5.33625 24.0027 8.92292 24.0027 13.3363C24.0294 19.2563 18.1494 24.5763 16.0027 26.3229C13.8561 24.5763 7.97606 19.2696 8.00273 13.3363C8.00273 8.92292 11.5894 5.33625 16.0027 5.33625Z" fill="black"/>
</svg>
