<svg width="337" height="348" viewBox="0 0 337 348" fill="none" xmlns="http://www.w3.org/2000/svg">
<path opacity="0.3" d="M272.08 24.3522C314.192 15.8612 358.342 -12.4199 397.04 6.25418C435.156 24.6471 462.151 72.1763 458.704 114.408C455.197 157.356 402.25 176.688 380.11 213.636C364.982 238.881 371.343 274.155 350.523 294.94C329.144 316.283 297.212 321.14 267.437 326.115C236.598 331.268 206.824 324.457 175.56 324.174C116.946 323.644 24.7464 378.347 3.27276 323.725C-20.3965 263.519 91.2815 230.092 114.895 169.864C126.928 139.172 83.3767 101.638 101.212 73.9219C118.971 46.3251 162.322 56.3668 193.811 47.2318C220.455 39.502 244.885 29.8356 272.08 24.3522Z" fill="url(#paint0_linear_6197_81129)"/>
<defs>
<linearGradient id="paint0_linear_6197_81129" x1="82" y1="38" x2="402" y2="348" gradientUnits="userSpaceOnUse">
<stop stop-color="#B3DDEE"/>
<stop offset="1" stop-color="#6581A9"/>
</linearGradient>
</defs>
</svg>
