<svg width="141" height="350" viewBox="0 0 141 350" fill="none" xmlns="http://www.w3.org/2000/svg">
<path opacity="0.3" fill-rule="evenodd" clip-rule="evenodd" d="M321.702 306.733C356.348 295.498 398.136 248.6 405.933 217.405C412.317 191.861 460.326 158.913 463.553 133.286C467.765 99.8297 432.65 61.5548 419.863 31.8574C407.927 4.13638 299.708 5.78454 265.757 0.770774C231.337 -4.31202 194.889 16.9375 160.098 29.1701C123.777 41.9411 105.201 46.6324 87.3826 77.6055C70.3487 107.215 -1.28411 120.401 0.0174767 151.538C1.30665 182.379 44.9533 297.809 70.8517 315.984C97.2285 334.494 157.827 343.759 192.578 348.58C227.502 353.424 286.241 318.232 321.702 306.733Z" fill="url(#paint0_linear_6197_89040)"/>
<defs>
<linearGradient id="paint0_linear_6197_89040" x1="369.437" y1="286.806" x2="209.49" y2="-84.5138" gradientUnits="userSpaceOnUse">
<stop stop-color="#6581A9"/>
<stop offset="1" stop-color="#DBF5FD"/>
</linearGradient>
</defs>
</svg>
