<svg width="32" height="32" viewBox="0 0 32 32" fill="none" xmlns="http://www.w3.org/2000/svg">
<path d="M3.14062 10.2853L12.4473 16.4907C13.7313 17.3453 14.3726 17.7733 15.066 17.94C15.6793 18.0867 16.318 18.0867 16.93 17.94C17.6233 17.7733 18.2646 17.3453 19.5486 16.4907L28.8553 10.2853M9.54063 26H22.4553C24.6953 26 25.8153 26 26.6713 25.564C27.4234 25.1803 28.0348 24.5684 28.418 23.816C28.8553 22.96 28.8553 21.84 28.8553 19.6V12.4C28.8553 10.16 28.8553 9.04 28.4193 8.184C28.0358 7.43139 27.4239 6.81949 26.6713 6.436C25.8153 6 24.6953 6 22.4553 6H9.54063C7.30063 6 6.18062 6 5.32462 6.436C4.57251 6.81971 3.9611 7.43159 3.57796 8.184C3.14062 9.04 3.14062 10.16 3.14062 12.4V19.6C3.14062 21.84 3.14062 22.96 3.57662 23.816C3.96011 24.5686 4.57201 25.1805 5.32462 25.564C6.18062 26 7.30063 26 9.54063 26Z" stroke="black" stroke-width="1.5" stroke-linecap="round" stroke-linejoin="round"/>
</svg>
