<svg width="33" height="33" viewBox="0 0 33 33" fill="none" xmlns="http://www.w3.org/2000/svg">
<rect width="33" height="33" rx="16.5" fill="#334155"/>
<path d="M25 17.0201C25 12.593 21.192 9 16.5 9C11.808 9 8 12.593 8 17.0201C8 19.8977 9.60695 22.4183 12.0174 23.8336C13.3535 24.6181 14.8 23.4423 14.8 21.8929V20.2761C14.8 19.8066 14.4194 19.4261 13.95 19.4261C13.4806 19.4261 13.1 19.0455 13.1 18.5761V17.8701C13.1 17.4006 13.4806 17.0201 13.95 17.0201C14.4194 17.0201 14.8 16.6395 14.8 16.17V15.015C14.8 13.4672 16.1345 12.208 17.775 12.208H18.697C19.3614 12.208 19.9 12.7466 19.9 13.411C19.9 14.0754 19.3614 14.614 18.697 14.614H18.2C17.7325 14.614 17.35 14.9749 17.35 15.416V15.7451C17.35 16.4492 17.9208 17.0201 18.625 17.0201H18.697C19.3614 17.0201 19.9 17.5587 19.9 18.2231C19.9 18.8875 19.3614 19.4261 18.697 19.4261H18.625C17.9208 19.4261 17.35 19.9969 17.35 20.7011V22.0831C17.35 23.6482 18.7316 24.9041 20.1586 24.2613C23.0207 22.9721 25 20.2159 25 17.0201Z" fill="white"/>
</svg>
