<svg width="32" height="32" viewBox="0 0 32 32" fill="none" xmlns="http://www.w3.org/2000/svg">
<g clip-path="url(#clip0_3412_14135)">
<path d="M32 10.4688V24.5C32 25.0312 31.8854 25.5104 31.6562 25.9375C31.4271 26.3646 31.1198 26.7292 30.7344 27.0312C30.349 27.3333 29.9219 27.5729 29.4531 27.75C28.9844 27.9271 28.5 28.0104 28 28C27.5104 28 27.026 27.9167 26.5469 27.75C26.0677 27.5833 25.6406 27.349 25.2656 27.0469C24.8906 26.7448 24.5885 26.375 24.3594 25.9375C24.1302 25.5 24.0104 25.0208 24 24.5C24 23.9688 24.1146 23.4896 24.3438 23.0625C24.5729 22.6354 24.8802 22.2656 25.2656 21.9531C25.651 21.6406 26.0781 21.4062 26.5469 21.25C27.0156 21.0938 27.5 21.0104 28 21C28.6875 21 29.3542 21.1615 30 21.4844V13.0312L20 15.5312V26.5C20 27.0312 19.8854 27.5104 19.6562 27.9375C19.4271 28.3646 19.1198 28.7292 18.7344 29.0312C18.349 29.3333 17.9219 29.5729 17.4531 29.75C16.9844 29.9271 16.5 30.0104 16 30C15.5104 30 15.026 29.9167 14.5469 29.75C14.0677 29.5833 13.6406 29.349 13.2656 29.0469C12.8906 28.7448 12.5885 28.375 12.3594 27.9375C12.1302 27.5 12.0104 27.0208 12 26.5C12 25.9688 12.1146 25.4896 12.3438 25.0625C12.5729 24.6354 12.8802 24.2656 13.2656 23.9531C13.651 23.6406 14.0781 23.4062 14.5469 23.25C15.0156 23.0938 15.5 23.0104 16 23C16.6875 23 17.3542 23.1615 18 23.4844V13.9688L32 10.4688ZM16 28C16.2083 28 16.4271 27.9688 16.6562 27.9062C16.8854 27.8438 17.1042 27.75 17.3125 27.625C17.5208 27.5 17.6823 27.3438 17.7969 27.1562C17.9115 26.9688 17.9792 26.75 18 26.5C18 26.25 17.9375 26.0312 17.8125 25.8438C17.6875 25.6562 17.5208 25.5 17.3125 25.375C17.1042 25.25 16.8906 25.1562 16.6719 25.0938C16.4531 25.0312 16.2292 25 16 25C15.7917 25 15.5729 25.0312 15.3438 25.0938C15.1146 25.1562 14.8958 25.25 14.6875 25.375C14.4792 25.5 14.3177 25.6562 14.2031 25.8438C14.0885 26.0312 14.0208 26.25 14 26.5C14 26.75 14.0625 26.9688 14.1875 27.1562C14.3125 27.3438 14.4792 27.5 14.6875 27.625C14.8958 27.75 15.1094 27.8438 15.3281 27.9062C15.5469 27.9688 15.7708 28 16 28ZM28 26C28.2083 26 28.4271 25.9688 28.6562 25.9062C28.8854 25.8438 29.1042 25.75 29.3125 25.625C29.5208 25.5 29.6823 25.3438 29.7969 25.1562C29.9115 24.9688 29.9792 24.75 30 24.5C30 24.25 29.9375 24.0312 29.8125 23.8438C29.6875 23.6562 29.5208 23.5 29.3125 23.375C29.1042 23.25 28.8906 23.1562 28.6719 23.0938C28.4531 23.0312 28.2292 23 28 23C27.7917 23 27.5729 23.0312 27.3438 23.0938C27.1146 23.1562 26.8958 23.25 26.6875 23.375C26.4792 23.5 26.3177 23.6562 26.2031 23.8438C26.0885 24.0312 26.0208 24.25 26 24.5C26 24.75 26.0625 24.9688 26.1875 25.1562C26.3125 25.3438 26.4792 25.5 26.6875 25.625C26.8958 25.75 27.1094 25.8438 27.3281 25.9062C27.5469 25.9688 27.7708 26 28 26ZM6 10H4V8H6V10ZM4 12H6V14H4V12ZM18 8H20V10H18V8ZM16 20H0V2H24V10L22 10.5V4H20V6H18V4H6V6H4V4H2V18H4V16H6V18H16V20Z" fill="white"/>
</g>
<defs>
<clipPath id="clip0_3412_14135">
<rect width="32" height="32" fill="white"/>
</clipPath>
</defs>
</svg>
