<svg width="40" height="40" viewBox="0 0 40 40" fill="none" xmlns="http://www.w3.org/2000/svg">
<path d="M4.16406 7.08203C4.16406 6.75051 4.29576 6.43257 4.53018 6.19815C4.7646 5.96373 5.08254 5.83203 5.41406 5.83203H6.34406C7.9274 5.83203 8.8774 6.89703 9.41906 7.88703C9.78073 8.54703 10.0424 9.31203 10.2474 10.0054L10.4141 9.9987H31.2441C32.6274 9.9987 33.6274 11.322 33.2474 12.6537L30.2007 23.3354C29.9276 24.2935 29.3497 25.1365 28.5545 25.7367C27.7594 26.337 26.7903 26.6618 25.7941 26.662H15.8807C14.8766 26.6621 13.9002 26.3323 13.1016 25.7235C12.3031 25.1146 11.7266 24.2604 11.4607 23.292L10.1941 18.672L8.09406 11.592L8.0924 11.5787C7.8324 10.6337 7.58906 9.7487 7.22573 9.0887C6.8774 8.44703 6.5974 8.33203 6.34573 8.33203H5.41406C5.08254 8.33203 4.7646 8.20034 4.53018 7.96591C4.29576 7.73149 4.16406 7.41355 4.16406 7.08203ZM12.6191 18.0654L13.8707 22.6304C14.1207 23.5337 14.9424 24.162 15.8807 24.162H25.7941C26.2469 24.162 26.6874 24.0145 27.0489 23.7417C27.4104 23.4689 27.6731 23.0858 27.7974 22.6504L30.6924 12.4987H10.9724L12.5957 17.977L12.6191 18.0654ZM18.3307 31.6654C18.3307 32.5494 17.9795 33.3973 17.3544 34.0224C16.7293 34.6475 15.8815 34.9987 14.9974 34.9987C14.1133 34.9987 13.2655 34.6475 12.6404 34.0224C12.0153 33.3973 11.6641 32.5494 11.6641 31.6654C11.6641 30.7813 12.0153 29.9335 12.6404 29.3083C13.2655 28.6832 14.1133 28.332 14.9974 28.332C15.8815 28.332 16.7293 28.6832 17.3544 29.3083C17.9795 29.9335 18.3307 30.7813 18.3307 31.6654ZM15.8307 31.6654C15.8307 31.4443 15.7429 31.2324 15.5867 31.0761C15.4304 30.9198 15.2184 30.832 14.9974 30.832C14.7764 30.832 14.5644 30.9198 14.4081 31.0761C14.2519 31.2324 14.1641 31.4443 14.1641 31.6654C14.1641 31.8864 14.2519 32.0983 14.4081 32.2546C14.5644 32.4109 14.7764 32.4987 14.9974 32.4987C15.2184 32.4987 15.4304 32.4109 15.5867 32.2546C15.7429 32.0983 15.8307 31.8864 15.8307 31.6654ZM29.9974 31.6654C29.9974 32.5494 29.6462 33.3973 29.0211 34.0224C28.396 34.6475 27.5481 34.9987 26.6641 34.9987C25.78 34.9987 24.9322 34.6475 24.307 34.0224C23.6819 33.3973 23.3307 32.5494 23.3307 31.6654C23.3307 30.7813 23.6819 29.9335 24.307 29.3083C24.9322 28.6832 25.78 28.332 26.6641 28.332C27.5481 28.332 28.396 28.6832 29.0211 29.3083C29.6462 29.9335 29.9974 30.7813 29.9974 31.6654ZM27.4974 31.6654C27.4974 31.4443 27.4096 31.2324 27.2533 31.0761C27.097 30.9198 26.8851 30.832 26.6641 30.832C26.443 30.832 26.2311 30.9198 26.0748 31.0761C25.9185 31.2324 25.8307 31.4443 25.8307 31.6654C25.8307 31.8864 25.9185 32.0983 26.0748 32.2546C26.2311 32.4109 26.443 32.4987 26.6641 32.4987C26.8851 32.4987 27.097 32.4109 27.2533 32.2546C27.4096 32.0983 27.4974 31.8864 27.4974 31.6654Z" fill="white"/>
</svg>
