<svg width="1095" height="993" viewBox="0 0 1095 993" fill="none" xmlns="http://www.w3.org/2000/svg">
<g opacity="0.5">
<path d="M87.0806 655.106C87.0806 655.106 758.113 676.528 528.881 405.46C299.649 134.393 900.577 327.16 900.577 327.16" stroke="#334155" stroke-width="5" stroke-dasharray="10 10"/>
<g clip-path="url(#clip0_6197_89161)">
<path d="M908.428 359.657L980.232 365.904M936.009 289.268L937.155 288.751C957.471 321.633 982.872 351.087 1012.41 376.016L1014.7 377.954L1014.04 379.684L1011.05 379.623C972.403 378.757 933.868 384.023 896.874 395.223L896.357 394.077L908.945 360.804L892.914 325.262L894.061 324.745L905.692 328.826C910.273 330.431 915.031 331.478 919.863 331.943L936.009 289.268Z" stroke="#334155" stroke-width="4"/>
</g>
</g>
<defs>
<clipPath id="clip0_6197_89161">
<rect width="122.655" height="121.003" fill="white" transform="matrix(0.909198 -0.416364 -0.405852 -0.913939 908.107 432.6)"/>
</clipPath>
</defs>
</svg>
