<svg width="29" height="29" viewBox="0 0 29 29" fill="none" xmlns="http://www.w3.org/2000/svg">
<path d="M17.191 28H11.191L10.3645 24.28C9.38097 23.8952 8.46111 23.3642 7.636 22.705L4 23.8495L1 18.6535L3.808 16.0765C3.6496 15.0325 3.6496 13.9705 3.808 12.9265L1 10.348L4 5.152L7.636 6.2965C8.46148 5.63661 9.38185 5.10512 10.366 4.72L11.191 1H17.191L18.0175 4.72C19.001 5.10479 19.9209 5.63577 20.746 6.295L24.382 5.1505L27.382 10.3465L24.574 12.9235C24.7324 13.9675 24.7324 15.0295 24.574 16.0735L27.382 18.6505L24.382 23.8465L20.746 22.702C19.9211 23.3623 19.0012 23.8943 18.0175 24.28L17.191 28Z" stroke="white" stroke-width="2" stroke-linecap="round" stroke-linejoin="round"/>
<path d="M9.6875 14.5L12.6875 17.5L18.6875 11.5" stroke="white" stroke-width="2" stroke-linecap="round" stroke-linejoin="round"/>
</svg>
