<svg width="31" height="31" viewBox="0 0 31 31" fill="none" xmlns="http://www.w3.org/2000/svg">
<path d="M15.5026 7.19905L14.7948 7.86039C14.8854 7.95738 14.995 8.03471 15.1168 8.08758C15.2385 8.14045 15.3699 8.16774 15.5026 8.16774C15.6354 8.16774 15.7667 8.14045 15.8884 8.08758C16.0102 8.03471 16.1198 7.95738 16.2104 7.86039L15.5026 7.19905ZM12.1882 24.2775C10.3153 22.7585 8.12977 20.7654 6.4196 18.5838C4.69006 16.3789 3.55469 14.1146 3.55469 12.0351H1.61719C1.61719 14.7695 3.07677 17.4626 4.89415 19.7799C6.7309 22.1217 9.0404 24.2181 10.9676 25.7823L12.1882 24.2775ZM3.55469 12.0351C3.55469 8.28276 5.19252 5.96422 7.21785 5.16984C9.23931 4.37805 12.0668 4.9438 14.7948 7.86039L16.2104 6.53772C13.1259 3.2388 9.49506 2.19772 6.51131 3.36539C3.53144 4.53305 1.61719 7.73897 1.61719 12.0351H3.55469ZM20.0364 25.781C21.9648 24.2168 24.2743 22.1204 26.1111 19.7786C27.9284 17.4613 29.388 14.7682 29.388 12.0325H27.4505C27.4505 14.1146 26.3139 16.3776 24.5856 18.5825C22.8754 20.7641 20.6899 22.7572 18.817 24.2762L20.0364 25.781ZM29.388 12.0325C29.388 7.73768 27.4738 4.53176 24.4926 3.36539C21.5089 2.19643 17.8793 3.23622 14.7948 6.53643L16.2104 7.86039C18.9384 4.9438 21.7659 4.37676 23.7874 5.16855C25.8127 5.96164 27.4505 8.28147 27.4505 12.0325H29.388ZM10.9676 25.7823C12.608 27.1153 13.7485 28.0931 15.5026 28.0931V26.1556C14.5687 26.1556 13.9875 25.7371 12.1882 24.2775L10.9676 25.7823ZM18.817 24.2762C17.0177 25.7358 16.4365 26.1556 15.5026 26.1556V28.0931C17.2567 28.0931 18.3972 27.1153 20.0376 25.7823L18.817 24.2762Z" fill="white"/>
<path d="M23.901 11.6263H21.3177M21.3177 11.6263H18.7344M21.3177 11.6263V9.04297M21.3177 11.6263V14.2096" stroke="white" stroke-width="1.5" stroke-linecap="round"/>
</svg>
