<svg width="46" height="46" viewBox="0 0 46 46" fill="none" xmlns="http://www.w3.org/2000/svg">
<path d="M13.4193 36.4167C14.4359 36.4167 15.411 36.0128 16.1298 35.2939C16.8487 34.575 17.2526 33.6 17.2526 32.5833C17.2526 31.5667 16.8487 30.5916 16.1298 29.8728C15.411 29.1539 14.4359 28.75 13.4193 28.75C12.4026 28.75 11.4276 29.1539 10.7087 29.8728C9.98981 30.5916 9.58594 31.5667 9.58594 32.5833C9.58594 33.6 9.98981 34.575 10.7087 35.2939C11.4276 36.0128 12.4026 36.4167 13.4193 36.4167ZM32.5859 36.4167C33.6026 36.4167 34.5776 36.0128 35.2965 35.2939C36.0154 34.575 36.4193 33.6 36.4193 32.5833C36.4193 31.5667 36.0154 30.5916 35.2965 29.8728C34.5776 29.1539 33.6026 28.75 32.5859 28.75C31.5693 28.75 30.5943 29.1539 29.8754 29.8728C29.1565 30.5916 28.7526 31.5667 28.7526 32.5833C28.7526 33.6 29.1565 34.575 29.8754 35.2939C30.5943 36.0128 31.5693 36.4167 32.5859 36.4167Z" stroke="white" stroke-width="2" stroke-miterlimit="1.5" stroke-linecap="round" stroke-linejoin="round"/>
<path d="M26.8359 32.5833V12.65C26.8359 12.345 26.7148 12.0525 26.4991 11.8368C26.2834 11.6212 25.9909 11.5 25.6859 11.5H4.98594C4.68094 11.5 4.38843 11.6212 4.17276 11.8368C3.9571 12.0525 3.83594 12.345 3.83594 12.65V31.4333C3.83594 31.5844 3.86568 31.7339 3.92348 31.8734C3.98127 32.0129 4.06598 32.1397 4.17276 32.2465C4.27955 32.3533 4.40633 32.438 4.54585 32.4958C4.68538 32.5536 4.83492 32.5833 4.98594 32.5833H8.9151M26.8359 32.5833H17.3484M26.8359 32.5833H28.7526M26.8359 17.25H37.5884C37.8107 17.2501 38.0282 17.3145 38.2146 17.4356C38.4011 17.5567 38.5484 17.7293 38.6388 17.9323L42.0696 25.6527C42.135 25.7993 42.1689 25.9579 42.1693 26.1184V31.4333C42.1693 31.5844 42.1395 31.7339 42.0817 31.8734C42.0239 32.0129 41.9392 32.1397 41.8324 32.2465C41.7257 32.3533 41.5989 32.438 41.4594 32.4958C41.3198 32.5536 41.1703 32.5833 41.0193 32.5833H37.3776" stroke="white" stroke-width="2" stroke-linecap="round"/>
</svg>
