<svg width="33" height="33" viewBox="0 0 33 33" fill="none" xmlns="http://www.w3.org/2000/svg">
<rect width="33" height="33" rx="16.5" fill="#334155"/>
<path d="M17.1927 14.5549C16.5832 14.5549 15.9986 14.7817 15.5676 15.1853C15.1366 15.5889 14.8945 16.1363 14.8945 16.7071C14.8945 17.2779 15.1366 17.8253 15.5676 18.2289C15.9986 18.6325 16.5832 18.8593 17.1927 18.8593C17.8023 18.8593 18.3868 18.6325 18.8178 18.2289C19.2488 17.8253 19.4909 17.2779 19.4909 16.7071C19.4909 16.1363 19.2488 15.5889 18.8178 15.1853C18.3868 14.7817 17.8023 14.5549 17.1927 14.5549ZM17.1927 13.1202C18.2086 13.1202 19.1829 13.4981 19.9012 14.1708C20.6195 14.8434 21.0231 15.7558 21.0231 16.7071C21.0231 17.6584 20.6195 18.5708 19.9012 19.2435C19.1829 19.9162 18.2086 20.2941 17.1927 20.2941C16.1769 20.2941 15.2026 19.9162 14.4843 19.2435C13.7659 18.5708 13.3624 17.6584 13.3624 16.7071C13.3624 15.7558 13.7659 14.8434 14.4843 14.1708C15.2026 13.4981 16.1769 13.1202 17.1927 13.1202ZM22.1722 12.9408C22.1722 13.1786 22.0713 13.4067 21.8917 13.5749C21.7121 13.7431 21.4686 13.8376 21.2146 13.8376C20.9606 13.8376 20.7171 13.7431 20.5375 13.5749C20.3579 13.4067 20.257 13.1786 20.257 12.9408C20.257 12.703 20.3579 12.4749 20.5375 12.3067C20.7171 12.1386 20.9606 12.0441 21.2146 12.0441C21.4686 12.0441 21.7121 12.1386 21.8917 12.3067C22.0713 12.4749 22.1722 12.703 22.1722 12.9408ZM17.1927 10.968C15.2975 10.968 14.988 10.973 14.1062 11.0096C13.5056 11.0361 13.1027 11.1115 12.7288 11.2478C12.416 11.3553 12.1331 11.5277 11.9015 11.7521C11.6617 11.969 11.4773 12.2339 11.3622 12.5269C11.2166 12.8784 11.1362 13.255 11.1086 13.8167C11.0688 14.6087 11.0634 14.8857 11.0634 16.7071C11.0634 18.4827 11.0688 18.7718 11.1078 19.5975C11.1362 20.1592 11.2166 20.5373 11.3614 20.8866C11.4916 21.1987 11.6448 21.4232 11.8992 21.6614C12.1573 21.9025 12.3971 22.0467 12.7265 22.1657C13.105 22.3028 13.5079 22.3788 14.1055 22.4046C14.9512 22.4419 15.2469 22.4462 17.192 22.4462C19.088 22.4462 19.3967 22.4412 20.2785 22.4046C20.8775 22.3781 21.2805 22.3028 21.6551 22.1672C21.9677 22.0591 22.2504 21.8868 22.4825 21.6629C22.7406 21.4218 22.8946 21.1973 23.0218 20.8881C23.1673 20.5351 23.2485 20.1578 23.2761 19.5968C23.3159 18.8055 23.3205 18.5279 23.3205 16.7071C23.3205 14.9323 23.3152 14.6425 23.2761 13.8167C23.2478 13.2557 23.1666 12.877 23.0218 12.5269C22.9063 12.2342 22.7223 11.9695 22.4832 11.7521C22.2517 11.5274 21.9688 11.3548 21.6559 11.2471C21.2805 11.1107 20.8775 11.0354 20.2785 11.0096C19.4335 10.9723 19.1378 10.968 17.192 10.968M17.192 9.5332C19.2734 9.5332 19.5331 9.54038 20.3505 9.57625C21.1656 9.61212 21.7217 9.73192 22.2097 9.90983C22.7153 10.0921 23.1413 10.3388 23.5672 10.737C23.9568 11.0956 24.2582 11.5294 24.4505 12.0082C24.6397 12.4652 24.7684 12.986 24.8067 13.75C24.8427 14.5148 24.8527 14.758 24.8527 16.7071C24.8527 18.6563 24.845 18.8995 24.8067 19.6642C24.7684 20.4282 24.6397 20.9483 24.4505 21.406C24.2587 21.8851 23.9572 22.319 23.5672 22.6772C23.1841 23.0419 22.7209 23.3242 22.2097 23.5044C21.7217 23.6816 21.1656 23.8021 20.3505 23.838C19.5331 23.8717 19.2734 23.881 17.192 23.881C15.1105 23.881 14.8508 23.8739 14.0335 23.838C13.2184 23.8021 12.6629 23.6816 12.1742 23.5044C11.6627 23.3247 11.1994 23.0424 10.8167 22.6772C10.4271 22.3187 10.1257 21.8849 9.93344 21.406C9.74345 20.9491 9.61552 20.4282 9.57721 19.6642C9.54044 18.8995 9.53125 18.6563 9.53125 16.7071C9.53125 14.758 9.53891 14.5148 9.57721 13.75C9.61552 12.986 9.74345 12.4659 9.93344 12.0082C10.1251 11.5291 10.4266 11.0952 10.8167 10.737C11.1995 10.372 11.6628 10.0897 12.1742 9.90983C12.6622 9.73192 13.2176 9.61212 14.0335 9.57625C14.8516 9.54253 15.1113 9.5332 17.1927 9.5332" fill="white"/>
</svg>
