<svg width="33" height="33" viewBox="0 0 33 33" fill="none" xmlns="http://www.w3.org/2000/svg">
<rect width="33" height="33" rx="16.5" fill="#334155"/>
<path d="M13.1719 11.4382C13.1717 11.8029 13.0267 12.1525 12.7687 12.4103C12.5107 12.668 12.1609 12.8127 11.7962 12.8125C11.4315 12.8123 11.0819 12.6673 10.8241 12.4093C10.5664 12.1513 10.4217 11.8015 10.4219 11.4368C10.4221 11.0721 10.5671 10.7225 10.8251 10.4647C11.0831 10.207 11.4329 10.0623 11.7976 10.0625C12.1622 10.0627 12.5119 10.2077 12.7696 10.4657C13.0274 10.7237 13.1721 11.0735 13.1719 11.4382ZM13.2131 13.8307H10.4631V22.4382H13.2131V13.8307ZM17.5581 13.8307H14.8219V22.4382H17.5306V17.9213C17.5306 15.4051 20.81 15.1713 20.81 17.9213V22.4382H23.5256V16.9863C23.5256 12.7444 18.6719 12.9026 17.5306 14.9857L17.5581 13.8307Z" fill="white"/>
</svg>
