<svg width="1440" height="644" viewBox="0 0 1440 644" fill="none" xmlns="http://www.w3.org/2000/svg">
<path opacity="0.3" fill-rule="evenodd" clip-rule="evenodd" d="M-27.3946 483.181C-50.0644 565.554 12.4149 521.529 177 567.539C311.774 605.215 520.107 536.31 663.5 567.539C850.698 608.308 884.798 641.085 1093.5 643.118C1288.31 645.016 1378.94 632.904 1496.01 567.539C1614.68 501.273 1608.98 473.722 1626.11 390.095C1644 302.787 1727.95 172.985 1590.47 106.474C1459.05 42.8927 1245.17 35.4346 1057.51 8.28313C871.63 -18.6093 711.739 25.5105 537.5 61.6188C360.043 98.3941 67.4538 68.6904 -50.5216 135.893C-169.083 203.43 -4.19158 398.871 -27.3946 483.181Z" fill="url(#paint0_linear_6797_35119)"/>
<defs>
<linearGradient id="paint0_linear_6797_35119" x1="1428.5" y1="440.618" x2="93.5003" y2="242.118" gradientUnits="userSpaceOnUse">
<stop stop-color="#6581A9"/>
<stop offset="1" stop-color="#B0DCED"/>
</linearGradient>
</defs>
</svg>
