<svg width="32" height="32" viewBox="0 0 32 32" fill="none" xmlns="http://www.w3.org/2000/svg">
<path d="M10.4359 21.5614C7.56844 18.6883 5.36325 15.2236 3.97456 11.4094C3.21056 9.32403 3.91056 7.03336 5.48123 5.4627L6.45323 4.49203C6.71455 4.23019 7.02494 4.02245 7.36664 3.88071C7.70834 3.73897 8.07463 3.66602 8.44456 3.66602C8.81449 3.66602 9.18079 3.73897 9.52249 3.88071C9.86419 4.02245 10.1746 4.23019 10.4359 4.49203L12.7119 6.76803C12.9737 7.02935 13.1815 7.33974 13.3232 7.68144C13.465 8.02314 13.5379 8.38943 13.5379 8.75936C13.5379 9.12929 13.465 9.49559 13.3232 9.83729C13.1815 10.179 12.9737 10.4894 12.7119 10.7507L12.1519 11.3107C11.9277 11.5348 11.7499 11.8009 11.6286 12.0937C11.5073 12.3865 11.4449 12.7004 11.4449 13.0174C11.4449 13.3343 11.5073 13.6482 11.6286 13.941C11.7499 14.2339 11.9277 14.4999 12.1519 14.724L17.2719 19.8454C17.496 20.0695 17.7621 20.2473 18.0549 20.3686C18.3477 20.49 18.6616 20.5524 18.9786 20.5524C19.2955 20.5524 19.6094 20.49 19.9022 20.3686C20.1951 20.2473 20.4611 20.0695 20.6852 19.8454L21.2466 19.2854C21.5079 19.0235 21.8183 18.8158 22.16 18.674C22.5017 18.5323 22.868 18.4593 23.2379 18.4593C23.6078 18.4593 23.9741 18.5323 24.3158 18.674C24.6575 18.8158 24.9679 19.0235 25.2292 19.2854L27.5052 21.5614C27.7671 21.8227 27.9748 22.1331 28.1165 22.4748C28.2583 22.8165 28.3312 23.1828 28.3312 23.5527C28.3312 23.9226 28.2583 24.2889 28.1165 24.6306C27.9748 24.9723 27.7671 25.2827 27.5052 25.544L26.5346 26.5147C24.9639 28.0867 22.6732 28.7867 20.5879 28.0227C16.7737 26.634 13.3089 24.4288 10.4359 21.5614Z" stroke="black" stroke-width="1.5" stroke-linejoin="round"/>
</svg>
