<svg width="341" height="497" viewBox="0 0 341 497" fill="none" xmlns="http://www.w3.org/2000/svg">
<path opacity="0.3" fill-rule="evenodd" clip-rule="evenodd" d="M584.837 0.0275948C660.646 1.97464 591.356 43.6662 646.924 77.2008C693.959 105.586 607.39 197.272 637.625 234.053C672.763 276.796 705.547 324.305 690.057 371.7C673.87 421.223 625.155 470.143 553.792 490.55C485.624 510.043 411.204 479.833 337.579 472.493C278.225 466.577 218.967 468.548 164.764 451.769C100.577 431.9 12.9243 413.85 1.08453 368.328C-11.0749 321.577 82.3953 293.085 112.237 249.811C137.103 213.753 123.365 170.075 159.666 138.367C204.763 98.9752 509.296 -1.91256 584.837 0.0275948Z" fill="url(#paint0_linear_6197_81131)"/>
<defs>
<linearGradient id="paint0_linear_6197_81131" x1="152.384" y1="102.67" x2="228.254" y2="412.837" gradientUnits="userSpaceOnUse">
<stop offset="0.00764199" stop-color="#DBF5FD"/>
<stop offset="1" stop-color="#6581A9"/>
</linearGradient>
</defs>
</svg>
