<svg width="260" height="353" viewBox="0 0 260 353" fill="none" xmlns="http://www.w3.org/2000/svg">
<path opacity="0.3" fill-rule="evenodd" clip-rule="evenodd" d="M65.3118 352.827C107.766 356.704 114.357 294.575 137.187 265.319C155.882 241.362 229.955 238.798 245.293 213.324C265.316 180.068 259.08 188.897 259.086 151.895C259.091 117.356 171.369 44.4956 137.187 23.8551C102.534 2.93042 67.4659 3.21994 24.3946 0.326172C-20.5724 -2.69498 -27.0727 15.6385 -60.5758 40.1249C-92.6034 63.533 -95.3716 101.461 -108.393 134.776C-121.29 167.774 -155.602 202.714 -136.173 233.541C-116.386 264.937 -72.4104 310.186 -37.279 330.985C-1.97319 351.887 21.8591 348.858 65.3118 352.827Z" fill="url(#paint0_linear_6197_81127)"/>
<defs>
<linearGradient id="paint0_linear_6197_81127" x1="188.5" y1="34.5" x2="186.235" y2="393.567" gradientUnits="userSpaceOnUse">
<stop stop-color="#DBF5FD"/>
<stop offset="1" stop-color="#6581A9"/>
</linearGradient>
</defs>
</svg>
