<svg width="26" height="26" viewBox="0 0 26 26" fill="none" xmlns="http://www.w3.org/2000/svg">
<path fill-rule="evenodd" clip-rule="evenodd" d="M24.4937 0.809642L24.0442 1.87936C25.1121 1.42621 25.1121 1.42807 25.114 1.42807V1.43178L25.1177 1.43921L25.1251 1.45779C25.165 1.55575 25.2022 1.65484 25.2365 1.75493C25.6294 2.90363 25.857 4.10233 25.9125 5.31507C26.0072 7.53807 25.5077 10.4408 23.0637 12.8904C22.163 13.8189 20.8741 14.7438 19.4534 15.6445C20.2668 17.3252 20.3095 19.0004 19.8062 20.5864C19.2157 22.4342 17.9119 24.0815 16.4634 25.4892C16.3382 25.6109 16.1873 25.7027 16.0217 25.758C15.8562 25.8132 15.6803 25.8304 15.5072 25.8083C15.334 25.7861 15.1681 25.7252 15.0218 25.6301C14.8755 25.535 14.7525 25.4081 14.6619 25.2589L11.0907 19.3309L6.59081 14.8329L0.66652 11.2616C0.516718 11.1715 0.389218 11.0486 0.293543 10.9023C0.197868 10.756 0.136489 10.5899 0.11399 10.4165C0.0914905 10.2431 0.108452 10.0669 0.163608 9.90098C0.218765 9.73507 0.31069 9.58376 0.43252 9.45836C1.84209 8.00978 3.48938 6.70607 5.33538 6.11736C6.96465 5.57795 8.74113 5.70479 10.2772 6.47021C11.1798 5.04764 12.1047 3.75879 13.0332 2.85993C15.4809 0.415928 18.3855 -0.0855008 20.6085 0.0110706C21.8213 0.0666236 23.02 0.294232 24.1687 0.687071L24.4658 0.798499L24.4844 0.805928L24.4937 0.809642ZM24.0442 1.87936L25.1121 1.42621C24.9933 1.14962 24.7725 0.929457 24.4955 0.811499L24.0442 1.87936ZM17.2248 14.2814C17.2871 14.2382 17.3537 14.2015 17.4235 14.1718C19.1544 13.1151 20.5528 12.1494 21.4015 11.2709L21.4145 11.2561C23.2698 9.40264 23.6709 7.21121 23.5929 5.4135C23.5532 4.52274 23.399 3.64079 23.1342 2.78936C22.2822 2.52444 21.3996 2.37027 20.5082 2.33064C18.7124 2.25264 16.521 2.65378 14.6675 4.50907L14.6527 4.52207C13.7779 5.36707 12.8122 6.76179 11.7555 8.48707C11.7106 8.59856 11.6478 8.70204 11.5698 8.7935L11.3618 9.14264L16.7791 14.5599L17.1431 14.3426L17.2248 14.2814ZM17.1542 17.0355L17.2062 17.0039L17.4569 16.8572C17.9157 17.9232 17.899 18.9205 17.5925 19.8825C17.288 20.8371 16.6825 21.7991 15.8617 22.7536L13.6424 19.0691C14.2305 18.7249 14.8229 18.3813 15.4197 18.0384L15.5645 17.9566C16.0994 17.6484 16.6293 17.3413 17.1542 17.0355ZM14.7065 15.7708L10.1509 11.2152L9.86123 11.7185C9.49228 12.3635 9.11343 13.0179 8.72466 13.6815L12.2402 17.1989C12.9107 16.8052 13.5885 16.4152 14.2571 16.0289L14.4057 15.9435L14.7065 15.7708ZM6.04109 8.32921C7.02985 7.99427 8.1084 8.04333 9.06266 8.46664C8.65595 9.1575 8.23623 9.88736 7.81652 10.6154C7.49152 11.1781 7.17023 11.7389 6.85452 12.2812L3.16995 10.0619C4.12452 9.24107 5.08466 8.63379 6.04109 8.32921ZM0.0165203 24.8206C-0.0119369 24.9695 -0.00353504 25.123 0.0409925 25.2679C0.08552 25.4127 0.16482 25.5445 0.271972 25.6516C0.379125 25.7588 0.510873 25.8381 0.655719 25.8826C0.800566 25.9271 0.954109 25.9355 1.10295 25.9071H1.11781L1.16052 25.8978L1.32209 25.8644C2.12615 25.7003 2.92509 25.512 3.71781 25.2998C4.40495 25.1141 5.14223 24.8912 5.79038 24.6405C6.39395 24.4084 7.05324 24.1019 7.47109 23.7026C8.10894 23.1015 8.51379 22.2943 8.61411 21.4236C8.71443 20.5529 8.50377 19.6747 8.01933 18.9443C7.5349 18.2139 6.80788 17.6782 5.96673 17.4318C5.12557 17.1855 4.22443 17.2445 3.42252 17.5982C2.96894 17.7998 2.56037 18.0903 2.22095 18.4525C1.82166 18.8704 1.51523 19.5296 1.28309 20.1332C1.02973 20.8129 0.809706 21.5046 0.623806 22.2058C0.397159 23.051 0.197723 23.9032 0.025806 24.7612L0.0183774 24.8058L0.0146631 24.8169L0.0165203 24.8206ZM19.4979 4.5685C19.0054 4.5685 18.533 4.76416 18.1848 5.11244C17.8365 5.46073 17.6408 5.9331 17.6408 6.42564C17.6408 6.91819 17.8365 7.39056 18.1848 7.73884C18.533 8.08712 19.0054 8.28278 19.4979 8.28278C19.9905 8.28278 20.4629 8.08712 20.8111 7.73884C21.1594 7.39056 21.3551 6.91819 21.3551 6.42564C21.3551 5.9331 21.1594 5.46073 20.8111 5.11244C20.4629 4.76416 19.9905 4.5685 19.4979 4.5685Z" fill="white"/>
</svg>
