<svg width="36" height="36" viewBox="0 0 36 36" fill="none" xmlns="http://www.w3.org/2000/svg">
<path d="M25.2951 25.2985L33.7506 33.751M3.32613 21.031C4.01436 22.6702 5.01956 24.1572 6.28402 25.4068C7.54848 26.6564 9.0473 27.644 10.6944 28.3128C12.3416 28.9817 14.1046 29.3186 15.8823 29.3043C17.66 29.2899 19.4173 28.9246 21.0535 28.2293C22.6896 27.534 24.1723 26.5224 25.4165 25.2525C26.6606 23.9827 27.6417 22.4796 28.3034 20.8296C28.9651 19.1796 29.2944 17.4151 29.2724 15.6375C29.2504 13.8599 28.8775 12.1041 28.1751 10.471C26.7645 7.19117 24.1121 4.60365 20.7984 3.27472C17.4846 1.94579 13.7793 1.98367 10.4934 3.38007C7.20747 4.77648 4.60852 7.41768 3.26529 10.7257C1.92206 14.0337 1.94393 17.7391 3.32613 21.031Z" stroke="white" stroke-width="2" stroke-linecap="round" stroke-linejoin="round"/>
<path d="M15.7516 18V24.75M22.0876 22.5C21.6297 21.1843 20.7736 20.0437 19.6381 19.2365C18.5026 18.4294 17.144 17.9957 15.7508 17.9957C14.3577 17.9957 12.9991 18.4294 11.8636 19.2365C10.7281 20.0437 9.87195 21.1843 9.41406 22.5M11.2516 11.25C11.2516 12.4435 11.7257 13.5881 12.5696 14.432C13.4135 15.2759 14.5581 15.75 15.7516 15.75C16.945 15.75 18.0896 15.2759 18.9335 14.432C19.7775 13.5881 20.2516 12.4435 20.2516 11.25C20.2516 10.0565 19.7775 8.91193 18.9335 8.06802C18.0896 7.22411 16.945 6.75 15.7516 6.75C14.5581 6.75 13.4135 7.22411 12.5696 8.06802C11.7257 8.91193 11.2516 10.0565 11.2516 11.25Z" stroke="white" stroke-width="2" stroke-linecap="round" stroke-linejoin="round"/>
</svg>
