<svg width="40" height="40" viewBox="0 0 40 40" fill="none" xmlns="http://www.w3.org/2000/svg">
<g clip-path="url(#clip0_3412_14157)">
<path d="M0.25 23.75V38.75M14 31.25H20.25C21.5761 31.25 22.8479 31.7768 23.7855 32.7145C24.7232 33.6522 25.25 34.9239 25.25 36.25H0.25V26.25H9C10.3261 26.25 11.5979 26.7768 12.5355 27.7145C13.4732 28.6522 14 29.9239 14 31.25ZM14 31.25H9M11.0833 21.25V9.58334C11.0833 8.69928 11.4345 7.85144 12.0596 7.22632C12.6848 6.6012 13.5326 6.25001 14.4167 6.25001H34.4167C35.3007 6.25001 36.1486 6.6012 36.7737 7.22632C37.3988 7.85144 37.75 8.69928 37.75 9.58334V21.25C37.75 22.1341 37.3988 22.9819 36.7737 23.607C36.1486 24.2321 35.3007 24.5833 34.4167 24.5833H17.3333M11.0833 12.9167H37.75M24.4167 12.9167V16.25M29.4167 6.25001H19.4167L20.0183 2.64334C20.0832 2.25332 20.2846 1.89906 20.5865 1.64382C20.8884 1.38858 21.2713 1.249 21.6667 1.25001H27.1667C27.5612 1.25019 27.9428 1.39031 28.2437 1.64544C28.5446 1.90057 28.7453 2.25417 28.81 2.64334L29.4167 6.25001Z" stroke="white" stroke-width="2" stroke-linecap="round" stroke-linejoin="round"/>
</g>
<defs>
<clipPath id="clip0_3412_14157">
<rect width="40" height="40" fill="white"/>
</clipPath>
</defs>
</svg>
