<svg width="656" height="96" viewBox="0 0 656 96" fill="none" xmlns="http://www.w3.org/2000/svg">
<g filter="url(#filter0_g_6797_35201)">
<path fill-rule="evenodd" clip-rule="evenodd" d="M436.085 4.02437C437.23 3.78931 437.736 5.33163 438.904 5.34371C441.257 5.36725 451.156 4.6134 453.511 4.6025C455.962 4.59133 458.636 4.75566 460.953 5.41402C461.28 5.50683 461.619 5.57884 461.956 5.61812C464.164 5.87509 465.322 6.23222 466.263 6.54195C473.364 8.87878 481.373 7.47729 488.824 6.87594C489.904 6.78876 490.941 6.68761 491.883 6.5898C494.68 6.29937 497.484 6.33638 500.29 6.52144C501.876 6.62604 503.551 6.69963 505.222 6.71187C511.492 6.75775 515.64 5.5427 521.886 4.98629C527.936 4.44727 536.189 4.90643 542.254 5.25777C543.559 5.33336 544.656 5.46313 545.585 5.61617C549.981 6.34074 553.903 5.76979 558.303 6.46871C561.261 6.93866 564.254 7.45381 565.011 7.44039C565.422 7.43294 564.932 7.22556 564.533 7.12496C559.803 5.93101 582.075 8.57485 586.666 10.2343C587.221 10.4352 587.692 10.704 588.037 11.0586C588.216 11.2422 588.331 11.4986 588.562 11.6084C588.844 11.7414 589.299 11.7966 589.873 11.7988C593.667 11.813 608.9 11.2409 612.695 11.2695C603.276 12.4523 620.077 12.7383 625.822 10.5527C631.255 9.31582 633.868 9.9274 636.245 10.2773C638.481 10.6064 639.816 10.8711 642.076 10.8447C646.849 10.7889 651.918 13.7837 651.918 18.5566V62.0039C649.135 65.3843 646.363 70.6905 644.237 77.1738C643.669 78.9081 643.176 80.6409 642.756 82.3486C638.786 82.1636 636.823 83.4725 637.197 83.874C637.566 84.2114 636.801 84.1016 635.58 83.8086C633.456 83.2987 623.158 81.4376 620.974 81.417C619.28 81.4009 616.033 80.4714 614.354 80.25C612.376 79.9891 610.032 79.592 607.396 79.8076C601.926 79.7749 605.177 80.2537 601.844 79.8447C598.574 79.4436 596.597 79.7374 593.332 79.2949C589.008 78.7089 583.251 79.0162 578.888 79.0517C577.999 79.059 577.187 79.0629 576.552 79.0791C576.498 79.0489 576.219 79.0545 575.599 79.1259C575.831 79.1026 576.162 79.089 576.552 79.0791C576.633 79.126 576.116 79.2704 575.203 79.4463C571.473 80.1645 558.852 81.3787 555.065 81.0781C554.588 81.0402 553.198 81.0119 552.735 81.1357C546.679 82.7575 549.321 81.562 547.146 81.1084C544.114 80.476 541.05 81.7904 537.991 82.2841C537.403 82.379 536.918 82.4091 536.473 82.3906C533.027 82.247 529.665 81.3364 526.226 81.5888C522.347 81.8736 518.703 82.3081 516.27 82.666C514.315 82.9534 512.425 83.2032 510.465 83.4463C505.908 84.0113 501.399 86.3951 496.808 86.4619C494.435 86.4964 491.679 86.5611 488.911 87.0263C485.007 87.7859 478.528 88.6662 477.208 87.9355C476.672 87.6384 477.591 87.149 478.004 86.6953C478.705 85.9237 476.493 85.1917 473.642 84.7558C470.751 84.3145 456.633 85.563 453.742 85.9941C434.543 87.5257 445.827 84.2754 439.989 84.3515C432.913 84.0163 430.34 83.8797 429.854 83.7988C424.367 82.8864 424.072 83.9682 419.11 81.4541C416.616 80.1902 414.413 79.7675 411.618 79.8496C409.079 79.9242 406.028 80.2582 403.3 80.1787C400.816 80.1062 397.572 79.8228 395.088 79.788C386.711 79.6707 376.31 78.9273 368.142 80.791C367.085 81.0321 366.711 81.3649 364.94 81.7754C361.279 82.6051 356.47 83.08 353.249 83.2802C350.971 83.4218 348.85 83.4545 346.569 83.3574C341.589 83.1457 334.653 85.1113 329.717 85.7988C329.183 85.8731 328.658 85.9372 328.149 85.9843C327.363 86.0573 326.573 86.1601 325.795 86.2998C321.554 87.0613 322.964 85.4268 314.56 86.4355C314.181 86.4809 313.798 86.3817 313.447 86.2324C312.55 85.8509 311.049 85.5692 309.327 85.374C307.926 85.2156 286.976 84.9864 288.354 84.7304C288.856 84.6892 289.354 84.6266 289.839 84.5234C289.196 84.5915 288.729 84.6611 288.354 84.7304C283.873 85.0992 278.919 83.1747 277.657 81.8652C277.633 81.838 277.608 81.8105 277.583 81.7841C272.675 76.603 263.483 81.3116 256.64 79.2861C249.617 78.2196 245.948 77.9368 242.194 78.0595C241.664 78.0992 241.19 78.1545 240.734 78.2197C231.874 79.4875 223.008 81.3423 214.271 79.3964C209.826 78.7929 207.293 78.6195 205.783 78.625C202.833 78.6358 199.414 79.1261 196.602 78.2363C191.602 76.655 187.068 77.374 181.921 78.374C176.854 79.3582 170.721 76.3849 165.833 78.0439C164.185 78.6033 162.218 79.3981 159.595 80.0517C157.372 80.6053 155.057 80.5923 152.773 80.417C152.204 80.3732 151.656 80.3354 151.131 80.3037C143.951 79.8704 139.983 82.3573 132.833 83.1416C129.886 83.4648 125.131 84.0213 122.172 83.8515C117.195 83.566 122.862 84.9564 112.156 86.5048C108.871 87.122 106.12 87.1223 103.666 87.2783C99.501 87.5432 92.7375 88.9992 88.6445 89.8134C83.0874 90.9189 79.8301 91.4387 74.1641 91.4472C71.5731 91.4511 69.2627 91.1375 67.5654 90.6884C55.5489 86.4174 48.66 90.1065 49.9521 89.9218C49.2557 90.0495 48.5773 90.1329 47.8955 90.1777C39.116 90.7542 27.8734 87.0597 19.0811 87.3867C18.7386 87.3994 18.4136 87.4052 18.1123 87.4023C17.0831 87.3924 14.6695 87.2657 13.6406 87.2666C7.36256 87.2717 4.00001 82.1063 4 75.8281V60.9961C6.06869 55.6761 5.26506 34.4641 8.85449 23.5146C10.9938 16.9887 18.9929 14.2425 26.0312 12.7793C27.1995 12.9907 27.9843 13.2928 28.5957 13.5537C29.4915 13.936 30.4253 14.27 31.3945 14.3652C31.7868 14.4037 32.2191 14.4222 32.6787 14.4267H33.6865C39.336 14.4738 47.1654 16.0031 52.6523 15.5625C55.0199 15.3723 56.8374 14.2529 59.2109 14.166C61.1271 14.096 63.2081 14.2999 64.8359 14.3984C66.6538 14.5083 70.8607 15.1976 72.125 13.8867C73.4976 12.4632 75.6788 12.5739 74.1768 11.288C73.4797 10.6916 71.7072 10.3663 75.3174 10.8584C76.2773 10.9891 77.2986 10.6391 78.2197 10.3388C79.1961 10.0205 80.559 9.78018 82.04 9.61031C84.2089 9.36162 99.6885 10.0423 101.873 10.0478C103.702 10.0523 109.224 10.6044 111.053 10.5664C112.206 10.5423 113.453 10.5133 114.671 10.4961C117.543 10.4554 125.902 10.5808 128.773 10.5136C132.596 10.4242 135.597 10.7618 137.201 11.0712C140.035 11.4288 142 11.3241 143.479 11.0371C149.35 9.8965 152.942 10.1218 158.897 9.56344C162.824 9.19529 169.209 10.3344 173.017 9.30855C174.075 9.02336 175.251 8.63439 177.173 8.39351C180.459 7.98176 183.822 8.42686 187.052 7.6943C188.465 7.37382 190.195 7.05365 192.805 7.10055C195.645 7.15164 198.488 7.39812 201.327 7.29586C205.664 7.13954 208.542 7.06094 210.506 7.67281C210.775 7.75672 211.095 7.81375 211.377 7.8232C213.935 7.90866 229.156 10.3074 231.658 10.8515C232.532 11.0415 233.337 11.2756 234.008 11.5654C234.16 11.6313 234.298 11.7148 234.438 11.8027C234.849 12.059 235.374 12.3007 235.971 12.5214C241.266 14.4791 251.769 15.4374 256.399 12.207C260.468 9.0742 275.78 8.32321 280.4 10.5654C280.496 10.6119 280.588 10.6613 280.676 10.7119C281.788 11.3563 281.86 13.019 283.111 13.3144C285.008 13.7612 288.729 13.942 293.579 13.9267C296.193 14.1681 295.65 15.6578 305.54 15.2519C311.815 14.5185 315.79 15.0484 321.447 15.4931C323.405 15.9135 333.142 15.5271 336.757 15.3183C337.615 15.2687 337.478 15.1621 337.426 14.3037C337.193 10.4168 361.461 12.829 365.339 12.4502C368.296 12.1609 369.687 12.0276 366.692 12.1953C365.047 12.287 363.619 11.0651 365.246 10.8105C366.901 10.552 369.69 10.6392 372.445 10.5664C375.411 10.488 381.319 13.3115 380.781 10.3945C380.745 10.1999 380.716 9.97684 380.79 9.75289C382.697 3.98717 393.307 7.79439 399.38 7.87984C399.879 7.88686 400.36 7.89225 400.809 7.89449C402.101 7.90095 403.384 7.67757 404.671 7.5566C407.955 7.24797 407.638 8.73003 410.907 8.55855C414.276 8.38173 417.842 8.14509 421.142 7.4443C422.573 7.14025 424.049 6.75692 425.368 6.54391C427.657 6.17431 430.284 6.40802 432.44 5.5566C434.9 4.58526 435.74 4.0956 436.085 4.02437Z" fill="#334155"/>
</g>
<defs>
<filter id="filter0_g_6797_35201" x="0" y="0" width="655.918" height="95.4473" filterUnits="userSpaceOnUse" color-interpolation-filters="sRGB">
<feFlood flood-opacity="0" result="BackgroundImageFix"/>
<feBlend mode="normal" in="SourceGraphic" in2="BackgroundImageFix" result="shape"/>
<feTurbulence type="fractalNoise" baseFrequency="0.25 0.25" numOctaves="3" seed="4839" />
<feDisplacementMap in="shape" scale="8" xChannelSelector="R" yChannelSelector="G" result="displacedImage" width="100%" height="100%" />
<feMerge result="effect1_texture_6797_35201">
<feMergeNode in="displacedImage"/>
</feMerge>
</filter>
</defs>
</svg>
