<svg width="1377" height="139" viewBox="0 0 1377 139" fill="none" xmlns="http://www.w3.org/2000/svg">
<path opacity="0.25" d="M28.7318 12.344C28.6464 13.2613 28.5824 14.1467 28.5398 15C28.5184 15.8533 28.5078 16.504 28.5078 16.952C28.5078 17.4427 28.5184 17.9013 28.5398 18.328C28.5611 18.7547 28.5824 19.128 28.6038 19.448H27.8678C27.6331 17.848 27.3131 16.5893 26.9078 15.672C26.5024 14.7333 25.9584 14.072 25.2758 13.688C24.5931 13.2827 23.6864 13.08 22.5558 13.08H21.1798C20.5398 13.08 20.0491 13.1333 19.7078 13.24C19.3664 13.3467 19.1318 13.5707 19.0038 13.912C18.8971 14.2533 18.8438 14.776 18.8438 15.48V31.48C18.8438 32.2907 18.9291 32.8987 19.0998 33.304C19.2704 33.7093 19.6011 33.976 20.0918 34.104C20.5824 34.232 21.2864 34.3067 22.2038 34.328V35C21.5851 34.9573 20.7851 34.936 19.8038 34.936C18.8224 34.9147 17.8091 34.904 16.7638 34.904C15.8678 34.904 15.0038 34.9147 14.1718 34.936C13.3398 34.936 12.6144 34.9573 11.9958 35V34.36C12.6998 34.3173 13.2224 34.232 13.5638 34.104C13.9264 33.976 14.1611 33.72 14.2678 33.336C14.3958 32.952 14.4598 32.376 14.4598 31.608V15.736C14.4598 14.9467 14.3958 14.3707 14.2678 14.008C14.1611 13.624 13.9264 13.368 13.5638 13.24C13.2224 13.0907 12.6998 13.0053 11.9958 12.984V12.344C12.8491 12.3653 13.7451 12.3867 14.6838 12.408C15.6438 12.408 16.5824 12.4187 17.4998 12.44C18.4384 12.44 19.3024 12.44 20.0918 12.44C20.9024 12.44 21.5531 12.44 22.0438 12.44C23.0251 12.44 24.1344 12.44 25.3718 12.44C26.6304 12.4187 27.7504 12.3867 28.7318 12.344ZM23.8998 23.48C23.8998 23.48 23.8998 23.5867 23.8998 23.8C23.8998 24.0133 23.8998 24.12 23.8998 24.12H17.8838C17.8838 24.12 17.8838 24.0133 17.8838 23.8C17.8838 23.5867 17.8838 23.48 17.8838 23.48H23.8998ZM24.6358 19.256C24.5504 20.472 24.5078 21.4 24.5078 22.04C24.5291 22.68 24.5398 23.2667 24.5398 23.8C24.5398 24.3333 24.5504 24.92 24.5718 25.56C24.5931 26.2 24.6464 27.128 24.7318 28.344H23.9958C23.9104 27.6187 23.7504 26.936 23.5158 26.296C23.2811 25.6347 22.9184 25.112 22.4278 24.728C21.9584 24.3227 21.2758 24.12 20.3798 24.12V23.48C21.0411 23.48 21.5851 23.3413 22.0118 23.064C22.4384 22.7867 22.7691 22.4347 23.0038 22.008C23.2598 21.56 23.4518 21.1013 23.5798 20.632C23.7291 20.1413 23.8358 19.6827 23.8998 19.256H24.6358ZM37.7413 18.008C39.2133 18.008 40.5146 18.3067 41.6453 18.904C42.7973 19.48 43.7039 20.408 44.3653 21.688C45.0479 22.968 45.3893 24.6533 45.3893 26.744C45.3893 28.8347 45.0479 30.52 44.3653 31.8C43.7039 33.08 42.7973 34.008 41.6453 34.584C40.5146 35.16 39.2133 35.448 37.7413 35.448C36.2693 35.448 34.9573 35.16 33.8053 34.584C32.6533 34.008 31.7466 33.08 31.0853 31.8C30.4239 30.52 30.0933 28.8347 30.0933 26.744C30.0933 24.6533 30.4239 22.968 31.0853 21.688C31.7466 20.408 32.6533 19.48 33.8053 18.904C34.9573 18.3067 36.2693 18.008 37.7413 18.008ZM37.7413 18.648C36.7386 18.648 35.9173 19.288 35.2773 20.568C34.6586 21.8267 34.3493 23.8853 34.3493 26.744C34.3493 29.6027 34.6586 31.6613 35.2773 32.92C35.9173 34.1787 36.7386 34.808 37.7413 34.808C38.7226 34.808 39.5333 34.1787 40.1733 32.92C40.8133 31.6613 41.1333 29.6027 41.1333 26.744C41.1333 23.8853 40.8133 21.8267 40.1733 20.568C39.5333 19.288 38.7226 18.648 37.7413 18.648ZM55.6803 18.008C56.4696 18.008 57.1949 18.104 57.8563 18.296C58.5389 18.4667 59.1256 18.712 59.6163 19.032C60.1283 19.352 60.5336 19.7573 60.8323 20.248C61.1309 20.7173 61.2803 21.24 61.2803 21.816C61.2803 22.52 61.0669 23.0853 60.6403 23.512C60.2136 23.9387 59.6803 24.152 59.0403 24.152C58.3789 24.152 57.8349 23.96 57.4083 23.576C57.0029 23.192 56.8003 22.68 56.8003 22.04C56.8003 21.4213 56.9816 20.9093 57.3443 20.504C57.7069 20.0987 58.1443 19.832 58.6563 19.704C58.4643 19.4267 58.1656 19.2027 57.7603 19.032C57.3549 18.84 56.9069 18.744 56.4163 18.744C55.7763 18.744 55.2003 18.9147 54.6883 19.256C54.1763 19.576 53.7283 20.0667 53.3443 20.728C52.9816 21.368 52.6936 22.168 52.4803 23.128C52.2883 24.0667 52.1923 25.1547 52.1923 26.392C52.1923 28.12 52.3949 29.4853 52.8003 30.488C53.2269 31.4907 53.7709 32.2053 54.4323 32.632C55.0936 33.0373 55.7976 33.24 56.5443 33.24C56.9923 33.24 57.4723 33.1547 57.9843 32.984C58.4963 32.8133 58.9976 32.5253 59.4883 32.12C60.0003 31.7147 60.4589 31.1387 60.8643 30.392L61.4723 30.616C61.2376 31.3627 60.8536 32.1093 60.3203 32.856C59.8083 33.6027 59.1363 34.2213 58.3043 34.712C57.4723 35.2027 56.4589 35.448 55.2643 35.448C53.8989 35.448 52.6616 35.1387 51.5523 34.52C50.4429 33.88 49.5576 32.92 48.8963 31.64C48.2563 30.36 47.9363 28.7707 47.9363 26.872C47.9363 24.9947 48.2669 23.4053 48.9283 22.104C49.5896 20.7813 50.5069 19.768 51.6803 19.064C52.8749 18.36 54.2083 18.008 55.6803 18.008ZM78.7255 18.104V31.544C78.7255 32.504 78.8855 33.2187 79.2055 33.688C79.5255 34.136 80.0908 34.36 80.9015 34.36V35.032C80.2402 34.968 79.5788 34.936 78.9175 34.936C78.1282 34.936 77.3708 34.968 76.6455 35.032C75.9415 35.096 75.2908 35.2133 74.6935 35.384V32.184C74.1602 33.3573 73.4242 34.2 72.4855 34.712C71.5682 35.2027 70.5762 35.448 69.5095 35.448C68.6775 35.448 67.9735 35.3307 67.3975 35.096C66.8428 34.8827 66.3948 34.584 66.0535 34.2C65.6908 33.7947 65.4348 33.2613 65.2855 32.6C65.1362 31.9387 65.0615 31.0853 65.0615 30.04V21.944C65.0615 20.984 64.9015 20.28 64.5815 19.832C64.2828 19.3627 63.7175 19.128 62.8855 19.128V18.456C63.5682 18.52 64.2295 18.552 64.8695 18.552C65.6588 18.552 66.4055 18.52 67.1095 18.456C67.8348 18.3707 68.4962 18.2533 69.0935 18.104V31.16C69.0935 31.736 69.1362 32.248 69.2215 32.696C69.3282 33.144 69.5308 33.5067 69.8295 33.784C70.1282 34.04 70.5762 34.168 71.1735 34.168C71.8348 34.168 72.4322 33.976 72.9655 33.592C73.4988 33.208 73.9148 32.6853 74.2135 32.024C74.5335 31.3627 74.6935 30.616 74.6935 29.784V21.944C74.6935 20.984 74.5335 20.28 74.2135 19.832C73.9148 19.3627 73.3495 19.128 72.5175 19.128V18.456C73.2002 18.52 73.8615 18.552 74.5015 18.552C75.2908 18.552 76.0375 18.52 76.7415 18.456C77.4668 18.3707 78.1282 18.2533 78.7255 18.104ZM88.4753 18.008C89.3713 18.008 90.1393 18.136 90.7793 18.392C91.4193 18.648 91.8886 18.872 92.1873 19.064C92.9126 19.5973 93.3499 19.256 93.4993 18.04H94.2033C94.1606 18.6587 94.1286 19.3947 94.1073 20.248C94.0859 21.08 94.0753 22.2 94.0753 23.608H93.3713C93.2646 22.8187 93.0619 22.0507 92.7633 21.304C92.4646 20.5573 92.0273 19.9387 91.4513 19.448C90.8753 18.936 90.1179 18.68 89.1793 18.68C88.5179 18.68 87.9633 18.872 87.5153 19.256C87.0886 19.64 86.8753 20.184 86.8753 20.888C86.8753 21.528 87.0673 22.0933 87.4513 22.584C87.8353 23.0533 88.3259 23.5013 88.9233 23.928C89.5419 24.3333 90.1819 24.7813 90.8433 25.272C91.6113 25.784 92.2939 26.3067 92.8913 26.84C93.4886 27.352 93.9686 27.928 94.3313 28.568C94.6939 29.1867 94.8753 29.9227 94.8753 30.776C94.8753 31.7573 94.5979 32.6 94.0433 33.304C93.5099 33.9867 92.7953 34.52 91.8993 34.904C91.0246 35.2667 90.0539 35.448 88.9873 35.448C88.4113 35.448 87.8886 35.3947 87.4193 35.288C86.9499 35.1813 86.5339 35.0427 86.1713 34.872C85.8939 34.7227 85.6379 34.584 85.4033 34.456C85.1899 34.328 84.9659 34.2213 84.7313 34.136C84.5179 34.0293 84.3259 34.072 84.1553 34.264C84.0059 34.456 83.8886 34.776 83.8033 35.224H83.0993C83.1419 34.5413 83.1739 33.7093 83.1953 32.728C83.2166 31.7467 83.2273 30.4453 83.2273 28.824H83.9313C84.0806 29.9973 84.3046 31.032 84.6033 31.928C84.9233 32.8027 85.3819 33.496 85.9793 34.008C86.5766 34.4987 87.3446 34.744 88.2833 34.744C88.6886 34.744 89.0726 34.6587 89.4353 34.488C89.8193 34.3173 90.1286 34.0507 90.3633 33.688C90.6193 33.3253 90.7473 32.8347 90.7473 32.216C90.7473 31.2773 90.4273 30.4987 89.7873 29.88C89.1473 29.2613 88.3473 28.6 87.3873 27.896C86.6619 27.3627 85.9793 26.84 85.3393 26.328C84.7206 25.816 84.2086 25.24 83.8033 24.6C83.4193 23.96 83.2273 23.2027 83.2273 22.328C83.2273 21.368 83.4726 20.5787 83.9633 19.96C84.4539 19.32 85.0939 18.84 85.8833 18.52C86.6939 18.1787 87.5579 18.008 88.4753 18.008Z" fill="#334155"/>
<g opacity="0.2">
<path d="M53.4987 107.586C54.9353 107.586 56.313 108.157 57.3289 109.172C58.3447 110.188 58.9154 111.566 58.9154 113.003C58.9154 114.439 58.3447 115.817 57.3289 116.833C56.313 117.849 54.9353 118.419 53.4987 118.419C52.0621 118.419 50.6844 117.849 49.6685 116.833C48.6527 115.817 48.082 114.439 48.082 113.003C48.082 111.566 48.6527 110.188 49.6685 109.172C50.6844 108.157 52.0621 107.586 53.4987 107.586ZM53.4987 91.3359C65.4652 91.3359 75.1654 101.036 75.1654 113.003C75.1654 124.969 65.4652 134.669 53.4987 134.669C41.5322 134.669 31.832 124.969 31.832 113.003C31.832 101.036 41.5322 91.3359 53.4987 91.3359ZM53.4987 95.6693C48.9016 95.6693 44.4928 97.4955 41.2422 100.746C37.9915 103.997 36.1654 108.406 36.1654 113.003C36.1654 117.6 37.9915 122.008 41.2422 125.259C44.4928 128.51 48.9016 130.336 53.4987 130.336C58.0958 130.336 62.5046 128.51 65.7552 125.259C69.0058 122.008 70.832 117.6 70.832 113.003C70.832 108.406 69.0058 103.997 65.7552 100.746C62.5046 97.4955 58.0958 95.6693 53.4987 95.6693Z" fill="#334155"/>
</g>
<g opacity="0.25" clip-path="url(#clip0_6197_88901)">
<path d="M284.123 25.3134C283.906 22.4065 282.93 19.6074 281.294 17.1949C279.603 14.692 277.173 12.7788 274.344 11.7221C271.514 10.6653 268.425 10.5176 265.507 11.2994C262.599 11.9628 259.957 13.4848 257.924 15.668C255.891 17.8512 254.561 20.5949 254.106 23.5432C253.944 24.6822 253.944 25.8385 254.106 26.9774C254.273 28.1604 254.709 29.2914 255.38 30.2816C256.568 31.9651 258.403 32.4396 259.332 33.7569C259.692 34.2661 259.852 34.8879 259.787 35.5076C259.776 35.6618 259.826 35.8142 259.927 35.9315C260.028 36.0488 260.171 36.1216 260.325 36.1337H260.931C262.478 36.5613 264.047 36.8848 265.637 37.1044C266.318 37.1911 267.002 37.2344 267.689 37.2344H269.741C271.316 37.2344 272.872 36.9311 274.471 36.7144C274.564 36.7178 274.657 36.7019 274.743 36.6677C274.83 36.6334 274.908 36.5816 274.974 36.5154C275.039 36.4492 275.09 36.3702 275.123 36.2833C275.156 36.1964 275.171 36.1035 275.167 36.0106C275.162 35.9176 275.138 35.8267 275.097 35.7434C275.055 35.6601 274.997 35.5864 274.925 35.5269C274.854 35.4674 274.771 35.4234 274.681 35.3977C274.592 35.372 274.498 35.3651 274.406 35.3776L269.741 35.1176H260.973C260.973 34.4026 260.756 33.7006 260.346 33.1091C259.462 31.8351 257.668 31.2522 256.546 29.5687C256.052 28.7387 255.75 27.8091 255.66 26.8474C255.525 25.836 255.54 24.8103 255.703 23.8032C256.186 21.236 257.424 18.8715 259.26 17.0131C261.096 15.1547 263.445 13.8871 266.006 13.3729C268.497 12.7287 271.126 12.8729 273.532 13.7856C275.937 14.6983 278 16.3345 279.437 18.4689C280.846 20.5429 281.694 22.9465 281.898 25.4456C282.031 26.6437 281.907 27.8564 281.534 29.0029C281.162 30.1494 280.549 31.2035 279.738 32.0951C279.41 32.4232 279.064 32.7334 278.702 33.0246C277.73 33.7786 276.759 34.3831 275.808 35.1826C275.458 35.5323 275.199 35.9622 275.054 36.4349C274.852 37.1456 274.693 37.8656 274.577 38.5951C274.555 39.0934 274.391 39.5701 274.103 39.9774C272.761 41.1278 271.03 41.7222 269.264 41.6392C266.563 41.5562 263.899 40.9782 261.406 39.9341C261.601 39.5874 261.406 38.5301 261.406 37.8822C261.394 37.7025 261.313 37.5345 261.18 37.4135C261.046 37.2926 260.871 37.2284 260.691 37.2344C260.514 37.2466 260.349 37.3285 260.232 37.4621C260.115 37.5956 260.056 37.7701 260.067 37.9472C260.067 38.8117 259.915 39.9124 260.067 40.3869C260.096 40.534 260.161 40.6719 260.254 40.7888C260.348 40.9058 260.469 40.9983 260.606 41.0586C263.378 42.3369 266.37 43.0692 269.416 43.2166C271.612 43.3603 273.779 42.6483 275.461 41.2297C275.808 40.8939 276.068 40.4779 276.219 40.0207C276.445 39.313 276.617 38.5929 276.737 37.8606C276.726 37.4792 276.809 37.1022 276.976 36.7599C277.925 35.9387 278.876 35.3992 279.825 34.5997C280.273 34.269 280.69 33.9021 281.077 33.4991C282.143 32.4337 282.967 31.1511 283.493 29.7385C284.019 28.3259 284.234 26.8166 284.123 25.3134Z" fill="#334155"/>
<path d="M265.509 30.2807C265.639 29.0284 265.725 27.7544 265.834 26.5021C266.173 26.8516 266.555 27.1463 266.978 27.3861C267.667 27.8237 268.473 28.0404 269.29 28.0144C270.048 27.9927 270.789 27.7847 271.448 27.4077V29.1996C271.44 30.6064 271.556 32.0032 271.794 33.3899C271.794 33.8449 272.873 34.1244 273.09 33.3899C272.96 31.9946 272.96 30.5978 273.09 29.1996C273.39 27.3001 273.815 25.4296 274.364 23.5879C274.433 23.3789 274.427 23.1526 274.348 22.9472C274.269 22.7419 274.122 22.5702 273.931 22.4612C273.735 22.3132 273.491 22.2443 273.247 22.2684C273.002 22.2925 272.776 22.4078 272.613 22.5912C272.526 22.6965 272.453 22.8131 272.397 22.9379L272.16 23.4146L271.64 24.2552C271.35 24.6612 270.975 24.9997 270.542 25.2476C270.155 25.4956 269.706 25.6307 269.246 25.6376C268.749 25.6325 268.269 25.4566 267.886 25.1392C267.416 24.8001 267.032 24.3575 266.761 23.8457L266.373 22.8729C266.373 22.6779 266.222 22.2034 266.178 22.0734C266.078 21.9398 265.947 21.8314 265.798 21.7566C265.648 21.6818 265.483 21.6426 265.316 21.6422C265.143 21.598 264.962 21.6007 264.791 21.6503C264.62 21.6998 264.465 21.7943 264.343 21.9239C263.652 22.6562 264.191 26.8032 263.888 31.6197C263.939 32.0856 263.939 32.5556 263.888 33.0216C263.888 33.9316 264.906 34.1894 265.143 33.2382C265.372 32.2697 265.494 31.2774 265.509 30.2807ZM251.213 13.3937C250.948 13.0706 250.652 12.7738 250.329 12.5076L249.335 11.7731C248.535 11.2552 247.694 10.8457 246.852 10.3691C246.704 10.2662 246.523 10.2245 246.345 10.2528C246.168 10.2811 246.008 10.3771 245.9 10.5207C245.799 10.6646 245.758 10.8426 245.786 11.0165C245.814 11.1904 245.91 11.3461 246.052 11.4502C246.702 12.1197 247.326 12.7892 247.996 13.4371C248.277 13.7187 248.559 13.9982 248.838 14.2344C249.12 14.4727 249.421 14.7327 249.725 14.9711C250.473 15.4781 251.192 16.0248 251.883 16.6112C251.992 16.7191 252.14 16.7795 252.293 16.7795C252.447 16.7795 252.594 16.7191 252.704 16.6112C252.768 16.5644 252.822 16.5049 252.863 16.4364C252.903 16.368 252.929 16.292 252.939 16.2131C252.95 16.1342 252.943 16.0541 252.922 15.9776C252.9 15.9012 252.862 15.83 252.812 15.7684C252.371 14.9185 251.835 14.1218 251.213 13.3937ZM259.808 3.76289C259.917 4.16011 260.054 4.54867 260.22 4.92856C260.372 5.29689 260.521 5.66306 260.716 6.02922C261.169 6.87206 261.708 7.62822 262.183 8.49056C262.254 8.61552 262.366 8.71136 262.501 8.76104C262.636 8.81072 262.784 8.81103 262.919 8.7619C263.054 8.71278 263.167 8.61741 263.238 8.49274C263.309 8.36808 263.334 8.22221 263.307 8.08106C263.167 7.11315 262.971 6.15396 262.722 5.20806C262.605 4.81323 262.468 4.42424 262.313 4.04239C262.187 3.6655 262.035 3.29775 261.858 2.94173C261.301 2.07722 260.783 1.29939 260.285 0.458725C260.256 0.372178 260.21 0.292434 260.149 0.224359C260.088 0.156285 260.014 0.101309 259.932 0.0627851C259.849 0.0242615 259.759 0.00299892 259.668 0.000294946C259.577 -0.00240902 259.486 0.0135024 259.401 0.047058C259.239 0.114375 259.109 0.242572 259.04 0.404172C258.972 0.565772 258.969 0.747914 259.033 0.911558C259.293 1.92556 259.509 2.85506 259.813 3.76289M275.939 9.44172C276.016 9.45075 276.094 9.44442 276.168 9.4231C276.243 9.40178 276.312 9.36589 276.373 9.31752C276.433 9.26915 276.484 9.20926 276.521 9.14132C276.558 9.07337 276.581 8.99873 276.589 8.92173C276.892 8.13739 277.158 7.33861 277.386 6.52539C277.495 6.05089 277.538 5.55473 277.603 5.08022C277.622 4.35478 277.702 3.6322 277.841 2.92006C277.889 2.83923 277.92 2.74983 277.932 2.65703C277.945 2.56423 277.939 2.46988 277.914 2.37941C277.89 2.28895 277.848 2.20417 277.791 2.12999C277.734 2.05581 277.663 1.99369 277.581 1.94722C277.418 1.85349 277.224 1.82822 277.042 1.87692C276.859 1.92562 276.704 2.04434 276.609 2.20723C276.149 2.87627 275.779 3.60247 275.508 4.36739C275.4 4.69239 275.313 5.02317 275.248 5.35972C275.226 5.69917 275.226 6.03789 275.248 6.37589C275.248 7.19489 275.421 7.92939 275.486 8.66389C275.464 8.74486 275.458 8.8295 275.469 8.91282C275.48 8.99613 275.507 9.07642 275.549 9.14894C275.592 9.22146 275.648 9.28474 275.716 9.33503C275.783 9.38532 275.858 9.4216 275.939 9.44172ZM294.512 16.2429C293.496 16.2429 292.547 16.0912 291.552 16.0912H290.278C289.866 16.0912 289.435 16.2429 289.026 16.3512C288.061 16.6777 287.132 17.0879 286.239 17.5819C286.151 17.5943 286.066 17.6261 285.991 17.6753C285.916 17.7244 285.853 17.7895 285.806 17.866C285.759 17.9425 285.73 18.0284 285.72 18.1175C285.71 18.2067 285.721 18.2968 285.75 18.3816C285.779 18.4663 285.827 18.5434 285.89 18.6074C285.953 18.6715 286.029 18.7208 286.113 18.7519C286.197 18.7829 286.287 18.795 286.376 18.7871C286.466 18.7792 286.552 18.7517 286.629 18.7064C287.6 18.5547 288.508 18.5547 289.435 18.4897L290.603 18.3597L291.79 18.1431C292.718 17.9481 293.626 17.7119 294.596 17.5169C294.774 17.4953 294.936 17.4082 295.053 17.2727C295.169 17.1372 295.23 16.963 295.225 16.7846C295.193 16.622 295.103 16.4768 294.971 16.3769C294.839 16.2769 294.675 16.2292 294.51 16.2429M272.485 45.5037C271.765 45.5485 271.045 45.5485 270.325 45.5037C269.632 45.5037 268.943 45.3954 268.165 45.3521L266.007 45.2437C264.581 45.2437 263.177 45.2437 261.687 45.0921C261.532 45.0602 261.371 45.0899 261.238 45.1749C261.105 45.2598 261.01 45.3934 260.974 45.5471C260.942 45.702 260.971 45.8636 261.056 45.9972C261.141 46.1308 261.275 46.2258 261.429 46.2621C262.639 46.7427 263.889 47.1175 265.164 47.3822C265.722 47.4833 266.283 47.5411 266.848 47.5556C267.41 47.5989 267.972 47.5989 268.533 47.5556C269.929 47.4429 271.303 47.2053 272.657 46.8427C272.833 46.8109 272.99 46.7121 273.095 46.5671C273.2 46.4222 273.245 46.2422 273.22 46.0649C273.193 45.8947 273.101 45.7415 272.964 45.6371C272.827 45.5326 272.655 45.4849 272.483 45.5037M270.154 49.8674C269.431 49.8476 268.709 49.7824 267.994 49.6724C267.519 49.6411 267.043 49.6411 266.568 49.6724C265.704 49.6724 264.904 49.8891 264.064 49.9757C263.987 49.9667 263.909 49.9729 263.835 49.9941C263.761 50.0153 263.691 50.051 263.631 50.0992C263.57 50.1473 263.52 50.207 263.483 50.2746C263.445 50.3423 263.422 50.4167 263.414 50.4936C263.407 50.652 263.458 50.8076 263.558 50.9309C263.657 51.0542 263.799 51.1368 263.955 51.1631C264.683 51.4418 265.424 51.6787 266.178 51.8737C266.499 51.9315 266.823 51.9676 267.151 51.9821C267.482 52.0037 267.813 52.0037 268.143 51.9821C268.962 51.8255 269.755 51.5572 270.501 51.1847C270.671 51.1431 270.819 51.0368 270.912 50.8883C271.005 50.7397 271.037 50.5607 271 50.3892C270.963 50.2177 270.861 50.0673 270.715 49.9699C270.57 49.8724 270.392 49.8357 270.219 49.8674H270.154Z" fill="#334155"/>
</g>
<path opacity="0.25" d="M211.525 107.896C212.933 107.896 214.085 108.109 214.981 108.536C215.899 108.941 216.709 109.421 217.413 109.976C217.84 110.296 218.16 110.339 218.373 110.104C218.608 109.848 218.768 109.261 218.853 108.344H219.589C219.547 109.155 219.515 110.147 219.493 111.32C219.472 112.493 219.461 114.04 219.461 115.96H218.725C218.597 115 218.459 114.2 218.309 113.56C218.16 112.899 217.947 112.333 217.669 111.864C217.413 111.395 217.051 110.947 216.581 110.52C216.005 109.88 215.312 109.411 214.501 109.112C213.712 108.792 212.88 108.632 212.005 108.632C210.896 108.632 209.925 108.931 209.093 109.528C208.283 110.104 207.6 110.904 207.045 111.928C206.512 112.931 206.107 114.104 205.829 115.448C205.573 116.792 205.445 118.221 205.445 119.736C205.445 121.293 205.584 122.744 205.861 124.088C206.16 125.411 206.587 126.573 207.141 127.576C207.717 128.557 208.421 129.325 209.253 129.88C210.107 130.435 211.088 130.712 212.197 130.712C212.987 130.712 213.797 130.563 214.629 130.264C215.461 129.965 216.144 129.507 216.677 128.888C217.381 128.248 217.861 127.491 218.117 126.616C218.373 125.72 218.576 124.536 218.725 123.064H219.461C219.461 125.069 219.472 126.691 219.493 127.928C219.515 129.144 219.547 130.168 219.589 131H218.853C218.768 130.083 218.619 129.507 218.405 129.272C218.213 129.037 217.883 129.069 217.413 129.368C216.624 129.923 215.781 130.413 214.885 130.84C214.011 131.245 212.88 131.448 211.493 131.448C209.317 131.448 207.408 130.989 205.765 130.072C204.123 129.155 202.843 127.832 201.925 126.104C201.029 124.376 200.581 122.296 200.581 119.864C200.581 117.475 201.051 115.384 201.989 113.592C202.928 111.8 204.219 110.403 205.861 109.4C207.504 108.397 209.392 107.896 211.525 107.896ZM232.972 114.008C233.633 114.008 234.177 114.147 234.604 114.424C235.052 114.701 235.382 115.053 235.596 115.48C235.809 115.907 235.916 116.355 235.916 116.824C235.916 117.528 235.702 118.115 235.276 118.584C234.87 119.053 234.326 119.288 233.644 119.288C233.004 119.288 232.481 119.117 232.076 118.776C231.67 118.435 231.468 117.965 231.468 117.368C231.468 116.835 231.596 116.387 231.852 116.024C232.129 115.661 232.438 115.373 232.78 115.16C232.545 115.032 232.278 114.989 231.98 115.032C231.468 115.075 230.998 115.256 230.572 115.576C230.145 115.896 229.782 116.291 229.484 116.76C229.185 117.229 228.95 117.731 228.78 118.264C228.63 118.797 228.556 119.309 228.556 119.8V127.704C228.556 128.749 228.822 129.453 229.356 129.816C229.889 130.157 230.668 130.328 231.692 130.328V131C231.201 130.979 230.486 130.957 229.548 130.936C228.63 130.893 227.67 130.872 226.668 130.872C225.836 130.872 225.004 130.893 224.172 130.936C223.361 130.957 222.753 130.979 222.348 131V130.328C223.137 130.328 223.692 130.168 224.012 129.848C224.353 129.528 224.524 128.92 224.524 128.024V117.944C224.524 116.984 224.364 116.28 224.044 115.832C223.745 115.363 223.18 115.128 222.348 115.128V114.456C223.03 114.52 223.692 114.552 224.332 114.552C225.121 114.552 225.868 114.52 226.572 114.456C227.297 114.371 227.958 114.253 228.556 114.104V117.432C228.812 116.835 229.142 116.28 229.548 115.768C229.974 115.256 230.476 114.84 231.052 114.52C231.649 114.179 232.289 114.008 232.972 114.008ZM244.599 114.008C246.476 114.008 247.948 114.573 249.015 115.704C250.082 116.835 250.615 118.637 250.615 121.112H239.831L239.799 120.504H246.903C246.946 119.459 246.882 118.499 246.711 117.624C246.54 116.728 246.263 116.013 245.879 115.48C245.516 114.947 245.036 114.68 244.439 114.68C243.628 114.68 242.924 115.16 242.327 116.12C241.73 117.059 241.356 118.605 241.207 120.76L241.335 120.952C241.292 121.229 241.26 121.528 241.239 121.848C241.239 122.168 241.239 122.488 241.239 122.808C241.239 124.28 241.452 125.496 241.879 126.456C242.306 127.416 242.86 128.12 243.543 128.568C244.226 129.016 244.93 129.24 245.655 129.24C246.146 129.24 246.647 129.165 247.159 129.016C247.671 128.867 248.172 128.589 248.663 128.184C249.154 127.779 249.602 127.203 250.007 126.456L250.615 126.712C250.38 127.459 249.986 128.205 249.431 128.952C248.898 129.677 248.204 130.275 247.351 130.744C246.498 131.213 245.495 131.448 244.343 131.448C242.892 131.448 241.612 131.128 240.503 130.488C239.394 129.848 238.53 128.899 237.911 127.64C237.292 126.36 236.983 124.803 236.983 122.968C236.983 121.027 237.303 119.395 237.943 118.072C238.604 116.749 239.511 115.747 240.663 115.064C241.815 114.36 243.127 114.008 244.599 114.008ZM257.139 131.224C256.222 131.224 255.443 131.053 254.803 130.712C254.163 130.349 253.683 129.869 253.363 129.272C253.043 128.653 252.883 127.971 252.883 127.224C252.883 126.307 253.097 125.56 253.523 124.984C253.95 124.387 254.494 123.917 255.155 123.576C255.838 123.213 256.553 122.915 257.299 122.68C258.046 122.424 258.75 122.189 259.411 121.976C260.073 121.741 260.617 121.475 261.043 121.176C261.47 120.877 261.683 120.483 261.683 119.992V117.656C261.683 116.973 261.577 116.419 261.363 115.992C261.171 115.544 260.873 115.213 260.467 115C260.083 114.765 259.593 114.648 258.995 114.648C258.547 114.648 258.078 114.712 257.587 114.84C257.097 114.968 256.691 115.213 256.371 115.576C256.926 115.725 257.353 116.003 257.651 116.408C257.971 116.813 258.131 117.304 258.131 117.88C258.131 118.541 257.907 119.064 257.459 119.448C257.033 119.811 256.489 119.992 255.827 119.992C255.123 119.992 254.59 119.768 254.227 119.32C253.865 118.872 253.683 118.349 253.683 117.752C253.683 117.155 253.833 116.664 254.131 116.28C254.43 115.875 254.846 115.512 255.379 115.192C255.913 114.829 256.595 114.541 257.427 114.328C258.259 114.115 259.166 114.008 260.147 114.008C261.086 114.008 261.918 114.115 262.643 114.328C263.369 114.52 263.987 114.872 264.499 115.384C265.011 115.875 265.342 116.483 265.491 117.208C265.641 117.933 265.715 118.819 265.715 119.864V128.632C265.715 129.165 265.779 129.549 265.907 129.784C266.035 129.997 266.238 130.104 266.515 130.104C266.729 130.104 266.931 130.051 267.123 129.944C267.315 129.837 267.529 129.688 267.763 129.496L268.115 130.04C267.646 130.403 267.155 130.691 266.643 130.904C266.131 131.117 265.513 131.224 264.787 131.224C264.041 131.224 263.443 131.117 262.995 130.904C262.569 130.691 262.249 130.381 262.035 129.976C261.843 129.571 261.737 129.091 261.715 128.536C261.203 129.389 260.574 130.051 259.827 130.52C259.081 130.989 258.185 131.224 257.139 131.224ZM259.059 129.432C259.571 129.432 260.041 129.293 260.467 129.016C260.915 128.739 261.321 128.323 261.683 127.768V121.304C261.47 121.624 261.161 121.912 260.755 122.168C260.371 122.424 259.955 122.68 259.507 122.936C259.059 123.192 258.633 123.491 258.227 123.832C257.843 124.152 257.513 124.557 257.235 125.048C256.979 125.517 256.851 126.125 256.851 126.872C256.851 127.704 257.054 128.344 257.459 128.792C257.865 129.219 258.398 129.432 259.059 129.432ZM275.083 109.208V114.488H279.179V115.128H275.083V127.864C275.083 128.632 275.222 129.176 275.499 129.496C275.776 129.816 276.171 129.976 276.683 129.976C277.174 129.976 277.622 129.795 278.027 129.432C278.432 129.048 278.795 128.419 279.115 127.544L279.691 127.8C279.371 128.845 278.87 129.72 278.187 130.424C277.526 131.107 276.587 131.448 275.371 131.448C274.646 131.448 274.027 131.352 273.515 131.16C273.024 130.989 272.598 130.733 272.235 130.392C271.766 129.901 271.446 129.315 271.275 128.632C271.126 127.949 271.051 127.043 271.051 125.912V115.128H268.235V114.488H271.051V110.04C271.819 110.019 272.534 109.944 273.195 109.816C273.856 109.688 274.486 109.485 275.083 109.208ZM284.253 106.296C285.021 106.296 285.65 106.509 286.141 106.936C286.632 107.363 286.877 107.928 286.877 108.632C286.877 109.336 286.632 109.901 286.141 110.328C285.65 110.755 285.021 110.968 284.253 110.968C283.485 110.968 282.856 110.755 282.365 110.328C281.874 109.901 281.629 109.336 281.629 108.632C281.629 107.928 281.874 107.363 282.365 106.936C282.856 106.509 283.485 106.296 284.253 106.296ZM286.493 114.104V128.024C286.493 128.92 286.653 129.528 286.973 129.848C287.314 130.168 287.88 130.328 288.669 130.328V131C288.285 130.979 287.698 130.957 286.909 130.936C286.12 130.893 285.32 130.872 284.509 130.872C283.72 130.872 282.92 130.893 282.109 130.936C281.298 130.957 280.69 130.979 280.285 131V130.328C281.074 130.328 281.629 130.168 281.949 129.848C282.29 129.528 282.461 128.92 282.461 128.024V117.976C282.461 116.995 282.301 116.28 281.981 115.832C281.682 115.363 281.117 115.128 280.285 115.128V114.456C280.968 114.52 281.629 114.552 282.269 114.552C283.058 114.552 283.805 114.52 284.509 114.456C285.234 114.371 285.896 114.253 286.493 114.104ZM305.234 114.456V115.128C304.829 115.213 304.445 115.437 304.082 115.8C303.741 116.163 303.41 116.803 303.09 117.72L298.194 131.096C297.938 131.075 297.682 131.064 297.426 131.064C297.17 131.064 296.904 131.075 296.626 131.096L290.866 116.92C290.546 116.109 290.216 115.608 289.874 115.416C289.533 115.224 289.245 115.128 289.01 115.128V114.456C289.608 114.499 290.226 114.541 290.866 114.584C291.506 114.605 292.21 114.616 292.978 114.616C293.64 114.616 294.333 114.605 295.058 114.584C295.805 114.541 296.498 114.499 297.138 114.456V115.128C296.669 115.128 296.242 115.16 295.858 115.224C295.496 115.288 295.25 115.459 295.122 115.736C294.994 115.992 295.048 116.451 295.282 117.112L299.122 127.064L298.834 127.416L301.746 119.512C302.109 118.509 302.258 117.699 302.194 117.08C302.13 116.461 301.896 115.992 301.49 115.672C301.106 115.352 300.552 115.171 299.826 115.128V114.456C300.189 114.477 300.53 114.499 300.85 114.52C301.192 114.541 301.522 114.563 301.842 114.584C302.184 114.584 302.504 114.584 302.802 114.584C303.25 114.584 303.688 114.573 304.114 114.552C304.562 114.531 304.936 114.499 305.234 114.456ZM310.066 106.296C310.834 106.296 311.463 106.509 311.954 106.936C312.444 107.363 312.69 107.928 312.69 108.632C312.69 109.336 312.444 109.901 311.954 110.328C311.463 110.755 310.834 110.968 310.066 110.968C309.298 110.968 308.668 110.755 308.178 110.328C307.687 109.901 307.442 109.336 307.442 108.632C307.442 107.928 307.687 107.363 308.178 106.936C308.668 106.509 309.298 106.296 310.066 106.296ZM312.306 114.104V128.024C312.306 128.92 312.466 129.528 312.786 129.848C313.127 130.168 313.692 130.328 314.482 130.328V131C314.098 130.979 313.511 130.957 312.722 130.936C311.932 130.893 311.132 130.872 310.322 130.872C309.532 130.872 308.732 130.893 307.922 130.936C307.111 130.957 306.503 130.979 306.098 131V130.328C306.887 130.328 307.442 130.168 307.762 129.848C308.103 129.528 308.274 128.92 308.274 128.024V117.976C308.274 116.995 308.114 116.28 307.794 115.832C307.495 115.363 306.93 115.128 306.098 115.128V114.456C306.78 114.52 307.442 114.552 308.082 114.552C308.871 114.552 309.618 114.52 310.322 114.456C311.047 114.371 311.708 114.253 312.306 114.104ZM321.989 109.208V114.488H326.085V115.128H321.989V127.864C321.989 128.632 322.128 129.176 322.405 129.496C322.683 129.816 323.077 129.976 323.589 129.976C324.08 129.976 324.528 129.795 324.933 129.432C325.339 129.048 325.701 128.419 326.021 127.544L326.597 127.8C326.277 128.845 325.776 129.72 325.093 130.424C324.432 131.107 323.493 131.448 322.277 131.448C321.552 131.448 320.933 131.352 320.421 131.16C319.931 130.989 319.504 130.733 319.141 130.392C318.672 129.901 318.352 129.315 318.181 128.632C318.032 127.949 317.957 127.043 317.957 125.912V115.128H315.141V114.488H317.957V110.04C318.725 110.019 319.44 109.944 320.101 109.816C320.763 109.688 321.392 109.485 321.989 109.208ZM342.551 114.456V115.128C342.146 115.213 341.762 115.437 341.399 115.8C341.058 116.163 340.727 116.803 340.407 117.72L335.671 130.712L334.679 132.216L328.087 116.92C327.682 116.109 327.298 115.608 326.935 115.416C326.573 115.224 326.274 115.128 326.039 115.128V114.456C326.658 114.52 327.298 114.573 327.959 114.616C328.642 114.637 329.325 114.648 330.007 114.648C330.797 114.648 331.554 114.627 332.279 114.584C333.026 114.541 333.719 114.499 334.359 114.456V115.128C333.869 115.128 333.431 115.16 333.047 115.224C332.663 115.288 332.407 115.469 332.279 115.768C332.173 116.045 332.258 116.536 332.535 117.24L336.535 127L336.279 127.128L339.095 119.512C339.458 118.509 339.607 117.699 339.543 117.08C339.479 116.461 339.245 115.992 338.839 115.672C338.434 115.352 337.879 115.171 337.175 115.128V114.456C337.517 114.477 337.858 114.499 338.199 114.52C338.541 114.541 338.871 114.563 339.191 114.584C339.511 114.584 339.821 114.584 340.119 114.584C340.567 114.584 341.005 114.573 341.431 114.552C341.879 114.531 342.253 114.499 342.551 114.456ZM335.671 130.712L334.455 133.944C334.263 134.477 334.05 134.925 333.815 135.288C333.602 135.672 333.357 135.981 333.079 136.216C332.759 136.493 332.365 136.696 331.895 136.824C331.447 136.952 330.946 137.016 330.391 137.016C329.901 137.016 329.421 136.931 328.951 136.76C328.503 136.589 328.119 136.333 327.799 135.992C327.501 135.651 327.351 135.203 327.351 134.648C327.351 134.051 327.554 133.571 327.959 133.208C328.365 132.845 328.919 132.664 329.623 132.664C330.242 132.664 330.743 132.813 331.127 133.112C331.533 133.432 331.735 133.901 331.735 134.52C331.735 134.925 331.618 135.288 331.383 135.608C331.149 135.928 330.818 136.173 330.391 136.344C330.498 136.365 330.594 136.376 330.679 136.376C330.786 136.397 330.871 136.408 330.935 136.408C331.554 136.408 332.109 136.205 332.599 135.8C333.09 135.395 333.485 134.755 333.783 133.88L334.935 130.712H335.671Z" fill="#334155"/>
<path opacity="0.25" d="M464.423 12.344C464.337 13.3253 464.273 14.2853 464.231 15.224C464.209 16.1413 464.199 16.8453 464.199 17.336C464.199 17.8267 464.209 18.2853 464.231 18.712C464.252 19.1387 464.273 19.512 464.295 19.832H463.559C463.26 18.1253 462.897 16.792 462.471 15.832C462.044 14.8507 461.479 14.1467 460.775 13.72C460.092 13.2933 459.185 13.08 458.055 13.08H457.031V31.32C457.031 32.1947 457.105 32.8453 457.255 33.272C457.425 33.6987 457.756 33.9867 458.247 34.136C458.737 34.264 459.452 34.3387 460.391 34.36V35C459.751 34.9573 458.919 34.936 457.895 34.936C456.871 34.9147 455.825 34.904 454.759 34.904C453.649 34.904 452.604 34.9147 451.623 34.936C450.663 34.936 449.884 34.9573 449.287 35V34.36C450.204 34.3387 450.908 34.264 451.399 34.136C451.889 33.9867 452.22 33.6987 452.391 33.272C452.561 32.8453 452.647 32.1947 452.647 31.32V13.08H451.591C450.481 13.08 449.575 13.2933 448.871 13.72C448.167 14.1467 447.601 14.8507 447.175 15.832C446.748 16.792 446.396 18.1253 446.119 19.832H445.383C445.425 19.512 445.447 19.1387 445.447 18.712C445.468 18.2853 445.479 17.8267 445.479 17.336C445.479 16.8453 445.457 16.1413 445.415 15.224C445.393 14.2853 445.34 13.3253 445.255 12.344C446.193 12.3653 447.228 12.3867 448.359 12.408C449.489 12.4293 450.62 12.44 451.751 12.44C452.881 12.44 453.916 12.44 454.855 12.44C455.772 12.44 456.796 12.44 457.927 12.44C459.057 12.44 460.188 12.4293 461.319 12.408C462.449 12.3867 463.484 12.3653 464.423 12.344ZM476.722 18.008C477.383 18.008 477.927 18.1467 478.354 18.424C478.802 18.7013 479.132 19.0533 479.346 19.48C479.559 19.9067 479.666 20.3547 479.666 20.824C479.666 21.528 479.452 22.1147 479.026 22.584C478.62 23.0533 478.076 23.288 477.394 23.288C476.754 23.288 476.231 23.1173 475.826 22.776C475.42 22.4347 475.218 21.9653 475.218 21.368C475.218 20.8347 475.346 20.3867 475.602 20.024C475.879 19.6613 476.188 19.3733 476.53 19.16C476.295 19.032 476.028 18.9893 475.73 19.032C475.218 19.0747 474.748 19.256 474.322 19.576C473.895 19.896 473.532 20.2907 473.234 20.76C472.935 21.2293 472.7 21.7307 472.53 22.264C472.38 22.7973 472.306 23.3093 472.306 23.8V31.704C472.306 32.7493 472.572 33.4533 473.106 33.816C473.639 34.1573 474.418 34.328 475.442 34.328V35C474.951 34.9787 474.236 34.9573 473.298 34.936C472.38 34.8933 471.42 34.872 470.418 34.872C469.586 34.872 468.754 34.8933 467.922 34.936C467.111 34.9573 466.503 34.9787 466.098 35V34.328C466.887 34.328 467.442 34.168 467.762 33.848C468.103 33.528 468.274 32.92 468.274 32.024V21.944C468.274 20.984 468.114 20.28 467.794 19.832C467.495 19.3627 466.93 19.128 466.098 19.128V18.456C466.78 18.52 467.442 18.552 468.082 18.552C468.871 18.552 469.618 18.52 470.322 18.456C471.047 18.3707 471.708 18.2533 472.306 18.104V21.432C472.562 20.8347 472.892 20.28 473.298 19.768C473.724 19.256 474.226 18.84 474.802 18.52C475.399 18.1787 476.039 18.008 476.722 18.008ZM496.241 18.104V31.544C496.241 32.504 496.401 33.2187 496.721 33.688C497.041 34.136 497.606 34.36 498.417 34.36V35.032C497.756 34.968 497.094 34.936 496.433 34.936C495.644 34.936 494.886 34.968 494.161 35.032C493.457 35.096 492.806 35.2133 492.209 35.384V32.184C491.676 33.3573 490.94 34.2 490.001 34.712C489.084 35.2027 488.092 35.448 487.025 35.448C486.193 35.448 485.489 35.3307 484.913 35.096C484.358 34.8827 483.91 34.584 483.569 34.2C483.206 33.7947 482.95 33.2613 482.801 32.6C482.652 31.9387 482.577 31.0853 482.577 30.04V21.944C482.577 20.984 482.417 20.28 482.097 19.832C481.798 19.3627 481.233 19.128 480.401 19.128V18.456C481.084 18.52 481.745 18.552 482.385 18.552C483.174 18.552 483.921 18.52 484.625 18.456C485.35 18.3707 486.012 18.2533 486.609 18.104V31.16C486.609 31.736 486.652 32.248 486.737 32.696C486.844 33.144 487.046 33.5067 487.345 33.784C487.644 34.04 488.092 34.168 488.689 34.168C489.35 34.168 489.948 33.976 490.481 33.592C491.014 33.208 491.43 32.6853 491.729 32.024C492.049 31.3627 492.209 30.616 492.209 29.784V21.944C492.209 20.984 492.049 20.28 491.729 19.832C491.43 19.3627 490.865 19.128 490.033 19.128V18.456C490.716 18.52 491.377 18.552 492.017 18.552C492.806 18.552 493.553 18.52 494.257 18.456C494.982 18.3707 495.644 18.2533 496.241 18.104ZM505.991 18.008C506.887 18.008 507.655 18.136 508.295 18.392C508.935 18.648 509.404 18.872 509.703 19.064C510.428 19.5973 510.866 19.256 511.015 18.04H511.719C511.676 18.6587 511.644 19.3947 511.623 20.248C511.602 21.08 511.591 22.2 511.591 23.608H510.887C510.78 22.8187 510.578 22.0507 510.279 21.304C509.98 20.5573 509.543 19.9387 508.967 19.448C508.391 18.936 507.634 18.68 506.695 18.68C506.034 18.68 505.479 18.872 505.031 19.256C504.604 19.64 504.391 20.184 504.391 20.888C504.391 21.528 504.583 22.0933 504.967 22.584C505.351 23.0533 505.842 23.5013 506.439 23.928C507.058 24.3333 507.698 24.7813 508.359 25.272C509.127 25.784 509.81 26.3067 510.407 26.84C511.004 27.352 511.484 27.928 511.847 28.568C512.21 29.1867 512.391 29.9227 512.391 30.776C512.391 31.7573 512.114 32.6 511.559 33.304C511.026 33.9867 510.311 34.52 509.415 34.904C508.54 35.2667 507.57 35.448 506.503 35.448C505.927 35.448 505.404 35.3947 504.935 35.288C504.466 35.1813 504.05 35.0427 503.687 34.872C503.41 34.7227 503.154 34.584 502.919 34.456C502.706 34.328 502.482 34.2213 502.247 34.136C502.034 34.0293 501.842 34.072 501.671 34.264C501.522 34.456 501.404 34.776 501.319 35.224H500.615C500.658 34.5413 500.69 33.7093 500.711 32.728C500.732 31.7467 500.743 30.4453 500.743 28.824H501.447C501.596 29.9973 501.82 31.032 502.119 31.928C502.439 32.8027 502.898 33.496 503.495 34.008C504.092 34.4987 504.86 34.744 505.799 34.744C506.204 34.744 506.588 34.6587 506.951 34.488C507.335 34.3173 507.644 34.0507 507.879 33.688C508.135 33.3253 508.263 32.8347 508.263 32.216C508.263 31.2773 507.943 30.4987 507.303 29.88C506.663 29.2613 505.863 28.6 504.903 27.896C504.178 27.3627 503.495 26.84 502.855 26.328C502.236 25.816 501.724 25.24 501.319 24.6C500.935 23.96 500.743 23.2027 500.743 22.328C500.743 21.368 500.988 20.5787 501.479 19.96C501.97 19.32 502.61 18.84 503.399 18.52C504.21 18.1787 505.074 18.008 505.991 18.008ZM520.552 13.208V18.488H524.648V19.128H520.552V31.864C520.552 32.632 520.691 33.176 520.968 33.496C521.245 33.816 521.64 33.976 522.152 33.976C522.643 33.976 523.091 33.7947 523.496 33.432C523.901 33.048 524.264 32.4187 524.584 31.544L525.16 31.8C524.84 32.8453 524.339 33.72 523.656 34.424C522.995 35.1067 522.056 35.448 520.84 35.448C520.115 35.448 519.496 35.352 518.984 35.16C518.493 34.9893 518.067 34.7333 517.704 34.392C517.235 33.9013 516.915 33.3147 516.744 32.632C516.595 31.9493 516.52 31.0427 516.52 29.912V19.128H513.704V18.488H516.52V14.04C517.288 14.0187 518.003 13.944 518.664 13.816C519.325 13.688 519.955 13.4853 520.552 13.208Z" fill="#334155"/>
<g opacity="0.25">
<path d="M502.051 96.7483C496.08 96.7483 490.721 95.666 485.885 90.8203C485.52 90.4551 485.024 90.25 484.507 90.25C483.99 90.25 483.495 90.4551 483.129 90.8203C478.28 95.666 472.918 96.7483 466.954 96.7483C466.437 96.7483 465.941 96.9537 465.575 97.3194C465.209 97.6851 465.004 98.1811 465.004 98.6983V110.405C465.004 122.956 471.406 131.488 483.886 135.651C484.287 135.785 484.721 135.785 485.121 135.651C497.605 131.491 504.004 122.956 504.004 110.405V98.6983C504.004 97.6225 503.126 96.7483 502.051 96.7483ZM500.751 110.402C500.751 121.439 495.434 128.647 484.501 132.424C473.568 128.647 468.251 121.439 468.251 110.402V99.982C473.382 99.8553 479.145 98.8478 484.504 93.9923C489.853 98.8445 495.619 99.852 500.751 99.982V110.402ZM482.872 115.576L491.472 106.976C491.623 106.825 491.802 106.705 492 106.623C492.197 106.542 492.409 106.499 492.622 106.499C492.836 106.499 493.048 106.542 493.245 106.623C493.442 106.705 493.622 106.825 493.773 106.976C493.924 107.127 494.044 107.306 494.126 107.504C494.207 107.701 494.249 107.913 494.249 108.127C494.249 108.34 494.207 108.552 494.126 108.749C494.044 108.947 493.924 109.126 493.773 109.277L484.023 119.027C483.872 119.178 483.693 119.298 483.495 119.38C483.298 119.462 483.086 119.504 482.872 119.504C482.659 119.504 482.447 119.462 482.25 119.38C482.052 119.298 481.873 119.178 481.722 119.027L476.847 114.152C476.542 113.847 476.37 113.433 476.37 113.002C476.37 112.57 476.542 112.156 476.847 111.851C477.152 111.546 477.566 111.374 477.997 111.374C478.429 111.374 478.843 111.546 479.148 111.851L482.872 115.576Z" fill="#334155"/>
</g>
<g opacity="0.25">
<path d="M711.441 50.0675C711.469 47.7571 712.078 45.4908 713.213 43.4783C714.411 41.3843 716.137 39.6413 718.22 38.4237C720.302 37.2061 722.668 36.5566 725.08 36.54C729.946 36.5512 734.552 39.2403 736.947 43.4783C738.082 45.4897 738.691 47.7546 738.719 50.0638M746.222 5.13946V2.09375M756.618 8.87975L759.111 7.13032M735.818 8.87975L733.322 7.13032M725.077 30.066C725.997 30.0874 726.912 29.9245 727.769 29.587C728.626 29.2495 729.406 28.7442 730.065 28.1007C730.723 27.4573 731.247 26.6887 731.604 25.8401C731.961 24.9915 732.145 24.08 732.145 23.1593C732.145 22.2386 731.961 21.3272 731.604 20.4786C731.247 19.63 730.723 18.8614 730.065 18.2179C729.406 17.5745 728.626 17.0691 727.769 16.7316C726.912 16.3941 725.997 16.2313 725.077 16.2526C723.273 16.2944 721.556 17.0405 720.295 18.3312C719.034 19.6219 718.328 21.3548 718.328 23.1593C718.328 24.9638 719.034 26.6968 720.295 27.9875C721.556 29.2782 723.273 30.0242 725.077 30.066ZM753.773 18.7895C753.767 17.7843 753.562 16.7902 753.17 15.8644C752.779 14.9385 752.208 14.0991 751.492 13.3944C750.775 12.6897 749.926 12.1335 748.993 11.7577C748.061 11.382 747.064 11.1941 746.059 11.2049C745.054 11.2361 744.065 11.4654 743.149 11.8797C742.233 12.2941 741.408 12.8852 740.721 13.6193C740.035 14.3534 739.5 15.2159 739.147 16.1573C738.795 17.0988 738.631 18.1005 738.667 19.1052C738.741 20.4485 739.166 21.749 739.9 22.8765C740.634 24.0041 741.651 24.9194 742.849 25.5309V29.2452C742.856 29.4636 742.947 29.6709 743.104 29.8233C743.261 29.9758 743.47 30.0615 743.689 30.0623H748.744C748.963 30.0624 749.174 29.9772 749.331 29.8246C749.489 29.6721 749.58 29.4643 749.587 29.2452V25.464C750.823 24.833 751.865 23.8794 752.602 22.7044C753.34 21.5293 753.742 20.1765 753.773 18.7895Z" stroke="#334155" stroke-width="2" stroke-linecap="round" stroke-linejoin="round"/>
</g>
<path opacity="0.25" d="M647.088 107.896C648.496 107.896 649.648 108.109 650.544 108.536C651.461 108.941 652.272 109.421 652.976 109.976C653.403 110.296 653.723 110.339 653.936 110.104C654.171 109.848 654.331 109.261 654.416 108.344H655.152C655.109 109.155 655.077 110.147 655.056 111.32C655.035 112.493 655.024 114.04 655.024 115.96H654.288C654.16 115 654.021 114.2 653.872 113.56C653.723 112.899 653.509 112.333 653.232 111.864C652.976 111.395 652.613 110.947 652.144 110.52C651.568 109.88 650.875 109.411 650.064 109.112C649.275 108.792 648.443 108.632 647.568 108.632C646.459 108.632 645.488 108.931 644.656 109.528C643.845 110.104 643.163 110.904 642.608 111.928C642.075 112.931 641.669 114.104 641.392 115.448C641.136 116.792 641.008 118.221 641.008 119.736C641.008 121.293 641.147 122.744 641.424 124.088C641.723 125.411 642.149 126.573 642.704 127.576C643.28 128.557 643.984 129.325 644.816 129.88C645.669 130.435 646.651 130.712 647.76 130.712C648.549 130.712 649.36 130.563 650.192 130.264C651.024 129.965 651.707 129.507 652.24 128.888C652.944 128.248 653.424 127.491 653.68 126.616C653.936 125.72 654.139 124.536 654.288 123.064H655.024C655.024 125.069 655.035 126.691 655.056 127.928C655.077 129.144 655.109 130.168 655.152 131H654.416C654.331 130.083 654.181 129.507 653.968 129.272C653.776 129.037 653.445 129.069 652.976 129.368C652.187 129.923 651.344 130.413 650.448 130.84C649.573 131.245 648.443 131.448 647.056 131.448C644.88 131.448 642.971 130.989 641.328 130.072C639.685 129.155 638.405 127.832 637.488 126.104C636.592 124.376 636.144 122.296 636.144 119.864C636.144 117.475 636.613 115.384 637.552 113.592C638.491 111.8 639.781 110.403 641.424 109.4C643.067 108.397 644.955 107.896 647.088 107.896ZM666.038 114.008C667.51 114.008 668.811 114.307 669.942 114.904C671.094 115.48 672.001 116.408 672.662 117.688C673.345 118.968 673.686 120.653 673.686 122.744C673.686 124.835 673.345 126.52 672.662 127.8C672.001 129.08 671.094 130.008 669.942 130.584C668.811 131.16 667.51 131.448 666.038 131.448C664.566 131.448 663.254 131.16 662.102 130.584C660.95 130.008 660.043 129.08 659.382 127.8C658.721 126.52 658.39 124.835 658.39 122.744C658.39 120.653 658.721 118.968 659.382 117.688C660.043 116.408 660.95 115.48 662.102 114.904C663.254 114.307 664.566 114.008 666.038 114.008ZM666.038 114.648C665.035 114.648 664.214 115.288 663.574 116.568C662.955 117.827 662.646 119.885 662.646 122.744C662.646 125.603 662.955 127.661 663.574 128.92C664.214 130.179 665.035 130.808 666.038 130.808C667.019 130.808 667.83 130.179 668.47 128.92C669.11 127.661 669.43 125.603 669.43 122.744C669.43 119.885 669.11 117.827 668.47 116.568C667.83 115.288 667.019 114.648 666.038 114.648ZM681.489 105.944V128.024C681.489 128.92 681.649 129.528 681.969 129.848C682.31 130.168 682.875 130.328 683.665 130.328V131C683.281 130.979 682.694 130.957 681.905 130.936C681.137 130.893 680.347 130.872 679.537 130.872C678.747 130.872 677.937 130.893 677.105 130.936C676.294 130.957 675.686 130.979 675.281 131V130.328C676.07 130.328 676.625 130.168 676.945 129.848C677.286 129.528 677.457 128.92 677.457 128.024V109.784C677.457 108.824 677.307 108.12 677.009 107.672C676.71 107.203 676.134 106.968 675.281 106.968V106.296C675.963 106.36 676.625 106.392 677.265 106.392C678.075 106.392 678.833 106.36 679.537 106.296C680.241 106.211 680.891 106.093 681.489 105.944ZM691.301 105.944V128.024C691.301 128.92 691.461 129.528 691.781 129.848C692.122 130.168 692.688 130.328 693.477 130.328V131C693.093 130.979 692.506 130.957 691.717 130.936C690.949 130.893 690.16 130.872 689.349 130.872C688.56 130.872 687.749 130.893 686.917 130.936C686.106 130.957 685.498 130.979 685.093 131V130.328C685.882 130.328 686.437 130.168 686.757 129.848C687.098 129.528 687.269 128.92 687.269 128.024V109.784C687.269 108.824 687.12 108.12 686.821 107.672C686.522 107.203 685.946 106.968 685.093 106.968V106.296C685.776 106.36 686.437 106.392 687.077 106.392C687.888 106.392 688.645 106.36 689.349 106.296C690.053 106.211 690.704 106.093 691.301 105.944ZM699.421 131.224C698.503 131.224 697.725 131.053 697.085 130.712C696.445 130.349 695.965 129.869 695.645 129.272C695.325 128.653 695.165 127.971 695.165 127.224C695.165 126.307 695.378 125.56 695.805 124.984C696.231 124.387 696.775 123.917 697.437 123.576C698.119 123.213 698.834 122.915 699.581 122.68C700.327 122.424 701.031 122.189 701.693 121.976C702.354 121.741 702.898 121.475 703.325 121.176C703.751 120.877 703.965 120.483 703.965 119.992V117.656C703.965 116.973 703.858 116.419 703.645 115.992C703.453 115.544 703.154 115.213 702.749 115C702.365 114.765 701.874 114.648 701.277 114.648C700.829 114.648 700.359 114.712 699.869 114.84C699.378 114.968 698.973 115.213 698.653 115.576C699.207 115.725 699.634 116.003 699.933 116.408C700.253 116.813 700.413 117.304 700.413 117.88C700.413 118.541 700.189 119.064 699.741 119.448C699.314 119.811 698.77 119.992 698.109 119.992C697.405 119.992 696.871 119.768 696.509 119.32C696.146 118.872 695.965 118.349 695.965 117.752C695.965 117.155 696.114 116.664 696.413 116.28C696.711 115.875 697.127 115.512 697.661 115.192C698.194 114.829 698.877 114.541 699.709 114.328C700.541 114.115 701.447 114.008 702.429 114.008C703.367 114.008 704.199 114.115 704.925 114.328C705.65 114.52 706.269 114.872 706.781 115.384C707.293 115.875 707.623 116.483 707.773 117.208C707.922 117.933 707.997 118.819 707.997 119.864V128.632C707.997 129.165 708.061 129.549 708.189 129.784C708.317 129.997 708.519 130.104 708.797 130.104C709.01 130.104 709.213 130.051 709.405 129.944C709.597 129.837 709.81 129.688 710.045 129.496L710.397 130.04C709.927 130.403 709.437 130.691 708.925 130.904C708.413 131.117 707.794 131.224 707.069 131.224C706.322 131.224 705.725 131.117 705.277 130.904C704.85 130.691 704.53 130.381 704.317 129.976C704.125 129.571 704.018 129.091 703.997 128.536C703.485 129.389 702.855 130.051 702.109 130.52C701.362 130.989 700.466 131.224 699.421 131.224ZM701.341 129.432C701.853 129.432 702.322 129.293 702.749 129.016C703.197 128.739 703.602 128.323 703.965 127.768V121.304C703.751 121.624 703.442 121.912 703.037 122.168C702.653 122.424 702.237 122.68 701.789 122.936C701.341 123.192 700.914 123.491 700.509 123.832C700.125 124.152 699.794 124.557 699.517 125.048C699.261 125.517 699.133 126.125 699.133 126.872C699.133 127.704 699.335 128.344 699.741 128.792C700.146 129.219 700.679 129.432 701.341 129.432ZM721.812 114.008C723.476 114.008 724.863 114.712 725.972 116.12C727.103 117.507 727.668 119.619 727.668 122.456C727.668 124.568 727.338 126.296 726.676 127.64C726.015 128.963 725.13 129.933 724.02 130.552C722.911 131.149 721.706 131.448 720.404 131.448C719.487 131.448 718.602 131.256 717.748 130.872C716.916 130.467 716.244 129.837 715.732 128.984H716.276C716.703 129.581 717.215 130.029 717.812 130.328C718.431 130.605 719.05 130.744 719.668 130.744C720.927 130.744 721.866 130.093 722.484 128.792C723.103 127.469 723.412 125.453 723.412 122.744C723.412 120.952 723.284 119.512 723.028 118.424C722.794 117.315 722.442 116.515 721.972 116.024C721.503 115.512 720.916 115.256 720.212 115.256C719.38 115.256 718.612 115.608 717.908 116.312C717.226 117.016 716.831 118.019 716.724 119.32L716.5 118.424C716.842 117.016 717.482 115.928 718.42 115.16C719.38 114.392 720.511 114.008 721.812 114.008ZM716.852 105.944V130.04C716.404 130.061 715.946 130.147 715.476 130.296C715.007 130.424 714.57 130.595 714.164 130.808C713.759 131 713.407 131.235 713.108 131.512L712.596 131.256C712.703 130.957 712.767 130.659 712.788 130.36C712.81 130.061 712.82 129.752 712.82 129.432V109.784C712.82 108.824 712.66 108.12 712.34 107.672C712.042 107.203 711.476 106.968 710.644 106.968V106.296C711.327 106.36 711.988 106.392 712.628 106.392C713.439 106.392 714.196 106.36 714.9 106.296C715.604 106.211 716.255 106.093 716.852 105.944ZM737.944 114.008C739.416 114.008 740.718 114.307 741.848 114.904C743 115.48 743.907 116.408 744.568 117.688C745.251 118.968 745.592 120.653 745.592 122.744C745.592 124.835 745.251 126.52 744.568 127.8C743.907 129.08 743 130.008 741.848 130.584C740.718 131.16 739.416 131.448 737.944 131.448C736.472 131.448 735.16 131.16 734.008 130.584C732.856 130.008 731.95 129.08 731.288 127.8C730.627 126.52 730.296 124.835 730.296 122.744C730.296 120.653 730.627 118.968 731.288 117.688C731.95 116.408 732.856 115.48 734.008 114.904C735.16 114.307 736.472 114.008 737.944 114.008ZM737.944 114.648C736.942 114.648 736.12 115.288 735.48 116.568C734.862 117.827 734.552 119.885 734.552 122.744C734.552 125.603 734.862 127.661 735.48 128.92C736.12 130.179 736.942 130.808 737.944 130.808C738.926 130.808 739.736 130.179 740.376 128.92C741.016 127.661 741.336 125.603 741.336 122.744C741.336 119.885 741.016 117.827 740.376 116.568C739.736 115.288 738.926 114.648 737.944 114.648ZM758.315 114.008C758.977 114.008 759.521 114.147 759.947 114.424C760.395 114.701 760.726 115.053 760.939 115.48C761.153 115.907 761.259 116.355 761.259 116.824C761.259 117.528 761.046 118.115 760.619 118.584C760.214 119.053 759.67 119.288 758.987 119.288C758.347 119.288 757.825 119.117 757.419 118.776C757.014 118.435 756.811 117.965 756.811 117.368C756.811 116.835 756.939 116.387 757.195 116.024C757.473 115.661 757.782 115.373 758.123 115.16C757.889 115.032 757.622 114.989 757.323 115.032C756.811 115.075 756.342 115.256 755.915 115.576C755.489 115.896 755.126 116.291 754.827 116.76C754.529 117.229 754.294 117.731 754.123 118.264C753.974 118.797 753.899 119.309 753.899 119.8V127.704C753.899 128.749 754.166 129.453 754.699 129.816C755.233 130.157 756.011 130.328 757.035 130.328V131C756.545 130.979 755.83 130.957 754.891 130.936C753.974 130.893 753.014 130.872 752.011 130.872C751.179 130.872 750.347 130.893 749.515 130.936C748.705 130.957 748.097 130.979 747.691 131V130.328C748.481 130.328 749.035 130.168 749.355 129.848C749.697 129.528 749.867 128.92 749.867 128.024V117.944C749.867 116.984 749.707 116.28 749.387 115.832C749.089 115.363 748.523 115.128 747.691 115.128V114.456C748.374 114.52 749.035 114.552 749.675 114.552C750.465 114.552 751.211 114.52 751.915 114.456C752.641 114.371 753.302 114.253 753.899 114.104V117.432C754.155 116.835 754.486 116.28 754.891 115.768C755.318 115.256 755.819 114.84 756.395 114.52C756.993 114.179 757.633 114.008 758.315 114.008ZM766.827 131.224C765.91 131.224 765.131 131.053 764.491 130.712C763.851 130.349 763.371 129.869 763.051 129.272C762.731 128.653 762.571 127.971 762.571 127.224C762.571 126.307 762.784 125.56 763.211 124.984C763.638 124.387 764.182 123.917 764.843 123.576C765.526 123.213 766.24 122.915 766.987 122.68C767.734 122.424 768.438 122.189 769.099 121.976C769.76 121.741 770.304 121.475 770.731 121.176C771.158 120.877 771.371 120.483 771.371 119.992V117.656C771.371 116.973 771.264 116.419 771.051 115.992C770.859 115.544 770.56 115.213 770.155 115C769.771 114.765 769.28 114.648 768.683 114.648C768.235 114.648 767.766 114.712 767.275 114.84C766.784 114.968 766.379 115.213 766.059 115.576C766.614 115.725 767.04 116.003 767.339 116.408C767.659 116.813 767.819 117.304 767.819 117.88C767.819 118.541 767.595 119.064 767.147 119.448C766.72 119.811 766.176 119.992 765.515 119.992C764.811 119.992 764.278 119.768 763.915 119.32C763.552 118.872 763.371 118.349 763.371 117.752C763.371 117.155 763.52 116.664 763.819 116.28C764.118 115.875 764.534 115.512 765.067 115.192C765.6 114.829 766.283 114.541 767.115 114.328C767.947 114.115 768.854 114.008 769.835 114.008C770.774 114.008 771.606 114.115 772.331 114.328C773.056 114.52 773.675 114.872 774.187 115.384C774.699 115.875 775.03 116.483 775.179 117.208C775.328 117.933 775.403 118.819 775.403 119.864V128.632C775.403 129.165 775.467 129.549 775.595 129.784C775.723 129.997 775.926 130.104 776.203 130.104C776.416 130.104 776.619 130.051 776.811 129.944C777.003 129.837 777.216 129.688 777.451 129.496L777.803 130.04C777.334 130.403 776.843 130.691 776.331 130.904C775.819 131.117 775.2 131.224 774.475 131.224C773.728 131.224 773.131 131.117 772.683 130.904C772.256 130.691 771.936 130.381 771.723 129.976C771.531 129.571 771.424 129.091 771.403 128.536C770.891 129.389 770.262 130.051 769.515 130.52C768.768 130.989 767.872 131.224 766.827 131.224ZM768.747 129.432C769.259 129.432 769.728 129.293 770.155 129.016C770.603 128.739 771.008 128.323 771.371 127.768V121.304C771.158 121.624 770.848 121.912 770.443 122.168C770.059 122.424 769.643 122.68 769.195 122.936C768.747 123.192 768.32 123.491 767.915 123.832C767.531 124.152 767.2 124.557 766.923 125.048C766.667 125.517 766.539 126.125 766.539 126.872C766.539 127.704 766.742 128.344 767.147 128.792C767.552 129.219 768.086 129.432 768.747 129.432ZM784.771 109.208V114.488H788.867V115.128H784.771V127.864C784.771 128.632 784.909 129.176 785.187 129.496C785.464 129.816 785.859 129.976 786.371 129.976C786.861 129.976 787.309 129.795 787.715 129.432C788.12 129.048 788.483 128.419 788.803 127.544L789.379 127.8C789.059 128.845 788.557 129.72 787.875 130.424C787.213 131.107 786.275 131.448 785.059 131.448C784.333 131.448 783.715 131.352 783.203 131.16C782.712 130.989 782.285 130.733 781.923 130.392C781.453 129.901 781.133 129.315 780.963 128.632C780.813 127.949 780.739 127.043 780.739 125.912V115.128H777.923V114.488H780.739V110.04C781.507 110.019 782.221 109.944 782.883 109.816C783.544 109.688 784.173 109.485 784.771 109.208ZM793.941 106.296C794.709 106.296 795.338 106.509 795.829 106.936C796.319 107.363 796.565 107.928 796.565 108.632C796.565 109.336 796.319 109.901 795.829 110.328C795.338 110.755 794.709 110.968 793.941 110.968C793.173 110.968 792.543 110.755 792.053 110.328C791.562 109.901 791.317 109.336 791.317 108.632C791.317 107.928 791.562 107.363 792.053 106.936C792.543 106.509 793.173 106.296 793.941 106.296ZM796.181 114.104V128.024C796.181 128.92 796.341 129.528 796.661 129.848C797.002 130.168 797.567 130.328 798.357 130.328V131C797.973 130.979 797.386 130.957 796.597 130.936C795.807 130.893 795.007 130.872 794.197 130.872C793.407 130.872 792.607 130.893 791.797 130.936C790.986 130.957 790.378 130.979 789.973 131V130.328C790.762 130.328 791.317 130.168 791.637 129.848C791.978 129.528 792.149 128.92 792.149 128.024V117.976C792.149 116.995 791.989 116.28 791.669 115.832C791.37 115.363 790.805 115.128 789.973 115.128V114.456C790.655 114.52 791.317 114.552 791.957 114.552C792.746 114.552 793.493 114.52 794.197 114.456C794.922 114.371 795.583 114.253 796.181 114.104ZM807.944 114.008C809.416 114.008 810.718 114.307 811.848 114.904C813 115.48 813.907 116.408 814.568 117.688C815.251 118.968 815.592 120.653 815.592 122.744C815.592 124.835 815.251 126.52 814.568 127.8C813.907 129.08 813 130.008 811.848 130.584C810.718 131.16 809.416 131.448 807.944 131.448C806.472 131.448 805.16 131.16 804.008 130.584C802.856 130.008 801.95 129.08 801.288 127.8C800.627 126.52 800.296 124.835 800.296 122.744C800.296 120.653 800.627 118.968 801.288 117.688C801.95 116.408 802.856 115.48 804.008 114.904C805.16 114.307 806.472 114.008 807.944 114.008ZM807.944 114.648C806.942 114.648 806.12 115.288 805.48 116.568C804.862 117.827 804.552 119.885 804.552 122.744C804.552 125.603 804.862 127.661 805.48 128.92C806.12 130.179 806.942 130.808 807.944 130.808C808.926 130.808 809.736 130.179 810.376 128.92C811.016 127.661 811.336 125.603 811.336 122.744C811.336 119.885 811.016 117.827 810.376 116.568C809.736 115.288 808.926 114.648 807.944 114.648ZM829.179 114.008C830.075 114.008 830.79 114.125 831.323 114.36C831.878 114.595 832.326 114.893 832.667 115.256C833.051 115.661 833.318 116.184 833.467 116.824C833.638 117.464 833.723 118.328 833.723 119.416V128.024C833.723 128.92 833.883 129.528 834.203 129.848C834.545 130.168 835.11 130.328 835.899 130.328V131C835.515 130.979 834.918 130.957 834.107 130.936C833.318 130.893 832.55 130.872 831.803 130.872C831.014 130.872 830.246 130.893 829.499 130.936C828.753 130.957 828.198 130.979 827.835 131V130.328C828.518 130.328 828.998 130.168 829.275 129.848C829.553 129.528 829.691 128.92 829.691 128.024V118.328C829.691 117.752 829.638 117.24 829.531 116.792C829.425 116.323 829.211 115.96 828.891 115.704C828.571 115.427 828.113 115.288 827.515 115.288C826.811 115.288 826.182 115.48 825.627 115.864C825.094 116.248 824.667 116.781 824.347 117.464C824.049 118.125 823.899 118.872 823.899 119.704V128.024C823.899 128.92 824.038 129.528 824.315 129.848C824.593 130.168 825.073 130.328 825.755 130.328V131C825.393 130.979 824.849 130.957 824.123 130.936C823.398 130.893 822.662 130.872 821.915 130.872C821.126 130.872 820.326 130.893 819.515 130.936C818.705 130.957 818.097 130.979 817.691 131V130.328C818.481 130.328 819.035 130.168 819.355 129.848C819.697 129.528 819.867 128.92 819.867 128.024V117.944C819.867 116.984 819.707 116.28 819.387 115.832C819.089 115.363 818.523 115.128 817.691 115.128V114.456C818.374 114.52 819.035 114.552 819.675 114.552C820.465 114.552 821.211 114.52 821.915 114.456C822.641 114.371 823.302 114.253 823.899 114.104V117.304C824.433 116.088 825.169 115.235 826.107 114.744C827.046 114.253 828.07 114.008 829.179 114.008Z" fill="#334155"/>
<path opacity="0.25" d="M963.5 12.344C967.596 12.344 970.625 13.304 972.588 15.224C974.572 17.1227 975.564 19.8533 975.564 23.416C975.564 25.7413 975.073 27.7787 974.092 29.528C973.132 31.256 971.734 32.6 969.9 33.56C968.065 34.52 965.836 35 963.212 35C962.892 35 962.454 34.9893 961.9 34.968C961.366 34.9467 960.801 34.936 960.204 34.936C959.628 34.9147 959.094 34.904 958.604 34.904C957.729 34.904 956.876 34.9147 956.044 34.936C955.212 34.936 954.529 34.9573 953.996 35V34.36C954.7 34.3173 955.222 34.232 955.564 34.104C955.926 33.976 956.161 33.72 956.268 33.336C956.396 32.952 956.46 32.376 956.46 31.608V15.736C956.46 14.9467 956.396 14.3707 956.268 14.008C956.161 13.624 955.926 13.368 955.564 13.24C955.222 13.0907 954.7 13.0053 953.996 12.984V12.344C954.529 12.3653 955.212 12.3973 956.044 12.44C956.876 12.4613 957.708 12.4613 958.54 12.44C959.308 12.4187 960.172 12.3973 961.132 12.376C962.092 12.3547 962.881 12.344 963.5 12.344ZM963.212 12.92C962.23 12.92 961.59 13.1013 961.292 13.464C960.993 13.8267 960.844 14.5627 960.844 15.672V31.672C960.844 32.7813 960.993 33.5173 961.292 33.88C961.612 34.2427 962.262 34.424 963.244 34.424C965.228 34.424 966.774 34.008 967.884 33.176C969.014 32.3227 969.804 31.0853 970.252 29.464C970.721 27.8427 970.956 25.8693 970.956 23.544C970.956 21.1547 970.7 19.1813 970.188 17.624C969.697 16.0453 968.886 14.872 967.756 14.104C966.625 13.3147 965.11 12.92 963.212 12.92ZM985.99 18.008C987.867 18.008 989.339 18.5733 990.406 19.704C991.472 20.8347 992.006 22.6373 992.006 25.112H981.222L981.19 24.504H988.294C988.336 23.4587 988.272 22.4987 988.102 21.624C987.931 20.728 987.654 20.0133 987.27 19.48C986.907 18.9467 986.427 18.68 985.83 18.68C985.019 18.68 984.315 19.16 983.718 20.12C983.12 21.0587 982.747 22.6053 982.598 24.76L982.726 24.952C982.683 25.2293 982.651 25.528 982.63 25.848C982.63 26.168 982.63 26.488 982.63 26.808C982.63 28.28 982.843 29.496 983.27 30.456C983.696 31.416 984.251 32.12 984.934 32.568C985.616 33.016 986.32 33.24 987.046 33.24C987.536 33.24 988.038 33.1653 988.55 33.016C989.062 32.8667 989.563 32.5893 990.054 32.184C990.544 31.7787 990.992 31.2027 991.398 30.456L992.006 30.712C991.771 31.4587 991.376 32.2053 990.822 32.952C990.288 33.6773 989.595 34.2747 988.742 34.744C987.888 35.2133 986.886 35.448 985.734 35.448C984.283 35.448 983.003 35.128 981.894 34.488C980.784 33.848 979.92 32.8987 979.302 31.64C978.683 30.36 978.374 28.8027 978.374 26.968C978.374 25.0267 978.694 23.3947 979.334 22.072C979.995 20.7493 980.902 19.7467 982.054 19.064C983.206 18.36 984.518 18.008 985.99 18.008ZM1009 18.456V19.128C1008.59 19.2133 1008.21 19.4373 1007.85 19.8C1007.51 20.1627 1007.18 20.8027 1006.86 21.72L1001.96 35.096C1001.7 35.0747 1001.45 35.064 1001.19 35.064C1000.94 35.064 1000.67 35.0747 1000.39 35.096L994.632 20.92C994.312 20.1093 993.981 19.608 993.64 19.416C993.299 19.224 993.011 19.128 992.776 19.128V18.456C993.373 18.4987 993.992 18.5413 994.632 18.584C995.272 18.6053 995.976 18.616 996.744 18.616C997.405 18.616 998.099 18.6053 998.824 18.584C999.571 18.5413 1000.26 18.4987 1000.9 18.456V19.128C1000.43 19.128 1000.01 19.16 999.624 19.224C999.261 19.288 999.016 19.4587 998.888 19.736C998.76 19.992 998.813 20.4507 999.048 21.112L1002.89 31.064L1002.6 31.416L1005.51 23.512C1005.87 22.5093 1006.02 21.6987 1005.96 21.08C1005.9 20.4613 1005.66 19.992 1005.26 19.672C1004.87 19.352 1004.32 19.1707 1003.59 19.128V18.456C1003.95 18.4773 1004.3 18.4987 1004.62 18.52C1004.96 18.5413 1005.29 18.5627 1005.61 18.584C1005.95 18.584 1006.27 18.584 1006.57 18.584C1007.02 18.584 1007.45 18.5733 1007.88 18.552C1008.33 18.5307 1008.7 18.4987 1009 18.456ZM1017.52 18.008C1019.4 18.008 1020.87 18.5733 1021.94 19.704C1023 20.8347 1023.54 22.6373 1023.54 25.112H1012.75L1012.72 24.504H1019.83C1019.87 23.4587 1019.8 22.4987 1019.63 21.624C1019.46 20.728 1019.19 20.0133 1018.8 19.48C1018.44 18.9467 1017.96 18.68 1017.36 18.68C1016.55 18.68 1015.85 19.16 1015.25 20.12C1014.65 21.0587 1014.28 22.6053 1014.13 24.76L1014.26 24.952C1014.21 25.2293 1014.18 25.528 1014.16 25.848C1014.16 26.168 1014.16 26.488 1014.16 26.808C1014.16 28.28 1014.37 29.496 1014.8 30.456C1015.23 31.416 1015.78 32.12 1016.47 32.568C1017.15 33.016 1017.85 33.24 1018.58 33.24C1019.07 33.24 1019.57 33.1653 1020.08 33.016C1020.59 32.8667 1021.09 32.5893 1021.59 32.184C1022.08 31.7787 1022.52 31.2027 1022.93 30.456L1023.54 30.712C1023.3 31.4587 1022.91 32.2053 1022.35 32.952C1021.82 33.6773 1021.13 34.2747 1020.27 34.744C1019.42 35.2133 1018.42 35.448 1017.27 35.448C1015.81 35.448 1014.53 35.128 1013.43 34.488C1012.32 33.848 1011.45 32.8987 1010.83 31.64C1010.21 30.36 1009.91 28.8027 1009.91 26.968C1009.91 25.0267 1010.23 23.3947 1010.87 22.072C1011.53 20.7493 1012.43 19.7467 1013.59 19.064C1014.74 18.36 1016.05 18.008 1017.52 18.008ZM1031.63 9.944V32.024C1031.63 32.92 1031.79 33.528 1032.11 33.848C1032.45 34.168 1033.02 34.328 1033.81 34.328V35C1033.42 34.9787 1032.83 34.9573 1032.05 34.936C1031.28 34.8933 1030.49 34.872 1029.68 34.872C1028.89 34.872 1028.08 34.8933 1027.25 34.936C1026.43 34.9573 1025.83 34.9787 1025.42 35V34.328C1026.21 34.328 1026.77 34.168 1027.09 33.848C1027.43 33.528 1027.6 32.92 1027.6 32.024V13.784C1027.6 12.824 1027.45 12.12 1027.15 11.672C1026.85 11.2027 1026.27 10.968 1025.42 10.968V10.296C1026.1 10.36 1026.77 10.392 1027.41 10.392C1028.22 10.392 1028.97 10.36 1029.68 10.296C1030.38 10.2107 1031.03 10.0933 1031.63 9.944ZM1043.12 18.008C1044.59 18.008 1045.89 18.3067 1047.02 18.904C1048.17 19.48 1049.08 20.408 1049.74 21.688C1050.42 22.968 1050.76 24.6533 1050.76 26.744C1050.76 28.8347 1050.42 30.52 1049.74 31.8C1049.08 33.08 1048.17 34.008 1047.02 34.584C1045.89 35.16 1044.59 35.448 1043.12 35.448C1041.64 35.448 1040.33 35.16 1039.18 34.584C1038.03 34.008 1037.12 33.08 1036.46 31.8C1035.8 30.52 1035.47 28.8347 1035.47 26.744C1035.47 24.6533 1035.8 22.968 1036.46 21.688C1037.12 20.408 1038.03 19.48 1039.18 18.904C1040.33 18.3067 1041.64 18.008 1043.12 18.008ZM1043.12 18.648C1042.11 18.648 1041.29 19.288 1040.65 20.568C1040.03 21.8267 1039.72 23.8853 1039.72 26.744C1039.72 29.6027 1040.03 31.6613 1040.65 32.92C1041.29 34.1787 1042.11 34.808 1043.12 34.808C1044.1 34.808 1044.91 34.1787 1045.55 32.92C1046.19 31.6613 1046.51 29.6027 1046.51 26.744C1046.51 23.8853 1046.19 21.8267 1045.55 20.568C1044.91 19.288 1044.1 18.648 1043.12 18.648ZM1058.88 18.136V37.688C1058.88 38.648 1059.14 39.288 1059.65 39.608C1060.18 39.9493 1060.91 40.12 1061.82 40.12V40.792C1061.31 40.7707 1060.59 40.7387 1059.65 40.696C1058.73 40.6747 1057.75 40.664 1056.7 40.664C1055.98 40.664 1055.25 40.6747 1054.53 40.696C1053.8 40.7387 1053.25 40.7707 1052.86 40.792V40.12C1053.59 40.12 1054.1 39.9707 1054.4 39.672C1054.7 39.3733 1054.85 38.8187 1054.85 38.008V21.976C1054.85 21.016 1054.7 20.312 1054.4 19.864C1054.1 19.3947 1053.52 19.16 1052.67 19.16V18.488C1053.35 18.552 1054.02 18.584 1054.66 18.584C1055.47 18.584 1056.22 18.552 1056.93 18.488C1057.63 18.4027 1058.28 18.2853 1058.88 18.136ZM1063.9 18.008C1065.01 18.008 1066 18.3173 1066.88 18.936C1067.75 19.5333 1068.44 20.4187 1068.93 21.592C1069.44 22.7653 1069.7 24.2373 1069.7 26.008C1069.7 27.416 1069.54 28.7067 1069.22 29.88C1068.9 31.032 1068.42 32.024 1067.78 32.856C1067.16 33.688 1066.39 34.328 1065.47 34.776C1064.55 35.224 1063.51 35.448 1062.34 35.448C1061.44 35.448 1060.64 35.2773 1059.94 34.936C1059.23 34.5947 1058.72 34.136 1058.4 33.56L1058.72 33.112C1058.98 33.56 1059.33 33.9227 1059.78 34.2C1060.22 34.4773 1060.76 34.616 1061.38 34.616C1062.4 34.616 1063.21 34.2853 1063.81 33.624C1064.4 32.9413 1064.82 31.992 1065.06 30.776C1065.31 29.56 1065.44 28.152 1065.44 26.552C1065.44 24.7813 1065.32 23.3627 1065.09 22.296C1064.85 21.2293 1064.5 20.4613 1064.03 19.992C1063.56 19.5013 1063.01 19.256 1062.37 19.256C1061.49 19.256 1060.7 19.608 1060 20.312C1059.32 20.9947 1058.9 21.9973 1058.75 23.32L1058.53 22.424C1058.87 21.016 1059.52 19.928 1060.48 19.16C1061.44 18.392 1062.58 18.008 1063.9 18.008ZM1079.9 18.008C1081.77 18.008 1083.25 18.5733 1084.31 19.704C1085.38 20.8347 1085.91 22.6373 1085.91 25.112H1075.13L1075.1 24.504H1082.2C1082.24 23.4587 1082.18 22.4987 1082.01 21.624C1081.84 20.728 1081.56 20.0133 1081.18 19.48C1080.81 18.9467 1080.33 18.68 1079.74 18.68C1078.93 18.68 1078.22 19.16 1077.62 20.12C1077.03 21.0587 1076.65 22.6053 1076.5 24.76L1076.63 24.952C1076.59 25.2293 1076.56 25.528 1076.54 25.848C1076.54 26.168 1076.54 26.488 1076.54 26.808C1076.54 28.28 1076.75 29.496 1077.18 30.456C1077.6 31.416 1078.16 32.12 1078.84 32.568C1079.52 33.016 1080.23 33.24 1080.95 33.24C1081.44 33.24 1081.94 33.1653 1082.46 33.016C1082.97 32.8667 1083.47 32.5893 1083.96 32.184C1084.45 31.7787 1084.9 31.2027 1085.3 30.456L1085.91 30.712C1085.68 31.4587 1085.28 32.2053 1084.73 32.952C1084.19 33.6773 1083.5 34.2747 1082.65 34.744C1081.79 35.2133 1080.79 35.448 1079.64 35.448C1078.19 35.448 1076.91 35.128 1075.8 34.488C1074.69 33.848 1073.83 32.8987 1073.21 31.64C1072.59 30.36 1072.28 28.8027 1072.28 26.968C1072.28 25.0267 1072.6 23.3947 1073.24 22.072C1073.9 20.7493 1074.81 19.7467 1075.96 19.064C1077.11 18.36 1078.42 18.008 1079.9 18.008Z" fill="#334155"/>
<g opacity="0.25">
<path d="M1008.77 134.669V128.478C1008.43 125.118 1006.2 122.57 1004.14 119.502M1025.32 134.669V130.955C1035.96 130.955 1034.77 118.575 1034.77 118.575C1034.77 118.575 1039.5 118.575 1039.5 113.622L1034.77 106.194C1034.77 96.2883 1026.74 91.4263 1018.23 91.3374C1013.46 91.2876 1009.65 92.4858 1006.81 94.5853" stroke="#334155" stroke-width="2" stroke-linecap="round" stroke-linejoin="round"/>
<path d="M1022.17 102.167L1026.5 107.583L1022.17 113M1004.83 102.167L1000.5 107.583L1004.83 113M1015.67 100L1011.33 115.167" stroke="#334155" stroke-width="2" stroke-linecap="round" stroke-linejoin="round"/>
</g>
<g opacity="0.25">
<path d="M1262.64 30.3359C1261.02 27.6736 1260.16 24.6132 1260.17 21.4938C1260.17 12.0168 1267.93 4.33594 1277.5 4.33594C1287.07 4.33594 1294.83 12.0168 1294.83 21.4938C1294.84 24.6132 1293.98 27.6736 1292.36 30.3359" stroke="#334155" stroke-width="2" stroke-linecap="round"/>
<path d="M1284 41.1719L1283.72 42.5737C1283.41 44.1055 1283.26 44.8704 1282.92 45.477C1282.39 46.4121 1281.53 47.1164 1280.5 47.453C1279.84 47.6719 1279.06 47.6719 1277.5 47.6719C1275.94 47.6719 1275.16 47.6719 1274.49 47.4552C1273.47 47.118 1272.61 46.4129 1272.08 45.477C1271.74 44.8704 1271.58 44.1055 1271.28 42.5737L1271 41.1719M1267.5 37.0509C1267.3 36.4529 1267.2 36.1517 1267.21 35.909C1267.22 35.6581 1267.3 35.4161 1267.45 35.2123C1267.6 35.0086 1267.8 34.8517 1268.04 34.7607C1268.26 34.6719 1268.58 34.6719 1269.21 34.6719H1285.79C1286.42 34.6719 1286.74 34.6719 1286.96 34.7585C1287.2 34.8497 1287.4 35.0069 1287.55 35.2111C1287.69 35.4153 1287.78 35.6578 1287.79 35.909C1287.8 36.1517 1287.7 36.4507 1287.5 37.0509C1287.13 38.158 1286.95 38.7127 1286.67 39.1612C1286.07 40.0985 1285.14 40.7724 1284.07 41.044C1283.55 41.1719 1282.97 41.1719 1281.81 41.1719H1273.19C1272.03 41.1719 1271.45 41.1719 1270.93 41.0419C1269.86 40.7708 1268.93 40.0977 1268.33 39.1612C1268.05 38.7127 1267.86 38.158 1267.5 37.0509Z" stroke="#334155" stroke-width="2"/>
<path d="M1278.17 26.0055L1275 16.21C1274.89 15.9013 1274.69 15.6349 1274.42 15.4486C1274.15 15.2623 1273.83 15.1656 1273.5 15.1722C1273.18 15.1656 1272.85 15.2623 1272.58 15.4486C1272.32 15.6349 1272.11 15.9013 1272 16.21L1268.84 26.0055M1284 15.1722V26.0055M1270 22.7555H1277" stroke="#334155" stroke-width="2" stroke-linecap="round" stroke-linejoin="round"/>
</g>
<path opacity="0.25" d="M1208.65 108.344V108.984C1207.97 109.005 1207.45 109.091 1207.08 109.24C1206.74 109.368 1206.51 109.624 1206.38 110.008C1206.25 110.371 1206.19 110.947 1206.19 111.736V127.608C1206.19 128.376 1206.25 128.952 1206.38 129.336C1206.51 129.72 1206.74 129.976 1207.08 130.104C1207.45 130.232 1207.97 130.317 1208.65 130.36V131C1208.12 130.957 1207.44 130.936 1206.6 130.936C1205.77 130.915 1204.93 130.904 1204.08 130.904C1203.12 130.904 1202.22 130.915 1201.39 130.936C1200.56 130.936 1199.87 130.957 1199.34 131V130.36C1200.04 130.317 1200.57 130.232 1200.91 130.104C1201.27 129.976 1201.5 129.72 1201.61 129.336C1201.74 128.952 1201.8 128.376 1201.8 127.608V111.736C1201.8 110.947 1201.74 110.371 1201.61 110.008C1201.5 109.624 1201.27 109.368 1200.91 109.24C1200.57 109.091 1200.04 109.005 1199.34 108.984V108.344C1199.87 108.365 1200.56 108.387 1201.39 108.408C1202.22 108.429 1203.12 108.44 1204.08 108.44C1204.93 108.44 1205.77 108.429 1206.6 108.408C1207.44 108.387 1208.12 108.365 1208.65 108.344ZM1222.16 114.008C1223.06 114.008 1223.77 114.125 1224.31 114.36C1224.86 114.595 1225.31 114.893 1225.65 115.256C1226.04 115.661 1226.3 116.184 1226.45 116.824C1226.62 117.464 1226.71 118.328 1226.71 119.416V128.024C1226.71 128.92 1226.87 129.528 1227.19 129.848C1227.53 130.168 1228.09 130.328 1228.88 130.328V131C1228.5 130.979 1227.9 130.957 1227.09 130.936C1226.3 130.893 1225.53 130.872 1224.79 130.872C1224 130.872 1223.23 130.893 1222.48 130.936C1221.74 130.957 1221.18 130.979 1220.82 131V130.328C1221.5 130.328 1221.98 130.168 1222.26 129.848C1222.54 129.528 1222.68 128.92 1222.68 128.024V118.328C1222.68 117.752 1222.62 117.24 1222.52 116.792C1222.41 116.323 1222.2 115.96 1221.88 115.704C1221.56 115.427 1221.1 115.288 1220.5 115.288C1219.8 115.288 1219.17 115.48 1218.61 115.864C1218.08 116.248 1217.65 116.781 1217.33 117.464C1217.03 118.125 1216.88 118.872 1216.88 119.704V128.024C1216.88 128.92 1217.02 129.528 1217.3 129.848C1217.58 130.168 1218.06 130.328 1218.74 130.328V131C1218.38 130.979 1217.83 130.957 1217.11 130.936C1216.38 130.893 1215.65 130.872 1214.9 130.872C1214.11 130.872 1213.31 130.893 1212.5 130.936C1211.69 130.957 1211.08 130.979 1210.68 131V130.328C1211.47 130.328 1212.02 130.168 1212.34 129.848C1212.68 129.528 1212.85 128.92 1212.85 128.024V117.944C1212.85 116.984 1212.69 116.28 1212.37 115.832C1212.07 115.363 1211.51 115.128 1210.68 115.128V114.456C1211.36 114.52 1212.02 114.552 1212.66 114.552C1213.45 114.552 1214.2 114.52 1214.9 114.456C1215.63 114.371 1216.29 114.253 1216.88 114.104V117.304C1217.42 116.088 1218.15 115.235 1219.09 114.744C1220.03 114.253 1221.05 114.008 1222.16 114.008ZM1241.63 114.008C1242.53 114.008 1243.24 114.125 1243.78 114.36C1244.33 114.595 1244.78 114.893 1245.12 115.256C1245.5 115.661 1245.77 116.184 1245.92 116.824C1246.09 117.464 1246.18 118.328 1246.18 119.416V128.024C1246.18 128.92 1246.34 129.528 1246.66 129.848C1247 130.168 1247.56 130.328 1248.35 130.328V131C1247.97 130.979 1247.37 130.957 1246.56 130.936C1245.77 130.893 1245 130.872 1244.26 130.872C1243.47 130.872 1242.7 130.893 1241.95 130.936C1241.21 130.957 1240.65 130.979 1240.29 131V130.328C1240.97 130.328 1241.45 130.168 1241.73 129.848C1242.01 129.528 1242.14 128.92 1242.14 128.024V118.328C1242.14 117.752 1242.09 117.24 1241.98 116.792C1241.88 116.323 1241.66 115.96 1241.34 115.704C1241.02 115.427 1240.57 115.288 1239.97 115.288C1239.26 115.288 1238.64 115.48 1238.08 115.864C1237.55 116.248 1237.12 116.781 1236.8 117.464C1236.5 118.125 1236.35 118.872 1236.35 119.704V128.024C1236.35 128.92 1236.49 129.528 1236.77 129.848C1237.05 130.168 1237.53 130.328 1238.21 130.328V131C1237.85 130.979 1237.3 130.957 1236.58 130.936C1235.85 130.893 1235.12 130.872 1234.37 130.872C1233.58 130.872 1232.78 130.893 1231.97 130.936C1231.16 130.957 1230.55 130.979 1230.14 131V130.328C1230.93 130.328 1231.49 130.168 1231.81 129.848C1232.15 129.528 1232.32 128.92 1232.32 128.024V117.944C1232.32 116.984 1232.16 116.28 1231.84 115.832C1231.54 115.363 1230.98 115.128 1230.14 115.128V114.456C1230.83 114.52 1231.49 114.552 1232.13 114.552C1232.92 114.552 1233.66 114.52 1234.37 114.456C1235.09 114.371 1235.76 114.253 1236.35 114.104V117.304C1236.89 116.088 1237.62 115.235 1238.56 114.744C1239.5 114.253 1240.52 114.008 1241.63 114.008ZM1257.74 114.008C1259.21 114.008 1260.51 114.307 1261.65 114.904C1262.8 115.48 1263.7 116.408 1264.37 117.688C1265.05 118.968 1265.39 120.653 1265.39 122.744C1265.39 124.835 1265.05 126.52 1264.37 127.8C1263.7 129.08 1262.8 130.008 1261.65 130.584C1260.51 131.16 1259.21 131.448 1257.74 131.448C1256.27 131.448 1254.96 131.16 1253.81 130.584C1252.65 130.008 1251.75 129.08 1251.09 127.8C1250.42 126.52 1250.09 124.835 1250.09 122.744C1250.09 120.653 1250.42 118.968 1251.09 117.688C1251.75 116.408 1252.65 115.48 1253.81 114.904C1254.96 114.307 1256.27 114.008 1257.74 114.008ZM1257.74 114.648C1256.74 114.648 1255.92 115.288 1255.28 116.568C1254.66 117.827 1254.35 119.885 1254.35 122.744C1254.35 125.603 1254.66 127.661 1255.28 128.92C1255.92 130.179 1256.74 130.808 1257.74 130.808C1258.72 130.808 1259.53 130.179 1260.17 128.92C1260.81 127.661 1261.13 125.603 1261.13 122.744C1261.13 119.885 1260.81 117.827 1260.17 116.568C1259.53 115.288 1258.72 114.648 1257.74 114.648ZM1282.31 114.456V115.128C1281.91 115.213 1281.52 115.437 1281.16 115.8C1280.82 116.163 1280.49 116.803 1280.17 117.72L1275.27 131.096C1275.02 131.075 1274.76 131.064 1274.5 131.064C1274.25 131.064 1273.98 131.075 1273.7 131.096L1267.94 116.92C1267.62 116.109 1267.29 115.608 1266.95 115.416C1266.61 115.224 1266.32 115.128 1266.09 115.128V114.456C1266.69 114.499 1267.3 114.541 1267.94 114.584C1268.58 114.605 1269.29 114.616 1270.06 114.616C1270.72 114.616 1271.41 114.605 1272.14 114.584C1272.88 114.541 1273.58 114.499 1274.22 114.456V115.128C1273.75 115.128 1273.32 115.16 1272.94 115.224C1272.57 115.288 1272.33 115.459 1272.2 115.736C1272.07 115.992 1272.13 116.451 1272.36 117.112L1276.2 127.064L1275.91 127.416L1278.82 119.512C1279.19 118.509 1279.34 117.699 1279.27 117.08C1279.21 116.461 1278.97 115.992 1278.57 115.672C1278.18 115.352 1277.63 115.171 1276.9 115.128V114.456C1277.27 114.477 1277.61 114.499 1277.93 114.52C1278.27 114.541 1278.6 114.563 1278.92 114.584C1279.26 114.584 1279.58 114.584 1279.88 114.584C1280.33 114.584 1280.77 114.573 1281.19 114.552C1281.64 114.531 1282.01 114.499 1282.31 114.456ZM1287.31 131.224C1286.39 131.224 1285.62 131.053 1284.98 130.712C1284.34 130.349 1283.86 129.869 1283.54 129.272C1283.22 128.653 1283.06 127.971 1283.06 127.224C1283.06 126.307 1283.27 125.56 1283.7 124.984C1284.12 124.387 1284.67 123.917 1285.33 123.576C1286.01 123.213 1286.72 122.915 1287.47 122.68C1288.22 122.424 1288.92 122.189 1289.58 121.976C1290.24 121.741 1290.79 121.475 1291.22 121.176C1291.64 120.877 1291.86 120.483 1291.86 119.992V117.656C1291.86 116.973 1291.75 116.419 1291.54 115.992C1291.34 115.544 1291.04 115.213 1290.64 115C1290.26 114.765 1289.76 114.648 1289.17 114.648C1288.72 114.648 1288.25 114.712 1287.76 114.84C1287.27 114.968 1286.86 115.213 1286.54 115.576C1287.1 115.725 1287.52 116.003 1287.82 116.408C1288.14 116.813 1288.3 117.304 1288.3 117.88C1288.3 118.541 1288.08 119.064 1287.63 119.448C1287.2 119.811 1286.66 119.992 1286 119.992C1285.3 119.992 1284.76 119.768 1284.4 119.32C1284.04 118.872 1283.86 118.349 1283.86 117.752C1283.86 117.155 1284 116.664 1284.3 116.28C1284.6 115.875 1285.02 115.512 1285.55 115.192C1286.08 114.829 1286.77 114.541 1287.6 114.328C1288.43 114.115 1289.34 114.008 1290.32 114.008C1291.26 114.008 1292.09 114.115 1292.82 114.328C1293.54 114.52 1294.16 114.872 1294.67 115.384C1295.18 115.875 1295.51 116.483 1295.66 117.208C1295.81 117.933 1295.89 118.819 1295.89 119.864V128.632C1295.89 129.165 1295.95 129.549 1296.08 129.784C1296.21 129.997 1296.41 130.104 1296.69 130.104C1296.9 130.104 1297.1 130.051 1297.3 129.944C1297.49 129.837 1297.7 129.688 1297.94 129.496L1298.29 130.04C1297.82 130.403 1297.33 130.691 1296.82 130.904C1296.3 131.117 1295.68 131.224 1294.96 131.224C1294.21 131.224 1293.62 131.117 1293.17 130.904C1292.74 130.691 1292.42 130.381 1292.21 129.976C1292.02 129.571 1291.91 129.091 1291.89 128.536C1291.38 129.389 1290.75 130.051 1290 130.52C1289.25 130.989 1288.36 131.224 1287.31 131.224ZM1289.23 129.432C1289.74 129.432 1290.21 129.293 1290.64 129.016C1291.09 128.739 1291.49 128.323 1291.86 127.768V121.304C1291.64 121.624 1291.33 121.912 1290.93 122.168C1290.54 122.424 1290.13 122.68 1289.68 122.936C1289.23 123.192 1288.8 123.491 1288.4 123.832C1288.02 124.152 1287.68 124.557 1287.41 125.048C1287.15 125.517 1287.02 126.125 1287.02 126.872C1287.02 127.704 1287.23 128.344 1287.63 128.792C1288.04 129.219 1288.57 129.432 1289.23 129.432ZM1305.26 109.208V114.488H1309.35V115.128H1305.26V127.864C1305.26 128.632 1305.39 129.176 1305.67 129.496C1305.95 129.816 1306.34 129.976 1306.86 129.976C1307.35 129.976 1307.79 129.795 1308.2 129.432C1308.6 129.048 1308.97 128.419 1309.29 127.544L1309.86 127.8C1309.54 128.845 1309.04 129.72 1308.36 130.424C1307.7 131.107 1306.76 131.448 1305.54 131.448C1304.82 131.448 1304.2 131.352 1303.69 131.16C1303.2 130.989 1302.77 130.733 1302.41 130.392C1301.94 129.901 1301.62 129.315 1301.45 128.632C1301.3 127.949 1301.22 127.043 1301.22 125.912V115.128H1298.41V114.488H1301.22V110.04C1301.99 110.019 1302.71 109.944 1303.37 109.816C1304.03 109.688 1304.66 109.485 1305.26 109.208ZM1314.43 106.296C1315.19 106.296 1315.82 106.509 1316.31 106.936C1316.8 107.363 1317.05 107.928 1317.05 108.632C1317.05 109.336 1316.8 109.901 1316.31 110.328C1315.82 110.755 1315.19 110.968 1314.43 110.968C1313.66 110.968 1313.03 110.755 1312.54 110.328C1312.05 109.901 1311.8 109.336 1311.8 108.632C1311.8 107.928 1312.05 107.363 1312.54 106.936C1313.03 106.509 1313.66 106.296 1314.43 106.296ZM1316.67 114.104V128.024C1316.67 128.92 1316.83 129.528 1317.15 129.848C1317.49 130.168 1318.05 130.328 1318.84 130.328V131C1318.46 130.979 1317.87 130.957 1317.08 130.936C1316.29 130.893 1315.49 130.872 1314.68 130.872C1313.89 130.872 1313.09 130.893 1312.28 130.936C1311.47 130.957 1310.86 130.979 1310.46 131V130.328C1311.25 130.328 1311.8 130.168 1312.12 129.848C1312.46 129.528 1312.63 128.92 1312.63 128.024V117.976C1312.63 116.995 1312.47 116.28 1312.15 115.832C1311.85 115.363 1311.29 115.128 1310.46 115.128V114.456C1311.14 114.52 1311.8 114.552 1312.44 114.552C1313.23 114.552 1313.98 114.52 1314.68 114.456C1315.41 114.371 1316.07 114.253 1316.67 114.104ZM1328.43 114.008C1329.9 114.008 1331.2 114.307 1332.33 114.904C1333.48 115.48 1334.39 116.408 1335.05 117.688C1335.74 118.968 1336.08 120.653 1336.08 122.744C1336.08 124.835 1335.74 126.52 1335.05 127.8C1334.39 129.08 1333.48 130.008 1332.33 130.584C1331.2 131.16 1329.9 131.448 1328.43 131.448C1326.96 131.448 1325.64 131.16 1324.49 130.584C1323.34 130.008 1322.43 129.08 1321.77 127.8C1321.11 126.52 1320.78 124.835 1320.78 122.744C1320.78 120.653 1321.11 118.968 1321.77 117.688C1322.43 116.408 1323.34 115.48 1324.49 114.904C1325.64 114.307 1326.96 114.008 1328.43 114.008ZM1328.43 114.648C1327.43 114.648 1326.6 115.288 1325.96 116.568C1325.35 117.827 1325.04 119.885 1325.04 122.744C1325.04 125.603 1325.35 127.661 1325.96 128.92C1326.6 130.179 1327.43 130.808 1328.43 130.808C1329.41 130.808 1330.22 130.179 1330.86 128.92C1331.5 127.661 1331.82 125.603 1331.82 122.744C1331.82 119.885 1331.5 117.827 1330.86 116.568C1330.22 115.288 1329.41 114.648 1328.43 114.648ZM1349.66 114.008C1350.56 114.008 1351.27 114.125 1351.81 114.36C1352.36 114.595 1352.81 114.893 1353.15 115.256C1353.54 115.661 1353.8 116.184 1353.95 116.824C1354.12 117.464 1354.21 118.328 1354.21 119.416V128.024C1354.21 128.92 1354.37 129.528 1354.69 129.848C1355.03 130.168 1355.59 130.328 1356.38 130.328V131C1356 130.979 1355.4 130.957 1354.59 130.936C1353.8 130.893 1353.03 130.872 1352.29 130.872C1351.5 130.872 1350.73 130.893 1349.98 130.936C1349.24 130.957 1348.68 130.979 1348.32 131V130.328C1349 130.328 1349.48 130.168 1349.76 129.848C1350.04 129.528 1350.18 128.92 1350.18 128.024V118.328C1350.18 117.752 1350.12 117.24 1350.02 116.792C1349.91 116.323 1349.7 115.96 1349.38 115.704C1349.06 115.427 1348.6 115.288 1348 115.288C1347.3 115.288 1346.67 115.48 1346.11 115.864C1345.58 116.248 1345.15 116.781 1344.83 117.464C1344.53 118.125 1344.38 118.872 1344.38 119.704V128.024C1344.38 128.92 1344.52 129.528 1344.8 129.848C1345.08 130.168 1345.56 130.328 1346.24 130.328V131C1345.88 130.979 1345.33 130.957 1344.61 130.936C1343.88 130.893 1343.15 130.872 1342.4 130.872C1341.61 130.872 1340.81 130.893 1340 130.936C1339.19 130.957 1338.58 130.979 1338.18 131V130.328C1338.97 130.328 1339.52 130.168 1339.84 129.848C1340.18 129.528 1340.35 128.92 1340.35 128.024V117.944C1340.35 116.984 1340.19 116.28 1339.87 115.832C1339.57 115.363 1339.01 115.128 1338.18 115.128V114.456C1338.86 114.52 1339.52 114.552 1340.16 114.552C1340.95 114.552 1341.7 114.52 1342.4 114.456C1343.13 114.371 1343.79 114.253 1344.38 114.104V117.304C1344.92 116.088 1345.65 115.235 1346.59 114.744C1347.53 114.253 1348.55 114.008 1349.66 114.008Z" fill="#334155"/>
<defs>
<clipPath id="clip0_6197_88901">
<rect width="52" height="52" fill="white" transform="translate(244.5)"/>
</clipPath>
</defs>
</svg>
