<svg width="261" height="538" viewBox="0 0 261 538" fill="none" xmlns="http://www.w3.org/2000/svg">
<path opacity="0.3" fill-rule="evenodd" clip-rule="evenodd" d="M246.858 162.768C282.885 195.152 240.898 169.981 213 225.811C190.156 271.528 124.196 292.096 96.6776 336.736C60.7524 395.014 91.3884 468.256 35.5836 513.614C-16.5075 555.954 -79.8317 529.858 -135.262 525.256C-191.456 520.591 -199.907 506.93 -234.89 472.8C-271.412 437.168 -341.25 396.407 -328.134 337.087C-315.595 280.38 -260.358 231.47 -219.365 179.245C-178.764 127.517 -150.454 54.6768 -90.1485 33.8876C-28.7288 12.7144 70.7804 -4.28021 127.125 0.957614C183.749 6.22145 209.983 129.622 246.858 162.768Z" fill="url(#paint0_linear_6197_81130)"/>
<defs>
<linearGradient id="paint0_linear_6197_81130" x1="208.538" y1="77.8795" x2="-262.528" y2="460.692" gradientUnits="userSpaceOnUse">
<stop stop-color="#B0DCED"/>
<stop offset="1" stop-color="#6581A9"/>
</linearGradient>
</defs>
</svg>
