<svg width="346" height="301" viewBox="0 0 346 301" fill="none" xmlns="http://www.w3.org/2000/svg">
<path d="M9.9375 299.071H345.432" stroke="#263238" stroke-linecap="round" stroke-linejoin="round"/>
<path d="M67.3421 195.973C72.2096 200.495 70.5871 227.084 85.8058 215.644C101.025 204.203 75.0975 197.429 76.574 190.945C78.6508 181.901 112.893 192.754 107.149 175.389C101.406 158.025 80.9303 184.144 75.5518 177.677C70.6033 171.726 95.2486 150.22 83.7615 146.566C72.2745 142.912 74.7163 174.014 67.3421 174.014C61.5824 174.014 62.6613 144.278 52.0747 154.796C41.4881 165.314 64.6245 175.688 61.5986 182.217C59.2947 187.182 41.0825 174.928 41.9018 186.369C42.7212 197.809 62.1502 191.189 67.3421 195.973Z" fill="#C4C4C4"/>
<path d="M70.5843 182.374C70.5843 182.374 59.5191 197.324 60.7522 238.067" stroke="#263238" stroke-linecap="round" stroke-linejoin="round"/>
<path d="M92.2128 203.563C90.2496 199.159 73.9681 196.147 83.2892 186.588C92.6103 177.028 92.5778 197.522 96.7232 197.44C102.524 197.332 101.396 169.929 110.969 177.001C120.541 184.073 101.51 195.261 104.56 200.316C107.359 204.974 124.248 189.925 124.63 199.123C125.011 208.32 106.637 201.51 105.46 207.054C104.544 211.368 122.65 215.293 114.619 221.525C106.588 227.756 104.016 208.8 99.6031 210.03C96.2365 210.934 100.731 226.571 93.965 224.129C87.1993 221.687 94.2733 208.176 92.2128 203.563Z" fill="#C4C4C4"/>
<path opacity="0.3" d="M92.2128 203.563C90.2496 199.159 73.9681 196.147 83.2892 186.588C92.6103 177.028 92.5778 197.522 96.7232 197.44C102.524 197.332 101.396 169.929 110.969 177.001C120.541 184.073 101.51 195.261 104.56 200.316C107.359 204.974 124.248 189.925 124.63 199.123C125.011 208.32 106.637 201.51 105.46 207.054C104.544 211.368 122.65 215.293 114.619 221.525C106.588 227.756 104.016 208.8 99.6031 210.03C96.2365 210.934 100.731 226.571 93.965 224.129C87.1993 221.687 94.2733 208.176 92.2128 203.563Z" fill="black"/>
<path d="M100.609 203.753C100.609 203.753 69.0761 200.09 65.9609 238.066" stroke="#263238" stroke-linecap="round" stroke-linejoin="round"/>
<path d="M40.4493 199.633C35.5818 204.155 37.2043 230.744 21.9856 219.303C6.76679 207.863 32.702 201.08 31.2174 194.604C29.1488 185.56 -5.10158 196.413 0.650079 179.049C6.40173 161.684 26.8611 187.812 32.2882 181.337C37.2287 175.395 12.5915 153.888 24.0785 150.225C35.5656 146.563 33.0914 177.683 40.4898 177.683C46.2496 177.683 45.1788 147.937 55.7654 158.465C66.352 168.992 43.2075 179.356 46.2415 185.886C48.5373 190.851 66.7576 178.596 65.9383 190.028C65.1189 201.46 45.6168 194.848 40.4493 199.633Z" fill="#C4C4C4"/>
<path opacity="0.3" d="M40.4493 199.633C35.5818 204.155 37.2043 230.744 21.9856 219.303C6.76679 207.863 32.702 201.08 31.2174 194.604C29.1488 185.56 -5.10158 196.413 0.650079 179.049C6.40173 161.684 26.8611 187.812 32.2882 181.337C37.2287 175.395 12.5915 153.888 24.0785 150.225C35.5656 146.563 33.0914 177.683 40.4898 177.683C46.2496 177.683 45.1788 147.937 55.7654 158.465C66.352 168.992 43.2075 179.356 46.2415 185.886C48.5373 190.851 66.7576 178.596 65.9383 190.028C65.1189 201.46 45.6168 194.848 40.4493 199.633Z" fill="white"/>
<path d="M36.9531 186.028C36.9531 186.028 51.312 207.408 54.5975 243.087" stroke="#263238" stroke-linecap="round" stroke-linejoin="round"/>
<path d="M47.2505 298.918H69.6406C71.7191 298.928 73.7247 298.064 75.2569 296.499C76.7892 294.933 77.7355 292.78 77.907 290.471L81.4278 244.347C81.5196 243.08 81.3752 241.806 81.0035 240.604C80.6319 239.402 80.0411 238.3 79.2683 237.365C78.4956 236.43 77.5577 235.684 76.5136 235.174C75.4696 234.663 74.342 234.399 73.2019 234.398H43.7297C42.5899 234.399 41.4627 234.663 40.419 235.174C39.3753 235.685 38.4379 236.431 37.6658 237.365C36.8937 238.3 36.3037 239.403 35.933 240.605C35.5622 241.806 35.4189 243.08 35.5119 244.347L39.0327 290.471C39.2017 292.772 40.1405 294.918 41.6629 296.482C43.1853 298.047 45.1798 298.917 47.2505 298.918Z" fill="#C4C4C4" stroke="#263238" stroke-linecap="round" stroke-linejoin="round"/>
<path d="M214.896 232.68C207.408 232.68 185.797 227.254 185.797 227.254H243.995C243.995 227.254 222.375 232.68 214.896 232.68Z" fill="#263238" stroke="#263238" stroke-linecap="round" stroke-linejoin="round"/>
<path d="M221.579 229.955H208.242V240.148H221.579V229.955Z" fill="#E5E5E5" stroke="#263238" stroke-linecap="round" stroke-linejoin="round"/>
<path d="M223.545 240.144H206.266V283.962H223.545V240.144Z" fill="#999999" stroke="#263238" stroke-linecap="round" stroke-linejoin="round"/>
<path d="M247.362 214.235H236.094C237.343 205.607 238.268 196.817 238.836 188.107H250.063C249.528 196.817 248.611 205.607 247.362 214.235Z" fill="#E5E5E5" stroke="#263238" stroke-linecap="round" stroke-linejoin="round"/>
<path d="M264.423 110.92H216.008C210.33 110.92 206.59 116.283 207.693 122.596C210.785 141.88 212.634 161.387 213.226 180.965C213.22 182.301 213.453 183.625 213.91 184.859C214.367 186.094 215.04 187.215 215.889 188.157C216.738 189.1 217.747 189.845 218.856 190.349C219.966 190.853 221.154 191.107 222.352 191.095H263.108C265.642 191.066 268.082 190.03 269.991 188.173C271.899 186.316 273.149 183.76 273.517 180.965C275.482 161.591 276.192 142.084 275.642 122.596C275.374 116.283 270.109 110.92 264.423 110.92Z" fill="#E5E5E5" stroke="#263238" stroke-linecap="round" stroke-linejoin="round"/>
<path d="M267.06 122.596C267.609 142.084 266.899 161.591 264.934 180.965C264.567 183.76 263.316 186.316 261.408 188.173C259.5 190.03 257.059 191.066 254.526 191.095H222.352C221.154 191.107 219.966 190.853 218.857 190.349C217.747 189.845 216.739 189.1 215.889 188.157C215.04 187.215 214.368 186.094 213.91 184.859C213.453 183.625 213.221 182.301 213.226 180.965C212.637 161.387 210.79 141.88 207.701 122.596C206.598 116.265 210.322 110.92 216.017 110.92H255.84C261.527 110.92 266.792 116.283 267.06 122.596Z" fill="#999999" stroke="#263238" stroke-linecap="round" stroke-linejoin="round"/>
<path d="M243.995 291.835C243.995 292.076 243.947 292.314 243.854 292.531C243.76 292.748 243.625 292.939 243.457 293.09C243.289 293.241 243.092 293.348 242.882 293.403C242.672 293.458 242.454 293.46 242.243 293.409C236.945 292.125 221.086 288.399 214.896 288.399C208.706 288.399 192.838 292.125 187.541 293.409C187.331 293.46 187.112 293.459 186.903 293.403C186.693 293.348 186.497 293.241 186.329 293.09C186.162 292.939 186.027 292.747 185.935 292.53C185.843 292.313 185.796 292.075 185.797 291.835C185.796 290.868 186.093 289.931 186.638 289.178C187.183 288.426 187.942 287.905 188.79 287.702C194.988 286.219 209.128 282.99 214.896 282.99C220.664 282.99 234.804 286.219 241.001 287.702C241.849 287.907 242.608 288.428 243.152 289.18C243.697 289.932 243.994 290.869 243.995 291.835Z" fill="#263238" stroke="#263238" stroke-linecap="round" stroke-linejoin="round"/>
<path d="M185.794 288.577C184.808 288.575 183.844 288.9 183.023 289.509C182.203 290.119 181.563 290.986 181.185 292.001C180.807 293.016 180.708 294.133 180.9 295.211C181.092 296.289 181.566 297.28 182.264 298.057C182.961 298.834 183.849 299.363 184.816 299.577C185.783 299.791 186.785 299.68 187.696 299.259C188.606 298.837 189.384 298.124 189.931 297.21C190.477 296.295 190.768 295.22 190.767 294.121C190.765 292.652 190.24 291.243 189.308 290.204C188.376 289.164 187.112 288.58 185.794 288.577ZM185.794 297.133C185.259 297.135 184.736 296.959 184.291 296.63C183.845 296.3 183.498 295.83 183.292 295.28C183.087 294.73 183.032 294.124 183.135 293.539C183.238 292.954 183.495 292.417 183.873 291.995C184.25 291.573 184.731 291.285 185.256 291.168C185.78 291.051 186.323 291.11 186.818 291.338C187.312 291.566 187.734 291.952 188.031 292.447C188.328 292.942 188.487 293.525 188.487 294.121C188.487 294.918 188.204 295.683 187.699 296.247C187.194 296.812 186.509 297.13 185.794 297.133Z" fill="#E5E5E5" stroke="#263238" stroke-linecap="round" stroke-linejoin="round"/>
<path d="M214.903 288.577C213.916 288.574 212.95 288.897 212.127 289.507C211.305 290.117 210.664 290.986 210.286 292.003C209.908 293.02 209.809 294.14 210.003 295.219C210.197 296.299 210.674 297.29 211.374 298.066C212.074 298.843 212.965 299.37 213.934 299.581C214.904 299.791 215.907 299.676 216.818 299.249C217.728 298.822 218.504 298.104 219.047 297.184C219.59 296.265 219.876 295.186 219.868 294.085C219.857 292.623 219.33 291.225 218.401 290.194C217.471 289.163 216.215 288.582 214.903 288.577ZM214.903 297.133C214.37 297.135 213.848 296.96 213.404 296.632C212.959 296.304 212.612 295.836 212.405 295.288C212.198 294.74 212.142 294.136 212.243 293.552C212.343 292.969 212.597 292.431 212.971 292.008C213.345 291.584 213.823 291.294 214.346 291.173C214.868 291.052 215.41 291.106 215.905 291.328C216.399 291.55 216.824 291.93 217.125 292.421C217.426 292.911 217.59 293.491 217.597 294.085C217.601 294.483 217.534 294.877 217.401 295.246C217.268 295.615 217.07 295.951 216.82 296.235C216.569 296.518 216.271 296.743 215.942 296.898C215.613 297.052 215.26 297.132 214.903 297.133Z" fill="#E5E5E5" stroke="#263238" stroke-linecap="round" stroke-linejoin="round"/>
<path d="M243.387 288.577C242.402 288.577 241.438 288.903 240.619 289.514C239.8 290.124 239.161 290.992 238.785 292.007C238.408 293.022 238.31 294.139 238.503 295.217C238.695 296.294 239.171 297.284 239.868 298.06C240.565 298.836 241.454 299.364 242.42 299.578C243.387 299.791 244.389 299.68 245.299 299.258C246.209 298.836 246.986 298.123 247.533 297.209C248.079 296.294 248.37 295.22 248.368 294.121C248.368 293.392 248.239 292.671 247.989 291.997C247.738 291.324 247.371 290.713 246.909 290.198C246.446 289.683 245.897 289.275 245.293 288.997C244.688 288.718 244.041 288.576 243.387 288.577ZM243.387 297.133C242.853 297.133 242.331 296.956 241.886 296.625C241.442 296.294 241.096 295.824 240.891 295.274C240.687 294.723 240.633 294.118 240.738 293.534C240.842 292.949 241.099 292.413 241.477 291.992C241.855 291.57 242.336 291.284 242.86 291.167C243.384 291.051 243.927 291.111 244.421 291.339C244.915 291.567 245.337 291.953 245.633 292.448C245.93 292.943 246.089 293.525 246.089 294.121C246.089 294.92 245.804 295.686 245.297 296.251C244.791 296.815 244.104 297.133 243.387 297.133Z" fill="#E5E5E5" stroke="#263238" stroke-linecap="round" stroke-linejoin="round"/>
<path d="M229.651 212.482C210.228 213.169 190.786 212.211 171.494 209.615C170.603 209.436 169.688 209.48 168.815 209.745C167.942 210.01 167.133 210.488 166.446 211.146C165.76 211.804 165.214 212.624 164.848 213.546C164.482 214.469 164.305 215.471 164.33 216.479V217.537C164.378 219.759 165.119 221.893 166.427 223.571C167.735 225.248 169.527 226.364 171.494 226.726C190.787 229.317 210.228 230.276 229.651 229.593V212.482Z" fill="#999999" stroke="#263238" stroke-linecap="round" stroke-linejoin="round"/>
<path d="M260.159 226.454C248.104 228.136 236.155 229.249 224.019 229.828C223.319 229.852 222.623 229.719 221.971 229.436C221.319 229.153 220.725 228.727 220.225 228.182C219.724 227.638 219.327 226.986 219.058 226.266C218.788 225.547 218.652 224.774 218.656 223.994V218.794C218.671 217.205 219.238 215.684 220.238 214.552C221.238 213.42 222.594 212.765 224.019 212.725C236.187 212.137 248.104 211.025 260.159 209.343C260.819 209.205 261.499 209.233 262.148 209.426C262.797 209.62 263.399 209.973 263.91 210.459C264.42 210.946 264.826 211.554 265.098 212.239C265.37 212.924 265.501 213.668 265.481 214.417V219.617C265.442 221.267 264.889 222.851 263.919 224.098C262.948 225.345 261.619 226.178 260.159 226.454Z" fill="#E5E5E5" stroke="#263238" stroke-linecap="round" stroke-linejoin="round"/>
<path d="M179.444 296.8C179.444 293.78 178.851 287.757 175.655 279.933L171.493 263.202L158.514 269.379L162.164 282.194C162.164 282.194 151.01 288.127 146.889 289.728C144.147 290.795 135.937 292.893 136.343 296.819C136.343 297.095 136.392 297.369 136.487 297.625C136.582 297.881 136.721 298.113 136.896 298.309C137.072 298.504 137.28 298.66 137.509 298.765C137.739 298.871 137.985 298.926 138.233 298.926H177.545C177.796 298.927 178.044 298.873 178.275 298.766C178.506 298.66 178.716 298.503 178.893 298.305C179.069 298.108 179.209 297.873 179.304 297.615C179.398 297.356 179.446 297.08 179.444 296.8Z" fill="#FF8B7B" stroke="#263238" stroke-linecap="round" stroke-linejoin="round"/>
<path d="M172.297 287.005C170.268 288.669 159.455 290.776 162.164 288.362C164.874 285.947 162.164 282.185 162.164 282.185C162.164 282.185 151.01 288.117 146.889 289.718C144.147 290.785 135.937 292.884 136.343 296.809C136.343 297.085 136.392 297.359 136.487 297.615C136.582 297.871 136.721 298.103 136.896 298.299C137.072 298.494 137.28 298.65 137.509 298.756C137.739 298.861 137.985 298.916 138.233 298.916H177.545C177.795 298.917 178.043 298.863 178.274 298.756C178.505 298.65 178.714 298.493 178.89 298.295C179.066 298.097 179.205 297.862 179.298 297.604C179.392 297.346 179.439 297.069 179.435 296.791C179.303 292.209 178.463 287.687 176.953 283.424C174.722 283.451 174.325 285.35 172.297 287.005Z" fill="#C4C4C4" stroke="#263238" stroke-linecap="round" stroke-linejoin="round"/>
<path d="M188.824 298.916H217.623C217.911 298.916 218.19 298.804 218.412 298.599C218.634 298.394 218.785 298.11 218.84 297.795C219.278 295.244 219.181 289.538 216.585 281.959L216.325 266.584L201.577 269.379L203.443 282.492C203.443 282.492 197.504 289.782 194.681 291.084C192.702 291.988 188.191 292.097 187.591 297.415C187.575 297.606 187.595 297.798 187.65 297.98C187.705 298.162 187.793 298.328 187.91 298.47C188.026 298.611 188.167 298.724 188.325 298.801C188.482 298.878 188.652 298.917 188.824 298.916Z" fill="#FF8B7B" stroke="#263238" stroke-linecap="round" stroke-linejoin="round"/>
<path d="M211.744 287.067C208.702 289.437 206.455 289.717 207.875 286.163C209.294 282.608 203.47 282.482 203.47 282.482C203.47 282.482 197.531 289.771 194.708 291.074C192.729 291.978 188.218 292.087 187.618 297.404C187.597 297.598 187.614 297.794 187.666 297.981C187.719 298.167 187.807 298.338 187.923 298.483C188.04 298.629 188.183 298.745 188.343 298.824C188.503 298.903 188.676 298.943 188.851 298.942H217.65C217.938 298.941 218.217 298.829 218.439 298.625C218.661 298.42 218.812 298.136 218.867 297.82C219.305 295.27 219.208 289.563 216.612 281.984C214.356 282.563 214.762 284.689 211.744 287.067Z" fill="#C4C4C4" stroke="#263238" stroke-linecap="round" stroke-linejoin="round"/>
<path d="M185.965 181.492C185.965 181.492 183.061 184.802 171.193 186.918C159.324 189.035 134.687 195.655 134.987 206.507C135.287 217.36 157.977 275.242 157.977 275.242C157.977 275.242 169.335 272.836 174.608 269.218C174.608 269.218 165.465 227.915 158.61 217.062C158.61 217.062 189.38 212.838 206.4 205.006C223.42 197.174 213.409 179.321 213.409 179.321L185.965 181.492Z" fill="#263238" stroke="#263238" stroke-linecap="round" stroke-linejoin="round"/>
<path d="M205.25 179.969C205.25 179.969 209.614 188.108 206.353 192.63C203.092 197.152 184.571 205.59 186.664 215.846C188.757 226.102 195.669 240.563 200.171 274.93C200.171 274.93 210.661 273.122 217.686 269.803C217.686 269.803 218.854 234.839 210.701 219.762C210.701 219.762 234.049 214.942 236.417 206.196C238.786 197.451 234.357 184.084 234.268 179.309L205.25 179.969Z" fill="#263238" stroke="#263238" stroke-linecap="round" stroke-linejoin="round"/>
<path d="M191.24 192.923C190.7 192.877 190.157 192.877 189.617 192.923" stroke="#7F7F7F" stroke-width="0.75" stroke-linecap="round" stroke-linejoin="round"/>
<path d="M192.273 187.522C192.273 187.522 197.068 189.096 198.95 196.069C198.974 196.184 198.966 196.304 198.926 196.413C198.885 196.521 198.815 196.613 198.726 196.676C198.636 196.738 198.531 196.767 198.426 196.758C198.32 196.75 198.22 196.705 198.139 196.63C196.853 195.156 195.271 194.046 193.523 193.392" stroke="#7F7F7F" stroke-width="0.75" stroke-linecap="round" stroke-linejoin="round"/>
<path d="M156.349 216.68C156.349 213.741 144.991 212.158 148.033 209.445C151.075 206.732 157.971 215.55 157.971 215.55" stroke="#7F7F7F" stroke-width="0.75" stroke-linecap="round" stroke-linejoin="round"/>
<path d="M212.166 228.44C212.166 225.076 201.312 223.24 201.856 219.622C202.399 216.004 209.295 223.131 209.295 223.131" stroke="#7F7F7F" stroke-width="0.75" stroke-linecap="round" stroke-linejoin="round"/>
<path d="M156.758 275.455L157.951 278.53C158.017 278.7 158.134 278.839 158.282 278.923C158.43 279.007 158.6 279.031 158.762 278.991C161.382 278.331 172.318 275.455 176.155 272.38C176.266 272.289 176.351 272.162 176.397 272.017C176.443 271.872 176.449 271.715 176.414 271.566L175.668 268.138C175.643 268.02 175.594 267.909 175.524 267.816C175.454 267.722 175.366 267.648 175.266 267.599C175.166 267.55 175.057 267.527 174.948 267.533C174.839 267.539 174.733 267.572 174.638 267.632C172.91 268.681 168.099 271.186 157.237 274.369C157.138 274.399 157.045 274.452 156.966 274.525C156.887 274.598 156.823 274.689 156.777 274.791C156.732 274.894 156.707 275.006 156.703 275.121C156.7 275.235 156.719 275.349 156.758 275.455Z" fill="#999999" stroke="#263238" stroke-linecap="round" stroke-linejoin="round"/>
<path d="M198.881 272.922C198.867 272.816 198.878 272.708 198.913 272.608C198.947 272.508 199.005 272.42 199.079 272.351C199.153 272.283 199.242 272.237 199.336 272.219C199.431 272.2 199.528 272.208 199.619 272.244C200.937 272.702 202.346 272.724 203.675 272.307C206.685 271.547 215.292 268.508 217.856 267.595C217.94 267.565 218.029 267.558 218.116 267.574C218.203 267.589 218.286 267.628 218.357 267.686C218.428 267.744 218.486 267.821 218.526 267.908C218.565 267.996 218.586 268.094 218.586 268.192V272.189C218.587 272.31 218.556 272.429 218.496 272.53C218.437 272.631 218.353 272.711 218.253 272.759C216.241 273.763 205.46 278.909 199.822 277.507C199.712 277.479 199.612 277.413 199.537 277.319C199.461 277.225 199.414 277.108 199.4 276.983L198.881 272.922Z" fill="#999999" stroke="#263238" stroke-linecap="round" stroke-linejoin="round"/>
<path d="M207.576 189.172C207.497 190.422 207.088 191.618 206.399 192.609C204.014 195.91 193.525 201.291 188.828 207.983" stroke="#7F7F7F" stroke-linecap="round" stroke-linejoin="round"/>
<path d="M207.062 184.658C207.244 185.325 207.382 186.005 207.475 186.693" stroke="#7F7F7F" stroke-linecap="round" stroke-linejoin="round"/>
<path d="M144.945 291.751C145.607 293.096 146.086 294.544 146.365 296.047H175.659C175.767 294.624 176.345 293.296 177.281 292.321" stroke="#263238" stroke-linecap="round" stroke-linejoin="round"/>
<path d="M195.859 291.751C195.859 291.751 199.916 292.095 201.433 296.047H216.749C217.211 294.867 217.485 293.606 217.56 292.321" stroke="#263238" stroke-linecap="round" stroke-linejoin="round"/>
<path d="M171.827 130.391C172.2 131.982 172.589 133.565 172.979 135.112C177.035 151.391 182.308 182.366 182.308 182.366C208.268 188.471 235.647 182.366 235.647 182.366C235.793 175.62 235.055 166.711 234.235 157.351C238.486 156.039 241.536 151.662 241.731 144.382C241.934 135.564 240.498 119.692 239.703 112.276C238.997 105.755 239.5 101.875 230.439 96.9009C225.896 93.9797 218.351 92.5959 209.079 91.2122C190.826 88.499 177.652 92.614 172.979 94.8298C169.272 93.7445 168.241 98.5921 168.241 98.5921C166.189 96.8647 163.804 104.19 163.804 104.19C157.801 112.728 153.079 127.108 151.505 132.227C151.157 133.346 150.519 134.325 149.672 135.039C145.413 138.657 147.782 143.134 147.782 143.134L156.503 146.109C156.503 146.109 160.729 147.339 163.958 141.144C166.651 135.971 171.064 127.189 171.827 130.391Z" fill="#C4C4C4"/>
<mask id="mask0_3412_10079" style="mask-type:luminance" maskUnits="userSpaceOnUse" x="147" y="90" width="95" height="96">
<path d="M171.827 130.391C172.2 131.982 172.589 133.565 172.979 135.112C177.035 151.391 182.308 182.366 182.308 182.366C208.268 188.471 235.647 182.366 235.647 182.366C235.793 175.62 235.055 166.711 234.235 157.351C238.486 156.039 241.536 151.662 241.731 144.382C241.934 135.564 240.498 119.692 239.703 112.276C238.997 105.755 239.5 101.875 230.439 96.9009C225.896 93.9797 218.351 92.5959 209.079 91.2122C190.826 88.499 177.652 92.614 172.979 94.8298C169.272 93.7445 168.241 98.5921 168.241 98.5921C166.189 96.8647 163.804 104.19 163.804 104.19C157.801 112.728 153.079 127.108 151.505 132.227C151.157 133.346 150.519 134.325 149.672 135.039C145.413 138.657 147.782 143.134 147.782 143.134L156.503 146.109C156.503 146.109 160.729 147.339 163.958 141.144C166.651 135.971 171.064 127.189 171.827 130.391Z" fill="white"/>
</mask>
<g mask="url(#mask0_3412_10079)">
<path opacity="0.3" d="M158.109 142.034C158.109 142.034 157.906 137.512 154.661 136.725C151.416 135.939 155.57 134.582 158.109 135.26C160.648 135.939 160.056 133.451 162.23 129.382C164.404 125.312 165.475 122.092 167.308 124.435C169.142 126.777 171.048 127.148 171.827 130.349C172.606 133.551 168.752 141.202 168.752 141.202L162.701 146.439L159.626 148.356H155.043L153.469 143.933L158.109 142.034Z" fill="black"/>
</g>
<path d="M171.827 130.391C172.2 131.982 172.589 133.565 172.979 135.112C177.035 151.391 182.308 182.366 182.308 182.366C208.268 188.471 235.647 182.366 235.647 182.366C235.793 175.62 235.055 166.711 234.235 157.351C238.486 156.039 241.536 151.662 241.731 144.382C241.934 135.564 240.498 119.692 239.703 112.276C238.997 105.755 239.5 101.875 230.439 96.9009C225.896 93.9797 218.351 92.5959 209.079 91.2122C190.826 88.499 177.652 92.614 172.979 94.8298C169.272 93.7445 168.241 98.5921 168.241 98.5921C166.189 96.8647 163.804 104.19 163.804 104.19C157.801 112.728 153.079 127.108 151.505 132.227C151.157 133.346 150.519 134.325 149.672 135.039C145.413 138.657 147.782 143.134 147.782 143.134L156.503 146.109C156.503 146.109 160.729 147.339 163.958 141.144C166.651 135.971 171.064 127.189 171.827 130.391Z" stroke="#263238" stroke-linecap="round" stroke-linejoin="round"/>
<path opacity="0.3" d="M235.634 182.321C235.655 176.51 235.398 170.702 234.864 164.921C235.748 178.695 210.024 183.009 209.212 175.538C208.401 168.068 234.223 157.306 220.172 161.068C207.914 164.351 184.153 161.213 178.312 160.363C180.56 172.12 182.296 182.321 182.296 182.321C208.255 188.426 235.634 182.321 235.634 182.321Z" fill="black"/>
<path opacity="0.3" d="M223.861 113.134C223.861 113.134 220.186 125.117 220.194 131.448C220.202 137.779 209.899 142.029 209.875 142.029C215.4 140.781 220.77 139.126 223.333 138.294C223.775 138.155 224.159 137.849 224.42 137.428C224.68 137.007 224.801 136.497 224.761 135.988C224.107 128.392 223.806 120.764 223.861 113.134Z" fill="black"/>
<path d="M168.434 110.127C168.469 115.774 169.383 121.37 171.135 126.668C171.186 126.824 171.191 126.993 171.15 127.152C171.109 127.311 171.023 127.451 170.905 127.551C170.788 127.652 170.644 127.709 170.496 127.712C170.348 127.716 170.202 127.667 170.081 127.573C168.685 126.46 166.714 124.199 164.938 119.641" stroke="#263238" stroke-width="0.75" stroke-linecap="round" stroke-linejoin="round"/>
<path d="M237.267 147.054C235.125 139.141 231.418 137.16 228.546 136.961C228.458 136.947 228.375 136.904 228.308 136.837C228.241 136.771 228.193 136.684 228.171 136.587C228.148 136.49 228.152 136.389 228.181 136.294C228.21 136.2 228.264 136.117 228.335 136.057C230.007 135.053 233.26 134.248 237.259 139.186" stroke="#263238" stroke-width="0.75" stroke-linecap="round" stroke-linejoin="round"/>
<path d="M196.122 124.401C196.087 124.734 195.944 125.041 195.72 125.264C195.495 125.487 195.205 125.61 194.905 125.61C194.604 125.61 194.314 125.487 194.09 125.264C193.865 125.041 193.722 124.734 193.688 124.401C193.668 124.21 193.685 124.016 193.737 123.833C193.789 123.649 193.875 123.48 193.99 123.336C194.105 123.192 194.246 123.077 194.404 122.998C194.561 122.92 194.732 122.879 194.905 122.879C195.077 122.879 195.248 122.92 195.406 122.998C195.563 123.077 195.704 123.192 195.819 123.336C195.934 123.48 196.02 123.649 196.073 123.833C196.125 124.016 196.141 124.21 196.122 124.401Z" fill="#999999" stroke="#263238" stroke-width="0.75" stroke-linecap="round" stroke-linejoin="round"/>
<path d="M197.777 139.794C197.777 140.062 197.706 140.325 197.572 140.548C197.439 140.771 197.249 140.945 197.026 141.047C196.804 141.15 196.559 141.177 196.323 141.125C196.087 141.072 195.87 140.943 195.7 140.753C195.53 140.564 195.414 140.322 195.367 140.059C195.32 139.796 195.344 139.523 195.436 139.275C195.528 139.027 195.684 138.815 195.885 138.666C196.085 138.517 196.32 138.438 196.561 138.438C196.883 138.438 197.193 138.58 197.421 138.835C197.649 139.089 197.777 139.434 197.777 139.794Z" fill="#999999" stroke="#263238" stroke-width="0.75" stroke-linecap="round" stroke-linejoin="round"/>
<path d="M201.841 176.895C201.842 177.165 201.772 177.43 201.638 177.656C201.504 177.882 201.314 178.058 201.09 178.163C200.866 178.268 200.62 178.296 200.382 178.244C200.143 178.193 199.924 178.063 199.752 177.873C199.58 177.682 199.463 177.439 199.415 177.173C199.367 176.908 199.391 176.633 199.483 176.383C199.576 176.133 199.733 175.919 199.934 175.769C200.136 175.618 200.373 175.538 200.616 175.538C200.939 175.538 201.249 175.681 201.479 175.935C201.708 176.189 201.838 176.534 201.841 176.895Z" fill="#999999" stroke="#263238" stroke-linecap="round" stroke-linejoin="round"/>
<path d="M178.551 149.877C178.551 149.877 174.568 154.109 176.466 154.181C178.364 154.254 180.757 151.342 182.956 151.007C185.154 150.672 181.601 149.198 181.601 149.198L178.551 149.877Z" fill="white" stroke="#263238" stroke-linecap="round" stroke-linejoin="round"/>
<path d="M201.804 145.11C201.626 144.931 201.416 144.796 201.189 144.712C200.961 144.628 200.721 144.597 200.482 144.621C198.535 144.802 192.938 145.272 190.828 145.128C187.08 144.866 176.039 142.261 176.039 142.261C175.785 142.213 175.525 142.228 175.277 142.306L168.438 144.549C168.189 144.629 167.961 144.775 167.773 144.974L163.636 149.207C163.5 149.348 163.385 149.513 163.295 149.695L162.435 151.45C162.257 151.81 162.191 152.225 162.245 152.632C162.299 153.039 162.471 153.414 162.735 153.701L169.566 153.9C169.988 153.923 170.401 153.76 170.718 153.448L172.746 151.513C172.881 151.382 172.999 151.229 173.095 151.061C173.59 150.156 175.528 147.172 178.53 147.443C178.53 147.443 172.04 151.287 173.265 152.869C174.49 154.452 179.455 149.93 181.077 150.382C182.7 150.835 182.805 155.275 191.623 153.665C192.018 153.591 192.422 153.613 192.808 153.729L200.839 156.234C201.077 156.307 201.326 156.327 201.571 156.292C201.816 156.257 202.053 156.168 202.266 156.03C202.48 155.892 202.667 155.707 202.816 155.488C202.965 155.268 203.074 155.017 203.135 154.751C203.759 152.182 204.311 147.66 201.804 145.11Z" fill="#FF8B7B" stroke="#263238" stroke-linecap="round" stroke-linejoin="round"/>
<path d="M177.003 143.887L175.284 144.212C174.445 144.371 173.662 144.784 173.02 145.406L171.195 147.152C170.884 147.463 170.612 147.819 170.384 148.21L169.208 150.208C169.08 150.429 168.936 150.638 168.778 150.832C168.08 151.737 166.157 154.242 168.234 153.898" fill="#FF8B7B"/>
<path d="M177.003 143.887L175.284 144.212C174.445 144.371 173.662 144.784 173.02 145.406L171.195 147.152C170.884 147.463 170.612 147.819 170.384 148.21L169.208 150.208C169.08 150.429 168.936 150.638 168.778 150.832C168.08 151.737 166.157 154.242 168.234 153.898" stroke="#263238" stroke-linecap="round" stroke-linejoin="round"/>
<path d="M172.154 144.56L170.377 145.102C169.822 145.254 169.313 145.565 168.901 146.007L167.514 147.49C167.377 147.625 167.255 147.777 167.149 147.942L164.869 151.315C164.869 151.315 163.652 153.703 164.869 153.748" fill="#FF8B7B"/>
<path d="M172.154 144.56L170.377 145.102C169.822 145.254 169.313 145.565 168.901 146.007L167.514 147.49C167.377 147.625 167.255 147.777 167.149 147.942L164.869 151.315C164.869 151.315 163.652 153.703 164.869 153.748" stroke="#263238" stroke-linecap="round" stroke-linejoin="round"/>
<path d="M223.921 111.221C223.749 119.488 224.02 127.76 224.733 135.992C224.773 136.502 224.652 137.011 224.391 137.432C224.131 137.853 223.746 138.159 223.305 138.298C216.855 140.425 210.286 142.071 203.641 143.227" stroke="#263238" stroke-linecap="round" stroke-linejoin="round"/>
<path d="M224.314 105.613C224.209 106.518 224.119 107.503 224.055 108.507" stroke="#263238" stroke-width="0.75" stroke-linecap="round" stroke-linejoin="round"/>
<path d="M227.023 97.1533C226.098 98.0577 225.401 99.6947 224.922 101.865" stroke="#263238" stroke-width="0.75" stroke-linecap="round" stroke-linejoin="round"/>
<path d="M186.408 91.7689C186.408 91.7689 186.919 89.9601 189.653 88.9381C192.387 87.9162 201.87 86.2973 206.746 88.9381C211.621 91.579 202.284 105.95 202.284 105.95L197.96 112.624L194.107 115.844L192.387 110.119L190.156 107.533C190.156 107.533 185.337 103.128 185.743 98.778C186.149 94.4278 186.408 91.7689 186.408 91.7689Z" fill="#FF8B7B"/>
<path d="M210.353 91.3962C209.59 88.4208 206.11 87.5887 206.11 87.5887C189.48 84.4233 185.967 91.2063 185.967 91.2063C183.928 97.3329 183.928 104.072 185.967 110.199C185.967 110.199 190.697 108.01 191.508 110.199C192.319 112.387 193.804 117.054 193.804 117.054C196.061 115.636 198.031 113.711 199.588 111.401C202.159 107.63 208.195 111.401 208.195 111.401C212.105 103.868 210.353 91.3962 210.353 91.3962ZM206.297 91.1792C199.855 113.717 194.177 114.693 194.177 114.693C192.287 106.409 190.664 108.218 188.092 103.036C186.032 98.8756 186.73 93.612 187.087 91.6856C187.128 91.4557 187.216 91.2391 187.342 91.0514C187.468 90.8637 187.63 90.7096 187.817 90.6004C194.209 86.9828 202.029 88.3122 205.25 89.099C205.449 89.145 205.638 89.2374 205.803 89.3702C205.968 89.503 206.106 89.6732 206.208 89.8696C206.309 90.066 206.373 90.2842 206.394 90.5099C206.415 90.7356 206.393 90.9637 206.329 91.1792H206.297Z" fill="#C4C4C4"/>
<mask id="mask1_3412_10079" style="mask-type:luminance" maskUnits="userSpaceOnUse" x="184" y="86" width="27" height="32">
<path d="M210.353 91.3923C209.59 88.4169 206.11 87.5848 206.11 87.5848C189.48 84.4194 185.967 91.2024 185.967 91.2024C183.928 97.329 183.928 104.068 185.967 110.195C185.967 110.195 190.697 108.006 191.508 110.195C192.319 112.383 193.804 117.05 193.804 117.05C196.061 115.632 198.031 113.707 199.588 111.398C202.159 107.626 208.195 111.398 208.195 111.398C212.105 103.864 210.353 91.3923 210.353 91.3923ZM206.297 91.1753C199.855 113.713 194.177 114.69 194.177 114.69C192.287 106.405 190.664 108.214 188.092 103.032C186.032 98.8717 186.73 93.6081 187.087 91.6817C187.128 91.4518 187.216 91.2352 187.342 91.0475C187.468 90.8598 187.63 90.7057 187.817 90.5964C194.209 86.9789 202.029 88.3083 205.25 89.0951C205.449 89.1411 205.638 89.2335 205.803 89.3663C205.968 89.4991 206.106 89.6693 206.208 89.8657C206.309 90.0621 206.373 90.2803 206.394 90.506C206.415 90.7317 206.393 90.9598 206.329 91.1753H206.297Z" fill="white"/>
</mask>
<g mask="url(#mask1_3412_10079)">
<path opacity="0.4" d="M210.353 91.3923C209.59 88.4169 206.11 87.5848 206.11 87.5848C189.48 84.4194 185.967 91.2024 185.967 91.2024C183.928 97.329 183.928 104.068 185.967 110.195C185.967 110.195 190.697 108.006 191.508 110.195C192.319 112.383 193.804 117.05 193.804 117.05C196.061 115.632 198.031 113.707 199.588 111.398C202.159 107.626 208.195 111.398 208.195 111.398C212.105 103.864 210.353 91.3923 210.353 91.3923ZM206.297 91.1753C199.855 113.713 194.177 114.69 194.177 114.69C192.287 106.405 190.664 108.214 188.092 103.032C186.032 98.8717 186.73 93.6081 187.087 91.6817C187.128 91.4518 187.216 91.2352 187.342 91.0475C187.468 90.8598 187.63 90.7057 187.817 90.5964C194.209 86.9789 202.029 88.3083 205.25 89.0951C205.449 89.1411 205.638 89.2335 205.803 89.3663C205.968 89.4991 206.106 89.6693 206.208 89.8657C206.309 90.0621 206.373 90.2803 206.394 90.506C206.415 90.7317 206.393 90.9598 206.329 91.1753H206.297Z" fill="white"/>
</g>
<path d="M210.353 91.3962C209.59 88.4208 206.11 87.5887 206.11 87.5887C189.48 84.4233 185.967 91.2063 185.967 91.2063C183.928 97.3329 183.928 104.072 185.967 110.199C185.967 110.199 190.697 108.01 191.508 110.199C192.319 112.387 193.804 117.054 193.804 117.054C196.061 115.636 198.031 113.711 199.588 111.401C202.159 107.63 208.195 111.401 208.195 111.401C212.105 103.868 210.353 91.3962 210.353 91.3962ZM206.297 91.1792C199.855 113.717 194.177 114.693 194.177 114.693C192.287 106.409 190.664 108.218 188.092 103.036C186.032 98.8756 186.73 93.612 187.087 91.6856C187.128 91.4557 187.216 91.2391 187.342 91.0514C187.468 90.8637 187.63 90.7096 187.817 90.6004C194.209 86.9828 202.029 88.3122 205.25 89.099C205.449 89.145 205.638 89.2374 205.803 89.3702C205.968 89.503 206.106 89.6732 206.208 89.8696C206.309 90.066 206.373 90.2842 206.394 90.5099C206.415 90.7356 206.393 90.9637 206.329 91.1792H206.297Z" stroke="#263238" stroke-linecap="round" stroke-linejoin="round"/>
<path d="M183.204 56.958C183.204 56.958 168.869 60.1596 176.763 70.524C185.516 82.0731 183.204 56.958 183.204 56.958Z" fill="#263238" stroke="#263238" stroke-linecap="round" stroke-linejoin="round"/>
<path d="M177.55 82.303C177.55 82.303 174.143 66.9282 180.633 59.5393C187.123 52.1504 194.156 50.6491 199.429 54.2667C204.702 57.8842 206.892 66.9282 206.081 71.5949C205.27 76.2616 205.659 92.9929 198.431 99.9297C191.203 106.866 186.758 105.157 181.979 95.7061C178.808 89.511 177.307 87.7293 177.55 82.303Z" fill="#FF8B7B" stroke="#263238" stroke-linecap="round" stroke-linejoin="round"/>
<path d="M202.663 79.2982C202.663 79.2982 197.212 73.2659 195.541 66.1844C193.869 59.103 192.928 57.8911 186.706 61.355C180.484 64.8188 170.782 60.1612 173.321 51.4066C175.99 42.2179 184.143 54.1198 191.979 51.1081C199.816 48.0965 205.389 53.5229 205.397 61.5087C205.397 61.5087 210.135 66.6366 205.397 79.8951L202.663 79.2982Z" fill="#263238" stroke="#263238" stroke-linecap="round" stroke-linejoin="round"/>
<path d="M200.953 78.2898C200.953 78.2898 202.332 69.8608 206.161 70.6386C209.99 71.4164 207.256 83.8609 202.746 82.5043" fill="#FF8B7B"/>
<path d="M200.953 78.2898C200.953 78.2898 202.332 69.8608 206.161 70.6386C209.99 71.4164 207.256 83.8609 202.746 82.5043" stroke="#263238" stroke-linecap="round" stroke-linejoin="round"/>
<path d="M182.723 81.1436C182.723 81.1436 181.214 88.9666 181.709 90.3051C182.204 91.6436 186.836 90.6216 186.836 90.6216" fill="#FF8B7B"/>
<path d="M182.723 81.1436C182.723 81.1436 181.214 88.9666 181.709 90.3051C182.204 91.6436 186.836 90.6216 186.836 90.6216" stroke="#263238" stroke-linecap="round" stroke-linejoin="round"/>
<path d="M187.484 94.0308C187.484 94.0308 191.119 95.6316 194.323 90.3047L187.484 94.0308Z" fill="#FF8B7B"/>
<path d="M187.484 94.0308C187.484 94.0308 191.119 95.6316 194.323 90.3047" stroke="#263238" stroke-linecap="round" stroke-linejoin="round"/>
<path d="M180.232 81.7934C180.361 82.5169 180.191 83.1771 179.85 83.2585C179.51 83.3399 179.112 82.8154 178.974 82.0828C178.836 81.3503 178.974 80.6991 179.355 80.6177C179.737 80.5363 180.11 81.0609 180.232 81.7934Z" fill="#263238"/>
<path d="M189.13 80.9995C189.268 81.723 189.13 82.3832 188.748 82.4646C188.367 82.546 188.018 82.0124 187.88 81.2889C187.742 80.5654 187.88 79.9052 188.262 79.8238C188.643 79.7424 189.04 80.2669 189.13 80.9995Z" fill="#263238"/>
<path d="M182.084 81.4474C182.271 83.5004 180.462 85.3815 177.963 85.6528C175.464 85.9241 173.355 84.4952 173.169 82.4422C172.982 80.3892 174.921 79.4939 177.387 79.2135C179.853 78.9331 181.906 79.4034 182.084 81.4474Z" stroke="#263238" stroke-linecap="round" stroke-linejoin="round"/>
<path d="M193.584 80.1792C193.771 82.2232 191.921 84.1134 189.463 84.3847C187.005 84.656 184.855 83.218 184.669 81.1741C184.482 79.1301 186.421 78.2167 188.887 77.9454C191.353 77.674 193.406 78.1262 193.584 80.1792Z" stroke="#263238" stroke-linecap="round" stroke-linejoin="round"/>
<path d="M182.094 81.4571L184.657 81.1777" stroke="#263238" stroke-linecap="round" stroke-linejoin="round"/>
<path d="M193.281 79.1463L202.708 72.9512" stroke="#263238" stroke-linecap="round" stroke-linejoin="round"/>
<path d="M204.32 88.7939L204.766 89.9968" stroke="#263238" stroke-linecap="round" stroke-linejoin="round"/>
<path d="M176.781 78.1535C176.781 78.1535 178.217 76.1186 179.978 77.0954L176.781 78.1535Z" fill="white"/>
<path d="M176.781 78.1535C176.781 78.1535 178.217 76.1186 179.978 77.0954" stroke="#263238" stroke-linecap="round" stroke-linejoin="round"/>
<path d="M191.488 77.2304C191.488 77.2304 188.965 74.5172 186.531 76.4346L191.488 77.2304Z" fill="#FF8B7B"/>
<path d="M191.488 77.2304C191.488 77.2304 188.965 74.5172 186.531 76.4346" stroke="#263238" stroke-linecap="round" stroke-linejoin="round"/>
<path d="M179.969 52.4316C183.806 53.7882 190.263 55.4523 195.536 53.6707C203.649 50.9575 200.866 61.0867 202.691 63.8813" stroke="#7F7F7F" stroke-linecap="round" stroke-linejoin="round"/>
<path d="M176.656 51.0752C176.656 51.0752 177.297 51.3917 178.392 51.8258" stroke="#7F7F7F" stroke-linecap="round" stroke-linejoin="round"/>
<path d="M186.344 57.4735C186.774 57.3288 187.22 57.157 187.69 56.958" stroke="#7F7F7F" stroke-linecap="round" stroke-linejoin="round"/>
<path d="M177.547 56.2734C177.547 56.2734 179.267 59.2308 184.799 57.9194" stroke="#7F7F7F" stroke-linecap="round" stroke-linejoin="round"/>
<path d="M198.156 62.0693C198.584 65.5603 199.764 68.8838 201.596 71.7554" stroke="#7F7F7F" stroke-linecap="round" stroke-linejoin="round"/>
<path d="M197.956 58.8662C197.945 59.4064 197.962 59.9469 198.005 60.4851" stroke="#7F7F7F" stroke-linecap="round" stroke-linejoin="round"/>
<path opacity="0.3" d="M205.142 155.892C204.994 156.03 204.888 156.216 204.837 156.423C204.787 156.631 204.795 156.851 204.861 157.053C204.926 157.256 205.046 157.431 205.204 157.555C205.361 157.679 205.55 157.745 205.743 157.746C211.226 157.746 226.023 157.819 231.702 157.448C238.8 156.996 233.381 148.404 227.646 151.678C222.446 154.707 211.381 149.661 205.142 155.892Z" fill="black"/>
<path d="M143.359 147.408C143.359 147.408 146.677 137.559 155.001 139.124C163.324 140.688 156.964 148.457 152.956 149.144C152.956 149.144 152.348 146.44 143.359 147.408Z" fill="white" stroke="#263238" stroke-linecap="round" stroke-linejoin="round"/>
<path d="M136.304 152.999C135.209 154.22 132.572 154.329 134.349 151.679C135.802 149.548 137.773 147.925 140.028 147.003C143.97 145.041 145.511 145.439 149.081 144.561C152.65 143.684 153.324 145.312 154.557 146.063C157.502 147.872 158.207 148.179 158.954 149.988C159.7 151.797 160.511 154.148 158.207 154.148C156.114 154.148 155.976 150.286 153.948 150.44C151.92 150.594 150.906 154.148 149.487 154.148H148.951C147.734 154.148 147.669 153.018 148.408 151.245C149.146 149.472 149.965 147.872 149.965 147.872C148.761 148.579 147.798 149.706 147.223 151.082C146.25 153.388 146.071 154.356 144.278 154.356C142.486 154.356 142.656 152.873 144.392 149.599C143.361 150.287 142.508 151.263 141.918 152.43C141.042 154.238 140.579 154.148 139.435 154.148C137.926 154.148 138.032 151.381 140.701 149.572C140.717 149.572 140.125 148.758 136.304 152.999Z" fill="white" stroke="#263238" stroke-linecap="round" stroke-linejoin="round"/>
<path d="M146.759 146.393C146.759 146.393 145.712 146.338 145.047 148.31L146.759 146.393Z" fill="white"/>
<path d="M146.759 146.393C146.759 146.393 145.712 146.338 145.047 148.31" stroke="#263238" stroke-width="0.75" stroke-linecap="round" stroke-linejoin="round"/>
<path d="M280.055 61.2393C285.293 65.8285 290.28 70.7633 294.99 76.0171" stroke="#263238" stroke-width="0.75" stroke-linecap="round" stroke-linejoin="round"/>
<path d="M274.406 56.4951C275.396 57.291 276.386 58.0959 277.359 58.9189" stroke="#263238" stroke-width="0.75" stroke-linecap="round" stroke-linejoin="round"/>
<path d="M268.734 52.1572C269.751 52.8988 270.762 53.6585 271.768 54.4363" stroke="#263238" stroke-width="0.75" stroke-linecap="round" stroke-linejoin="round"/>
<path d="M227.242 30.2812C240.676 34.9397 253.517 41.502 265.451 49.8072" stroke="#263238" stroke-width="0.75" stroke-linecap="round" stroke-linejoin="round"/>
<path d="M218.375 27.4912C219.997 27.9555 221.633 28.4438 223.283 28.9563" stroke="#263238" stroke-width="0.75" stroke-linecap="round" stroke-linejoin="round"/>
<path d="M209.281 25.2285C211.066 25.6084 212.845 26.0244 214.619 26.4766" stroke="#263238" stroke-width="0.75" stroke-linecap="round" stroke-linejoin="round"/>
<path d="M201.141 23.7246C202.682 23.9718 204.218 24.2371 205.748 24.5205" stroke="#263238" stroke-width="0.75" stroke-linecap="round" stroke-linejoin="round"/>
<path d="M152.219 24.082C167.254 21.4713 182.539 21.167 197.648 23.1776" stroke="#263238" stroke-width="0.75" stroke-linecap="round" stroke-linejoin="round"/>
<path d="M145.516 25.4019C146.895 25.1034 148.282 24.814 149.661 24.5518" stroke="#263238" stroke-width="0.75" stroke-linecap="round" stroke-linejoin="round"/>
<path d="M139.039 26.9863C140.426 26.6155 141.805 26.2719 143.201 25.9463" stroke="#263238" stroke-width="0.75" stroke-linecap="round" stroke-linejoin="round"/>
<path d="M131.039 29.3546C132.451 28.8934 133.862 28.4502 135.282 28.0342" stroke="#263238" stroke-width="0.75" stroke-linecap="round" stroke-linejoin="round"/>
<path d="M82.7734 55.2265C96.2056 44.729 110.971 36.5318 126.58 30.9072" stroke="#263238" stroke-width="0.75" stroke-linecap="round" stroke-linejoin="round"/>
<path d="M76.2891 60.5927C77.5546 59.5014 78.8336 58.4282 80.1262 57.373" stroke="#263238" stroke-width="0.75" stroke-linecap="round" stroke-linejoin="round"/>
<path d="M69.7109 66.5625C71.0981 65.224 72.5097 63.9217 73.9294 62.6465" stroke="#263238" stroke-width="0.75" stroke-linecap="round" stroke-linejoin="round"/>
<path d="M60.5625 76.0179C62.4662 73.8955 64.4023 71.8365 66.3709 69.8408" stroke="#263238" stroke-width="0.75" stroke-linecap="round" stroke-linejoin="round"/>
<path d="M123.479 48.2141C126.064 36.1257 119.369 23.9898 108.526 21.1077C97.6832 18.2256 86.7974 25.6888 84.2122 37.7771C81.627 49.8655 88.3213 62.0014 99.1645 64.8835C110.008 67.7656 120.893 60.3024 123.479 48.2141Z" fill="#C4C4C4"/>
<mask id="mask2_3412_10079" style="mask-type:luminance" maskUnits="userSpaceOnUse" x="83" y="20" width="42" height="46">
<path d="M123.479 48.2111C126.064 36.1228 119.369 23.9869 108.526 21.1048C97.6832 18.2227 86.7974 25.6858 84.2122 37.7742C81.627 49.8626 88.3213 61.9985 99.1645 64.8806C110.008 67.7627 120.893 60.2995 123.479 48.2111Z" fill="white"/>
</mask>
<g mask="url(#mask2_3412_10079)">
<path opacity="0.3" d="M123.479 48.2111C126.064 36.1228 119.369 23.9869 108.526 21.1048C97.6832 18.2227 86.7974 25.6858 84.2122 37.7742C81.627 49.8626 88.3213 61.9985 99.1645 64.8806C110.008 67.7627 120.893 60.2995 123.479 48.2111Z" fill="white"/>
</g>
<path d="M123.479 48.2141C126.064 36.1257 119.369 23.9898 108.526 21.1077C97.6832 18.2256 86.7974 25.6888 84.2122 37.7771C81.627 49.8655 88.3213 62.0014 99.1645 64.8835C110.008 67.7656 120.893 60.3024 123.479 48.2141Z" stroke="#263238" stroke-width="0.75" stroke-linecap="round" stroke-linejoin="round"/>
<path d="M94.1264 51.8308V46.1964C94.1264 44.7855 93.7694 44.3876 92.3984 44.3876V41.6292C93.7694 41.6292 94.1264 41.2041 94.1264 39.8204V34.186C94.0904 33.7293 94.1447 33.2695 94.2852 32.8387C94.4258 32.4079 94.6494 32.0167 94.9401 31.6926C95.2308 31.3685 95.5817 31.1193 95.9681 30.9626C96.3545 30.8058 96.767 30.7454 97.1766 30.7854H98.718V33.4986H98.2718C97.3145 33.4986 96.8197 33.987 96.8197 35.6782V40.2635C96.8747 40.8645 96.7359 41.4676 96.4281 41.9648C96.1204 42.462 95.6639 42.8208 95.1404 42.9767V43.04C95.6639 43.196 96.1204 43.5547 96.4281 44.0519C96.7359 44.5491 96.8747 45.1523 96.8197 45.7532V50.3476C96.8197 52.0297 97.3145 52.5181 98.2718 52.5181H98.718V55.2313H97.1766C96.767 55.2714 96.3545 55.2109 95.9681 55.0542C95.5817 54.8974 95.2308 54.6483 94.9401 54.3241C94.6494 54 94.4258 53.6088 94.2852 53.178C94.1447 52.7473 94.0904 52.2874 94.1264 51.8308Z" fill="white" stroke="#263238" stroke-width="0.75" stroke-linecap="round" stroke-linejoin="round"/>
<path d="M108.922 52.4722H109.36C110.325 52.4722 110.82 51.9838 110.82 50.3017V45.7073C110.766 45.1079 110.905 44.5066 111.211 44.01C111.517 43.5134 111.97 43.1535 112.491 42.9941V42.9308C111.969 42.7731 111.515 42.4136 111.209 41.9166C110.902 41.4195 110.765 40.8174 110.82 40.2176V35.6323C110.82 33.9411 110.325 33.4527 109.36 33.4527H108.922V30.7395H110.463C110.873 30.6995 111.285 30.7599 111.672 30.9167C112.058 31.0734 112.409 31.3226 112.7 31.6467C112.99 31.9708 113.214 32.3621 113.355 32.7928C113.495 33.2236 113.549 33.6834 113.513 34.1401V39.7745C113.513 41.1853 113.87 41.5833 115.241 41.5833V44.3417C113.87 44.3417 113.513 44.7668 113.513 46.1505V51.7849C113.549 52.2415 113.495 52.7014 113.355 53.1321C113.214 53.5629 112.99 53.9541 112.7 54.2782C112.409 54.6024 112.058 54.8516 111.672 55.0083C111.285 55.165 110.873 55.2255 110.463 55.1854H108.922V52.4722Z" fill="white" stroke="#263238" stroke-width="0.75" stroke-linecap="round" stroke-linejoin="round"/>
<path d="M64.7264 71.7031H53.0852C47.7267 71.7031 43.3828 76.5459 43.3828 82.5197V95.4978C43.3828 101.472 47.7267 106.314 53.0852 106.314H64.7264C70.0849 106.314 74.4288 101.472 74.4288 95.4978V82.5197C74.4288 76.5459 70.0849 71.7031 64.7264 71.7031Z" fill="#C4C4C4" stroke="#263238" stroke-width="0.75" stroke-linecap="round" stroke-linejoin="round"/>
<path d="M47.6562 89.8481V88.1749L53.8622 85.1904V86.9992L49.587 89.016L53.8622 91.0238V92.8326L47.6562 89.8481Z" fill="white" stroke="#263238" stroke-width="0.75" stroke-linecap="round" stroke-linejoin="round"/>
<path d="M60.7381 81.1064H62.6689L57.0714 96.9334H55.1406L60.7381 81.1064Z" fill="white" stroke="#263238" stroke-width="0.75" stroke-linecap="round" stroke-linejoin="round"/>
<path d="M63.9531 91.0214L68.2283 89.0136L63.9531 86.9787V85.1699L70.1591 88.1544V89.8276L63.9531 92.8121V91.0214Z" fill="white" stroke="#263238" stroke-width="0.75" stroke-linecap="round" stroke-linejoin="round"/>
<path d="M263.79 42.2586C265.955 31.933 260.202 21.6053 250.94 19.1911C241.679 16.7768 232.415 23.1903 230.249 33.5158C228.084 43.8414 233.836 54.169 243.098 56.5833C252.36 58.9975 261.624 52.5841 263.79 42.2586Z" fill="#C4C4C4"/>
<mask id="mask3_3412_10079" style="mask-type:luminance" maskUnits="userSpaceOnUse" x="229" y="18" width="36" height="40">
<path d="M263.79 42.2449C265.955 31.9193 260.202 21.5916 250.94 19.1774C241.679 16.7632 232.415 23.1766 230.249 33.5022C228.084 43.8277 233.836 54.1554 243.098 56.5696C252.36 58.9838 261.624 52.5705 263.79 42.2449Z" fill="white"/>
</mask>
<g mask="url(#mask3_3412_10079)">
<path opacity="0.2" d="M263.79 42.2449C265.955 31.9193 260.202 21.5916 250.94 19.1774C241.679 16.7632 232.415 23.1766 230.249 33.5022C228.084 43.8277 233.836 54.1554 243.098 56.5696C252.36 58.9838 261.624 52.5705 263.79 42.2449Z" fill="black"/>
</g>
<path d="M263.79 42.2586C265.955 31.933 260.202 21.6053 250.94 19.1911C241.679 16.7768 232.415 23.1903 230.249 33.5158C228.084 43.8414 233.836 54.169 243.098 56.5833C252.36 58.9975 261.624 52.5841 263.79 42.2586Z" stroke="#263238" stroke-width="0.75" stroke-linecap="round" stroke-linejoin="round"/>
<path d="M236.367 41.8702V33.9115C236.367 31.6234 237.43 30.2939 239.442 30.2939C241.454 30.2939 242.516 31.6415 242.516 33.9115V35.4761H240.545V33.7668C240.545 32.7901 240.123 32.3921 239.499 32.3921C238.874 32.3921 238.46 32.7901 238.46 33.7668V42.033C238.46 43.0098 238.874 43.3896 239.499 43.3896C240.123 43.3896 240.545 43.0098 240.545 42.033V39.772H242.516V41.8702C242.516 44.1493 241.454 45.4878 239.442 45.4878C237.43 45.4878 236.367 44.1493 236.367 41.8702Z" fill="white" stroke="#263238" stroke-width="0.75" stroke-linecap="round" stroke-linejoin="round"/>
<path d="M246.047 38.7139H243.5V37.0588H246.047V34.21H247.524V37.0588H250.071V38.7139H247.524V41.6079H246.047V38.7139Z" fill="white" stroke="#263238" stroke-width="0.75" stroke-linecap="round" stroke-linejoin="round"/>
<path d="M253.625 38.7139H251.078V37.0588H253.625V34.21H255.102V37.0588H257.649V38.7139H255.102V41.6079H253.625V38.7139Z" fill="white" stroke="#263238" stroke-width="0.75" stroke-linecap="round" stroke-linejoin="round"/>
<path d="M180.983 0.375H165.416C159.322 0.375 154.383 5.88181 154.383 12.6748V30.0302C154.383 36.8232 159.322 42.33 165.416 42.33H180.983C187.076 42.33 192.016 36.8232 192.016 30.0302V12.6748C192.016 5.88181 187.076 0.375 180.983 0.375Z" fill="#C4C4C4" stroke="#263238" stroke-width="0.75" stroke-linecap="round" stroke-linejoin="round"/>
<path d="M161.875 25.7683V16.9323C161.875 14.3909 163.059 12.8896 165.29 12.8896C167.521 12.8896 168.746 14.3909 168.746 16.9323V18.6687H166.556V16.7605C166.556 15.6842 166.085 15.2411 165.396 15.2411C164.706 15.2411 164.236 15.6842 164.236 16.7605V25.9491C164.236 27.0344 164.698 27.4595 165.396 27.4595C166.093 27.4595 166.556 27.0344 166.556 25.9491V23.4349H168.746V25.7683C168.746 28.3006 167.562 29.8019 165.331 29.8019C163.1 29.8019 161.875 28.3006 161.875 25.7683Z" fill="white" stroke="#263238" stroke-width="0.75" stroke-linecap="round" stroke-linejoin="round"/>
<path d="M169.75 25.6697V24.7653H171.94V25.8958C171.94 27.0715 172.403 27.4966 173.141 27.4966C173.879 27.4966 174.342 27.0715 174.342 25.8506C174.342 24.485 173.879 23.6167 172.362 22.1335C170.423 20.2343 169.791 18.8958 169.791 17.0146C169.791 14.4281 170.991 12.9268 173.246 12.9268C175.502 12.9268 176.621 14.4281 176.621 17.0599V17.7381H174.431V16.8971C174.431 15.7213 174.009 15.2782 173.271 15.2782C172.533 15.2782 172.119 15.7213 172.119 16.8518C172.119 17.9823 172.597 18.9139 174.114 20.3971C176.053 22.2963 176.67 23.6167 176.67 25.6607C176.67 28.3739 175.445 29.839 173.165 29.839C170.886 29.839 169.75 28.3015 169.75 25.6697Z" fill="white" stroke="#263238" stroke-width="0.75" stroke-linecap="round" stroke-linejoin="round"/>
<path d="M177.594 25.6697V24.7653H179.784V25.8958C179.784 27.0715 180.246 27.4966 180.985 27.4966C181.723 27.4966 182.185 27.0715 182.185 25.8506C182.185 24.485 181.723 23.6167 180.206 22.1335C178.267 20.2343 177.634 18.8958 177.634 17.0146C177.634 14.4281 178.835 12.9268 181.09 12.9268C183.345 12.9268 184.465 14.4281 184.465 17.0599V17.7381H182.266V16.8971C182.266 15.7213 181.845 15.2782 181.106 15.2782C180.368 15.2782 179.954 15.7213 179.954 16.8518C179.954 17.9823 180.433 18.9139 181.95 20.3971C183.889 22.2963 184.505 23.6167 184.505 25.6607C184.505 28.3739 183.281 29.839 181.001 29.839C178.721 29.839 177.594 28.3015 177.594 25.6697Z" fill="white" stroke="#263238" stroke-width="0.75" stroke-linecap="round" stroke-linejoin="round"/>
<path d="M309.295 82.9551C311.495 72.6644 305.797 62.3333 296.566 59.8798C287.335 57.4263 278.068 63.7796 275.868 74.0703C273.667 84.3609 279.366 94.6921 288.596 97.1455C297.827 99.599 307.094 93.2457 309.295 82.9551Z" fill="#C4C4C4"/>
<mask id="mask4_3412_10079" style="mask-type:luminance" maskUnits="userSpaceOnUse" x="275" y="59" width="35" height="39">
<path d="M309.279 82.9629C311.48 72.6722 305.781 62.3411 296.55 59.8876C287.32 57.4341 278.053 63.7874 275.852 74.0781C273.651 84.3687 279.35 94.6999 288.581 97.1534C297.811 99.6068 307.078 93.2535 309.279 82.9629Z" fill="white"/>
</mask>
<g mask="url(#mask4_3412_10079)">
<path opacity="0.3" d="M309.279 82.9629C311.48 72.6722 305.781 62.3411 296.55 59.8876C287.32 57.4341 278.053 63.7874 275.852 74.0781C273.651 84.3687 279.35 94.6999 288.581 97.1534C297.811 99.6068 307.078 93.2535 309.279 82.9629Z" fill="white"/>
</g>
<path d="M309.295 82.9551C311.495 72.6644 305.797 62.3333 296.566 59.8798C287.335 57.4263 278.068 63.7796 275.868 74.0703C273.667 84.3609 279.366 94.6921 288.596 97.1455C297.827 99.599 307.094 93.2457 309.295 82.9551Z" stroke="#263238" stroke-width="0.75" stroke-linecap="round" stroke-linejoin="round"/>
<path d="M285.797 82.3103V74.7043C285.797 72.5247 286.811 71.2314 288.734 71.2314C290.656 71.2314 291.67 72.5247 291.67 74.7043V76.2056H289.788V74.5687C289.788 73.6643 289.383 73.2482 288.79 73.2482C288.198 73.2482 287.793 73.6371 287.793 74.5687V82.4641C287.793 83.3685 288.19 83.7573 288.79 83.7573C289.391 83.7573 289.788 83.3956 289.788 82.4641V80.3025H291.67V82.3013C291.67 84.4809 290.656 85.7742 288.734 85.7742C286.811 85.7742 285.797 84.4899 285.797 82.3103Z" fill="white" stroke="#263238" stroke-width="0.75" stroke-linecap="round" stroke-linejoin="round"/>
<path d="M293.306 81.5555H292.414L292.56 79.9818H293.452L293.793 76.2829H292.876L293.022 74.7002H293.931L294.239 71.4443H295.813L295.505 74.7002H296.795L297.103 71.4443H298.685L298.377 74.7002H299.301L299.155 76.2829H298.231L297.882 79.9818H298.807L298.661 81.5555H297.744L297.363 85.5981H295.789L296.17 81.5555H294.88L294.499 85.5981H292.925L293.306 81.5555ZM296.316 79.9818L296.657 76.2829H295.375L295.026 79.9818H296.316Z" fill="white" stroke="#263238" stroke-width="0.75" stroke-linecap="round" stroke-linejoin="round"/>
<path d="M89.4303 299.066H86.4206L85.6094 165.885H89.4303V299.066Z" fill="#E5E5E5" stroke="#263238" stroke-linecap="round" stroke-linejoin="round"/>
<path d="M92.4313 299.066H89.4297V165.885H93.2425L92.4313 299.066Z" fill="#999999" stroke="#263238" stroke-linecap="round" stroke-linejoin="round"/>
<path d="M261.224 157.73H55V165.888H261.224V157.73Z" fill="#263238" stroke="#263238" stroke-linecap="round" stroke-linejoin="round"/>
<path d="M304.316 157.73H258.141V165.888H304.316V157.73Z" fill="#E5E5E5" stroke="#263238" stroke-linecap="round" stroke-linejoin="round"/>
<path d="M270.578 165.885H65.5625V179.324H270.578V165.885Z" fill="#C4C4C4" stroke="#263238" stroke-miterlimit="10"/>
<path d="M270.578 179.335H294.453V165.896H270.578V179.335Z" fill="#C4C4C4"/>
<mask id="mask5_3412_10079" style="mask-type:luminance" maskUnits="userSpaceOnUse" x="270" y="165" width="25" height="15">
<path d="M270.547 179.327H294.422V165.888H270.547V179.327Z" fill="white"/>
</mask>
<g mask="url(#mask5_3412_10079)">
<path opacity="0.3" d="M270.547 179.327H294.422V165.888H270.547V179.327Z" fill="black"/>
</g>
<path d="M270.578 179.335H294.453V165.896H270.578V179.335Z" stroke="#263238" stroke-miterlimit="10"/>
<path d="M270.578 299.066H267.577L266.766 165.885H270.578V299.066Z" fill="#E5E5E5" stroke="#263238" stroke-linecap="round" stroke-linejoin="round"/>
<path d="M273.596 299.066H270.586V165.885H274.407L273.596 299.066Z" fill="#999999" stroke="#263238" stroke-linecap="round" stroke-linejoin="round"/>
<path d="M65.5553 299.066H62.5456L61.7344 165.885H65.5553V299.066Z" fill="#E5E5E5" stroke="#263238" stroke-linecap="round" stroke-linejoin="round"/>
<path d="M68.5641 299.066H65.5625V165.885H69.3753L68.5641 299.066Z" fill="#999999" stroke="#263238" stroke-linecap="round" stroke-linejoin="round"/>
<path d="M294.462 299.066H291.452L290.641 165.885H294.462V299.066Z" fill="#E5E5E5" stroke="#263238" stroke-linecap="round" stroke-linejoin="round"/>
<path d="M297.455 299.066H294.453V165.885H298.266L297.455 299.066Z" fill="#999999" stroke="#263238" stroke-linecap="round" stroke-linejoin="round"/>
<path d="M188.27 156.829H164.103C163.866 156.827 163.639 156.72 163.472 156.532C163.305 156.344 163.211 156.09 163.211 155.825V153.601L189.17 154.505V155.825C189.17 156.092 189.076 156.347 188.907 156.535C188.738 156.724 188.509 156.829 188.27 156.829Z" fill="#E5E5E5" stroke="#263238" stroke-linecap="round" stroke-linejoin="round"/>
<path d="M160.493 156.824H111.908C111.508 156.808 111.123 156.654 110.805 156.383C110.487 156.113 110.252 155.739 110.132 155.314L99.6991 117.565C99.621 117.344 99.5932 117.106 99.6183 116.871C99.6434 116.635 99.7206 116.411 99.8429 116.217C99.9652 116.023 100.129 115.866 100.319 115.761C100.509 115.655 100.72 115.603 100.932 115.611H149.517C149.916 115.626 150.301 115.778 150.619 116.047C150.938 116.316 151.173 116.688 151.294 117.112L161.726 154.862C161.804 155.083 161.831 155.322 161.806 155.557C161.781 155.793 161.704 156.018 161.582 156.212C161.46 156.406 161.296 156.564 161.106 156.671C160.916 156.778 160.706 156.83 160.493 156.824Z" fill="#999999" stroke="#263238" stroke-linecap="round" stroke-linejoin="round"/>
<path d="M163.882 154.861L153.45 117.112C153.329 116.687 153.094 116.315 152.776 116.046C152.457 115.777 152.072 115.625 151.673 115.61H149.523C149.922 115.625 150.308 115.777 150.626 116.046C150.944 116.315 151.179 116.687 151.3 117.112L161.733 154.861C161.81 155.082 161.838 155.321 161.812 155.556C161.787 155.792 161.71 156.017 161.588 156.211C161.466 156.405 161.303 156.563 161.113 156.67C160.923 156.777 160.712 156.83 160.499 156.824H162.682C162.892 156.824 163.098 156.766 163.284 156.657C163.47 156.548 163.629 156.389 163.747 156.196C163.865 156.003 163.939 155.78 163.963 155.547C163.987 155.315 163.959 155.079 163.882 154.861Z" fill="#E5E5E5" stroke="#263238" stroke-linecap="round" stroke-linejoin="round"/>
<path d="M133.731 136.219C133.79 136.64 133.766 137.07 133.66 137.479C133.554 137.887 133.369 138.265 133.117 138.586C132.866 138.906 132.554 139.16 132.205 139.331C131.855 139.502 131.476 139.585 131.094 139.575C130.266 139.552 129.473 139.202 128.855 138.587C128.237 137.973 127.835 137.134 127.72 136.219C127.66 135.799 127.684 135.37 127.79 134.962C127.896 134.553 128.081 134.176 128.333 133.856C128.585 133.537 128.897 133.283 129.246 133.113C129.596 132.943 129.975 132.861 130.356 132.873C131.182 132.898 131.974 133.247 132.591 133.859C133.209 134.472 133.612 135.308 133.731 136.219Z" fill="white" stroke="#263238" stroke-linecap="round" stroke-linejoin="round"/>
</svg>
