<svg width="225" height="175" viewBox="0 0 225 175" fill="none" xmlns="http://www.w3.org/2000/svg">
<path d="M6.44531 174.01H223.87" stroke="#263238" stroke-linecap="round" stroke-linejoin="round"/>
<path d="M43.6452 114.076C46.7996 116.705 45.7481 132.162 55.611 125.511C65.4739 118.861 48.6712 114.923 49.6281 111.153C50.974 105.896 73.1654 112.205 69.4432 102.11C65.721 92.0162 52.4513 107.2 48.9657 103.441C45.7587 99.9812 61.7306 87.4791 54.2861 85.3551C46.8417 83.2311 48.4242 101.311 43.6452 101.311C39.9124 101.311 40.6117 84.025 33.7508 90.1394C26.8899 96.2537 41.884 102.284 39.9229 106.08C38.4299 108.966 26.627 101.842 27.158 108.493C27.689 115.144 40.2805 111.295 43.6452 114.076Z" fill="#334155"/>
<path d="M45.7466 106.17C45.7466 106.17 38.5755 114.86 39.3747 138.545" stroke="#263238" stroke-linecap="round" stroke-linejoin="round"/>
<path d="M59.7457 118.487C58.4734 115.927 47.9218 114.176 53.9625 108.619C60.0033 103.062 59.9823 114.975 62.6688 114.928C66.4278 114.865 65.697 98.9348 71.9008 103.046C78.1045 107.157 65.7706 113.661 67.7474 116.6C69.5612 119.307 80.5071 110.559 80.7542 115.906C81.0013 121.252 69.0933 117.294 68.331 120.516C67.7369 123.024 79.4714 125.306 74.2666 128.928C69.0618 132.551 67.3952 121.531 64.5352 122.246C62.3533 122.772 65.2659 131.862 60.8813 130.442C56.4966 129.023 61.0811 121.168 59.7457 118.487Z" fill="#334155"/>
<path opacity="0.3" d="M59.7457 118.487C58.4734 115.927 47.9218 114.176 53.9625 108.619C60.0033 103.062 59.9823 114.975 62.6688 114.928C66.4278 114.865 65.697 98.9348 71.9008 103.046C78.1045 107.157 65.7706 113.661 67.7474 116.6C69.5612 119.307 80.5071 110.559 80.7542 115.906C81.0013 121.252 69.0933 117.294 68.331 120.516C67.7369 123.024 79.4714 125.306 74.2666 128.928C69.0618 132.551 67.3952 121.531 64.5352 122.246C62.3533 122.772 65.2659 131.862 60.8813 130.442C56.4966 129.023 61.0811 121.168 59.7457 118.487Z" fill="black"/>
<path d="M65.2043 118.601C65.2043 118.601 44.7688 116.471 42.75 138.547" stroke="#263238" stroke-linecap="round" stroke-linejoin="round"/>
<path d="M26.2141 116.209C23.0596 118.838 24.1111 134.294 14.2482 127.644C4.38537 120.993 21.1933 117.05 20.2311 113.286C18.8905 108.028 -3.30619 114.337 0.421299 104.243C4.14879 94.1488 17.4079 109.337 20.9251 105.573C24.1269 102.119 8.16018 89.6169 15.6046 87.4877C23.0491 85.3585 21.4456 103.449 26.2403 103.449C29.9731 103.449 29.2791 86.1576 36.14 92.2772C43.0009 98.3968 28.0016 104.422 29.9678 108.218C31.4557 111.104 43.2638 103.98 42.7328 110.625C42.2018 117.271 29.563 113.428 26.2141 116.209Z" fill="#334155"/>
<path opacity="0.3" d="M26.2141 116.209C23.0596 118.838 24.1111 134.294 14.2482 127.644C4.38537 120.993 21.1933 117.05 20.2311 113.286C18.8905 108.028 -3.30619 114.337 0.421299 104.243C4.14879 94.1488 17.4079 109.337 20.9251 105.573C24.1269 102.119 8.16018 89.6169 15.6046 87.4877C23.0491 85.3585 21.4456 103.449 26.2403 103.449C29.9731 103.449 29.2791 86.1576 36.14 92.2772C43.0009 98.3968 28.0016 104.422 29.9678 108.218C31.4557 111.104 43.2638 103.98 42.7328 110.625C42.2018 117.271 29.563 113.428 26.2141 116.209Z" fill="white"/>
<path d="M23.9531 108.297C23.9531 108.297 33.2587 120.725 35.388 141.466" stroke="#263238" stroke-linecap="round" stroke-linejoin="round"/>
<path d="M30.6097 173.922H45.1201C46.4671 173.928 47.7669 173.426 48.7599 172.516C49.7529 171.606 50.3662 170.354 50.4773 169.012L52.7591 142.199C52.8186 141.463 52.725 140.722 52.4841 140.023C52.2432 139.325 51.8604 138.684 51.3596 138.141C50.8588 137.597 50.2509 137.164 49.5743 136.867C48.8977 136.57 48.1669 136.417 47.4281 136.416H28.328C27.5893 136.416 26.8587 136.57 26.1824 136.867C25.506 137.164 24.8985 137.597 24.3981 138.141C23.8977 138.684 23.5153 139.325 23.2751 140.024C23.0348 140.722 22.9419 141.463 23.0022 142.199L25.2839 169.012C25.3934 170.349 26.0019 171.597 26.9885 172.506C27.9751 173.416 29.2677 173.921 30.6097 173.922Z" fill="#334155" stroke="#263238" stroke-linecap="round" stroke-linejoin="round"/>
<path d="M139.28 135.42C134.428 135.42 120.422 132.266 120.422 132.266H158.138C158.138 132.266 144.127 135.42 139.28 135.42Z" fill="#263238" stroke="#263238" stroke-linecap="round" stroke-linejoin="round"/>
<path d="M143.596 133.834H134.953V139.759H143.596V133.834Z" fill="#858585" stroke="#263238" stroke-linecap="round" stroke-linejoin="round"/>
<path d="M144.87 139.759H133.672V165.231H144.87V139.759Z" fill="#999999" stroke="#263238" stroke-linecap="round" stroke-linejoin="round"/>
<path d="M160.303 124.697H153C153.81 119.682 154.409 114.572 154.777 109.509H162.053C161.706 114.572 161.112 119.682 160.303 124.697Z" fill="#858585" stroke="#263238" stroke-linecap="round" stroke-linejoin="round"/>
<path d="M171.359 64.6406H139.983C136.302 64.6406 133.879 67.7583 134.594 71.4279C136.598 82.6382 137.796 93.9776 138.179 105.359C138.176 106.136 138.327 106.905 138.623 107.623C138.919 108.34 139.355 108.992 139.906 109.54C140.456 110.088 141.109 110.521 141.828 110.814C142.547 111.107 143.318 111.254 144.094 111.247H170.507C172.149 111.231 173.73 110.629 174.967 109.549C176.204 108.469 177.014 106.983 177.252 105.359C178.526 94.0965 178.986 82.7567 178.63 71.4279C178.456 67.7583 175.044 64.6406 171.359 64.6406Z" fill="#858585" stroke="#263238" stroke-linecap="round" stroke-linejoin="round"/>
<path d="M173.078 71.4279C173.435 82.7567 172.974 94.0965 171.701 105.359C171.463 106.983 170.652 108.469 169.416 109.549C168.179 110.629 166.597 111.231 164.956 111.247H144.105C143.328 111.254 142.558 111.107 141.839 110.814C141.12 110.521 140.467 110.088 139.916 109.54C139.366 108.992 138.93 108.34 138.634 107.623C138.337 106.905 138.187 106.136 138.19 105.359C137.808 93.9778 136.612 82.6384 134.61 71.4279C133.895 67.7477 136.308 64.6406 139.999 64.6406H165.807C169.493 64.6406 172.905 67.7583 173.078 71.4279Z" fill="#999999" stroke="#263238" stroke-linecap="round" stroke-linejoin="round"/>
<path d="M158.138 169.808C158.139 169.948 158.107 170.086 158.047 170.212C157.986 170.338 157.899 170.449 157.79 170.537C157.681 170.625 157.553 170.687 157.417 170.719C157.281 170.751 157.139 170.752 157.003 170.723C153.57 169.976 143.292 167.81 139.28 167.81C135.269 167.81 124.985 169.976 121.552 170.723C121.416 170.753 121.274 170.751 121.138 170.719C121.003 170.687 120.876 170.625 120.767 170.537C120.658 170.449 120.571 170.338 120.511 170.212C120.452 170.085 120.421 169.947 120.422 169.808C120.421 169.246 120.614 168.701 120.967 168.263C121.32 167.826 121.812 167.523 122.362 167.405C126.379 166.543 135.542 164.666 139.28 164.666C143.018 164.666 152.182 166.543 156.198 167.405C156.748 167.524 157.239 167.827 157.592 168.264C157.945 168.701 158.138 169.246 158.138 169.808Z" fill="#263238" stroke="#263238" stroke-linecap="round" stroke-linejoin="round"/>
<path d="M120.413 167.915C119.774 167.914 119.149 168.103 118.618 168.457C118.086 168.811 117.671 169.315 117.426 169.905C117.181 170.495 117.117 171.145 117.241 171.772C117.366 172.398 117.673 172.974 118.125 173.426C118.577 173.877 119.153 174.185 119.779 174.309C120.406 174.434 121.055 174.369 121.645 174.124C122.236 173.879 122.74 173.465 123.094 172.933C123.448 172.402 123.637 171.777 123.636 171.138C123.634 170.284 123.294 169.465 122.69 168.861C122.086 168.256 121.267 167.916 120.413 167.915ZM120.413 172.889C120.067 172.89 119.728 172.788 119.439 172.596C119.15 172.404 118.925 172.131 118.792 171.811C118.658 171.492 118.623 171.139 118.69 170.8C118.757 170.46 118.923 170.147 119.168 169.902C119.413 169.656 119.724 169.489 120.064 169.421C120.404 169.353 120.756 169.388 121.076 169.52C121.397 169.652 121.67 169.877 121.863 170.165C122.056 170.453 122.158 170.791 122.158 171.138C122.158 171.601 121.975 172.046 121.648 172.374C121.32 172.702 120.876 172.887 120.413 172.889Z" fill="#858585" stroke="#263238" stroke-linecap="round" stroke-linejoin="round"/>
<path d="M139.27 167.915C138.63 167.913 138.004 168.101 137.471 168.456C136.938 168.81 136.523 169.315 136.277 169.907C136.032 170.498 135.968 171.149 136.094 171.776C136.219 172.404 136.529 172.98 136.982 173.431C137.436 173.883 138.014 174.189 138.642 174.312C139.27 174.434 139.92 174.367 140.51 174.119C141.1 173.871 141.603 173.453 141.955 172.918C142.307 172.384 142.492 171.757 142.487 171.117C142.48 170.267 142.139 169.454 141.536 168.855C140.934 168.256 140.119 167.918 139.27 167.915ZM139.27 172.889C138.924 172.89 138.586 172.788 138.298 172.597C138.01 172.407 137.785 172.135 137.651 171.816C137.517 171.498 137.48 171.147 137.545 170.807C137.611 170.468 137.775 170.155 138.017 169.909C138.26 169.663 138.57 169.494 138.908 169.424C139.247 169.353 139.598 169.385 139.919 169.514C140.239 169.643 140.514 169.864 140.71 170.149C140.905 170.435 141.011 170.771 141.015 171.117C141.018 171.348 140.975 171.578 140.888 171.792C140.802 172.007 140.674 172.202 140.512 172.366C140.349 172.531 140.156 172.662 139.943 172.752C139.73 172.841 139.501 172.888 139.27 172.889Z" fill="#858585" stroke="#263238" stroke-linecap="round" stroke-linejoin="round"/>
<path d="M157.744 167.915C157.105 167.915 156.481 168.104 155.95 168.459C155.419 168.814 155.005 169.319 154.761 169.909C154.517 170.499 154.453 171.148 154.578 171.775C154.703 172.401 155.011 172.976 155.463 173.428C155.915 173.879 156.491 174.186 157.117 174.31C157.744 174.434 158.393 174.369 158.983 174.124C159.572 173.879 160.076 173.464 160.43 172.933C160.784 172.401 160.973 171.776 160.972 171.138C160.972 170.714 160.888 170.295 160.726 169.903C160.564 169.512 160.326 169.156 160.026 168.857C159.726 168.558 159.37 168.321 158.979 168.159C158.587 167.997 158.167 167.914 157.744 167.915ZM157.744 172.889C157.397 172.889 157.059 172.786 156.771 172.593C156.483 172.401 156.259 172.128 156.126 171.808C155.994 171.488 155.959 171.136 156.027 170.796C156.094 170.457 156.261 170.145 156.506 169.9C156.751 169.655 157.063 169.488 157.402 169.421C157.742 169.353 158.094 169.388 158.414 169.52C158.734 169.653 159.007 169.877 159.199 170.165C159.392 170.453 159.494 170.792 159.494 171.138C159.494 171.602 159.31 172.047 158.982 172.376C158.653 172.704 158.208 172.889 157.744 172.889Z" fill="#858585" stroke="#263238" stroke-linecap="round" stroke-linejoin="round"/>
<path d="M148.834 123.678C136.247 124.077 123.647 123.52 111.144 122.011C110.567 121.907 109.974 121.933 109.408 122.087C108.842 122.241 108.317 122.519 107.873 122.901C107.428 123.283 107.074 123.76 106.837 124.296C106.6 124.833 106.485 125.415 106.502 126.001V126.616C106.532 127.908 107.013 129.149 107.86 130.124C108.708 131.099 109.869 131.748 111.144 131.958C123.647 133.464 136.247 134.021 148.834 133.625V123.678Z" fill="#999999" stroke="#263238" stroke-linecap="round" stroke-linejoin="round"/>
<path d="M168.6 131.797C160.788 132.775 153.043 133.421 145.178 133.758C144.725 133.772 144.274 133.695 143.851 133.53C143.429 133.366 143.044 133.118 142.72 132.801C142.395 132.485 142.138 132.106 141.963 131.688C141.789 131.269 141.7 130.82 141.703 130.367V127.344C141.712 126.42 142.08 125.536 142.728 124.878C143.376 124.22 144.255 123.839 145.178 123.816C153.064 123.474 160.788 122.828 168.6 121.85C169.028 121.769 169.468 121.786 169.889 121.898C170.31 122.011 170.7 122.216 171.031 122.499C171.361 122.782 171.625 123.135 171.801 123.533C171.977 123.932 172.062 124.364 172.049 124.799V127.822C172.023 128.782 171.666 129.703 171.037 130.427C170.408 131.152 169.546 131.636 168.6 131.797Z" fill="#858585" stroke="#263238" stroke-linecap="round" stroke-linejoin="round"/>
<path d="M116.293 172.693C116.293 170.937 115.91 167.436 113.838 162.888L111.141 153.162L102.729 156.753L105.095 164.203C105.095 164.203 97.8663 167.651 95.1956 168.582C93.4186 169.202 88.0981 170.422 88.361 172.704C88.361 172.865 88.3927 173.024 88.4542 173.173C88.5158 173.321 88.606 173.456 88.7198 173.57C88.8335 173.684 88.9685 173.774 89.1172 173.836C89.2658 173.897 89.4251 173.929 89.5859 173.929H115.063C115.225 173.93 115.386 173.898 115.536 173.836C115.686 173.774 115.822 173.683 115.937 173.568C116.051 173.453 116.142 173.317 116.203 173.167C116.264 173.016 116.295 172.856 116.293 172.693Z" fill="white" stroke="#263238" stroke-linecap="round" stroke-linejoin="round"/>
<path d="M111.662 166.998C110.347 167.966 103.339 169.191 105.095 167.787C106.851 166.383 105.095 164.196 105.095 164.196C105.095 164.196 97.8663 167.645 95.1956 168.576C93.4186 169.196 88.0981 170.416 88.361 172.698C88.361 172.858 88.3927 173.018 88.4542 173.166C88.5158 173.315 88.606 173.45 88.7198 173.564C88.8335 173.677 88.9685 173.768 89.1172 173.829C89.2658 173.891 89.4251 173.922 89.5859 173.922H115.063C115.225 173.923 115.386 173.892 115.535 173.83C115.685 173.768 115.821 173.677 115.935 173.562C116.049 173.447 116.139 173.31 116.199 173.16C116.26 173.01 116.29 172.849 116.288 172.687C116.202 170.024 115.658 167.395 114.679 164.917C113.234 164.932 112.976 166.036 111.662 166.998Z" fill="#334155" stroke="#263238" stroke-linecap="round" stroke-linejoin="round"/>
<path d="M122.381 173.926H141.044C141.231 173.926 141.412 173.861 141.556 173.742C141.7 173.623 141.798 173.457 141.833 173.274C142.117 171.792 142.054 168.474 140.371 164.068L140.203 155.131L130.645 156.755L131.854 164.379C131.854 164.379 128.006 168.616 126.176 169.373C124.894 169.899 121.971 169.962 121.582 173.053C121.571 173.164 121.584 173.276 121.62 173.382C121.655 173.487 121.713 173.584 121.788 173.667C121.863 173.749 121.955 173.814 122.057 173.859C122.159 173.904 122.269 173.927 122.381 173.926Z" fill="white" stroke="#263238" stroke-linecap="round" stroke-linejoin="round"/>
<path d="M137.235 167.035C135.263 168.412 133.807 168.575 134.727 166.509C135.647 164.443 131.872 164.369 131.872 164.369C131.872 164.369 128.024 168.607 126.194 169.364C124.912 169.89 121.988 169.953 121.599 173.044C121.586 173.157 121.597 173.271 121.631 173.379C121.665 173.487 121.722 173.587 121.797 173.671C121.873 173.756 121.965 173.823 122.069 173.869C122.173 173.915 122.285 173.938 122.398 173.938H141.062C141.249 173.937 141.43 173.872 141.574 173.753C141.717 173.634 141.815 173.469 141.851 173.286C142.135 171.803 142.072 168.486 140.389 164.08C138.928 164.417 139.191 165.652 137.235 167.035Z" fill="#334155" stroke="#263238" stroke-linecap="round" stroke-linejoin="round"/>
<path d="M120.516 105.665C120.516 105.665 118.634 107.589 110.942 108.82C103.251 110.05 87.2838 113.898 87.4783 120.207C87.6728 126.516 102.378 160.163 102.378 160.163C102.378 160.163 109.738 158.765 113.155 156.662C113.155 156.662 107.23 132.651 102.788 126.342C102.788 126.342 122.729 123.887 133.759 119.334C144.789 114.781 138.302 104.403 138.302 104.403L120.516 105.665Z" fill="#263238" stroke="#263238" stroke-linecap="round" stroke-linejoin="round"/>
<path d="M133.026 104.778C133.026 104.778 135.855 109.51 133.741 112.139C131.628 114.767 119.625 119.673 120.982 125.634C122.338 131.596 126.817 140.003 129.735 159.981C129.735 159.981 136.533 158.929 141.086 157C141.086 157 141.843 136.675 136.559 127.911C136.559 127.911 151.69 125.109 153.225 120.025C154.76 114.941 151.89 107.17 151.832 104.395L133.026 104.778Z" fill="#263238" stroke="#263238" stroke-linecap="round" stroke-linejoin="round"/>
<path d="M123.934 112.307C123.584 112.281 123.233 112.281 122.883 112.307" stroke="#7F7F7F" stroke-width="0.75" stroke-linecap="round" stroke-linejoin="round"/>
<path d="M124.617 109.169C124.617 109.169 127.724 110.084 128.944 114.137C128.96 114.204 128.954 114.274 128.928 114.337C128.902 114.4 128.857 114.454 128.799 114.49C128.741 114.526 128.672 114.543 128.604 114.538C128.536 114.533 128.471 114.507 128.418 114.463C127.585 113.606 126.56 112.961 125.427 112.581" stroke="#7F7F7F" stroke-width="0.75" stroke-linecap="round" stroke-linejoin="round"/>
<path d="M101.334 126.121C101.334 124.412 93.9734 123.492 95.9449 121.915C97.9164 120.337 102.385 125.463 102.385 125.463" stroke="#7F7F7F" stroke-width="0.75" stroke-linecap="round" stroke-linejoin="round"/>
<path d="M137.5 132.957C137.5 131.001 130.465 129.934 130.817 127.831C131.17 125.728 135.639 129.871 135.639 129.871" stroke="#7F7F7F" stroke-width="0.75" stroke-linecap="round" stroke-linejoin="round"/>
<path d="M101.606 160.285L102.379 162.073C102.422 162.172 102.497 162.252 102.593 162.301C102.689 162.35 102.799 162.364 102.905 162.341C104.603 161.957 111.69 160.285 114.176 158.498C114.249 158.445 114.303 158.371 114.333 158.287C114.363 158.203 114.367 158.111 114.345 158.024L113.861 156.032C113.845 155.963 113.813 155.899 113.767 155.845C113.722 155.79 113.665 155.747 113.6 155.719C113.536 155.69 113.465 155.677 113.395 155.68C113.324 155.683 113.255 155.703 113.193 155.737C112.073 156.347 108.956 157.804 101.916 159.654C101.852 159.672 101.792 159.702 101.741 159.745C101.689 159.787 101.648 159.84 101.618 159.9C101.589 159.959 101.573 160.024 101.571 160.091C101.568 160.157 101.581 160.224 101.606 160.285Z" fill="#999999" stroke="#263238" stroke-linecap="round" stroke-linejoin="round"/>
<path d="M128.902 158.812C128.893 158.75 128.9 158.688 128.923 158.629C128.945 158.571 128.982 158.52 129.03 158.48C129.079 158.441 129.136 158.414 129.197 158.403C129.259 158.392 129.322 158.397 129.381 158.418C130.235 158.684 131.148 158.697 132.009 158.455C133.96 158.013 139.538 156.246 141.199 155.715C141.254 155.698 141.312 155.694 141.368 155.703C141.424 155.712 141.478 155.735 141.524 155.768C141.57 155.802 141.608 155.847 141.634 155.898C141.659 155.949 141.673 156.005 141.672 156.062V158.386C141.673 158.456 141.653 158.525 141.615 158.584C141.576 158.643 141.521 158.69 141.457 158.717C140.153 159.301 133.166 162.292 129.512 161.478C129.441 161.461 129.376 161.423 129.327 161.368C129.278 161.314 129.247 161.245 129.239 161.173L128.902 158.812Z" fill="#999999" stroke="#263238" stroke-linecap="round" stroke-linejoin="round"/>
<path d="M134.533 110.128C134.482 110.855 134.217 111.55 133.77 112.126C132.225 114.045 125.427 117.173 122.383 121.063" stroke="#7F7F7F" stroke-linecap="round" stroke-linejoin="round"/>
<path d="M134.195 107.503C134.313 107.89 134.403 108.286 134.463 108.686" stroke="#7F7F7F" stroke-linecap="round" stroke-linejoin="round"/>
<path d="M93.9375 169.758C94.3665 170.54 94.6766 171.382 94.8575 172.255H113.842C113.912 171.428 114.287 170.656 114.893 170.089" stroke="#263238" stroke-linecap="round" stroke-linejoin="round"/>
<path d="M126.922 169.758C126.922 169.758 129.551 169.958 130.534 172.255H140.46C140.759 171.569 140.937 170.836 140.985 170.089" stroke="#263238" stroke-linecap="round" stroke-linejoin="round"/>
<path d="M111.36 75.9573C111.602 76.8826 111.854 77.8027 112.107 78.7017C114.735 88.165 118.153 106.172 118.153 106.172C134.976 109.72 152.72 106.172 152.72 106.172C152.815 102.25 152.336 97.071 151.805 91.6296C154.56 90.8673 156.537 88.3227 156.663 84.0905C156.795 78.9646 155.864 69.7378 155.349 65.4268C154.891 61.6362 155.217 59.3808 149.345 56.4892C146.401 54.7911 141.511 53.9867 135.502 53.1823C123.673 51.6051 115.135 53.9972 112.107 55.2852C109.704 54.6544 109.036 57.4723 109.036 57.4723C107.706 56.4682 106.161 60.7267 106.161 60.7267C102.27 65.6896 99.2104 74.0489 98.1904 77.0246C97.9648 77.6751 97.5513 78.2441 97.0022 78.6596C94.2421 80.7626 95.7773 83.365 95.7773 83.365L101.429 85.0947C101.429 85.0947 104.168 85.8097 106.261 82.2084C108.006 79.2011 110.866 74.0962 111.36 75.9573Z" fill="#334155"/>
<mask id="mask0_3412_14752" style="mask-type:luminance" maskUnits="userSpaceOnUse" x="95" y="52" width="62" height="56">
<path d="M111.352 75.9593C111.594 76.8846 111.847 77.8046 112.099 78.7036C114.728 88.1669 118.145 106.174 118.145 106.174C134.969 109.722 152.712 106.174 152.712 106.174C152.807 102.251 152.328 97.073 151.797 91.6316C154.552 90.8692 156.529 88.3247 156.655 84.0925C156.787 78.9665 155.856 69.7398 155.341 65.4287C154.884 61.6381 155.21 59.3827 149.337 56.4911C146.393 54.793 141.504 53.9886 135.494 53.1842C123.665 51.607 115.127 53.9991 112.099 55.2872C109.696 54.6563 109.029 57.4743 109.029 57.4743C107.698 56.4701 106.153 60.7286 106.153 60.7286C102.262 65.6916 99.2025 74.0508 98.1826 77.0265C97.957 77.6771 97.5435 78.2461 96.9944 78.6616C94.2343 80.7645 95.7695 83.3669 95.7695 83.3669L101.421 85.0966C101.421 85.0966 104.16 85.8116 106.253 82.2103C107.998 79.2031 110.858 74.0982 111.352 75.9593Z" fill="white"/>
</mask>
<g mask="url(#mask0_3412_14752)">
<path opacity="0.3" d="M102.468 82.7278C102.468 82.7278 102.337 80.0992 100.234 79.6418C98.1308 79.1844 100.823 78.3958 102.468 78.7901C104.114 79.1844 103.73 77.7386 105.139 75.3728C106.548 73.0069 107.242 71.1353 108.43 72.497C109.618 73.8586 110.854 74.0742 111.358 75.9353C111.863 77.7964 109.366 82.2442 109.366 82.2442L105.444 85.2882L103.451 86.4028H100.481L99.4609 83.8319L102.468 82.7278Z" fill="black"/>
</g>
<path d="M111.36 75.9573C111.602 76.8826 111.854 77.8027 112.107 78.7017C114.735 88.165 118.153 106.172 118.153 106.172C134.976 109.72 152.72 106.172 152.72 106.172C152.815 102.25 152.336 97.071 151.805 91.6296C154.56 90.8673 156.537 88.3227 156.663 84.0905C156.795 78.9645 155.864 69.7378 155.349 65.4268C154.891 61.6362 155.217 59.3808 149.345 56.4892C146.401 54.7911 141.511 53.9867 135.502 53.1823C123.673 51.6051 115.135 53.9972 112.107 55.2852C109.704 54.6544 109.036 57.4723 109.036 57.4723C107.706 56.4682 106.161 60.7267 106.161 60.7267C102.27 65.6896 99.2104 74.0489 98.1904 77.0246C97.9648 77.6751 97.5513 78.2441 97.0022 78.6596C94.2421 80.7626 95.7773 83.365 95.7773 83.365L101.429 85.0947C101.429 85.0947 104.168 85.8097 106.261 82.2084C108.006 79.2011 110.866 74.0962 111.36 75.9573Z" stroke="#263238" stroke-linecap="round" stroke-linejoin="round"/>
<path opacity="0.3" d="M152.719 106.147C152.732 102.769 152.566 99.3925 152.22 96.032C152.793 104.039 136.121 106.547 135.596 102.204C135.07 97.8616 151.804 91.6053 142.698 93.7924C134.755 95.7008 119.356 93.8765 115.57 93.3823C117.027 100.217 118.152 106.147 118.152 106.147C134.975 109.696 152.719 106.147 152.719 106.147Z" fill="black"/>
<path opacity="0.3" d="M145.079 65.9258C145.079 65.9258 142.698 72.8918 142.703 76.572C142.708 80.2522 136.031 82.7232 136.016 82.7232C139.596 81.9976 143.076 81.0355 144.738 80.5519C145.024 80.471 145.273 80.2929 145.442 80.0481C145.611 79.8034 145.689 79.5074 145.663 79.2112C145.239 74.7958 145.044 70.3614 145.079 65.9258Z" fill="black"/>
<path d="M109.157 64.1758C109.179 67.4582 109.772 70.7118 110.907 73.7916C110.94 73.8819 110.944 73.9803 110.917 74.0726C110.89 74.1649 110.834 74.2463 110.758 74.3049C110.682 74.3635 110.589 74.3963 110.493 74.3985C110.397 74.4007 110.303 74.3723 110.224 74.3173C109.32 73.6706 108.042 72.3563 106.891 69.7066" stroke="#263238" stroke-width="0.75" stroke-linecap="round" stroke-linejoin="round"/>
<path d="M153.772 85.6433C152.384 81.0431 149.981 79.8918 148.12 79.7761C148.063 79.7679 148.009 79.7429 147.965 79.7042C147.922 79.6655 147.891 79.6149 147.877 79.5587C147.862 79.5025 147.864 79.4433 147.883 79.3884C147.902 79.3336 147.937 79.2855 147.983 79.2504C149.066 78.6668 151.175 78.1989 153.766 81.0694" stroke="#263238" stroke-width="0.75" stroke-linecap="round" stroke-linejoin="round"/>
<path d="M127.098 72.474C127.076 72.6674 126.983 72.8459 126.838 72.9755C126.692 73.105 126.504 73.1766 126.309 73.1766C126.115 73.1766 125.927 73.105 125.781 72.9755C125.636 72.8459 125.543 72.6674 125.521 72.474C125.508 72.3627 125.519 72.2501 125.553 72.1433C125.586 72.0366 125.642 71.9382 125.717 71.8546C125.791 71.771 125.883 71.7041 125.985 71.6583C126.087 71.6125 126.198 71.5889 126.309 71.5889C126.421 71.5889 126.532 71.6125 126.634 71.6583C126.736 71.7041 126.828 71.771 126.902 71.8546C126.977 71.9382 127.033 72.0366 127.066 72.1433C127.1 72.2501 127.111 72.3627 127.098 72.474Z" fill="#999999" stroke="#263238" stroke-width="0.75" stroke-linecap="round" stroke-linejoin="round"/>
<path d="M128.171 81.4253C128.171 81.5813 128.125 81.7338 128.038 81.8635C127.951 81.9931 127.828 82.0942 127.684 82.1539C127.54 82.2136 127.381 82.2292 127.229 82.1988C127.076 82.1684 126.935 82.0933 126.825 81.983C126.714 81.8727 126.639 81.7322 126.609 81.5792C126.578 81.4262 126.594 81.2676 126.654 81.1235C126.713 80.9794 126.815 80.8563 126.944 80.7696C127.074 80.683 127.226 80.6367 127.382 80.6367C127.592 80.6367 127.792 80.7198 127.94 80.8677C128.088 81.0156 128.171 81.2162 128.171 81.4253Z" fill="#999999" stroke="#263238" stroke-width="0.75" stroke-linecap="round" stroke-linejoin="round"/>
<path d="M130.822 102.991C130.823 103.148 130.777 103.302 130.691 103.433C130.604 103.564 130.481 103.667 130.336 103.728C130.191 103.789 130.031 103.805 129.877 103.775C129.722 103.745 129.58 103.67 129.469 103.559C129.357 103.448 129.281 103.307 129.25 103.153C129.219 102.999 129.234 102.839 129.294 102.693C129.354 102.548 129.456 102.424 129.587 102.336C129.717 102.249 129.871 102.202 130.028 102.202C130.238 102.202 130.439 102.285 130.588 102.433C130.736 102.581 130.821 102.781 130.822 102.991Z" fill="#999999" stroke="#263238" stroke-linecap="round" stroke-linejoin="round"/>
<path d="M115.715 87.2849C115.715 87.2849 113.133 89.7454 114.364 89.7874C115.594 89.8295 117.145 88.1366 118.569 87.9421C119.994 87.7476 117.692 86.8906 117.692 86.8906L115.715 87.2849Z" fill="white" stroke="#263238" stroke-linecap="round" stroke-linejoin="round"/>
<path d="M130.79 84.5138C130.674 84.4102 130.538 84.3315 130.391 84.2826C130.244 84.2338 130.088 84.2158 129.933 84.2299C128.671 84.3351 125.044 84.6085 123.677 84.5243C121.248 84.3719 114.092 82.8578 114.092 82.8578C113.928 82.8297 113.759 82.8387 113.598 82.884L109.166 84.1879C109.005 84.2346 108.857 84.3193 108.735 84.435L106.054 86.8954C105.966 86.9779 105.891 87.0737 105.833 87.1793L105.276 88.1993C105.161 88.4087 105.117 88.6502 105.153 88.8866C105.188 89.123 105.299 89.3414 105.47 89.5084L109.897 89.624C110.171 89.637 110.438 89.5427 110.644 89.3611L111.958 88.2361C112.046 88.1599 112.122 88.0713 112.184 87.9732C112.505 87.4475 113.761 85.7125 115.706 85.8702C115.706 85.8702 111.501 88.1046 112.294 89.0247C113.088 89.9447 116.306 87.316 117.357 87.5789C118.409 87.8418 118.477 90.4231 124.192 89.4873C124.447 89.4441 124.709 89.4567 124.959 89.5241L130.164 90.9804C130.319 91.0232 130.48 91.0347 130.639 91.0143C130.798 90.994 130.951 90.9421 131.089 90.8618C131.228 90.7815 131.349 90.6744 131.446 90.5467C131.542 90.419 131.612 90.2734 131.652 90.1182C132.057 88.6251 132.414 85.9964 130.79 84.5138Z" fill="white" stroke="#263238" stroke-linecap="round" stroke-linejoin="round"/>
<path d="M114.712 83.8008L113.598 83.99C113.054 84.0821 112.547 84.3222 112.131 84.684L110.948 85.6987C110.747 85.8799 110.57 86.0867 110.422 86.3138L109.66 87.4757C109.577 87.6041 109.484 87.7255 109.381 87.8385C108.929 88.3642 107.683 89.8205 109.029 89.6207" fill="white"/>
<path d="M114.712 83.8008L113.598 83.99C113.054 84.0821 112.547 84.3222 112.131 84.684L110.948 85.6987C110.747 85.8799 110.57 86.0867 110.422 86.3138L109.66 87.4757C109.577 87.6041 109.484 87.7255 109.381 87.8385C108.929 88.3642 107.683 89.8205 109.029 89.6207" stroke="#263238" stroke-linecap="round" stroke-linejoin="round"/>
<path d="M111.572 84.1963L110.42 84.5117C110.061 84.5997 109.731 84.781 109.463 85.0375L108.564 85.8997C108.476 85.9782 108.397 86.0663 108.328 86.1626L106.85 88.1236C106.85 88.1236 106.062 89.5115 106.85 89.5378" fill="white"/>
<path d="M111.572 84.1963L110.42 84.5117C110.061 84.5997 109.731 84.781 109.463 85.0375L108.564 85.8997C108.476 85.9782 108.397 86.0663 108.328 86.1626L106.85 88.1236C106.85 88.1236 106.062 89.5115 106.85 89.5378" stroke="#263238" stroke-linecap="round" stroke-linejoin="round"/>
<path d="M145.12 64.8125C145.008 69.6187 145.184 74.4273 145.646 79.2125C145.672 79.5087 145.593 79.8047 145.425 80.0494C145.256 80.2941 145.007 80.4723 144.72 80.5531C140.541 81.7891 136.283 82.7463 131.977 83.4184" stroke="#263238" stroke-linecap="round" stroke-linejoin="round"/>
<path d="M145.371 61.5508C145.303 62.0765 145.245 62.6496 145.203 63.2331" stroke="#263238" stroke-width="0.75" stroke-linecap="round" stroke-linejoin="round"/>
<path d="M147.135 56.6318C146.536 57.1576 146.084 58.1092 145.773 59.3709" stroke="#263238" stroke-width="0.75" stroke-linecap="round" stroke-linejoin="round"/>
<path d="M120.806 53.5082C120.806 53.5082 121.137 52.4567 122.909 51.8626C124.681 51.2685 130.827 50.3275 133.986 51.8626C137.146 53.3978 131.095 61.7518 131.095 61.7518L128.293 65.6317L125.795 67.5034L124.681 64.1754L123.235 62.6718C123.235 62.6718 120.112 60.1115 120.375 57.5827C120.638 55.0539 120.806 53.5082 120.806 53.5082Z" fill="white"/>
<path d="M136.326 53.2886C135.832 51.5589 133.577 51.0752 133.577 51.0752C122.799 49.2351 120.522 53.1782 120.522 53.1782C119.201 56.7397 119.201 60.6572 120.522 64.2187C120.522 64.2187 123.588 62.9464 124.113 64.2187C124.639 65.491 125.601 68.2038 125.601 68.2038C127.064 67.3792 128.341 66.2604 129.35 64.9179C131.016 62.7256 134.928 64.9179 134.928 64.9179C137.462 60.5385 136.326 53.2886 136.326 53.2886ZM133.698 53.1624C129.523 66.2638 125.843 66.8316 125.843 66.8316C124.618 62.0158 123.567 63.0673 121.9 60.0548C120.565 57.6364 121.017 54.5766 121.248 53.4568C121.275 53.3231 121.332 53.1972 121.414 53.0881C121.495 52.979 121.6 52.8894 121.721 52.8259C125.864 50.7229 130.932 51.4958 133.019 51.9532C133.148 51.9799 133.271 52.0336 133.377 52.1108C133.484 52.188 133.574 52.2869 133.64 52.4011C133.706 52.5153 133.747 52.6421 133.761 52.7733C133.774 52.9045 133.76 53.0371 133.719 53.1624H133.698Z" fill="#334155"/>
<mask id="mask1_3412_14752" style="mask-type:luminance" maskUnits="userSpaceOnUse" x="119" y="50" width="18" height="19">
<path d="M136.326 53.2886C135.832 51.5589 133.577 51.0752 133.577 51.0752C122.799 49.2351 120.522 53.1782 120.522 53.1782C119.201 56.7397 119.201 60.6572 120.522 64.2187C120.522 64.2187 123.588 62.9464 124.113 64.2187C124.639 65.491 125.601 68.2038 125.601 68.2038C127.064 67.3792 128.341 66.2604 129.35 64.9179C131.016 62.7256 134.928 64.9179 134.928 64.9179C137.462 60.5385 136.326 53.2886 136.326 53.2886ZM133.698 53.1624C129.523 66.2638 125.843 66.8316 125.843 66.8316C124.618 62.0158 123.567 63.0673 121.9 60.0548C120.565 57.6364 121.017 54.5766 121.248 53.4568C121.275 53.3231 121.332 53.1972 121.414 53.0881C121.495 52.979 121.6 52.8894 121.721 52.8259C125.864 50.7229 130.932 51.4958 133.019 51.9532C133.148 51.9799 133.271 52.0336 133.377 52.1108C133.484 52.188 133.574 52.2869 133.64 52.4011C133.706 52.5153 133.747 52.6421 133.761 52.7733C133.774 52.9045 133.76 53.0371 133.719 53.1624H133.698Z" fill="white"/>
</mask>
<g mask="url(#mask1_3412_14752)">
<path opacity="0.4" d="M136.326 53.2886C135.832 51.5589 133.577 51.0752 133.577 51.0752C122.799 49.2351 120.522 53.1782 120.522 53.1782C119.201 56.7397 119.201 60.6572 120.522 64.2187C120.522 64.2187 123.588 62.9464 124.113 64.2187C124.639 65.491 125.601 68.2038 125.601 68.2038C127.064 67.3792 128.341 66.2604 129.35 64.9179C131.016 62.7256 134.928 64.9179 134.928 64.9179C137.462 60.5385 136.326 53.2886 136.326 53.2886ZM133.698 53.1624C129.523 66.2638 125.843 66.8316 125.843 66.8316C124.618 62.0158 123.567 63.0673 121.9 60.0548C120.565 57.6364 121.017 54.5766 121.248 53.4568C121.275 53.3231 121.332 53.1972 121.414 53.0881C121.495 52.979 121.6 52.8894 121.721 52.8259C125.864 50.7229 130.932 51.4958 133.019 51.9532C133.148 51.9799 133.271 52.0336 133.377 52.1108C133.484 52.188 133.574 52.2869 133.64 52.4011C133.706 52.5153 133.747 52.6421 133.761 52.7733C133.774 52.9045 133.76 53.0371 133.719 53.1624H133.698Z" fill="white"/>
</g>
<path d="M136.326 53.2886C135.832 51.5589 133.577 51.0752 133.577 51.0752C122.799 49.2351 120.522 53.1782 120.522 53.1782C119.201 56.7397 119.201 60.6572 120.522 64.2187C120.522 64.2187 123.588 62.9464 124.113 64.2187C124.639 65.491 125.601 68.2038 125.601 68.2038C127.064 67.3792 128.341 66.2604 129.35 64.9179C131.016 62.7256 134.928 64.9179 134.928 64.9179C137.462 60.5385 136.326 53.2886 136.326 53.2886ZM133.698 53.1624C129.523 66.2638 125.843 66.8316 125.843 66.8316C124.618 62.0158 123.567 63.0673 121.9 60.0548C120.565 57.6364 121.017 54.5766 121.248 53.4568C121.275 53.3231 121.332 53.1972 121.414 53.0881C121.495 52.979 121.6 52.8894 121.721 52.8259C125.864 50.7229 130.932 51.4958 133.019 51.9532C133.148 51.9799 133.271 52.0336 133.377 52.1108C133.484 52.188 133.574 52.2869 133.64 52.4011C133.706 52.5153 133.747 52.6421 133.761 52.7733C133.774 52.9045 133.76 53.0371 133.719 53.1624H133.698Z" stroke="#263238" stroke-linecap="round" stroke-linejoin="round"/>
<path d="M118.727 33.2695C118.727 33.2695 109.438 35.1306 114.553 41.1556C120.226 47.8693 118.727 33.2695 118.727 33.2695Z" fill="#263238" stroke="#263238" stroke-linecap="round" stroke-linejoin="round"/>
<path d="M115.064 48.0049C115.064 48.0049 112.856 39.0674 117.061 34.7721C121.267 30.4768 125.826 29.604 129.243 31.707C132.66 33.81 134.08 39.0674 133.554 41.7802C133.028 44.493 133.281 54.2192 128.596 58.2516C123.912 62.284 121.031 61.2904 117.934 55.7964C115.879 52.1951 114.906 51.1594 115.064 48.0049Z" fill="white" stroke="#263238" stroke-linecap="round" stroke-linejoin="round"/>
<path d="M131.347 46.2557C131.347 46.2557 127.814 42.749 126.731 38.6324C125.648 34.5159 125.038 33.8114 121.006 35.825C116.973 37.8386 110.686 35.131 112.331 30.0419C114.061 24.7003 119.345 31.6191 124.423 29.8684C129.502 28.1177 133.114 31.2721 133.119 35.9144C133.119 35.9144 136.189 38.8953 133.119 46.6026L131.347 46.2557Z" fill="#263238" stroke="#263238" stroke-linecap="round" stroke-linejoin="round"/>
<path d="M130.234 45.6667C130.234 45.6667 131.128 40.7668 133.61 41.2189C136.091 41.6711 134.319 48.9052 131.396 48.1166" fill="white"/>
<path d="M130.234 45.6667C130.234 45.6667 131.128 40.7668 133.61 41.2189C136.091 41.6711 134.319 48.9052 131.396 48.1166" stroke="#263238" stroke-linecap="round" stroke-linejoin="round"/>
<path d="M118.425 47.3281C118.425 47.3281 117.447 51.8758 117.768 52.6539C118.088 53.432 121.09 52.8379 121.09 52.8379" fill="white"/>
<path d="M118.425 47.3281C118.425 47.3281 117.447 51.8758 117.768 52.6539C118.088 53.432 121.09 52.8379 121.09 52.8379" stroke="#263238" stroke-linecap="round" stroke-linejoin="round"/>
<path d="M121.508 54.8233C121.508 54.8233 123.863 55.7538 125.94 52.6572L121.508 54.8233Z" fill="white"/>
<path d="M121.508 54.8233C121.508 54.8233 123.863 55.7538 125.94 52.6572" stroke="#263238" stroke-linecap="round" stroke-linejoin="round"/>
<path d="M116.81 47.7098C116.894 48.1304 116.783 48.5142 116.563 48.5615C116.342 48.6088 116.084 48.3039 115.995 47.878C115.905 47.4522 115.995 47.0736 116.242 47.0263C116.489 46.979 116.731 47.2839 116.81 47.7098Z" fill="#263238"/>
<path d="M122.578 47.2488C122.667 47.6694 122.578 48.0532 122.331 48.1005C122.084 48.1479 121.858 47.8377 121.768 47.4171C121.679 46.9965 121.768 46.6127 122.015 46.5654C122.262 46.5181 122.52 46.823 122.578 47.2488Z" fill="#263238"/>
<path d="M118.012 47.5066C118.133 48.7 116.961 49.7935 115.342 49.9512C113.722 50.109 112.356 49.2783 112.235 48.0849C112.114 46.8914 113.37 46.371 114.968 46.208C116.567 46.045 117.897 46.3184 118.012 47.5066Z" stroke="#263238" stroke-linecap="round" stroke-linejoin="round"/>
<path d="M125.458 46.7697C125.579 47.9579 124.38 49.0567 122.787 49.2144C121.194 49.3721 119.801 48.5362 119.68 47.348C119.559 46.1599 120.816 45.6289 122.414 45.4712C124.012 45.3134 125.342 45.5763 125.458 46.7697Z" stroke="#263238" stroke-linecap="round" stroke-linejoin="round"/>
<path d="M118.016 47.5097L119.677 47.3467" stroke="#263238" stroke-linecap="round" stroke-linejoin="round"/>
<path d="M125.258 46.1687L131.367 42.5674" stroke="#263238" stroke-linecap="round" stroke-linejoin="round"/>
<path d="M132.414 51.7773L132.703 52.4766" stroke="#263238" stroke-linecap="round" stroke-linejoin="round"/>
<path d="M114.578 45.5896C114.578 45.5896 115.509 44.4067 116.65 44.9745L114.578 45.5896Z" fill="white"/>
<path d="M114.578 45.5896C114.578 45.5896 115.509 44.4067 116.65 44.9745" stroke="#263238" stroke-linecap="round" stroke-linejoin="round"/>
<path d="M124.095 45.0574C124.095 45.0574 122.46 43.4802 120.883 44.5948L124.095 45.0574Z" fill="white"/>
<path d="M124.095 45.0574C124.095 45.0574 122.46 43.4802 120.883 44.5948" stroke="#263238" stroke-linecap="round" stroke-linejoin="round"/>
<path d="M116.641 30.6396C119.127 31.4283 123.312 32.3956 126.73 31.3599C131.987 29.7827 130.184 35.671 131.367 37.2955" stroke="#7F7F7F" stroke-linecap="round" stroke-linejoin="round"/>
<path d="M114.484 29.8486C114.484 29.8486 114.9 30.0326 115.609 30.285" stroke="#7F7F7F" stroke-linecap="round" stroke-linejoin="round"/>
<path d="M120.773 33.5692C121.052 33.4851 121.341 33.3852 121.646 33.2695" stroke="#7F7F7F" stroke-linecap="round" stroke-linejoin="round"/>
<path d="M115.062 32.873C115.062 32.873 116.177 34.5922 119.763 33.8299" stroke="#7F7F7F" stroke-linecap="round" stroke-linejoin="round"/>
<path d="M128.422 36.2432C128.699 38.2725 129.464 40.2045 130.651 41.8738" stroke="#7F7F7F" stroke-linecap="round" stroke-linejoin="round"/>
<path d="M128.299 34.3809C128.292 34.6949 128.302 35.0091 128.331 35.3219" stroke="#7F7F7F" stroke-linecap="round" stroke-linejoin="round"/>
<path opacity="0.3" d="M132.953 90.7818C132.857 90.862 132.788 90.9698 132.756 91.0905C132.723 91.2112 132.728 91.3391 132.771 91.4567C132.813 91.5744 132.891 91.6761 132.993 91.7482C133.095 91.8202 133.217 91.8591 133.342 91.8595C136.896 91.8595 146.486 91.9016 150.166 91.686C154.766 91.4232 151.254 86.4286 147.537 88.3318C144.167 90.093 136.996 87.1594 132.953 90.7818Z" fill="black"/>
<path d="M92.9141 85.8522C92.9141 85.8522 95.0643 80.1269 100.458 81.0364C105.852 81.9459 101.731 86.462 99.1336 86.8616C99.1336 86.8616 98.7393 85.2896 92.9141 85.8522Z" fill="white" stroke="#263238" stroke-linecap="round" stroke-linejoin="round"/>
<path d="M88.3427 89.099C87.6329 89.8088 85.9243 89.8718 87.0756 88.3314C88.0174 87.0923 89.2945 86.1491 90.7558 85.6134C93.3109 84.4725 94.3098 84.7038 96.623 84.1939C98.9363 83.6839 99.3727 84.6302 100.172 85.0666C102.08 86.1181 102.538 86.2968 103.021 87.3483C103.505 88.3998 104.031 89.7667 102.538 89.7667C101.181 89.7667 101.092 87.5218 99.7775 87.6112C98.4631 87.7005 97.806 89.7667 96.8859 89.7667H96.5389C95.7503 89.7667 95.7083 89.1095 96.1867 88.0791C96.6651 87.0486 97.1961 86.1181 97.1961 86.1181C96.4156 86.5291 95.7914 87.1847 95.4191 87.9844C94.7882 89.3251 94.6726 89.8876 93.5107 89.8876C92.3488 89.8876 92.4592 89.0254 93.5843 87.1222C92.9161 87.5224 92.3635 88.0895 91.9808 88.7678C91.413 89.8193 91.1133 89.7667 90.372 89.7667C89.3941 89.7667 89.4625 88.1579 91.1922 87.1065C91.2027 87.1065 90.8189 86.6333 88.3427 89.099Z" fill="white" stroke="#263238" stroke-linecap="round" stroke-linejoin="round"/>
<path d="M95.1093 85.2579C95.1093 85.2579 94.4311 85.2264 94 86.3725L95.1093 85.2579Z" fill="white"/>
<path d="M95.1093 85.2579C95.1093 85.2579 94.4311 85.2264 94 86.3725" stroke="#263238" stroke-width="0.75" stroke-linecap="round" stroke-linejoin="round"/>
<path d="M181.492 35.7578C184.887 38.4256 188.119 41.2943 191.171 44.3484" stroke="#263238" stroke-width="0.75" stroke-linecap="round" stroke-linejoin="round"/>
<path d="M177.828 32.999C178.47 33.4617 179.111 33.9296 179.742 34.408" stroke="#263238" stroke-width="0.75" stroke-linecap="round" stroke-linejoin="round"/>
<path d="M174.156 30.4766C174.815 30.9077 175.471 31.3493 176.123 31.8014" stroke="#263238" stroke-width="0.75" stroke-linecap="round" stroke-linejoin="round"/>
<path d="M147.266 17.7578C155.972 20.4658 164.294 24.2806 172.028 29.1085" stroke="#263238" stroke-width="0.75" stroke-linecap="round" stroke-linejoin="round"/>
<path d="M141.523 16.1377C142.575 16.4076 143.635 16.6915 144.704 16.9894" stroke="#263238" stroke-width="0.75" stroke-linecap="round" stroke-linejoin="round"/>
<path d="M135.609 14.8252C136.766 15.046 137.919 15.2878 139.069 15.5507" stroke="#263238" stroke-width="0.75" stroke-linecap="round" stroke-linejoin="round"/>
<path d="M130.359 13.9502C131.358 14.0939 132.354 14.2481 133.346 14.4128" stroke="#263238" stroke-width="0.75" stroke-linecap="round" stroke-linejoin="round"/>
<path d="M98.6406 14.1586C108.384 12.641 118.29 12.4641 128.082 13.6328" stroke="#263238" stroke-width="0.75" stroke-linecap="round" stroke-linejoin="round"/>
<path d="M94.3047 14.9239C95.1984 14.7504 96.0975 14.5822 96.9912 14.4297" stroke="#263238" stroke-width="0.75" stroke-linecap="round" stroke-linejoin="round"/>
<path d="M90.0938 15.8439C90.9928 15.6283 91.8865 15.4285 92.7908 15.2393" stroke="#263238" stroke-width="0.75" stroke-linecap="round" stroke-linejoin="round"/>
<path d="M84.9219 17.2217C85.8367 16.9536 86.7515 16.6959 87.6715 16.4541" stroke="#263238" stroke-width="0.75" stroke-linecap="round" stroke-linejoin="round"/>
<path d="M53.6406 32.2621C62.3457 26.1598 71.9149 21.3947 82.0305 18.125" stroke="#263238" stroke-width="0.75" stroke-linecap="round" stroke-linejoin="round"/>
<path d="M49.4297 35.3775C50.2498 34.7431 51.0788 34.1192 51.9164 33.5059" stroke="#263238" stroke-width="0.75" stroke-linecap="round" stroke-linejoin="round"/>
<path d="M45.1719 38.8487C46.0709 38.0706 46.9857 37.3136 47.9057 36.5723" stroke="#263238" stroke-width="0.75" stroke-linecap="round" stroke-linejoin="round"/>
<path d="M39.25 44.3476C40.4837 43.1139 41.7385 41.917 43.0143 40.7568" stroke="#263238" stroke-width="0.75" stroke-linecap="round" stroke-linejoin="round"/>
<path d="M80.0123 28.1852C81.6877 21.158 77.3493 14.1032 70.3222 12.4278C63.295 10.7525 56.2402 15.0909 54.5648 22.118C52.8894 29.1452 57.2279 36.2 64.255 37.8754C71.2821 39.5508 78.3369 35.2123 80.0123 28.1852Z" fill="#334155"/>
<mask id="mask2_3412_14752" style="mask-type:luminance" maskUnits="userSpaceOnUse" x="54" y="12" width="27" height="27">
<path d="M80.0123 28.1852C81.6877 21.158 77.3493 14.1032 70.3222 12.4278C63.295 10.7525 56.2402 15.0909 54.5648 22.118C52.8894 29.1452 57.2279 36.2 64.255 37.8754C71.2821 39.5508 78.3369 35.2123 80.0123 28.1852Z" fill="white"/>
</mask>
<g mask="url(#mask2_3412_14752)">
<path opacity="0.3" d="M80.0123 28.1852C81.6877 21.158 77.3493 14.1032 70.3222 12.4278C63.295 10.7525 56.2402 15.0909 54.5648 22.118C52.8894 29.1452 57.2279 36.2 64.255 37.8754C71.2821 39.5508 78.3369 35.2123 80.0123 28.1852Z" fill="white"/>
</g>
<path d="M80.0123 28.1852C81.6877 21.158 77.3493 14.1032 70.3222 12.4278C63.295 10.7525 56.2402 15.0909 54.5648 22.118C52.8894 29.1452 57.2279 36.2 64.255 37.8754C71.2821 39.5508 78.3369 35.2123 80.0123 28.1852Z" stroke="#263238" stroke-width="0.75" stroke-linecap="round" stroke-linejoin="round"/>
<path d="M60.9948 30.2868V27.0115C60.9948 26.1913 60.7635 25.96 59.875 25.96V24.3565C60.7635 24.3565 60.9948 24.1094 60.9948 23.305V20.0297C60.9715 19.7642 61.0067 19.4969 61.0978 19.2465C61.1889 18.9961 61.3338 18.7686 61.5222 18.5802C61.7106 18.3918 61.938 18.2469 62.1884 18.1558C62.4388 18.0647 62.7062 18.0296 62.9716 18.0529H63.9705V19.6301H63.6814C63.061 19.6301 62.7403 19.914 62.7403 20.8971V23.5626C62.7759 23.912 62.686 24.2626 62.4865 24.5516C62.2871 24.8406 61.9913 25.0492 61.652 25.1398V25.1766C61.9913 25.2673 62.2871 25.4758 62.4865 25.7649C62.686 26.0539 62.7759 26.4045 62.7403 26.7539V29.4246C62.7403 30.4025 63.061 30.6864 63.6814 30.6864H63.9705V32.2636H62.9716C62.7062 32.2869 62.4388 32.2518 62.1884 32.1606C61.938 32.0695 61.7106 31.9247 61.5222 31.7363C61.3338 31.5478 61.1889 31.3204 61.0978 31.07C61.0067 30.8196 60.9715 30.5523 60.9948 30.2868Z" fill="white" stroke="#263238" stroke-width="0.75" stroke-linecap="round" stroke-linejoin="round"/>
<path d="M70.5781 30.6581H70.862C71.4877 30.6581 71.8084 30.3742 71.8084 29.3963V26.7255C71.7735 26.3771 71.8632 26.0275 72.0614 25.7389C72.2596 25.4502 72.5537 25.241 72.8914 25.1483V25.1115C72.5531 25.0198 72.2585 24.8108 72.0601 24.5219C71.8617 24.233 71.7725 23.8829 71.8084 23.5343V20.8688C71.8084 19.8857 71.4877 19.6018 70.862 19.6018H70.5781V18.0246H71.577C71.8425 18.0013 72.1098 18.0364 72.3602 18.1275C72.6106 18.2186 72.838 18.3635 73.0265 18.5519C73.2149 18.7403 73.3597 18.9677 73.4508 19.2182C73.542 19.4686 73.5771 19.7359 73.5538 20.0013V23.2767C73.5538 24.0969 73.7851 24.3282 74.6736 24.3282V25.9317C73.7851 25.9317 73.5538 26.1788 73.5538 26.9832V30.2585C73.5771 30.524 73.542 30.7913 73.4508 31.0417C73.3597 31.2921 73.2149 31.5195 73.0265 31.7079C72.838 31.8964 72.6106 32.0412 72.3602 32.1323C72.1098 32.2234 71.8425 32.2586 71.577 32.2353H70.5781V30.6581Z" fill="white" stroke="#263238" stroke-width="0.75" stroke-linecap="round" stroke-linejoin="round"/>
<path d="M41.9416 41.8408H34.3972C30.9245 41.8408 28.1094 44.656 28.1094 48.1287V55.673C28.1094 59.1457 30.9245 61.9609 34.3972 61.9609H41.9416C45.4143 61.9609 48.2294 59.1457 48.2294 55.673V48.1287C48.2294 44.656 45.4143 41.8408 41.9416 41.8408Z" fill="#334155" stroke="#263238" stroke-width="0.75" stroke-linecap="round" stroke-linejoin="round"/>
<path d="M30.8828 52.3853V51.4127L34.9047 49.6777V50.7292L32.1341 51.9016L34.9047 53.0688V54.1202L30.8828 52.3853Z" fill="white" stroke="#263238" stroke-width="0.75" stroke-linecap="round" stroke-linejoin="round"/>
<path d="M39.362 47.3047H40.6132L36.9856 56.5051H35.7344L39.362 47.3047Z" fill="white" stroke="#263238" stroke-width="0.75" stroke-linecap="round" stroke-linejoin="round"/>
<path d="M41.4375 53.0705L44.2081 51.9033L41.4375 50.7204V49.6689L45.4594 51.4039V52.3765L41.4375 54.1114V53.0705Z" fill="white" stroke="#263238" stroke-width="0.75" stroke-linecap="round" stroke-linejoin="round"/>
<path d="M170.95 24.7228C172.353 18.7203 168.625 12.7167 162.622 11.3133C156.62 9.90985 150.616 13.6381 149.213 19.6405C147.81 25.6429 151.538 31.6465 157.54 33.0499C163.543 34.4534 169.546 30.7252 170.95 24.7228Z" fill="#334155"/>
<mask id="mask3_3412_14752" style="mask-type:luminance" maskUnits="userSpaceOnUse" x="148" y="11" width="24" height="23">
<path d="M170.95 24.7179C172.353 18.7155 168.625 12.7118 162.622 11.3084C156.62 9.90497 150.616 13.6332 149.213 19.6356C147.81 25.638 151.538 31.6416 157.54 33.045C163.543 34.4485 169.546 30.7203 170.95 24.7179Z" fill="white"/>
</mask>
<g mask="url(#mask3_3412_14752)">
<path opacity="0.2" d="M170.95 24.7179C172.353 18.7155 168.625 12.7118 162.622 11.3084C156.62 9.90497 150.616 13.6332 149.213 19.6356C147.81 25.638 151.538 31.6416 157.54 33.045C163.543 34.4485 169.546 30.7203 170.95 24.7179Z" fill="black"/>
</g>
<path d="M170.95 24.7228C172.353 18.7203 168.625 12.7167 162.622 11.3133C156.62 9.90985 150.616 13.6381 149.213 19.6405C147.81 25.6429 151.538 31.6465 157.54 33.0499C163.543 34.4534 169.546 30.7252 170.95 24.7228Z" stroke="#263238" stroke-width="0.75" stroke-linecap="round" stroke-linejoin="round"/>
<path d="M153.172 24.4961V19.8696C153.172 18.5394 153.861 17.7666 155.164 17.7666C156.468 17.7666 157.157 18.55 157.157 19.8696V20.7791H155.879V19.7854C155.879 19.2176 155.606 18.9863 155.201 18.9863C154.796 18.9863 154.528 19.2176 154.528 19.7854V24.5907C154.528 25.1585 154.796 25.3793 155.201 25.3793C155.606 25.3793 155.879 25.1585 155.879 24.5907V23.2764H157.157V24.4961C157.157 25.8209 156.468 26.599 155.164 26.599C153.861 26.599 153.172 25.8209 153.172 24.4961Z" fill="white" stroke="#263238" stroke-width="0.75" stroke-linecap="round" stroke-linejoin="round"/>
<path d="M159.456 22.6602H157.805V21.6981H159.456V20.042H160.412V21.6981H162.063V22.6602H160.412V24.3425H159.456V22.6602Z" fill="white" stroke="#263238" stroke-width="0.75" stroke-linecap="round" stroke-linejoin="round"/>
<path d="M164.37 22.6602H162.719V21.6981H164.37V20.042H165.326V21.6981H166.977V22.6602H165.326V24.3425H164.37V22.6602Z" fill="white" stroke="#263238" stroke-width="0.75" stroke-linecap="round" stroke-linejoin="round"/>
<path d="M117.286 0.375H107.197C103.248 0.375 100.047 3.57619 100.047 7.52505V17.614C100.047 21.5629 103.248 24.764 107.197 24.764H117.286C121.235 24.764 124.436 21.5629 124.436 17.614V7.52505C124.436 3.57619 121.235 0.375 117.286 0.375Z" fill="#334155" stroke="#263238" stroke-width="0.75" stroke-linecap="round" stroke-linejoin="round"/>
<path d="M104.906 15.135V9.99849C104.906 8.52117 105.674 7.64844 107.12 7.64844C108.565 7.64844 109.359 8.52117 109.359 9.99849V11.0079H107.94V9.8986C107.94 9.27297 107.635 9.01536 107.188 9.01536C106.741 9.01536 106.436 9.27297 106.436 9.8986V15.2401C106.436 15.871 106.736 16.1181 107.188 16.1181C107.64 16.1181 107.94 15.871 107.94 15.2401V13.7786H109.359V15.135C109.359 16.607 108.592 17.4798 107.146 17.4798C105.7 17.4798 104.906 16.607 104.906 15.135Z" fill="white" stroke="#263238" stroke-width="0.75" stroke-linecap="round" stroke-linejoin="round"/>
<path d="M110.008 15.0795V14.5538H111.427V15.211C111.427 15.8944 111.727 16.1415 112.205 16.1415C112.684 16.1415 112.983 15.8944 112.983 15.1847C112.983 14.3908 112.684 13.8861 111.701 13.0239C110.444 11.9198 110.034 11.1418 110.034 10.0482C110.034 8.5446 110.812 7.67188 112.274 7.67188C113.735 7.67188 114.461 8.5446 114.461 10.0745V10.4688H113.041V9.97987C113.041 9.29641 112.768 9.0388 112.29 9.0388C111.811 9.0388 111.543 9.29641 111.543 9.95358C111.543 10.6108 111.853 11.1523 112.836 12.0145C114.093 13.1185 114.492 13.8861 114.492 15.0743C114.492 16.6515 113.699 17.5032 112.221 17.5032C110.744 17.5032 110.008 16.6094 110.008 15.0795Z" fill="white" stroke="#263238" stroke-width="0.75" stroke-linecap="round" stroke-linejoin="round"/>
<path d="M115.094 15.0795V14.5538H116.513V15.211C116.513 15.8944 116.813 16.1415 117.291 16.1415C117.77 16.1415 118.069 15.8944 118.069 15.1847C118.069 14.3908 117.77 13.8861 116.787 13.0239C115.53 11.9198 115.12 11.1418 115.12 10.0482C115.12 8.5446 115.898 7.67188 117.36 7.67188C118.821 7.67188 119.547 8.5446 119.547 10.0745V10.4688H118.122V9.97987C118.122 9.29641 117.849 9.0388 117.37 9.0388C116.892 9.0388 116.624 9.29641 116.624 9.95358C116.624 10.6108 116.934 11.1523 117.917 12.0145C119.173 13.1185 119.573 13.8861 119.573 15.0743C119.573 16.6515 118.779 17.5032 117.302 17.5032C115.825 17.5032 115.094 16.6094 115.094 15.0795Z" fill="white" stroke="#263238" stroke-width="0.75" stroke-linecap="round" stroke-linejoin="round"/>
<path d="M200.441 48.3812C201.867 42.3991 198.174 36.3934 192.192 34.9672C186.21 33.5409 180.204 37.2342 178.778 43.2163C177.352 49.1984 181.045 55.2041 187.027 56.6303C193.009 58.0565 199.015 54.3633 200.441 48.3812Z" fill="#334155"/>
<mask id="mask4_3412_14752" style="mask-type:luminance" maskUnits="userSpaceOnUse" x="178" y="34" width="23" height="23">
<path d="M200.441 48.3841C201.867 42.402 198.174 36.3963 192.192 34.9701C186.21 33.5439 180.204 37.2371 178.778 43.2192C177.352 49.2013 181.045 55.207 187.027 56.6332C193.009 58.0595 199.015 54.3662 200.441 48.3841Z" fill="white"/>
</mask>
<g mask="url(#mask4_3412_14752)">
<path opacity="0.3" d="M200.441 48.3841C201.867 42.402 198.174 36.3963 192.192 34.9701C186.21 33.5439 180.204 37.2371 178.778 43.2192C177.352 49.2013 181.045 55.207 187.027 56.6332C193.009 58.0595 199.015 54.3662 200.441 48.3841Z" fill="white"/>
</g>
<path d="M200.441 48.3812C201.867 42.3991 198.174 36.3934 192.192 34.9672C186.21 33.5409 180.204 37.2342 178.778 43.2163C177.352 49.1984 181.045 55.2041 187.027 56.6303C193.009 58.0565 199.015 54.3633 200.441 48.3812Z" stroke="#263238" stroke-width="0.75" stroke-linecap="round" stroke-linejoin="round"/>
<path d="M185.211 48.0018V43.5804C185.211 42.3133 185.868 41.5615 187.114 41.5615C188.36 41.5615 189.017 42.3133 189.017 43.5804V44.4531H187.798V43.5015C187.798 42.9758 187.535 42.7339 187.151 42.7339C186.767 42.7339 186.504 42.96 186.504 43.5015V48.0912C186.504 48.6169 186.762 48.843 187.151 48.843C187.54 48.843 187.798 48.6327 187.798 48.0912V46.8347H189.017V47.9966C189.017 49.2636 188.36 50.0154 187.114 50.0154C185.868 50.0154 185.211 49.2689 185.211 48.0018Z" fill="white" stroke="#263238" stroke-width="0.75" stroke-linecap="round" stroke-linejoin="round"/>
<path d="M190.078 47.5653H189.5L189.595 46.6505H190.173L190.394 44.5002H189.8L189.894 43.5802H190.483L190.683 41.6875H191.703L191.503 43.5802H192.339L192.539 41.6875H193.564L193.364 43.5802H193.964L193.869 44.5002H193.27L193.043 46.6505H193.643L193.548 47.5653H192.954L192.707 49.9153H191.687L191.934 47.5653H191.098L190.851 49.9153H189.831L190.078 47.5653ZM192.029 46.6505L192.25 44.5002H191.419L191.193 46.6505H192.029Z" fill="white" stroke="#263238" stroke-width="0.75" stroke-linecap="round" stroke-linejoin="round"/>
<path d="M57.9606 174.01H56.0101L55.4844 96.5898H57.9606V174.01Z" fill="#858585" stroke="#263238" stroke-linecap="round" stroke-linejoin="round"/>
<path d="M59.9062 174.01H57.9609V96.5898H60.4319L59.9062 174.01Z" fill="#999999" stroke="#263238" stroke-linecap="round" stroke-linejoin="round"/>
<path d="M169.297 91.8525H35.6484V96.5947H169.297V91.8525Z" fill="#263238" stroke="#263238" stroke-linecap="round" stroke-linejoin="round"/>
<path d="M197.222 91.8525H167.297V96.5947H197.222V91.8525Z" fill="#858585" stroke="#263238" stroke-linecap="round" stroke-linejoin="round"/>
<path d="M175.349 96.5898H42.4844V104.402H175.349V96.5898Z" fill="#334155" stroke="#263238" stroke-miterlimit="10"/>
<path d="M175.356 104.408H190.828V96.5957H175.356V104.408Z" fill="#334155"/>
<mask id="mask5_3412_14752" style="mask-type:luminance" maskUnits="userSpaceOnUse" x="175" y="96" width="16" height="9">
<path d="M175.332 104.408H190.805V96.5957H175.332V104.408Z" fill="white"/>
</mask>
<g mask="url(#mask5_3412_14752)">
<path opacity="0.3" d="M175.332 104.408H190.805V96.5957H175.332V104.408Z" fill="black"/>
</g>
<path d="M175.356 104.408H190.828V96.5957H175.356V104.408Z" stroke="#263238" stroke-miterlimit="10"/>
<path d="M175.354 174.01H173.409L172.883 96.5898H175.354V174.01Z" fill="#858585" stroke="#263238" stroke-linecap="round" stroke-linejoin="round"/>
<path d="M177.31 174.01H175.359V96.5898H177.836L177.31 174.01Z" fill="#999999" stroke="#263238" stroke-linecap="round" stroke-linejoin="round"/>
<path d="M42.4919 174.01H40.5414L40.0156 96.5898H42.4919V174.01Z" fill="#858585" stroke="#263238" stroke-linecap="round" stroke-linejoin="round"/>
<path d="M44.4296 174.01H42.4844V96.5898H44.9553L44.4296 174.01Z" fill="#999999" stroke="#263238" stroke-linecap="round" stroke-linejoin="round"/>
<path d="M190.828 174.01H188.877L188.352 96.5898H190.828V174.01Z" fill="#858585" stroke="#263238" stroke-linecap="round" stroke-linejoin="round"/>
<path d="M192.773 174.01H190.828V96.5898H193.299L192.773 174.01Z" fill="#999999" stroke="#263238" stroke-linecap="round" stroke-linejoin="round"/>
<path d="M122.014 91.3281H106.352C106.198 91.3267 106.051 91.2646 105.942 91.1553C105.834 91.046 105.773 90.8984 105.773 90.7445V89.4512L122.597 89.9769V90.7445C122.597 90.8993 122.536 91.0477 122.426 91.1571C122.317 91.2666 122.168 91.3281 122.014 91.3281Z" fill="#858585" stroke="#263238" stroke-linecap="round" stroke-linejoin="round"/>
<path d="M104.012 91.3265H72.5252C72.2662 91.3168 72.0165 91.2272 71.8104 91.0701C71.6042 90.9129 71.4518 90.6958 71.3739 90.4486L64.6128 68.5042C64.5622 68.3761 64.5442 68.2375 64.5605 68.1007C64.5768 67.964 64.6268 67.8334 64.706 67.7208C64.7853 67.6082 64.8913 67.517 65.0145 67.4555C65.1378 67.3941 65.2743 67.3642 65.412 67.3686H96.8985C97.1571 67.3772 97.4067 67.4657 97.6129 67.622C97.8191 67.7783 97.9717 67.9947 98.0499 68.2413L104.811 90.1857C104.861 90.3141 104.879 90.4529 104.863 90.5898C104.846 90.7267 104.796 90.8575 104.717 90.9704C104.638 91.0834 104.532 91.175 104.409 91.2371C104.286 91.2993 104.15 91.33 104.012 91.3265Z" fill="#999999" stroke="#263238" stroke-linecap="round" stroke-linejoin="round"/>
<path d="M106.212 90.1853L99.4508 68.2409C99.3727 67.9942 99.22 67.7779 99.0138 67.6216C98.8076 67.4653 98.5581 67.3767 98.2995 67.3682H96.9062C97.1648 67.3767 97.4144 67.4653 97.6206 67.6216C97.8268 67.7779 97.9795 67.9942 98.0576 68.2409L104.819 90.1853C104.869 90.3136 104.887 90.4525 104.87 90.5894C104.854 90.7263 104.804 90.8571 104.725 90.97C104.646 91.083 104.54 91.1746 104.417 91.2367C104.294 91.2988 104.157 91.3296 104.02 91.3261H105.434C105.57 91.3261 105.704 91.2928 105.824 91.2292C105.944 91.1656 106.047 91.0736 106.124 90.9612C106.201 90.8488 106.249 90.7193 106.264 90.5841C106.279 90.4489 106.261 90.312 106.212 90.1853Z" fill="#858585" stroke="#263238" stroke-linecap="round" stroke-linejoin="round"/>
<path d="M86.6665 79.3482C86.7051 79.5926 86.6895 79.8425 86.6208 80.0802C86.5521 80.3179 86.432 80.5376 86.269 80.7237C86.106 80.9098 85.904 81.0577 85.6774 81.1571C85.4508 81.2565 85.2052 81.3048 84.9578 81.2987C84.4214 81.2853 83.9071 81.0818 83.5066 80.7246C83.106 80.3674 82.8453 79.8797 82.7708 79.3482C82.732 79.1041 82.7476 78.8544 82.8163 78.617C82.885 78.3795 83.0052 78.1602 83.1684 77.9744C83.3315 77.7887 83.5336 77.6412 83.7602 77.5425C83.9868 77.4437 84.2323 77.3961 84.4794 77.403C85.0148 77.4173 85.5279 77.6204 85.9281 77.9763C86.3283 78.3323 86.5898 78.8182 86.6665 79.3482Z" fill="white" stroke="#263238" stroke-linecap="round" stroke-linejoin="round"/>
</svg>
