<svg width="40" height="40" viewBox="0 0 40 40" fill="none" xmlns="http://www.w3.org/2000/svg">
<path d="M5 2.5H2.5V35C2.5 35.663 2.76339 36.2989 3.23223 36.7678C3.70107 37.2366 4.33696 37.5 5 37.5H37.5V35H5V2.5Z" fill="white"/>
<path d="M37.5 11.25H28.75V13.75H33.2375L23.75 23.2375L18.3875 17.8625C18.2713 17.7453 18.133 17.6523 17.9807 17.5889C17.8284 17.5254 17.665 17.4928 17.5 17.4928C17.335 17.4928 17.1716 17.5254 17.0193 17.5889C16.867 17.6523 16.7287 17.7453 16.6125 17.8625L7.5 26.9875L9.2625 28.75L17.5 20.5125L22.8625 25.8875C22.9787 26.0047 23.117 26.0977 23.2693 26.1611C23.4216 26.2246 23.585 26.2572 23.75 26.2572C23.915 26.2572 24.0784 26.2246 24.2307 26.1611C24.383 26.0977 24.5213 26.0047 24.6375 25.8875L35 15.5125V20H37.5V11.25Z" fill="white"/>
</svg>
