<svg width="243" height="181" viewBox="0 0 243 181" fill="none" xmlns="http://www.w3.org/2000/svg">
<path d="M242.908 159.058H0V159.179H242.908V159.058Z" fill="#EBEBEB"/>
<path d="M218.567 166.874H202.477V166.995H218.567V166.874Z" fill="#EBEBEB"/>
<path d="M160.901 168.196H156.68V168.318H160.901V168.196Z" fill="#EBEBEB"/>
<path d="M201.987 162.368H192.664V162.49H201.987V162.368Z" fill="#EBEBEB"/>
<path d="M46.4668 163.181H25.4844V163.302H46.4668V163.181Z" fill="#EBEBEB"/>
<path d="M53.8721 163.181H50.7969V163.302H53.8721V163.181Z" fill="#EBEBEB"/>
<path d="M109.378 165.231H63.8672V165.353H109.378V165.231Z" fill="#EBEBEB"/>
<path d="M115.138 137.389H21.3317C20.5968 137.388 19.8924 137.095 19.3733 136.575C18.8541 136.055 18.5625 135.35 18.5625 134.615V2.74972C18.5689 2.01906 18.8633 1.32044 19.3818 0.805589C19.9003 0.290741 20.601 0.00125165 21.3317 0H115.138C115.874 0 116.579 0.292261 117.099 0.812489C117.62 1.33272 117.912 2.0383 117.912 2.77401V134.615C117.912 135.351 117.62 136.056 117.099 136.576C116.579 137.097 115.874 137.389 115.138 137.389ZM21.3317 0.0971636C20.629 0.0984506 19.9556 0.378483 19.4592 0.875794C18.9628 1.37311 18.684 2.04706 18.684 2.74972V134.615C18.684 135.318 18.9628 135.991 19.4592 136.489C19.9556 136.986 20.629 137.266 21.3317 137.267H115.138C115.841 137.266 116.515 136.986 117.012 136.489C117.509 135.992 117.789 135.318 117.79 134.615V2.74972C117.789 2.04661 117.509 1.37267 117.012 0.875498C116.515 0.378325 115.841 0.0984479 115.138 0.0971636H21.3317Z" fill="#EBEBEB"/>
<path d="M220.226 137.389H126.415C125.679 137.388 124.974 137.095 124.455 136.575C123.935 136.055 123.642 135.35 123.641 134.615V2.74972C123.648 2.01862 123.944 1.32 124.463 0.805286C124.982 0.290571 125.683 0.001238 126.415 0H220.226C220.956 0.00252843 221.655 0.292582 222.172 0.807294C222.69 1.32201 222.984 2.0199 222.99 2.74972V134.615C222.99 135.349 222.699 136.053 222.181 136.573C221.663 137.093 220.96 137.386 220.226 137.389ZM126.415 0.0971636C125.712 0.0984479 125.038 0.378325 124.54 0.875498C124.043 1.37267 123.763 2.04661 123.762 2.74972V134.615C123.763 135.318 124.043 135.992 124.54 136.489C125.038 136.986 125.712 137.266 126.415 137.267H220.226C220.929 137.266 221.603 136.986 222.1 136.489C222.597 135.992 222.877 135.318 222.878 134.615V2.74972C222.877 2.04661 222.597 1.37267 222.1 0.875498C221.603 0.378325 220.929 0.0984479 220.226 0.0971636H126.415Z" fill="#EBEBEB"/>
<path d="M217.284 40.6201H153.914V43.8751H217.284V40.6201Z" fill="#E0E0E0"/>
<path d="M159.614 28.6182H156.82V40.6178H159.614V28.6182Z" fill="#EBEBEB"/>
<path d="M173.122 28.6182H170.328V40.6178H173.122V28.6182Z" fill="#EBEBEB"/>
<path d="M188.44 28.3126L185.688 28.7871L187.726 40.6124L190.479 40.1379L188.44 28.3126Z" fill="#EBEBEB"/>
<path d="M163.075 30.2012H160.281V40.6219H163.075V30.2012Z" fill="#EBEBEB"/>
<path d="M169.489 30.2012H166.695V40.6219H169.489V30.2012Z" fill="#EBEBEB"/>
<path d="M185.692 30.2012H182.898V40.6219H185.692V30.2012Z" fill="#EBEBEB"/>
<path d="M176.782 29.8344L174.055 30.4404L176.315 40.613L179.042 40.007L176.782 29.8344Z" fill="#EBEBEB"/>
<path d="M165.488 28.0205H164.094V40.6177H165.488V28.0205Z" fill="#EBEBEB"/>
<path d="M182.097 28.0205H180.703V40.6177H182.097V28.0205Z" fill="#EBEBEB"/>
<path d="M211.197 31.1191H197.594V40.51H211.197V31.1191Z" fill="#EBEBEB"/>
<path d="M153.904 68.1797L217.273 68.1797V64.9247L153.904 64.9247V68.1797Z" fill="#E0E0E0"/>
<path d="M211.566 64.9297H214.359V52.93H211.566V64.9297Z" fill="#EBEBEB"/>
<path d="M198.066 64.9297H200.859V52.93H198.066V64.9297Z" fill="#EBEBEB"/>
<path d="M180.708 64.4552L183.461 64.9297L185.499 53.1044L182.746 52.6299L180.708 64.4552Z" fill="#EBEBEB"/>
<path d="M208.105 64.9229H210.898V54.5021H208.105V64.9229Z" fill="#EBEBEB"/>
<path d="M201.691 64.9229H204.484V54.5021H201.691V64.9229Z" fill="#EBEBEB"/>
<path d="M185.488 64.9229H188.281V54.5021H185.488V64.9229Z" fill="#EBEBEB"/>
<path d="M192.148 64.3129L194.875 64.9189L197.136 54.7464L194.409 54.1403L192.148 64.3129Z" fill="#EBEBEB"/>
<path d="M205.692 64.9229H207.086V52.3256H205.692V64.9229Z" fill="#EBEBEB"/>
<path d="M189.082 64.9229H190.477V52.3256H189.082V64.9229Z" fill="#EBEBEB"/>
<path d="M159.975 64.8203H173.578V55.4295H159.975V64.8203Z" fill="#EBEBEB"/>
<path d="M25.75 102.507V159.347H28.6649V108.337H80.1614V159.347H83.5621V102.507H25.75Z" fill="#E0E0E0"/>
<path d="M57.8125 102.507V159.347H60.7274V108.337H112.224V159.347H115.625V102.507H57.8125Z" fill="#F5F5F5"/>
<path d="M76.2215 81.3261C75.5705 80.2573 74.5017 81.1901 74.5017 81.1901C74.6523 79.1351 72.7674 77.7359 72.7674 77.7359C72.7674 77.7359 74.9584 77.7359 75.2645 75.6421C75.5705 73.5482 74.5017 74.5247 73.4961 74.5101C72.4905 74.4956 71.4411 77.425 72.7674 79.0768C74.0936 80.7286 73.739 83.5463 70.6784 86.2523C69.9459 86.9366 69.3964 87.7934 69.08 88.7445C69.3132 86.2572 69.4444 82.7496 68.7108 80.4128C67.4671 76.434 69.8379 75.3652 70.5229 73.3782C71.2079 71.3912 68.7108 69.7054 68.7108 69.7054C68.7108 69.7054 71.0622 68.6366 69.9108 67.4123C68.7594 66.1881 66.3983 66.3533 66.3983 67.9565C66.3983 69.5597 68.0015 70.1669 68.0015 70.1669C68.0015 70.1669 69.8379 72.0762 69.8379 73.0818C69.8379 74.0875 68.0015 76.2153 68.0015 76.2153C68.0015 76.2153 68.842 74.3838 67.161 74.3061C65.4801 74.2284 64.9409 76.4437 65.6307 77.4396C66.3206 78.4355 67.4671 77.5902 67.4671 77.5902C67.5373 78.7503 67.7129 79.9015 67.9918 81.0298C68.1618 81.603 68.0841 83.8475 67.9384 86.1794C67.6187 85.3373 67.1081 84.5807 66.4469 83.969C63.3911 81.263 63.0462 78.4452 64.3579 76.7935C65.6696 75.1417 64.6348 72.2122 63.6292 72.2268C62.6235 72.2414 61.5547 71.2552 61.8608 73.3587C62.1669 75.4623 64.3579 75.4526 64.3579 75.4526C64.3579 75.4526 62.4729 76.8518 62.6284 78.9068C62.6284 78.9068 61.5547 77.974 60.9037 79.0428C59.7475 80.9569 62.434 82.1423 62.8859 81.1998C62.8859 81.1998 68.5893 85.237 67.2145 91.0473L67.5351 91.5331C67.4914 92.019 67.4671 92.2862 67.4671 92.2862L67.9141 92.0967L68.3999 92.8448C68.3826 93.689 68.4264 94.5333 68.531 95.3711L69.8913 93.3549C68.5165 87.5252 74.22 83.5074 74.22 83.5074C74.6912 84.4256 77.3826 83.2402 76.2215 81.3261Z" fill="#E0E0E0"/>
<path d="M72.7619 102.504L70.9206 91.9669L71.4405 88.9014H65.6447L66.1645 91.9669L64.3281 102.504H72.7619Z" fill="#EBEBEB"/>
<path d="M121.461 180.997C173.483 180.997 215.655 178.535 215.655 175.497C215.655 172.46 173.483 169.998 121.461 169.998C69.4381 169.998 27.2656 172.46 27.2656 175.497C27.2656 178.535 69.4381 180.997 121.461 180.997Z" fill="#F5F5F5"/>
<path d="M146.106 25.406L131.141 17.3242L120.587 36.8681L135.552 44.9499L146.106 25.406Z" fill="#334155"/>
<path opacity="0.6" d="M146.106 25.406L131.141 17.3242L120.587 36.8681L135.552 44.9499L146.106 25.406Z" fill="white"/>
<path d="M142.374 26.9712L131.875 21.3018L131.305 22.3576L141.803 28.0271L142.374 26.9712Z" fill="#334155"/>
<path d="M141.381 28.8218L130.883 23.1523L130.313 24.2082L140.811 29.8777L141.381 28.8218Z" fill="#334155"/>
<path d="M140.374 30.6646L129.875 24.9951L129.305 26.051L139.803 31.7204L140.374 30.6646Z" fill="#334155"/>
<path d="M139.374 32.5152L128.875 26.8457L128.305 27.9016L138.803 33.571L139.374 32.5152Z" fill="#334155"/>
<path d="M138.381 34.3619L127.883 28.6924L127.313 29.7482L137.811 35.4177L138.381 34.3619Z" fill="#334155"/>
<path d="M137.381 36.2154L126.883 30.5459L126.313 31.6017L136.811 37.2712L137.381 36.2154Z" fill="#334155"/>
<path d="M136.381 38.0591L125.883 32.3896L125.313 33.4455L135.811 39.115L136.381 38.0591Z" fill="#334155"/>
<path d="M131.68 37.9136L124.883 34.2432L124.313 35.299L131.109 38.9694L131.68 37.9136Z" fill="#334155"/>
<path d="M106.337 25.5497C104.22 25.3331 102.214 24.4934 100.574 23.137C98.9344 21.7806 97.7335 19.9683 97.1234 17.9293C96.5134 15.8903 96.5216 13.7162 97.1472 11.6819C97.7728 9.64765 98.9875 7.84455 100.638 6.50066C102.288 5.15676 104.3 4.33242 106.419 4.13187C108.538 3.93133 110.668 4.36358 112.541 5.37399C114.415 6.38439 115.946 7.92756 116.942 9.80834C117.938 11.6891 118.354 13.8231 118.138 15.9403C117.843 18.7779 116.436 21.3829 114.224 23.1843C112.012 24.9857 109.176 25.8363 106.337 25.5497Z" fill="#334155"/>
<path opacity="0.3" d="M108.187 24.6264C113.593 24.2103 117.639 19.4902 117.223 14.0837C116.807 8.67714 112.087 4.63152 106.68 5.04753C101.273 5.46354 97.2279 10.1837 97.6439 15.5902C98.0599 20.9967 102.78 25.0424 108.187 24.6264Z" fill="white"/>
<path d="M110.767 11.6607C109.635 10.8591 108.056 8.11907 108.056 8.10449L107.036 18.0346C107.06 17.8111 106.176 17.5828 105.578 17.5488C104.155 17.3982 102.955 18.0686 102.858 19.0062C102.761 19.9438 103.829 20.8766 105.287 21.0223C106.744 21.1681 107.896 20.4977 107.998 19.5357C107.998 19.39 107.896 19.2345 107.91 19.1034L108.692 11.4518C109.277 12.1247 109.995 12.6689 110.801 13.0501C111.874 13.5359 112.258 15.0274 112.258 15.0274C112.311 14.3863 112.202 13.7422 111.941 13.154C111.681 12.5659 111.277 12.0524 110.767 11.6607Z" fill="white"/>
<path opacity="0.5" d="M109.26 18.2835C113.057 16.3146 114.812 12.1678 113.18 9.02137C111.548 5.87491 107.148 4.92029 103.351 6.88915C99.5544 8.85802 97.7993 13.0048 99.431 16.1513C101.063 19.2977 105.463 20.2523 109.26 18.2835Z" fill="white"/>
<path d="M86.3636 0.877202L63.2422 2.75781L64.6502 20.0686L87.7716 18.188L86.3636 0.877202Z" fill="#334155"/>
<path d="M85.3448 2.09162L64.5234 3.78516L65.7444 18.7959L86.5657 17.1024L85.3448 2.09162Z" fill="#334155"/>
<path opacity="0.5" d="M85.3448 2.09162L64.5234 3.78516L65.7444 18.7959L86.5657 17.1024L85.3448 2.09162Z" fill="white"/>
<path d="M86.3902 15.0617L86.5554 17.1021L65.7333 18.7976L65.1406 11.5006L69.1292 7.39062L76.0132 13.0893L79.1904 10.3541L86.3902 15.0617Z" fill="#334155"/>
<path opacity="0.3" d="M86.3902 15.0617L86.5554 17.1021L65.7333 18.7976L65.1406 11.5006L69.1292 7.39062L76.0132 13.0893L79.1904 10.3541L86.3902 15.0617Z" fill="white"/>
<path d="M82.2001 6.31513C82.2269 6.64645 82.1548 6.97827 81.993 7.26863C81.8312 7.559 81.587 7.79488 81.2912 7.94645C80.9953 8.09802 80.6612 8.15848 80.331 8.12019C80.0008 8.08189 79.6894 7.94656 79.4361 7.7313C79.1828 7.51605 78.9991 7.23052 78.908 6.91083C78.817 6.59114 78.8228 6.25164 78.9247 5.93524C79.0265 5.61884 79.2199 5.33975 79.4804 5.13325C79.7409 4.92675 80.0568 4.80211 80.3881 4.77509C80.6082 4.75714 80.8297 4.78275 81.0399 4.85044C81.2501 4.91813 81.4449 5.02659 81.6132 5.16961C81.7815 5.31263 81.92 5.48741 82.0207 5.68397C82.1214 5.88052 82.1824 6.09499 82.2001 6.31513Z" fill="#334155"/>
<path opacity="0.3" d="M82.2001 6.31513C82.2269 6.64645 82.1548 6.97827 81.993 7.26863C81.8312 7.559 81.587 7.79488 81.2912 7.94645C80.9953 8.09802 80.6612 8.15848 80.331 8.12019C80.0008 8.08189 79.6894 7.94656 79.4361 7.7313C79.1828 7.51605 78.9991 7.23052 78.908 6.91083C78.817 6.59114 78.8228 6.25164 78.9247 5.93524C79.0265 5.61884 79.2199 5.33975 79.4804 5.13325C79.7409 4.92675 80.0568 4.80211 80.3881 4.77509C80.6082 4.75714 80.8297 4.78275 81.0399 4.85044C81.2501 4.91813 81.4449 5.02659 81.6132 5.16961C81.7815 5.31263 81.92 5.48741 82.0207 5.68397C82.1214 5.88052 82.1824 6.09499 82.2001 6.31513Z" fill="white"/>
<path d="M41.9693 21.3131L41.0754 20.7642C40.917 20.6662 40.7377 20.6068 40.552 20.5908C40.3664 20.5747 40.1796 20.6025 40.0066 20.6719L36.0375 22.3479C35.8707 22.4157 35.7243 22.5257 35.6127 22.6671C35.5012 22.8084 35.4283 22.9764 35.4011 23.1544L35.2554 24.126C35.2307 24.3037 35.1592 24.4715 35.0482 24.6124C34.9372 24.7533 34.7907 24.8621 34.6238 24.9276L32.253 25.8992C32.1176 25.9542 31.9952 26.037 31.8938 26.1423C31.7924 26.2476 31.7143 26.3729 31.6644 26.5103C31.6144 26.6477 31.5939 26.794 31.6041 26.9398C31.6143 27.0856 31.655 27.2276 31.7235 27.3567L38.0391 40.2988C38.1726 40.5671 38.402 40.7753 38.6819 40.8824C38.9617 40.9895 39.2715 40.9875 39.55 40.877L58.3316 33.0359C58.468 32.982 58.5914 32.8999 58.6937 32.7949C58.7961 32.69 58.8751 32.5646 58.9255 32.4269C58.976 32.2893 58.9968 32.1426 58.9865 31.9963C58.9763 31.8501 58.9352 31.7077 58.866 31.5784L52.5504 18.6411C52.4177 18.3721 52.1887 18.1627 51.9088 18.0547C51.6289 17.9467 51.3186 17.948 51.0395 18.0582L43.0381 21.4054C42.8652 21.4748 42.6784 21.5026 42.4928 21.4865C42.3071 21.4705 42.1278 21.4111 41.9693 21.3131Z" fill="#334155"/>
<path d="M53.4401 18.5406L36.2373 25.7501C35.8865 25.9019 35.6036 26.1772 35.4423 26.5238C35.2811 26.8704 35.2528 27.2642 35.3628 27.6303L39.1279 39.5473C39.1809 39.7181 39.2696 39.8757 39.3881 40.0096C39.5066 40.1436 39.6522 40.2509 39.8152 40.3243C39.9782 40.3978 40.155 40.4358 40.3339 40.4359C40.5127 40.4359 40.6895 40.398 40.8526 40.3246L58.0602 33.1248C58.4097 32.9714 58.6912 32.6959 58.8522 32.3498C59.0132 32.0037 59.0425 31.6109 58.9346 31.2447L55.1647 19.3277C55.1134 19.1556 55.0259 18.9964 54.908 18.861C54.7901 18.7255 54.6446 18.6168 54.4812 18.5423C54.3178 18.4677 54.1404 18.429 53.9608 18.4287C53.7812 18.4284 53.6037 18.4666 53.4401 18.5406Z" fill="#334155"/>
<path opacity="0.5" d="M53.4401 18.5406L36.2373 25.7501C35.8865 25.9019 35.6036 26.1772 35.4423 26.5238C35.2811 26.8704 35.2528 27.2642 35.3628 27.6303L39.1279 39.5473C39.1809 39.7181 39.2696 39.8757 39.3881 40.0096C39.5066 40.1436 39.6522 40.2509 39.8152 40.3243C39.9782 40.3978 40.155 40.4358 40.3339 40.4359C40.5127 40.4359 40.6895 40.398 40.8526 40.3246L58.0602 33.1248C58.4097 32.9714 58.6912 32.6959 58.8522 32.3498C59.0132 32.0037 59.0425 31.6109 58.9346 31.2447L55.1647 19.3277C55.1134 19.1556 55.0259 18.9964 54.908 18.861C54.7901 18.7255 54.6446 18.6168 54.4812 18.5423C54.3178 18.4677 54.1404 18.429 53.9608 18.4287C53.7812 18.4284 53.6037 18.4666 53.4401 18.5406Z" fill="white"/>
<path d="M115.85 47.1203C116.064 46.1173 116.171 45.0948 116.171 44.0694C116.171 42.1669 115.796 40.2831 115.068 38.5254C114.34 36.7678 113.273 35.1707 111.928 33.8255C110.583 32.4802 108.986 31.4131 107.228 30.6851C105.47 29.957 103.587 29.5823 101.684 29.5823C100.786 29.5832 99.8901 29.6662 99.0072 29.8301C98.638 29.7621 98.2639 29.8301 97.8801 29.7864C96.5148 26.8195 94.322 24.3099 91.5652 22.5587C88.8084 20.8076 85.6047 19.8895 82.3389 19.9146H76.9949C74.7583 19.9037 72.5415 20.3342 70.4715 21.1814C68.4016 22.0286 66.5191 23.2759 64.9319 24.8518C63.3447 26.4277 62.084 28.3012 61.2221 30.3651C60.3601 32.429 59.9138 34.6426 59.9087 36.8793C59.9087 37.0056 59.9087 37.0687 59.9087 37.1951C56.3746 37.8192 53.2043 39.7492 51.0269 42.6021C48.8495 45.4549 47.8242 49.0221 48.1545 52.5957C48.4847 56.1693 50.1464 59.4882 52.8098 61.8936C55.4731 64.2991 58.9435 65.6154 62.5321 65.5813H115C117.448 65.6928 119.84 64.8271 121.65 63.1749C123.46 61.5226 124.54 59.2191 124.651 56.771C124.763 54.3229 123.897 51.9308 122.245 50.121C120.592 48.3111 118.289 47.2317 115.841 47.1203H115.85Z" fill="#334155"/>
<path opacity="0.5" d="M115.85 47.1203C116.064 46.1173 116.171 45.0948 116.171 44.0694C116.171 42.1669 115.796 40.2831 115.068 38.5254C114.34 36.7678 113.273 35.1707 111.928 33.8255C110.583 32.4802 108.986 31.4131 107.228 30.6851C105.47 29.957 103.587 29.5823 101.684 29.5823C100.786 29.5832 99.8901 29.6662 99.0072 29.8301C98.638 29.7621 98.2639 29.8301 97.8801 29.7864C96.5148 26.8195 94.322 24.3099 91.5652 22.5587C88.8084 20.8076 85.6047 19.8895 82.3389 19.9146H76.9949C74.7583 19.9037 72.5415 20.3342 70.4715 21.1814C68.4016 22.0286 66.5191 23.2759 64.9319 24.8518C63.3447 26.4277 62.084 28.3012 61.2221 30.3651C60.3601 32.429 59.9138 34.6426 59.9087 36.8793C59.9087 37.0056 59.9087 37.0687 59.9087 37.1951C56.3746 37.8192 53.2043 39.7492 51.0269 42.6021C48.8495 45.4549 47.8242 49.0221 48.1545 52.5957C48.4847 56.1693 50.1464 59.4882 52.8098 61.8936C55.4731 64.2991 58.9435 65.6154 62.5321 65.5813H115C117.448 65.6928 119.84 64.8271 121.65 63.1749C123.46 61.5226 124.54 59.2191 124.651 56.771C124.763 54.3229 123.897 51.9308 122.245 50.121C120.592 48.3111 118.289 47.2317 115.841 47.1203H115.85Z" fill="white"/>
<path opacity="0.4" d="M115.85 47.1203C116.064 46.1173 116.171 45.0948 116.171 44.0694C116.171 42.1669 115.796 40.2831 115.068 38.5254C114.34 36.7678 113.273 35.1707 111.928 33.8255C110.582 32.4802 108.985 31.4131 107.228 30.6851C105.47 29.957 103.586 29.5823 101.684 29.5823C100.786 29.5832 99.8899 29.6662 99.007 29.8301C98.6378 29.7621 98.2637 29.8301 97.8799 29.7864C96.5145 26.8195 94.3218 24.3099 91.565 22.5587C88.8082 20.8076 85.6045 19.8895 82.3386 19.9146C80.102 19.9037 77.8852 20.3342 75.8153 21.1814C73.7453 22.0286 71.8628 23.2759 70.2756 24.8518C68.6885 26.4277 67.4278 28.3012 66.5658 30.3651C65.7039 32.429 65.2576 34.6426 65.2525 36.8793C65.2525 37.0056 65.2525 37.0687 65.2525 37.1951C61.7183 37.8192 58.548 39.7492 56.3706 42.6021C54.1932 45.4549 53.168 49.0221 53.4982 52.5957C53.8285 56.1693 55.4902 59.4882 58.1535 61.8936C60.8169 64.2991 64.2872 65.6154 67.8759 65.5813H115C117.448 65.6928 119.84 64.8271 121.65 63.1749C123.46 61.5226 124.539 59.2191 124.651 56.771C124.762 54.3229 123.897 51.9308 122.244 50.121C120.592 48.3111 118.289 47.2317 115.841 47.1203H115.85Z" fill="white"/>
<path d="M130.038 89.3873H113.68C107.24 89.3796 101.066 86.8179 96.5125 82.2641C91.9588 77.7104 89.3971 71.5364 89.3894 65.0964V60.2383H84.5312V65.0964C84.5403 72.8245 87.6142 80.2334 93.0787 85.698C98.5433 91.1625 105.952 94.2364 113.68 94.2454H130.038V89.3873Z" fill="#334155"/>
<path d="M86.8995 57.0029L82.6875 61.2101H91.1067L86.8995 57.0029Z" fill="#334155"/>
<path d="M50.6571 151.732L47.7422 142.827C49.1797 141.6 50.8729 140.709 52.6983 140.219C54.5237 139.729 56.4354 139.652 58.2941 139.994L60.7232 148.331L50.6571 151.732Z" fill="#334155"/>
<path opacity="0.7" d="M50.6571 151.732L47.7422 142.827C49.1797 141.6 50.8729 140.709 52.6983 140.219C54.5237 139.729 56.4354 139.652 58.2941 139.994L60.7232 148.331L50.6571 151.732Z" fill="white"/>
<g opacity="0.2">
<path d="M49.1328 144.933C49.4807 144.545 49.8664 144.192 50.2842 143.879C50.7107 143.55 51.1622 143.254 51.6348 142.995C51.8923 142.859 52.1643 142.713 52.4509 142.587C52.7376 142.461 53.0242 142.339 53.3303 142.247C53.6283 142.146 53.9316 142.062 54.2387 141.994L54.6906 141.892L55.1424 141.839C55.2881 141.839 55.4339 141.795 55.5747 141.785H55.9925C56.2486 141.771 56.5055 141.779 56.7601 141.81C56.9933 141.834 57.2071 141.853 57.3966 141.887L57.8824 141.999L58.2953 142.106C58.2953 142.106 58.135 142.106 57.8678 142.106L57.382 142.082H56.7504C56.505 142.088 56.2601 142.107 56.0168 142.14C55.7443 142.165 55.4734 142.205 55.2055 142.261L54.778 142.339L54.3505 142.451C54.0576 142.52 53.7689 142.606 53.4857 142.708C53.1894 142.786 52.9125 142.917 52.6307 143.019C52.3489 143.121 52.0866 143.252 51.8291 143.374C51.5716 143.495 51.3433 143.617 51.0907 143.748C50.838 143.879 50.6388 143.991 50.4397 144.107C50.0413 144.341 49.7109 144.54 49.468 144.695L49.1328 144.933Z" fill="black"/>
<path d="M49.3906 145.745C49.3906 145.745 49.5024 145.648 49.7161 145.497C49.9299 145.346 50.2311 145.128 50.6149 144.904C51.0506 144.641 51.4998 144.401 51.9606 144.185C52.4464 143.942 53.0245 143.729 53.5832 143.525C53.8699 143.442 54.1565 143.345 54.4383 143.267C54.72 143.189 55.0067 143.121 55.2836 143.078C55.5605 143.034 55.8277 142.971 56.0852 142.951C56.3427 142.932 56.571 142.898 56.809 142.893C57.169 142.883 57.5293 142.896 57.8876 142.932L58.2956 142.98C58.2956 142.98 58.145 143.005 57.8876 143.029C57.7612 143.029 57.6058 143.029 57.4309 143.078L56.8382 143.17C56.6196 143.204 56.3912 143.267 56.1435 143.311C55.8957 143.355 55.6577 143.437 55.3807 143.495C55.1038 143.554 54.8463 143.651 54.5694 143.719C54.2925 143.787 54.0205 143.899 53.7435 143.986C52.6359 144.355 51.5525 144.802 50.7412 145.147C50.338 145.327 49.993 145.463 49.7696 145.575L49.3906 145.745Z" fill="black"/>
<path d="M50.0781 147.405C50.1732 147.31 50.2737 147.221 50.3793 147.138C50.5737 146.977 50.8651 146.749 51.2149 146.501C51.6252 146.219 52.0519 145.961 52.4926 145.729C52.9968 145.458 53.5177 145.219 54.0521 145.015C54.5899 144.812 55.142 144.65 55.7039 144.529C55.9637 144.475 56.2265 144.436 56.4909 144.412C56.7435 144.412 56.9767 144.359 57.2002 144.364L57.7977 144.388C57.9775 144.388 58.1281 144.432 58.2544 144.446L58.6479 144.514C58.6479 144.514 58.5022 144.514 58.2496 144.538C58.1232 144.538 57.9726 144.538 57.8026 144.568L57.2196 144.645C57.0107 144.67 56.7872 144.728 56.5443 144.767C56.3014 144.806 56.0585 144.893 55.801 144.947C55.5436 145 55.2861 145.107 55.0189 145.18C54.7517 145.253 54.4893 145.364 54.2221 145.457C53.9549 145.549 53.6926 145.656 53.4351 145.768C53.1776 145.879 52.9202 145.977 52.6821 146.093C52.1963 146.312 51.7445 146.535 51.3607 146.725C50.9769 146.914 50.6514 147.079 50.4328 147.21L50.0781 147.405Z" fill="black"/>
<path d="M50.4844 148.539C50.821 148.206 51.1868 147.903 51.5775 147.635C51.9782 147.358 52.3969 147.108 52.8309 146.887C53.0738 146.771 53.3167 146.654 53.5839 146.547C53.8511 146.44 54.1134 146.338 54.3903 146.26C54.6634 146.175 54.9407 146.104 55.2211 146.047C55.4915 145.985 55.7658 145.941 56.0421 145.916C56.2998 145.882 56.5596 145.867 56.8194 145.872C57.0498 145.864 57.2804 145.874 57.5093 145.901L58.0923 145.979L58.5295 146.086C58.7675 146.149 58.9036 146.192 58.9036 146.192C58.9036 146.192 58.7578 146.192 58.5149 146.192H58.0728H57.5044C57.282 146.192 57.0597 146.205 56.8389 146.231C56.5911 146.252 56.3446 146.286 56.1004 146.333C55.8478 146.367 55.6146 146.44 55.3231 146.498C55.0316 146.557 54.7984 146.639 54.5361 146.717C54.0181 146.874 53.5089 147.059 53.0106 147.271C52.5248 147.475 52.0924 147.684 51.7183 147.868C51.3443 148.053 51.0333 148.218 50.8196 148.354L50.4844 148.539Z" fill="black"/>
<path d="M51.0469 150.05C51.1371 149.955 51.2328 149.866 51.3335 149.783C51.523 149.622 51.7902 149.394 52.1351 149.146C52.5287 148.864 52.9391 148.606 53.3642 148.374C53.5926 148.243 53.85 148.116 54.0929 148C54.3358 147.883 54.6128 147.781 54.8751 147.665C55.1374 147.548 55.4144 147.48 55.6816 147.397C55.9488 147.315 56.2208 147.257 56.488 147.208C56.7403 147.161 56.9949 147.127 57.2507 147.106C57.4985 147.106 57.7366 147.067 57.9455 147.077L58.5284 147.116C58.6985 147.116 58.8491 147.174 58.9705 147.193L59.3495 147.281H58.9608C58.8394 147.281 58.6888 147.281 58.5236 147.281L57.96 147.334C57.756 147.359 57.5325 147.412 57.3042 147.441C57.0759 147.47 56.8184 147.558 56.5803 147.606C56.3423 147.655 56.0945 147.762 55.8176 147.83C55.5407 147.898 55.3026 148.005 55.0451 148.102C54.7877 148.199 54.5302 148.296 54.2824 148.408C54.0346 148.52 53.7966 148.617 53.5537 148.733C53.0679 148.952 52.6549 149.175 52.2808 149.365C51.9068 149.554 51.5958 149.715 51.3869 149.851L51.0469 150.05Z" fill="black"/>
</g>
<path d="M49.3953 151.796L55.3805 147.259C55.4535 147.203 55.5376 147.163 55.6273 147.142C55.7169 147.121 55.81 147.119 55.9003 147.137L62.7358 148.435C62.8697 148.459 62.9927 148.525 63.0876 148.622C63.1826 148.72 63.2448 148.845 63.2656 148.979C63.2864 149.114 63.2649 149.252 63.2039 149.373C63.1429 149.495 63.0455 149.595 62.9252 149.659L57.2849 152.715C57.193 152.762 57.0918 152.788 56.9886 152.792L49.7985 152.977C49.66 152.979 49.5244 152.937 49.4112 152.857C49.2979 152.778 49.2128 152.664 49.168 152.533C49.1233 152.402 49.1211 152.26 49.1619 152.128C49.2028 151.996 49.2844 151.879 49.3953 151.796Z" fill="#334155"/>
<path d="M60.1875 154.49C60.1875 154.49 69.3889 132.225 71.0115 130.845C72.6341 129.466 82.914 135.446 82.914 135.446L73.7612 158.945L60.1875 154.49Z" fill="#334155"/>
<path opacity="0.2" d="M62.8294 154.327C62.8294 154.327 71.6421 133.058 72.9538 132.14C74.2655 131.221 81.7763 135.137 81.7763 135.137C81.7763 135.137 73.9498 130.357 71.5498 131.168C69.1499 131.979 60.9688 153.841 60.9688 153.841L62.8294 154.327Z" fill="black"/>
<path d="M81.3759 152.303H42.2969V175.379H81.3759V152.303Z" fill="#263238"/>
<path opacity="0.2" d="M81.3759 152.303H42.2969V175.379H81.3759V152.303Z" fill="white"/>
<path opacity="0.4" d="M81.3789 152.303H57.1172V175.379H81.3789V152.303Z" fill="white"/>
<path d="M57.1172 152.546L66.3185 145.138L86.8443 146.537L81.3789 152.546H57.1172Z" fill="#263238"/>
<path d="M57.1167 152.542L50.1647 144.526L35.4688 146.105L42.2993 152.299L57.1167 152.542Z" fill="#263238"/>
<path opacity="0.1" d="M57.1167 152.542L50.1647 144.526L35.4688 146.105L42.2993 152.299L57.1167 152.542Z" fill="white"/>
<path opacity="0.4" d="M57.1172 152.546L66.3185 145.138L86.8443 146.537L81.3789 152.546H57.1172Z" fill="white"/>
<path d="M73.9744 162.919C72.7464 162.919 71.546 163.283 70.525 163.965C69.504 164.648 68.7082 165.617 68.2382 166.752C67.7683 167.886 67.6454 169.135 67.8849 170.339C68.1245 171.543 68.7158 172.65 69.5841 173.518C70.4524 174.386 71.5587 174.978 72.7631 175.217C73.9675 175.457 75.2158 175.334 76.3503 174.864C77.4848 174.394 78.4545 173.598 79.1367 172.577C79.819 171.556 80.1831 170.356 80.1831 169.128C80.1831 167.481 79.529 165.902 78.3646 164.737C77.2002 163.573 75.621 162.919 73.9744 162.919ZM73.9744 171.6C73.4841 171.6 73.0049 171.455 72.5973 171.183C72.1898 170.91 71.8722 170.523 71.6848 170.07C71.4975 169.617 71.4487 169.118 71.5447 168.638C71.6407 168.157 71.8771 167.715 72.2241 167.369C72.5711 167.023 73.013 166.787 73.494 166.692C73.9749 166.597 74.4732 166.647 74.9259 166.835C75.3785 167.023 75.7652 167.342 76.0368 167.75C76.3085 168.158 76.453 168.637 76.452 169.128C76.452 169.453 76.3879 169.775 76.2633 170.075C76.1388 170.375 75.9562 170.648 75.726 170.878C75.4959 171.108 75.2227 171.29 74.9222 171.414C74.6216 171.538 74.2995 171.601 73.9744 171.6Z" fill="#334155"/>
<path opacity="0.7" d="M79.5704 166.432C79.4584 166.202 79.3318 165.98 79.1915 165.766C79.0097 165.477 78.8015 165.205 78.5696 164.955C77.5087 163.779 76.0344 163.058 74.4548 162.943C74.2935 162.926 74.1312 162.917 73.969 162.919C73.0261 162.921 72.0959 163.137 71.2489 163.551C70.4019 163.966 69.6603 164.567 69.0803 165.311C68.5003 166.054 68.0971 166.92 67.9012 167.842C67.7053 168.764 67.7219 169.719 67.9497 170.634C68.0072 170.872 68.0819 171.106 68.1732 171.334C68.3032 171.672 68.4659 171.998 68.659 172.305C69.1626 173.146 69.8586 173.855 70.6896 174.374C71.5206 174.894 72.4631 175.209 73.4394 175.293C73.6192 175.293 73.7989 175.317 73.9787 175.317C75.0286 175.316 76.0611 175.049 76.9799 174.541C77.8987 174.033 78.6737 173.3 79.2326 172.411C79.7915 171.522 80.116 170.507 80.176 169.458C80.2359 168.41 80.0292 167.364 79.5753 166.417L79.5704 166.432ZM73.9738 171.601C73.8962 171.606 73.8183 171.606 73.7406 171.601C73.2917 171.56 72.8628 171.396 72.5004 171.128C72.138 170.86 71.8562 170.497 71.6856 170.08C71.6279 169.939 71.5824 169.792 71.5496 169.643C71.5332 169.55 71.5218 169.456 71.5156 169.361C71.5108 169.288 71.5108 169.215 71.5156 169.143C71.5149 168.817 71.5784 168.495 71.7024 168.195C71.8264 167.894 72.0084 167.621 72.2381 167.391C72.4678 167.161 72.7406 166.978 73.041 166.854C73.3413 166.729 73.6632 166.665 73.9884 166.665C74.0466 166.66 74.1051 166.66 74.1633 166.665C74.6733 166.697 75.1607 166.887 75.5576 167.209C75.6553 167.291 75.7463 167.38 75.8296 167.476C75.9012 167.553 75.9662 167.636 76.024 167.724C76.314 168.136 76.4685 168.629 76.466 169.133C76.4654 169.459 76.4003 169.781 76.2746 170.082C76.1488 170.383 75.9648 170.656 75.7332 170.885C75.5016 171.114 75.2269 171.296 74.925 171.419C74.623 171.541 74.2998 171.603 73.9738 171.601Z" fill="white"/>
<path opacity="0.2" d="M73.7427 171.587L73.4367 175.308C72.4603 175.224 71.5179 174.909 70.6869 174.39C69.8558 173.87 69.1599 173.161 68.6562 172.321L71.6877 170.066C71.8583 170.484 72.1402 170.846 72.5025 171.114C72.8649 171.382 73.2939 171.546 73.7427 171.587Z" fill="white"/>
<path opacity="0.2" d="M78.5772 164.959L75.5505 167.208C75.1536 166.886 74.6663 166.696 74.1562 166.664L74.4623 162.947C76.042 163.062 77.5163 163.783 78.5772 164.959Z" fill="white"/>
<path opacity="0.2" d="M71.556 169.63L68.1844 171.336C68.0932 171.108 68.0185 170.874 67.9609 170.636L71.522 169.349C71.5282 169.443 71.5396 169.537 71.556 169.63Z" fill="white"/>
<path opacity="0.2" d="M79.5757 166.434L76.0146 167.722C75.9569 167.634 75.8919 167.551 75.8203 167.474L79.1967 165.769C79.3371 165.982 79.4636 166.204 79.5757 166.434Z" fill="white"/>
<path d="M78.5141 164.646C75.1134 164.646 73.2527 167.042 74.4186 169.99C75.5846 172.939 79.3011 175.334 82.7261 175.334C86.1511 175.334 87.9924 172.944 86.8264 169.99C85.6604 167.037 81.9439 164.646 78.5141 164.646ZM81.463 172.123C80.7677 172.108 80.0903 171.901 79.5055 171.524C78.9208 171.148 78.4516 170.617 78.1497 169.99C77.6639 168.815 78.4169 167.858 79.7821 167.858C80.4771 167.874 81.1541 168.082 81.7386 168.458C82.3232 168.834 82.7926 169.365 83.0953 169.99C83.5666 171.166 82.8281 172.123 81.463 172.123Z" fill="#334155"/>
<path opacity="0.1" d="M85.3039 167.666C85.1144 167.472 84.9152 167.278 84.7015 167.093C84.4174 166.842 84.1172 166.61 83.8027 166.398C82.3887 165.401 80.7326 164.802 79.0077 164.664C78.8377 164.664 78.6774 164.664 78.5219 164.664C75.1212 164.664 73.2605 167.054 74.4265 170.008C74.6067 170.466 74.8399 170.901 75.1212 171.305C75.2696 171.517 75.4319 171.718 75.607 171.908C75.8558 172.211 76.127 172.495 76.4183 172.758C78.0148 174.227 80.0491 175.131 82.2092 175.333C82.3938 175.333 82.5785 175.333 82.7582 175.333C86.1881 175.333 88.0245 172.938 86.8634 169.989C86.4969 169.122 85.9675 168.334 85.3039 167.666ZM81.4611 172.121H81.223C80.2327 172.024 79.3153 171.557 78.6531 170.814C78.5491 170.696 78.4549 170.569 78.3713 170.436C78.3228 170.357 78.279 170.276 78.2401 170.193C78.207 170.131 78.1778 170.068 78.1527 170.003C77.6669 168.823 78.4199 167.87 79.785 167.87C79.8432 167.866 79.9017 167.866 79.9599 167.87C80.5159 167.913 81.0554 168.079 81.5388 168.356C81.6649 168.427 81.7866 168.504 81.9032 168.589C82.0007 168.654 82.0933 168.725 82.1801 168.803C82.585 169.122 82.9026 169.538 83.1031 170.013C83.5695 171.164 82.8311 172.121 81.4611 172.121Z" fill="white"/>
<path opacity="0.2" d="M81.2177 172.107L82.1894 175.313C80.0293 175.112 77.9949 174.207 76.3984 172.738L78.6623 170.795C79.3202 171.536 80.2319 172.004 81.2177 172.107Z" fill="white"/>
<path opacity="0.2" d="M83.791 166.4L81.5271 168.344C81.0436 168.066 80.5042 167.9 79.9482 167.858L78.9766 164.656C80.7091 164.794 82.3725 165.396 83.791 166.4Z" fill="white"/>
<path opacity="0.2" d="M78.3652 170.422L75.5718 171.879C75.3967 171.689 75.2344 171.488 75.0859 171.277L78.2195 170.179C78.2631 170.263 78.3118 170.344 78.3652 170.422Z" fill="white"/>
<path opacity="0.2" d="M85.2992 167.671L82.1753 168.784C82.0885 168.705 81.996 168.634 81.8984 168.57L84.6967 167.112C84.9105 167.282 85.1097 167.477 85.2992 167.671Z" fill="white"/>
<path d="M180.922 133.602L181.097 141.166L181.894 175.382H184.522L185.314 141.166L185.489 133.602H180.922Z" fill="#334155"/>
<path opacity="0.4" d="M180.922 133.602L181.097 141.166L181.894 175.382H184.522L185.314 141.166L185.489 133.602H180.922Z" fill="white"/>
<path opacity="0.2" d="M180.922 133.602L181.097 141.375H185.314L185.489 133.602H180.922Z" fill="black"/>
<path d="M166.648 175.256L169.078 134.132H173.047L169.646 175.256H166.648Z" fill="#334155"/>
<path opacity="0.5" d="M169.651 175.26H166.648L168.854 137.828L169.073 134.087H173.042L172.736 137.828L169.651 175.26Z" fill="white"/>
<path opacity="0.2" d="M173.047 134.087L172.741 137.973H168.859L169.078 134.087H173.047Z" fill="black"/>
<path d="M196.768 175.256L193.367 134.132H197.336L199.765 175.256H196.768Z" fill="#334155"/>
<path opacity="0.5" d="M196.758 175.26L193.673 137.828L193.367 134.087H197.336L197.555 137.828L199.761 175.26H196.758Z" fill="white"/>
<path opacity="0.2" d="M193.367 134.087L193.673 137.973H197.555L197.336 134.087H193.367Z" fill="black"/>
<path d="M199.461 135.558H166.95V132.317C166.95 131.673 167.206 131.055 167.662 130.6C168.117 130.144 168.735 129.888 169.379 129.888H197.032C197.676 129.888 198.294 130.144 198.749 130.6C199.205 131.055 199.461 131.673 199.461 132.317V135.567V135.558Z" fill="#334155"/>
<path d="M166.375 135.554H200.047C200.586 135.554 201.023 135.117 201.023 134.577V133.693C201.023 133.154 200.586 132.717 200.047 132.717H166.375C165.836 132.717 165.399 133.154 165.399 133.693V134.577C165.399 135.117 165.836 135.554 166.375 135.554Z" fill="#334155"/>
<path opacity="0.6" d="M166.375 135.554H200.047C200.586 135.554 201.023 135.117 201.023 134.577V133.693C201.023 133.154 200.586 132.717 200.047 132.717H166.375C165.836 132.717 165.399 133.154 165.399 133.693V134.577C165.399 135.117 165.836 135.554 166.375 135.554Z" fill="white"/>
<path d="M171.533 83.8036C171.533 83.8036 171.397 84.1728 171.149 84.7752C170.901 85.3776 170.522 86.2958 170.061 87.2966C168.943 89.7257 167.321 92.8155 165.625 94.4818C165.199 94.9299 164.687 95.2869 164.119 95.5312C162.312 96.2259 157.779 96.3522 153.732 96.3133C149.686 96.2745 146.227 96.0704 146.227 96.0704V93.0049L159.533 89.4585C159.533 89.4585 166.548 76.7981 170.707 74.9229L171.533 83.8036Z" fill="#263238"/>
<path opacity="0.2" d="M171.156 84.7803C170.903 85.4118 170.529 86.3009 170.067 87.3016C168.95 89.7307 167.327 92.8205 165.632 94.4869C163.907 88.1324 170.286 82.084 170.286 82.084L171.156 84.7803Z" fill="black"/>
<path d="M169.43 171.87L165.558 171.34L165.023 162.139L168.886 162.673L169.43 171.87Z" fill="#EBB376"/>
<path opacity="0.2" d="M168.886 162.676L165.023 162.146L165.33 167.403L169.192 167.743L168.886 162.676Z" fill="black"/>
<path d="M169.277 117.791L170.219 111.873L191.896 110.576C191.896 110.576 194.204 122.887 192.431 126.166C189.268 132.02 172.216 129.081 167.222 129.64C170.224 141.858 169.933 165.663 169.933 165.663L162.806 166.207C162.806 166.207 157.326 140.522 156.213 128.313C155.46 120.093 162.291 120.297 169.277 117.791Z" fill="#334155"/>
<path d="M170.775 166.018L162.21 166.577L161.477 162.909L170.887 162.477L170.775 166.018Z" fill="#334155"/>
<path d="M160.499 168.434L156.603 168.721L154.164 159.835L158.055 159.554L160.499 168.434Z" fill="#EBB376"/>
<path d="M156.088 168.852H156.02C156.02 168.794 155.821 167.701 155.349 167.443C155.289 167.413 155.222 167.397 155.155 167.397C155.088 167.397 155.021 167.413 154.961 167.443C154.886 167.466 154.822 167.514 154.779 167.578C154.736 167.643 154.716 167.72 154.723 167.798C154.817 168.12 155.019 168.399 155.296 168.59C154.941 168.468 154.555 168.479 154.208 168.619C154.161 168.654 154.124 168.701 154.1 168.754C154.076 168.808 154.066 168.866 154.072 168.925C154.066 169.017 154.086 169.108 154.129 169.189C154.173 169.27 154.239 169.337 154.319 169.381C154.563 169.476 154.834 169.476 155.077 169.381C155.415 169.281 155.741 169.144 156.049 168.973H156.083C156.083 168.973 156.083 168.973 156.083 168.944C156.094 168.931 156.1 168.915 156.101 168.899C156.101 168.882 156.097 168.866 156.088 168.852ZM154.917 167.764C154.917 167.71 154.917 167.642 155.048 167.594H155.092C155.126 167.582 155.163 167.578 155.199 167.582C155.235 167.586 155.27 167.598 155.301 167.618C155.583 167.769 155.787 168.361 155.869 168.716L155.782 168.692C155.398 168.463 154.951 168.026 154.917 167.764ZM154.407 169.192C154.359 169.159 154.32 169.115 154.294 169.063C154.267 169.011 154.254 168.954 154.256 168.896C154.254 168.867 154.258 168.839 154.269 168.812C154.28 168.786 154.297 168.763 154.319 168.745C154.543 168.58 155.252 168.721 155.777 168.876C155.131 169.197 154.635 169.313 154.407 169.192Z" fill="#334155"/>
<path opacity="0.2" d="M158.055 159.554L154.164 159.84L155.558 164.917L159.406 164.446L158.055 159.554Z" fill="black"/>
<path d="M152.843 164.292L159.703 162.262C159.703 162.262 155.608 139.147 151.444 131.131C151.755 131.029 152.168 130.897 152.678 130.747C153.596 130.47 154.816 130.125 156.249 129.727C166.218 126.962 186.423 121.779 186.423 121.779L177.192 113.165C177.192 113.165 140.426 118.771 139.663 128.459C139.308 133.113 152.843 164.292 152.843 164.292Z" fill="#334155"/>
<path d="M160.592 162.429L152.333 164.765L150.852 161.331L159.965 158.945L160.592 162.429Z" fill="#334155"/>
<path opacity="0.2" d="M152.685 130.761C153.604 130.484 154.823 130.139 156.256 129.74C155.97 127.389 155.965 124.693 157.097 123.318C159.346 120.578 165.132 118.97 168.426 118.387C171.18 117.901 180.435 116.929 180.435 116.929C180.435 116.929 168.426 115.778 156.144 119.358C150.081 121.136 151.262 127.068 152.685 130.761Z" fill="black"/>
<path d="M193.125 116.757C194.582 115.644 193.183 105.296 193.927 95.1184C195.058 79.6208 193.927 74.6412 192.785 74.1602C190.677 73.7946 188.545 73.5835 186.406 73.5287C183.278 73.4169 180.145 73.485 177.025 73.7327C174.889 73.9946 172.778 74.4234 170.709 75.0153C170.709 75.0153 165.599 91.2901 168.863 114.731L193.125 116.757Z" fill="#263238"/>
<path opacity="0.8" d="M194.326 87.1431C194.263 89.4216 194.127 92.0644 193.903 95.1153C193.16 105.293 194.549 115.641 193.102 116.754L168.835 114.728C167.386 104.553 167.378 94.2253 168.811 84.0484C170.783 80.9684 174.611 77.4559 176.37 75.9159C176.954 76.5555 177.746 76.967 178.605 77.077C180.495 77.4462 182.652 76.5912 184.435 75.5029C185.843 76.9069 188.515 79.749 189.686 82.144C189.808 82.3922 189.917 82.6468 190.012 82.9068C190.755 84.9861 193.024 82.421 194.18 79.0785C194.378 81.7619 194.427 84.4543 194.326 87.1431Z" fill="white"/>
<path d="M185.25 63.0156C184.721 66.0471 184.25 71.5854 186.402 73.5578C185.528 74.4961 184.477 75.2522 183.31 75.7825C182.143 76.3128 180.882 76.6068 179.6 76.6476C175.714 76.8177 177.026 73.7327 177.026 73.7327C180.378 72.8583 180.232 70.3612 179.595 68.0292L185.25 63.0156Z" fill="#EBB376"/>
<path opacity="0.2" d="M182.941 65.0703L179.594 68.0532C179.751 68.5948 179.86 69.1492 179.919 69.7099C181.202 69.501 182.936 68.0484 183.048 66.6978C183.112 66.1533 183.076 65.6017 182.941 65.0703Z" fill="black"/>
<path d="M177.898 55.1704C179.574 56.3072 178.811 58.2311 175.022 61.248C173.487 59.2707 173.229 55.3842 174.453 54.4126C175.678 53.4409 176.44 54.1842 177.898 55.1704Z" fill="#263238"/>
<path d="M185.096 58.2979C184.916 62.3933 185.013 64.7933 182.987 66.9309C179.936 70.1421 174.855 68.3543 173.81 64.288C172.877 60.6347 173.324 54.5717 177.303 52.8568C178.177 52.4779 179.134 52.3291 180.082 52.4245C181.03 52.5199 181.937 52.8564 182.719 53.4018C183.5 53.9472 184.128 54.6835 184.544 55.5405C184.96 56.3975 185.15 57.3468 185.096 58.2979Z" fill="#EBB376"/>
<path d="M179.024 59.5107C179.024 59.8459 178.859 60.118 178.641 60.1229C178.422 60.1277 178.247 59.8605 178.242 59.5253C178.237 59.1901 178.403 58.9229 178.621 58.918C178.84 58.9132 178.995 59.1852 179.024 59.5107Z" fill="#263238"/>
<path d="M175.232 59.5858C175.232 59.9162 175.067 60.1882 174.849 60.1931C174.63 60.198 174.45 59.9356 174.445 59.5956C174.441 59.2555 174.611 58.9883 174.829 58.9883C175.048 58.9883 175.228 59.2701 175.232 59.5858Z" fill="#263238"/>
<path d="M176.47 59.7197C176.091 60.7431 175.573 61.7093 174.93 62.5909C175.16 62.748 175.422 62.8535 175.697 62.9005C175.972 62.9474 176.254 62.9346 176.523 62.863L176.47 59.7197Z" fill="#D58745"/>
<path d="M180.029 58.2959C180.072 58.3015 180.115 58.2911 180.151 58.2668C180.171 58.2514 180.189 58.2323 180.202 58.2103C180.215 58.1883 180.223 58.164 180.227 58.1388C180.23 58.1135 180.229 58.0878 180.223 58.0631C180.216 58.0383 180.205 58.0151 180.19 57.9947C180.004 57.7451 179.761 57.5438 179.481 57.4077C179.201 57.2716 178.893 57.2046 178.582 57.2125C178.557 57.2138 178.533 57.2199 178.511 57.2307C178.488 57.2414 178.468 57.2565 178.452 57.2751C178.436 57.2937 178.423 57.3154 178.416 57.3388C178.408 57.3623 178.405 57.3871 178.407 57.4117C178.413 57.462 178.438 57.508 178.477 57.5405C178.516 57.573 178.565 57.5895 178.616 57.5866C178.861 57.5839 179.104 57.6398 179.324 57.7496C179.543 57.8595 179.734 58.0201 179.879 58.2182C179.897 58.2407 179.92 58.2592 179.946 58.2726C179.972 58.286 180 58.2939 180.029 58.2959Z" fill="#263238"/>
<path d="M173.49 58.3365C173.527 58.3366 173.564 58.3262 173.596 58.3064C173.628 58.2867 173.653 58.2584 173.67 58.2247C173.765 57.9987 173.913 57.7987 174.102 57.6416C174.29 57.4844 174.514 57.3745 174.753 57.3211C174.804 57.3127 174.85 57.2847 174.881 57.2429C174.912 57.2012 174.925 57.149 174.918 57.0976C174.911 57.0468 174.884 57.0009 174.843 56.9699C174.802 56.939 174.751 56.9255 174.7 56.9324C174.396 56.996 174.111 57.1315 173.87 57.3276C173.629 57.5237 173.439 57.7747 173.315 58.0595C173.293 58.106 173.291 58.159 173.308 58.2073C173.326 58.2555 173.361 58.2949 173.407 58.317C173.433 58.331 173.461 58.3378 173.49 58.3365Z" fill="#263238"/>
<path d="M183.419 54.6929C181.519 55.3827 181.791 57.4377 184.726 61.2854C186.708 59.7259 187.908 56.0289 186.951 54.79C185.994 53.5512 185.1 54.0953 183.419 54.6929Z" fill="#263238"/>
<path d="M187.112 61.5285C186.979 62.0218 186.751 62.4842 186.44 62.8893C186.129 63.2945 185.742 63.6343 185.299 63.8895C184.109 64.56 183.191 63.5738 183.244 62.2864C183.298 61.1204 183.978 59.3715 185.304 59.2257C186.631 59.08 187.432 60.3042 187.112 61.5285Z" fill="#EBB376"/>
<path d="M179.59 63.5361C179.302 63.9761 178.899 64.3282 178.424 64.5536C177.949 64.7791 177.421 64.8691 176.898 64.8138" stroke="#263238" stroke-width="0.526291" stroke-linecap="round" stroke-linejoin="round"/>
<path d="M179.265 54.0396C179.265 54.0396 179.877 58.1399 183.827 58.4119C187.777 58.684 188.622 56.2306 188.622 56.2306C188.3 56.2774 187.976 56.3034 187.651 56.3083C187.651 56.3083 188.807 54.3213 187.651 52.4218C186.494 50.5223 182.559 48.4916 179.639 49.5069C178.731 49.21 177.771 49.1043 176.819 49.1962C175.868 49.2882 174.946 49.5759 174.111 50.0413C171.376 51.6299 171.862 55.0938 171.862 55.0938C171.862 55.0938 171.74 52.9902 173.018 52.4024C173.018 52.4024 171.439 56.731 173.805 57.8872C173.8 57.8727 174.033 53.6121 179.265 54.0396Z" fill="#263238"/>
<path d="M172.548 92.7899C172.548 92.7899 158.459 92.4693 157.663 92.3916C156.866 92.3138 153.528 90.4483 152.804 90.3463C152.081 90.2443 150.191 93.2612 149.953 93.9608C149.715 94.6603 155.297 96.555 155.836 96.4724C156.46 96.3061 157.067 96.0799 157.648 95.7971L172.028 97.6481L172.548 92.7899Z" fill="#EBB376"/>
<path d="M131.656 95.7041V96.9915C131.656 97.3753 132.317 97.6474 132.701 97.6474H162.719C163.108 97.6474 163.72 97.3753 163.72 96.9915V95.7041H131.656Z" fill="#263238"/>
<path opacity="0.6" d="M131.656 95.7041V96.9915C131.656 97.3753 132.317 97.6474 132.701 97.6474H162.719C163.108 97.6474 163.72 97.3753 163.72 96.9915V95.7041H131.656Z" fill="white"/>
<path opacity="0.2" d="M131.656 95.7041V96.9915C131.656 97.3753 132.317 97.6474 132.701 97.6474H152.498C152.886 97.6474 153.518 97.3753 153.518 96.9915V95.7041H131.656Z" fill="black"/>
<path d="M126.844 79.9227L130.419 96.1927C130.483 96.458 130.63 96.6958 130.839 96.8709C131.048 97.0459 131.308 97.1488 131.58 97.1644H151.091C151.216 97.1532 151.337 97.1142 151.445 97.0503C151.554 96.9864 151.646 96.8991 151.717 96.7949C151.787 96.6906 151.833 96.572 151.852 96.4477C151.87 96.3233 151.861 96.1964 151.824 96.0761L148.254 79.9859C148.181 79.74 148.026 79.5267 147.814 79.3816C147.603 79.2365 147.348 79.1686 147.093 79.1891H127.582C127.057 79.1891 126.727 79.3932 126.844 79.9227Z" fill="#263238"/>
<path opacity="0.6" d="M126.844 79.9227L130.419 96.1927C130.483 96.458 130.63 96.6958 130.839 96.8709C131.048 97.0459 131.308 97.1488 131.58 97.1644H151.091C151.216 97.1532 151.337 97.1142 151.445 97.0503C151.554 96.9864 151.646 96.8991 151.717 96.7949C151.787 96.6906 151.833 96.572 151.852 96.4477C151.87 96.3233 151.861 96.1964 151.824 96.0761L148.254 79.9859C148.181 79.74 148.026 79.5267 147.814 79.3816C147.603 79.2365 147.348 79.1686 147.093 79.1891H127.582C127.057 79.1891 126.727 79.3932 126.844 79.9227Z" fill="white"/>
<path opacity="0.4" d="M126.844 79.9227L130.419 96.1927C130.483 96.458 130.63 96.6958 130.839 96.8709C131.048 97.0459 131.308 97.1488 131.58 97.1644H150.435C150.56 97.153 150.681 97.114 150.79 97.0501C150.898 96.9863 150.991 96.8991 151.062 96.795C151.132 96.6909 151.179 96.5724 151.198 96.4481C151.218 96.3238 151.209 96.1967 151.173 96.0761L147.603 79.9859C147.53 79.74 147.375 79.5267 147.163 79.3816C146.952 79.2365 146.697 79.1686 146.442 79.1891H127.582C127.057 79.1891 126.727 79.3932 126.844 79.9227Z" fill="white"/>
<path opacity="0.2" d="M138.322 90.3616C137.414 90.3616 136.481 89.39 136.243 88.1851C136.005 86.9803 136.554 85.9893 137.482 85.9893C137.648 85.9928 137.813 86.0257 137.968 86.0864C138.052 86.516 138.236 86.9198 138.505 87.2649C138.775 87.6101 139.121 87.8871 139.517 88.0734C139.528 88.1052 139.536 88.1377 139.542 88.1706C139.785 89.39 139.236 90.3616 138.322 90.3616Z" fill="black"/>
<path opacity="0.2" d="M194.323 87.1446C192.229 90.5453 189.3 94.1647 186.38 93.9946C183.324 93.8149 186.404 87.577 189.689 82.1456C189.811 82.3937 189.919 82.6484 190.014 82.9083C190.757 84.9876 193.026 82.4225 194.182 79.0801C194.379 81.7636 194.426 84.4559 194.323 87.1446Z" fill="black"/>
<path d="M192.786 74.1631C199.991 76.7573 187.345 96.2677 183.415 98.279C179.485 100.29 169.156 97.9729 169.156 97.9729L169.798 91.944C169.798 91.944 177.974 92.4978 179.601 92.0849C181.229 91.6719 185.096 83.3402 187.321 79.4293C188.556 77.152 190.465 75.3125 192.786 74.1631Z" fill="#263238"/>
<path opacity="0.2" d="M170.775 166.018L162.21 166.577L161.477 162.909L170.887 162.477L170.775 166.018Z" fill="white"/>
<path opacity="0.2" d="M160.592 162.429L152.333 164.765L150.852 161.331L159.965 158.945L160.592 162.429Z" fill="white"/>
<path d="M156.231 168.326L160.448 167.151C160.518 167.129 160.593 167.135 160.659 167.167C160.724 167.2 160.774 167.257 160.798 167.325L161.94 170.61C161.987 170.787 161.963 170.976 161.872 171.135C161.781 171.294 161.631 171.411 161.454 171.46C159.972 171.844 159.248 171.946 157.388 172.461C156.246 172.776 154.021 173.505 152.394 173.69C150.766 173.874 150.63 172.261 151.3 172.043C152.894 171.508 154.803 169.847 155.629 168.72C155.78 168.525 155.992 168.386 156.231 168.326Z" fill="#263238"/>
<path d="M165.187 171.344C165.187 171.276 165.119 170.173 164.701 169.823C164.639 169.777 164.568 169.744 164.493 169.727C164.418 169.709 164.34 169.707 164.264 169.721C164.185 169.728 164.11 169.761 164.051 169.813C163.992 169.865 163.951 169.935 163.933 170.013C163.951 170.347 164.087 170.664 164.317 170.906C163.992 170.716 163.61 170.645 163.239 170.707C163.186 170.733 163.14 170.771 163.105 170.819C163.07 170.866 163.048 170.921 163.039 170.979C163.017 171.066 163.018 171.157 163.044 171.243C163.07 171.328 163.119 171.405 163.185 171.465C163.404 171.605 163.668 171.657 163.924 171.611C164.27 171.582 164.613 171.514 164.944 171.407C164.949 171.409 164.955 171.411 164.961 171.411C164.967 171.411 164.973 171.409 164.978 171.407V171.378C164.978 171.378 165.07 171.378 165.075 171.344C165.08 171.31 165.158 171.344 165.158 171.344H165.187ZM164.113 170.032C164.113 169.979 164.147 169.911 164.273 169.886H164.317C164.354 169.883 164.391 169.888 164.425 169.9C164.459 169.913 164.491 169.933 164.516 169.959C164.764 170.163 164.832 170.78 164.847 171.149L164.769 171.106C164.431 170.836 164.199 170.456 164.113 170.032ZM163.316 171.319C163.279 171.277 163.253 171.226 163.24 171.171C163.227 171.116 163.228 171.058 163.244 171.004C163.246 170.975 163.257 170.948 163.274 170.925C163.291 170.902 163.314 170.884 163.341 170.872C163.588 170.756 164.254 171.042 164.725 171.3C164.026 171.489 163.511 171.489 163.316 171.339V171.319Z" fill="#334155"/>
<path d="M165.267 170.877L169.639 170.605C169.675 170.6 169.712 170.603 169.747 170.612C169.782 170.622 169.815 170.639 169.843 170.661C169.872 170.684 169.896 170.712 169.913 170.744C169.931 170.776 169.941 170.811 169.945 170.848L170.373 174.297C170.379 174.387 170.368 174.477 170.339 174.562C170.311 174.648 170.266 174.727 170.207 174.794C170.147 174.862 170.075 174.917 169.995 174.957C169.914 174.997 169.826 175.02 169.736 175.026C168.211 175.099 167.477 175.055 165.553 175.162C164.373 175.23 162.046 175.482 160.413 175.322C158.781 175.162 158.985 173.559 159.689 173.481C161.356 173.291 163.576 172.067 164.611 171.134C164.795 170.978 165.026 170.888 165.267 170.877Z" fill="#263238"/>
<path d="M145.798 175.379H148.772L149.262 100.928H145.312L145.798 175.379Z" fill="#334155"/>
<path opacity="0.4" d="M145.305 101.047L145.382 113.061L145.791 175.377H148.769L149.177 113.061L149.254 101.047H145.305Z" fill="white"/>
<path opacity="0.2" d="M145.305 101.047L145.382 113.192H149.177L149.254 101.047H145.305Z" fill="black"/>
<path d="M114.203 175.379H117.176L122.525 100.928H118.575L114.203 175.379Z" fill="#334155"/>
<path opacity="0.5" d="M114.195 175.377H117.173L122.26 104.627L122.522 101.047H118.573L118.359 104.627L114.195 175.377Z" fill="white"/>
<path opacity="0.2" d="M118.359 104.448H122.26L122.523 101.047H118.573L118.359 104.448Z" fill="black"/>
<path d="M177.396 175.379H180.369L175.997 100.928H172.047L177.396 175.379Z" fill="#334155"/>
<path opacity="0.5" d="M172.047 101.047L172.309 104.627L177.396 175.377H180.369L176.21 104.627L175.997 101.047H172.047Z" fill="white"/>
<path opacity="0.2" d="M175.997 101.047H172.047L172.309 104.448H176.21L175.997 101.047Z" fill="black"/>
<path d="M178.083 102.792L116.501 102.792C116.364 102.792 116.227 102.765 116.1 102.712C115.972 102.659 115.857 102.582 115.759 102.485C115.662 102.387 115.585 102.272 115.532 102.144C115.479 102.017 115.452 101.88 115.452 101.743V99.0658L179.133 99.0658V101.743C179.133 102.021 179.022 102.288 178.825 102.485C178.629 102.681 178.362 102.792 178.083 102.792Z" fill="#334155"/>
<path opacity="0.6" d="M178.083 102.792L116.501 102.792C116.364 102.792 116.227 102.765 116.1 102.712C115.972 102.659 115.857 102.582 115.759 102.485C115.662 102.387 115.585 102.272 115.532 102.144C115.479 102.017 115.452 101.88 115.452 101.743V99.0658L179.133 99.0658V101.743C179.133 102.021 179.022 102.288 178.825 102.485C178.629 102.681 178.362 102.792 178.083 102.792Z" fill="white"/>
<path opacity="0.2" d="M115.452 100.928L179.133 100.928V99.0622L115.452 99.0622V100.928Z" fill="black"/>
<path d="M113.604 99.5528H180.977C181.256 99.5515 181.523 99.4399 181.719 99.2423C181.916 99.0447 182.026 98.7773 182.026 98.4986C182.026 98.2203 181.916 97.9534 181.719 97.7566C181.522 97.5598 181.255 97.4492 180.977 97.4492H113.604C113.326 97.4492 113.059 97.5598 112.862 97.7566C112.665 97.9534 112.555 98.2203 112.555 98.4986C112.555 98.7773 112.665 99.0447 112.862 99.2423C113.058 99.4399 113.325 99.5515 113.604 99.5528Z" fill="#334155"/>
<path opacity="0.6" d="M113.604 99.5528H180.977C181.256 99.5515 181.523 99.4399 181.719 99.2423C181.916 99.0447 182.026 98.7773 182.026 98.4986C182.026 98.2203 181.916 97.9534 181.719 97.7566C181.522 97.5598 181.255 97.4492 180.977 97.4492H113.604C113.326 97.4492 113.059 97.5598 112.862 97.7566C112.665 97.9534 112.555 98.2203 112.555 98.4986C112.555 98.7773 112.665 99.0447 112.862 99.2423C113.058 99.4399 113.325 99.5515 113.604 99.5528Z" fill="white"/>
</svg>
