<svg width="56" height="56" viewBox="0 0 56 56" fill="none" xmlns="http://www.w3.org/2000/svg">
<path d="M20.9329 12.528C22.3076 8.50501 27.8662 8.38317 29.4961 12.1625L29.6341 12.5303L31.4892 17.9556C31.9144 19.1998 32.6014 20.3384 33.504 21.2945C34.4066 22.2506 35.5037 23.002 36.7214 23.4981L37.2203 23.6843L42.6456 25.5372C46.6685 26.9119 46.7904 32.4705 43.0134 34.1004L42.6456 34.2383L37.2203 36.0935C35.9756 36.5184 34.8366 37.2053 33.8801 38.1079C32.9235 39.0105 32.1718 40.1078 31.6754 41.3257L31.4892 41.8222L29.6364 47.2498C28.2617 51.2728 22.703 51.3947 21.0754 47.6176L20.9329 47.2498L19.08 41.8245C18.6552 40.5799 17.9682 39.4409 17.0656 38.4844C16.163 37.5278 15.0658 36.776 13.8479 36.2797L13.3513 36.0935L7.92601 34.2406C3.90072 32.8659 3.77889 27.3073 7.5582 25.6797L7.92601 25.5372L13.3513 23.6843C14.5955 23.2592 15.7341 22.5721 16.6902 21.6695C17.6463 20.767 18.3978 19.6698 18.8938 18.4521L19.08 17.9556L20.9329 12.528ZM25.2846 14.0131L23.4318 19.4383C22.7844 21.3356 21.7312 23.0689 20.3456 24.5176C18.96 25.9664 17.2753 27.0956 15.4088 27.8268L14.8341 28.036L9.40877 29.8889L14.8341 31.7418C16.7313 32.3892 18.4646 33.4423 19.9134 34.8279C21.3621 36.2135 22.4914 37.8982 23.2226 39.7648L23.4318 40.3395L25.2846 45.7648L27.1375 40.3395C27.7849 38.4422 28.838 36.7089 30.2236 35.2602C31.6092 33.8115 33.294 32.6822 35.1605 31.951L35.7352 31.7441L41.1605 29.8889L35.7352 28.036C33.838 27.3887 32.1046 26.3355 30.6559 24.9499C29.2072 23.5643 28.0779 21.8796 27.3467 20.0131L27.1398 19.4383L25.2846 14.0131ZM43.6754 4.60156C44.1055 4.60156 44.527 4.7222 44.8919 4.94977C45.2568 5.17734 45.5506 5.50272 45.7398 5.88892L45.8502 6.15788L46.6548 8.51651L49.0157 9.3211C49.4467 9.46753 49.8245 9.73861 50.1013 10.1C50.378 10.4614 50.5413 10.8968 50.5703 11.351C50.5994 11.8053 50.4929 12.258 50.2645 12.6516C50.036 13.0453 49.6958 13.3623 49.2869 13.5625L49.0157 13.6728L46.6571 14.4774L45.8525 16.8383C45.7058 17.2692 45.4345 17.6468 45.073 17.9234C44.7115 18.1999 44.276 18.3629 43.8217 18.3917C43.3675 18.4205 42.9149 18.3138 42.5214 18.0852C42.1278 17.8565 41.811 17.5162 41.6111 17.1073L41.5007 16.8383L40.6961 14.4797L38.3352 13.6751C37.9042 13.5287 37.5264 13.2576 37.2496 12.8962C36.9729 12.5349 36.8096 12.0995 36.7806 11.6452C36.7515 11.1909 36.858 10.7383 37.0864 10.3446C37.3149 9.95089 37.6551 9.63389 38.0639 9.43375L38.3352 9.3234L40.6938 8.5188L41.4984 6.15788C41.6534 5.70369 41.9467 5.3094 42.3371 5.0303C42.7276 4.75119 43.1955 4.60127 43.6754 4.60156Z" fill="white"/>
</svg>
