<svg width="326" height="262" viewBox="0 0 326 262" fill="none" xmlns="http://www.w3.org/2000/svg">
<path d="M162.88 262C232.643 262 289.197 258.435 289.197 254.039C289.197 249.642 232.643 246.078 162.88 246.078C93.1167 246.078 36.5625 249.642 36.5625 254.039C36.5625 258.435 93.1167 262 162.88 262Z" fill="#F5F5F5"/>
<path d="M325.745 230.242H0V230.418H325.745V230.242Z" fill="#EBEBEB"/>
<path d="M88.0617 241.559H66.4844V241.734H88.0617V241.559Z" fill="#EBEBEB"/>
<path d="M139.857 236.234H111.484V236.41H139.857V236.234Z" fill="#EBEBEB"/>
<path d="M65.816 235.027H34.1797V235.203H65.816V235.027Z" fill="#EBEBEB"/>
<path d="M183.652 237.41H161.312V237.586H183.652V237.41Z" fill="#EBEBEB"/>
<path d="M221.096 237.41H189.453V237.586H221.096V237.41Z" fill="#EBEBEB"/>
<path d="M273.813 240.379H212.781V240.555H273.813V240.379Z" fill="#EBEBEB"/>
<path d="M154.4 198.878H28.6041C27.6186 198.876 26.6741 198.452 25.9779 197.7C25.2817 196.947 24.8906 195.926 24.8906 194.863V3.98038C24.8992 2.92271 25.294 1.91141 25.9893 1.16614C26.6846 0.420864 27.6243 0.00181184 28.6041 0H154.4C155.387 0 156.333 0.423065 157.031 1.17612C157.728 1.92918 158.12 2.95055 158.12 4.01554V194.863C158.12 195.928 157.728 196.949 157.031 197.702C156.333 198.455 155.387 198.878 154.4 198.878ZM28.6041 0.14065C27.6618 0.142513 26.7587 0.547875 26.0931 1.26776C25.4274 1.98765 25.0535 2.96323 25.0535 3.98038V194.863C25.0535 195.88 25.4274 196.855 26.0931 197.575C26.7587 198.295 27.6618 198.701 28.6041 198.702H154.4C155.343 198.699 156.245 198.293 156.912 197.574C157.578 196.854 157.954 195.88 157.957 194.863V3.98038C157.954 2.96316 157.578 1.98866 156.912 1.26937C156.245 0.550087 155.343 0.144356 154.4 0.14065H28.6041Z" fill="#EBEBEB"/>
<path d="M295.32 198.878H169.517C168.531 198.874 167.587 198.45 166.89 197.698C166.193 196.946 165.8 195.926 165.797 194.863V3.98038C165.807 2.92207 166.203 1.91078 166.9 1.1657C167.596 0.420618 168.536 0.00179208 169.517 0H295.32C296.298 0.00366005 297.236 0.42353 297.93 1.1686C298.624 1.91368 299.018 2.92393 299.026 3.98038V194.863C299.027 195.389 298.932 195.91 298.746 196.397C298.56 196.884 298.288 197.326 297.943 197.699C297.599 198.072 297.19 198.368 296.74 198.57C296.29 198.773 295.807 198.877 295.32 198.878ZM169.517 0.14065C168.575 0.144356 167.672 0.550087 167.005 1.26937C166.339 1.98866 165.963 2.96316 165.96 3.98038V194.863C165.963 195.88 166.339 196.854 167.005 197.574C167.672 198.293 168.575 198.699 169.517 198.702H295.32C296.262 198.699 297.165 198.293 297.831 197.574C298.497 196.854 298.873 195.88 298.877 194.863V3.98038C298.873 2.96316 298.497 1.98866 297.831 1.26937C297.165 0.550087 296.262 0.144356 295.32 0.14065H169.517Z" fill="#EBEBEB"/>
<path d="M143.337 69.7852H79.6406V230.238H143.337V69.7852Z" fill="#E0E0E0"/>
<path d="M133.704 69.7852H70.0078V230.238H133.704V69.7852Z" fill="#F0F0F0"/>
<path d="M128.013 191.949H76.1875V220.993H128.013V191.949Z" fill="#E0E0E0"/>
<path d="M128.013 153.859H76.1875V182.91H128.013V153.859Z" fill="#E0E0E0"/>
<path d="M128.013 115.766H76.1875V144.817H128.013V115.766Z" fill="#E0E0E0"/>
<path d="M128.013 77.6797H76.1875V106.731H128.013V77.6797Z" fill="#E0E0E0"/>
<path opacity="0.05" d="M87.0153 77.6797H76.1875V106.731H87.0153V77.6797Z" fill="black"/>
<path opacity="0.05" d="M87.0153 115.766H76.1875V144.817H87.0153V115.766Z" fill="black"/>
<path opacity="0.05" d="M87.0153 153.859H76.1875V182.91H87.0153V153.859Z" fill="black"/>
<path opacity="0.05" d="M87.0153 191.949H76.1875V220.993H87.0153V191.949Z" fill="black"/>
<path d="M84.6159 16.7148H39.1094V65.8366H84.6159V16.7148Z" fill="#E0E0E0"/>
<path d="M82.2175 16.7148H36.7109V65.8366H82.2175V16.7148Z" fill="#EBEBEB"/>
<path d="M76.9746 22.3633H41.9375V60.1839H76.9746V22.3633Z" fill="#F5F5F5"/>
<path d="M43.0972 22.3633H41.9375V60.1839H43.0972V22.3633Z" fill="#E0E0E0"/>
<path d="M64.7614 46.6387C67.5084 43.7491 67.5651 39.0029 64.8883 36.0377C62.2114 33.0726 57.8145 33.0113 55.0675 35.9008C52.3206 38.7904 52.2638 43.5366 54.9407 46.5017C57.6176 49.4669 62.0145 49.5282 64.7614 46.6387Z" fill="#FAFAFA"/>
<path d="M36.588 218.348C36.588 218.348 32.9983 215.008 30.5161 207.364C28.0339 199.719 22.2812 190.957 22.2812 190.957C22.2812 190.957 29.806 194.797 32.4575 202.103C32.4575 202.103 29.2001 187.293 22.2812 181.878C22.2812 181.878 34.6596 186.182 37.7672 200.113C37.7672 200.113 39.8324 189.051 36.4642 178.059C36.4642 178.059 42.8032 186.66 43.5459 197.328C43.5459 197.328 44.4254 178.854 50.0608 173.418C50.0608 173.418 48.2887 190.141 50.0608 198.58C50.0608 198.58 52.569 183.77 63.7811 181.702C63.7811 181.702 56.5496 191.098 56.8493 199.375C58.1105 196.516 60.0381 194.059 62.4432 192.246C64.8484 190.432 67.6486 189.324 70.5697 189.03C70.5697 189.03 62.5433 195.099 61.8201 204.973C61.097 214.846 61.0774 217.87 56.2108 219.305C51.3442 220.739 36.588 218.348 36.588 218.348Z" fill="#F5F5F5"/>
<path d="M28.7969 209.316V228.557C28.7969 228.557 31.0901 235.449 45.8203 236.335C60.5505 237.221 63.9903 228.733 63.9903 228.733V209.316H28.7969Z" fill="#E6E6E6"/>
<path d="M290.315 154.91H198.031V230.826H290.315V154.91Z" fill="#E0E0E0"/>
<path d="M267.315 154.91H175.031V230.826H267.315V154.91Z" fill="#EBEBEB"/>
<path d="M262.746 161.941H178.352V190.064H262.746V161.941Z" stroke="#E0E0E0" stroke-miterlimit="10"/>
<path d="M262.746 194.742H178.352V222.865H262.746V194.742Z" stroke="#E0E0E0" stroke-miterlimit="10"/>
<path d="M220.537 178.547C221.843 178.547 222.902 177.404 222.902 175.994C222.902 174.584 221.843 173.441 220.537 173.441C219.231 173.441 218.172 174.584 218.172 175.994C218.172 177.404 219.231 178.547 220.537 178.547Z" fill="#E0E0E0"/>
<path d="M220.537 213.5C221.843 213.5 222.902 212.357 222.902 210.947C222.902 209.537 221.843 208.395 220.537 208.395C219.231 208.395 218.172 209.537 218.172 210.947C218.172 212.357 219.231 213.5 220.537 213.5Z" fill="#E0E0E0"/>
<path d="M293.729 150.855H170.969V154.906H293.729V150.855Z" fill="#E0E0E0"/>
<path opacity="0.05" d="M293.738 150.855H270.812V154.906H293.738V150.855Z" fill="black"/>
<path d="M292.409 37.6406H190.203V100.019H292.409V37.6406Z" fill="#E0E0E0"/>
<path d="M289.745 37.6406H187.539V100.019H289.745V37.6406Z" fill="#F0F0F0"/>
<path d="M285.434 42.3477H191.516V95.6045H285.434V42.3477Z" fill="#F5F5F5"/>
<path d="M192.538 42.3477H191.516V95.6045H192.538V42.3477Z" fill="#E0E0E0"/>
<path d="M280.453 59.2271L268.578 54.4141L264.935 64.8887L276.81 69.7017L280.453 59.2271Z" fill="#FAFAFA"/>
<path d="M269.465 57.033C269.713 57.033 269.915 56.8157 269.915 56.5477C269.915 56.2798 269.713 56.0625 269.465 56.0625C269.217 56.0625 269.016 56.2798 269.016 56.5477C269.016 56.8157 269.217 57.033 269.465 57.033Z" fill="#E6E6E6"/>
<path d="M223.34 72.9453L248.605 75.688L247.061 86.532L222.734 83.3885L223.34 72.9453Z" fill="#FAFAFA"/>
<path d="M247.282 77.6845C247.282 77.7804 247.256 77.8742 247.206 77.954C247.157 78.0338 247.087 78.096 247.004 78.1328C246.922 78.1695 246.832 78.1791 246.745 78.1604C246.657 78.1417 246.577 78.0954 246.514 78.0276C246.452 77.9597 246.409 77.8733 246.391 77.7791C246.374 77.685 246.383 77.5874 246.417 77.4988C246.451 77.4101 246.509 77.3343 246.583 77.281C246.657 77.2277 246.743 77.1992 246.832 77.1992C246.952 77.1992 247.066 77.2503 247.15 77.3413C247.235 77.4323 247.282 77.5558 247.282 77.6845Z" fill="#E6E6E6"/>
<path d="M237.141 150.861L242.724 120.059H268.868L263.435 150.861H237.141Z" fill="#EBEBEB"/>
<path d="M241.125 146.999L245.308 123.918H264.898L260.826 146.999H241.125Z" fill="#FAFAFA"/>
<path d="M246.317 123.918L242.265 146.999H241.125L245.308 123.918H246.317Z" fill="#E6E6E6"/>
<path d="M268.871 120.059H269.952L264.897 150.861H263.438L268.871 120.059Z" fill="#E6E6E6"/>
<path d="M268.112 131.293L271.819 150.857H264.906L268.112 131.293Z" fill="#E0E0E0"/>
<path d="M211.223 31.8398V116.082C211.224 117.45 210.975 118.805 210.49 120.07C210.006 121.334 209.295 122.483 208.399 123.451C207.503 124.419 206.439 125.187 205.268 125.71C204.097 126.234 202.842 126.504 201.574 126.504H193.828V31.8398H211.223Z" fill="#949494"/>
<path opacity="0.8" d="M211.223 31.8398V116.082C211.224 117.45 210.975 118.805 210.49 120.07C210.006 121.334 209.295 122.483 208.399 123.451C207.503 124.419 206.439 125.187 205.268 125.71C204.097 126.234 202.842 126.504 201.574 126.504H193.828V31.8398H211.223Z" fill="white"/>
<path d="M211.219 25.4377V116.079C211.22 117.448 210.971 118.803 210.486 120.067C210.002 121.331 209.291 122.48 208.395 123.448C207.499 124.416 206.435 125.184 205.264 125.708C204.093 126.232 202.838 126.501 201.57 126.501H65.1941C62.6335 126.501 60.1777 125.403 58.367 123.449C56.5563 121.494 55.5391 118.843 55.5391 116.079V25.4377C55.5382 24.0688 55.7874 22.7132 56.2723 21.4483C56.7572 20.1834 57.4683 19.0341 58.3651 18.0661C59.2618 17.0982 60.3265 16.3305 61.4983 15.8071C62.6701 15.2836 63.926 15.0147 65.1941 15.0156H201.57C202.838 15.0156 204.093 15.2853 205.264 15.8091C206.435 16.3329 207.499 17.1007 208.395 18.0686C209.291 19.0365 210.002 20.1855 210.486 21.4499C210.971 22.7143 211.22 24.0694 211.219 25.4377Z" fill="white" stroke="#949494" stroke-miterlimit="10"/>
<path d="M210.786 22.3083H55.9922C56.6091 20.1929 57.8351 18.345 59.4918 17.0335C61.1486 15.7219 63.1497 15.015 65.2042 15.0156H201.581C203.634 15.0165 205.634 15.7241 207.289 17.0356C208.945 18.347 210.17 20.194 210.786 22.3083Z" fill="#949494"/>
<path d="M75.2119 20.145C75.9675 20.145 76.58 19.4839 76.58 18.6682C76.58 17.8526 75.9675 17.1914 75.2119 17.1914C74.4563 17.1914 73.8438 17.8526 73.8438 18.6682C73.8438 19.4839 74.4563 20.145 75.2119 20.145Z" fill="white"/>
<path d="M80.1103 20.145C80.8659 20.145 81.4784 19.4839 81.4784 18.6682C81.4784 17.8526 80.8659 17.1914 80.1103 17.1914C79.3547 17.1914 78.7422 17.8526 78.7422 18.6682C78.7422 19.4839 79.3547 20.145 80.1103 20.145Z" fill="white"/>
<path d="M86.3508 18.6675C86.3508 18.9612 86.2701 19.2484 86.1187 19.4926C85.9674 19.7367 85.7523 19.9269 85.5007 20.039C85.2492 20.1511 84.9725 20.1801 84.7056 20.1223C84.4388 20.0644 84.1939 19.9224 84.0019 19.7142C83.8099 19.506 83.6795 19.2409 83.6272 18.9526C83.5749 18.6643 83.603 18.3657 83.7081 18.0947C83.8131 17.8237 83.9903 17.5925 84.2172 17.4303C84.4442 17.2681 84.7106 17.1822 84.9827 17.1836C85.1629 17.1836 85.3414 17.222 85.5078 17.2967C85.6742 17.3714 85.8253 17.4808 85.9524 17.6186C86.0796 17.7565 86.1802 17.9202 86.2486 18.1001C86.317 18.2801 86.3517 18.4729 86.3508 18.6675Z" fill="white"/>
<path d="M211.222 25.4459V31.8454H55.5156V25.4459C55.5155 24.3845 55.6649 23.3293 55.9586 22.3164H210.753C211.055 23.3278 211.213 24.3831 211.222 25.4459Z" fill="#949494"/>
<path opacity="0.5" d="M211.222 25.4459V31.8454H55.5156V25.4459C55.5155 24.3845 55.6649 23.3293 55.9586 22.3164H210.753C211.055 23.3278 211.213 24.3831 211.222 25.4459Z" fill="white"/>
<path d="M73.8524 31.8398V126.504H64.9792C62.8924 126.522 60.854 125.826 59.1576 124.514C57.4611 123.202 56.1941 121.343 55.5391 119.204V31.8398H73.8524Z" fill="#949494"/>
<path opacity="0.1" d="M73.8524 31.8398V126.504H64.9792C62.8924 126.522 60.854 125.826 59.1576 124.514C57.4611 123.202 56.1941 121.343 55.5391 119.204V31.8398H73.8524Z" fill="black"/>
<path opacity="0.1" d="M187.729 38.5508H80.1094V116.956H187.729V38.5508Z" fill="#949494"/>
<path opacity="0.2" d="M62.9693 42.5039H58.3438V47.497H62.9693V42.5039Z" fill="black"/>
<path opacity="0.2" d="M69.9849 42.5039H65.3594V47.497H69.9849V42.5039Z" fill="black"/>
<path d="M144.688 77.4402C148.63 71.9268 151.203 64.6904 150.669 57.6228C150.167 50.9911 145.209 46.9475 139.19 48.5368C136.649 49.2401 134.323 50.5762 131.978 51.835C128.069 53.9448 123.951 55.7451 119.599 56.3147C115.247 56.8843 110.941 56.3147 106.7 58.108C99.3185 61.2164 97.2663 71.3994 100.113 78.7835C102.641 85.3377 108.661 90.4011 115.065 91.8076" stroke="#263238" stroke-linecap="round" stroke-linejoin="round"/>
<path opacity="0.2" d="M62.9693 50.4258H58.3438V55.4188H62.9693V50.4258Z" fill="black"/>
<path opacity="0.2" d="M69.9849 50.4258H65.3594V55.4188H69.9849V50.4258Z" fill="black"/>
<path opacity="0.2" d="M62.9693 58.3398H58.3438V63.3329H62.9693V58.3398Z" fill="black"/>
<path opacity="0.2" d="M69.9771 58.3398H65.3516V63.3329H69.9771V58.3398Z" fill="black"/>
<path opacity="0.2" d="M62.9693 66.2578H58.3438V71.2509H62.9693V66.2578Z" fill="black"/>
<path opacity="0.2" d="M69.9849 66.2578H65.3594V71.2509H69.9849V66.2578Z" fill="black"/>
<path opacity="0.2" d="M62.9693 74.1719H58.3438V79.1649H62.9693V74.1719Z" fill="black"/>
<path opacity="0.2" d="M69.9849 74.1719H65.3594V79.1649H69.9849V74.1719Z" fill="black"/>
<path opacity="0.2" d="M62.9693 82.0859H58.3438V87.079H62.9693V82.0859Z" fill="black"/>
<path opacity="0.2" d="M69.9849 82.0859H65.3594V87.079H69.9849V82.0859Z" fill="black"/>
<path d="M62.8289 89.7806C62.8288 89.8936 62.7977 90.004 62.7394 90.0978C62.6812 90.1916 62.5984 90.2646 62.5016 90.3075C62.4047 90.3504 62.2983 90.3613 62.1958 90.3387C62.0932 90.3162 61.9992 90.2612 61.9257 90.1808C61.8522 90.1005 61.8024 89.9983 61.7828 89.8874C61.7632 89.7764 61.7746 89.6617 61.8155 89.5577C61.8564 89.4537 61.9251 89.3653 62.0127 89.3035C62.1004 89.2418 62.203 89.2096 62.3077 89.211C62.3767 89.211 62.445 89.2258 62.5086 89.2545C62.5723 89.2832 62.63 89.3253 62.6785 89.3782C62.727 89.4312 62.7653 89.4941 62.7911 89.5632C62.8169 89.6322 62.8297 89.7061 62.8289 89.7806Z" fill="#263238"/>
<path d="M64.7195 89.7806C64.7195 89.8933 64.6885 90.0034 64.6305 90.0971C64.5726 90.1908 64.4901 90.2638 64.3937 90.3069C64.2973 90.35 64.1912 90.3613 64.0888 90.3393C63.9865 90.3173 63.8924 90.2631 63.8186 90.1834C63.7448 90.1037 63.6946 90.0022 63.6742 89.8917C63.6538 89.7812 63.6643 89.6667 63.7042 89.5626C63.7442 89.4585 63.8118 89.3696 63.8986 89.307C63.9854 89.2444 64.0874 89.211 64.1918 89.211C64.2613 89.21 64.3303 89.2241 64.3947 89.2524C64.4592 89.2807 64.5177 89.3226 64.5669 89.3757C64.616 89.4288 64.6549 89.492 64.6811 89.5615C64.7073 89.631 64.7204 89.7055 64.7195 89.7806Z" fill="#263238"/>
<path d="M66.6023 89.7806C66.6023 89.8936 66.5712 90.004 66.5129 90.0978C66.4546 90.1916 66.3718 90.2646 66.275 90.3075C66.1782 90.3504 66.0717 90.3613 65.9692 90.3387C65.8667 90.3162 65.7727 90.2612 65.6991 90.1808C65.6256 90.1005 65.5759 89.9983 65.5562 89.8874C65.5366 89.7764 65.548 89.6617 65.5889 89.5577C65.6299 89.4537 65.6985 89.3653 65.7862 89.3035C65.8738 89.2418 65.9765 89.2096 66.0811 89.211C66.1501 89.211 66.2184 89.2258 66.2821 89.2545C66.3457 89.2832 66.4035 89.3253 66.452 89.3782C66.5004 89.4312 66.5387 89.4941 66.5645 89.5632C66.5903 89.6322 66.6032 89.7061 66.6023 89.7806Z" fill="#263238"/>
<path d="M131.026 84.4373L130.198 85.0632L129.703 81.1602L132.72 83.1433L131.97 83.6918L133.136 85.5484L132.218 86.3642L131.026 84.4373Z" fill="#263238"/>
<path d="M194.208 127.354C194.208 127.354 190.886 144.668 188.638 149.091C186.39 153.514 173.504 153.311 173.504 153.311L158.585 152.509C158.585 152.509 155.744 142.474 167.908 147.678C167.908 147.678 178.169 145.568 182.084 142.052L186.188 123.887L194.208 127.354Z" fill="#FF8B7B"/>
<path d="M238.622 256.43H234.642L223.84 193.004L223.469 190.817L227.313 190.051L227.814 193.004L238.622 256.43Z" fill="#949494"/>
<path opacity="0.5" d="M238.622 256.43H234.642L223.84 193.004L223.469 190.817L227.313 190.051L227.814 193.004L238.622 256.43Z" fill="white"/>
<path d="M221.448 256.425H217.52L212.125 192.999L211.552 186.248L211.422 184.75L215.311 184.363L215.474 186.248L216.047 192.999L221.448 256.425Z" fill="#949494"/>
<path opacity="0.5" d="M221.448 256.425H217.52L212.125 192.999L211.552 186.248L211.422 184.75L215.311 184.363L215.474 186.248L216.047 192.999L221.448 256.425Z" fill="white"/>
<path d="M181.261 187.059L180.844 193.008L176.375 256.434H172.453L176.916 193.008L177.359 186.742L181.261 187.059Z" fill="#949494"/>
<path opacity="0.5" d="M181.261 187.059L180.844 193.008L176.375 256.434H172.453L176.916 193.008L177.359 186.742L181.261 187.059Z" fill="white"/>
<path d="M169.934 187.248L169.055 193.007L159.367 256.433H155.406L165.1 193.007L166.084 186.559L169.934 187.248Z" fill="#949494"/>
<path opacity="0.5" d="M169.934 187.248L169.055 193.007L159.367 256.433H155.406L165.1 193.007L166.084 186.559L169.934 187.248Z" fill="white"/>
<path d="M233.834 185.258L233.476 186.249L231.763 190.926C231.542 191.539 231.155 192.066 230.651 192.437C230.147 192.807 229.551 193.004 228.942 193.001H164.405C163.779 193.002 163.168 192.795 162.655 192.407C162.141 192.019 161.752 191.47 161.539 190.835L160.021 186.249L159.662 185.159C159.498 184.665 159.446 184.135 159.512 183.615C159.578 183.094 159.758 182.599 160.039 182.17C160.319 181.741 160.691 181.391 161.124 181.15C161.556 180.909 162.036 180.784 162.522 180.785H231.013C231.508 180.784 231.995 180.914 232.432 181.164C232.869 181.413 233.243 181.774 233.521 182.215C233.8 182.656 233.974 183.164 234.028 183.694C234.083 184.225 234.016 184.762 233.834 185.258Z" fill="#949494"/>
<path opacity="0.3" d="M233.471 186.25L231.758 190.927C231.537 191.54 231.15 192.067 230.646 192.437C230.142 192.808 229.546 193.004 228.937 193.001H164.4C163.774 193.002 163.163 192.795 162.65 192.408C162.137 192.02 161.747 191.471 161.534 190.835L160.016 186.25H233.471Z" fill="black"/>
<path d="M168.126 226.685L171.175 219.209C171.352 218.774 171.669 218.422 172.068 218.22C172.467 218.019 172.921 217.98 173.344 218.112L178.165 219.589C178.417 219.667 178.651 219.803 178.85 219.987C179.05 220.171 179.21 220.399 179.321 220.656C179.431 220.912 179.489 221.192 179.491 221.475C179.493 221.758 179.438 222.038 179.331 222.297C178.028 225.475 175.553 231.397 174.771 233.513C173.709 236.46 172.816 240.011 171.396 241.003C171.309 241.065 171.218 241.119 171.122 241.165C170.823 241.298 170.497 241.341 170.177 241.291C169.856 241.241 169.555 241.098 169.303 240.879C169.051 240.66 168.859 240.372 168.746 240.045C168.632 239.717 168.603 239.364 168.66 239.02C169.038 236.544 169.448 231.917 168.067 228.183C167.983 227.942 167.945 227.685 167.955 227.427C167.965 227.17 168.023 226.917 168.126 226.685Z" fill="#263238"/>
<path d="M194.456 155.634C194.456 155.634 161.524 150.782 151.575 160.88C151.575 160.88 145.412 169.959 148.377 187.73C150.315 198.698 154.527 209.05 160.696 218.012L169.342 210.079C169.342 210.079 161.647 189.622 164.253 176.964L176.215 176.197L193.368 163.539L195.167 158.292L194.456 155.634Z" fill="#263238"/>
<path d="M161.483 221.582L158.258 217.356L170.076 206.863L172.31 209.374L161.483 221.582Z" fill="#949494"/>
<path d="M226.816 155.244C226.816 155.244 227.728 165.371 224.75 172.783C221.773 180.196 211.252 182.91 204.157 182.418C197.062 181.926 187.909 181.293 184.019 182.474C184.019 182.474 178.983 213.298 170.286 235.773L159.758 234.789C159.758 234.789 165.478 191.286 166.396 181.18C167.315 171.075 166.853 169.57 172.573 164.633C178.293 159.696 207.59 153.022 226.816 155.244Z" fill="#263238"/>
<path d="M167.613 239.846L166.616 244.551L158.258 247.709L160.688 237.688L167.613 239.846Z" fill="#FF8B7B"/>
<path d="M158.141 247.415L165.243 244.567C165.656 244.402 166.111 244.405 166.523 244.574C166.935 244.744 167.276 245.068 167.484 245.488L169.855 250.249C169.984 250.5 170.061 250.778 170.08 251.063C170.099 251.349 170.06 251.636 169.965 251.904C169.871 252.172 169.724 252.414 169.534 252.614C169.344 252.814 169.115 252.967 168.865 253.062C165.835 254.251 160.187 256.473 158.252 257.359C155.555 258.597 152.571 260.376 150.923 259.961C150.821 259.938 150.721 259.908 150.623 259.87C150.326 259.729 150.07 259.505 149.88 259.221C149.691 258.938 149.576 258.604 149.546 258.256C149.517 257.907 149.575 257.557 149.714 257.241C149.853 256.925 150.068 256.655 150.337 256.459C152.245 255.052 155.607 252.127 157.125 248.456C157.22 248.217 157.36 248.002 157.534 247.823C157.709 247.644 157.916 247.505 158.141 247.415Z" fill="#263238"/>
<path d="M194.226 157.961C194.226 157.961 189.939 127.356 189.014 119.908C188.089 112.461 189.014 108.656 191.62 106.216C194.226 103.776 206.174 98.5649 214.194 99.9714C222.214 101.378 226.129 108.628 227.224 116.849L225.36 117.855C225.36 117.855 227.745 146.379 226.878 156.245L194.226 157.961Z" fill="#949494"/>
<path d="M191.612 106.195C191.612 106.195 185.273 112.236 185.273 123.91L195.157 127.996L191.612 106.195Z" fill="#949494"/>
<path d="M225.502 117.738C225.502 117.738 229.092 131.438 228.108 137.099C227.124 142.76 218.192 150.355 205.775 152.887C205.775 152.887 200.257 153.927 197.078 151.1L192.25 149.609L193.631 144.989C197.31 145.059 200.933 145.978 204.257 147.683C204.257 147.683 216.121 141.874 219.847 137.408C219.847 137.408 219.43 128.322 217.365 121.937L225.502 117.738Z" fill="#FF8B7B"/>
<path d="M171.765 235.782L157.908 233.531L157.406 238.236L169.98 241.007L171.765 235.782Z" fill="#949494"/>
<path d="M184.66 87.3335C183.802 90.0367 183.909 92.9882 184.96 95.6108C184.472 93.5189 184.562 91.3184 185.22 89.2815C185.872 87.3546 186.947 85.6598 187.781 83.8314C188.615 82.0029 189.181 79.8721 188.628 77.9241C188.51 77.5373 188.25 77.0872 187.878 77.1505C187.507 77.2138 187.429 77.5514 187.325 77.8538C186.965 78.655 186.69 79.4971 186.504 80.3644C186.413 81.0325 186.504 81.6935 186.413 82.3757C186.106 84.0916 185.201 85.6528 184.66 87.3335Z" fill="#263238"/>
<path d="M188.485 81.405C187.985 81.6089 187.547 81.9601 187.223 82.4188C186.898 82.8775 186.699 83.4253 186.648 84C185.677 83.3247 184.954 82.3044 184.606 81.1154C184.257 79.9264 184.305 78.6434 184.739 77.4879C186.244 73.2684 188.283 67.2838 194.355 68.1559C200.427 69.0279 213.157 70.9688 208.597 85.6104C204.036 100.252 199.515 82.3685 199.515 82.3685L188.485 81.405Z" fill="#263238"/>
<path d="M201.776 108.772C196.245 108.399 198.59 103.251 198.844 101.346C198.912 100.514 198.744 99.6805 198.362 98.9545C198.105 98.4154 197.79 97.9103 197.424 97.4496C195.001 97.4496 192.317 97.0979 190.395 95.3398C188.245 93.4059 187.391 89.7982 187.039 86.936C186.763 84.2882 186.716 81.6186 186.896 78.9612C186.896 78.5674 186.948 78.1806 186.961 77.7938C187.046 76.2678 187.137 74.7488 187.189 73.2579C187.189 73.2579 192.551 71.985 197.34 73.1665C200.884 74.0385 203.372 77.2172 204.447 82.2172C204.843 84.1215 205.042 86.0674 205.04 88.019C205.138 96.3314 208.154 97.7871 209.333 100.227C210.513 102.668 207.32 109.123 201.776 108.772Z" fill="#FF8B7B"/>
<path d="M191.899 88.7345L190.596 83.3828L189.703 89.0088C189.703 89.0088 190.426 89.6487 191.899 88.7345Z" fill="#FF5652"/>
<path d="M195.735 89.6484C195.735 89.6484 194.921 91.5331 192.328 91.8637" stroke="#263238" stroke-width="0.5" stroke-linecap="round" stroke-linejoin="round"/>
<path d="M195.445 80.587C195.091 80.167 194.627 79.8744 194.114 79.7486C193.601 79.6228 193.065 79.67 192.578 79.8838" stroke="#263238" stroke-width="0.75" stroke-linecap="round" stroke-linejoin="round"/>
<path d="M193.395 83.2109C193.441 83.7524 193.734 84.1673 194.047 84.1392C194.359 84.1111 194.581 83.6469 194.542 83.1054C194.503 82.5639 194.203 82.149 193.89 82.1771C193.578 82.2053 193.356 82.6694 193.395 83.2109Z" fill="#263238"/>
<path d="M187.641 84.735C187.686 85.2765 187.979 85.6915 188.292 85.6633C188.605 85.6352 188.826 85.171 188.787 84.6295C188.748 84.088 188.448 83.6661 188.136 83.7013C187.823 83.7364 187.641 84.1935 187.641 84.735Z" fill="#263238"/>
<path d="M186.797 77.8754C188.886 77.3599 190.848 76.3645 192.55 74.9569C194.465 81.7925 202.622 82.0386 204.661 82.0386C203.592 77.0385 201.025 73.5645 197.494 72.6925C192.712 71.511 187.071 72.8753 187.071 72.8753C187.018 74.3732 186.875 76.3564 186.797 77.8754Z" fill="#263238"/>
<path d="M193.898 82.1727L192.562 81.8984C192.562 81.8984 192.908 82.9463 193.898 82.1727Z" fill="#263238"/>
<path d="M188.398 83.7282L187.062 83.4609C187.062 83.4609 187.408 84.5017 188.398 83.7282Z" fill="#263238"/>
<path d="M206.032 69.2443C206.697 66.273 204.893 63.254 202.004 62.5013C199.115 61.7486 196.235 63.5471 195.57 66.5184C194.906 69.4897 196.709 72.5086 199.598 73.2614C202.487 74.0141 205.368 72.2156 206.032 69.2443Z" fill="#263238"/>
<path d="M190.8 75.9535L189.719 77.4866C189.719 77.4866 192.579 76.9521 193.211 74.8424C193.843 72.7326 191.458 74.3853 191.458 74.3853L190.8 75.9535Z" fill="#263238"/>
<path opacity="0.1" d="M201.085 95.7734C200.384 97.0178 199.461 98.0985 198.368 98.9521C198.11 98.413 197.795 97.908 197.43 97.4472C198.719 97.0895 199.951 96.5254 201.085 95.7734Z" fill="black"/>
<path d="M186.422 82.333C186.571 81.8326 186.879 81.4051 187.291 81.1259C187.703 80.8466 188.194 80.7337 188.676 80.8069" stroke="#263238" stroke-width="0.75" stroke-linecap="round" stroke-linejoin="round"/>
<path d="M202.985 82.8954C203.163 82.6082 203.366 82.3398 203.591 82.0937C204.353 81.2568 205.598 80.1597 206.751 80.7716C208.145 81.4748 207.852 83.6197 207.461 84.9137C207.146 86.0719 206.426 87.0527 205.454 87.6493C204.08 88.4159 202.034 88.008 202.047 86.0107C202.069 84.8952 202.395 83.8115 202.985 82.8954Z" fill="#FF8B7B"/>
<path d="M204.462 80.5961C204.462 80.5961 202.182 84.7453 203.113 88.4162C204.045 92.0871 203.53 93.8171 202.885 95.7651C202.885 95.7651 203.139 90.1884 202.071 88.1771C200.442 85.1039 202.722 80.582 202.722 80.582L204.462 80.5961Z" fill="#263238"/>
<path d="M195.641 68.2176C195.641 68.2176 201.543 68.9771 205.094 71.5932C205.094 71.558 202.012 67.1346 195.641 68.2176Z" fill="#949494"/>
<path d="M122.778 150.863H159.912C160.29 150.863 160.662 150.771 161.001 150.592C161.34 150.414 161.637 150.155 161.869 149.834C162.102 149.514 162.263 149.14 162.342 148.742C162.421 148.344 162.414 147.932 162.323 147.537L155.717 119.118C155.583 118.538 155.273 118.022 154.836 117.654C154.399 117.285 153.861 117.086 153.306 117.086H116.171C115.794 117.086 115.422 117.178 115.083 117.356C114.744 117.535 114.447 117.794 114.215 118.114C113.982 118.435 113.821 118.809 113.742 119.207C113.663 119.605 113.67 120.017 113.761 120.412L120.328 148.83C120.463 149.418 120.779 149.939 121.224 150.308C121.669 150.677 122.217 150.873 122.778 150.863Z" fill="#263238"/>
<path d="M183.862 150.759H158.623V148.649H182.572C182.918 148.649 183.249 148.797 183.493 149.061C183.738 149.325 183.875 149.682 183.875 150.055V150.801L183.862 150.759Z" fill="#263238"/>
<path opacity="0.3" d="M122.778 150.863H159.912C160.29 150.863 160.662 150.771 161.001 150.592C161.34 150.414 161.637 150.155 161.869 149.834C162.102 149.514 162.263 149.14 162.342 148.742C162.421 148.344 162.414 147.932 162.323 147.537L155.717 119.118C155.583 118.538 155.273 118.022 154.836 117.654C154.399 117.285 153.861 117.086 153.306 117.086H116.171C115.794 117.086 115.422 117.178 115.083 117.356C114.744 117.535 114.447 117.794 114.215 118.114C113.982 118.435 113.821 118.809 113.742 119.207C113.663 119.605 113.67 120.017 113.761 120.412L120.328 148.83C120.463 149.418 120.779 149.939 121.224 150.308C121.669 150.677 122.217 150.873 122.778 150.863Z" fill="black"/>
<path d="M120.831 150.863H157.966C158.343 150.863 158.715 150.771 159.054 150.592C159.393 150.414 159.69 150.155 159.923 149.834C160.155 149.514 160.317 149.14 160.395 148.742C160.474 148.344 160.467 147.932 160.376 147.537L153.764 119.118C153.63 118.538 153.32 118.022 152.883 117.654C152.446 117.285 151.908 117.086 151.353 117.086H114.218C113.841 117.086 113.469 117.178 113.13 117.356C112.791 117.535 112.494 117.794 112.261 118.114C112.029 118.435 111.867 118.809 111.789 119.207C111.71 119.605 111.717 120.017 111.808 120.412L118.375 148.83C118.512 149.419 118.829 149.94 119.275 150.309C119.721 150.678 120.269 150.873 120.831 150.863Z" fill="#263238"/>
<path opacity="0.2" d="M120.831 150.863H157.966C158.343 150.863 158.715 150.771 159.054 150.592C159.393 150.414 159.69 150.155 159.923 149.834C160.155 149.514 160.317 149.14 160.395 148.742C160.474 148.344 160.467 147.932 160.376 147.537L153.764 119.118C153.63 118.538 153.32 118.022 152.883 117.654C152.446 117.285 151.908 117.086 151.353 117.086H114.218C113.841 117.086 113.469 117.178 113.13 117.356C112.791 117.535 112.494 117.794 112.261 118.114C112.029 118.435 111.867 118.809 111.789 119.207C111.71 119.605 111.717 120.017 111.808 120.412L118.375 148.83C118.512 149.419 118.829 149.94 119.275 150.309C119.721 150.678 120.269 150.873 120.831 150.863Z" fill="white"/>
<path opacity="0.3" d="M137.756 133.144C138.271 135.514 137.235 137.814 135.437 138.271C133.639 138.728 131.749 137.181 131.228 134.811C130.707 132.441 131.749 130.141 133.547 129.684C135.345 129.227 137.235 130.809 137.756 133.144Z" fill="black"/>
<path d="M111.823 153.333L98.1219 245.05H95.0859L108.865 152.812L111.823 153.333Z" fill="#949494"/>
<path opacity="0.5" d="M111.823 153.333L98.1219 245.05H95.0859L108.865 152.812L111.823 153.333Z" fill="white"/>
<path d="M131.968 245.052H128.926L115.688 153.327L118.652 152.828L131.968 245.052Z" fill="#949494"/>
<path opacity="0.5" d="M131.968 245.052H128.926L115.688 153.327L118.652 152.828L131.968 245.052Z" fill="white"/>
<path d="M163.587 153.333L149.886 245.05H146.844L160.623 152.812L163.587 153.333Z" fill="#949494"/>
<path opacity="0.5" d="M163.587 153.333L149.886 245.05H146.844L160.623 152.812L163.587 153.333Z" fill="white"/>
<path d="M209.312 245.052H206.276L193.031 153.327L195.996 152.828L209.312 245.052Z" fill="#949494"/>
<path opacity="0.5" d="M209.312 245.052H206.276L193.031 153.327L195.996 152.828L209.312 245.052Z" fill="white"/>
<path d="M213.041 150.207H87.1406V154.476H213.041V150.207Z" fill="#949494"/>
<path opacity="0.3" d="M213.104 150.207H162.359V154.476H213.104V150.207Z" fill="black"/>
<path d="M208.514 150.209H187.719C187.719 149.877 187.841 149.558 188.058 149.324C188.276 149.089 188.571 148.957 188.878 148.957H207.348C207.656 148.957 207.952 149.089 208.17 149.323C208.389 149.558 208.513 149.876 208.514 150.209Z" fill="#263238"/>
<path d="M200.979 138.245L198.178 145.502C197.663 145.39 197.201 145.312 196.875 145.263L199.794 137.703C199.86 137.531 199.987 137.394 200.148 137.323C200.308 137.251 200.487 137.252 200.647 137.324C200.807 137.395 200.934 137.533 201 137.706C201.066 137.878 201.065 138.072 200.999 138.245H200.979Z" fill="#263238"/>
<path d="M202.952 132.553C206.55 132.553 209.467 128.907 209.467 124.409C209.467 119.912 206.55 116.266 202.952 116.266C199.354 116.266 196.438 119.912 196.438 124.409C196.438 128.907 199.354 132.553 202.952 132.553Z" fill="#263238"/>
<path d="M217.365 121.908L216.922 120.213L226.896 114.848L227.235 116.88L217.365 121.908Z" fill="#263238"/>
<path opacity="0.1" d="M216.914 120.212L213.891 115.324L218.692 127.434L216.914 120.212Z" fill="black"/>
<path d="M189.775 125.768L189.502 123.932L185.273 122.195V123.932L189.775 125.768Z" fill="#263238"/>
<path opacity="0.1" d="M189.769 125.762C189.684 125.411 188.648 117.738 188.648 117.738V125.305L189.769 125.762Z" fill="black"/>
<path d="M198.18 102.634C198.18 102.634 195.326 109.512 202.049 109.294C208.773 109.076 210.467 103.717 210.805 99.7298L208.708 98.9492C208.708 98.9492 207.496 104.575 202.949 105.693C198.401 106.812 198.779 101.692 198.779 101.692L198.18 102.634Z" fill="#263238"/>
<path opacity="0.1" d="M159.984 240.575L167.079 242.375L167.483 240.455L160.395 238.887L159.984 240.575Z" fill="black"/>
</svg>
