<svg width="378" height="289" viewBox="0 0 378 289" fill="none" xmlns="http://www.w3.org/2000/svg">
<path d="M377.225 253.478H0V253.671H377.225V253.478Z" fill="#999999"/>
<path d="M339.425 265.936H314.438V266.129H339.425V265.936Z" fill="#999999"/>
<path d="M249.876 268.044H243.32V268.237H249.876V268.044Z" fill="#999999"/>
<path d="M313.681 258.757H299.203V258.95H313.681V258.757Z" fill="#999999"/>
<path d="M72.1628 260.053H39.5781V260.246H72.1628V260.053Z" fill="#999999"/>
<path d="M83.6585 260.053H78.8828V260.246H83.6585V260.053Z" fill="#999999"/>
<path d="M169.864 263.316H99.1875V263.51H169.864V263.316Z" fill="#999999"/>
<path d="M178.813 218.947H33.1363C31.9951 218.945 30.9013 218.479 30.095 217.65C29.2888 216.821 28.8359 215.698 28.8359 214.527V4.38204C28.8459 3.21765 29.3031 2.10429 30.1083 1.28381C30.9135 0.463334 32.0016 0.00199467 33.1363 0H178.813C179.956 0 181.051 0.465757 181.859 1.29481C182.667 2.12386 183.121 3.2483 183.121 4.42075V214.527C183.121 215.699 182.667 216.823 181.859 217.652C181.051 218.482 179.956 218.947 178.813 218.947ZM33.1363 0.154843C32.0451 0.156894 30.9993 0.603162 30.2284 1.39569C29.4575 2.18823 29.0245 3.26226 29.0245 4.38204V214.527C29.0245 215.646 29.4575 216.72 30.2284 217.513C30.9993 218.305 32.0451 218.752 33.1363 218.754H178.813C179.905 218.752 180.952 218.306 181.724 217.513C182.496 216.721 182.93 215.647 182.932 214.527V4.38204C182.93 3.26155 182.496 2.18753 181.724 1.39522C180.952 0.60291 179.905 0.15689 178.813 0.154843H33.1363Z" fill="#999999"/>
<path d="M342.008 218.947H196.324C195.182 218.945 194.087 218.479 193.28 217.65C192.472 216.822 192.018 215.698 192.016 214.527V4.38204C192.028 3.21694 192.486 2.10359 193.293 1.28333C194.099 0.463063 195.188 0.00197292 196.324 0H342.008C343.141 0.00402939 344.227 0.466269 345.031 1.28653C345.835 2.10679 346.291 3.21898 346.301 4.38204V214.527C346.301 215.696 345.849 216.818 345.044 217.647C344.24 218.476 343.148 218.943 342.008 218.947ZM196.324 0.154843C195.232 0.15689 194.185 0.60291 193.413 1.39522C192.641 2.18753 192.206 3.26155 192.204 4.38204V214.527C192.206 215.647 192.641 216.721 193.413 217.513C194.185 218.306 195.232 218.752 196.324 218.754H342.008C343.1 218.752 344.146 218.306 344.918 217.513C345.69 216.721 346.125 215.647 346.127 214.527V4.38204C346.125 3.26155 345.69 2.18753 344.918 1.39522C344.146 0.60291 343.1 0.15689 342.008 0.154843H196.324Z" fill="#999999"/>
<path d="M337.434 64.7344H239.023V69.9216H337.434V64.7344Z" fill="#C4C4C4"/>
<path d="M247.869 45.6084H243.531V64.7314H247.869V45.6084Z" fill="#999999"/>
<path d="M268.846 45.6084H264.508V64.7314H268.846V45.6084Z" fill="#999999"/>
<path d="M292.634 45.1217L288.359 45.8779L291.525 64.7231L295.8 63.9669L292.634 45.1217Z" fill="#999999"/>
<path d="M253.244 48.127H248.906V64.7338H253.244V48.127Z" fill="#999999"/>
<path d="M263.205 48.127H258.867V64.7338H263.205V48.127Z" fill="#999999"/>
<path d="M288.369 48.127H284.031V64.7338H288.369V48.127Z" fill="#999999"/>
<path d="M274.539 47.5479L270.305 48.5137L273.816 64.725L278.05 63.7592L274.539 47.5479Z" fill="#999999"/>
<path d="M256.993 44.6543H254.828V64.7296H256.993V44.6543Z" fill="#999999"/>
<path d="M282.79 44.6543H280.625V64.7296H282.79V44.6543Z" fill="#999999"/>
<path d="M327.984 49.5918H306.859V64.5573H327.984V49.5918Z" fill="#999999"/>
<path d="M239.004 108.652L337.414 108.652V103.465L239.004 103.465V108.652Z" fill="#C4C4C4"/>
<path d="M328.553 103.474H332.891V84.3506H328.553V103.474Z" fill="#999999"/>
<path d="M307.584 103.474H311.922V84.3506H307.584V103.474Z" fill="#999999"/>
<path d="M280.623 102.717L284.898 103.474L288.064 84.6285L283.789 83.8723L280.623 102.717Z" fill="#999999"/>
<path d="M323.178 103.462H327.516V86.8551H323.178V103.462Z" fill="#999999"/>
<path d="M313.224 103.462H317.562V86.8551H313.224V103.462Z" fill="#999999"/>
<path d="M288.06 103.462H292.398V86.8551H288.06V103.462Z" fill="#999999"/>
<path d="M298.398 102.492L302.633 103.458L306.144 87.2467L301.909 86.2809L298.398 102.492Z" fill="#999999"/>
<path d="M319.428 103.462H321.594V83.3866H319.428V103.462Z" fill="#999999"/>
<path d="M293.639 103.462H295.805V83.3866H293.639V103.462Z" fill="#999999"/>
<path d="M248.438 103.301H269.562V88.3353H248.438V103.301Z" fill="#999999"/>
<path d="M39.9844 163.359V253.942H44.5111V172.65H124.483V253.942H129.764V163.359H39.9844Z" fill="#C4C4C4"/>
<path d="M89.7812 163.359V253.942H94.3079V172.65H174.28V253.942H179.561V163.359H89.7812Z" fill="#999999"/>
<path d="M118.358 129.606C117.347 127.902 115.687 129.389 115.687 129.389C115.921 126.114 112.994 123.884 112.994 123.884C112.994 123.884 116.396 123.884 116.872 120.547C117.347 117.21 115.687 118.767 114.125 118.743C112.564 118.72 110.934 123.389 112.994 126.021C115.053 128.653 114.503 133.144 109.75 137.456C108.612 138.547 107.759 139.912 107.267 141.428C107.63 137.464 107.833 131.874 106.694 128.15C104.763 121.809 108.444 120.106 109.508 116.94C110.572 113.773 106.694 111.086 106.694 111.086C106.694 111.086 110.346 109.383 108.557 107.432C106.769 105.481 103.103 105.744 103.103 108.299C103.103 110.854 105.593 111.822 105.593 111.822C105.593 111.822 108.444 114.865 108.444 116.467C108.444 118.07 105.593 121.461 105.593 121.461C105.593 121.461 106.898 118.542 104.287 118.418C101.677 118.294 100.839 121.825 101.911 123.412C102.982 124.999 104.763 123.652 104.763 123.652C104.872 125.501 105.144 127.335 105.577 129.133C105.841 130.047 105.721 133.624 105.494 137.34C104.998 135.998 104.205 134.792 103.178 133.817C98.4328 129.505 97.8971 125.015 99.9341 122.382C101.971 119.75 100.364 115.081 98.8025 115.105C97.2407 115.128 95.581 113.556 96.0563 116.909C96.5316 120.261 99.9341 120.245 99.9341 120.245C99.9341 120.245 97.0069 122.475 97.2483 125.75C97.2483 125.75 95.581 124.264 94.57 125.967C92.7744 129.017 96.9465 130.906 97.6481 129.404C97.6481 129.404 106.505 135.838 104.37 145.098L104.868 145.872C104.8 146.646 104.763 147.072 104.763 147.072L105.457 146.77L106.211 147.962C106.184 149.307 106.252 150.653 106.415 151.988L108.527 148.775C106.392 139.485 115.249 133.082 115.249 133.082C115.981 134.545 120.161 132.656 118.358 129.606Z" fill="#C4C4C4"/>
<path d="M112.996 163.352L110.136 146.559L110.944 141.674H101.943L102.75 146.559L99.8984 163.352H112.996Z" fill="#999999"/>
<path d="M188.608 288.441C269.397 288.441 334.889 284.517 334.889 279.677C334.889 274.837 269.397 270.913 188.608 270.913C107.82 270.913 42.3281 274.837 42.3281 279.677C42.3281 284.517 107.82 288.441 188.608 288.441Z" fill="#999999"/>
<path d="M226.889 40.4888L203.648 27.6094L187.258 58.7551L210.499 71.6345L226.889 40.4888Z" fill="#949494"/>
<path opacity="0.6" d="M226.889 40.4888L203.648 27.6094L187.258 58.7551L210.499 71.6345L226.889 40.4888Z" fill="white"/>
<path d="M221.101 42.9862L204.797 33.9512L203.911 35.6338L220.215 44.6689L221.101 42.9862Z" fill="#949494"/>
<path d="M219.554 45.9316L203.25 36.8965L202.365 38.5791L218.668 47.6142L219.554 45.9316Z" fill="#949494"/>
<path d="M217.999 48.8691L201.695 39.834L200.81 41.5166L217.114 50.5517L217.999 48.8691Z" fill="#949494"/>
<path d="M216.437 51.8192L200.133 42.7842L199.247 44.4668L215.551 53.5019L216.437 51.8192Z" fill="#949494"/>
<path d="M214.898 54.7607L198.594 45.7256L197.708 47.4082L214.012 56.4433L214.898 54.7607Z" fill="#949494"/>
<path d="M213.351 57.7138L197.047 48.6787L196.161 50.3613L212.465 59.3964L213.351 57.7138Z" fill="#949494"/>
<path d="M211.804 60.6513L195.5 51.6162L194.615 53.2988L210.918 62.3339L211.804 60.6513Z" fill="#949494"/>
<path d="M204.493 60.4235L193.938 54.5742L193.052 56.2569L203.607 62.1061L204.493 60.4235Z" fill="#949494"/>
<path d="M165.135 40.7202C161.847 40.3749 158.732 39.0368 156.186 36.8752C153.639 34.7135 151.774 31.8254 150.826 28.576C149.879 25.3266 149.892 21.8619 150.863 18.62C151.835 15.3781 153.721 12.5047 156.284 10.363C158.847 8.22132 161.971 6.90763 165.261 6.58803C168.552 6.26844 171.861 6.9573 174.77 8.56751C177.679 10.1777 180.057 12.637 181.604 15.6342C183.151 18.6315 183.797 22.0322 183.46 25.4063C183.003 29.9284 180.818 34.0799 177.382 36.9506C173.947 39.8214 169.543 41.177 165.135 40.7202Z" fill="#949494"/>
<path opacity="0.3" d="M168.011 39.2442C176.407 38.5812 182.69 31.0591 182.043 22.4431C181.397 13.827 174.067 7.37979 165.671 8.04275C157.275 8.70572 150.992 16.2278 151.639 24.8439C152.285 33.4599 159.615 39.9072 168.011 39.2442Z" fill="white"/>
<path d="M172.011 18.5852C170.253 17.3078 167.801 12.9412 167.801 12.918L166.217 28.7429C166.254 28.3867 164.881 28.0229 163.953 27.9687C161.743 27.7287 159.879 28.7971 159.728 30.2913C159.577 31.7855 161.237 33.272 163.501 33.5043C165.764 33.7365 167.552 32.6681 167.71 31.1352C167.71 30.9029 167.552 30.6552 167.575 30.4461L168.789 18.2523C169.697 19.3247 170.812 20.192 172.064 20.7995C173.731 21.5737 174.327 23.9505 174.327 23.9505C174.409 22.9288 174.239 21.9024 173.835 20.9651C173.43 20.0278 172.803 19.2095 172.011 18.5852Z" fill="white"/>
<path opacity="0.5" d="M169.68 29.1373C175.576 25.9996 178.302 19.3912 175.768 14.3769C173.234 9.36262 166.4 7.84129 160.504 10.9789C154.608 14.1166 151.882 20.725 154.416 25.7393C156.95 30.7536 163.784 32.2749 169.68 29.1373Z" fill="white"/>
<path d="M134.125 1.39753L98.2188 4.39453L100.405 31.9815L136.312 28.9845L134.125 1.39753Z" fill="#949494"/>
<path d="M132.545 3.33336L100.211 6.03223L102.107 29.9538L134.442 27.2549L132.545 3.33336Z" fill="#949494"/>
<path opacity="0.5" d="M132.545 3.33336L100.211 6.03223L102.107 29.9538L134.442 27.2549L132.545 3.33336Z" fill="white"/>
<path d="M134.171 24.0031L134.428 27.2548L102.092 29.9568L101.172 18.3282L107.366 11.7783L118.056 20.8598L122.991 16.501L134.171 24.0031Z" fill="#949494"/>
<path opacity="0.3" d="M134.171 24.0031L134.428 27.2548L102.092 29.9568L101.172 18.3282L107.366 11.7783L118.056 20.8598L122.991 16.501L134.171 24.0031Z" fill="white"/>
<path d="M127.658 10.0647C127.699 10.5927 127.587 11.1215 127.336 11.5842C127.085 12.0469 126.705 12.4229 126.246 12.6644C125.787 12.906 125.268 13.0023 124.755 12.9413C124.242 12.8802 123.759 12.6646 123.365 12.3215C122.972 11.9785 122.687 11.5235 122.545 11.014C122.404 10.5045 122.413 9.9635 122.571 9.45927C122.729 8.95504 123.03 8.51028 123.434 8.18119C123.839 7.85211 124.329 7.65348 124.844 7.61043C125.185 7.58182 125.529 7.62262 125.856 7.7305C126.182 7.83838 126.485 8.01121 126.746 8.23914C127.008 8.46706 127.223 8.7456 127.379 9.05884C127.535 9.37207 127.63 9.71386 127.658 10.0647Z" fill="#949494"/>
<path opacity="0.3" d="M127.658 10.0647C127.699 10.5927 127.587 11.1215 127.336 11.5842C127.085 12.0469 126.705 12.4229 126.246 12.6644C125.787 12.906 125.268 13.0023 124.755 12.9413C124.242 12.8802 123.759 12.6646 123.365 12.3215C122.972 11.9785 122.687 11.5235 122.545 11.014C122.404 10.5045 122.413 9.9635 122.571 9.45927C122.729 8.95504 123.03 8.51028 123.434 8.18119C123.839 7.85211 124.329 7.65348 124.844 7.61043C125.185 7.58182 125.529 7.62262 125.856 7.7305C126.182 7.83838 126.485 8.01121 126.746 8.23914C127.008 8.46706 127.223 8.7456 127.379 9.05884C127.535 9.37207 127.63 9.71386 127.658 10.0647Z" fill="white"/>
<path d="M65.171 33.9639L63.7828 33.0891C63.5367 32.933 63.2583 32.8383 62.97 32.8128C62.6817 32.7872 62.3916 32.8315 62.123 32.942L55.9592 35.613C55.7001 35.721 55.4727 35.8963 55.2995 36.1216C55.1262 36.3469 55.013 36.6145 54.9708 36.8982L54.7445 38.4466C54.7062 38.7297 54.5952 38.9972 54.4228 39.2217C54.2504 39.4462 54.0229 39.6196 53.7637 39.7241L50.082 41.2725C49.8717 41.3601 49.6817 41.4921 49.5242 41.6598C49.3667 41.8276 49.2453 42.0274 49.1678 42.2463C49.0903 42.4652 49.0584 42.6984 49.0743 42.9307C49.0901 43.1631 49.1532 43.3894 49.2596 43.5951L59.0675 64.2202C59.2749 64.6476 59.6311 64.9795 60.0657 65.1501C60.5002 65.3208 60.9814 65.3177 61.4138 65.1415L90.5808 52.6457C90.7926 52.5598 90.9842 52.4289 91.1431 52.2617C91.3021 52.0944 91.4248 51.8946 91.5031 51.6753C91.5815 51.4559 91.6138 51.2221 91.5979 50.989C91.5819 50.756 91.5182 50.529 91.4107 50.323L81.6029 29.7058C81.3968 29.277 81.0411 28.9434 80.6065 28.7712C80.1718 28.5991 79.6899 28.6011 79.2566 28.7767L66.8308 34.111C66.5622 34.2215 66.2721 34.2658 65.9838 34.2403C65.6955 34.2147 65.4171 34.1201 65.171 33.9639Z" fill="#949494"/>
<path d="M82.988 29.5465L56.2729 41.0358C55.7281 41.2777 55.2888 41.7164 55.0384 42.2688C54.788 42.8211 54.7441 43.4486 54.9149 44.032L60.7619 63.0235C60.8443 63.2956 60.982 63.5468 61.166 63.7602C61.35 63.9737 61.5761 64.1446 61.8293 64.2617C62.0824 64.3788 62.357 64.4394 62.6347 64.4395C62.9124 64.4396 63.187 64.3792 63.4402 64.2622L90.1628 52.7884C90.7055 52.5439 91.1428 52.1048 91.3928 51.5533C91.6428 51.0017 91.6883 50.3757 91.5208 49.7922L85.6663 30.8008C85.5867 30.5265 85.4507 30.2729 85.2677 30.057C85.0846 29.8411 84.8586 29.6679 84.6049 29.5491C84.3512 29.4303 84.0756 29.3686 83.7967 29.3682C83.5178 29.3677 83.2421 29.4285 82.988 29.5465Z" fill="#949494"/>
<path opacity="0.5" d="M82.988 29.5465L56.2729 41.0358C55.7281 41.2777 55.2888 41.7164 55.0384 42.2688C54.788 42.8211 54.7441 43.4486 54.9149 44.032L60.7619 63.0235C60.8443 63.2956 60.982 63.5468 61.166 63.7602C61.35 63.9737 61.5761 64.1446 61.8293 64.2617C62.0824 64.3788 62.357 64.4394 62.6347 64.4395C62.9124 64.4396 63.187 64.3792 63.4402 64.2622L90.1628 52.7884C90.7055 52.5439 91.1428 52.1048 91.3928 51.5533C91.6428 51.0017 91.6883 50.3757 91.5208 49.7922L85.6663 30.8008C85.5867 30.5265 85.4507 30.2729 85.2677 30.057C85.0846 29.8411 84.8586 29.6679 84.6049 29.5491C84.3512 29.4303 84.0756 29.3686 83.7967 29.3682C83.5178 29.3677 83.2421 29.4285 82.988 29.5465Z" fill="white"/>
<path d="M179.911 75.094C180.242 73.4957 180.409 71.8661 180.408 70.2319C180.408 67.2001 179.827 64.198 178.696 61.3969C177.565 58.5959 175.908 56.0508 173.819 53.907C171.73 51.7631 169.25 50.0626 166.52 48.9023C163.791 47.7421 160.865 47.1449 157.911 47.1449C156.516 47.1464 155.125 47.2786 153.754 47.5398C153.18 47.4314 152.599 47.5398 152.003 47.4701C149.883 42.7421 146.478 38.7426 142.197 35.952C137.915 33.1613 132.94 31.6981 127.869 31.7381H119.57C116.096 31.7208 112.654 32.4068 109.439 33.757C106.225 35.1071 103.301 37.0948 100.836 39.6062C98.3715 42.1176 96.4138 45.1034 95.0752 48.3924C93.7366 51.6815 93.0435 55.2092 93.0356 58.7736C93.0356 58.9749 93.0356 59.0756 93.0356 59.2768C87.5473 60.2715 82.6239 63.3473 79.2425 67.8937C75.8611 72.44 74.2689 78.1248 74.7818 83.8198C75.2947 89.5148 77.8752 94.8039 82.0113 98.6373C86.1473 102.471 91.5366 104.568 97.1096 104.514H178.59C182.392 104.692 186.107 103.312 188.917 100.679C191.728 98.0461 193.404 94.3751 193.577 90.4737C193.75 86.5724 192.406 82.7603 189.84 79.876C187.274 76.9918 183.697 75.2716 179.895 75.094H179.911Z" fill="#949494"/>
<path opacity="0.5" d="M179.911 75.094C180.242 73.4957 180.409 71.8661 180.408 70.2319C180.408 67.2001 179.827 64.198 178.696 61.3969C177.565 58.5959 175.908 56.0508 173.819 53.907C171.73 51.7631 169.25 50.0626 166.52 48.9023C163.791 47.7421 160.865 47.1449 157.911 47.1449C156.516 47.1464 155.125 47.2786 153.754 47.5398C153.18 47.4314 152.599 47.5398 152.003 47.4701C149.883 42.7421 146.478 38.7426 142.197 35.952C137.915 33.1613 132.94 31.6981 127.869 31.7381H119.57C116.096 31.7208 112.654 32.4068 109.439 33.757C106.225 35.1071 103.301 37.0948 100.836 39.6062C98.3715 42.1176 96.4138 45.1034 95.0752 48.3924C93.7366 51.6815 93.0435 55.2092 93.0356 58.7736C93.0356 58.9749 93.0356 59.0756 93.0356 59.2768C87.5473 60.2715 82.6239 63.3473 79.2425 67.8937C75.8611 72.44 74.2689 78.1248 74.7818 83.8198C75.2947 89.5148 77.8752 94.8039 82.0113 98.6373C86.1473 102.471 91.5366 104.568 97.1096 104.514H178.59C182.392 104.692 186.107 103.312 188.917 100.679C191.728 98.0461 193.404 94.3751 193.577 90.4737C193.75 86.5724 192.406 82.7603 189.84 79.876C187.274 76.9918 183.697 75.2716 179.895 75.094H179.911Z" fill="white"/>
<path opacity="0.4" d="M179.916 75.094C180.248 73.4957 180.415 71.8661 180.414 70.2319C180.414 67.2001 179.832 64.198 178.702 61.3969C177.571 58.5959 175.914 56.0508 173.825 53.907C171.736 51.7631 169.256 50.0626 166.526 48.9023C163.796 47.7421 160.871 47.1449 157.916 47.1449C156.522 47.1464 155.131 47.2786 153.759 47.5398C153.186 47.4314 152.605 47.5398 152.009 47.4701C149.889 42.7421 146.484 38.7426 142.202 35.952C137.921 33.1613 132.946 31.6981 127.874 31.7381C124.401 31.7208 120.958 32.4068 117.744 33.757C114.529 35.1071 111.606 37.0948 109.141 39.6062C106.676 42.1176 104.718 45.1034 103.38 48.3924C102.041 51.6815 101.348 55.2092 101.34 58.7736C101.34 58.9749 101.34 59.0756 101.34 59.2768C95.8519 60.2715 90.9286 63.3473 87.5472 67.8937C84.1658 72.44 82.5736 78.1248 83.0865 83.8198C83.5994 89.5148 86.1799 94.8039 90.3159 98.6373C94.452 102.471 99.8413 104.568 105.414 104.514H178.596C182.398 104.692 186.113 103.312 188.923 100.679C191.734 98.0461 193.41 94.3751 193.583 90.4737C193.756 86.5724 192.412 82.7603 189.846 79.876C187.28 76.9918 183.703 75.2716 179.901 75.094H179.916Z" fill="white"/>
<path d="M201.935 142.454H176.533C166.532 142.441 156.944 138.359 149.872 131.102C142.8 123.845 138.822 114.006 138.81 103.743V96.001H131.266V103.743C131.28 116.059 136.053 127.866 144.539 136.574C153.026 145.283 164.531 150.182 176.533 150.196H201.935V142.454Z" fill="#949494"/>
<path d="M134.955 90.8418L128.414 97.5465H141.489L134.955 90.8418Z" fill="#949494"/>
<path d="M78.6673 241.806L74.1406 227.615C76.3731 225.66 79.0024 224.24 81.8372 223.459C84.6719 222.678 87.6407 222.556 90.5273 223.101L94.2995 236.387L78.6673 241.806Z" fill="#949494"/>
<path opacity="0.7" d="M78.6673 241.806L74.1406 227.615C76.3731 225.66 79.0024 224.24 81.8372 223.459C84.6719 222.678 87.6407 222.556 90.5273 223.101L94.2995 236.387L78.6673 241.806Z" fill="white"/>
<g opacity="0.2">
<path d="M76.3047 230.973C76.845 230.354 77.444 229.791 78.0927 229.293C78.755 228.768 79.4563 228.297 80.1901 227.884C80.59 227.667 81.0125 227.435 81.4576 227.234C81.9027 227.033 82.3478 226.839 82.8231 226.692C83.286 226.532 83.7569 226.397 84.234 226.289L84.9356 226.127L85.6372 226.042C85.8636 226.042 86.0899 225.972 86.3087 225.956H86.9575C87.3552 225.933 87.7541 225.946 88.1495 225.995C88.5117 226.034 88.8436 226.065 89.1379 226.119L89.8923 226.297L90.5336 226.467C90.5336 226.467 90.2846 226.467 89.8697 226.467L89.1152 226.429H88.1345C87.7534 226.438 87.373 226.469 86.9952 226.522C86.572 226.561 86.1513 226.626 85.7353 226.715L85.0714 226.839L84.4075 227.017C83.9527 227.128 83.5043 227.265 83.0646 227.427C82.6043 227.551 82.1743 227.76 81.7367 227.923C81.2991 228.085 80.8917 228.294 80.4919 228.488C80.092 228.682 79.7374 228.875 79.3451 229.084C78.9528 229.293 78.6435 229.471 78.3342 229.657C77.7155 230.029 77.2025 230.346 76.8253 230.594L76.3047 230.973Z" fill="black"/>
<path d="M76.7031 232.266C76.7031 232.266 76.8766 232.111 77.2086 231.871C77.5406 231.631 78.0083 231.283 78.6043 230.926C79.281 230.507 79.9786 230.125 80.6942 229.781C81.4486 229.394 82.3464 229.053 83.214 228.728C83.6592 228.596 84.1043 228.441 84.5419 228.317C84.9794 228.194 85.4246 228.085 85.8546 228.015C86.2846 227.946 86.6996 227.845 87.0994 227.814C87.4993 227.783 87.8539 227.729 88.2236 227.721C88.7826 227.705 89.342 227.726 89.8985 227.783L90.5322 227.861C90.5322 227.861 90.2983 227.899 89.8985 227.938C89.7023 227.938 89.4609 227.938 89.1893 228.015L88.2688 228.163C87.9293 228.217 87.5747 228.317 87.19 228.387C86.8052 228.457 86.4355 228.588 86.0055 228.681C85.5755 228.774 85.1756 228.929 84.7456 229.037C84.3155 229.146 83.893 229.324 83.463 229.463C81.7428 230.052 80.0604 230.764 78.8005 231.314C78.1743 231.6 77.6386 231.817 77.2916 231.995L76.7031 232.266Z" fill="black"/>
<path d="M77.7656 234.913C77.9132 234.761 78.0694 234.619 78.2334 234.487C78.5352 234.231 78.9878 233.867 79.531 233.472C80.1682 233.022 80.8308 232.611 81.5152 232.241C82.2983 231.81 83.1071 231.43 83.937 231.103C84.7722 230.781 85.6296 230.522 86.5022 230.329C86.9057 230.243 87.3138 230.181 87.7244 230.143C88.1167 230.143 88.4788 230.058 88.8259 230.066L89.7538 230.105C90.033 230.105 90.2669 230.174 90.463 230.198L91.0741 230.306C91.0741 230.306 90.8478 230.306 90.4555 230.345C90.2593 230.345 90.0254 230.345 89.7614 230.391L88.856 230.515C88.5316 230.554 88.1846 230.647 87.8073 230.709C87.4301 230.77 87.0529 230.91 86.653 230.995C86.2532 231.08 85.8533 231.25 85.4384 231.367C85.0234 231.483 84.616 231.661 84.2011 231.808C83.7861 231.955 83.3787 232.125 82.9789 232.303C82.579 232.481 82.1792 232.636 81.8095 232.822C81.055 233.171 80.3534 233.527 79.7574 233.829C79.1614 234.131 78.6559 234.394 78.3164 234.603L77.7656 234.913Z" fill="black"/>
<path d="M78.3984 236.719C78.9212 236.187 79.4893 235.705 80.0959 235.278C80.7182 234.837 81.3685 234.439 82.0424 234.086C82.4197 233.9 82.7969 233.715 83.2118 233.544C83.6268 233.374 84.0342 233.211 84.4642 233.087C84.8883 232.951 85.3189 232.838 85.7543 232.747C86.1743 232.648 86.6003 232.578 87.0293 232.538C87.4295 232.484 87.833 232.461 88.2365 232.468C88.5942 232.456 88.9524 232.471 89.3078 232.515L90.2131 232.638L90.8921 232.809C91.2618 232.909 91.4731 232.979 91.4731 232.979C91.4731 232.979 91.2467 232.979 90.8695 232.979H90.1829H89.3002C88.9548 232.978 88.6096 232.999 88.2666 233.041C87.8819 233.074 87.4991 233.129 87.1199 233.204C86.7276 233.258 86.3654 233.374 85.9128 233.467C85.4601 233.56 85.098 233.691 84.6906 233.815C83.8862 234.066 83.0954 234.361 82.3216 234.698C81.5671 235.023 80.8957 235.356 80.3147 235.65C79.7338 235.944 79.251 236.208 78.919 236.424L78.3984 236.719Z" fill="black"/>
<path d="M79.2656 239.128C79.4057 238.978 79.5544 238.835 79.7107 238.703C80.005 238.447 80.4199 238.083 80.9556 237.688C81.5668 237.238 82.2042 236.827 82.8643 236.457C83.2189 236.248 83.6188 236.047 83.996 235.861C84.3732 235.675 84.8033 235.513 85.2107 235.327C85.6181 235.141 86.0481 235.033 86.4631 234.901C86.878 234.77 87.3005 234.677 87.7155 234.599C88.1073 234.524 88.5027 234.47 88.8999 234.437C89.2847 234.437 89.6544 234.375 89.9788 234.39L90.8842 234.452C91.1482 234.452 91.3821 234.545 91.5707 234.576L92.1592 234.715H91.5556C91.367 234.715 91.1331 234.715 90.8766 234.715L90.0014 234.801C89.6846 234.839 89.3375 234.924 88.9829 234.971C88.6283 235.017 88.2285 235.157 87.8588 235.234C87.4891 235.311 87.1044 235.482 86.6743 235.59C86.2443 235.699 85.8746 235.869 85.4747 236.024C85.0749 236.179 84.675 236.333 84.2903 236.512C83.9055 236.69 83.5358 236.844 83.1586 237.03C82.4041 237.379 81.7629 237.735 81.1819 238.037C80.601 238.339 80.1182 238.594 79.7937 238.811L79.2656 239.128Z" fill="black"/>
</g>
<path d="M76.7122 241.908L86.0071 234.677C86.1204 234.588 86.2511 234.524 86.3903 234.491C86.5295 234.457 86.6741 234.455 86.8143 234.484L97.4294 236.551C97.6374 236.59 97.8284 236.695 97.9759 236.85C98.1233 237.006 98.2199 237.205 98.2523 237.419C98.2846 237.633 98.2511 237.853 98.1564 238.047C98.0617 238.241 97.9104 238.4 97.7237 238.502L88.9645 243.372C88.8217 243.447 88.6647 243.489 88.5043 243.495L77.3384 243.79C77.1234 243.793 76.9128 243.726 76.7369 243.599C76.5611 243.472 76.4289 243.291 76.3594 243.082C76.2898 242.874 76.2865 242.647 76.3499 242.437C76.4133 242.226 76.5402 242.041 76.7122 241.908Z" fill="#949494"/>
<path d="M93.4688 246.202C93.4688 246.202 107.758 210.72 110.278 208.521C112.798 206.322 128.762 215.853 128.762 215.853L114.548 253.301L93.4688 246.202Z" fill="#949494"/>
<path opacity="0.2" d="M97.5692 245.942C97.5692 245.942 111.255 212.047 113.292 210.584C115.329 209.121 126.993 215.361 126.993 215.361C126.993 215.361 114.839 207.743 111.112 209.035C107.385 210.328 94.6797 245.168 94.6797 245.168L97.5692 245.942Z" fill="black"/>
<path d="M126.368 242.718H65.6797V279.493H126.368V242.718Z" fill="#263238"/>
<path opacity="0.2" d="M126.368 242.718H65.6797V279.493H126.368V242.718Z" fill="white"/>
<path opacity="0.4" d="M126.365 242.718H88.6875V279.493H126.365V242.718Z" fill="white"/>
<path d="M88.6875 243.108L102.977 231.302L134.852 233.531L126.365 243.108H88.6875Z" fill="#263238"/>
<path d="M88.6964 243.098L77.9002 230.323L55.0781 232.839L65.6857 242.711L88.6964 243.098Z" fill="#263238"/>
<path opacity="0.1" d="M88.6964 243.098L77.9002 230.323L55.0781 232.839L65.6857 242.711L88.6964 243.098Z" fill="white"/>
<path opacity="0.4" d="M88.6875 243.108L102.977 231.302L134.852 233.531L126.365 243.108H88.6875Z" fill="white"/>
<path d="M114.868 259.631C112.961 259.631 111.097 260.211 109.512 261.298C107.926 262.386 106.69 263.931 105.961 265.739C105.231 267.547 105.04 269.536 105.412 271.456C105.784 273.375 106.702 275.138 108.051 276.522C109.399 277.905 111.117 278.848 112.987 279.23C114.858 279.611 116.796 279.415 118.558 278.667C120.32 277.918 121.826 276.649 122.885 275.022C123.945 273.395 124.51 271.482 124.51 269.525C124.51 266.901 123.494 264.384 121.686 262.529C119.878 260.673 117.426 259.631 114.868 259.631ZM114.868 273.466C114.107 273.466 113.363 273.234 112.73 272.8C112.097 272.366 111.604 271.749 111.313 271.027C111.022 270.305 110.946 269.511 111.095 268.744C111.244 267.978 111.612 267.275 112.15 266.723C112.689 266.171 113.376 265.795 114.122 265.644C114.869 265.493 115.643 265.572 116.346 265.872C117.049 266.172 117.649 266.679 118.071 267.33C118.493 267.98 118.718 268.744 118.716 269.525C118.716 270.043 118.617 270.557 118.423 271.035C118.23 271.514 117.946 271.949 117.589 272.315C117.231 272.681 116.807 272.971 116.34 273.168C115.874 273.366 115.373 273.467 114.868 273.466Z" fill="#949494"/>
<path opacity="0.7" d="M123.559 265.229C123.385 264.863 123.188 264.509 122.97 264.168C122.688 263.708 122.365 263.275 122.005 262.875C120.357 261.001 118.068 259.853 115.614 259.67C115.364 259.641 115.112 259.628 114.86 259.631C113.396 259.634 111.951 259.978 110.636 260.638C109.321 261.299 108.169 262.257 107.268 263.442C106.367 264.627 105.741 266.006 105.437 267.476C105.133 268.946 105.159 270.468 105.512 271.926C105.602 272.305 105.718 272.678 105.859 273.041C106.061 273.581 106.314 274.099 106.614 274.589C107.396 275.929 108.477 277.059 109.767 277.887C111.058 278.714 112.521 279.216 114.038 279.35C114.317 279.35 114.596 279.389 114.875 279.389C116.506 279.388 118.109 278.962 119.536 278.152C120.963 277.342 122.166 276.175 123.034 274.758C123.902 273.342 124.406 271.723 124.499 270.052C124.592 268.382 124.271 266.714 123.566 265.206L123.559 265.229ZM114.868 273.466C114.747 273.474 114.626 273.474 114.505 273.466C113.808 273.401 113.142 273.14 112.579 272.713C112.017 272.286 111.579 271.708 111.314 271.043C111.225 270.817 111.154 270.584 111.103 270.346C111.077 270.198 111.06 270.048 111.05 269.897C111.043 269.781 111.043 269.665 111.05 269.549C111.049 269.031 111.148 268.517 111.34 268.038C111.533 267.559 111.815 267.124 112.172 266.757C112.529 266.391 112.953 266.1 113.419 265.901C113.885 265.703 114.385 265.6 114.89 265.6C114.981 265.593 115.071 265.593 115.162 265.6C115.954 265.651 116.711 265.955 117.327 266.468C117.479 266.598 117.62 266.74 117.75 266.893C117.861 267.016 117.962 267.148 118.051 267.288C118.502 267.945 118.742 268.73 118.738 269.533C118.737 270.053 118.636 270.567 118.441 271.046C118.245 271.526 117.96 271.96 117.6 272.326C117.24 272.691 116.814 272.98 116.345 273.176C115.876 273.372 115.374 273.471 114.868 273.466Z" fill="white"/>
<path opacity="0.2" d="M114.516 273.45L114.041 279.38C112.525 279.246 111.061 278.744 109.771 277.916C108.48 277.089 107.399 275.958 106.617 274.619L111.325 271.026C111.59 271.691 112.028 272.269 112.59 272.696C113.153 273.123 113.819 273.384 114.516 273.45Z" fill="white"/>
<path opacity="0.2" d="M122.014 262.884L117.314 266.469C116.697 265.956 115.94 265.652 115.148 265.601L115.624 259.679C118.077 259.861 120.366 261.01 122.014 262.884Z" fill="white"/>
<path opacity="0.2" d="M111.122 270.333L105.886 273.05C105.744 272.688 105.628 272.315 105.539 271.935L111.069 269.884C111.079 270.034 111.097 270.184 111.122 270.333Z" fill="white"/>
<path opacity="0.2" d="M123.566 265.234L118.036 267.286C117.946 267.146 117.845 267.014 117.734 266.891L122.978 264.174C123.196 264.514 123.392 264.868 123.566 265.234Z" fill="white"/>
<path d="M121.917 262.387C116.635 262.387 113.746 266.204 115.557 270.903C117.367 275.603 123.139 279.419 128.458 279.419C133.777 279.419 136.636 275.61 134.825 270.903C133.015 266.196 127.243 262.387 121.917 262.387ZM126.496 274.302C125.416 274.277 124.364 273.947 123.456 273.347C122.548 272.747 121.819 271.901 121.351 270.903C120.596 269.029 121.766 267.504 123.886 267.504C124.965 267.53 126.016 267.862 126.924 268.461C127.832 269.061 128.561 269.906 129.031 270.903C129.763 272.777 128.616 274.302 126.496 274.302Z" fill="#949494"/>
<path opacity="0.1" d="M132.464 267.2C132.17 266.89 131.861 266.58 131.529 266.286C131.088 265.886 130.621 265.516 130.133 265.179C127.937 263.589 125.365 262.635 122.687 262.415C122.423 262.415 122.174 262.415 121.932 262.415C116.651 262.415 113.762 266.224 115.572 270.931C115.852 271.661 116.214 272.355 116.651 272.999C116.882 273.335 117.134 273.656 117.406 273.959C117.792 274.442 118.213 274.895 118.665 275.313C121.145 277.654 124.304 279.096 127.658 279.417C127.945 279.417 128.232 279.417 128.511 279.417C133.837 279.417 136.689 275.6 134.886 270.9C134.317 269.519 133.495 268.263 132.464 267.2ZM126.497 274.299H126.127C124.589 274.144 123.164 273.4 122.136 272.217C121.975 272.028 121.828 271.826 121.698 271.613C121.623 271.488 121.555 271.359 121.495 271.226C121.443 271.128 121.398 271.027 121.359 270.924C120.604 269.042 121.774 267.525 123.894 267.525C123.984 267.517 124.075 267.517 124.165 267.525C125.029 267.592 125.867 267.856 126.617 268.299C126.813 268.411 127.002 268.535 127.183 268.671C127.335 268.773 127.478 268.887 127.613 269.011C128.242 269.519 128.735 270.183 129.047 270.939C129.771 272.774 128.624 274.299 126.497 274.299Z" fill="white"/>
<path opacity="0.2" d="M126.117 274.276L127.626 279.386C124.271 279.065 121.112 277.623 118.633 275.282L122.149 272.186C123.17 273.367 124.586 274.113 126.117 274.276Z" fill="white"/>
<path opacity="0.2" d="M130.125 265.187L126.609 268.283C125.859 267.841 125.021 267.576 124.157 267.509L122.648 262.407C125.339 262.626 127.922 263.586 130.125 265.187Z" fill="white"/>
<path opacity="0.2" d="M121.702 271.591L117.364 273.914C117.092 273.611 116.84 273.291 116.609 272.954L121.476 271.204C121.543 271.338 121.619 271.467 121.702 271.591Z" fill="white"/>
<path opacity="0.2" d="M132.453 267.205L127.602 268.978C127.467 268.853 127.323 268.739 127.172 268.637L131.518 266.314C131.849 266.585 132.159 266.895 132.453 267.205Z" fill="white"/>
<path d="M280.961 212.911L281.233 224.966L282.47 279.493H286.551L287.781 224.966L288.053 212.911H280.961Z" fill="#949494"/>
<path opacity="0.4" d="M280.961 212.911L281.233 224.966L282.47 279.493H286.551L287.781 224.966L288.053 212.911H280.961Z" fill="white"/>
<path opacity="0.2" d="M280.961 212.911L281.233 225.299H287.781L288.053 212.911H280.961Z" fill="black"/>
<path d="M258.789 279.298L262.561 213.761H268.725L263.444 279.298H258.789Z" fill="#949494"/>
<path opacity="0.5" d="M263.452 279.298H258.789L262.214 219.645L262.554 213.684H268.718L268.242 219.645L263.452 279.298Z" fill="white"/>
<path opacity="0.2" d="M268.722 213.684L268.247 219.877H262.219L262.558 213.684H268.722Z" fill="black"/>
<path d="M305.562 279.298L300.281 213.761H306.445L310.217 279.298H305.562Z" fill="#949494"/>
<path opacity="0.5" d="M305.547 279.298L300.757 219.645L300.281 213.684H306.445L306.785 219.645L310.21 279.298H305.547Z" fill="white"/>
<path opacity="0.2" d="M300.281 213.684L300.757 219.877H306.785L306.445 213.684H300.281Z" fill="black"/>
<path d="M309.75 216.03H259.262V210.866C259.262 209.84 259.66 208.855 260.367 208.129C261.075 207.403 262.034 206.995 263.034 206.995H305.978C306.978 206.995 307.938 207.403 308.645 208.129C309.353 208.855 309.75 209.84 309.75 210.866V216.046V216.03Z" fill="#949494"/>
<path d="M258.365 216.022H310.655C311.493 216.022 312.172 215.326 312.172 214.466V213.057C312.172 212.198 311.493 211.501 310.655 211.501H258.365C257.527 211.501 256.848 212.198 256.848 213.057V214.466C256.848 215.326 257.527 216.022 258.365 216.022Z" fill="#949494"/>
<path opacity="0.6" d="M258.365 216.022H310.655C311.493 216.022 312.172 215.326 312.172 214.466V213.057C312.172 212.198 311.493 211.501 310.655 211.501H258.365C257.527 211.501 256.848 212.198 256.848 213.057V214.466C256.848 215.326 257.527 216.022 258.365 216.022Z" fill="white"/>
<path d="M266.385 133.553C266.385 133.553 266.174 134.141 265.789 135.101C265.404 136.061 264.816 137.525 264.099 139.12C262.364 142.991 259.844 147.915 257.211 150.57C256.55 151.284 255.754 151.853 254.872 152.242C252.066 153.35 245.027 153.551 238.742 153.489C232.458 153.427 227.086 153.102 227.086 153.102V148.217L247.75 142.565C247.75 142.565 258.645 122.389 265.103 119.4L266.385 133.553Z" fill="#263238"/>
<path opacity="0.2" d="M265.788 135.109C265.395 136.116 264.814 137.533 264.098 139.128C262.362 142.999 259.842 147.923 257.209 150.578C254.531 140.451 264.437 130.812 264.437 130.812L265.788 135.109Z" fill="black"/>
<path d="M263.124 273.898L257.111 273.054L256.281 258.391L262.279 259.242L263.124 273.898Z" fill="#FF8B7B"/>
<path opacity="0.2" d="M262.279 259.242L256.281 258.398L256.757 266.775L262.754 267.317L262.279 259.242Z" fill="black"/>
<path d="M262.876 187.717L264.339 178.287L298.003 176.22C298.003 176.22 301.587 195.838 298.833 201.064C293.921 210.393 267.44 205.709 259.684 206.6C264.347 226.071 263.894 264.008 263.894 264.008L252.826 264.875C252.826 264.875 244.316 223.942 242.589 204.486C241.419 191.387 252.027 191.712 262.876 187.717Z" fill="#949494"/>
<path d="M265.206 264.574L251.905 265.464L250.766 259.619L265.379 258.93L265.206 264.574Z" fill="#949494"/>
<path d="M249.244 268.418L243.194 268.875L239.406 254.715L245.449 254.266L249.244 268.418Z" fill="#FF8B7B"/>
<path d="M242.383 269.086H242.277C242.277 268.993 241.968 267.251 241.236 266.841C241.143 266.793 241.039 266.769 240.935 266.769C240.83 266.769 240.727 266.793 240.633 266.841C240.517 266.878 240.418 266.954 240.351 267.057C240.283 267.16 240.252 267.283 240.263 267.406C240.409 267.92 240.724 268.365 241.153 268.668C240.603 268.475 240.003 268.491 239.463 268.715C239.391 268.771 239.333 268.845 239.296 268.931C239.259 269.016 239.244 269.109 239.252 269.202C239.243 269.349 239.274 269.495 239.342 269.624C239.41 269.752 239.512 269.859 239.637 269.93C240.015 270.081 240.435 270.081 240.814 269.93C241.338 269.77 241.844 269.552 242.323 269.28H242.376C242.376 269.28 242.376 269.28 242.376 269.233C242.392 269.213 242.402 269.188 242.403 269.161C242.404 269.135 242.397 269.108 242.383 269.086ZM240.565 267.352C240.565 267.267 240.565 267.159 240.769 267.081H240.836C240.89 267.062 240.947 267.056 241.003 267.063C241.059 267.069 241.113 267.089 241.161 267.12C241.598 267.36 241.915 268.304 242.044 268.87L241.908 268.831C241.312 268.467 240.618 267.77 240.565 267.352ZM239.773 269.628C239.698 269.576 239.638 269.506 239.597 269.423C239.556 269.34 239.536 269.249 239.539 269.156C239.535 269.111 239.542 269.065 239.559 269.024C239.576 268.982 239.603 268.945 239.637 268.916C239.984 268.653 241.085 268.877 241.9 269.125C240.897 269.636 240.127 269.822 239.773 269.628Z" fill="#949494"/>
<path opacity="0.2" d="M245.449 254.266L239.406 254.722L241.572 262.813L247.547 262.062L245.449 254.266Z" fill="black"/>
<path d="M237.369 261.819L248.022 258.583C248.022 258.583 241.662 221.746 235.197 208.971C235.68 208.809 236.321 208.6 237.113 208.36C238.539 207.918 240.433 207.369 242.658 206.734C258.139 202.328 289.517 194.068 289.517 194.068L275.182 180.341C275.182 180.341 218.086 189.275 216.901 204.713C216.351 212.13 237.369 261.819 237.369 261.819Z" fill="#949494"/>
<path d="M249.392 258.851L236.567 262.575L234.266 257.101L248.419 253.3L249.392 258.851Z" fill="#949494"/>
<path opacity="0.2" d="M237.108 208.385C238.534 207.944 240.428 207.394 242.654 206.76C242.208 203.012 242.201 198.716 243.959 196.524C247.452 192.158 256.437 189.595 261.553 188.666C265.83 187.892 280.203 186.344 280.203 186.344C280.203 186.344 261.553 184.509 242.48 190.215C233.065 193.048 234.898 202.501 237.108 208.385Z" fill="black"/>
<path d="M299.901 186.067C302.164 184.294 299.991 167.804 301.146 151.584C302.904 126.886 301.146 118.951 299.373 118.184C296.099 117.602 292.788 117.265 289.467 117.178C284.609 117 279.744 117.108 274.898 117.503C271.582 117.92 268.303 118.604 265.091 119.547C265.091 119.547 257.154 145.483 262.224 182.839L299.901 186.067Z" fill="#263238"/>
<path opacity="0.8" d="M301.783 138.876C301.685 142.507 301.474 146.719 301.127 151.581C299.972 167.801 302.13 184.292 299.882 186.065L262.197 182.836C259.947 166.622 259.934 150.163 262.159 133.945C265.222 129.036 271.167 123.439 273.899 120.984C274.805 122.004 276.035 122.659 277.369 122.835C280.304 123.423 283.654 122.06 286.422 120.326C288.61 122.564 292.76 127.093 294.578 130.91C294.768 131.305 294.937 131.711 295.084 132.125C296.238 135.439 299.761 131.351 301.557 126.024C301.865 130.301 301.94 134.591 301.783 138.876Z" fill="white"/>
<path d="M287.682 100.424C286.859 105.255 286.128 114.081 289.47 117.224C288.113 118.72 286.481 119.924 284.668 120.77C282.855 121.615 280.898 122.083 278.908 122.148C272.872 122.419 274.909 117.503 274.909 117.503C280.115 116.109 279.888 112.13 278.9 108.414L287.682 100.424Z" fill="#FF8B7B"/>
<path opacity="0.2" d="M284.104 103.699L278.906 108.453C279.15 109.316 279.319 110.199 279.412 111.093C281.403 110.76 284.097 108.445 284.27 106.293C284.37 105.425 284.314 104.546 284.104 103.699Z" fill="black"/>
<path d="M276.269 87.9214C278.872 89.7331 277.688 92.799 271.803 97.6068C269.419 94.4558 269.019 88.2621 270.92 86.7136C272.821 85.1652 274.006 86.3498 276.269 87.9214Z" fill="#263238"/>
<path d="M287.447 92.9027C287.167 99.4293 287.318 103.254 284.172 106.66C279.434 111.778 271.543 108.929 269.921 102.449C268.472 96.6267 269.166 86.9645 275.345 84.2316C276.703 83.6278 278.188 83.3907 279.66 83.5428C281.132 83.6948 282.542 84.2309 283.755 85.1001C284.968 85.9693 285.944 87.1427 286.59 88.5084C287.236 89.8742 287.531 91.387 287.447 92.9027Z" fill="#FF8B7B"/>
<path d="M278.012 94.8411C278.012 95.3753 277.755 95.8089 277.416 95.8166C277.076 95.8244 276.805 95.3986 276.797 94.8644C276.789 94.3301 277.046 93.9043 277.386 93.8966C277.725 93.8888 277.966 94.3224 278.012 94.8411Z" fill="#263238"/>
<path d="M272.129 94.9572C272.129 95.4836 271.872 95.9172 271.533 95.9249C271.193 95.9327 270.914 95.5146 270.906 94.9726C270.899 94.4307 271.163 94.0049 271.502 94.0049C271.842 94.0049 272.121 94.4539 272.129 94.9572Z" fill="#263238"/>
<path d="M274.048 95.1719C273.46 96.8028 272.655 98.3426 271.656 99.7475C272.014 99.9978 272.421 100.166 272.848 100.241C273.275 100.316 273.712 100.295 274.131 100.181L274.048 95.1719Z" fill="#FF8B7B"/>
<path d="M279.575 92.9033C279.642 92.9121 279.709 92.8956 279.764 92.8568C279.796 92.8324 279.823 92.8018 279.843 92.7668C279.863 92.7319 279.876 92.6931 279.882 92.6529C279.887 92.6126 279.885 92.5716 279.875 92.5322C279.866 92.4928 279.848 92.4558 279.824 92.4233C279.536 92.0255 279.158 91.7047 278.724 91.4877C278.289 91.2708 277.81 91.1642 277.327 91.1768C277.289 91.1787 277.251 91.1886 277.217 91.2057C277.182 91.2228 277.151 91.2469 277.126 91.2765C277.101 91.3061 277.081 91.3406 277.069 91.378C277.057 91.4154 277.053 91.4549 277.056 91.4942C277.065 91.5743 277.104 91.6476 277.164 91.6994C277.224 91.7512 277.302 91.7774 277.38 91.7729C277.761 91.7686 278.138 91.8577 278.479 92.0327C278.821 92.2077 279.116 92.4637 279.342 92.7794C279.37 92.8153 279.406 92.8448 279.446 92.8661C279.486 92.8874 279.53 92.9001 279.575 92.9033Z" fill="#263238"/>
<path d="M269.425 92.9659C269.483 92.9661 269.54 92.9495 269.589 92.918C269.639 92.8866 269.679 92.8414 269.704 92.7878C269.852 92.4276 270.082 92.109 270.375 91.8585C270.668 91.608 271.015 91.4329 271.386 91.3478C271.466 91.3344 271.537 91.2897 271.585 91.2232C271.633 91.1567 271.654 91.0736 271.643 90.9917C271.632 90.9107 271.59 90.8375 271.526 90.7882C271.463 90.7389 271.382 90.7174 271.303 90.7284C270.831 90.8297 270.39 91.0456 270.015 91.3581C269.641 91.6706 269.346 92.0706 269.153 92.5246C269.12 92.5986 269.116 92.6832 269.143 92.76C269.17 92.8369 269.225 92.8997 269.297 92.9349C269.336 92.9572 269.38 92.968 269.425 92.9659Z" fill="#263238"/>
<path d="M284.845 87.1578C281.895 88.2572 282.317 91.5321 286.874 97.6638C289.952 95.1786 291.816 89.2869 290.329 87.3126C288.843 85.3384 287.455 86.2055 284.845 87.1578Z" fill="#263238"/>
<path d="M290.571 98.0558C290.366 98.842 290.012 99.5789 289.529 100.225C289.046 100.87 288.444 101.412 287.757 101.818C285.909 102.887 284.483 101.315 284.566 99.2636C284.649 97.4055 285.705 94.6183 287.765 94.3861C289.824 94.1538 291.069 96.1048 290.571 98.0558Z" fill="#FF8B7B"/>
<path d="M278.898 101.253C278.452 101.954 277.825 102.515 277.088 102.874C276.35 103.234 275.531 103.377 274.719 103.289" stroke="#263238" stroke-width="0.526291" stroke-linecap="round" stroke-linejoin="round"/>
<path d="M278.393 86.1174C278.393 86.1174 279.344 92.6518 285.478 93.0853C291.611 93.5189 292.924 89.6091 292.924 89.6091C292.424 89.6837 291.92 89.7251 291.415 89.733C291.415 89.733 293.211 86.5665 291.415 83.5393C289.62 80.5121 283.509 77.2759 278.974 78.894C277.563 78.4209 276.072 78.2524 274.595 78.3989C273.117 78.5455 271.685 79.004 270.389 79.7457C266.141 82.2773 266.896 87.7975 266.896 87.7975C266.896 87.7975 266.707 84.4451 268.691 83.5083C268.691 83.5083 266.239 90.4066 269.913 92.2492C269.906 92.226 270.268 85.4361 278.393 86.1174Z" fill="#263238"/>
<path d="M267.96 147.87C267.96 147.87 246.081 147.359 244.844 147.235C243.607 147.111 238.424 144.138 237.299 143.976C236.175 143.813 233.241 148.621 232.871 149.736C232.501 150.851 241.17 153.87 242.007 153.739C242.977 153.473 243.919 153.113 244.821 152.662L267.153 155.612L267.96 147.87Z" fill="#FF8B7B"/>
<path d="M204.461 152.519V154.57C204.461 155.182 205.487 155.615 206.083 155.615H252.7C253.304 155.615 254.255 155.182 254.255 154.57V152.519H204.461Z" fill="#263238"/>
<path opacity="0.6" d="M204.461 152.519V154.57C204.461 155.182 205.487 155.615 206.083 155.615H252.7C253.304 155.615 254.255 155.182 254.255 154.57V152.519H204.461Z" fill="white"/>
<path opacity="0.2" d="M204.461 152.519V154.57C204.461 155.182 205.487 155.615 206.083 155.615H236.827C237.43 155.615 238.411 155.182 238.411 154.57V152.519H204.461Z" fill="black"/>
<path d="M196.982 127.368L202.534 153.297C202.633 153.719 202.861 154.098 203.186 154.377C203.511 154.656 203.915 154.82 204.338 154.845H234.636C234.831 154.827 235.019 154.765 235.187 154.663C235.355 154.561 235.499 154.422 235.608 154.256C235.717 154.09 235.789 153.901 235.818 153.703C235.847 153.505 235.832 153.302 235.775 153.111L230.23 127.469C230.117 127.077 229.876 126.737 229.548 126.506C229.22 126.275 228.824 126.166 228.427 126.199H198.128C197.314 126.199 196.801 126.524 196.982 127.368Z" fill="#263238"/>
<path opacity="0.6" d="M196.982 127.368L202.534 153.297C202.633 153.719 202.861 154.098 203.186 154.377C203.511 154.656 203.915 154.82 204.338 154.845H234.636C234.831 154.827 235.019 154.765 235.187 154.663C235.355 154.561 235.499 154.422 235.608 154.256C235.717 154.09 235.789 153.901 235.818 153.703C235.847 153.505 235.832 153.302 235.775 153.111L230.23 127.469C230.117 127.077 229.876 126.737 229.548 126.506C229.22 126.275 228.824 126.166 228.427 126.199H198.128C197.314 126.199 196.801 126.524 196.982 127.368Z" fill="white"/>
<path opacity="0.4" d="M196.982 127.368L202.534 153.297C202.633 153.719 202.861 154.098 203.186 154.377C203.511 154.656 203.915 154.82 204.338 154.845H233.618C233.812 154.827 234.001 154.765 234.169 154.663C234.337 154.561 234.481 154.422 234.591 154.256C234.701 154.09 234.773 153.902 234.803 153.704C234.833 153.505 234.82 153.303 234.765 153.111L229.219 127.469C229.106 127.077 228.865 126.737 228.537 126.506C228.209 126.275 227.813 126.166 227.416 126.199H198.128C197.314 126.199 196.801 126.524 196.982 127.368Z" fill="white"/>
<path opacity="0.2" d="M214.815 144.002C213.404 144.002 211.956 142.454 211.586 140.534C211.217 138.614 212.069 137.034 213.51 137.034C213.768 137.04 214.024 137.092 214.264 137.189C214.395 137.874 214.681 138.517 215.099 139.067C215.518 139.617 216.056 140.059 216.671 140.356C216.687 140.406 216.7 140.458 216.709 140.51C217.086 142.454 216.234 144.002 214.815 144.002Z" fill="black"/>
<path opacity="0.2" d="M301.777 138.88C298.525 144.3 293.976 150.068 289.441 149.797C284.696 149.51 289.479 139.569 294.579 130.914C294.769 131.309 294.938 131.715 295.085 132.129C296.239 135.443 299.762 131.355 301.558 126.028C301.863 130.305 301.936 134.595 301.777 138.88Z" fill="black"/>
<path d="M299.384 118.186C310.572 122.32 290.934 153.412 284.831 156.617C278.727 159.823 262.688 156.13 262.688 156.13L263.683 146.522C263.683 146.522 276.381 147.404 278.908 146.746C281.436 146.088 287.441 132.81 290.896 126.578C292.814 122.949 295.779 120.017 299.384 118.186Z" fill="#263238"/>
<path opacity="0.2" d="M265.206 264.574L251.905 265.464L250.766 259.619L265.379 258.93L265.206 264.574Z" fill="white"/>
<path opacity="0.2" d="M249.392 258.851L236.567 262.575L234.266 257.101L248.419 253.3L249.392 258.851Z" fill="white"/>
<path d="M242.621 268.248L249.169 266.374C249.277 266.339 249.394 266.349 249.496 266.401C249.597 266.453 249.675 266.543 249.712 266.653L251.485 271.886C251.559 272.169 251.522 272.47 251.38 272.723C251.239 272.977 251.005 273.163 250.731 273.241C248.43 273.853 247.306 274.015 244.416 274.836C242.643 275.339 239.188 276.501 236.66 276.795C234.133 277.089 233.922 274.519 234.963 274.17C237.437 273.319 240.402 270.671 241.685 268.875C241.92 268.564 242.249 268.343 242.621 268.248Z" fill="#263238"/>
<path d="M256.516 273.056C256.516 272.947 256.41 271.19 255.761 270.632C255.665 270.559 255.555 270.507 255.438 270.479C255.322 270.451 255.2 270.448 255.082 270.47C254.96 270.481 254.844 270.533 254.752 270.616C254.66 270.7 254.596 270.811 254.569 270.934C254.596 271.467 254.808 271.972 255.165 272.359C254.661 272.055 254.068 271.942 253.49 272.041C253.408 272.082 253.337 272.143 253.283 272.219C253.229 272.294 253.194 272.382 253.181 272.475C253.146 272.613 253.148 272.758 253.188 272.895C253.228 273.031 253.304 273.154 253.408 273.249C253.748 273.472 254.157 273.554 254.554 273.481C255.093 273.436 255.624 273.327 256.139 273.156C256.147 273.16 256.156 273.162 256.165 273.162C256.174 273.162 256.183 273.16 256.191 273.156V273.11C256.191 273.11 256.335 273.11 256.342 273.056C256.35 273.001 256.471 273.056 256.471 273.056H256.516ZM254.849 270.965C254.849 270.88 254.901 270.772 255.097 270.733H255.165C255.222 270.728 255.279 270.735 255.333 270.755C255.386 270.775 255.435 270.807 255.475 270.849C255.859 271.174 255.965 272.157 255.988 272.746L255.867 272.676C255.342 272.247 254.981 271.641 254.849 270.965ZM253.611 273.017C253.553 272.949 253.512 272.868 253.492 272.78C253.473 272.692 253.475 272.601 253.498 272.514C253.503 272.468 253.519 272.425 253.546 272.388C253.572 272.351 253.608 272.322 253.649 272.305C254.034 272.119 255.067 272.576 255.799 272.986C254.713 273.288 253.913 273.288 253.611 273.048V273.017Z" fill="#949494"/>
<path d="M256.649 272.312L263.439 271.879C263.495 271.871 263.552 271.875 263.607 271.891C263.661 271.906 263.712 271.933 263.757 271.969C263.801 272.005 263.838 272.05 263.865 272.101C263.892 272.152 263.909 272.208 263.914 272.266L264.578 277.763C264.588 277.906 264.571 278.049 264.527 278.185C264.482 278.321 264.412 278.447 264.32 278.555C264.228 278.663 264.117 278.751 263.991 278.815C263.866 278.878 263.729 278.915 263.59 278.924C261.221 279.04 260.082 278.97 257.094 279.141C255.261 279.249 251.647 279.652 249.112 279.396C246.577 279.141 246.894 276.586 247.988 276.462C250.576 276.16 254.023 274.209 255.63 272.723C255.916 272.474 256.274 272.329 256.649 272.312Z" fill="#263238"/>
<path d="M226.426 279.488H231.044L231.806 160.84H225.672L226.426 279.488Z" fill="#949494"/>
<path opacity="0.4" d="M225.656 161.033L225.777 180.179L226.411 279.488H231.035L231.669 180.179L231.79 161.033H225.656Z" fill="white"/>
<path opacity="0.2" d="M225.656 161.033L225.777 180.389H231.669L231.79 161.033H225.656Z" fill="black"/>
<path d="M177.352 279.488H181.969L190.275 160.84H184.142L177.352 279.488Z" fill="#949494"/>
<path opacity="0.5" d="M177.344 279.488H181.969L189.868 166.739L190.275 161.033H184.141L183.809 166.739L177.344 279.488Z" fill="white"/>
<path opacity="0.2" d="M183.797 166.453H189.855L190.263 161.033H184.129L183.797 166.453Z" fill="black"/>
<path d="M275.486 279.488H280.103L273.313 160.84H267.18L275.486 279.488Z" fill="#949494"/>
<path opacity="0.5" d="M267.18 161.033L267.587 166.739L275.486 279.488H280.103L273.645 166.739L273.313 161.033H267.18Z" fill="white"/>
<path opacity="0.2" d="M273.313 161.033H267.18L267.587 166.453H273.645L273.313 161.033Z" fill="black"/>
<path d="M276.558 163.81H180.924C180.71 163.81 180.498 163.766 180.3 163.682C180.103 163.598 179.923 163.475 179.772 163.32C179.62 163.164 179.5 162.98 179.418 162.777C179.336 162.574 179.294 162.357 179.294 162.137V157.871H278.188V162.137C278.188 162.581 278.016 163.006 277.71 163.32C277.405 163.633 276.99 163.81 276.558 163.81Z" fill="#949494"/>
<path opacity="0.6" d="M276.558 163.81H180.924C180.71 163.81 180.498 163.766 180.3 163.682C180.103 163.598 179.923 163.475 179.772 163.32C179.62 163.164 179.5 162.98 179.418 162.777C179.336 162.574 179.294 162.357 179.294 162.137V157.871H278.188V162.137C278.188 162.581 278.016 163.006 277.71 163.32C277.405 163.633 276.99 163.81 276.558 163.81Z" fill="white"/>
<path opacity="0.2" d="M179.294 160.84H278.188V157.867H179.294V160.84Z" fill="black"/>
<path d="M176.411 158.651H281.038C281.471 158.649 281.885 158.471 282.191 158.156C282.496 157.842 282.668 157.415 282.668 156.971C282.668 156.528 282.496 156.102 282.19 155.789C281.885 155.475 281.47 155.299 281.038 155.299H176.411C175.979 155.299 175.564 155.475 175.259 155.789C174.953 156.102 174.781 156.528 174.781 156.971C174.781 157.415 174.953 157.842 175.258 158.156C175.563 158.471 175.978 158.649 176.411 158.651Z" fill="#949494"/>
<path opacity="0.6" d="M176.411 158.651H281.038C281.471 158.649 281.885 158.471 282.191 158.156C282.496 157.842 282.668 157.415 282.668 156.971C282.668 156.528 282.496 156.102 282.19 155.789C281.885 155.475 281.47 155.299 281.038 155.299H176.411C175.979 155.299 175.564 155.475 175.259 155.789C174.953 156.102 174.781 156.528 174.781 156.971C174.781 157.415 174.953 157.842 175.258 158.156C175.563 158.471 175.978 158.649 176.411 158.651Z" fill="white"/>
</svg>
