<svg width="497" height="414" viewBox="0 0 497 414" fill="none" xmlns="http://www.w3.org/2000/svg">
<path d="M496.931 363.812H0V364.09H496.931V363.812Z" fill="#EBEBEB"/>
<path d="M447.135 381.672H414.219V381.95H447.135V381.672Z" fill="#EBEBEB"/>
<path d="M329.184 384.688H320.547V384.965H329.184V384.688Z" fill="#EBEBEB"/>
<path d="M413.228 371.352H394.156V371.629H413.228V371.352Z" fill="#EBEBEB"/>
<path d="M95.0655 373.227H52.1406V373.504H95.0655V373.227Z" fill="#EBEBEB"/>
<path d="M110.205 373.227H103.914V373.504H110.205V373.227Z" fill="#EBEBEB"/>
<path d="M223.761 377.914H130.656V378.192H223.761V377.914Z" fill="#EBEBEB"/>
<path d="M235.546 314.229H43.6416C42.1382 314.226 40.6973 313.556 39.6352 312.367C38.5731 311.177 37.9766 309.565 37.9766 307.884V6.28902C37.9896 4.6179 38.592 3.02004 39.6527 1.8425C40.7134 0.664968 42.1468 0.00286271 43.6416 0H235.546C237.051 0 238.495 0.668445 239.559 1.85828C240.623 3.04812 241.221 4.66189 241.221 6.34458V307.884C241.221 309.567 240.623 311.181 239.559 312.371C238.495 313.56 237.051 314.229 235.546 314.229ZM43.6416 0.222228C42.2041 0.225171 40.8264 0.865646 39.8109 2.00307C38.7954 3.1405 38.225 4.68193 38.225 6.28902V307.884C38.225 309.491 38.7954 311.033 39.8109 312.17C40.8264 313.308 42.2041 313.948 43.6416 313.951H235.546C236.985 313.948 238.363 313.308 239.381 312.171C240.398 311.034 240.97 309.492 240.973 307.884V6.28902C240.97 4.68091 240.398 3.1395 239.381 2.00239C238.363 0.865285 236.985 0.225165 235.546 0.222228H43.6416Z" fill="#EBEBEB"/>
<path d="M450.527 314.229H258.612C257.108 314.226 255.666 313.557 254.603 312.367C253.539 311.178 252.94 309.566 252.938 307.884V6.28902C252.953 4.61689 253.558 3.01904 254.62 1.84181C255.682 0.664579 257.117 0.00283149 258.612 0H450.527C452.02 0.0057829 453.451 0.66918 454.51 1.8464C455.568 3.02363 456.169 4.61982 456.182 6.28902V307.884C456.182 309.563 455.587 311.174 454.527 312.363C453.467 313.552 452.029 314.223 450.527 314.229ZM258.612 0.222228C257.174 0.225165 255.795 0.865285 254.778 2.00239C253.761 3.1395 253.189 4.68091 253.186 6.28902V307.884C253.189 309.492 253.761 311.034 254.778 312.171C255.795 313.308 257.174 313.948 258.612 313.951H450.527C451.966 313.948 453.344 313.308 454.361 312.171C455.378 311.034 455.951 309.492 455.954 307.884V6.28902C455.951 4.68091 455.378 3.1395 454.361 2.00239C453.344 0.865285 451.966 0.225165 450.527 0.222228H258.612Z" fill="#EBEBEB"/>
<path d="M54.6331 363.773H81.6562L81.6562 283.283H54.6331L54.6331 363.773Z" fill="#E6E6E6"/>
<path d="M59.7633 363.802H54.625V342.523H65.1401L59.7633 363.802Z" fill="#F0F0F0"/>
<path d="M208.805 363.773H235.828V283.283H208.805V363.773Z" fill="#E6E6E6"/>
<path d="M54.6467 357.969H213.297V283.278H54.6467V357.969Z" fill="#250000"/>
<path d="M208.15 363.802H213.288V342.523H202.773L208.15 363.802Z" fill="#F0F0F0"/>
<path d="M208.508 348.999H160.484V291.531H208.508V348.999ZM161.478 347.888H207.514V292.642H161.478V347.888Z" fill="#E6E6E6"/>
<path d="M158.026 348.999H109.953V291.531H158.026V348.999ZM110.997 347.888H157.032V292.642H110.947L110.997 347.888Z" fill="#E6E6E6"/>
<path d="M107.437 348.999H59.4141V291.531H107.437V348.999ZM60.4079 347.888H106.444V292.642H60.4079V347.888Z" fill="#E6E6E6"/>
<path d="M269.797 196.297L429.023 196.297V44.727L269.797 44.727V196.297Z" fill="#E6E6E6"/>
<path d="M266.217 196.297L427.461 196.297V44.727L266.217 44.727V196.297Z" fill="#878787"/>
<path d="M421.039 189.017V51.9922L272.656 51.9922V189.017H421.039Z" fill="white"/>
<path d="M402.815 189.006L344.416 51.9922H324.578L382.977 189.006H402.815Z" fill="white"/>
<path d="M377.36 189.006L318.96 51.9922H305.305L363.704 189.006H377.36Z" fill="white"/>
<path d="M327.734 189.017V51.9922H320.062V189.017H327.734Z" fill="#E6E6E6"/>
<path d="M378.75 189.017V51.9922H371.077V189.017H378.75Z" fill="#E6E6E6"/>
<path d="M326.352 193.641V46.5938H316.651V193.641H326.352Z" fill="#F5F5F5"/>
<path d="M377.367 193.641V46.5938H367.667V193.641H377.367Z" fill="#F5F5F5"/>
<path d="M273.328 189.017V51.9922H272.642V189.017H273.328Z" fill="#E6E6E6"/>
<path d="M263.512 35.3672H436.017C436.237 35.3701 436.446 35.4697 436.601 35.6445C436.755 35.8192 436.842 36.0549 436.842 36.3005C436.842 36.5451 436.755 36.7797 436.6 36.9527C436.446 37.1256 436.236 37.2228 436.017 37.2228H263.512C263.294 37.2228 263.084 37.1256 262.929 36.9527C262.774 36.7797 262.688 36.5451 262.688 36.3005C262.687 36.0549 262.774 35.8192 262.929 35.6445C263.083 35.4697 263.293 35.3701 263.512 35.3672Z" fill="#E6E6E6"/>
<path d="M429.014 41.4781C429.311 41.4752 429.595 41.3419 429.805 41.1071C430.015 40.8723 430.134 40.5546 430.137 40.2225V37.5335C430.134 37.2025 430.015 36.886 429.804 36.6529C429.594 36.4198 429.31 36.289 429.014 36.2891C428.718 36.289 428.433 36.4198 428.223 36.6529C428.013 36.886 427.893 37.2025 427.891 37.5335V40.2225C427.893 40.5546 428.012 40.8723 428.222 41.1071C428.432 41.3419 428.717 41.4752 429.014 41.4781Z" fill="#E6E6E6"/>
<path d="M276.029 41.4781C276.326 41.4752 276.611 41.3419 276.821 41.1071C277.031 40.8723 277.15 40.5546 277.152 40.2225V37.5335C277.15 37.2025 277.03 36.886 276.82 36.6529C276.61 36.4198 276.325 36.289 276.029 36.2891C275.733 36.289 275.449 36.4198 275.239 36.6529C275.028 36.886 274.909 37.2025 274.906 37.5335V40.2225C274.909 40.5546 275.028 40.8723 275.238 41.1071C275.448 41.3419 275.732 41.4752 276.029 41.4781Z" fill="#E6E6E6"/>
<path opacity="0.6" d="M263.756 111.523L424.891 111.523V36.2996L263.756 36.2996V111.523Z" fill="#ECC4FF"/>
<path d="M112.554 230.062H90.0229C87.6242 230.062 85.6797 232.236 85.6797 234.918V278.43C85.6797 281.112 87.6242 283.286 90.0229 283.286H112.554C114.952 283.286 116.897 281.112 116.897 278.43V234.918C116.897 232.236 114.952 230.062 112.554 230.062Z" fill="#FAFAFA"/>
<path d="M115.436 226.102H87.1407C86.3338 226.102 85.6797 226.833 85.6797 227.735V229.046C85.6797 229.948 86.3338 230.679 87.1407 230.679H115.436C116.243 230.679 116.897 229.948 116.897 229.046V227.735C116.897 226.833 116.243 226.102 115.436 226.102Z" fill="#E6E6E6"/>
<path d="M198.109 244.664H181.76C180.02 244.664 178.609 246.241 178.609 248.186V279.776C178.609 281.721 180.02 283.298 181.76 283.298H198.109C199.849 283.298 201.259 281.721 201.259 279.776V248.186C201.259 246.241 199.849 244.664 198.109 244.664Z" fill="#F0F0F0"/>
<path d="M200.206 241.797H179.663C179.081 241.797 178.609 242.324 178.609 242.975V243.941C178.609 244.592 179.081 245.119 179.663 245.119H200.206C200.788 245.119 201.259 244.592 201.259 243.941V242.975C201.259 242.324 200.788 241.797 200.206 241.797Z" fill="#E6E6E6"/>
<path d="M146.221 252.25H115.252C111.959 252.25 109.289 255.235 109.289 258.917V276.617C109.289 280.299 111.959 283.284 115.252 283.284H146.221C149.514 283.284 152.184 280.299 152.184 276.617V258.917C152.184 255.235 149.514 252.25 146.221 252.25Z" fill="#F0F0F0"/>
<path d="M150.186 246.82H111.287C110.183 246.82 109.289 247.82 109.289 249.054V250.876C109.289 252.109 110.183 253.109 111.287 253.109H150.186C151.29 253.109 152.184 252.109 152.184 250.876V249.054C152.184 247.82 151.29 246.82 150.186 246.82Z" fill="#F5F5F5"/>
<path d="M280.694 363.812H285.703V271.988H280.694V363.812Z" fill="#E6E6E6"/>
<path d="M425.326 254.102H398.203V271.969H425.326V254.102Z" fill="#250000"/>
<path d="M263.356 271.969H398.203V254.102L263.356 254.102V271.969Z" fill="#250000"/>
<path d="M425.326 301.805H398.203V319.672H425.326V301.805Z" fill="#250000"/>
<path d="M263.356 319.68H398.203V301.813H263.356V319.68Z" fill="#250000"/>
<path d="M415.538 363.812H420.547V271.988H415.538V363.812Z" fill="#250000"/>
<path d="M393.194 363.812H398.203V271.988H393.194V363.812Z" fill="#250000"/>
<path d="M263.358 363.812H268.367V271.988H263.358V363.812Z" fill="#F5F5F5"/>
<path d="M69.2537 132.273H133V52.3495L69.2537 52.3495V132.273Z" fill="#F0F0F0"/>
<path d="M64.7454 132.273H132V52.3495L64.7454 52.3495L64.7454 132.273Z" fill="#F5F5F5"/>
<path d="M70.3906 58.6418V125.977H126.375V58.6418H70.3906Z" fill="white"/>
<path d="M89.0996 72.8987C86.4974 72.88 83.9701 73.8723 81.9496 75.7058C79.9291 77.5394 78.541 80.1006 78.0222 82.9516C77.5035 85.8026 77.8865 88.7665 79.1058 91.3368C80.325 93.9072 82.3048 95.9243 84.7068 97.0437L126.379 116.677V89.3657L93.4229 73.8654C92.0529 73.2278 90.5836 72.8993 89.0996 72.8987Z" fill="#F0F0F0"/>
<path d="M153.91 172.227H217.656V92.3027L153.91 92.3027V172.227Z" fill="#F0F0F0"/>
<path d="M149.409 172.227H216.664V92.3027L149.409 92.3027V172.227Z" fill="#F5F5F5"/>
<path d="M155.047 98.5871V165.922H211.031V98.5871H155.047Z" fill="white"/>
<path d="M189.345 124.634L155.047 108.5V136.423L180.41 148.345C183.223 149.671 186.391 149.694 189.219 148.408C192.046 147.123 194.301 144.634 195.487 141.49C196.673 138.345 196.694 134.803 195.544 131.642C194.394 128.481 192.167 125.96 189.355 124.634H189.345Z" fill="#F0F0F0"/>
<path d="M248.465 413.961C354.891 413.961 441.165 408.329 441.165 401.383C441.165 394.436 354.891 388.805 248.465 388.805C142.04 388.805 55.7656 394.436 55.7656 401.383C55.7656 408.329 142.04 413.961 248.465 413.961Z" fill="white"/>
<path d="M192.888 67.996C193.881 63.3181 204.277 58.8736 213.222 65.7737C217.187 68.7755 220.161 73.1496 221.687 78.2241C223.213 83.2986 223.207 88.793 221.67 93.8632C216.869 109.752 241.925 109.164 247.729 135.953C252.31 157.065 248.067 186.965 222.495 185.343C183.466 182.865 186.835 140.22 185.125 117.808C183.416 95.3966 162.118 70.2627 192.888 67.996Z" fill="#263238"/>
<path d="M179.987 127.83C179.818 131.074 179.48 134.041 179.103 137.119C178.725 140.196 178.198 143.208 177.612 146.23C177.026 149.252 176.36 152.274 175.515 155.252C174.699 158.274 173.73 161.242 172.613 164.141L171.738 166.364C171.609 166.686 171.371 167.175 171.192 167.586C171.013 167.997 170.774 168.375 170.565 168.775C169.748 170.2 168.838 171.555 167.842 172.83C165.991 175.2 163.998 177.427 161.879 179.497C157.771 183.557 153.399 187.271 148.8 190.609L146.156 186.653C148.025 184.631 149.933 182.542 151.772 180.453C153.61 178.364 155.429 176.242 157.158 174.086C158.862 171.996 160.471 169.812 161.979 167.541C162.668 166.479 163.292 165.365 163.847 164.208C163.956 163.953 164.095 163.686 164.185 163.441C164.274 163.197 164.374 162.997 164.483 162.63L165.159 160.675C166.864 155.306 168.193 149.796 169.134 144.197C169.641 141.374 170.009 138.508 170.387 135.652C170.764 132.796 171.052 129.852 171.271 127.141L179.987 127.83Z" fill="#FFB573"/>
<path d="M174.026 116.175C170.497 117.175 168.062 133.42 168.062 133.42L181.569 143.687C181.569 143.687 187.125 124.431 184.402 120.086C181.539 115.553 179.174 114.708 174.026 116.175Z" fill="#6D0F28"/>
<path opacity="0.2" d="M174.346 119.805L171.633 136.183L177.099 140.327L174.346 119.805Z" fill="black"/>
<path d="M147.774 185.32L138.68 186.943L143.868 193.365C143.868 193.365 149.225 191.998 150.169 188.165L147.774 185.32Z" fill="#FFB573"/>
<path d="M134.375 188.215L139.563 194.493L143.866 193.36L138.678 186.938L134.375 188.215Z" fill="#FFB573"/>
<path d="M193.144 389.545H184.576L184 367.367H192.567L193.144 389.545Z" fill="#FFB573"/>
<path d="M252.37 361.344L244.439 364.966L234.391 345.599L242.322 341.977L252.37 361.344Z" fill="#FFB573"/>
<path d="M242.953 363.621L251.222 358.132C251.364 358.033 251.533 357.995 251.698 358.026C251.862 358.057 252.011 358.154 252.117 358.298L256.947 364.965C257.058 365.138 257.136 365.335 257.176 365.543C257.215 365.752 257.216 365.967 257.178 366.176C257.14 366.385 257.063 366.582 256.953 366.756C256.843 366.93 256.702 367.077 256.539 367.187C253.627 369.043 252.137 369.776 248.499 372.199C246.263 373.688 240.995 378.776 237.904 380.832C234.814 382.888 232.836 379.577 233.929 378.41C237.574 374.727 240.335 370.082 241.959 364.898C242.152 364.359 242.502 363.909 242.953 363.621Z" fill="#263238"/>
<path d="M184.271 388.461H193.901C194.065 388.457 194.224 388.52 194.349 388.639C194.474 388.758 194.555 388.924 194.577 389.106L195.68 397.628C195.7 397.843 195.679 398.059 195.618 398.264C195.558 398.469 195.461 398.658 195.331 398.818C195.202 398.978 195.045 399.106 194.868 399.194C194.692 399.282 194.501 399.328 194.309 399.328C190.949 399.261 189.339 399.039 185.095 399.039C182.492 399.039 177.145 399.339 173.517 399.339C169.889 399.339 169.73 395.372 171.221 395.006C177.94 393.395 180.583 391.172 182.839 389.05C183.239 388.671 183.746 388.462 184.271 388.461Z" fill="#263238"/>
<g opacity="0.2">
<path d="M184 367.398L184.288 378.832H192.855L192.567 367.398H184Z" fill="black"/>
<path d="M242.332 341.977L234.391 345.599L239.579 355.588L247.51 351.966L242.332 341.977Z" fill="black"/>
</g>
<path d="M174.028 116.175C174.028 116.175 169.943 117.775 178.122 173.954H212.908C212.321 158.121 212.311 148.398 219.08 115.875C214.208 114.733 209.269 113.991 204.301 113.653C199.043 113.23 193.766 113.23 188.508 113.653C181.72 114.442 174.028 116.175 174.028 116.175Z" fill="#6D0F28"/>
<path opacity="0.2" d="M216.212 128.734C213.061 129.612 210.149 133.457 210.497 140.535C210.693 143.745 211.699 146.827 213.399 149.424C213.956 143.979 214.89 137.657 216.381 129.568L216.212 128.734Z" fill="black"/>
<path d="M190.336 129.269C190.336 129.269 194.858 132.392 196.041 137.047C200.95 133.025 207.619 121.836 207.888 115.136C207.889 114.941 207.856 114.747 207.79 114.567C207.724 114.386 207.627 114.222 207.504 114.083C207.381 113.945 207.235 113.835 207.074 113.76C206.913 113.685 206.74 113.647 206.566 113.647C205.809 113.625 205.052 113.662 204.3 113.758L190.336 129.269Z" fill="#FAFAFA"/>
<path d="M190.343 129.244C190.343 129.244 185.821 132.366 184.639 137.022C179.361 132.699 182.293 118.432 185.314 113.688C186.378 113.562 187.451 113.562 188.515 113.688L190.343 129.244Z" fill="#FAFAFA"/>
<path d="M202.748 93.8359C201.754 99.5138 200.76 109.925 204.308 113.725C201.012 120.239 196.182 125.619 190.344 129.281C183.298 122.992 188.515 113.725 188.515 113.725C194.18 112.214 194.031 107.503 193.047 103.092L202.748 93.8359Z" fill="#FFB573"/>
<path opacity="0.2" d="M198.776 97.625L193.031 103.103C193.279 104.128 193.442 105.177 193.518 106.236C195.685 105.881 199.094 103.825 199.561 101.192C199.77 99.9473 198.975 98.2139 198.776 97.625Z" fill="black"/>
<path d="M211.261 84.6857C208.915 93.8192 208.09 97.7415 202.962 101.464C195.249 107.019 185.728 101.819 185.589 92.0858C185.46 83.319 189.326 69.8631 198.171 68.1853C200.119 67.8051 202.121 67.9883 203.988 68.7175C205.854 69.4468 207.523 70.6978 208.835 72.3516C210.147 74.0054 211.058 76.0069 211.483 78.1658C211.907 80.3247 211.831 82.5692 211.261 84.6857Z" fill="#FFB573"/>
<path d="M193.609 69.0054C193.997 72.0944 209.124 82.0279 211.996 76.85C214.868 71.6721 210.734 67.7721 204.293 66.7831C200.61 66.1366 196.839 66.9209 193.609 69.0054Z" fill="#263238"/>
<path d="M203.481 70.6875C201.623 73.4209 205.558 93.1102 211.194 91.2546C216.829 89.399 216.57 83.0989 212.655 77.2876C210.439 73.887 207.168 71.5334 203.481 70.6875Z" fill="#263238"/>
<path d="M178.123 173.977C178.123 173.977 171.365 247.778 171.941 276.945C172.528 307.324 182.486 376.614 182.486 376.614H194.064C194.064 376.614 192.236 309.102 193.259 279.268C194.373 246.745 203.616 173.977 203.616 173.977H178.123Z" fill="#6D0F28"/>
<path opacity="0.4" d="M178.123 173.977C178.123 173.977 171.365 247.778 171.941 276.945C172.528 307.324 182.486 376.614 182.486 376.614H194.064C194.064 376.614 192.236 309.102 193.259 279.268C194.373 246.745 203.616 173.977 203.616 173.977H178.123Z" fill="black"/>
<path d="M195.049 377.066H181.463L180.469 372.222L195.685 371.633L195.049 377.066Z" fill="#263238"/>
<path opacity="0.2" d="M193.133 192.318C184.585 211.529 191.413 246.585 194.435 259.63C195.985 240.041 198.599 216.096 200.636 198.518C199.334 188.562 197.068 183.451 193.133 192.318Z" fill="black"/>
<path d="M187.305 173.981C187.305 173.981 195.186 250.649 201.139 275.294C208.206 304.528 236.918 354.407 236.918 354.407L247.731 349.473C247.731 349.473 229.196 292.683 223.789 277.25C212.261 244.371 222.13 195.392 212.916 173.914L187.305 173.981Z" fill="#6D0F28"/>
<path opacity="0.4" d="M187.305 173.981C187.305 173.981 195.186 250.649 201.139 275.294C208.206 304.528 236.918 354.407 236.918 354.407L247.731 349.473C247.731 349.473 229.196 292.683 223.789 277.25C212.261 244.371 222.13 195.392 212.916 173.914L187.305 173.981Z" fill="black"/>
<path d="M249.208 349.512L235.791 355.634L232.641 351.578L248.135 343.578L249.208 349.512Z" fill="#263238"/>
<path d="M91.0521 76.4051C82.3969 84.9693 76.2075 96.2106 73.2668 108.707C70.3261 121.204 70.7661 134.395 74.5312 146.613C78.2962 158.83 85.2172 169.525 94.419 177.344C103.621 185.164 114.69 189.758 126.227 190.544C137.764 191.33 149.25 188.274 159.233 181.762C169.216 175.25 177.248 165.574 182.313 153.959C187.378 142.343 189.248 129.31 187.686 116.506C186.125 103.702 181.203 91.7037 173.543 82.0275C163.269 69.0552 148.808 61.1755 133.339 60.1212C117.87 59.0669 102.659 64.9242 91.0521 76.4051ZM162.382 166.518C155.096 173.725 146.062 178.355 136.423 179.822C126.784 181.289 116.972 179.527 108.228 174.76C99.4848 169.992 92.202 162.433 87.3009 153.038C82.3999 143.644 80.1007 132.835 80.6942 121.979C81.2877 111.123 84.7472 100.708 90.6352 92.0508C96.5232 83.3932 104.575 76.8821 113.773 73.3407C122.971 69.7994 132.902 69.3869 142.309 72.1554C151.717 74.9239 160.179 80.7491 166.625 88.8943C170.906 94.3026 174.191 100.601 176.295 107.429C178.398 114.257 179.278 121.481 178.883 128.689C178.489 135.897 176.829 142.948 173.998 149.438C171.166 155.929 167.219 161.733 162.382 166.518Z" fill="#263238"/>
<path opacity="0.3" d="M127.03 175.617C118.128 175.019 109.585 171.481 102.481 165.453C95.3778 159.425 90.033 151.177 87.1233 141.752C84.2136 132.327 83.8695 122.149 86.1347 112.506C88.3999 102.862 93.1725 94.1864 99.8488 87.576C106.525 80.9656 114.805 76.7176 123.641 75.3693C132.478 74.0209 141.473 75.633 149.49 80.0014C157.506 84.3697 164.184 91.2982 168.678 99.9103C173.171 108.522 175.28 118.431 174.735 128.383C174.004 141.716 168.569 154.179 159.624 163.035C150.68 171.891 138.957 176.417 127.03 175.617Z" fill="#6D0F28"/>
<g opacity="0.5">
<path d="M132.525 75.0234H131.68L84.8493 121.358L84.7897 122.302C84.1821 133.227 86.7857 144.075 92.2039 153.192L159.021 87.0015C151.592 79.889 142.288 75.6832 132.525 75.0234Z" fill="#FAFAFA"/>
<path d="M163.388 91.7344L95.875 158.525C98.1297 161.436 100.678 164.046 103.468 166.303L169.321 101.112C167.67 97.7437 165.679 94.5972 163.388 91.7344Z" fill="#FAFAFA"/>
</g>
<path d="M175.773 174.738L168.08 182.35C167.521 182.902 166.788 183.184 166.043 183.134C165.298 183.084 164.601 182.706 164.105 182.083C163.616 181.455 163.367 180.637 163.411 179.806C163.456 178.975 163.791 178.197 164.343 177.638L172.036 170.027C172.597 169.476 173.33 169.196 174.075 169.248C174.82 169.3 175.516 169.68 176.011 170.305C176.505 170.929 176.756 171.746 176.712 172.577C176.667 173.408 176.329 174.185 175.773 174.738Z" fill="#263238"/>
<path d="M172.941 173.344C178.735 179.044 184.281 185 189.757 191.033C195.233 197.067 200.58 203.256 205.867 209.412C211.155 215.567 216.343 221.923 221.491 228.301C226.321 234.968 232.9 239.901 233.884 250.368C233.961 251.205 233.859 252.051 233.586 252.835C233.313 253.619 232.876 254.319 232.313 254.877C231.75 255.435 231.075 255.835 230.346 256.044C229.617 256.253 228.854 256.265 228.12 256.079C218.937 253.712 215.369 245.812 210.042 239.634C205.019 233.153 200.07 226.612 195.193 220.012C190.317 213.412 185.53 206.704 180.832 199.889C176.141 193.089 171.53 186.211 167.166 179.089C166.607 178.216 166.355 177.143 166.461 176.076C166.567 175.009 167.023 174.024 167.74 173.31C168.458 172.596 169.386 172.205 170.346 172.211C171.307 172.217 172.231 172.621 172.941 173.344Z" fill="#263238"/>
<path d="M197.567 83.8753C197.418 84.6309 196.941 85.1531 196.494 84.9864C196.047 84.8198 195.818 84.1753 195.967 83.4308C196.116 82.6864 196.593 82.153 197.041 82.3197C197.488 82.4864 197.717 83.1197 197.567 83.8753Z" fill="#263238"/>
<path d="M189.941 81.9722C189.792 82.7278 189.305 83.25 188.868 83.1389C188.431 83.0278 188.192 82.3278 188.341 81.5722C188.49 80.8166 188.967 80.2944 189.415 80.4055C189.862 80.5166 190.091 81.2167 189.941 81.9722Z" fill="#263238"/>
<path d="M189.614 80.5082L188.094 79.5859C188.094 79.5859 188.64 81.2082 189.614 80.5082Z" fill="#263238"/>
<path d="M192.015 83.9219C191.073 85.4903 189.943 86.9072 188.656 88.1331C188.945 88.4946 189.301 88.7813 189.699 88.9732C190.098 89.1651 190.529 89.2576 190.962 89.2442L192.015 83.9219Z" fill="#ED893E"/>
<path d="M194.054 93.1196C193.72 93.0932 193.387 93.0375 193.06 92.953C193.035 92.9464 193.011 92.9343 192.99 92.9173C192.968 92.9004 192.95 92.8789 192.936 92.8542C192.923 92.8294 192.913 92.8018 192.909 92.773C192.905 92.7442 192.905 92.7148 192.911 92.6863C192.917 92.6578 192.928 92.631 192.943 92.6072C192.958 92.5834 192.978 92.5632 193 92.5477C193.022 92.5323 193.047 92.5218 193.072 92.517C193.098 92.5122 193.124 92.5131 193.15 92.5196C193.985 92.7463 194.856 92.7508 195.694 92.5328C196.531 92.3147 197.31 91.8802 197.97 91.2641C197.987 91.2346 198.009 91.2098 198.036 91.1913C198.062 91.1729 198.092 91.1614 198.123 91.1576C198.154 91.1538 198.186 91.1579 198.215 91.1695C198.245 91.1811 198.272 91.1999 198.294 91.2246C198.316 91.2493 198.333 91.2792 198.343 91.3121C198.353 91.3451 198.357 91.3802 198.354 91.4149C198.35 91.4496 198.34 91.483 198.323 91.5127C198.307 91.5423 198.285 91.5675 198.258 91.5863C197.683 92.1402 197.015 92.561 196.294 92.8242C195.572 93.0874 194.811 93.1879 194.054 93.1196Z" fill="#263238"/>
<path d="M211.8 93.8078C211.342 94.5635 210.755 95.2106 210.073 95.7121C209.391 96.2136 208.627 96.5595 207.825 96.7301C205.678 97.1745 204.843 94.9745 205.569 92.83C206.245 90.8966 208.193 88.3854 210.26 88.8743C210.71 88.9994 211.125 89.2478 211.468 89.5972C211.811 89.9465 212.07 90.3858 212.223 90.8754C212.376 91.365 212.417 91.8895 212.343 92.4014C212.27 92.9134 212.083 93.3967 211.8 93.8078Z" fill="#FFB573"/>
<path d="M200.762 80.5447C200.681 80.5721 200.595 80.5709 200.515 80.541C200.435 80.5111 200.365 80.4542 200.315 80.378C199.212 78.678 196.787 78.7002 196.767 78.7002C196.659 78.7002 196.555 78.6522 196.479 78.5668C196.402 78.4813 196.359 78.3655 196.359 78.2446C196.358 78.1853 196.367 78.1263 196.387 78.0711C196.406 78.0159 196.435 77.9656 196.472 77.9231C196.509 77.8807 196.554 77.847 196.603 77.8239C196.651 77.8009 196.704 77.789 196.757 77.7891C196.876 77.7891 199.619 77.7891 200.971 79.8447C201.034 79.9421 201.06 80.0633 201.043 80.1819C201.026 80.3005 200.968 80.4069 200.882 80.478L200.762 80.5447Z" fill="#263238"/>
<path d="M188.35 75.7391C188.28 75.7335 188.212 75.7081 188.153 75.6654C188.094 75.6227 188.046 75.5639 188.012 75.4946C187.964 75.387 187.955 75.2623 187.989 75.1478C188.022 75.0332 188.095 74.9382 188.191 74.8835C188.759 74.5428 189.392 74.3581 190.036 74.3446C190.681 74.331 191.319 74.4891 191.898 74.8057C191.99 74.8682 192.057 74.9676 192.084 75.0835C192.112 75.1993 192.099 75.3227 192.047 75.428C191.993 75.5326 191.904 75.6089 191.8 75.6401C191.696 75.6714 191.585 75.655 191.491 75.5946C191.03 75.3514 190.524 75.2337 190.014 75.2511C189.505 75.2685 189.006 75.4205 188.559 75.6946C188.493 75.7254 188.422 75.7406 188.35 75.7391Z" fill="#263238"/>
<path d="M239.663 367.26H239.533C239.341 367.211 239.164 367.107 239.018 366.959C238.871 366.811 238.762 366.624 238.699 366.415C238.643 366.293 238.618 366.156 238.627 366.019C238.635 365.882 238.677 365.75 238.748 365.638C239.374 364.638 242.475 364.76 242.823 364.782C242.863 364.78 242.902 364.794 242.935 364.82C242.967 364.846 242.991 364.883 243.002 364.926C243.015 364.968 243.018 365.013 243.009 365.057C243 365.1 242.981 365.14 242.952 365.171C242.187 366.015 240.726 367.404 239.663 367.26ZM242.346 365.204C241.104 365.204 239.444 365.36 239.116 365.882C239.089 365.934 239.075 365.994 239.075 366.054C239.075 366.115 239.089 366.174 239.116 366.227C239.157 366.366 239.228 366.492 239.323 366.593C239.419 366.694 239.536 366.767 239.663 366.804C240.229 366.949 241.213 366.338 242.346 365.204Z" fill="#6D0F28"/>
<path d="M242.498 365.205C241.435 365.06 239.517 364.249 239.258 363.316C239.205 363.146 239.206 362.96 239.26 362.79C239.314 362.621 239.419 362.477 239.556 362.383C239.678 362.275 239.819 362.198 239.971 362.157C240.122 362.117 240.279 362.114 240.431 362.149C241.653 362.416 242.926 364.783 242.985 364.883C243 364.917 243.008 364.955 243.008 364.994C243.008 365.032 243 365.07 242.985 365.105C242.966 365.139 242.94 365.167 242.909 365.187C242.877 365.206 242.842 365.216 242.806 365.216C242.704 365.223 242.6 365.219 242.498 365.205ZM240.302 362.583C240.124 362.56 239.946 362.616 239.805 362.738C239.596 362.916 239.606 363.06 239.646 363.16C239.845 363.794 241.385 364.583 242.419 364.738C241.962 363.972 241.087 362.749 240.361 362.594L240.302 362.583Z" fill="#6D0F28"/>
<path d="M181.05 390.113C180.317 390.191 179.584 389.983 178.973 389.525C178.834 389.388 178.727 389.215 178.663 389.021C178.599 388.827 178.579 388.618 178.605 388.413C178.609 388.289 178.643 388.168 178.702 388.063C178.761 387.958 178.844 387.872 178.943 387.813C179.996 387.158 183.415 389.113 183.793 389.336C183.83 389.358 183.86 389.392 183.88 389.433C183.899 389.475 183.907 389.522 183.902 389.569C183.898 389.616 183.88 389.66 183.852 389.694C183.823 389.728 183.785 389.751 183.743 389.758C182.858 389.973 181.956 390.092 181.05 390.113ZM179.519 388.136C179.39 388.127 179.26 388.154 179.142 388.213C179.102 388.239 179.069 388.274 179.045 388.316C179.021 388.359 179.006 388.408 179.002 388.458C178.987 388.593 179.001 388.729 179.043 388.857C179.084 388.984 179.152 389.099 179.241 389.191C179.758 389.713 181.169 389.802 183.067 389.447C181.959 388.79 180.76 388.346 179.519 388.136Z" fill="#6D0F28"/>
<path d="M183.713 389.789H183.633C182.639 389.278 180.592 387.211 180.751 386.123C180.751 385.867 180.95 385.545 181.506 385.478C181.708 385.454 181.912 385.477 182.105 385.546C182.299 385.615 182.477 385.728 182.629 385.878C183.713 386.878 183.911 389.456 183.911 389.567C183.917 389.605 183.912 389.645 183.898 389.68C183.884 389.716 183.861 389.746 183.832 389.767C183.795 389.789 183.754 389.797 183.713 389.789ZM181.675 385.9H181.546C181.178 385.9 181.158 386.111 181.148 386.167C181.049 386.811 182.421 388.445 183.464 389.145C183.384 388.056 183.002 387.023 182.371 386.189C182.181 385.996 181.932 385.893 181.675 385.9Z" fill="#6D0F28"/>
<path d="M197.224 82.4177L195.703 81.4844C195.703 81.4844 196.25 83.1066 197.224 82.4177Z" fill="#263238"/>
<path d="M213.443 171.695L214.327 175.173C214.447 175.451 214.168 175.729 213.761 175.729H177.912C177.604 175.729 177.346 175.551 177.326 175.329L177.008 171.851C177.008 171.606 177.256 171.406 177.604 171.406H212.837C212.952 171.387 213.069 171.403 213.176 171.454C213.284 171.506 213.376 171.589 213.443 171.695Z" fill="#6D0F28"/>
<path opacity="0.2" d="M213.443 171.695L214.327 175.173C214.447 175.451 214.168 175.729 213.761 175.729H177.912C177.604 175.729 177.346 175.551 177.326 175.329L177.008 171.851C177.008 171.606 177.256 171.406 177.604 171.406H212.837C212.952 171.387 213.069 171.403 213.176 171.454C213.284 171.506 213.376 171.589 213.443 171.695Z" fill="black"/>
<path d="M208.591 176.109H209.535C209.724 176.109 209.863 176.009 209.853 175.876L209.406 171.354C209.406 171.22 209.227 171.109 209.048 171.109H208.054C207.865 171.109 207.716 171.22 207.736 171.354L208.173 175.876C208.233 176.009 208.402 176.109 208.591 176.109Z" fill="#6D0F28"/>
<path opacity="0.4" d="M208.591 176.109H209.535C209.724 176.109 209.863 176.009 209.853 175.876L209.406 171.354C209.406 171.22 209.227 171.109 209.048 171.109H208.054C207.865 171.109 207.716 171.22 207.736 171.354L208.173 175.876C208.233 176.009 208.402 176.109 208.591 176.109Z" fill="white"/>
<path d="M180.602 176.109H181.547C181.735 176.109 181.875 176.009 181.865 175.876L181.427 171.354C181.427 171.22 181.248 171.109 181.06 171.109H180.115C179.927 171.109 179.787 171.22 179.797 171.354L180.235 175.876C180.255 176.009 180.414 176.109 180.602 176.109Z" fill="#6D0F28"/>
<path opacity="0.4" d="M180.602 176.109H181.547C181.735 176.109 181.875 176.009 181.865 175.876L181.427 171.354C181.427 171.22 181.248 171.109 181.06 171.109H180.115C179.927 171.109 179.787 171.22 179.797 171.354L180.235 175.876C180.255 176.009 180.414 176.109 180.602 176.109Z" fill="white"/>
<path d="M194.537 176.109H195.531C195.72 176.109 195.859 176.009 195.849 175.876L195.412 171.354C195.412 171.22 195.233 171.109 195.044 171.109H194.1C193.911 171.109 193.772 171.22 193.782 171.354L194.219 175.876C194.189 176.009 194.348 176.109 194.537 176.109Z" fill="#6D0F28"/>
<path opacity="0.4" d="M194.537 176.109H195.531C195.72 176.109 195.859 176.009 195.849 175.876L195.412 171.354C195.412 171.22 195.233 171.109 195.044 171.109H194.1C193.911 171.109 193.772 171.22 193.782 171.354L194.219 175.876C194.189 176.009 194.348 176.109 194.537 176.109Z" fill="white"/>
<path d="M192.01 181.738L183.562 177.516L185.968 186.882C185.968 186.882 191.334 188.238 193.67 185.227L192.01 181.738Z" fill="#FFB573"/>
<path d="M223.139 127.43C223.527 130.708 223.835 134.008 224.183 137.285L225.077 147.175C225.396 150.508 225.634 153.764 225.912 157.064L226.28 162.008L226.379 163.253C226.379 163.375 226.379 163.886 226.379 164.242C226.379 164.597 226.379 165.008 226.379 165.353C226.231 166.765 225.829 168.13 225.197 169.364C224.173 171.265 222.822 172.919 221.221 174.231C219.879 175.362 218.456 176.369 216.968 177.242C214.184 178.85 211.289 180.206 208.311 181.297C205.399 182.409 202.477 183.331 199.545 184.153C196.613 184.975 193.681 185.653 190.65 186.175L189.656 181.453C192.389 180.442 195.182 179.409 197.895 178.242C200.609 177.075 203.322 175.931 205.926 174.608C208.489 173.354 210.973 171.907 213.36 170.275C214.461 169.532 215.504 168.688 216.481 167.753C217.246 167.059 217.884 166.207 218.359 165.242C218.463 165.03 218.517 164.794 218.518 164.553C218.518 164.553 218.518 164.553 218.518 164.464C218.518 164.375 218.518 164.464 218.518 164.219L218.359 162.997L217.723 158.075C217.335 154.741 216.898 151.508 216.54 148.219L215.417 138.363C215.099 135.03 214.731 131.785 214.423 128.485L223.139 127.43Z" fill="#FFB573"/>
<path d="M219.09 115.903C222.569 117.081 226.763 130.503 226.763 130.503L214.568 144.537C214.568 144.537 208.307 130.092 209.768 125.07C211.298 119.825 215.115 114.547 219.09 115.903Z" fill="#6D0F28"/>
<path d="M176.57 179.46L178.956 187.171L185.962 186.882L183.557 177.516L176.57 179.46Z" fill="#FFB573"/>
<path d="M294.541 151.805C296.827 133.538 285.417 118.727 269.078 118.727H388.461C404.81 118.727 416.209 133.538 413.933 151.805H294.541Z" fill="#263238"/>
<path opacity="0.7" d="M294.541 151.805C296.827 133.538 285.417 118.727 269.078 118.727H388.461C404.81 118.727 416.209 133.538 413.933 151.805H294.541Z" fill="#555555"/>
<path d="M269.073 118.727H388.455C372.116 118.727 357.019 133.538 354.743 151.805L327.75 368.298C325.474 386.577 310.377 401.388 294.038 401.388H233.83C217.491 401.388 206.092 386.577 208.367 368.298L235.351 151.805C237.637 133.538 252.723 118.727 269.073 118.727Z" fill="#555555"/>
<path d="M268.563 368.289C266.287 386.567 277.686 401.379 294.035 401.379H174.643C158.304 401.379 146.904 386.567 149.18 368.289H268.563Z" fill="#263238"/>
<path opacity="0.7" d="M268.563 368.289C266.287 386.567 277.686 401.379 294.035 401.379H174.643C158.304 401.379 146.904 386.567 149.18 368.289H268.563Z" fill="#555555"/>
<path opacity="0.4" d="M287.716 186.072H333.941C334.614 186.037 335.257 185.747 335.764 185.25C336.271 184.754 336.613 184.08 336.733 183.339C336.786 182.998 336.771 182.649 336.689 182.316C336.607 181.982 336.46 181.674 336.258 181.411C336.057 181.149 335.806 180.94 335.524 180.798C335.242 180.657 334.935 180.587 334.626 180.594H288.402C287.724 180.618 287.074 180.905 286.565 181.406C286.055 181.906 285.717 182.59 285.609 183.339C285.556 183.679 285.571 184.028 285.653 184.36C285.736 184.693 285.883 185.001 286.084 185.263C286.286 185.524 286.537 185.732 286.819 185.872C287.101 186.012 287.407 186.081 287.716 186.072Z" fill="white"/>
<path opacity="0.4" d="M286.435 196.264H320.415C321.092 196.241 321.74 195.956 322.249 195.457C322.759 194.959 323.098 194.278 323.208 193.531C323.261 193.191 323.246 192.842 323.163 192.509C323.081 192.177 322.934 191.868 322.733 191.607C322.531 191.346 322.28 191.137 321.998 190.997C321.716 190.857 321.409 190.789 321.101 190.798H287.121C286.443 190.819 285.794 191.103 285.284 191.602C284.774 192.101 284.436 192.783 284.328 193.531C284.275 193.871 284.29 194.22 284.372 194.553C284.454 194.885 284.601 195.193 284.803 195.455C285.005 195.716 285.255 195.925 285.538 196.065C285.82 196.205 286.126 196.273 286.435 196.264Z" fill="white"/>
<path opacity="0.4" d="M267.26 197.87C273.654 191.202 274.63 180.755 269.441 174.535C264.252 168.316 254.862 168.68 248.468 175.348C242.074 182.016 241.097 192.464 246.287 198.683C251.476 204.903 260.866 204.539 267.26 197.87Z" fill="white"/>
<path d="M244.698 186.656C244.379 189.026 244.626 191.449 245.414 193.678C246.272 196.023 247.75 198.019 249.65 199.4C251.551 200.78 253.783 201.478 256.048 201.4C258.541 201.334 260.984 200.598 263.168 199.254C265.353 197.909 267.217 195.997 268.601 193.678C269.896 191.581 270.739 189.177 271.065 186.656C272.059 178.522 267.001 171.922 259.716 171.922C256.07 172.039 252.574 173.574 249.833 176.264C247.091 178.954 245.275 182.629 244.698 186.656Z" fill="white"/>
<path opacity="0.4" d="M248.281 192.231C248.938 194.029 250.071 195.559 251.527 196.618C252.984 197.676 254.695 198.212 256.431 198.154C258.345 198.104 260.22 197.54 261.898 196.509C263.576 195.478 265.008 194.011 266.071 192.231C263.595 190.232 260.608 189.177 257.554 189.22C254.274 189.251 251.066 190.293 248.281 192.231Z" fill="#263238"/>
<path opacity="0.4" d="M253.81 183.004C253.71 183.632 253.735 184.277 253.886 184.892C254.036 185.507 254.307 186.077 254.679 186.56C255.052 187.043 255.516 187.428 256.038 187.685C256.559 187.943 257.126 188.067 257.696 188.049C258.943 188.009 260.138 187.482 261.075 186.561C262.011 185.64 262.63 184.382 262.825 183.004C262.925 182.378 262.9 181.734 262.75 181.12C262.6 180.507 262.33 179.938 261.958 179.456C261.587 178.973 261.124 178.59 260.604 178.333C260.083 178.076 259.517 177.952 258.949 177.971C257.702 178.01 256.507 178.534 255.569 179.453C254.631 180.372 254.009 181.627 253.81 183.004Z" fill="#263238"/>
<path opacity="0.4" d="M282.169 230.6H297.763C298.44 230.577 299.088 230.292 299.597 229.793C300.107 229.295 300.445 228.614 300.556 227.867C300.609 227.527 300.594 227.178 300.511 226.845C300.429 226.513 300.282 226.204 300.081 225.943C299.879 225.681 299.628 225.473 299.346 225.333C299.064 225.193 298.757 225.125 298.449 225.134H282.845C282.169 225.155 281.521 225.44 281.013 225.939C280.505 226.438 280.169 227.12 280.062 227.867C280.009 228.207 280.024 228.556 280.107 228.889C280.189 229.221 280.336 229.529 280.537 229.791C280.739 230.052 280.99 230.261 281.272 230.401C281.554 230.54 281.861 230.609 282.169 230.6Z" fill="white"/>
<path opacity="0.4" d="M307.169 230.601H329.452C330.128 230.577 330.777 230.292 331.286 229.793C331.795 229.295 332.134 228.614 332.244 227.867C332.299 227.527 332.285 227.177 332.204 226.844C332.123 226.51 331.976 226.201 331.774 225.939C331.572 225.677 331.32 225.469 331.037 225.33C330.754 225.19 330.447 225.123 330.137 225.134H307.855C307.178 225.155 306.528 225.44 306.019 225.939C305.509 226.438 305.171 227.12 305.062 227.867C305.009 228.207 305.024 228.556 305.107 228.889C305.189 229.222 305.336 229.53 305.537 229.791C305.739 230.053 305.99 230.261 306.272 230.401C306.554 230.541 306.861 230.609 307.169 230.601Z" fill="white"/>
<path opacity="0.4" d="M280.89 240.799H319.084C319.762 240.775 320.412 240.488 320.921 239.987C321.431 239.487 321.768 238.803 321.877 238.054C321.93 237.714 321.915 237.365 321.832 237.033C321.75 236.7 321.603 236.392 321.402 236.13C321.2 235.869 320.949 235.661 320.667 235.521C320.385 235.381 320.078 235.313 319.77 235.321H281.566C280.891 235.347 280.245 235.633 279.737 236.132C279.23 236.63 278.893 237.309 278.783 238.054C278.728 238.395 278.742 238.745 278.823 239.079C278.905 239.414 279.052 239.723 279.253 239.986C279.455 240.249 279.707 240.458 279.99 240.599C280.273 240.739 280.58 240.808 280.89 240.799Z" fill="white"/>
<path opacity="0.4" d="M261.713 242.41C268.107 235.741 269.084 225.294 263.894 219.074C258.705 212.855 249.315 213.219 242.921 219.887C236.527 226.555 235.551 237.003 240.74 243.222C245.929 249.442 255.319 249.078 261.713 242.41Z" fill="white"/>
<path d="M239.133 231.099C238.816 233.47 239.067 235.893 239.859 238.121C240.709 240.464 242.177 242.461 244.068 243.846C245.959 245.232 248.183 245.94 250.444 245.877C252.937 245.812 255.38 245.077 257.565 243.733C259.75 242.388 261.613 240.475 262.996 238.154C264.3 236.062 265.147 233.657 265.471 231.132C266.465 222.999 261.406 216.398 254.121 216.398C250.484 216.521 247 218.056 244.265 220.738C241.53 223.421 239.716 227.084 239.133 231.099Z" fill="white"/>
<path opacity="0.4" d="M242.727 236.77C243.386 238.569 244.52 240.1 245.978 241.158C247.436 242.216 249.149 242.752 250.886 242.693C252.799 242.641 254.672 242.077 256.348 241.046C258.024 240.015 259.454 238.549 260.517 236.77C258.041 234.77 255.054 233.714 251.999 233.759C248.72 233.794 245.512 234.835 242.727 236.77Z" fill="#263238"/>
<path opacity="0.4" d="M248.271 227.527C248.171 228.154 248.196 228.798 248.346 229.412C248.496 230.027 248.766 230.596 249.137 231.079C249.508 231.562 249.971 231.947 250.492 232.205C251.012 232.463 251.578 232.589 252.147 232.572C253.395 232.532 254.592 232.007 255.53 231.086C256.468 230.164 257.089 228.906 257.285 227.527C257.386 226.901 257.361 226.258 257.211 225.644C257.061 225.03 256.791 224.461 256.419 223.979C256.048 223.497 255.585 223.113 255.064 222.856C254.544 222.599 253.978 222.476 253.409 222.494C252.163 222.533 250.967 223.057 250.029 223.976C249.092 224.895 248.47 226.151 248.271 227.527Z" fill="#263238"/>
<path opacity="0.4" d="M276.603 275.135H303.765C304.443 275.111 305.093 274.824 305.602 274.323C306.112 273.823 306.45 273.139 306.558 272.39C306.611 272.05 306.596 271.701 306.514 271.369C306.431 271.036 306.284 270.728 306.083 270.466C305.881 270.205 305.63 269.997 305.348 269.857C305.066 269.717 304.759 269.649 304.451 269.657H277.279C276.602 269.68 275.954 269.966 275.444 270.464C274.935 270.963 274.596 271.644 274.486 272.39C274.431 272.732 274.445 273.083 274.527 273.418C274.609 273.753 274.757 274.063 274.96 274.326C275.162 274.589 275.415 274.798 275.7 274.938C275.984 275.078 276.292 275.145 276.603 275.135Z" fill="white"/>
<path opacity="0.4" d="M275.296 285.322H317.644C318.319 285.286 318.963 284.995 319.47 284.496C319.978 283.998 320.319 283.321 320.437 282.578C320.489 282.237 320.472 281.888 320.389 281.555C320.305 281.223 320.157 280.915 319.955 280.654C319.752 280.392 319.501 280.184 319.218 280.045C318.936 279.905 318.629 279.836 318.32 279.844H275.982C275.305 279.868 274.657 280.153 274.147 280.652C273.638 281.15 273.299 281.831 273.189 282.578C273.134 282.919 273.148 283.269 273.23 283.603C273.311 283.937 273.458 284.247 273.66 284.509C273.861 284.772 274.113 284.981 274.396 285.122C274.679 285.263 274.986 285.331 275.296 285.322Z" fill="white"/>
<path opacity="0.2" d="M228.967 328.696H293.806C294.756 328.661 295.666 328.258 296.38 327.557C297.094 326.856 297.568 325.9 297.722 324.851C297.798 324.372 297.777 323.879 297.661 323.41C297.544 322.941 297.336 322.506 297.05 322.139C296.764 321.771 296.408 321.48 296.009 321.286C295.609 321.092 295.176 321 294.741 321.018H229.921C228.972 321.048 228.063 321.448 227.35 322.148C226.637 322.848 226.165 323.804 226.015 324.851C225.938 325.329 225.957 325.819 226.071 326.287C226.185 326.756 226.391 327.19 226.674 327.558C226.956 327.926 227.309 328.219 227.705 328.416C228.102 328.613 228.533 328.708 228.967 328.696Z" fill="white"/>
<path opacity="0.2" d="M227.192 342.969H274.838C275.787 342.936 276.697 342.534 277.409 341.832C278.122 341.131 278.594 340.173 278.744 339.125C278.82 338.645 278.799 338.153 278.682 337.683C278.566 337.214 278.357 336.78 278.072 336.412C277.786 336.045 277.43 335.753 277.03 335.559C276.631 335.365 276.198 335.274 275.762 335.291H228.146C227.197 335.323 226.288 335.724 225.574 336.423C224.859 337.122 224.385 338.077 224.231 339.125C224.164 339.601 224.192 340.088 224.31 340.552C224.429 341.016 224.636 341.446 224.918 341.811C225.199 342.177 225.549 342.469 225.941 342.669C226.334 342.869 226.761 342.972 227.192 342.969Z" fill="white"/>
<path opacity="0.2" d="M251.513 153.788H328.825C329.311 153.764 329.774 153.552 330.137 153.19C330.499 152.827 330.738 152.336 330.813 151.799C330.852 151.552 330.84 151.299 330.781 151.058C330.721 150.817 330.614 150.593 330.467 150.404C330.321 150.215 330.139 150.064 329.934 149.964C329.729 149.863 329.506 149.814 329.283 149.821H252.01C251.527 149.849 251.067 150.06 250.705 150.419C250.344 150.779 250.103 151.266 250.022 151.799C249.985 152.042 249.995 152.292 250.052 152.53C250.11 152.769 250.213 152.99 250.355 153.18C250.497 153.369 250.674 153.521 250.874 153.626C251.074 153.731 251.292 153.786 251.513 153.788Z" fill="white"/>
<path opacity="0.4" d="M256.166 286.917C262.56 280.249 263.537 269.802 258.347 263.582C253.158 257.363 243.768 257.727 237.374 264.395C230.98 271.063 230.004 281.511 235.193 287.73C240.382 293.949 249.773 293.586 256.166 286.917Z" fill="white"/>
<path d="M233.557 275.682C233.238 278.053 233.485 280.475 234.273 282.705C235.133 285.047 236.612 287.04 238.513 288.418C240.413 289.796 242.644 290.493 244.907 290.416C247.399 290.35 249.841 289.615 252.025 288.273C254.21 286.931 256.074 285.021 257.46 282.705C258.753 280.607 259.597 278.204 259.925 275.682C260.918 267.538 255.86 260.938 248.575 260.938C244.927 261.055 241.431 262.592 238.689 265.284C235.947 267.976 234.132 271.654 233.557 275.682Z" fill="white"/>
<path opacity="0.4" d="M237.18 281.31C237.839 283.108 238.973 284.639 240.431 285.697C241.889 286.756 243.602 287.291 245.339 287.232C247.252 287.181 249.125 286.616 250.801 285.585C252.477 284.554 253.907 283.088 254.97 281.31C252.495 279.306 249.508 278.249 246.452 278.299C243.172 278.324 239.962 279.367 237.18 281.31Z" fill="#263238"/>
<path opacity="0.4" d="M242.715 272.046C242.616 272.673 242.643 273.317 242.794 273.93C242.945 274.544 243.216 275.113 243.588 275.595C243.96 276.077 244.424 276.46 244.945 276.717C245.466 276.973 246.032 277.097 246.601 277.079C247.846 277.04 249.04 276.515 249.977 275.596C250.913 274.677 251.533 273.422 251.729 272.046C251.83 271.419 251.804 270.775 251.654 270.161C251.504 269.547 251.234 268.977 250.863 268.494C250.492 268.011 250.029 267.627 249.509 267.368C248.988 267.11 248.422 266.985 247.853 267.001C246.605 267.041 245.408 267.567 244.47 268.488C243.532 269.409 242.911 270.667 242.715 272.046Z" fill="#263238"/>
</svg>
