<svg width="450" height="450" viewBox="0 0 450 450" fill="none" xmlns="http://www.w3.org/2000/svg">
<path d="M225 450C349.264 450 450 387.571 450 310.562C450 233.553 349.264 171.125 225 171.125C100.736 171.125 0 233.553 0 310.562C0 387.571 100.736 450 225 450Z" fill="#263238"/>
<path d="M373.727 373.698C404.793 373.698 429.977 358.087 429.977 338.829C429.977 319.571 404.793 303.959 373.727 303.959C342.661 303.959 317.477 319.571 317.477 338.829C317.477 358.087 342.661 373.698 373.727 373.698Z" fill="#E0E0E0"/>
<path d="M172.341 414.164L32.7863 327.672C30.4983 326.255 30.4983 323.956 32.7863 322.528L234.535 197.493C235.819 196.789 237.24 196.422 238.681 196.422C240.122 196.422 241.543 196.789 242.827 197.493L382.342 283.964C384.63 285.381 384.63 287.68 382.342 289.097L180.632 414.164C179.347 414.863 177.927 415.227 176.486 415.227C175.046 415.227 173.626 414.863 172.341 414.164Z" fill="#E0E0E0"/>
<path d="M402.122 318.84C400.919 309.981 403.999 276.234 410.99 263.386C417.981 250.539 429.567 237.061 439.657 239.076C449.005 240.945 449.748 253.646 440.068 263.649C430.388 273.652 415.566 286.636 412.769 301.751L405.143 327.479L402.122 318.84Z" fill="#334155"/>
<path opacity="0.1" d="M402.122 318.84C400.919 309.981 403.999 276.234 410.99 263.386C417.981 250.539 429.567 237.061 439.657 239.076C449.005 240.945 449.748 253.646 440.068 263.649C430.388 273.652 415.566 286.636 412.769 301.751L405.143 327.479L402.122 318.84Z" fill="black"/>
<path d="M404.364 316.057C404.492 316.02 404.605 315.94 404.686 315.828C404.767 315.716 404.812 315.579 404.814 315.437C405.244 284.305 423.792 255.46 436.444 247.43C436.583 247.342 436.684 247.199 436.724 247.032C436.764 246.864 436.741 246.687 436.659 246.538C436.578 246.389 436.444 246.281 436.288 246.238C436.133 246.194 435.967 246.219 435.828 246.307C422.932 254.494 404.032 283.811 403.563 315.416C403.561 315.502 403.576 315.587 403.605 315.666C403.634 315.746 403.678 315.818 403.733 315.88C403.789 315.941 403.855 315.99 403.928 316.024C404.001 316.058 404.079 316.076 404.159 316.078C404.228 316.088 404.298 316.08 404.364 316.057Z" fill="white"/>
<path d="M408.9 332.307C409.546 327.122 412.929 318.178 420.575 309.319C429.942 298.466 445.488 292.525 447.658 286.227C450.249 278.648 444.324 273.473 434.214 276.927C420.633 281.566 405.478 299.767 405.674 323.185L408.9 332.307Z" fill="#334155"/>
<path d="M406.173 327.407C406.287 327.376 406.39 327.311 406.471 327.22C406.553 327.129 406.608 327.016 406.632 326.892C411.756 299.601 432.249 284.958 440.619 282.439C440.774 282.402 440.91 282.301 440.997 282.158C441.085 282.015 441.117 281.841 441.088 281.673C441.068 281.589 441.032 281.511 440.983 281.442C440.934 281.374 440.872 281.317 440.802 281.275C440.731 281.232 440.654 281.206 440.574 281.197C440.493 281.188 440.412 281.196 440.335 281.222C431.086 284.003 410.709 298.856 405.488 326.682C405.473 326.767 405.473 326.853 405.488 326.937C405.504 327.021 405.535 327.101 405.579 327.172C405.624 327.244 405.681 327.305 405.748 327.352C405.814 327.4 405.889 327.432 405.967 327.449C406.038 327.449 406.107 327.434 406.173 327.407Z" fill="white"/>
<path d="M123.618 24.9416L116.177 29.5601C116.215 29.2117 116.235 28.8612 116.236 28.5104V26.2012C116.236 22.076 113.537 20.4071 110.213 22.4644C108.786 23.4135 107.563 24.6763 106.624 26.1697C106.087 20.9844 102.293 19.053 97.6974 21.9081C92.7207 24.9941 88.6826 32.4886 88.6826 38.7026V42.1665C88.654 43.5475 88.9146 44.9178 89.4452 46.1762L83.2267 49.955C82.2533 50.6353 81.4431 51.5526 80.862 52.6323C80.281 53.7121 79.9455 54.9238 79.8828 56.1689C79.8828 58.4572 81.3788 59.3809 83.2267 58.2683L123.578 33.2549C124.551 32.5756 125.36 31.66 125.941 30.5822C126.522 29.5044 126.858 28.2947 126.922 27.0514C126.962 24.7316 125.466 23.7975 123.618 24.9416Z" fill="#E6E6E6"/>
<path d="M29.5885 35.2591L33.6951 31.8477V22.1488C33.6951 14.4443 39.4149 5.50122 45.6236 1.64897C51.8421 -2.20328 56.8775 0.924708 56.8775 8.62921V10.0358C58.1852 7.75433 59.9736 5.83441 62.0987 4.43057C66.5671 1.65947 70.1945 3.90574 70.1945 9.44794V10.0882L75.9241 6.54038C78.8574 4.71398 81.2529 6.194 81.2529 9.84681C81.1517 11.8316 80.6166 13.7629 79.6908 15.4844C78.765 17.2059 77.4746 18.6691 75.9241 19.7556L29.5885 48.4743C26.6553 50.3007 24.25 48.8207 24.25 45.1679C24.3476 43.181 24.8823 41.2471 25.8102 39.5248C26.7381 37.8025 28.0329 36.3407 29.5885 35.2591Z" fill="#E6E6E6"/>
<path d="M41.3906 315.77C41.5022 317.4 41.9692 318.978 42.7539 320.379C43.5385 321.779 44.6189 322.962 45.9078 323.831L172.517 402.304C173.919 403.065 175.468 403.461 177.039 403.461C178.61 403.461 180.159 403.065 181.561 402.304L369.201 286.012C370.564 285.235 371.703 284.075 372.498 282.656C373.293 281.237 373.713 279.612 373.713 277.956C373.713 276.3 373.293 274.675 372.498 273.256C371.703 271.837 370.564 270.676 369.201 269.9L242.592 191.396C241.192 190.63 239.642 190.23 238.07 190.23C236.498 190.23 234.949 190.63 233.548 191.396L45.9078 307.719C44.6191 308.586 43.5387 309.767 42.754 311.165C41.9692 312.564 41.5022 314.141 41.3906 315.77Z" fill="#37474F"/>
<path d="M177.08 392.933V403.429C175.507 403.467 173.952 403.069 172.563 402.275L45.9054 323.834C44.5824 323.084 43.4681 321.971 42.6758 320.609C41.8834 319.247 41.4414 317.684 41.3948 316.078C41.3481 314.473 41.6983 312.883 42.4099 311.471C43.1215 310.058 44.169 308.873 45.4459 308.036C43.4219 309.59 43.5784 311.878 45.9054 313.284L172.524 391.767C173.923 392.573 175.493 392.975 177.08 392.933Z" fill="#263238"/>
<path d="M37.1477 307.912C35.8898 306.993 34.851 305.77 34.1155 304.34C33.38 302.91 32.9684 301.315 32.9141 299.683V137.457C32.9999 135.775 33.4536 134.138 34.2384 132.679C35.0232 131.22 36.117 129.98 37.4313 129.06L225.071 12.7676C226.422 11.9967 227.922 11.5788 229.451 11.5478C230.98 11.5168 232.495 11.8736 233.871 12.5892C235.127 13.5096 236.165 14.7337 236.9 16.163C237.636 17.5923 238.048 19.1869 238.105 20.8186V183.002C238.02 184.684 237.566 186.322 236.782 187.781C235.997 189.24 234.902 190.479 233.588 191.399L45.9084 307.723C44.5641 308.49 43.0708 308.906 41.549 308.939C40.0272 308.972 38.5196 308.62 37.1477 307.912Z" fill="#455A64"/>
<path d="M45.3804 308.016C44.0822 308.639 42.673 308.95 41.2511 308.928C39.8292 308.907 38.4289 308.552 37.1477 307.89C35.8898 306.971 34.851 305.748 34.1155 304.318C33.38 302.888 32.9684 301.293 32.9141 299.66V137.457C32.964 135.768 33.4222 134.122 34.2438 132.681L42.7111 137.929C41.9022 139.372 41.448 141.012 41.3912 142.694V304.919C41.3912 307.785 43.1316 309.076 45.3804 308.016Z" fill="#263238"/>
<path d="M41.3906 142.715V304.919C41.3906 308.068 43.4146 309.265 45.9078 307.722L233.548 191.398C234.863 190.478 235.957 189.238 236.742 187.779C237.527 186.32 237.98 184.683 238.065 183.001V20.8174C238.065 17.7313 236.051 16.4717 233.548 18.0252L45.9078 134.307C44.5934 135.23 43.4996 136.472 42.7149 137.932C41.9302 139.393 41.4765 141.031 41.3906 142.715Z" fill="#37474F"/>
<path d="M45.9168 313.314L172.526 391.797C173.928 392.558 175.477 392.954 177.048 392.954C178.619 392.954 180.168 392.558 181.57 391.797L369.21 275.505C371.703 273.951 371.703 271.443 369.21 269.9L242.601 191.396C241.201 190.63 239.651 190.23 238.079 190.23C236.507 190.23 234.958 190.63 233.557 191.396L45.9168 307.719C43.4236 309.262 43.4236 311.771 45.9168 313.314Z" fill="#455A64"/>
<path d="M48.351 140.543L229.773 28.1244C231.269 27.2007 232.491 27.9565 232.491 29.8144V179.465C232.439 180.475 232.165 181.458 231.693 182.333C231.221 183.209 230.563 183.952 229.773 184.503L48.351 296.922C46.855 297.846 45.6328 297.09 45.6328 295.232V145.582C45.685 144.572 45.9584 143.589 46.4307 142.714C46.903 141.838 47.5608 141.095 48.351 140.543Z" fill="#334155"/>
<path opacity="0.4" d="M48.351 140.543L229.773 28.1244C231.269 27.2007 232.491 27.9565 232.491 29.8144V179.465C232.439 180.475 232.165 181.458 231.693 182.333C231.221 183.209 230.563 183.952 229.773 184.503L48.351 296.922C46.855 297.846 45.6328 297.09 45.6328 295.232V145.582C45.685 144.572 45.9584 143.589 46.4307 142.714C46.903 141.838 47.5608 141.095 48.351 140.543Z" fill="black"/>
<path d="M60.6032 309.115L235.816 200.538C236.515 200.155 237.29 199.955 238.075 199.955C238.86 199.955 239.634 200.155 240.333 200.538L248.556 205.629C249.798 206.406 249.798 207.655 248.556 208.432L73.3237 316.998C72.6244 317.381 71.8503 317.581 71.0651 317.581C70.2799 317.581 69.5059 317.381 68.8065 316.998L60.6032 311.918C59.3614 311.141 59.3614 309.892 60.6032 309.115Z" fill="#37474F"/>
<path d="M81.8088 322.26L257.012 213.673C257.711 213.29 258.485 213.09 259.271 213.09C260.056 213.09 260.83 213.29 261.529 213.673L312.118 245.026C313.369 245.803 313.369 247.063 312.118 247.829L137.101 356.28C136.399 356.66 135.623 356.858 134.837 356.858C134.051 356.858 133.276 356.66 132.574 356.28L81.8185 325.052C80.567 324.286 80.5572 323.027 81.8088 322.26Z" fill="#263238"/>
<path d="M235.755 259.845L241.269 256.423C241.504 256.276 241.514 256.045 241.269 255.898L235.481 252.277C235.349 252.21 235.206 252.175 235.06 252.175C234.915 252.175 234.771 252.21 234.64 252.277L229.116 255.699C228.891 255.846 228.881 256.076 229.116 256.213L234.982 259.824C235.103 259.883 235.234 259.916 235.366 259.92C235.499 259.923 235.631 259.898 235.755 259.845ZM226.3 247.144L220.785 250.566C220.736 250.585 220.693 250.619 220.663 250.666C220.632 250.712 220.616 250.767 220.616 250.823C220.616 250.879 220.632 250.934 220.663 250.98C220.693 251.026 220.736 251.061 220.785 251.08L226.652 254.691C226.783 254.758 226.927 254.793 227.072 254.793C227.218 254.793 227.361 254.758 227.493 254.691L233.017 251.269C233.07 251.253 233.117 251.218 233.15 251.171C233.183 251.124 233.201 251.066 233.201 251.007C233.201 250.947 233.183 250.89 233.15 250.842C233.117 250.795 233.07 250.76 233.017 250.744L227.15 247.133C227.02 247.069 226.877 247.037 226.734 247.039C226.59 247.041 226.449 247.077 226.319 247.144H226.3ZM208.475 258.186L199.148 263.97C198.913 264.117 198.903 264.358 199.148 264.495L205.014 268.106C205.145 268.173 205.289 268.208 205.434 268.208C205.58 268.208 205.724 268.173 205.855 268.106L215.192 262.322C215.427 262.175 215.427 261.944 215.192 261.797L209.326 258.197C209.198 258.124 209.056 258.085 208.912 258.084C208.767 258.082 208.624 258.117 208.495 258.186H208.475ZM218.253 252.14L212.729 255.562C212.494 255.709 212.494 255.94 212.729 256.076L218.595 259.687C218.726 259.754 218.87 259.789 219.015 259.789C219.161 259.789 219.305 259.754 219.436 259.687L224.95 256.265C225.185 256.118 225.185 255.887 224.95 255.741L219.084 252.13C218.956 252.063 218.815 252.029 218.672 252.031C218.53 252.033 218.389 252.07 218.263 252.14H218.253ZM196.645 265.555L191.13 268.966C190.895 269.113 190.895 269.355 191.13 269.491L196.996 273.102C197.128 273.169 197.271 273.204 197.417 273.204C197.562 273.204 197.706 273.169 197.837 273.102L203.352 269.691C203.587 269.544 203.587 269.313 203.352 269.166L197.485 265.555C197.354 265.488 197.21 265.453 197.065 265.453C196.919 265.453 196.776 265.488 196.645 265.555ZM188.588 270.551L183.064 273.973C183.014 273.992 182.971 274.027 182.941 274.073C182.911 274.119 182.894 274.174 182.894 274.23C182.894 274.287 182.911 274.342 182.941 274.388C182.971 274.434 183.014 274.469 183.064 274.487L188.823 278.098C188.952 278.171 189.097 278.209 189.243 278.209C189.389 278.209 189.534 278.171 189.663 278.098L195.178 274.687C195.413 274.54 195.413 274.309 195.178 274.162L189.36 270.551C189.234 270.49 189.098 270.459 188.959 270.459C188.821 270.459 188.685 270.49 188.559 270.551H188.588ZM211.448 285.246L216.962 281.825C217.197 281.678 217.197 281.447 216.962 281.31L211.145 277.699C211.013 277.632 210.87 277.597 210.724 277.597C210.579 277.597 210.435 277.632 210.304 277.699L204.779 281.121C204.726 281.138 204.68 281.172 204.646 281.219C204.613 281.267 204.595 281.324 204.595 281.384C204.595 281.443 204.613 281.501 204.646 281.548C204.68 281.595 204.726 281.63 204.779 281.646L210.597 285.257C210.726 285.319 210.867 285.351 211.009 285.349C211.151 285.347 211.29 285.312 211.418 285.246H211.448ZM203.381 290.243L208.905 286.821C209.14 286.674 209.14 286.443 208.905 286.307L203.059 282.717C202.927 282.65 202.784 282.615 202.638 282.615C202.493 282.615 202.349 282.65 202.218 282.717L196.703 286.139C196.469 286.286 196.469 286.517 196.703 286.664L202.521 290.274C202.653 290.335 202.796 290.364 202.94 290.358C203.083 290.353 203.224 290.313 203.352 290.243H203.381ZM195.325 295.239L200.839 291.817C200.889 291.798 200.931 291.764 200.962 291.718C200.992 291.672 201.008 291.617 201.008 291.56C201.008 291.504 200.992 291.449 200.962 291.403C200.931 291.357 200.889 291.322 200.839 291.303L194.973 287.692C194.843 287.619 194.699 287.582 194.552 287.582C194.406 287.582 194.261 287.619 194.132 287.692L188.637 291.114C188.402 291.261 188.402 291.492 188.637 291.639L194.503 295.25C194.629 295.307 194.764 295.336 194.9 295.334C195.037 295.333 195.171 295.3 195.295 295.239H195.325ZM187.258 300.236L192.773 296.814C193.007 296.677 193.017 296.436 192.773 296.299L186.906 292.689C186.775 292.621 186.631 292.587 186.486 292.587C186.34 292.587 186.197 292.621 186.065 292.689L180.551 296.1C180.316 296.247 180.306 296.478 180.551 296.625L186.368 300.236C186.502 300.306 186.649 300.343 186.799 300.343C186.948 300.343 187.095 300.306 187.229 300.236H187.258ZM227.708 264.873L233.232 261.451C233.285 261.434 233.332 261.4 233.365 261.353C233.398 261.305 233.416 261.248 233.416 261.188C233.416 261.129 233.398 261.071 233.365 261.024C233.332 260.977 233.285 260.942 233.232 260.926L227.365 257.326C227.236 257.253 227.091 257.215 226.945 257.215C226.799 257.215 226.654 257.253 226.525 257.326L221.088 260.674C220.854 260.821 220.854 261.052 221.088 261.188L226.906 264.799C227.027 264.872 227.161 264.916 227.299 264.928C227.438 264.941 227.577 264.922 227.708 264.873ZM219.485 280.282L231.785 272.651C232.02 272.504 232.02 272.273 231.785 272.136L217.647 263.372C217.515 263.304 217.372 263.27 217.226 263.27C217.081 263.27 216.937 263.304 216.806 263.372L210.441 267.318C210.206 267.465 210.206 267.696 210.441 267.843L217.93 272.483C217.98 272.501 218.022 272.536 218.053 272.582C218.083 272.628 218.099 272.683 218.099 272.74C218.099 272.796 218.083 272.851 218.053 272.897C218.022 272.943 217.98 272.978 217.93 272.997L212.836 276.146C212.601 276.293 212.601 276.524 212.836 276.671L218.703 280.271C218.826 280.33 218.961 280.359 219.096 280.356C219.231 280.352 219.364 280.316 219.485 280.25V280.282ZM180.492 275.579L174.978 279.001C174.928 279.02 174.885 279.055 174.855 279.101C174.825 279.147 174.808 279.202 174.808 279.258C174.808 279.315 174.825 279.37 174.855 279.416C174.885 279.462 174.928 279.496 174.978 279.515L180.795 283.126C180.926 283.193 181.07 283.228 181.216 283.228C181.361 283.228 181.505 283.193 181.636 283.126L187.16 279.704C187.213 279.688 187.26 279.654 187.293 279.606C187.327 279.559 187.345 279.501 187.345 279.442C187.345 279.383 187.327 279.325 187.293 279.277C187.26 279.23 187.213 279.196 187.16 279.179L181.343 275.569C181.212 275.497 181.067 275.457 180.92 275.454C180.772 275.45 180.626 275.482 180.492 275.548V275.579ZM172.435 280.575L166.911 283.997C166.676 284.144 166.676 284.375 166.911 284.512L172.778 288.123C172.909 288.19 173.053 288.225 173.198 288.225C173.344 288.225 173.487 288.19 173.618 288.123L179.133 284.701C179.368 284.554 179.368 284.323 179.133 284.176L173.266 280.565C173.139 280.492 172.998 280.451 172.853 280.448C172.709 280.444 172.566 280.477 172.435 280.544V280.575ZM129.952 335.2C130.083 335.267 130.227 335.302 130.373 335.302C130.518 335.302 130.662 335.267 130.793 335.2L136.307 331.778C136.542 331.631 136.552 331.4 136.307 331.253L130.441 327.653C130.311 327.58 130.167 327.542 130.021 327.542C129.874 327.542 129.73 327.58 129.6 327.653L124.086 331.075C123.851 331.222 123.841 331.452 124.086 331.589L129.952 335.2ZM107.933 320.505L102.419 323.916C102.184 324.063 102.174 324.294 102.419 324.441L108.236 328.052C108.368 328.119 108.511 328.154 108.657 328.154C108.802 328.154 108.946 328.119 109.077 328.052L114.592 324.63C114.826 324.493 114.836 324.252 114.592 324.115L108.725 320.505C108.602 320.44 108.466 320.407 108.329 320.407C108.192 320.407 108.057 320.44 107.933 320.505ZM119.52 331.358C119.649 331.431 119.794 331.469 119.94 331.469C120.086 331.469 120.231 331.431 120.36 331.358L125.875 327.936C126.11 327.789 126.11 327.558 125.875 327.422L120.008 323.811C119.879 323.738 119.734 323.7 119.588 323.7C119.442 323.7 119.297 323.738 119.168 323.811L113.653 327.233C113.418 327.38 113.418 327.611 113.653 327.758L119.52 331.358ZM143.357 337.719L148.872 334.297C148.921 334.278 148.964 334.243 148.994 334.197C149.024 334.151 149.041 334.096 149.041 334.04C149.041 333.983 149.024 333.929 148.994 333.882C148.964 333.836 148.921 333.802 148.872 333.783L143.005 330.172C142.874 330.105 142.73 330.07 142.585 330.07C142.439 330.07 142.296 330.105 142.164 330.172L136.65 333.583C136.415 333.73 136.415 333.961 136.65 334.108L142.516 337.719C142.646 337.789 142.789 337.828 142.934 337.831C143.08 337.835 143.224 337.804 143.357 337.74V337.719ZM134.45 342.726C134.581 342.793 134.725 342.828 134.87 342.828C135.016 342.828 135.159 342.793 135.291 342.726L140.805 339.304C141.04 339.167 141.05 338.926 140.805 338.79L135.046 335.2C134.915 335.133 134.771 335.098 134.626 335.098C134.48 335.098 134.337 335.133 134.205 335.2L128.691 338.611C128.456 338.758 128.446 338.989 128.691 339.136L134.45 342.726ZM116 315.498L110.475 318.92C110.422 318.936 110.375 318.97 110.342 319.018C110.309 319.065 110.291 319.123 110.291 319.182C110.291 319.241 110.309 319.299 110.342 319.346C110.375 319.394 110.422 319.428 110.475 319.444L116.293 323.055C116.424 323.122 116.568 323.157 116.713 323.157C116.859 323.157 117.002 323.122 117.134 323.055L122.648 319.633C122.883 319.486 122.883 319.255 122.648 319.119L116.782 315.508C116.659 315.448 116.525 315.418 116.39 315.42C116.254 315.421 116.121 315.455 116 315.519V315.498ZM156.303 290.516L150.788 293.938C150.553 294.085 150.553 294.316 150.788 294.452L156.655 298.063C156.784 298.135 156.929 298.173 157.075 298.173C157.221 298.173 157.366 298.135 157.495 298.063L163.01 294.641C163.245 294.494 163.245 294.263 163.01 294.116L157.143 290.516C157.012 290.446 156.867 290.412 156.721 290.416C156.574 290.419 156.431 290.461 156.303 290.537V290.516ZM124.037 310.459L118.522 313.881C118.288 314.028 118.288 314.259 118.522 314.406L124.34 318.006C124.47 318.079 124.614 318.117 124.76 318.117C124.907 318.117 125.051 318.079 125.181 318.006L130.705 314.584C130.94 314.437 130.94 314.207 130.705 314.07L124.887 310.459C124.753 310.403 124.609 310.38 124.465 310.391C124.322 310.402 124.182 310.447 124.056 310.522L124.037 310.459ZM164.379 285.54L158.854 289.015C158.62 289.162 158.61 289.393 158.854 289.529L164.672 293.14C164.802 293.213 164.946 293.251 165.092 293.251C165.239 293.251 165.383 293.213 165.513 293.14L171.027 289.718C171.262 289.571 171.272 289.34 171.027 289.193L165.161 285.593C165.042 285.522 164.911 285.481 164.775 285.472C164.64 285.462 164.505 285.486 164.379 285.54ZM148.256 295.533L142.741 298.955C142.506 299.102 142.497 299.333 142.741 299.48L148.608 303.08C148.737 303.153 148.882 303.191 149.028 303.191C149.174 303.191 149.319 303.153 149.448 303.08L154.963 299.658C155.198 299.511 155.207 299.28 154.963 299.133L149.145 295.533C149.008 295.449 148.853 295.405 148.696 295.405C148.538 295.405 148.383 295.449 148.246 295.533H148.256ZM140.179 300.561L134.665 303.983C134.43 304.13 134.43 304.361 134.665 304.508L140.531 308.108C140.661 308.181 140.805 308.219 140.952 308.219C141.098 308.219 141.242 308.181 141.372 308.108L146.887 304.686C147.121 304.539 147.121 304.308 146.887 304.172L141.02 300.561C140.89 300.488 140.746 300.45 140.6 300.45C140.453 300.45 140.309 300.488 140.179 300.561ZM132.113 305.526L126.608 308.958C126.374 309.105 126.364 309.336 126.608 309.483L132.426 313.083C132.556 313.156 132.7 313.194 132.846 313.194C132.993 313.194 133.137 313.156 133.267 313.083L138.781 309.662C139.016 309.515 139.026 309.284 138.781 309.147L132.964 305.536C132.832 305.466 132.687 305.428 132.539 305.427C132.392 305.425 132.246 305.459 132.113 305.526ZM171.096 310.228L176.61 306.817C176.845 306.67 176.855 306.439 176.61 306.292L170.812 302.66C170.681 302.593 170.537 302.558 170.392 302.558C170.246 302.558 170.103 302.593 169.971 302.66L164.457 306.072C164.222 306.219 164.213 306.45 164.457 306.597L170.323 310.207C170.445 310.268 170.578 310.302 170.713 310.306C170.847 310.309 170.981 310.283 171.106 310.228H171.096ZM244.134 236.101L238.619 239.513C238.385 239.66 238.375 239.891 238.619 240.038L244.437 243.648C244.568 243.716 244.712 243.75 244.857 243.75C245.003 243.75 245.146 243.716 245.278 243.648L250.792 240.227C251.027 240.09 251.037 239.849 250.792 239.712L244.975 236.101C244.846 236.031 244.704 235.994 244.559 235.994C244.415 235.994 244.272 236.031 244.144 236.101H244.134ZM234.356 242.147L228.91 245.569C228.861 245.588 228.818 245.623 228.788 245.669C228.757 245.715 228.741 245.77 228.741 245.827C228.741 245.883 228.757 245.938 228.788 245.984C228.818 246.03 228.861 246.065 228.91 246.084L234.728 249.695C234.859 249.762 235.003 249.797 235.148 249.797C235.294 249.797 235.437 249.762 235.569 249.695L241.083 246.283C241.318 246.136 241.318 245.905 241.083 245.758L235.217 242.147C235.087 242.082 234.945 242.048 234.801 242.048C234.658 242.048 234.516 242.082 234.386 242.147H234.356ZM252.171 231.095L246.656 234.516C246.422 234.663 246.422 234.894 246.656 235.041L252.523 238.652C252.654 238.719 252.798 238.754 252.943 238.754C253.089 238.754 253.233 238.719 253.364 238.652L258.878 235.23C259.113 235.083 259.113 234.852 258.878 234.716L253.012 231.105C252.885 231.041 252.747 231.007 252.607 231.005C252.467 231.003 252.328 231.034 252.2 231.095H252.171ZM209.042 276.419L214.557 272.997C214.606 272.978 214.649 272.943 214.679 272.897C214.71 272.851 214.726 272.796 214.726 272.74C214.726 272.683 214.71 272.628 214.679 272.582C214.649 272.536 214.606 272.501 214.557 272.483L208.69 268.872C208.559 268.805 208.415 268.77 208.27 268.77C208.124 268.77 207.981 268.805 207.85 268.872L202.325 272.294C202.272 272.31 202.225 272.344 202.192 272.392C202.159 272.439 202.141 272.497 202.141 272.556C202.141 272.615 202.159 272.673 202.192 272.72C202.225 272.768 202.272 272.802 202.325 272.819L208.143 276.429C208.283 276.505 208.437 276.544 208.594 276.542C208.75 276.54 208.904 276.498 209.042 276.419ZM261.108 226.109C260.976 226.042 260.833 226.007 260.687 226.007C260.542 226.007 260.398 226.042 260.267 226.109L254.752 229.531C254.518 229.677 254.508 229.908 254.752 230.055L260.57 233.666C260.701 233.733 260.845 233.768 260.99 233.768C261.136 233.768 261.279 233.733 261.411 233.666L266.925 230.244C267.16 230.097 267.17 229.866 266.925 229.73L261.108 226.109ZM179.172 305.242L184.687 301.831C184.921 301.684 184.921 301.443 184.687 301.306L178.82 297.695C178.689 297.628 178.545 297.593 178.4 297.593C178.254 297.593 178.111 297.628 177.979 297.695L172.465 301.107C172.23 301.254 172.23 301.485 172.465 301.632L178.331 305.242C178.463 305.308 178.607 305.341 178.753 305.339C178.898 305.337 179.042 305.301 179.172 305.232V305.242ZM278.032 243.963L283.557 240.541C283.606 240.523 283.649 240.488 283.679 240.442C283.71 240.396 283.726 240.341 283.726 240.284C283.726 240.228 283.71 240.173 283.679 240.127C283.649 240.081 283.606 240.046 283.557 240.027L277.69 236.416C277.559 236.349 277.415 236.314 277.27 236.314C277.124 236.314 276.981 236.349 276.849 236.416L271.335 239.828C271.1 239.975 271.1 240.206 271.335 240.353L277.201 243.963C277.331 244.032 277.474 244.067 277.618 244.065C277.762 244.063 277.904 244.025 278.032 243.953V243.963ZM261.655 243.806L267.179 240.384C267.229 240.365 267.272 240.33 267.302 240.284C267.332 240.238 267.349 240.183 267.349 240.127C267.349 240.07 267.332 240.016 267.302 239.969C267.272 239.923 267.229 239.889 267.179 239.87L261.362 236.259C261.23 236.192 261.087 236.157 260.941 236.157C260.796 236.157 260.652 236.192 260.521 236.259L255.006 239.681C254.772 239.828 254.762 240.059 255.006 240.206L260.824 243.816C260.956 243.879 261.098 243.909 261.242 243.905C261.385 243.902 261.527 243.864 261.655 243.795V243.806ZM269.418 231.283C269.29 231.213 269.147 231.177 269.003 231.177C268.859 231.177 268.716 231.213 268.587 231.283L263.063 234.705C263.01 234.722 262.963 234.756 262.93 234.803C262.897 234.851 262.879 234.908 262.879 234.968C262.879 235.027 262.897 235.085 262.93 235.132C262.963 235.179 263.01 235.214 263.063 235.23L268.881 238.841C269.012 238.908 269.156 238.943 269.301 238.943C269.447 238.943 269.59 238.908 269.722 238.841L275.236 235.419C275.286 235.4 275.328 235.365 275.359 235.319C275.389 235.273 275.405 235.218 275.405 235.162C275.405 235.106 275.389 235.051 275.359 235.005C275.328 234.959 275.286 234.924 275.236 234.905L269.418 231.283ZM271.12 230.234L285.258 238.998C285.389 239.066 285.533 239.1 285.678 239.1C285.824 239.1 285.968 239.066 286.099 238.998L291.613 235.577C291.848 235.44 291.858 235.199 291.613 235.062L277.475 226.298C277.344 226.23 277.2 226.196 277.055 226.196C276.909 226.196 276.766 226.23 276.634 226.298L271.12 229.72C270.895 229.824 270.895 230.055 271.12 230.234ZM252.455 241.255L246.94 244.667C246.705 244.814 246.705 245.045 246.94 245.191L252.807 248.802C252.938 248.869 253.081 248.904 253.227 248.904C253.372 248.904 253.516 248.869 253.647 248.802L259.162 245.391C259.397 245.244 259.397 245.003 259.162 244.866L253.295 241.255C253.164 241.188 253.02 241.153 252.875 241.153C252.729 241.153 252.586 241.188 252.455 241.255ZM191.756 278.865L186.241 282.276C186.007 282.423 186.007 282.654 186.241 282.801L192.108 286.412C192.239 286.479 192.383 286.514 192.528 286.514C192.674 286.514 192.817 286.479 192.949 286.412L198.463 283C198.698 282.853 198.698 282.612 198.463 282.475L192.597 278.865C192.465 278.797 192.322 278.763 192.176 278.763C192.031 278.763 191.887 278.797 191.756 278.865ZM269.115 248.96C269.247 249.027 269.39 249.062 269.536 249.062C269.681 249.062 269.825 249.027 269.956 248.96L275.471 245.548C275.705 245.401 275.705 245.16 275.471 245.024L269.653 241.413C269.522 241.346 269.378 241.311 269.233 241.311C269.087 241.311 268.944 241.346 268.812 241.413L263.288 244.824C263.235 244.84 263.188 244.875 263.155 244.922C263.122 244.97 263.104 245.027 263.104 245.086C263.104 245.146 263.122 245.204 263.155 245.251C263.188 245.298 263.235 245.333 263.288 245.349L269.115 248.96ZM199.822 273.868L194.308 277.28C194.073 277.427 194.073 277.657 194.308 277.804L200.125 281.415C200.257 281.482 200.4 281.517 200.546 281.517C200.691 281.517 200.835 281.482 200.966 281.415L206.49 277.993C206.54 277.974 206.583 277.94 206.613 277.894C206.643 277.847 206.66 277.793 206.66 277.736C206.66 277.68 206.643 277.625 206.613 277.579C206.583 277.533 206.54 277.498 206.49 277.479L200.624 273.868C200.502 273.806 200.368 273.773 200.233 273.773C200.098 273.773 199.964 273.806 199.842 273.868H199.822ZM137.979 330.224C138.111 330.292 138.254 330.326 138.4 330.326C138.545 330.326 138.689 330.292 138.82 330.224L144.335 326.802C144.569 326.656 144.569 326.425 144.335 326.278L138.468 322.667C138.34 322.597 138.197 322.56 138.053 322.56C137.908 322.56 137.766 322.597 137.637 322.667L132.113 326.089C131.878 326.236 131.878 326.467 132.113 326.603L137.979 330.224ZM127.224 318.836L121.71 322.257C121.475 322.404 121.465 322.635 121.71 322.772L127.576 326.383C127.706 326.455 127.85 326.493 127.997 326.493C128.143 326.493 128.287 326.455 128.417 326.383L133.932 322.961C134.166 322.814 134.176 322.583 133.932 322.436L128.065 318.836C127.943 318.773 127.809 318.741 127.674 318.741C127.539 318.741 127.405 318.773 127.283 318.836H127.224ZM146.857 325.217L152.382 321.806C152.435 321.79 152.482 321.755 152.515 321.708C152.548 321.661 152.566 321.603 152.566 321.544C152.566 321.484 152.548 321.427 152.515 321.379C152.482 321.332 152.435 321.298 152.382 321.281L146.564 317.67C146.433 317.603 146.289 317.568 146.144 317.568C145.998 317.568 145.855 317.603 145.723 317.67L140.209 321.092C140.159 321.111 140.116 321.146 140.086 321.192C140.056 321.238 140.04 321.293 140.04 321.349C140.04 321.406 140.056 321.461 140.086 321.507C140.116 321.553 140.159 321.588 140.209 321.607L146.026 325.217C146.162 325.299 146.315 325.342 146.471 325.342C146.627 325.342 146.78 325.299 146.916 325.217H146.857ZM154.924 320.221L160.438 316.81C160.673 316.663 160.683 316.432 160.438 316.285L154.621 312.674C154.489 312.607 154.346 312.572 154.2 312.572C154.055 312.572 153.911 312.607 153.78 312.674L148.256 316.096C148.206 316.115 148.163 316.15 148.133 316.196C148.103 316.242 148.087 316.297 148.087 316.353C148.087 316.41 148.103 316.464 148.133 316.511C148.163 316.557 148.206 316.591 148.256 316.61L154.073 320.221C154.211 320.307 154.368 320.352 154.528 320.352C154.688 320.352 154.844 320.307 154.983 320.221H154.924ZM162.99 315.225L168.505 311.813C168.74 311.666 168.74 311.435 168.505 311.289L162.638 307.678C162.507 307.611 162.363 307.576 162.218 307.576C162.072 307.576 161.929 307.611 161.797 307.678L156.391 311.058C156.156 311.205 156.156 311.446 156.391 311.582L162.257 315.193C162.378 315.263 162.51 315.304 162.647 315.315C162.783 315.326 162.92 315.306 163.049 315.256L162.99 315.225ZM135.281 313.839L129.766 317.261C129.532 317.408 129.532 317.639 129.766 317.775L135.633 321.386C135.763 321.459 135.907 321.497 136.053 321.497C136.2 321.497 136.344 321.459 136.474 321.386L141.988 317.964C142.223 317.817 142.223 317.586 141.988 317.44L136.122 313.839C136 313.777 135.866 313.744 135.731 313.744C135.595 313.744 135.462 313.777 135.34 313.839H135.281ZM143.347 308.843L137.833 312.265C137.598 312.412 137.588 312.643 137.833 312.779L143.65 316.39C143.782 316.457 143.925 316.492 144.071 316.492C144.216 316.492 144.36 316.457 144.491 316.39L150.016 312.968C150.24 312.821 150.25 312.59 150.016 312.443L144.149 308.843C144.032 308.787 143.906 308.758 143.778 308.758C143.649 308.758 143.523 308.787 143.406 308.843H143.347ZM175.613 288.899L170.099 292.311C169.864 292.458 169.864 292.699 170.099 292.836L175.965 296.446C176.096 296.513 176.24 296.548 176.386 296.548C176.531 296.548 176.675 296.513 176.806 296.446L182.32 293.035C182.555 292.888 182.555 292.657 182.32 292.51L176.454 288.899C176.331 288.832 176.195 288.793 176.057 288.786C175.919 288.779 175.781 288.803 175.652 288.857L175.613 288.899ZM167.556 293.896L162.042 297.318C161.807 297.454 161.797 297.695 162.042 297.832L167.908 301.443C168.038 301.515 168.182 301.553 168.329 301.553C168.475 301.553 168.619 301.515 168.749 301.443L174.264 298.031C174.498 297.884 174.508 297.653 174.264 297.506L168.446 293.896C168.317 293.82 168.173 293.777 168.025 293.77C167.878 293.763 167.731 293.791 167.596 293.854L167.556 293.896ZM183.68 283.903L178.165 287.314C177.93 287.461 177.921 287.692 178.165 287.839L184.032 291.45C184.163 291.517 184.306 291.552 184.452 291.552C184.597 291.552 184.741 291.517 184.872 291.45L190.387 288.039C190.622 287.892 190.631 287.661 190.387 287.514L184.52 283.903C184.397 283.835 184.262 283.797 184.124 283.79C183.986 283.782 183.847 283.807 183.719 283.861L183.68 283.903ZM151.414 303.846L145.889 307.268C145.655 307.415 145.655 307.646 145.889 307.783L151.707 311.393C151.838 311.461 151.982 311.495 152.128 311.495C152.273 311.495 152.417 311.461 152.548 311.393L158.062 307.972C158.297 307.825 158.297 307.594 158.062 307.447L152.196 303.836C151.962 303.74 151.703 303.744 151.472 303.846H151.414ZM159.47 298.85L153.956 302.272C153.906 302.291 153.864 302.326 153.833 302.372C153.803 302.418 153.787 302.473 153.787 302.529C153.787 302.585 153.803 302.64 153.833 302.687C153.864 302.733 153.906 302.767 153.956 302.786L159.822 306.397C159.951 306.467 160.094 306.504 160.238 306.504C160.382 306.504 160.525 306.467 160.654 306.397L166.178 302.975C166.412 302.828 166.412 302.597 166.178 302.45L160.311 298.84C160.182 298.777 160.041 298.746 159.9 298.748C159.758 298.75 159.618 298.784 159.49 298.85H159.47ZM151.355 332.744L156.879 329.322C156.929 329.303 156.972 329.268 157.002 329.222C157.032 329.176 157.048 329.121 157.048 329.064C157.048 329.008 157.032 328.953 157.002 328.907C156.972 328.861 156.929 328.826 156.879 328.807L151.062 325.197C150.932 325.124 150.788 325.086 150.641 325.086C150.495 325.086 150.351 325.124 150.221 325.197L144.706 328.608C144.472 328.755 144.472 328.986 144.706 329.133L150.524 332.744C150.662 332.819 150.814 332.858 150.969 332.858C151.124 332.858 151.276 332.819 151.414 332.744H151.355ZM106.476 329.122L100.61 325.511C100.478 325.444 100.335 325.409 100.189 325.409C100.044 325.409 99.9003 325.444 99.769 325.511L94.3522 328.902C94.1176 329.049 94.1176 329.28 94.3522 329.427L100.219 333.037C100.35 333.105 100.494 333.139 100.639 333.139C100.785 333.139 100.928 333.105 101.06 333.037L106.574 329.616C106.616 329.59 106.651 329.552 106.673 329.505C106.696 329.459 106.705 329.407 106.701 329.355C106.697 329.304 106.679 329.254 106.65 329.213C106.62 329.171 106.581 329.14 106.535 329.122H106.476ZM117.76 332.439L111.942 328.828C111.812 328.756 111.668 328.718 111.522 328.718C111.375 328.718 111.231 328.756 111.101 328.828L102.614 334.077C102.38 334.224 102.37 334.454 102.614 334.601L108.481 338.212C108.612 338.279 108.756 338.314 108.901 338.314C109.047 338.314 109.19 338.279 109.322 338.212L117.808 332.964C118.043 332.807 118.053 332.576 117.818 332.439H117.76ZM97.657 322.079L91.7905 318.468C91.6592 318.401 91.5155 318.366 91.3701 318.366C91.2246 318.366 91.081 318.401 90.9496 318.468L84.1641 322.667C83.9294 322.814 83.9196 323.045 84.1641 323.192L90.0306 326.802C90.1619 326.87 90.3055 326.904 90.451 326.904C90.5965 326.904 90.7401 326.87 90.8714 326.802L97.7157 322.604C97.9406 322.446 97.9406 322.215 97.7157 322.079H97.657ZM102.859 318.846C102.988 318.919 103.133 318.957 103.279 318.957C103.425 318.957 103.57 318.919 103.7 318.846L109.214 315.424C109.449 315.277 109.449 315.046 109.214 314.899L103.348 311.299C103.219 311.226 103.077 311.188 102.932 311.188C102.787 311.188 102.645 311.226 102.516 311.299L96.9921 314.721C96.7575 314.868 96.7575 315.099 96.9921 315.235L102.859 318.846ZM128.261 336.249L122.394 332.649C122.264 332.576 122.12 332.538 121.974 332.538C121.827 332.538 121.683 332.576 121.553 332.649L110.945 339.22C110.71 339.367 110.71 339.608 110.945 339.745L116.811 343.356C116.942 343.423 117.086 343.458 117.232 343.458C117.377 343.458 117.521 343.423 117.652 343.356L128.261 336.785C128.485 336.648 128.485 336.417 128.261 336.249ZM132.758 343.775L126.892 340.165C126.76 340.098 126.617 340.063 126.471 340.063C126.326 340.063 126.182 340.098 126.051 340.165L119.265 344.363C119.216 344.382 119.173 344.417 119.143 344.463C119.112 344.509 119.096 344.564 119.096 344.62C119.096 344.677 119.112 344.732 119.143 344.778C119.173 344.824 119.216 344.859 119.265 344.878L125.132 348.488C125.262 348.561 125.406 348.599 125.552 348.599C125.699 348.599 125.843 348.561 125.973 348.488L132.758 344.29C132.983 344.174 132.983 343.943 132.758 343.796V343.775ZM162.863 281.667C162.995 281.734 163.138 281.769 163.284 281.769C163.429 281.769 163.573 281.734 163.704 281.667L169.219 278.245C169.268 278.226 169.311 278.192 169.341 278.145C169.371 278.099 169.388 278.044 169.388 277.988C169.388 277.932 169.371 277.877 169.341 277.831C169.311 277.785 169.268 277.75 169.219 277.731L163.352 274.12C163.221 274.053 163.077 274.018 162.932 274.018C162.786 274.018 162.643 274.053 162.511 274.12L156.997 277.531C156.762 277.678 156.762 277.909 156.997 278.056L162.863 281.667ZM146.779 291.691C146.908 291.761 147.05 291.798 147.195 291.798C147.339 291.798 147.482 291.761 147.61 291.691L153.135 288.28C153.188 288.264 153.234 288.229 153.268 288.182C153.301 288.135 153.319 288.077 153.319 288.018C153.319 287.958 153.301 287.901 153.268 287.853C153.234 287.806 153.188 287.771 153.135 287.755L147.268 284.144C147.137 284.077 146.993 284.042 146.848 284.042C146.702 284.042 146.559 284.077 146.427 284.144L140.913 287.556C140.678 287.703 140.678 287.934 140.913 288.081L146.779 291.691ZM111.013 313.85C111.143 313.922 111.287 313.96 111.434 313.96C111.58 313.96 111.724 313.922 111.854 313.85L117.378 310.428C117.431 310.411 117.478 310.377 117.511 310.33C117.545 310.282 117.563 310.225 117.563 310.165C117.563 310.106 117.545 310.048 117.511 310.001C117.478 309.954 117.431 309.919 117.378 309.903L111.561 306.303C111.431 306.23 111.287 306.192 111.14 306.192C110.994 306.192 110.85 306.23 110.72 306.303L105.205 309.725C104.971 309.871 104.971 310.102 105.205 310.239L111.013 313.85ZM154.836 286.695C154.967 286.762 155.111 286.797 155.256 286.797C155.402 286.797 155.545 286.762 155.677 286.695L161.191 283.284C161.426 283.137 161.436 282.895 161.191 282.759L155.325 279.148C155.193 279.081 155.05 279.046 154.904 279.046C154.759 279.046 154.615 279.081 154.484 279.148L148.969 282.559C148.735 282.706 148.725 282.937 148.969 283.084L154.836 286.695ZM138.713 296.688C138.844 296.755 138.988 296.79 139.133 296.79C139.279 296.79 139.422 296.755 139.554 296.688L145.068 293.276C145.303 293.129 145.303 292.898 145.068 292.752L139.251 289.141C139.119 289.074 138.976 289.039 138.83 289.039C138.685 289.039 138.541 289.074 138.41 289.141L132.885 292.563C132.836 292.581 132.793 292.616 132.763 292.662C132.733 292.708 132.716 292.763 132.716 292.82C132.716 292.876 132.733 292.931 132.763 292.977C132.793 293.023 132.836 293.058 132.885 293.077L138.713 296.688ZM137.002 344.29C136.87 344.223 136.727 344.188 136.581 344.188C136.436 344.188 136.292 344.223 136.161 344.29L127.674 349.538C127.439 349.685 127.43 349.916 127.674 350.052L133.492 353.663C133.623 353.73 133.767 353.765 133.912 353.765C134.057 353.765 134.201 353.73 134.332 353.663L142.819 348.415C142.869 348.396 142.912 348.361 142.942 348.315C142.972 348.269 142.988 348.214 142.988 348.158C142.988 348.101 142.972 348.046 142.942 348C142.912 347.954 142.869 347.92 142.819 347.901L137.002 344.29ZM127.156 303.857C127.287 303.924 127.431 303.959 127.576 303.959C127.722 303.959 127.865 303.924 127.997 303.857L133.511 300.435C133.746 300.288 133.746 300.057 133.511 299.91L127.645 296.299C127.513 296.232 127.37 296.197 127.224 296.197C127.079 296.197 126.935 296.232 126.804 296.299L121.289 299.721C121.055 299.868 121.055 300.099 121.289 300.236L127.156 303.857ZM119.089 308.853C119.219 308.926 119.363 308.964 119.51 308.964C119.656 308.964 119.8 308.926 119.93 308.853L125.445 305.431C125.679 305.284 125.689 305.054 125.445 304.907L119.627 301.306C119.497 301.234 119.353 301.196 119.207 301.196C119.06 301.196 118.916 301.234 118.786 301.306L113.223 304.76C112.998 304.907 112.988 305.138 113.223 305.274L119.089 308.853ZM286.363 251.71C286.232 251.643 286.088 251.608 285.942 251.608C285.797 251.608 285.653 251.643 285.522 251.71L271.941 260.107C271.892 260.126 271.849 260.161 271.819 260.207C271.788 260.253 271.772 260.308 271.772 260.364C271.772 260.421 271.788 260.476 271.819 260.522C271.849 260.568 271.892 260.603 271.941 260.621L277.808 264.232C277.937 264.305 278.082 264.343 278.228 264.343C278.374 264.343 278.519 264.305 278.648 264.232L292.22 255.835C292.454 255.688 292.464 255.457 292.22 255.31L286.363 251.71ZM268.49 262.773C268.36 262.701 268.216 262.663 268.069 262.663C267.923 262.663 267.779 262.701 267.649 262.773L262.154 266.185C261.919 266.332 261.919 266.563 262.154 266.709L267.971 270.31C268.101 270.382 268.245 270.42 268.392 270.42C268.538 270.42 268.682 270.382 268.812 270.31L274.337 266.888C274.39 266.872 274.436 266.837 274.47 266.79C274.503 266.743 274.521 266.685 274.521 266.626C274.521 266.566 274.503 266.509 274.47 266.461C274.436 266.414 274.39 266.379 274.337 266.363L268.49 262.773ZM159.49 327.747L165.004 324.325C165.239 324.178 165.249 323.947 165.004 323.811L159.187 320.2C159.056 320.133 158.912 320.098 158.766 320.098C158.621 320.098 158.477 320.133 158.346 320.2L152.822 323.654C152.597 323.8 152.587 324.031 152.822 324.178L158.639 327.789C158.775 327.851 158.922 327.88 159.069 327.873C159.216 327.866 159.36 327.823 159.49 327.747ZM252.376 272.756C252.245 272.688 252.101 272.654 251.956 272.654C251.81 272.654 251.667 272.688 251.535 272.756L246.021 276.177C245.786 276.324 245.776 276.555 246.021 276.702L251.839 280.303C251.968 280.375 252.113 280.413 252.259 280.413C252.405 280.413 252.55 280.375 252.679 280.303L258.194 276.881C258.429 276.734 258.438 276.503 258.194 276.366L252.376 272.756ZM294.42 246.713C294.288 246.646 294.145 246.611 293.999 246.611C293.854 246.611 293.71 246.646 293.579 246.713L288.015 250.177C287.966 250.196 287.923 250.231 287.893 250.277C287.862 250.323 287.846 250.378 287.846 250.435C287.846 250.491 287.862 250.546 287.893 250.592C287.923 250.638 287.966 250.673 288.015 250.692L293.882 254.303C294.013 254.37 294.157 254.404 294.302 254.404C294.448 254.404 294.591 254.37 294.723 254.303L300.237 250.891C300.472 250.744 300.472 250.513 300.237 250.366L294.42 246.713ZM308.304 245.328L294.116 236.532C293.985 236.465 293.842 236.43 293.696 236.43C293.551 236.43 293.407 236.465 293.276 236.532L287.761 239.943C287.526 240.09 287.526 240.321 287.761 240.468L301.899 249.233C302.031 249.3 302.174 249.335 302.32 249.335C302.465 249.335 302.609 249.3 302.74 249.233L308.255 245.821C308.48 245.706 308.489 245.475 308.255 245.328H308.304ZM222.262 291.429C222.132 291.356 221.988 291.318 221.841 291.318C221.695 291.318 221.551 291.356 221.421 291.429L214.625 295.628C214.391 295.775 214.391 296.005 214.625 296.152L220.492 299.763C220.623 299.83 220.767 299.865 220.912 299.865C221.058 299.865 221.201 299.83 221.333 299.763L228.118 295.565C228.353 295.418 228.363 295.187 228.118 295.05L222.262 291.429ZM242.628 278.833C242.497 278.766 242.353 278.731 242.208 278.731C242.062 278.731 241.919 278.766 241.787 278.833L233.3 284.081C233.066 284.228 233.056 284.459 233.3 284.596L239.167 288.207C239.298 288.274 239.442 288.309 239.587 288.309C239.733 288.309 239.876 288.274 240.008 288.207L248.495 282.958C248.729 282.822 248.739 282.58 248.495 282.444L242.628 278.833ZM203.587 303.028C203.455 302.961 203.312 302.926 203.166 302.926C203.021 302.926 202.877 302.961 202.746 303.028L157.349 331.169C157.114 331.316 157.104 331.547 157.349 331.683L163.166 335.294C163.296 335.367 163.44 335.405 163.587 335.405C163.733 335.405 163.877 335.367 164.007 335.294L209.355 307.132C209.408 307.116 209.455 307.081 209.488 307.034C209.522 306.986 209.54 306.929 209.54 306.869C209.54 306.81 209.522 306.752 209.488 306.705C209.455 306.658 209.408 306.623 209.355 306.607L203.587 303.028ZM155.677 332.754C155.547 332.681 155.403 332.643 155.256 332.643C155.11 332.643 154.966 332.681 154.836 332.754L148.05 336.953C147.816 337.1 147.806 337.331 148.05 337.478L153.917 341.078C154.047 341.151 154.191 341.188 154.337 341.188C154.484 341.188 154.628 341.151 154.758 341.078L161.602 336.879C161.655 336.863 161.702 336.828 161.735 336.781C161.768 336.734 161.786 336.676 161.786 336.617C161.786 336.557 161.768 336.5 161.735 336.452C161.702 336.405 161.655 336.371 161.602 336.354L155.677 332.754ZM212.963 297.244C212.833 297.171 212.689 297.133 212.543 297.133C212.396 297.133 212.252 297.171 212.122 297.244L205.337 301.443C205.102 301.59 205.092 301.821 205.337 301.968L211.203 305.578C211.335 305.646 211.478 305.68 211.624 305.68C211.769 305.68 211.913 305.646 212.044 305.578L218.83 301.38C219.064 301.243 219.074 301.002 218.83 300.865L212.963 297.244ZM146.339 338.538C146.208 338.471 146.064 338.436 145.919 338.436C145.773 338.436 145.63 338.471 145.498 338.538L138.713 342.736C138.478 342.883 138.478 343.114 138.713 343.261L144.579 346.872C144.708 346.942 144.85 346.979 144.995 346.979C145.139 346.979 145.282 346.942 145.41 346.872L152.206 342.673C152.44 342.526 152.44 342.295 152.206 342.159L146.339 338.538ZM231.628 285.677C231.499 285.604 231.354 285.566 231.208 285.566C231.062 285.566 230.917 285.604 230.788 285.677L224.002 289.875C223.767 290.022 223.767 290.253 224.002 290.4L229.868 294.001C229.998 294.073 230.143 294.111 230.289 294.111C230.435 294.111 230.58 294.073 230.709 294.001L237.495 289.802C237.73 289.655 237.73 289.424 237.495 289.277L231.628 285.677ZM260.482 267.833C260.352 267.76 260.208 267.722 260.061 267.722C259.915 267.722 259.771 267.76 259.641 267.833L254.068 271.171C253.833 271.317 253.833 271.548 254.068 271.695L259.934 275.296C260.064 275.368 260.208 275.406 260.355 275.406C260.501 275.406 260.645 275.368 260.775 275.296L266.29 271.874C266.524 271.727 266.524 271.496 266.29 271.359L260.482 267.833ZM278.345 254.187L283.87 250.776C284.104 250.629 284.104 250.398 283.87 250.251L278.003 246.64C277.872 246.573 277.728 246.538 277.583 246.538C277.437 246.538 277.294 246.573 277.162 246.64L271.648 250.051C271.413 250.198 271.413 250.44 271.648 250.576L277.514 254.187C277.641 254.234 277.776 254.251 277.909 254.237C278.043 254.222 278.171 254.177 278.287 254.103L278.345 254.187ZM243.899 254.922L249.414 251.51C249.648 251.363 249.648 251.133 249.414 250.986L243.547 247.375C243.416 247.308 243.272 247.273 243.127 247.273C242.981 247.273 242.838 247.308 242.706 247.375L237.192 250.797C236.957 250.944 236.957 251.175 237.192 251.311L243.058 254.922C243.186 254.972 243.323 254.99 243.458 254.975C243.594 254.961 243.724 254.914 243.841 254.838L243.899 254.922ZM224.022 287.776L240.145 277.773C240.194 277.754 240.237 277.719 240.267 277.673C240.297 277.627 240.314 277.572 240.314 277.516C240.314 277.459 240.297 277.404 240.267 277.358C240.237 277.312 240.194 277.277 240.145 277.259L234.278 273.648C234.148 273.575 234.004 273.537 233.858 273.537C233.711 273.537 233.567 273.575 233.437 273.648L217.314 283.64C217.265 283.659 217.222 283.694 217.192 283.74C217.161 283.786 217.145 283.841 217.145 283.898C217.145 283.954 217.161 284.009 217.192 284.055C217.222 284.101 217.265 284.136 217.314 284.155L223.181 287.766C223.311 287.834 223.455 287.871 223.6 287.873C223.745 287.875 223.889 287.842 224.022 287.776ZM269.428 259.11C269.56 259.177 269.703 259.212 269.849 259.212C269.994 259.212 270.138 259.177 270.269 259.11L275.784 255.699C276.018 255.552 276.018 255.321 275.784 255.174L269.917 251.563C269.786 251.496 269.642 251.461 269.497 251.461C269.351 251.461 269.208 251.496 269.076 251.563L263.552 254.985C263.503 255.004 263.46 255.039 263.429 255.085C263.399 255.131 263.383 255.186 263.383 255.242C263.383 255.298 263.399 255.353 263.429 255.399C263.46 255.445 263.503 255.48 263.552 255.499L269.428 259.11ZM261.948 253.946L267.473 250.534C267.698 250.387 267.707 250.156 267.473 250.009L261.655 246.399C261.524 246.331 261.38 246.297 261.235 246.297C261.089 246.297 260.946 246.331 260.814 246.399L255.31 249.82C255.075 249.967 255.065 250.198 255.31 250.345L261.127 253.956C261.251 254.012 261.385 254.04 261.519 254.039C261.654 254.037 261.787 254.005 261.909 253.946H261.948ZM215.994 292.783L221.509 289.361C221.743 289.214 221.743 288.983 221.509 288.836L215.642 285.225C215.511 285.158 215.367 285.123 215.222 285.123C215.076 285.123 214.933 285.158 214.801 285.225L209.277 288.647C209.042 288.794 209.042 289.025 209.277 289.162L215.095 292.773C215.223 292.836 215.363 292.87 215.505 292.87C215.647 292.87 215.787 292.836 215.916 292.773L215.994 292.783ZM251.565 270.121C251.695 270.194 251.839 270.231 251.985 270.231C252.132 270.231 252.276 270.194 252.406 270.121L257.92 266.699C258.155 266.552 258.165 266.321 257.92 266.174L252.103 262.574C251.973 262.501 251.829 262.463 251.682 262.463C251.536 262.463 251.391 262.501 251.262 262.574L245.747 265.996C245.512 266.143 245.503 266.374 245.747 266.521L251.565 270.121ZM175.603 317.723L181.118 314.301C181.352 314.154 181.362 313.923 181.118 313.787L175.3 310.176C175.17 310.103 175.026 310.065 174.88 310.065C174.733 310.065 174.589 310.103 174.459 310.176L168.945 313.598C168.71 313.745 168.7 313.976 168.945 314.123L174.811 317.723C174.933 317.792 175.067 317.831 175.204 317.836C175.341 317.842 175.478 317.814 175.603 317.754V317.723ZM183.67 312.727L189.184 309.305C189.419 309.158 189.419 308.927 189.184 308.79L183.318 305.179C183.188 305.107 183.044 305.069 182.897 305.069C182.751 305.069 182.607 305.107 182.477 305.179L176.962 308.601C176.728 308.748 176.728 308.979 176.962 309.126L182.829 312.727C182.956 312.804 183.099 312.847 183.246 312.853C183.392 312.858 183.538 312.826 183.67 312.758V312.727ZM167.547 322.719L173.061 319.297C173.296 319.15 173.296 318.92 173.061 318.783L167.195 315.172C167.063 315.105 166.92 315.07 166.774 315.07C166.629 315.07 166.485 315.105 166.354 315.172L160.839 318.594C160.605 318.741 160.605 318.972 160.839 319.119L166.706 322.73C166.836 322.8 166.979 322.839 167.124 322.842C167.269 322.846 167.414 322.815 167.547 322.751V322.719ZM199.812 302.776L205.327 299.354C205.562 299.207 205.562 298.976 205.327 298.829L199.46 295.229C199.332 295.156 199.19 295.118 199.045 295.118C198.9 295.118 198.757 295.156 198.629 295.229L193.105 298.651C192.87 298.798 192.87 299.029 193.105 299.165L198.972 302.776C199.1 302.843 199.241 302.878 199.383 302.876C199.526 302.874 199.666 302.836 199.793 302.765L199.812 302.776ZM191.756 307.762L197.27 304.34C197.505 304.193 197.515 303.962 197.27 303.815L191.404 300.215C191.274 300.142 191.13 300.104 190.983 300.104C190.837 300.104 190.693 300.142 190.563 300.215L185.048 303.636C184.814 303.783 184.804 304.014 185.048 304.161L190.915 307.762C191.045 307.834 191.189 307.872 191.335 307.872C191.482 307.872 191.626 307.834 191.756 307.762ZM207.879 297.769L213.403 294.347C213.456 294.331 213.503 294.296 213.536 294.249C213.57 294.202 213.588 294.144 213.588 294.085C213.588 294.025 213.57 293.968 213.536 293.92C213.503 293.873 213.456 293.838 213.403 293.822L207.537 290.222C207.407 290.149 207.263 290.111 207.116 290.111C206.97 290.111 206.826 290.149 206.696 290.222L201.181 293.644C200.947 293.791 200.947 294.022 201.181 294.158L206.999 297.769C207.13 297.843 207.276 297.882 207.424 297.882C207.572 297.882 207.718 297.843 207.85 297.769H207.879ZM248.328 226.035C248.458 226.108 248.602 226.146 248.749 226.146C248.895 226.146 249.039 226.108 249.169 226.035L254.694 222.613C254.928 222.466 254.928 222.235 254.694 222.099L253.149 221.133C253.017 221.066 252.874 221.031 252.728 221.031C252.583 221.031 252.439 221.066 252.308 221.133L246.793 224.555C246.559 224.702 246.559 224.933 246.793 225.08L248.328 226.035ZM208.466 253.431C208.594 253.501 208.737 253.538 208.881 253.538C209.025 253.538 209.168 253.501 209.297 253.431L214.821 250.009C215.056 249.862 215.056 249.632 214.821 249.485L208.954 245.874C208.823 245.807 208.679 245.772 208.534 245.772C208.388 245.772 208.245 245.807 208.114 245.874L202.599 249.296C202.55 249.315 202.507 249.349 202.476 249.395C202.446 249.441 202.43 249.496 202.43 249.553C202.43 249.609 202.446 249.664 202.476 249.71C202.507 249.756 202.55 249.791 202.599 249.81L208.466 253.431ZM224.589 243.439C224.72 243.506 224.864 243.541 225.009 243.541C225.155 243.541 225.298 243.506 225.429 243.439L230.944 240.027C231.179 239.88 231.179 239.649 230.944 239.502L225.077 235.892C224.946 235.824 224.803 235.789 224.657 235.789C224.512 235.789 224.368 235.824 224.237 235.892L218.722 239.313C218.673 239.332 218.63 239.367 218.6 239.413C218.569 239.459 218.553 239.514 218.553 239.571C218.553 239.627 218.569 239.682 218.6 239.728C218.63 239.774 218.673 239.809 218.722 239.828L224.589 243.439ZM198.6 259.53C198.73 259.602 198.874 259.64 199.02 259.64C199.167 259.64 199.311 259.602 199.441 259.53L204.955 256.108C205.19 255.961 205.19 255.73 204.955 255.583L199.089 251.983C198.959 251.91 198.815 251.872 198.668 251.872C198.522 251.872 198.378 251.91 198.248 251.983L192.802 255.426C192.567 255.573 192.567 255.804 192.802 255.95L198.6 259.53ZM216.503 248.435C216.632 248.508 216.777 248.546 216.923 248.546C217.069 248.546 217.214 248.508 217.343 248.435L222.858 245.024C223.093 244.877 223.102 244.646 222.858 244.499L216.992 240.888C216.86 240.821 216.717 240.786 216.571 240.786C216.426 240.786 216.282 240.821 216.151 240.888L210.636 244.31C210.401 244.446 210.392 244.688 210.636 244.824L216.503 248.435ZM182.477 269.523C182.605 269.595 182.748 269.633 182.892 269.633C183.037 269.633 183.18 269.595 183.308 269.523L188.832 266.101C189.067 265.954 189.067 265.723 188.832 265.586L182.966 261.976C182.836 261.903 182.692 261.865 182.545 261.865C182.399 261.865 182.255 261.903 182.125 261.976L176.61 265.397C176.376 265.544 176.376 265.775 176.61 265.922L182.477 269.523ZM190.534 264.526C190.663 264.599 190.808 264.637 190.954 264.637C191.1 264.637 191.245 264.599 191.374 264.526L196.889 261.104C197.124 260.957 197.133 260.726 196.889 260.59L191.071 256.979C190.942 256.906 190.797 256.869 190.651 256.869C190.504 256.869 190.36 256.906 190.23 256.979L184.716 260.401C184.481 260.548 184.472 260.779 184.716 260.926L190.534 264.526ZM232.186 236.059C232.316 236.132 232.46 236.17 232.606 236.17C232.753 236.17 232.897 236.132 233.027 236.059L238.551 232.638C238.776 232.491 238.786 232.26 238.551 232.123L237.006 231.158C236.875 231.09 236.731 231.056 236.586 231.056C236.44 231.056 236.297 231.09 236.165 231.158L230.651 234.569C230.416 234.716 230.406 234.947 230.651 235.094L232.186 236.059ZM256.375 221.07C256.505 221.143 256.649 221.181 256.796 221.181C256.942 221.181 257.086 221.143 257.216 221.07L262.731 217.648C262.965 217.501 262.975 217.271 262.731 217.124L261.176 216.168C261.045 216.101 260.901 216.066 260.756 216.066C260.61 216.066 260.467 216.101 260.335 216.168L254.811 219.59C254.758 219.607 254.711 219.641 254.678 219.688C254.645 219.736 254.627 219.793 254.627 219.853C254.627 219.912 254.645 219.97 254.678 220.017C254.711 220.064 254.758 220.099 254.811 220.115L256.375 221.07ZM268.607 228.649C268.737 228.721 268.881 228.759 269.027 228.759C269.174 228.759 269.318 228.721 269.448 228.649L274.962 225.227C275.197 225.08 275.197 224.849 274.962 224.713L269.096 221.102C268.968 221.029 268.825 220.991 268.68 220.991C268.535 220.991 268.393 221.029 268.265 221.102L262.74 224.524C262.506 224.671 262.506 224.902 262.74 225.049L268.607 228.649ZM286.353 249.128L291.868 245.716C292.102 245.569 292.112 245.338 291.868 245.191L286.05 241.581C285.919 241.513 285.775 241.479 285.63 241.479C285.484 241.479 285.34 241.513 285.209 241.581L279.753 244.982C279.519 245.128 279.509 245.359 279.753 245.506L285.571 249.117C285.694 249.177 285.826 249.208 285.961 249.21C286.096 249.212 286.229 249.184 286.353 249.128ZM240.272 231.084C240.402 231.157 240.546 231.195 240.692 231.195C240.839 231.195 240.983 231.157 241.113 231.084L246.627 227.662C246.862 227.515 246.862 227.284 246.627 227.148L245.072 226.182C244.943 226.109 244.798 226.072 244.652 226.072C244.506 226.072 244.361 226.109 244.232 226.182L238.688 229.583C238.453 229.73 238.453 229.961 238.688 230.108L240.272 231.084ZM174.43 274.54C174.56 274.613 174.704 274.651 174.85 274.651C174.997 274.651 175.141 274.613 175.271 274.54L180.785 271.118C181.02 270.971 181.02 270.74 180.785 270.604L174.978 266.972C174.846 266.905 174.703 266.87 174.557 266.87C174.412 266.87 174.268 266.905 174.137 266.972L168.612 270.394C168.388 270.541 168.378 270.772 168.612 270.919L174.43 274.54Z" fill="#455A64"/>
<path d="M203.958 325.407L253.647 294.61C254.487 294.154 255.415 293.917 256.356 293.917C257.296 293.917 258.224 294.154 259.064 294.61L287.575 312.265C289.071 313.2 289.071 314.701 287.575 315.635L237.896 346.421C237.056 346.882 236.126 347.122 235.182 347.122C234.239 347.122 233.309 346.882 232.469 346.421L203.977 328.766C202.511 327.853 202.511 326.331 203.958 325.407Z" fill="#263238"/>
<path d="M195.55 91.9319C180.023 106.911 166.608 106.123 158.219 99.185C149.84 116.525 136.425 133.929 120.898 138.201L112.03 163.918C112.03 163.918 116.782 169.796 116.782 183.861C116.735 189.756 115.996 195.621 114.582 201.317C112.969 208.255 110.886 215.435 110.886 227.432C110.886 235.557 111.864 243.461 115.716 250.651C118.041 255.002 121.389 258.621 125.425 261.147L111.942 252.75C107.69 250.225 104.158 246.506 101.725 241.991C97.8918 234.791 96.9141 226.897 96.9141 218.762C96.9141 206.775 98.9967 199.585 100.61 192.636C102.016 186.943 102.745 181.081 102.781 175.191C102.781 161.125 98.0287 155.247 98.0287 155.247L106.887 129.531C122.414 125.259 135.829 107.855 144.208 90.5149C152.597 97.4531 166.012 98.2404 181.538 83.2617L195.55 91.9319Z" fill="#334155"/>
<path opacity="0.8" d="M149.147 93.5682L144.258 90.5137C145.755 91.7584 147.399 92.7855 149.147 93.5682Z" fill="white"/>
<path opacity="0.85" d="M181.553 83.2861C168.774 95.6091 157.432 97.2571 149.141 93.5938L158.214 99.2095C166.603 106.148 180.018 106.935 195.545 91.9563L181.553 83.2861Z" fill="white"/>
<path opacity="0.65" d="M144.227 90.5137C135.848 107.854 122.433 125.257 106.906 129.53L120.898 138.2C136.425 133.928 149.839 116.524 158.219 99.1839L144.227 90.5137Z" fill="white"/>
<path opacity="0.55" d="M106.905 129.533L98.0469 155.25L112.029 163.92L120.897 138.203L106.905 129.533Z" fill="white"/>
<path opacity="0.4" d="M115.712 250.651C111.88 243.46 110.882 235.556 110.882 227.432C110.882 215.435 112.965 208.255 114.578 201.317C115.992 195.62 116.731 189.756 116.778 183.861C116.778 169.795 112.026 163.917 112.026 163.917L98.0444 155.247C98.0444 155.247 102.796 161.125 102.796 175.191C102.748 181.083 102.006 186.944 100.587 192.636C98.9732 199.585 96.8906 206.775 96.8906 218.762C96.8906 226.897 97.8684 234.79 101.721 241.98C104.154 246.495 107.686 250.215 111.938 252.739L125.421 261.137C121.386 258.613 118.039 254.998 115.712 250.651Z" fill="white"/>
<path opacity="0.05" d="M115.712 250.651C111.88 243.46 110.882 235.556 110.882 227.432C110.882 215.435 112.965 208.255 114.578 201.317C115.992 195.62 116.731 189.756 116.778 183.861C116.778 169.795 112.026 163.917 112.026 163.917L98.0444 155.247C98.0444 155.247 102.796 161.125 102.796 175.191C102.748 181.083 102.006 186.944 100.587 192.636C98.9732 199.585 96.8906 206.775 96.8906 218.762C96.8906 226.897 97.8684 234.79 101.721 241.98C104.154 246.495 107.686 250.215 111.938 252.739L125.421 261.137C121.386 258.613 118.039 254.998 115.712 250.651Z" fill="black"/>
<path d="M158.224 268.265C135.031 268.548 121.744 261.967 115.711 250.652C111.888 243.461 110.891 235.557 110.891 227.423C110.891 215.436 112.963 208.266 114.587 201.318C116 195.625 116.74 189.764 116.786 183.872C116.786 169.807 112.035 163.929 112.035 163.929L120.903 138.202C136.429 133.929 149.844 116.516 158.224 99.1858C166.613 106.124 180.027 106.911 195.554 91.9326L204.422 106.628C201.375 114.853 199.761 123.609 199.661 132.46C199.579 137.46 200.327 142.437 201.87 147.155C203.484 152.089 205.566 156.697 205.566 168.684C205.541 178.648 203.907 188.531 200.736 197.896C194.694 216.748 181.426 239.788 158.224 268.265Z" fill="#334155"/>
<path opacity="0.75" d="M158.224 268.265C135.031 268.548 121.744 261.967 115.711 250.652C111.888 243.461 110.891 235.557 110.891 227.423C110.891 215.436 112.963 208.266 114.587 201.318C116 195.625 116.74 189.764 116.786 183.872C116.786 169.807 112.035 163.929 112.035 163.929L120.903 138.202C136.429 133.929 149.844 116.516 158.224 99.1858C166.613 106.124 180.027 106.911 195.554 91.9326L204.422 106.628C201.375 114.853 199.761 123.609 199.661 132.46C199.579 137.46 200.327 142.437 201.87 147.155C203.484 152.089 205.566 156.697 205.566 168.684C205.541 178.648 203.907 188.531 200.736 197.896C194.694 216.748 181.426 239.788 158.224 268.265Z" fill="white"/>
<path d="M155.469 261.798C137.507 261.567 125.892 256.739 120.944 247.449C118.148 242.201 116.906 236.029 116.906 227.422C116.906 219.917 117.893 212.45 119.84 205.242C120.025 204.445 120.221 203.668 120.397 202.881C121.942 196.679 122.744 190.291 122.783 183.871C122.783 173.616 120.495 166.909 118.676 163.193L125.52 143.46C142.142 137.256 154.159 119.632 160.524 108.075C163.952 109.64 167.641 110.44 171.367 110.427C178.876 110.427 186.512 107.425 194.139 101.494L197.708 107.435C195.109 115.502 193.735 123.966 193.64 132.501C193.553 138.241 194.414 143.952 196.182 149.369C196.368 149.936 196.564 150.503 196.759 151.07C198.187 155.268 199.536 159.225 199.536 168.746C199.503 177.991 197.981 187.16 195.038 195.848C189.103 214.343 175.796 236.533 155.469 261.798Z" fill="#334155"/>
<path opacity="0.4" d="M155.469 261.798C137.507 261.567 125.892 256.739 120.944 247.449C118.148 242.201 116.906 236.029 116.906 227.422C116.906 219.917 117.893 212.45 119.84 205.242C120.025 204.445 120.221 203.668 120.397 202.881C121.942 196.679 122.744 190.291 122.783 183.871C122.783 173.616 120.495 166.909 118.676 163.193L125.52 143.46C142.142 137.256 154.159 119.632 160.524 108.075C163.952 109.64 167.641 110.44 171.367 110.427C178.876 110.427 186.512 107.425 194.139 101.494L197.708 107.435C195.109 115.502 193.735 123.966 193.64 132.501C193.553 138.241 194.414 143.952 196.182 149.369C196.368 149.936 196.564 150.503 196.759 151.07C198.187 155.268 199.536 159.225 199.536 168.746C199.503 177.991 197.981 187.16 195.038 195.848C189.103 214.343 175.796 236.533 155.469 261.798Z" fill="white"/>
<path opacity="0.15" d="M155.469 261.798C137.507 261.567 125.892 256.739 120.944 247.449C118.148 242.201 116.906 236.029 116.906 227.422C116.906 219.917 117.893 212.45 119.84 205.242C120.025 204.445 120.221 203.668 120.397 202.881C121.942 196.679 122.744 190.291 122.783 183.871C122.783 173.616 120.495 166.909 118.676 163.193L125.52 143.46C142.142 137.256 154.159 119.632 160.524 108.075C163.952 109.64 167.641 110.44 171.367 110.427C178.876 110.427 186.512 107.425 194.139 101.494L197.708 107.435C195.109 115.502 193.735 123.966 193.64 132.501C193.553 138.241 194.414 143.952 196.182 149.369C196.368 149.936 196.564 150.503 196.759 151.07C198.187 155.268 199.536 159.225 199.536 168.746C199.503 177.991 197.981 187.16 195.038 195.848C189.103 214.343 175.796 236.533 155.469 261.798Z" fill="black"/>
<path opacity="0.8" d="M125.062 252.793C131.183 258.587 141.352 261.621 155.471 261.799L146.465 256.288C139.201 256.394 131.969 255.213 125.062 252.793Z" fill="white"/>
<path opacity="0.15" d="M193.013 104.528L197.706 107.435L194.137 101.494L192.094 103.006L193.013 104.528Z" fill="black"/>
<path d="M191.481 146.463C189.713 141.045 188.852 135.334 188.939 129.595C189.034 121.059 190.408 112.596 193.007 104.529L192.087 103.007C185.145 107.93 178.203 110.428 171.359 110.428C167.634 110.442 163.944 109.642 160.516 108.077C154.151 119.623 142.134 137.257 125.512 143.461L118.668 163.194C120.487 166.91 122.775 173.617 122.775 183.873C122.736 190.292 121.935 196.68 120.389 202.882C120.213 203.669 120.017 204.446 119.832 205.244C117.885 212.451 116.898 219.918 116.898 227.423C116.898 236.03 118.14 242.202 120.937 247.45C122.409 250.154 124.411 252.482 126.803 254.273C132.806 257.212 140.804 258.752 150.797 258.892C171.115 233.616 184.422 211.437 190.357 192.942C193.301 184.254 194.823 175.084 194.854 165.839C194.854 156.319 193.495 152.362 192.068 148.163C191.863 147.596 191.667 147.03 191.481 146.463Z" fill="#455A64"/>
<path d="M125.512 143.46L118.668 163.194C120.487 166.91 122.775 173.617 122.775 183.872C122.736 190.292 121.935 196.68 120.389 202.881C120.213 203.669 120.017 204.445 119.832 205.243C117.885 212.451 116.898 219.918 116.898 227.422C116.898 236.03 118.14 242.202 120.937 247.45C122.409 250.153 124.411 252.481 126.803 254.273C132.806 257.212 140.804 258.751 150.797 258.891V186.15L160.575 183.001V108.076C157.688 113.328 154.419 118.326 150.797 123.023C144.275 131.452 135.769 139.629 125.512 143.46Z" fill="#37474F"/>
<path d="M174.272 159.301C174.167 159.095 174.043 158.902 173.9 158.724L173.852 158.661C173.566 158.327 173.237 158.041 172.874 157.81L169.618 155.795C169.03 155.441 168.398 155.18 167.741 155.018C167.347 154.926 166.949 154.859 166.548 154.819V144.469C166.548 139.273 164.719 135.169 161.532 133.196C158.344 131.223 154.688 131.558 150.943 133.91C143.981 138.224 138.535 148.752 138.535 157.873V170.091L132.043 174.112C131.85 174.231 131.667 174.368 131.495 174.521L131.319 174.668C131.054 174.896 130.837 175.183 130.683 175.509C130.53 175.835 130.443 176.192 130.43 176.557V218.47C130.433 218.651 130.456 218.83 130.498 219.006C130.703 219.711 131.136 220.315 131.72 220.706L132.082 220.958L133.676 221.945L135.348 222.994C136.001 223.382 136.707 223.655 137.44 223.802C139.441 224.277 141.533 223.988 143.356 222.984L172.913 204.667C173.37 204.45 173.765 204.106 174.057 203.67C174.349 203.235 174.528 202.724 174.575 202.19V160.298C174.552 159.944 174.448 159.602 174.272 159.301ZM144.891 157.873C144.891 151.198 149.115 142.947 154.111 139.851C155.812 138.801 157.337 138.528 158.305 139.137C159.449 139.84 160.124 141.835 160.124 144.469V156.687L151.725 161.936L144.881 166.134L144.891 157.873Z" fill="#263238"/>
<path d="M177.95 162.146C177.904 161.612 177.725 161.1 177.433 160.665C177.141 160.229 176.745 159.885 176.288 159.669L173.032 157.643C171.792 156.963 170.42 156.608 169.028 156.608C167.636 156.608 166.264 156.963 165.024 157.643L135.467 175.959C135.009 176.179 134.614 176.525 134.322 176.962C134.03 177.399 133.851 177.912 133.805 178.447V220.36C133.848 220.897 134.026 221.411 134.318 221.848C134.611 222.286 135.007 222.631 135.467 222.848L138.723 224.874C139.964 225.546 141.336 225.897 142.727 225.897C144.117 225.897 145.489 225.546 146.731 224.874L176.288 206.547C176.745 206.329 177.14 205.985 177.432 205.55C177.724 205.114 177.903 204.603 177.95 204.069V162.146Z" fill="#334155"/>
<path opacity="0.4" d="M138.725 183.003L135.469 180.904C133.25 179.539 133.25 177.314 135.469 175.939L165.027 157.622C166.266 156.942 167.639 156.588 169.031 156.588C170.423 156.588 171.795 156.942 173.035 157.622L176.29 159.648C178.5 161.013 178.5 163.238 176.29 164.603L146.782 183.003C145.534 183.684 144.154 184.04 142.754 184.04C141.353 184.04 139.973 183.684 138.725 183.003Z" fill="white"/>
<path opacity="0.1" d="M142.732 183.977V225.89C141.334 225.912 139.954 225.551 138.723 224.84L135.457 222.888C134.997 222.67 134.601 222.323 134.31 221.883C134.019 221.443 133.845 220.927 133.805 220.39V178.445C133.849 178.979 134.026 179.49 134.316 179.926C134.607 180.361 135.001 180.705 135.457 180.923L138.723 182.948C139.954 183.656 141.335 184.011 142.732 183.977Z" fill="black"/>
<path d="M164.249 204.707L157.19 209.084L158.285 195.376C157.444 194.893 156.906 193.717 156.906 192.027C156.906 189.004 158.608 185.498 160.719 184.197C162.831 182.895 164.533 184.27 164.533 187.346C164.489 189.132 164.014 190.875 163.154 192.405L164.249 204.707Z" fill="#455A64"/>
<path d="M164.239 204.711L157.845 200.754L157.18 209.088L164.239 204.711Z" fill="#37474F"/>
<path d="M160.717 184.198C159.18 185.311 158.034 186.944 157.461 188.838L163.151 192.364C164.012 190.835 164.487 189.091 164.53 187.305C164.53 184.272 162.829 182.886 160.717 184.198Z" fill="#37474F"/>
<path d="M169.966 163.056V146.262C169.966 141.013 168.137 136.962 164.95 134.988C161.762 133.015 158.106 133.361 154.361 135.702C147.399 140.016 141.953 150.544 141.953 159.666V176.513C141.982 176.821 142.088 177.114 142.26 177.362C142.432 177.61 142.664 177.803 142.931 177.919C143.63 178.297 144.402 178.494 145.185 178.494C145.967 178.494 146.739 178.297 147.438 177.919C147.705 177.803 147.937 177.61 148.109 177.362C148.282 177.114 148.388 176.821 148.416 176.513V159.718C148.416 153.043 152.64 144.792 157.636 141.696C159.338 140.646 160.873 140.384 161.841 140.982C162.975 141.685 163.659 143.68 163.659 146.314V163.109C163.69 163.413 163.797 163.703 163.969 163.947C164.142 164.191 164.372 164.38 164.637 164.494C165.336 164.872 166.108 165.068 166.891 165.068C167.673 165.068 168.445 164.872 169.144 164.494C169.407 164.376 169.635 164.186 169.807 163.943C169.979 163.699 170.087 163.412 170.122 163.109L169.966 163.056Z" fill="#E0E0E0"/>
<path d="M207.953 236.756L212.255 234.09L213.957 231.864L209.654 234.53L207.953 236.756Z" fill="#334155"/>
<path opacity="0.4" d="M207.953 236.756L212.255 234.09L213.957 231.864L209.654 234.53L207.953 236.756Z" fill="black"/>
<path d="M219.664 244.006L223.966 241.34L227.564 237.918L223.262 240.584L219.664 244.006Z" fill="#334155"/>
<path opacity="0.4" d="M219.664 244.006L223.966 241.34L227.564 237.918L223.262 240.584L219.664 244.006Z" fill="black"/>
<path d="M256.284 253.227C257.302 254.692 257.919 256.434 258.064 258.255C257.054 256.785 256.438 255.046 256.284 253.227ZM266.287 253.364C264.84 242.783 259.55 232.371 253.234 228.403C250.203 226.524 247.367 226.461 245.157 227.868L241.11 230.376L240.875 230.523C240.694 230.628 240.521 230.748 240.357 230.88C240.01 231.124 239.683 231.398 239.379 231.699L239.242 231.835C239.115 231.972 238.988 232.129 238.87 232.276C238.753 232.423 238.567 232.654 238.44 232.843C238.148 233.256 237.884 233.691 237.648 234.145C237.531 234.375 237.404 234.617 237.296 234.869L201.911 212.941L197.609 215.597V218.547L197.981 218.767L198.323 218.987V219.607L197.609 220.048V221.759L202.811 233.567L207.954 236.716L209.655 234.491L214.192 237.409L216.793 242.195L219.667 243.969L223.256 240.547L227.665 243.287L229.152 249.847L236.543 254.434C236.919 256.107 237.386 257.754 237.942 259.368L238.108 259.882C240.572 266.81 244.483 272.751 248.863 275.491C249.396 275.819 249.952 276.103 250.525 276.341C250.829 276.47 251.139 276.582 251.454 276.677C251.725 276.758 251.999 276.825 252.275 276.876C253.141 277.049 254.03 277.049 254.896 276.876L255.258 276.782C255.429 276.75 255.596 276.697 255.756 276.624L256.138 276.467C256.276 276.411 256.41 276.345 256.538 276.267L256.9 276.068L257.086 275.952L257.174 275.9L261.232 273.391C264.497 271.355 266.619 266.212 266.619 258.937C266.623 257.061 266.495 255.188 266.238 253.332L266.287 253.364Z" fill="#334155"/>
<path d="M254.972 262.146C253.281 261.096 251.902 257.948 251.902 255.166C251.902 252.384 253.281 250.967 254.972 252.017C256.664 253.067 258.052 256.216 258.052 259.008C258.052 261.8 256.673 263.196 254.972 262.146ZM261.943 256.027C260.496 245.446 255.197 234.981 248.881 231.066C245.947 229.26 243.259 229.124 241.059 230.373L240.824 230.52C240.643 230.625 240.47 230.744 240.306 230.877C239.959 231.12 239.632 231.394 239.328 231.696L239.191 231.832C239.064 231.968 238.937 232.126 238.82 232.273C238.702 232.42 238.517 232.651 238.389 232.84C238.097 233.253 237.833 233.688 237.597 234.141C237.48 234.372 237.353 234.614 237.245 234.866C236.611 236.293 236.151 237.803 235.877 239.358L197.617 215.594V218.543L197.989 218.764L198.331 218.984V219.603L197.617 220.044V221.755L202.819 233.564L207.962 236.713L209.663 234.488L214.2 237.406L216.801 242.192L219.675 243.966L223.264 240.544L227.673 243.284L229.159 249.844L236.551 254.431C236.927 256.104 237.394 257.751 237.949 259.365L238.116 259.879C240.58 266.807 244.491 272.748 248.871 275.487C249.404 275.816 249.96 276.1 250.533 276.338C250.837 276.467 251.147 276.579 251.462 276.673C251.732 276.755 252.006 276.821 252.283 276.873C253.149 277.046 254.038 277.046 254.904 276.873L255.265 276.778C255.437 276.747 255.604 276.694 255.764 276.621L256.145 276.464C256.283 276.408 256.417 276.341 256.546 276.264L256.908 276.065L257.094 275.949L257.182 275.897C260.311 273.797 262.325 268.707 262.325 261.6C262.322 259.735 262.194 257.872 261.943 256.027Z" fill="#334155"/>
<path opacity="0.4" d="M258.056 258.968C258.056 261.781 256.678 263.167 254.986 262.117C253.295 261.068 251.906 257.919 251.906 255.137C251.906 252.355 253.285 250.938 254.986 251.988C255.491 252.305 255.933 252.726 256.287 253.227C256.436 255.047 257.052 256.787 258.066 258.255C258.077 258.492 258.074 258.731 258.056 258.968Z" fill="black"/>
<path opacity="0.4" d="M266.64 258.97C266.64 266.244 264.519 271.387 261.253 273.423L257.195 275.932C260.324 273.833 262.338 268.742 262.338 261.636C262.333 259.76 262.203 257.886 261.947 256.031C260.5 245.45 255.201 234.985 248.885 231.07C245.951 229.264 243.262 229.128 241.062 230.377L245.11 227.868C247.359 226.462 250.156 226.525 253.187 228.404C259.503 232.34 264.793 242.836 266.24 253.333C266.505 255.198 266.639 257.083 266.64 258.97Z" fill="white"/>
<path d="M262.338 261.632C262.338 268.738 260.324 273.808 257.195 275.928L261.253 273.419C264.519 271.383 266.64 266.24 266.64 258.965C266.64 258.693 266.64 258.42 266.64 258.157L262.348 260.823C262.329 261.086 262.338 261.359 262.338 261.632Z" fill="#334155"/>
<path opacity="0.1" d="M262.338 261.632C262.338 268.738 260.324 273.808 257.195 275.928L261.253 273.419C264.519 271.383 266.64 266.24 266.64 258.965C266.64 258.693 266.64 258.42 266.64 258.157L262.348 260.823C262.329 261.086 262.338 261.359 262.338 261.632Z" fill="black"/>
<path opacity="0.15" d="M236.084 242.382V243.883L197.609 220.045L198.323 219.604V218.975L236.084 242.382Z" fill="black"/>
<path opacity="0.15" d="M236.084 243.014V243.885L197.609 220.047L198.323 219.606V219.596L236.084 243.014Z" fill="black"/>
<path opacity="0.15" d="M252.825 273.461C251.369 273.418 249.948 272.962 248.709 272.138C242.432 268.244 237.328 256.677 237.328 246.348C237.328 240.323 239.029 235.852 241.992 233.983C244.065 232.703 246.509 232.86 249.071 234.445C255.338 238.339 260.442 249.906 260.442 260.235C260.442 266.26 258.741 270.732 255.778 272.6C254.884 273.167 253.864 273.464 252.825 273.461ZM245.003 233.899C244.091 233.897 243.193 234.154 242.403 234.644C239.704 236.313 238.101 240.69 238.101 246.348C238.101 256.435 242.989 267.698 249.12 271.466C251.447 272.915 253.637 273.072 255.475 271.939C258.174 270.27 259.777 265.893 259.777 260.235C259.777 250.148 254.889 238.875 248.758 235.117C247.614 234.355 246.301 233.935 244.955 233.899H245.003Z" fill="black"/>
<path opacity="0.5" d="M237.294 234.869C236.659 236.297 236.199 237.807 235.925 239.361L197.617 215.597L201.919 212.941L237.294 234.869Z" fill="white"/>
<path d="M383.391 350.943C383.537 352.381 383.723 356.412 390.528 357.419C397.333 358.427 401.616 356.002 403.435 352.486C405.253 348.97 404.833 346.104 405.116 342.85C405.4 339.596 407.913 337.864 408.636 336.185C409.692 333.718 408.147 329.887 408.147 329.887L383.391 350.943Z" fill="#263238"/>
<path d="M333.695 339.544C333.535 340.132 333.492 340.75 333.567 341.357C333.643 341.964 333.836 342.548 334.135 343.071C335.658 344.364 337.412 345.311 339.288 345.852C341.164 346.394 343.124 346.519 345.046 346.22C349.198 345.612 353.155 343.946 356.584 341.36C359.214 339.469 362.327 338.504 365.491 338.599C368.767 338.484 371.162 337.707 371.416 336.783C371.846 335.156 371.846 334.138 371.133 334.18L333.695 339.544Z" fill="#263238"/>
<path d="M406.535 324.263C405.684 330.928 393.648 330.393 394.626 325.071L392.484 308.896L406.104 309.347L406.535 324.263Z" fill="#FFA8A7"/>
<path d="M383.846 347.67C384.453 346.462 386.203 344.741 386.975 343.66C391.055 338.083 393.517 331.341 394.054 324.273C394.054 323.884 394.123 323.128 394.494 322.887C394.866 322.646 395.227 322.982 395.618 323.17C396.292 323.477 397.003 323.675 397.73 323.758C400.136 324.052 402.805 323.433 403.401 323.517C403.998 323.601 404.017 325.144 403.978 326.823C404.839 326.246 405.122 325.091 405.885 324.42C406.305 324.052 406.491 324.042 406.481 323.443C406.481 323.055 406.481 322.698 406.481 322.31C407.107 322.121 407.625 324.661 408.134 326.603C408.72 328.86 409.454 331.4 408.632 333.688C408.099 334.935 407.444 336.117 406.677 337.215C405.377 339.123 404.531 341.342 404.213 343.681C404.115 344.73 404.213 345.78 404.056 346.767C403.831 348.483 403.153 350.095 402.101 351.41C401.049 352.725 399.668 353.689 398.122 354.188C393.966 355.573 387.738 355.353 384.081 352.246C382.81 351.165 383.24 348.845 383.846 347.67Z" fill="#37474F"/>
<path d="M368.365 323.15C365.06 325.9 361.09 327.517 357.032 325.533L356.055 298.315L369.743 300.95L368.365 323.15Z" fill="#FFA8A7"/>
<path d="M336.46 334.842C337.37 334.527 338.259 334.181 339.139 333.792C341.598 332.718 343.971 331.433 346.238 329.95C347.216 329.3 348.193 328.617 349.171 327.851C350.149 327.085 351.127 326.256 352.104 325.416C352.613 324.936 353.075 324.401 353.483 323.82C354.306 322.737 354.996 321.545 355.536 320.273C355.618 319.973 355.799 319.715 356.045 319.548C356.21 319.486 356.388 319.472 356.56 319.509C356.732 319.546 356.892 319.632 357.023 319.758C357.258 319.964 357.51 320.147 357.775 320.304L358.577 320.661C359.433 321.036 360.336 321.273 361.256 321.364C364.717 321.69 364.825 320.944 364.972 322.141C365.005 322.588 365.005 323.037 364.972 323.485C366.8 323.159 368.237 322.529 368.316 321.784L368.531 319.412C370.349 319.233 370.486 322.729 371.073 326.654C371.552 329.803 372.266 332.123 371.444 334.464C368.697 337.036 363.847 336.416 361.09 336.899C357.179 337.592 355.351 340.699 349.924 342.714C341.124 345.968 335.639 342.221 333.996 340.615C332.931 338.589 332.716 336.122 336.46 334.842Z" fill="#37474F"/>
<path d="M402.686 162.196C403.38 173.743 404.642 190.653 405.082 203.994C405.903 229.06 405.58 257.642 405.58 257.642C406.886 262.898 407.728 268.276 408.093 273.702C408.65 289.72 408.553 325.681 408.553 325.681C408.553 325.681 402.364 332.367 393.114 327.119C393.114 327.119 384.911 276.735 382.623 260.906C380.433 245.844 376.16 215.771 376.16 215.771L374.204 258.513C375.689 265.229 376.18 272.154 375.661 279.034C375.162 286.382 371.261 322.605 371.261 322.605C367.702 326.185 357.338 324.232 355.07 321.388C355.07 321.388 351.442 267.855 351.032 260.109C350.161 243.388 347.844 181.027 349.008 171.349C350.171 161.672 402.686 162.196 402.686 162.196Z" fill="#263238"/>
<path d="M376.158 215.728L373.44 196.435C373.44 196.435 365.979 194.924 360.523 190.578C360.523 190.578 362.645 195.732 370.897 199.406L373.616 217.376L374.261 258.47L376.158 215.728Z" fill="black"/>
<path d="M391.408 84.7824C391.907 86.9552 395.319 86.6193 396.844 86.21C397.749 86.0059 398.553 85.4534 399.104 84.6567C399.655 83.8599 399.916 82.8741 399.836 81.8854C400.608 81.6639 401.304 81.2084 401.841 80.5733C402.202 80.0613 402.408 79.443 402.433 78.8014C402.457 78.1598 402.299 77.5254 401.978 76.9835C402.597 76.5104 403.083 75.8636 403.383 75.1139C403.683 74.3642 403.786 73.5403 403.679 72.7323C403.47 71.5628 402.872 70.5146 401.997 69.7828C401.15 69.0466 400.095 68.6429 399.005 68.6387C398.653 68.6387 398.301 69.3944 398.81 69.4574C399.602 69.6224 400.348 69.9816 400.99 70.5071C401.658 71.0087 402.175 71.7093 402.476 72.5224C402.664 73.1681 402.664 73.86 402.475 74.5054C402.286 75.1508 401.918 75.7188 401.42 76.1332C401.242 75.8928 401.042 75.6713 400.824 75.4719C400.144 74.8189 399.252 74.4795 398.34 74.5273C398.004 74.5183 397.671 74.6122 397.382 74.7981C397.093 74.9839 396.859 75.254 396.708 75.5769C396.473 76.3957 397.265 77.0884 397.852 77.4453C398.277 77.7038 398.75 77.8618 399.237 77.9089C399.724 77.9559 400.215 77.8909 400.677 77.7182C400.754 77.6913 400.829 77.6598 400.902 77.6238C400.954 77.7329 400.999 77.845 401.039 77.9596C401.567 79.4607 400.716 80.3949 399.572 80.8147C398.878 79.2717 397.001 78.1486 395.495 78.9568C395.304 79.0463 395.137 79.1853 395.008 79.3612C394.879 79.5371 394.793 79.7446 394.757 79.9651C394.721 80.1855 394.737 80.4121 394.803 80.6244C394.868 80.8368 394.982 81.0284 395.133 81.1821C395.76 81.8175 396.589 82.1707 397.451 82.1688C397.844 82.1999 398.24 82.1999 398.634 82.1688C398.721 82.8415 398.575 83.525 398.223 84.0897C397.869 84.5201 397.43 84.8602 396.937 85.0854C396.445 85.3105 395.912 85.415 395.378 85.3912C394.164 85.4957 392.959 85.085 392.024 84.2471C391.741 83.9847 391.33 84.457 391.408 84.7824ZM400.335 76.721C400.017 76.8182 399.683 76.8384 399.356 76.7803C399.03 76.7222 398.72 76.5873 398.448 76.3852C398.037 76.0912 397.578 75.6609 398.311 75.6084C398.706 75.6133 399.094 75.7163 399.445 75.9093C399.796 76.1024 400.101 76.3802 400.335 76.721ZM398.292 81.0771C397.877 81.0956 397.463 81.0532 397.06 80.9512C396.766 80.8777 395.485 80.1744 396.14 79.9015C396.639 79.6601 397.519 80.1954 397.871 80.5313C398.033 80.6924 398.175 80.876 398.292 81.0771Z" fill="#263238"/>
<path d="M393.776 44.182C393.99 44.2146 394.202 44.2601 394.411 44.3185C394.262 43.6259 394.335 42.8993 394.619 42.257C394.903 41.6148 395.381 41.0946 395.976 40.7811C396.736 40.4539 397.584 40.4572 398.342 40.7903C399.099 41.1234 399.706 41.7602 400.033 42.5656L395.604 44.7384C397.043 45.2882 398.244 46.3865 398.977 47.8244C400.19 50.5115 398.586 56.2216 396.973 63.2543C396.064 67.6896 394.871 72.0525 393.404 76.3121C392.661 78.4114 391.322 78.4114 391.322 78.4114V71.3892L391.605 65.5636C391.605 65.5636 388.124 60.4518 387.743 56.2636C387.244 50.8789 388.3 48.6746 388.3 48.6746L393.776 44.182Z" fill="#263238"/>
<path d="M369.709 38.1465C371.895 38.1507 374.031 38.8509 375.846 40.1587C377.661 41.4664 379.074 43.3227 379.906 45.4929C380.738 47.663 380.952 50.0494 380.52 52.35C380.089 54.6506 379.031 56.762 377.481 58.417C375.931 60.072 373.959 61.1963 371.814 61.6475C369.668 62.0987 367.447 61.8566 365.43 60.9518C363.412 60.047 361.691 58.5202 360.482 56.5646C359.274 54.609 358.633 52.3125 358.641 49.9657C358.645 48.4094 358.934 46.8692 359.492 45.433C360.051 43.9968 360.867 42.6927 361.895 41.5952C362.922 40.4977 364.141 39.6283 365.482 39.0365C366.823 38.4448 368.259 38.1424 369.709 38.1465Z" fill="#263238"/>
<path d="M391.405 64.6417C392.716 65.8593 393.781 62.7103 394.886 61.4927C395.991 60.2751 399.57 58.5852 401.349 62.6369C403.129 66.6885 399.706 72.3672 397.018 73.7003C393.107 75.6631 391.327 71.412 391.327 71.412V88.9938C387.191 96.9922 378.245 95.1238 374.011 96.2469C373.38 94.2024 373.38 91.9936 374.011 89.949V84.2283C372.23 84.5955 370.411 84.698 368.604 84.5327C365.026 83.9239 363.109 80.7645 362.043 76.6078C360.323 69.932 359.961 58.7111 362.356 45.7478C366.365 42.4309 379.907 42.9767 388.286 48.6449C387.7 60.1911 390.095 63.4241 391.405 64.6417Z" fill="#FFA8A7"/>
<path d="M374.016 84.2253C374.016 84.2253 381.994 82.5353 384.771 80.9504C386.432 80.05 387.797 78.6251 388.682 76.8672C388.256 78.62 387.504 80.2624 386.472 81.6956C384.429 84.4877 374.025 86.5136 374.025 86.5136L374.016 84.2253Z" fill="#F28F8F"/>
<path d="M356.885 57.7005C356.953 58.3778 357.208 59.0178 357.618 59.5374C357.754 59.7359 357.854 59.9603 357.912 60.1987C358.118 61.8748 358.445 63.5313 358.889 65.1531C359.249 66.2297 359.914 67.1582 360.791 67.8078C361.668 68.4574 362.713 68.7955 363.778 68.7744C364.341 68.8037 364.905 68.765 365.46 68.6589C365.502 68.666 365.545 68.666 365.587 68.6589C366.074 68.5557 366.542 68.3716 366.975 68.1131H367.054L367.181 68.0291L367.318 67.9137C367.369 67.8885 367.416 67.8528 367.455 67.8087C367.513 67.7763 367.566 67.7337 367.611 67.6828L367.748 67.5358L368.022 67.2524C368.485 66.7004 368.865 66.0734 369.146 65.3945C369.899 63.6835 369.752 61.2588 370.926 61.0174C370.974 61.0223 371.023 61.0223 371.072 61.0174H371.229C372.832 61.0804 372.598 63.7045 373.458 65.6044C373.934 66.8073 374.743 67.8244 375.774 68.5189C376.806 69.2133 378.011 69.5516 379.227 69.4882H379.667H380.028C380.307 69.4718 380.585 69.4368 380.86 69.3832L381.124 69.3202L381.378 69.2467H381.534C381.872 69.1291 382.2 68.978 382.512 68.7954C382.619 68.7114 382.727 68.6484 382.835 68.575C383.026 68.4184 383.209 68.2502 383.382 68.0711C383.841 67.5731 384.206 66.9851 384.458 66.3392C384.934 64.7504 385.284 63.1211 385.504 61.4688C385.554 61.2184 385.647 60.98 385.778 60.7655C386.204 60.285 386.487 59.678 386.589 59.0231C386.616 58.6807 386.533 58.3387 386.356 58.0529C386.178 57.767 385.916 57.554 385.611 57.4486L384.771 57.3016C382.043 56.8923 378.484 56.6613 376.342 57.2386C373.644 57.9629 372.695 58.8656 371.209 58.8131C369.723 58.7607 368.941 57.7635 366.408 56.8293C364.453 56.0735 361.07 56.042 358.528 56.231C358.244 56.231 358 56.231 357.736 56.2939C357.315 56.21 356.846 56.9132 356.885 57.7005ZM374.436 59.8628C374.646 59.5912 374.91 59.3727 375.208 59.2225C375.255 59.1905 375.304 59.1624 375.355 59.1385H375.423C375.553 59.086 375.68 59.0264 375.805 58.9601C375.912 58.9601 376.039 58.8761 376.157 58.8236C376.533 58.6748 376.919 58.5521 377.31 58.4562L377.77 58.3513C378.151 58.2778 378.552 58.2148 378.943 58.1728H379.227C381.798 58.0049 383.392 58.6872 383.959 59.2225C384.526 59.7578 384.233 62.3715 383.959 63.6521C383.959 63.6521 383.959 63.7255 383.959 63.7465C383.968 63.7809 383.968 63.8171 383.959 63.8515C383.932 64.0258 383.892 64.1977 383.842 64.3658C383.821 64.4769 383.792 64.5858 383.754 64.6912C383.695 64.8697 383.636 65.0481 383.568 65.237C383.552 65.301 383.525 65.3615 383.49 65.4155C383.482 65.4574 383.465 65.4969 383.441 65.5309C383.441 65.5309 383.441 65.6044 383.441 65.6464L383.363 65.8039C383.363 65.8668 383.304 65.9193 383.265 65.9718C383.238 66.0372 383.202 66.0975 383.157 66.1502C383.127 66.2135 383.091 66.2733 383.05 66.3287C382.638 66.9329 382.087 67.4121 381.452 67.7194C380.816 68.0266 380.116 68.1515 379.422 68.0816C378.711 68.1292 377.999 68.0113 377.334 67.7359C376.669 67.4606 376.067 67.0343 375.57 66.4861C374.96 65.7329 374.545 64.8207 374.367 63.841C374.074 62.34 373.918 60.6395 374.436 59.8628ZM359.329 58.2043C359.51 58.0164 359.727 57.8731 359.965 57.7845L360.239 57.669H360.405H360.552H360.649H360.796C360.993 57.6257 361.192 57.5942 361.393 57.5745H361.715H361.901C361.953 57.5848 362.006 57.5848 362.057 57.5745C362.194 57.5642 362.331 57.5642 362.468 57.5745H362.761C363.158 57.5968 363.553 57.6424 363.944 57.711C365.773 58.0364 367.679 58.9916 368.159 59.8103C368.638 60.629 368.501 62.298 368.237 63.7465C368.175 64.0704 368.094 64.3895 367.992 64.7017C367.985 64.7256 367.985 64.7514 367.992 64.7752C367.996 64.8101 367.996 64.8453 367.992 64.8802C367.992 64.8802 367.992 64.8802 367.992 64.9431C367.978 64.9825 367.962 65.021 367.943 65.0586C367.943 65.1426 367.875 65.2161 367.836 65.2895C367.807 65.3615 367.775 65.4316 367.738 65.4995V65.5624L367.66 65.7094L367.582 65.8249C367.155 66.4754 366.57 66.9872 365.891 67.3039C365.211 67.6205 364.463 67.7298 363.729 67.6198C363.047 67.602 362.378 67.4152 361.774 67.0739C359.975 66.0243 359.554 63.841 359.349 62.8753C359.075 61.3218 358.772 58.7397 359.329 58.2043Z" fill="#263238"/>
<path d="M385.455 57.3555L397.188 60.179C396.129 60.4718 395.186 61.1233 394.499 62.0369L385.445 60.1895L385.455 57.3555Z" fill="#263238"/>
<path d="M359.334 62.6483C359.539 63.698 359.96 65.8708 361.759 66.847C362.363 67.1882 363.032 67.375 363.714 67.3928C364.448 67.5029 365.196 67.3936 365.875 67.0769C366.555 66.7602 367.14 66.2485 367.567 65.5979L367.645 65.4824L367.723 65.3355V65.2725C367.759 65.2047 367.792 65.1346 367.821 65.0626C367.821 64.9891 367.889 64.9156 367.928 64.8316C367.946 64.7941 367.963 64.7555 367.977 64.7162C367.977 64.7162 367.977 64.7162 367.977 64.6532C367.981 64.6183 367.981 64.5831 367.977 64.5482C367.97 64.5244 367.97 64.4986 367.977 64.4748C368.078 64.1626 368.16 63.8435 368.222 63.5196C368.486 62.071 368.632 60.3706 368.143 59.5833C367.655 58.7961 365.758 57.7989 363.929 57.484C363.538 57.4154 363.143 57.3698 362.746 57.3476H362.453C362.316 57.3373 362.179 57.3373 362.042 57.3476C361.991 57.3578 361.938 57.3578 361.886 57.3476H361.7H361.377C361.177 57.3672 360.978 57.3988 360.781 57.442H360.634H360.537H360.39H360.224L359.95 57.5575C359.712 57.6462 359.495 57.7895 359.314 57.9774C358.777 58.7436 359.08 61.3258 359.334 62.6483Z" fill="#37474F"/>
<path d="M374.369 63.8004C374.541 64.795 374.956 65.7225 375.572 66.4875C376.057 67.0322 376.644 67.46 377.295 67.7423C377.946 68.0246 378.645 68.1551 379.346 68.125C380.04 68.1948 380.74 68.07 381.375 67.7628C382.011 67.4555 382.562 66.9763 382.973 66.3721C383.015 66.3167 383.051 66.2569 383.081 66.1936C383.126 66.1409 383.162 66.0806 383.189 66.0152C383.189 65.9627 383.247 65.9102 383.286 65.8472L383.365 65.6898C383.365 65.6898 383.365 65.6163 383.365 65.5743C383.389 65.5403 383.405 65.5008 383.413 65.4589C383.449 65.4049 383.476 65.3444 383.492 65.2804C383.56 65.0915 383.619 64.9131 383.677 64.7346C383.716 64.6292 383.745 64.5203 383.765 64.4092C383.816 64.241 383.855 64.0691 383.883 63.8949C383.892 63.8605 383.892 63.8243 383.883 63.7899C383.883 63.7899 383.883 63.7269 383.883 63.6954C384.147 62.4149 384.469 59.8537 383.883 59.2659C383.296 58.6781 381.722 57.9958 379.15 58.2162H378.867C378.476 58.2162 378.075 58.3212 377.694 58.3947L377.234 58.4996C376.843 58.5955 376.457 58.7182 376.08 58.867C375.963 58.867 375.836 58.951 375.728 59.0035C375.604 59.0698 375.477 59.1294 375.347 59.1819H375.279C375.228 59.2058 375.179 59.2338 375.132 59.2659C374.834 59.416 374.57 59.6346 374.36 59.9062C373.92 60.6409 374.076 62.3414 374.369 63.8004Z" fill="#37474F"/>
<path d="M359.643 36.5829C359.643 36.4465 359.643 36.2995 359.692 36.1526C359.708 35.8813 359.8 35.6217 359.956 35.4073C360.494 34.809 361.569 36.3205 361.911 36.6669C362.277 37.0092 362.659 37.3315 363.055 37.6326C363.429 37.832 363.788 38.0601 364.131 38.3149C363.891 36.8883 363.891 35.4273 364.131 34.0008C364.297 33.0561 364.542 30.8518 365.637 30.6314C366.282 30.4844 366.849 31.0722 367.328 31.5551C371.699 35.9426 377.409 33.9168 382.669 34.0952C387.079 34.2422 392.388 36.1946 394.402 40.7711C395.311 42.8704 395.468 45.0852 393.669 46.5337C392.515 47.4784 391.381 47.4364 390.735 48.9374C390.579 49.3048 389.572 53.7764 390.168 53.7344C389.088 53.8526 388.004 53.5556 387.109 52.8964C386.214 52.2371 385.566 51.2583 385.28 50.134C385.172 49.6407 384.928 48.7485 384.83 48.2447C384.806 48.097 384.753 47.9565 384.674 47.8328C384.595 47.7091 384.492 47.6049 384.373 47.5273C384.253 47.4498 384.12 47.4006 383.981 47.3831C383.842 47.3656 383.702 47.3802 383.569 47.4259C382.229 47.7408 381.359 48.3286 380.098 48.696C376.496 49.808 372.709 50.0482 369.01 49.3993C366.362 48.8596 363.932 47.46 362.048 45.3896C361.092 44.1862 360.384 42.7797 359.97 41.262C359.555 39.7444 359.444 38.1499 359.643 36.5829Z" fill="#263238"/>
<path d="M376.828 55.0347L380.739 55.675C380.807 55.1131 380.67 54.5446 380.357 54.0887C380.043 53.6328 379.578 53.3249 379.057 53.2293C378.8 53.1879 378.538 53.2019 378.286 53.2706C378.034 53.3394 377.797 53.4613 377.59 53.6294C377.382 53.7976 377.208 54.0084 377.077 54.2497C376.946 54.491 376.862 54.7579 376.828 55.0347Z" fill="#263238"/>
<path d="M375.92 74.3291L372.664 75.2423C372.71 75.4752 372.799 75.6958 372.926 75.8909C373.053 76.086 373.216 76.2517 373.404 76.378C373.592 76.5044 373.801 76.5888 374.02 76.6263C374.239 76.6639 374.463 76.6537 374.678 76.5964C375.118 76.4634 375.492 76.1532 375.724 75.7307C375.955 75.3082 376.025 74.806 375.92 74.3291Z" fill="#F28F8F"/>
<path d="M362.177 55.2784L366.088 54.8166C366.072 54.5412 366.005 54.2721 365.889 54.0257C365.774 53.7792 365.613 53.5605 365.416 53.3828C365.22 53.2052 364.991 53.0722 364.745 52.9921C364.5 52.912 364.241 52.8863 363.986 52.9167C363.46 52.9877 362.98 53.272 362.644 53.7112C362.307 54.1504 362.14 54.7112 362.177 55.2784Z" fill="#263238"/>
<path d="M371.659 61.0488L371.131 70.8421L366.047 69.4146L371.121 60.9333C371.307 60.9268 371.491 60.9663 371.659 61.0488Z" fill="#F28F8F"/>
<path d="M393.508 67.8534C393.506 68.3604 393.644 68.8566 393.905 69.2792C394.166 69.7017 394.538 70.0317 394.974 70.2271C395.41 70.4226 395.89 70.4748 396.353 70.3772C396.816 70.2795 397.242 70.0364 397.577 69.6787C397.912 69.3209 398.14 68.8646 398.233 68.3675C398.326 67.8704 398.279 67.3549 398.099 66.8862C397.918 66.4176 397.613 66.017 397.22 65.7351C396.827 65.4532 396.366 65.3028 395.894 65.3028C395.581 65.3014 395.271 65.3663 394.981 65.4939C394.692 65.6215 394.429 65.8091 394.207 66.0461C393.986 66.2831 393.81 66.5648 393.69 66.8749C393.57 67.185 393.508 67.5176 393.508 67.8534Z" fill="#263238"/>
<path d="M393.245 63.1827C393.45 62.4084 393.81 61.6918 394.301 61.0834C394.55 60.828 394.848 60.6338 395.173 60.5142C395.499 60.3945 395.845 60.3524 396.188 60.3906C396.188 60.3906 396.256 60.4746 396.188 60.4956C395.924 60.6635 395.738 60.758 395.474 60.9574C395.211 61.1486 394.968 61.3704 394.751 61.6187C394.559 61.8569 394.404 62.1262 394.291 62.4165C394.151 62.7494 394.058 63.1034 394.017 63.4661C393.953 64.0374 394.031 64.6168 394.242 65.1456C394.352 65.4387 394.503 65.7115 394.692 65.9538C394.895 66.1315 395.073 66.3402 395.22 66.5731C395.367 66.8985 394.946 67.4548 394.623 67.2659C394.012 66.8533 393.553 66.2266 393.323 65.492C393.037 64.758 393.009 63.9371 393.245 63.1827Z" fill="#263238"/>
<path d="M359.364 98.0508C356.059 100.381 351.493 103.404 350.379 106.689C349.264 109.975 346.047 129.026 345.695 135.167C348.626 136.649 351.764 137.599 354.984 137.98L359.364 98.0508Z" fill="#455A64"/>
<path d="M398.409 88.9717C406.778 93.9051 415.031 101.274 416.81 104.108C416.81 104.108 411.921 121.606 407.61 129.908C403.298 138.211 400.99 162.763 400.99 162.763C400.99 162.763 371.501 173.259 362.261 174.089C353.022 174.918 351.848 170.698 351.848 170.698C351.848 170.698 351.653 143.25 353.804 124.933C355.955 106.616 355.486 101.169 359.397 98.0512C361.929 96.0464 372.841 90.966 372.841 90.966V96.2143C378.805 96.3403 398.409 88.9717 398.409 88.9717Z" fill="#37474F"/>
<path d="M370.531 99.0268C369.99 97.8424 369.773 96.5175 369.905 95.206L372.369 93.2852V96.6126L370.531 99.0268Z" fill="#334155"/>
<path opacity="0.25" d="M370.531 99.0268C369.99 97.8424 369.773 96.5175 369.905 95.206L372.369 93.2852V96.6126L370.531 99.0268Z" fill="black"/>
<path d="M375.328 97.0014L381.703 93.0967L386.494 97.1693L376.814 101.483L375.328 97.0014Z" fill="#334155"/>
<path opacity="0.25" d="M375.328 97.0014L381.703 93.0967L386.494 97.1693L376.814 101.483L375.328 97.0014Z" fill="black"/>
<path d="M391.324 81.54V82.9256C391.079 84.2377 388.674 87.2817 382.602 90.1997C376.53 93.1178 374.008 96.2353 374.008 96.2353C375.648 96.2824 377.271 96.6047 378.818 97.1905C381.585 98.2401 386.181 102.019 387.491 101.977C388.801 101.935 390.61 98.0512 394.042 94.1779C396.975 90.924 398.403 88.9296 398.403 88.9296C398.403 88.9296 393.69 81.5715 391.324 81.54Z" fill="#455A64"/>
<path d="M374.009 96.2352C371.809 96.4976 369.746 98.135 369.209 97.2848C368.671 96.4346 370.538 88.5307 373.99 86.127L374.009 96.2352Z" fill="#455A64"/>
<path d="M352.697 137.655C352.697 137.655 352.433 142.557 352.365 144.237C352.296 145.916 354.907 174.677 354.907 174.677L345.696 178.876C345.696 178.876 344.582 167.791 344.22 161.619C343.922 155.263 344.187 148.891 345.012 142.589C345.736 137.341 345.99 135.325 345.99 135.325C348.145 136.347 350.393 137.128 352.697 137.655Z" fill="#F28F8F"/>
<path d="M346.437 192.928C346.437 192.928 346.437 193.369 346.437 195.027C346.667 197.802 347.185 200.542 347.981 203.194C348.558 204.747 349.937 208.158 350.66 208.557C351.344 208.967 352.136 209.118 352.909 208.988C354.366 208.841 355.891 209.649 357.27 208.935C357.804 208.623 358.368 208.373 358.952 208.19C359.802 207.969 360.78 208.242 361.543 207.76C362.032 207.455 362.335 206.888 362.814 206.573C363.518 206.112 364.447 206.28 365.2 205.912C365.496 205.75 365.759 205.524 365.972 205.25C366.185 204.976 366.345 204.659 366.441 204.317C366.872 202.931 366.441 201.367 366.187 199.982C366.639 199.3 366.869 198.477 366.842 197.641C366.871 195.847 366.677 194.058 366.265 192.319C365.943 191.269 359.255 187.186 359.255 187.186L357.935 186.252C355.129 185.581 352.19 186.088 349.722 187.669C345.801 190.346 346.437 192.928 346.437 192.928Z" fill="#FFA8A7"/>
<path d="M348.246 192.729C346.476 195.878 347.513 201.557 347.523 201.62C346.968 199.471 346.605 197.271 346.437 195.049C346.437 193.369 346.437 192.95 346.437 192.95C346.437 192.95 345.802 190.325 349.674 187.701C352.142 186.12 355.081 185.613 357.887 186.284C357.887 186.284 350.016 189.549 348.246 192.729Z" fill="#F28F8F"/>
<path d="M366.133 199.951C365.509 197.903 364.545 195.994 363.288 194.315C362.545 193.58 361.919 192.646 362.662 192.961C363.405 193.275 364.442 193.454 364.852 192.898C365.263 192.341 365.351 193.307 364.852 194.063C364.354 194.818 364.774 195.396 365.312 196.634C365.724 197.695 366.001 198.811 366.133 199.951Z" fill="#F28F8F"/>
<path d="M414.247 104.453C417.033 105.503 417.405 113.69 416.799 121.038C416.192 128.385 410.854 145.757 408.419 151.803C405.691 158.595 404.039 162.51 402.22 164.641C400.402 166.771 396.598 168.524 391.729 171.232C387.329 173.678 384.318 174.917 376.809 177.415C368.341 180.239 365.076 180.406 363.276 181.761C361.477 183.115 360.969 186.054 359.199 187.156L357.879 186.222C354.903 186.989 352.06 188.265 349.461 190C348.296 190.775 347.27 191.767 346.43 192.929V195.028C346.43 195.028 344.289 195.994 342.47 191.879C340.651 187.765 339.82 181.593 341.913 178.895C344.005 176.197 350.634 172.503 356.012 170.697C361.389 168.892 364.059 167.002 370.336 162.93C377.024 158.595 381.668 155.708 385.002 153.756C386.263 152.968 387.114 152.013 387.681 149.557C388.131 147.584 389.47 141.748 390.292 137.36C391.602 130.023 394.545 107.833 414.247 104.453Z" fill="#FFA8A7"/>
<path d="M416.798 104.106C416.798 104.106 418.099 104.347 418.275 110.162C418.506 115.664 418.261 121.178 417.541 126.631C416.828 131.092 412.653 144.266 412.653 144.266C412.653 144.266 400.656 148.464 388.375 143.457C388.375 143.457 391.259 124.458 392.345 119.42C393.43 114.382 408.634 98.8363 416.798 104.106Z" fill="#455A64"/>
<path d="M374.347 104.485C373.662 109.209 372.724 120.43 372.724 136.269C372.724 140.153 367.444 148.036 366.202 147.868C364.96 147.7 362.682 140.289 362.359 135.986C362.858 125.573 368.725 109.419 371.286 103.897L374.347 104.485Z" fill="#334155"/>
<path opacity="0.15" d="M371.094 104.349C371.151 104.195 371.216 104.044 371.289 103.897L374.35 104.485L374.164 105.871C373.013 105.739 371.934 105.204 371.094 104.349Z" fill="black"/>
<path d="M375.335 96.998C374.373 96.7552 373.389 96.6285 372.401 96.6201C371.622 97.2716 370.982 98.0948 370.524 99.0343C370.438 100.694 370.695 102.354 371.277 103.894C371.717 104.226 372.218 104.45 372.747 104.551C373.275 104.653 373.818 104.629 374.337 104.482C375.415 103.762 376.272 102.718 376.801 101.48C376.876 99.8378 376.35 98.2292 375.335 96.998Z" fill="#334155"/>
</svg>
