<svg width="450" height="450" viewBox="0 0 450 450" fill="none" xmlns="http://www.w3.org/2000/svg">
<path d="M230.685 449.999C351.811 449.999 450.003 387.704 450.003 310.858C450.003 234.012 351.811 171.717 230.685 171.717C109.559 171.717 11.3672 234.012 11.3672 310.858C11.3672 387.704 109.559 449.999 230.685 449.999Z" fill="#334155"/>
<path d="M372.683 365.077C405.485 365.077 432.076 348.207 432.076 327.396C432.076 306.585 405.485 289.715 372.683 289.715C339.881 289.715 313.289 306.585 313.289 327.396C313.289 348.207 339.881 365.077 372.683 365.077Z" fill="#E0E0E0"/>
<path d="M42.6745 338.235L61.2905 350.068C62.0717 350.508 62.937 350.738 63.8149 350.738C64.6928 350.738 65.5581 350.508 66.3393 350.068L283.794 212.101C285.194 211.218 285.194 209.784 283.794 208.901L265.169 197.078C264.388 196.643 263.525 196.416 262.649 196.416C261.774 196.416 260.911 196.643 260.13 197.078L42.6745 335.056C41.2752 335.918 41.2752 337.352 42.6745 338.235Z" fill="#E0E0E0"/>
<path d="M293.495 387.646L209.964 440.631C209.337 440.984 208.641 441.169 207.936 441.169C207.231 441.169 206.536 440.984 205.908 440.631L93.1907 369.123C92.9459 369.031 92.7334 368.857 92.5829 368.626C92.4325 368.395 92.3516 368.118 92.3516 367.834C92.3516 367.55 92.4325 367.273 92.5829 367.042C92.7334 366.811 92.9459 366.638 93.1907 366.546L176.712 313.562C177.34 313.208 178.035 313.023 178.74 313.023C179.446 313.023 180.141 313.208 180.768 313.562L293.495 385.07C293.74 385.161 293.952 385.335 294.103 385.566C294.253 385.797 294.334 386.074 294.334 386.358C294.334 386.642 294.253 386.919 294.103 387.15C293.952 387.381 293.74 387.555 293.495 387.646Z" fill="#E0E0E0"/>
<path opacity="0.1" d="M342.605 248.368L334.247 243.07C333.475 242.575 332.597 242.314 331.703 242.314C330.81 242.314 329.932 242.575 329.16 243.07L225.16 309.924L215.365 322.588C215.262 322.723 215.2 322.89 215.189 323.065C215.178 323.241 215.218 323.416 215.303 323.565C215.388 323.714 215.514 323.829 215.663 323.895C215.812 323.96 215.976 323.972 216.131 323.928L237.451 317.695L342.605 251.059C342.818 250.922 342.996 250.725 343.119 250.489C343.242 250.253 343.307 249.986 343.307 249.714C343.307 249.441 343.242 249.174 343.119 248.938C342.996 248.702 342.818 248.506 342.605 248.368Z" fill="#455A64"/>
<path d="M89.2295 21.001L85.5422 22.3515V14.6117C85.5422 8.48209 80.399 7.00683 74.8208 10.082C69.2426 13.1987 64.7138 20.5958 64.7138 26.7046V27.8266C63.9242 27.5879 63.0989 27.5256 62.287 27.6433C61.475 27.7611 60.6928 28.0566 59.9865 28.5123C55.9683 30.7148 52.716 36.0859 52.716 40.5013V41.0104L47.6294 43.8674C44.9821 45.3218 42.8359 48.8542 42.8359 51.7631C42.8359 54.6721 45.001 55.846 47.6294 54.3915L89.2295 31.5355C91.8768 30.081 94.023 26.5487 94.023 23.6398C94.023 20.7308 91.9146 19.5465 89.2295 21.001Z" fill="#EBEBEB"/>
<path d="M132.138 38.3921L125.444 42.0698C125.482 41.7912 125.501 41.51 125.501 41.2283V39.431C125.501 36.1584 123.081 34.8286 120.093 36.4701C118.839 37.1941 117.74 38.2035 116.869 39.431C116.387 35.2754 112.983 33.7689 108.852 36.0442C104.38 38.496 100.758 44.4697 100.758 49.3734V52.1369C100.734 53.2498 100.968 54.3512 101.439 55.3367L95.8894 58.3807C95.053 58.8645 94.3398 59.5703 93.8148 60.4339C93.2897 61.2976 92.9694 62.2917 92.8828 63.3259C92.8828 65.144 94.2348 65.8817 95.8894 64.9778L132.138 45.0619C132.973 44.5768 133.684 43.8705 134.207 43.0069C134.731 42.1434 135.05 41.1499 135.135 40.1167C135.135 38.257 133.793 37.5194 132.138 38.3921Z" fill="#EBEBEB"/>
<path d="M50.4579 309.681L58.1634 306.637C58.1634 306.637 60.4325 288.134 58.3336 272.934C55.2041 250.182 37.6753 228.157 25.1858 223.898C2.23957 216.044 2.37193 239.939 19.7022 253.278C34.7822 264.872 48.2172 282.202 50.4579 309.681Z" fill="#334155"/>
<path d="M54.2444 308.631H54.1499C53.9207 308.565 53.7225 308.406 53.5947 308.187C53.4669 307.967 53.4187 307.703 53.4597 307.447C57.5913 286.669 42.9084 247.346 22.2596 235.689C22.1097 235.535 22.0097 235.331 21.9747 235.108C21.9398 234.886 21.9717 234.657 22.0657 234.456C22.1598 234.255 22.3107 234.094 22.4959 233.996C22.681 233.898 22.8901 233.868 23.0916 233.913C44.4022 245.933 59.5295 286.419 55.2372 307.873C55.1783 308.107 55.0469 308.311 54.8655 308.449C54.6842 308.588 54.4645 308.652 54.2444 308.631Z" fill="white"/>
<path d="M60.5848 328.041C60.9535 325.579 61.1899 321.953 61.2561 321.07C61.5314 317.915 61.2095 314.731 60.3106 311.72C59.8946 310.4 59.0721 309.122 58.9208 307.782C58.7695 306.442 59.0532 305.247 58.7412 303.917C58.4403 302.593 57.9036 301.348 57.162 300.253C56.4203 299.158 55.4885 298.235 54.4204 297.539C52.3593 296.25 49.6931 295.669 48.5302 293.383C47.755 291.845 47.9346 289.975 48.0008 288.188C48.0953 285.498 47.8022 282.609 46.2328 280.552C44.2095 277.903 40.6735 277.373 37.544 277.727C34.4146 278.08 31.3134 279.119 28.1745 278.828C22.8705 278.36 18.3418 274.215 13.0472 273.373C11.1799 273.094 9.28264 273.175 7.44065 273.612C4.71773 274.236 1.92863 275.69 0.661717 278.412C0.143579 279.696 -0.0758573 281.101 0.0231691 282.501C0.122196 283.901 0.536575 285.252 1.22899 286.433C2.69445 289.092 5.01082 290.775 7.45956 292.24C9.90829 293.705 11.7898 295.295 10.5512 298.775C10.1177 299.755 9.83952 300.809 9.72865 301.892C9.75433 302.847 10.0058 303.778 10.4584 304.594C10.9109 305.41 11.549 306.083 12.3098 306.546C13.836 307.457 15.4976 308.062 17.2167 308.333L23.2392 309.673C24.9883 310.068 27.144 310.941 27.2291 312.904C27.2858 314.12 26.4538 315.138 26.0283 316.27C25.6707 317.427 25.6306 318.675 25.913 319.857C26.1954 321.039 26.7879 322.104 27.6167 322.919C29.3097 324.525 31.4135 325.516 33.6393 325.755C35.8422 326.109 38.0735 326.067 40.2575 326.337C43.674 326.769 46.9764 327.952 49.9673 329.818C50.6952 330.371 51.4998 330.792 52.3499 331.064C53.6452 331.365 60.3484 329.589 60.5848 328.041Z" fill="#334155"/>
<g opacity="0.1">
<path d="M60.5848 328.043C60.9535 325.581 61.1899 321.955 61.2561 321.072C61.5314 317.917 61.2095 314.733 60.3106 311.722C59.8946 310.402 59.0721 309.124 58.9208 307.784C58.7695 306.444 59.0532 305.249 58.7412 303.919C58.4403 302.595 57.9036 301.35 57.162 300.255C56.4203 299.16 55.4885 298.237 54.4204 297.541C52.3593 296.252 49.6931 295.67 48.5302 293.385C47.755 291.847 47.9346 289.977 48.0008 288.19C48.0953 285.5 47.8022 282.611 46.2328 280.554C44.2095 277.905 40.6735 277.375 37.544 277.728C34.4146 278.082 31.3134 279.121 28.1745 278.83C22.8705 278.362 18.3418 274.217 13.0472 273.375C11.1799 273.096 9.28264 273.177 7.44065 273.614C4.71773 274.238 1.92863 275.692 0.661717 278.414C0.143579 279.698 -0.0758573 281.103 0.0231691 282.503C0.122196 283.903 0.536575 285.254 1.22899 286.435C2.69445 289.094 5.01082 290.777 7.45956 292.242C9.90829 293.707 11.7898 295.296 10.5512 298.777C10.1177 299.757 9.83952 300.811 9.72865 301.894C9.75433 302.849 10.0058 303.78 10.4584 304.596C10.9109 305.412 11.549 306.085 12.3098 306.548C13.836 307.458 15.4976 308.064 17.2167 308.335L23.2392 309.675C24.9883 310.07 27.144 310.942 27.2291 312.906C27.2858 314.122 26.4538 315.14 26.0283 316.272C25.6707 317.429 25.6306 318.677 25.913 319.859C26.1954 321.041 26.7879 322.106 27.6167 322.921C29.3097 324.527 31.4135 325.518 33.6393 325.757C35.8422 326.111 38.0735 326.069 40.2575 326.339C43.674 326.771 46.9764 327.954 49.9673 329.819C50.6952 330.373 51.4998 330.794 52.3499 331.066C53.6452 331.367 60.3484 329.591 60.5848 328.043Z" fill="black"/>
</g>
<path d="M56.9448 330.325C56.7894 330.308 56.6413 330.244 56.5176 330.139C56.3939 330.034 56.2995 329.894 56.2452 329.733C48.6815 307.843 30.7746 290.348 5.76721 280.457C5.56094 280.375 5.39255 280.207 5.2987 279.989C5.20486 279.771 5.19314 279.521 5.26612 279.294C5.34485 279.07 5.49858 278.889 5.69561 278.786C5.89264 278.684 6.11793 278.668 6.32503 278.743C31.7957 288.82 50.0713 306.7 57.7863 329.089C57.8259 329.2 57.845 329.318 57.8427 329.438C57.8403 329.557 57.8165 329.675 57.7725 329.784C57.7286 329.893 57.6654 329.991 57.5866 330.074C57.5078 330.156 57.415 330.22 57.3135 330.263C57.1964 330.313 57.0704 330.335 56.9448 330.325Z" fill="white"/>
<path d="M323.954 256.026L322.224 257.127L320.153 258.467L237.076 311.566C237.719 309.966 237.189 306.777 235.686 303.722C233.937 300.169 231.271 297.364 229.352 297.271L311.871 244.525L315.851 242.021C313.365 243.788 321.43 257.803 323.954 256.026Z" fill="#334155"/>
<path d="M315.591 242.145C316.687 241.387 318.616 243.641 320.46 246.498C322.918 250.301 324.922 255.329 323.476 256.327L320.639 258.145L319.618 258.778C321.065 257.74 319.06 252.742 316.602 248.95C314.834 246.208 312.82 244.109 311.695 244.628L315.591 242.145Z" fill="#EBEBEB"/>
<path d="M312.528 244.098C315.071 242.343 323.126 256.43 320.583 258.186L316.726 260.659C319.269 258.903 311.223 244.826 308.68 246.581L312.528 244.098Z" fill="#334155"/>
<path d="M305.008 248.919L308.79 246.477C311.267 244.732 319.19 258.248 317.062 260.42L316.93 260.534L313.082 262.965C315.606 261.157 307.532 247.142 305.008 248.919Z" fill="#EBEBEB"/>
<path d="M217.956 311.647L215.195 315.138L217.956 311.647Z" fill="#E0E0E0"/>
<path d="M235.283 301.043C233.695 298.862 231.558 297.282 229.365 297.262L217.953 311.63C218.411 311.711 218.831 311.96 219.144 312.336C220.487 314.31 220.364 315.287 220.364 315.287L237.07 311.547C238.715 308.773 237.6 304.254 235.283 301.043Z" fill="#FFA8A7"/>
<path d="M219.148 312.354C219.009 312.147 218.83 311.976 218.624 311.854C218.418 311.732 218.19 311.662 217.956 311.647L215.196 315.138C215.101 315.251 215.042 315.393 215.027 315.545C215.012 315.697 215.042 315.85 215.111 315.982C215.181 316.115 215.287 316.219 215.415 316.28C215.542 316.341 215.684 316.356 215.82 316.323L220.367 315.284C220.367 315.284 220.566 314.338 219.148 312.354Z" fill="#37474F"/>
<path d="M339.102 246.311L323.975 256.035C323.892 256.087 323.803 256.125 323.71 256.149C324.741 254.82 322.822 250.103 320.486 246.498C318.784 243.869 316.761 241.833 315.617 242.145L331.406 231.995C334.867 229.345 339.424 236.524 340.331 241.657C340.719 243.599 340.379 245.314 339.102 246.311Z" fill="#F28F8F"/>
<path opacity="0.15" d="M339.089 246.31C340.366 245.271 340.659 243.598 340.299 241.656C340.299 241.417 340.195 241.167 340.139 240.918L237.594 306.193L215.234 316.145C215.31 316.224 215.402 316.281 215.503 316.312C215.603 316.343 215.709 316.346 215.811 316.322L220.359 315.283L237.065 311.543L339.089 246.31Z" fill="black"/>
<path d="M274.328 5.14857C272.91 4.30706 271.076 4.43172 269.071 5.69919L68.6532 132.831C66.2429 134.528 64.2854 136.898 62.9805 139.698L54.9062 134.566C56.6743 130.878 59.1797 129.62 61.3637 128.228L261.801 1.07605C263.9 -0.243371 265.8 -0.305709 267.237 0.650089L274.328 5.14857Z" fill="#455A64"/>
<path d="M56.0415 338.982C54.2735 337.892 53.1484 335.315 53.1484 331.648V145.517C53.1484 141.361 53.4132 137.631 54.9354 134.566L63.0096 139.699C62.8016 140.114 62.603 140.551 62.4045 140.997C62.2059 141.444 62.1114 141.714 61.9885 142.036C61.9613 142.088 61.9422 142.144 61.9317 142.202C61.7672 142.613 61.622 143.033 61.4968 143.459C61.355 143.896 61.2321 144.343 61.1281 144.779C61.0333 145.12 60.9575 145.467 60.9012 145.818C60.5925 147.227 60.4339 148.67 60.4285 150.119V336.24C60.4285 339.949 61.5725 342.546 63.3594 343.616L56.0415 338.982Z" fill="#263238"/>
<path d="M269.075 5.68592L66.8415 133.794C62.2939 136.682 60.4219 141.638 60.4219 148.339V336.246C60.4219 342.916 64.1092 345.971 68.6568 343.093L269.094 215.941C273.641 213.063 277.329 205.313 277.329 198.653V12.5219C277.31 5.86253 273.585 2.79775 269.075 5.68592Z" fill="#37474F"/>
<path d="M258.034 214.282L79.7015 327.419C77.3473 328.915 75.4375 327.326 75.4375 323.866V143.449C75.4375 139.989 77.3284 135.979 79.7015 134.483L258.034 21.3459C260.388 19.8499 262.298 21.4394 262.298 24.899V205.316C262.298 208.776 260.35 212.786 258.034 214.282Z" fill="#334155"/>
<path opacity="0.1" d="M258.034 214.282L79.7015 327.419C77.3473 328.915 75.4375 327.326 75.4375 323.866V143.449C75.4375 139.989 77.3284 135.979 79.7015 134.483L258.034 21.3459C260.388 19.8499 262.298 21.4394 262.298 24.899V205.316C262.298 208.776 260.35 212.786 258.034 214.282Z" fill="black"/>
<path d="M70.0736 244.097C70.0601 244.98 69.859 245.848 69.4864 246.631C69.1138 247.413 68.58 248.09 67.9274 248.606C66.7456 249.354 65.7812 248.554 65.7812 246.819C65.7948 245.935 65.9958 245.068 66.3684 244.285C66.741 243.502 67.2749 242.826 67.9274 242.31C69.1093 241.541 70.0736 242.341 70.0736 244.097Z" fill="#263238"/>
<path d="M67.9313 213.853C67.422 214.254 67.0054 214.78 66.7148 215.39C66.4242 216 66.2677 216.676 66.2578 217.364V233.426C66.2578 234.776 67.0047 235.4 67.9313 234.807C68.438 234.407 68.8525 233.882 69.1414 233.274C69.4304 232.666 69.5858 231.992 69.5953 231.306V215.245C69.5953 213.894 68.8484 213.271 67.9313 213.853Z" fill="#263238"/>
<path d="M255.91 39.2576C255.778 38.1356 254.965 37.7304 254.02 38.3537L87.4299 144.001C86.8604 144.41 86.3873 144.962 86.0495 145.611L82.3906 143.325C82.5661 142.992 82.7754 142.682 83.0146 142.401L83.1943 142.203C83.3688 142.02 83.5624 141.859 83.771 141.725L250.313 36.037C251.22 35.5148 252.266 35.3674 253.263 35.6214C253.557 35.6818 253.838 35.7978 254.095 35.9643C254.215 36.0401 254.329 36.127 254.436 36.224C254.514 36.2815 254.584 36.3515 254.644 36.4318C254.701 36.4791 254.752 36.5351 254.795 36.598C254.894 36.7057 254.982 36.824 255.06 36.9512C255.131 37.0509 255.197 37.1549 255.258 37.2629C255.399 37.5013 255.516 37.7555 255.608 38.0213C255.671 38.1657 255.725 38.315 255.769 38.468C255.769 38.5823 255.816 38.6862 255.844 38.8109C255.876 38.958 255.898 39.1072 255.91 39.2576Z" fill="#FAFAFA"/>
<path d="M86.5622 312.571C85.9193 312.571 85.475 312.01 85.475 311.034V147.717C85.5023 146.983 85.6974 146.268 86.0422 145.639L82.3833 143.322C82.161 143.737 81.9953 144.185 81.8917 144.652C81.8558 144.827 81.8305 145.004 81.816 145.182C81.8113 145.268 81.8113 145.355 81.816 145.442V308.717C81.8384 309.439 82.0163 310.145 82.3352 310.777C82.654 311.409 83.1047 311.949 83.6502 312.353C84.3404 312.742 85.1211 312.894 85.891 312.789C86.4318 312.76 86.9578 312.585 87.4226 312.28C87.1604 312.45 86.8658 312.549 86.5622 312.571Z" fill="#E0E0E0"/>
<path d="M255.924 39.6012C255.924 38.2298 255.044 37.6792 253.976 38.3545L87.4242 144.012C86.8579 144.419 86.3866 144.967 86.0483 145.611C85.71 146.255 85.5141 146.978 85.4766 147.721V311.037C85.4766 312.409 86.3558 312.959 87.4242 312.284L253.976 206.637C254.543 206.228 255.015 205.679 255.353 205.033C255.691 204.386 255.887 203.662 255.924 202.918V39.6012Z" fill="#F0F0F0"/>
<path d="M111.701 189.629L102.464 202.543L97.0752 210.065C95.9114 207.245 95.3456 204.173 95.4207 201.078C95.4207 192.403 98.8338 182.378 104.365 174.638L105.584 177.131L111.701 189.629Z" fill="#334155"/>
<path d="M119.611 163.72L112.378 187.771L109.079 181.101L105.297 173.319C107.423 170.463 109.982 168.031 112.861 166.13C114.905 164.75 117.219 163.923 119.611 163.72Z" fill="#334155"/>
<path d="M127.875 169.1L114.289 186.294L121.068 163.76C122.523 163.938 123.912 164.523 125.103 165.457C126.295 166.392 127.249 167.646 127.875 169.1Z" fill="#334155"/>
<path d="M129.676 178.388C129.676 191.51 121.829 207.177 112.176 213.285C106.181 217.098 100.83 216.402 97.8047 211.467L113.008 190.273L113.093 190.159L128.513 170.648C129.332 173.128 129.726 175.752 129.676 178.388Z" fill="#334155"/>
<path opacity="0.7" d="M119.611 163.72L112.378 187.771L109.079 181.101L105.297 173.319C107.423 170.463 109.982 168.031 112.861 166.13C114.905 164.75 117.219 163.923 119.611 163.72Z" fill="white"/>
<path opacity="0.3" d="M127.875 169.1L114.289 186.294L121.068 163.76C122.523 163.938 123.912 164.523 125.103 165.457C126.295 166.392 127.249 167.646 127.875 169.1Z" fill="black"/>
<path opacity="0.5" d="M129.676 178.388C129.676 191.51 121.829 207.177 112.176 213.285C106.181 217.098 100.83 216.402 97.8047 211.467L113.008 190.273L113.093 190.159L128.513 170.648C129.332 173.128 129.726 175.752 129.676 178.388Z" fill="white"/>
<path d="M97.8267 153.131C98.117 152.932 98.4371 152.792 98.7722 152.716C99.0175 152.657 99.2739 152.701 99.4907 152.84C99.7138 153.004 99.8751 153.252 99.9445 153.536C100.062 153.953 100.117 154.389 100.105 154.825C100.112 155.459 100.026 156.091 99.85 156.695C99.6944 157.235 99.4545 157.741 99.1409 158.191L100.143 160.819C100.153 160.864 100.153 160.91 100.143 160.954C100.142 161.041 100.123 161.127 100.086 161.204C100.062 161.271 100.019 161.329 99.9635 161.37L98.8573 162.066C98.7533 162.139 98.6776 162.139 98.6304 162.066C98.5821 162.016 98.5435 161.956 98.5169 161.889L97.5715 159.521L96.8245 159.999V162.939C96.8251 163.043 96.8024 163.147 96.7584 163.24C96.726 163.323 96.6737 163.395 96.6071 163.448L95.5387 164.123C95.5179 164.143 95.491 164.155 95.4631 164.155C95.4352 164.155 95.4082 164.143 95.3874 164.123C95.3635 164.093 95.3453 164.059 95.3339 164.021C95.3225 163.984 95.3182 163.944 95.3213 163.905V155.033C95.3195 154.928 95.3423 154.824 95.3874 154.731C95.4137 154.644 95.4674 154.571 95.5387 154.523L97.8267 153.131ZM96.8813 157.879L97.8267 157.297C98.0523 157.151 98.246 156.953 98.394 156.716C98.548 156.434 98.6236 156.109 98.6115 155.781C98.6115 155.396 98.5358 155.178 98.394 155.126C98.2961 155.104 98.1951 155.105 98.0974 155.128C97.9997 155.151 97.9075 155.196 97.8267 155.261L96.8813 155.843V157.879Z" fill="#455A64"/>
<path d="M105.521 155.67C105.542 155.651 105.569 155.641 105.596 155.641C105.624 155.641 105.65 155.651 105.672 155.67C105.696 155.699 105.714 155.734 105.726 155.771C105.737 155.809 105.741 155.849 105.738 155.888V157.353C105.738 157.458 105.715 157.561 105.672 157.654C105.64 157.737 105.588 157.809 105.521 157.862L101.673 160.303C101.652 160.324 101.625 160.335 101.597 160.335C101.569 160.335 101.542 160.324 101.522 160.303C101.496 160.275 101.477 160.241 101.465 160.203C101.454 160.165 101.45 160.125 101.455 160.085V151.213C101.456 151.108 101.478 151.005 101.522 150.912C101.553 150.828 101.606 150.756 101.673 150.704L105.455 148.304C105.476 148.285 105.503 148.275 105.53 148.275C105.558 148.275 105.584 148.285 105.606 148.304C105.63 148.334 105.648 148.368 105.659 148.406C105.671 148.443 105.675 148.483 105.672 148.522V149.987C105.672 150.092 105.649 150.195 105.606 150.288C105.574 150.372 105.522 150.444 105.455 150.496L102.959 152.075V153.561L105.275 152.086C105.296 152.065 105.323 152.054 105.351 152.054C105.379 152.054 105.405 152.065 105.426 152.086C105.452 152.114 105.471 152.148 105.483 152.186C105.494 152.224 105.497 152.264 105.492 152.304V153.758C105.493 153.863 105.47 153.967 105.426 154.06C105.397 154.144 105.344 154.217 105.275 154.267L102.959 155.795V157.332L105.521 155.67Z" fill="#455A64"/>
<path d="M109.614 145.652C109.904 145.456 110.225 145.323 110.56 145.257C110.806 145.204 111.061 145.26 111.269 145.413C111.488 145.595 111.647 145.85 111.723 146.14C111.852 146.572 111.916 147.025 111.912 147.48C111.917 147.991 111.866 148.5 111.761 148.997C111.658 149.445 111.506 149.878 111.307 150.285C111.111 150.663 110.873 151.012 110.598 151.324C110.319 151.64 110.001 151.909 109.652 152.124L108.622 152.779V155.584C108.618 155.688 108.595 155.79 108.556 155.885C108.525 155.973 108.469 156.046 108.395 156.093L107.336 156.768C107.315 156.789 107.288 156.8 107.26 156.8C107.232 156.8 107.205 156.789 107.185 156.768C107.16 156.739 107.142 156.704 107.13 156.667C107.119 156.629 107.115 156.589 107.118 156.55V147.678C107.117 147.573 107.139 147.469 107.185 147.376C107.211 147.29 107.265 147.216 107.336 147.169L109.614 145.652ZM108.584 150.597L109.529 149.963C109.781 149.806 109.987 149.575 110.125 149.296C110.264 149.017 110.329 148.701 110.314 148.384C110.314 148 110.248 147.771 110.097 147.688C110.001 147.654 109.9 147.646 109.801 147.664C109.703 147.682 109.609 147.726 109.529 147.792L108.584 148.426V150.597Z" fill="#455A64"/>
<path d="M112.859 147.181C112.879 146.649 112.946 146.12 113.058 145.602C113.17 145.084 113.335 144.583 113.55 144.106C113.763 143.643 114.027 143.211 114.334 142.817C114.633 142.429 114.991 142.102 115.393 141.851C115.711 141.628 116.076 141.499 116.452 141.477C116.734 141.467 117.01 141.57 117.227 141.768C117.465 142.002 117.638 142.305 117.728 142.641C117.85 143.069 117.916 143.513 117.927 143.96C117.927 144.345 117.927 144.76 117.927 145.186C117.927 145.612 117.927 146.028 117.927 146.412C117.906 146.941 117.84 147.466 117.728 147.981C117.615 148.503 117.447 149.008 117.227 149.487C117.02 149.951 116.76 150.384 116.452 150.776C116.149 151.158 115.791 151.485 115.393 151.742C115.075 151.963 114.71 152.092 114.334 152.116C114.047 152.131 113.766 152.023 113.55 151.814C113.316 151.579 113.146 151.277 113.058 150.942C112.937 150.514 112.87 150.07 112.859 149.622C112.859 149.248 112.859 148.854 112.859 148.428C112.859 148.002 112.859 147.576 112.859 147.181ZM116.424 147.295C116.424 147.119 116.424 146.932 116.424 146.734C116.424 146.537 116.424 146.319 116.424 146.111C116.424 145.903 116.424 145.695 116.424 145.498C116.424 145.3 116.424 145.134 116.424 144.989C116.418 144.792 116.39 144.596 116.339 144.407C116.305 144.265 116.236 144.136 116.14 144.033C116.057 143.942 115.945 143.89 115.828 143.888C115.674 143.9 115.524 143.953 115.393 144.043C115.226 144.146 115.078 144.284 114.958 144.449C114.829 144.605 114.723 144.784 114.646 144.978C114.56 145.178 114.494 145.387 114.448 145.602C114.401 145.827 114.372 146.057 114.363 146.287C114.363 146.454 114.363 146.641 114.363 146.838C114.363 147.035 114.363 147.233 114.363 147.451C114.363 147.669 114.363 147.867 114.363 148.064C114.363 148.261 114.363 148.438 114.363 148.604C114.352 148.949 114.453 149.288 114.646 149.56C114.807 149.757 115.053 149.757 115.393 149.56C115.728 149.35 115.99 149.025 116.14 148.635C116.308 148.211 116.408 147.757 116.433 147.295H116.424Z" fill="#455A64"/>
<path d="M121.703 137.985C121.994 137.787 122.313 137.647 122.648 137.569C122.892 137.512 123.147 137.553 123.367 137.683C123.588 137.852 123.751 138.097 123.83 138.38C123.942 138.801 123.993 139.239 123.981 139.678C123.986 140.312 123.903 140.942 123.735 141.548C123.574 142.085 123.331 142.587 123.017 143.034L124.019 145.662C124.027 145.707 124.027 145.753 124.019 145.797C124.018 145.884 123.999 145.97 123.962 146.047C123.94 146.116 123.896 146.175 123.839 146.213L122.733 146.919C122.629 146.982 122.554 146.992 122.506 146.919C122.46 146.867 122.422 146.808 122.393 146.743L121.495 144.374L120.748 144.842V147.782C120.749 147.887 120.727 147.99 120.681 148.083C120.652 148.171 120.599 148.247 120.53 148.301L119.462 148.966C119.452 148.977 119.44 148.986 119.427 148.992C119.414 148.999 119.4 149.002 119.386 149.002C119.372 149.002 119.358 148.999 119.345 148.992C119.332 148.986 119.32 148.977 119.311 148.966C119.285 148.938 119.266 148.903 119.254 148.865C119.243 148.828 119.239 148.787 119.244 148.748V139.876C119.244 139.771 119.267 139.667 119.311 139.574C119.343 139.491 119.395 139.419 119.462 139.366L121.703 137.985ZM120.757 142.722L121.703 142.14C121.928 141.998 122.121 141.803 122.27 141.569C122.423 141.283 122.498 140.955 122.487 140.624C122.487 140.239 122.412 140.021 122.27 139.969C122.171 139.949 122.07 139.952 121.972 139.977C121.875 140.002 121.783 140.049 121.703 140.114L120.757 140.696V142.722Z" fill="#455A64"/>
<path d="M129.46 133.06C129.481 133.041 129.508 133.031 129.535 133.031C129.563 133.031 129.589 133.041 129.611 133.06C129.636 133.091 129.654 133.127 129.666 133.167C129.677 133.206 129.681 133.247 129.677 133.288V134.743C129.677 134.848 129.654 134.951 129.611 135.044C129.579 135.127 129.527 135.199 129.46 135.252L128.032 136.156V143.2C128.034 143.305 128.011 143.408 127.966 143.501C127.94 143.588 127.886 143.661 127.815 143.709L126.746 144.384C126.726 144.404 126.699 144.416 126.671 144.416C126.643 144.416 126.616 144.404 126.595 144.384C126.57 144.356 126.55 144.321 126.539 144.283C126.527 144.246 126.524 144.205 126.529 144.166V137.091L125.101 137.995C125.08 138.015 125.053 138.026 125.026 138.026C124.998 138.026 124.971 138.015 124.95 137.995C124.926 137.965 124.908 137.931 124.896 137.893C124.885 137.856 124.881 137.816 124.884 137.777V136.322C124.883 136.214 124.906 136.107 124.95 136.01C124.982 135.927 125.034 135.855 125.101 135.803L129.46 133.06Z" fill="#455A64"/>
<path d="M137.008 128.282L243.277 60.8672V70.1654L137.008 137.58V128.282Z" fill="#334155"/>
<g opacity="0.3">
<path d="M136.355 157.565C136.198 157.566 136.044 157.522 135.907 157.436C135.771 157.35 135.658 157.226 135.58 157.077C135.468 156.847 135.44 156.58 135.499 156.328C135.559 156.076 135.702 155.857 135.901 155.716L198.197 116.237C198.399 116.171 198.614 116.18 198.81 116.263C199.006 116.346 199.171 116.498 199.28 116.696C199.388 116.894 199.434 117.126 199.409 117.355C199.384 117.584 199.29 117.798 199.143 117.962L136.856 157.441C136.703 157.532 136.529 157.575 136.355 157.565Z" fill="#455A64"/>
<path d="M136.355 166.865C136.198 166.866 136.044 166.822 135.907 166.736C135.771 166.65 135.658 166.526 135.58 166.377C135.468 166.147 135.44 165.88 135.499 165.628C135.559 165.375 135.702 165.157 135.901 165.016L198.197 125.537C198.399 125.471 198.614 125.48 198.81 125.563C199.006 125.646 199.171 125.798 199.28 125.996C199.388 126.194 199.434 126.425 199.409 126.655C199.384 126.884 199.29 127.098 199.143 127.262L136.856 166.74C136.703 166.832 136.529 166.875 136.355 166.865Z" fill="#455A64"/>
<path d="M136.355 176.165C136.198 176.166 136.044 176.121 135.907 176.036C135.771 175.95 135.658 175.826 135.58 175.677C135.468 175.447 135.44 175.179 135.499 174.927C135.559 174.675 135.702 174.457 135.901 174.316L198.197 134.837C198.399 134.771 198.614 134.779 198.81 134.863C199.006 134.946 199.171 135.098 199.28 135.296C199.388 135.494 199.434 135.725 199.409 135.955C199.384 136.184 199.29 136.397 199.143 136.562L136.856 176.04C136.703 176.132 136.529 176.175 136.355 176.165Z" fill="#455A64"/>
<path d="M136.355 185.463C136.198 185.464 136.044 185.42 135.907 185.334C135.771 185.248 135.658 185.124 135.58 184.975C135.468 184.745 135.44 184.477 135.499 184.225C135.559 183.973 135.702 183.755 135.901 183.614L198.197 144.135C198.297 144.019 198.421 143.93 198.557 143.875C198.693 143.82 198.84 143.8 198.984 143.817C199.129 143.835 199.268 143.888 199.391 143.974C199.513 144.06 199.616 144.175 199.692 144.312C199.767 144.449 199.813 144.602 199.825 144.762C199.837 144.921 199.816 145.081 199.763 145.23C199.71 145.379 199.627 145.512 199.519 145.619C199.411 145.727 199.283 145.805 199.143 145.849L136.856 185.328C136.704 185.423 136.53 185.47 136.355 185.463Z" fill="#455A64"/>
<path d="M136.36 194.768C136.195 194.763 136.034 194.711 135.892 194.616C135.751 194.521 135.636 194.388 135.556 194.228C135.445 193.998 135.416 193.731 135.476 193.479C135.535 193.227 135.679 193.009 135.878 192.867L198.174 153.389C198.373 153.326 198.586 153.337 198.779 153.42C198.972 153.504 199.135 153.654 199.242 153.849C199.35 154.044 199.396 154.272 199.374 154.499C199.352 154.725 199.262 154.938 199.119 155.103L136.833 194.581C136.693 194.689 136.53 194.754 136.36 194.768Z" fill="#455A64"/>
</g>
<path d="M207.61 106.67L215.627 101.59C216.166 101.247 216.572 101.527 216.572 102.213V112.384C216.558 112.752 216.465 113.111 216.301 113.433C216.136 113.754 215.906 114.028 215.627 114.233L207.61 119.324C207.071 119.667 206.664 119.386 206.664 118.701V108.53C206.68 108.16 206.774 107.8 206.938 107.478C207.102 107.155 207.332 106.878 207.61 106.67Z" fill="#334155"/>
<path d="M220.899 98.2473L228.916 93.167C229.455 92.8242 229.862 93.0943 229.862 93.78V103.951C229.847 104.32 229.754 104.681 229.59 105.004C229.426 105.327 229.195 105.603 228.916 105.811L220.899 110.891C220.36 111.234 219.953 110.964 219.953 110.278V100.107C219.968 99.7374 220.061 99.3767 220.225 99.0537C220.389 98.7308 220.62 98.4546 220.899 98.2473Z" fill="#334155"/>
<path d="M234.188 89.8116L242.196 84.7313C242.735 84.3884 243.141 84.6689 243.141 85.3546V95.536C243.126 95.9053 243.033 96.2657 242.868 96.5885C242.704 96.9114 242.474 97.1877 242.196 97.3956L234.188 102.486C233.649 102.829 233.242 102.549 233.242 101.863V91.692C233.255 91.319 233.347 90.9545 233.511 90.6278C233.675 90.3012 233.907 90.0215 234.188 89.8116Z" fill="#334155"/>
<path d="M207.61 123.589L215.627 118.498C216.166 118.155 216.572 118.436 216.572 119.121V129.292C216.558 129.662 216.465 130.022 216.301 130.345C216.137 130.668 215.906 130.944 215.627 131.152L207.61 136.232C207.071 136.575 206.664 136.294 206.664 135.609V125.448C206.679 125.079 206.772 124.718 206.936 124.395C207.1 124.072 207.331 123.796 207.61 123.589Z" fill="#334155"/>
<path d="M220.899 115.106L228.916 110.025C229.455 109.683 229.862 109.953 229.862 110.638V120.809C229.847 121.179 229.754 121.54 229.59 121.863C229.426 122.185 229.195 122.462 228.916 122.669L220.899 127.739C220.36 128.082 219.953 127.812 219.953 127.126V116.955C219.969 116.587 220.063 116.229 220.227 115.908C220.391 115.587 220.621 115.312 220.899 115.106Z" fill="#334155"/>
<path d="M234.188 106.68L242.196 101.59C242.735 101.247 243.141 101.527 243.141 102.213V112.384C243.126 112.752 243.032 113.111 242.868 113.432C242.704 113.753 242.474 114.028 242.196 114.233L234.188 119.324C233.649 119.667 233.242 119.386 233.242 118.701V108.53C233.257 108.162 233.351 107.803 233.515 107.482C233.679 107.16 233.91 106.886 234.188 106.68Z" fill="#334155"/>
<path d="M207.61 140.406L215.627 135.315C216.166 134.972 216.572 135.253 216.572 135.939V146.11C216.558 146.479 216.465 146.84 216.301 147.163C216.137 147.486 215.906 147.762 215.627 147.969L207.61 153.049C207.071 153.392 206.664 153.112 206.664 152.437V142.286C206.676 141.913 206.767 141.548 206.932 141.222C207.096 140.895 207.328 140.615 207.61 140.406Z" fill="#334155"/>
<path d="M220.899 131.971L228.916 126.891C229.455 126.548 229.862 126.828 229.862 127.504V137.675C229.847 138.044 229.754 138.405 229.59 138.728C229.426 139.051 229.195 139.327 228.916 139.534L220.899 144.625C220.36 144.968 219.953 144.687 219.953 144.002V133.831C219.968 133.461 220.061 133.1 220.225 132.777C220.389 132.455 220.62 132.178 220.899 131.971Z" fill="#334155"/>
<path d="M234.188 123.589L242.196 118.498C242.735 118.155 243.141 118.436 243.141 119.121V129.292C243.126 129.662 243.033 130.022 242.868 130.345C242.704 130.668 242.474 130.944 242.196 131.152L234.188 136.232C233.649 136.575 233.242 136.294 233.242 135.609V125.448C233.257 125.079 233.351 124.718 233.515 124.396C233.679 124.073 233.909 123.796 234.188 123.589Z" fill="#334155"/>
<path d="M96.7031 288.679L199.304 223.591V228.235L96.7031 293.333V288.679Z" fill="#455A64"/>
<path d="M96.7031 284.034V256.129L105.742 261.864L114.449 244.14L124.83 250.726L129.681 244.514L137.008 249.158L147.673 231.652L156.172 235.558L166.327 211.965L173.427 225.522L183.127 210.074L186.739 217.606L199.304 195.695V218.936L96.7031 284.034Z" fill="#334155"/>
<path d="M96.7031 253.545L105.137 258.459L113.882 240.589L124.32 247.218L129.009 241.202L136.337 245.857L146.831 228.985L155.331 232.891L166.327 207.323L173.654 221.266L183.354 205.817L186.9 213.36L199.304 191.709V172.447L186.332 194.67L180.981 184.073L173.654 198.025L166.327 193.371L158.999 207.323L151.672 202.669L140.676 223.593L133.349 216.622L126.088 228.195L114.629 221.266L105.364 238.387L96.7031 232.891V253.545Z" fill="#334155"/>
<path opacity="0.3" d="M96.7031 253.545L105.137 258.459L113.882 240.589L124.32 247.218L129.009 241.202L136.337 245.857L146.831 228.985L155.331 232.891L166.327 207.323L173.654 221.266L183.354 205.817L186.9 213.36L199.304 191.709V172.447L186.332 194.67L180.981 184.073L173.654 198.025L166.327 193.371L158.999 207.323L151.672 202.669L140.676 223.593L133.349 216.622L126.088 228.195L114.629 221.266L105.364 238.387L96.7031 232.891V253.545Z" fill="black"/>
<g opacity="0.3">
<path d="M206.631 168.789C206.447 168.761 206.274 168.675 206.134 168.54C205.994 168.405 205.894 168.227 205.845 168.03C205.797 167.832 205.802 167.623 205.861 167.43C205.92 167.236 206.03 167.065 206.177 166.939L242.823 143.689C243.024 143.622 243.24 143.631 243.436 143.714C243.632 143.797 243.797 143.95 243.905 144.147C244.014 144.345 244.059 144.577 244.034 144.806C244.01 145.035 243.916 145.249 243.769 145.413L207.123 168.654C206.974 168.75 206.803 168.797 206.631 168.789Z" fill="#455A64"/>
<path d="M206.631 178.089C206.447 178.061 206.274 177.974 206.134 177.839C205.994 177.704 205.894 177.527 205.845 177.33C205.797 177.132 205.802 176.923 205.861 176.729C205.92 176.535 206.03 176.365 206.177 176.239L242.823 152.988C243.024 152.922 243.24 152.931 243.436 153.014C243.632 153.097 243.797 153.249 243.905 153.447C244.014 153.645 244.059 153.877 244.034 154.106C244.01 154.335 243.916 154.549 243.769 154.713L207.123 177.953C206.974 178.05 206.803 178.097 206.631 178.089Z" fill="#455A64"/>
<path d="M206.631 187.388C206.447 187.361 206.274 187.274 206.134 187.139C205.994 187.004 205.894 186.827 205.845 186.629C205.797 186.432 205.802 186.223 205.861 186.029C205.92 185.835 206.03 185.665 206.177 185.539L242.823 162.288C243.024 162.222 243.24 162.231 243.436 162.314C243.632 162.397 243.797 162.549 243.905 162.747C244.014 162.945 244.059 163.176 244.034 163.406C244.01 163.635 243.916 163.849 243.769 164.013L207.123 187.253C206.974 187.35 206.803 187.397 206.631 187.388Z" fill="#455A64"/>
<path d="M206.631 196.687C206.447 196.66 206.274 196.573 206.134 196.438C205.994 196.303 205.894 196.125 205.845 195.928C205.797 195.731 205.802 195.522 205.861 195.328C205.92 195.134 206.03 194.963 206.177 194.838L242.823 171.597C243.031 171.478 243.272 171.448 243.5 171.513C243.727 171.579 243.924 171.734 244.052 171.951C244.164 172.18 244.192 172.448 244.133 172.7C244.073 172.952 243.93 173.17 243.731 173.312L207.085 196.552C206.947 196.641 206.791 196.688 206.631 196.687Z" fill="#455A64"/>
<path d="M206.631 205.983C206.447 205.955 206.274 205.869 206.134 205.734C205.994 205.599 205.894 205.421 205.845 205.224C205.797 205.026 205.802 204.818 205.861 204.624C205.92 204.43 206.03 204.259 206.177 204.134L242.823 180.893C243.031 180.774 243.272 180.744 243.5 180.809C243.727 180.874 243.924 181.03 244.052 181.246C244.164 181.476 244.192 181.744 244.133 181.996C244.073 182.248 243.93 182.466 243.731 182.607L207.085 205.848C206.947 205.937 206.791 205.983 206.631 205.983Z" fill="#455A64"/>
<path d="M206.631 215.283C206.447 215.255 206.274 215.169 206.134 215.034C205.994 214.899 205.894 214.721 205.845 214.524C205.797 214.326 205.802 214.117 205.861 213.924C205.92 213.73 206.03 213.559 206.177 213.433L242.823 190.193C243.031 190.074 243.272 190.044 243.5 190.109C243.727 190.174 243.924 190.33 244.052 190.546C244.164 190.776 244.192 191.044 244.133 191.296C244.073 191.548 243.93 191.766 243.731 191.907L207.085 215.148C206.947 215.237 206.791 215.283 206.631 215.283Z" fill="#455A64"/>
<path d="M206.631 224.583C206.447 224.555 206.274 224.469 206.134 224.334C205.994 224.199 205.894 224.021 205.845 223.824C205.797 223.626 205.802 223.418 205.861 223.224C205.92 223.03 206.03 222.859 206.177 222.734L242.823 199.493C243.022 199.43 243.235 199.442 243.428 199.525C243.621 199.608 243.784 199.759 243.891 199.954C243.999 200.148 244.045 200.377 244.023 200.603C244.001 200.83 243.911 201.042 243.769 201.207L207.123 224.448C206.974 224.544 206.803 224.591 206.631 224.583Z" fill="#455A64"/>
</g>
<path d="M95.6953 361.417V363.568C95.7106 363.938 95.8039 364.3 95.9679 364.625C96.132 364.949 96.3623 365.227 96.6408 365.438L207.023 435.46C207.328 435.629 207.665 435.717 208.006 435.717C208.348 435.717 208.685 435.629 208.989 435.46L288.096 385.385C288.374 385.175 288.605 384.896 288.769 384.572C288.933 384.247 289.026 383.885 289.041 383.515V381.333C289.027 380.962 288.934 380.6 288.77 380.275C288.606 379.951 288.375 379.672 288.096 379.463L177.714 309.378C177.41 309.209 177.075 309.121 176.735 309.121C176.395 309.121 176.06 309.209 175.757 309.378L96.6786 359.547C96.3931 359.753 96.1555 360.029 95.9847 360.354C95.8139 360.678 95.7148 361.043 95.6953 361.417Z" fill="#334155"/>
<path opacity="0.5" d="M288.232 379.503C288.639 379.846 288.592 380.344 288.1 380.656L209.031 430.815C208.741 430.987 208.416 431.076 208.086 431.074V435.75C208.416 435.752 208.741 435.662 209.031 435.49L288.1 385.383C288.378 385.173 288.609 384.895 288.773 384.57C288.937 384.246 289.03 383.884 289.045 383.513V381.331C289.039 380.98 288.964 380.634 288.823 380.318C288.683 380.002 288.481 379.724 288.232 379.503Z" fill="black"/>
<path opacity="0.6" d="M96.5263 359.672L96.4412 359.745L96.3089 359.89C96.0509 360.222 95.8779 360.624 95.8078 361.054C95.8037 361.144 95.8037 361.234 95.8078 361.324V363.568C95.8251 363.938 95.9194 364.299 96.0832 364.623C96.2471 364.947 96.4763 365.226 96.7532 365.438L207.135 435.46C207.426 435.632 207.751 435.721 208.081 435.72V431.097C207.752 431.102 207.427 431.016 207.135 430.848L96.6776 360.794C96.5135 360.703 96.3832 360.553 96.3089 360.368C96.2718 360.268 96.2628 360.158 96.283 360.053C96.3033 359.947 96.3518 359.851 96.4223 359.776C96.4523 359.736 96.4873 359.701 96.5263 359.672Z" fill="black"/>
<g opacity="0.3">
<path d="M95.7693 360.879C95.7344 361.011 95.7122 361.147 95.7031 361.284C95.7031 361.284 95.7031 361.201 95.7031 361.159C95.7205 361.065 95.7426 360.971 95.7693 360.879Z" fill="black"/>
<path d="M288.092 380.658L209.024 430.817C208.733 430.989 208.408 431.079 208.078 431.077C207.748 431.077 207.423 430.988 207.133 430.817L96.7505 360.794C96.5823 360.71 96.4502 360.557 96.3818 360.369C96.3494 360.268 96.3429 360.159 96.3629 360.055C96.3829 359.95 96.4287 359.854 96.4952 359.776C96.5167 359.741 96.546 359.713 96.5803 359.693L96.7316 359.569L175.8 309.4C176.105 309.231 176.442 309.143 176.783 309.143C177.125 309.143 177.462 309.231 177.767 309.4L288.149 379.433L288.281 379.526C288.631 379.869 288.584 380.347 288.092 380.658Z" fill="black"/>
<path opacity="0.15" d="M96.3022 359.89L96.2266 359.994C96.2557 359.963 96.2811 359.928 96.3022 359.89Z" fill="black"/>
</g>
<path d="M125.591 330.383C125.591 332.336 128.068 334.394 128.749 336.129C128.808 336.27 128.859 336.416 128.9 336.565C128.56 337.801 127.52 338.643 127.302 339.484C127.247 339.669 127.218 339.861 127.217 340.056V341.749C127.24 342.133 127.288 342.515 127.359 342.892C127.304 343.301 127.219 343.704 127.104 344.097C126.884 344.764 126.763 345.466 126.744 346.175V347.764C126.711 348.066 126.764 348.371 126.896 348.637C127.028 348.904 127.233 349.118 127.482 349.25L131.916 352.055L165.054 331.027V329.417L160.62 326.602C159.936 326.212 159.164 326.05 158.398 326.134H158.105C157.358 326.134 156.384 326.217 155.07 326.373C153.416 326.581 151.749 326.623 150.088 326.498C149.624 326.498 149.218 326.435 148.802 326.435C148.486 326.432 148.17 326.449 147.856 326.487C145.965 326.695 143.961 328.004 140.132 327.433H140.009C137.296 326.996 134.081 325.438 131.008 325.428H130.706C129.475 325.437 128.267 325.795 127.198 326.467C126.007 327.215 125.562 328.025 125.562 328.835C125.581 329.043 125.591 330.124 125.591 330.383ZM130.621 331.505C130.808 331.146 131.083 330.851 131.415 330.653C131.675 330.494 131.951 330.368 132.237 330.279C134.308 329.775 136.475 330.146 138.307 331.318C139.062 331.742 139.684 332.404 140.094 333.22C139.903 333.58 139.625 333.875 139.291 334.071C137.877 334.772 136.284 334.904 134.79 334.445C133.95 334.231 133.144 333.881 132.398 333.407C131.645 332.985 131.025 332.322 130.621 331.505Z" fill="#263238"/>
<path d="M158.401 326.073H158.108C157.361 326.073 156.387 326.156 155.073 326.312C153.416 326.52 151.745 326.561 150.081 326.436C149.627 326.436 149.22 326.374 148.804 326.374C148.489 326.37 148.173 326.388 147.859 326.426C145.968 326.634 143.964 327.943 140.135 327.371H140.012C137.298 326.935 134.084 325.377 131.011 325.366H130.708C129.477 325.375 128.269 325.733 127.201 326.405C123.154 328.971 127.759 332.067 128.723 334.529C129.687 336.992 127.598 338.29 127.276 339.506C126.955 340.721 127.844 341.386 127.078 344.067C126.312 346.747 126.898 347.235 127.456 347.588L131.89 350.404L165.028 329.376L160.594 326.561C159.921 326.17 159.159 326.001 158.401 326.073ZM133.554 346.539C133.26 346.666 132.944 346.717 132.629 346.688C132.314 346.66 132.01 346.552 131.739 346.373C131.162 346.009 131.039 345.49 131.474 345.22C131.769 345.09 132.088 345.038 132.404 345.067C132.721 345.096 133.027 345.205 133.299 345.386C133.866 345.75 133.999 346.269 133.554 346.539ZM139.293 334.072C137.879 334.772 136.286 334.905 134.793 334.446C133.953 334.232 133.147 333.882 132.401 333.407C130.226 332.026 129.791 330.062 131.455 329.034C131.715 328.87 131.991 328.741 132.278 328.649C134.348 328.153 136.513 328.523 138.348 329.688C140.484 331.049 140.929 333.002 139.331 334.041L139.293 334.072ZM159.148 330.353C158.852 330.48 158.534 330.531 158.218 330.502C157.902 330.474 157.595 330.366 157.323 330.187C156.746 329.823 156.623 329.304 157.058 329.034C157.353 328.902 157.672 328.848 157.989 328.877C158.306 328.906 158.612 329.016 158.883 329.2C159.441 329.532 159.554 330.041 159.129 330.322L159.148 330.353Z" fill="#37474F"/>
<path d="M204.986 423.2L273.787 379.565C273.96 379.444 274.105 379.279 274.208 379.083C274.312 378.888 274.372 378.669 274.383 378.443V377.602C274.371 377.377 274.311 377.157 274.207 376.962C274.104 376.768 273.96 376.602 273.787 376.48L182.881 318.789C182.7 318.687 182.499 318.634 182.295 318.634C182.091 318.634 181.891 318.687 181.709 318.789L112.899 362.423C112.727 362.546 112.585 362.712 112.483 362.907C112.381 363.102 112.323 363.321 112.312 363.545V364.387C112.325 364.611 112.384 364.829 112.486 365.024C112.588 365.218 112.729 365.384 112.899 365.509L203.804 423.179C203.986 423.284 204.188 423.341 204.393 423.345C204.598 423.348 204.802 423.299 204.986 423.2Z" fill="#FAFAFA"/>
<path d="M273.937 376.588C274.107 376.785 274.06 377.045 273.795 377.211L204.985 420.845C204.805 420.952 204.603 421.005 204.398 421.001V423.339C204.606 423.344 204.811 423.29 204.994 423.183L273.795 379.549C273.969 379.428 274.114 379.263 274.218 379.068C274.322 378.873 274.381 378.653 274.391 378.427V377.585C274.381 377.394 274.335 377.207 274.257 377.035C274.179 376.864 274.07 376.712 273.937 376.588Z" fill="#F0F0F0"/>
<path d="M112.77 362.529L112.609 362.706L112.543 362.81C112.477 362.918 112.42 363.033 112.373 363.153C112.346 363.23 112.327 363.31 112.316 363.392C112.311 363.447 112.311 363.503 112.316 363.558V364.389C112.326 364.614 112.385 364.832 112.486 365.027C112.588 365.222 112.731 365.388 112.902 365.511L203.808 423.191C203.988 423.296 204.19 423.35 204.394 423.347V421.02C204.187 421.025 203.982 420.971 203.799 420.864L112.855 363.194C112.619 363.018 112.571 362.747 112.77 362.529Z" fill="#E0E0E0"/>
<path d="M136.219 351.994V353.615C136.252 354.429 136.524 355.209 136.994 355.838L177.535 330.136V328.515C176.313 327.819 174.96 327.446 173.583 327.424H173.526C172.599 327.416 171.68 327.625 170.832 328.037C167.892 329.502 167.05 329.969 165.235 330.801C164.777 330.981 164.286 331.035 163.805 330.959C163.324 330.883 162.867 330.679 162.474 330.364L162.417 330.312L161.198 329.086L157.917 325.741C157.709 325.535 157.462 325.38 157.195 325.287C156.927 325.193 156.645 325.164 156.366 325.201H156.281C156.021 325.206 155.762 325.234 155.506 325.284C154.391 325.48 153.255 325.48 152.14 325.284C150.816 325.146 149.551 324.614 148.481 323.746C146.896 322.281 144.879 321.502 142.809 321.554H142.648C141.334 321.55 140.038 321.888 138.866 322.541C136.899 323.674 136.03 325.533 136.417 327.351C136.291 328.119 136.355 328.91 136.603 329.642C136.85 330.373 137.273 331.017 137.826 331.507C138.323 332.005 138.656 332.67 138.771 333.398C138.676 334.155 138.402 334.871 137.977 335.476C137.724 335.755 137.567 336.122 137.533 336.515C137.533 336.899 137.533 337.896 137.533 338.135C137.534 338.291 137.566 338.445 137.628 338.585C137.691 338.726 137.781 338.849 137.892 338.946L141.674 342.769L142.884 343.995L143.017 344.151C142.933 344.304 142.838 344.45 142.733 344.587L137.835 348.794C137.375 349.172 136.993 349.652 136.714 350.204C136.436 350.755 136.267 351.366 136.219 351.994ZM147.044 327.559C146.775 328.288 146.265 328.878 145.617 329.211C144.286 329.913 142.757 330.01 141.362 329.481C140.764 329.259 140.214 328.906 139.745 328.442C139.394 328.104 139.125 327.676 138.961 327.196C139.235 326.468 139.743 325.876 140.388 325.533C140.57 325.426 140.76 325.336 140.955 325.263C141.847 324.924 142.802 324.842 143.731 325.023C144.659 325.205 145.53 325.646 146.26 326.302C146.612 326.643 146.881 327.075 147.044 327.559Z" fill="#37474F"/>
<path d="M173.577 327.424H173.521C172.593 327.416 171.674 327.625 170.826 328.037C167.886 329.502 167.044 329.969 165.229 330.801C164.771 330.981 164.281 331.035 163.799 330.959C163.318 330.883 162.861 330.679 162.468 330.364L162.412 330.312L161.192 329.086L157.911 325.741C157.703 325.535 157.457 325.38 157.189 325.287C156.922 325.193 156.639 325.164 156.361 325.201H156.276C156.016 325.206 155.756 325.234 155.5 325.284C154.385 325.48 153.249 325.48 152.134 325.284C150.81 325.146 149.546 324.614 148.475 323.746C146.89 322.281 144.873 321.502 142.803 321.554H142.642C141.328 321.55 140.032 321.888 138.86 322.541C135.939 324.235 135.466 327.518 137.82 329.886C139.305 331.382 138.87 334.25 137.934 335.476C136.998 336.702 137.858 337.366 137.858 337.366L141.64 341.2L142.85 342.416C143.795 343.33 142.699 344.628 142.699 344.628L137.801 348.836C135.683 350.914 135.797 352.638 136.903 354.29L177.444 328.577C176.252 327.874 174.93 327.479 173.577 327.424ZM146.254 324.692C147.691 326.146 147.417 328.172 145.611 329.211C144.28 329.913 142.751 330.01 141.356 329.481C140.759 329.259 140.208 328.906 139.739 328.442C138.293 326.988 138.577 324.962 140.382 323.923C140.566 323.817 140.756 323.723 140.95 323.642C141.842 323.305 142.798 323.224 143.726 323.408C144.655 323.591 145.525 324.033 146.254 324.692Z" fill="#455A64"/>
<path opacity="0.1" d="M144.194 375.803L165.712 389.444C165.927 389.567 166.165 389.631 166.407 389.631C166.649 389.631 166.888 389.567 167.102 389.444L196.799 370.609C197.187 370.359 197.187 369.964 196.799 369.725L175.262 356.074C175.044 355.956 174.805 355.895 174.562 355.895C174.319 355.895 174.08 355.956 173.862 356.074L144.165 374.91C144.084 374.947 144.015 375.011 143.967 375.093C143.919 375.174 143.896 375.27 143.899 375.367C143.902 375.464 143.932 375.558 143.984 375.636C144.037 375.714 144.11 375.772 144.194 375.803Z" fill="#334155"/>
<path d="M166.413 385.737L150.047 375.358L151.181 374.642L167.538 385.031L166.413 385.737Z" fill="#334155"/>
<path d="M167.289 386.62L168.925 385.581L169.426 385.903L167.79 386.942L167.289 386.62Z" fill="#455A64"/>
<path d="M168.548 384.375L155.453 376.074L156.588 375.357L169.673 383.669L168.548 384.375Z" fill="#334155"/>
<path d="M169.43 385.259L171.065 384.22L171.566 384.542L169.931 385.581L169.43 385.259Z" fill="#455A64"/>
<path d="M171.829 382.31L157.609 373.282L158.744 372.565L172.954 381.594L171.829 382.31Z" fill="#334155"/>
<path d="M172.711 383.182L174.347 382.144L174.848 382.466L173.212 383.505L172.711 383.182Z" fill="#455A64"/>
<path d="M173.972 380.938L162.211 373.479L163.336 372.762L175.098 380.231L173.972 380.938Z" fill="#334155"/>
<path d="M174.852 381.821L176.487 380.782L176.998 381.104L175.353 382.133L174.852 381.821Z" fill="#455A64"/>
<path d="M177.249 378.871L170.688 374.705L171.813 373.988L178.374 378.154L177.249 378.871Z" fill="#334155"/>
<path d="M178.117 379.757L179.753 378.718L180.254 379.029L178.618 380.068L178.117 379.757Z" fill="#455A64"/>
<path d="M179.396 377.51L171.945 372.783L173.07 372.066L180.521 376.793L179.396 377.51Z" fill="#334155"/>
<path d="M180.273 378.381L181.909 377.353L182.41 377.664L180.775 378.703L180.273 378.381Z" fill="#455A64"/>
<path d="M182.669 375.432L173.688 369.738L174.822 369.021L183.794 374.715L182.669 375.432Z" fill="#334155"/>
<path d="M183.562 376.303L185.198 375.264L185.709 375.575L184.064 376.614L183.562 376.303Z" fill="#455A64"/>
<path d="M184.812 374.068L178.969 370.359L180.094 369.643L185.937 373.351L184.812 374.068Z" fill="#334155"/>
<path d="M185.719 374.945L187.345 373.906L187.855 374.218L186.22 375.257L185.719 374.945Z" fill="#455A64"/>
<path d="M188.092 371.992L185.539 370.371L186.664 369.654L189.217 371.275L188.092 371.992Z" fill="#334155"/>
<path d="M166.413 385.737L150.047 375.358L151.181 374.642L167.538 385.031L166.413 385.737Z" fill="#334155"/>
<path d="M171.829 382.31L157.609 373.282L158.744 372.565L172.954 381.594L171.829 382.31Z" fill="#334155"/>
<path d="M177.249 378.871L170.688 374.705L171.813 373.988L178.374 378.154L177.249 378.871Z" fill="#334155"/>
<path d="M182.669 375.432L173.688 369.738L174.822 369.021L183.794 374.715L182.669 375.432Z" fill="#334155"/>
<path d="M188.092 371.992L185.539 370.371L186.664 369.654L189.217 371.275L188.092 371.992Z" fill="#334155"/>
<path d="M188.977 372.864L190.612 371.825L191.123 372.137L189.478 373.176L188.977 372.864Z" fill="#455A64"/>
<path d="M190.236 370.635L188.969 369.824L190.094 369.107L191.361 369.918L190.236 370.635Z" fill="#334155"/>
<path d="M191.117 371.497L192.753 370.469L193.254 370.78L191.618 371.819L191.117 371.497Z" fill="#455A64"/>
<path d="M165.831 364.618L164.602 365.397L165.831 366.177L167.06 365.397L165.831 364.618Z" fill="#334155"/>
<path opacity="0.25" d="M165.831 364.618L164.602 365.397L165.831 366.177L167.06 365.397L165.831 364.618Z" fill="black"/>
<path d="M175.507 358.697L166.752 364.265C166.572 364.38 166.572 364.556 166.752 364.671L166.988 364.816C167.088 364.873 167.198 364.902 167.31 364.902C167.422 364.902 167.532 364.873 167.631 364.816L176.405 359.258C176.442 359.242 176.473 359.214 176.496 359.178C176.518 359.142 176.53 359.099 176.53 359.055C176.53 359.012 176.518 358.969 176.496 358.933C176.473 358.897 176.442 358.869 176.405 358.853L176.169 358.697C176.067 358.637 175.953 358.605 175.838 358.605C175.722 358.605 175.609 358.637 175.507 358.697Z" fill="#455A64"/>
<path d="M167.876 365.914L166.656 366.683L167.885 367.462L169.105 366.683L167.876 365.914Z" fill="#334155"/>
<path d="M177.539 359.995L168.765 365.564C168.729 365.58 168.697 365.608 168.675 365.644C168.653 365.68 168.641 365.723 168.641 365.766C168.641 365.81 168.653 365.853 168.675 365.889C168.697 365.925 168.729 365.953 168.765 365.969L169.011 366.114C169.111 366.171 169.221 366.2 169.333 366.2C169.445 366.2 169.555 366.171 169.654 366.114L178.419 360.556C178.598 360.442 178.598 360.255 178.419 360.151L178.182 359.995C178.083 359.939 177.973 359.909 177.861 359.909C177.749 359.909 177.639 359.939 177.539 359.995Z" fill="#455A64"/>
<path d="M166.413 385.737L150.047 375.358L151.181 374.642L167.538 385.031L166.413 385.737Z" fill="#334155"/>
<path d="M171.829 382.31L157.609 373.282L158.744 372.565L172.954 381.594L171.829 382.31Z" fill="#334155"/>
<path d="M177.249 378.871L170.688 374.705L171.813 373.988L178.374 378.154L177.249 378.871Z" fill="#334155"/>
<path d="M182.669 375.432L173.688 369.738L174.822 369.021L183.794 374.715L182.669 375.432Z" fill="#334155"/>
<path d="M166.413 385.737L150.047 375.358L151.181 374.642L167.538 385.031L166.413 385.737Z" fill="#334155"/>
<path d="M171.829 382.31L157.609 373.282L158.744 372.565L172.954 381.594L171.829 382.31Z" fill="#334155"/>
<path d="M177.249 378.871L170.688 374.705L171.813 373.988L178.374 378.154L177.249 378.871Z" fill="#334155"/>
<path d="M182.669 375.432L173.688 369.738L174.822 369.021L183.794 374.715L182.669 375.432Z" fill="#334155"/>
<path d="M188.092 371.992L185.539 370.371L186.664 369.654L189.217 371.275L188.092 371.992Z" fill="#334155"/>
<path opacity="0.25" d="M166.413 385.737L150.047 375.358L151.181 374.642L167.538 385.031L166.413 385.737Z" fill="black"/>
<path opacity="0.25" d="M171.829 382.31L157.609 373.282L158.744 372.565L172.954 381.594L171.829 382.31Z" fill="black"/>
<path opacity="0.25" d="M177.249 378.871L170.688 374.705L171.813 373.988L178.374 378.154L177.249 378.871Z" fill="black"/>
<path opacity="0.25" d="M182.669 375.432L173.688 369.738L174.822 369.021L183.794 374.715L182.669 375.432Z" fill="black"/>
<path opacity="0.25" d="M188.092 371.992L185.539 370.371L186.664 369.654L189.217 371.275L188.092 371.992Z" fill="black"/>
<path opacity="0.1" d="M174.421 394.972L202.785 412.946C203.071 413.104 203.387 413.187 203.707 413.187C204.027 413.187 204.343 413.104 204.629 412.946L233.872 394.391C233.982 394.347 234.077 394.268 234.144 394.163C234.212 394.058 234.248 393.932 234.248 393.804C234.248 393.675 234.212 393.55 234.144 393.445C234.077 393.34 233.982 393.26 233.872 393.217L205.508 375.243C205.224 375.085 204.91 375.002 204.591 375.002C204.272 375.002 203.958 375.085 203.674 375.243L174.421 393.809C174.31 393.849 174.213 393.927 174.145 394.032C174.076 394.136 174.039 394.262 174.039 394.391C174.039 394.519 174.076 394.645 174.145 394.749C174.213 394.854 174.31 394.932 174.421 394.972Z" fill="#334155"/>
<path d="M179.437 393.365L177.82 394.394L179.437 395.422L181.054 394.394L179.437 393.365Z" fill="#334155"/>
<path d="M185.806 389.841L180.474 393.228C180.332 393.311 180.332 393.457 180.474 393.55L180.908 393.831C180.988 393.872 181.076 393.893 181.164 393.893C181.252 393.893 181.339 393.872 181.419 393.831L186.751 390.444C186.893 390.35 186.893 390.215 186.751 390.122L186.316 389.841C186.237 389.8 186.149 389.779 186.061 389.779C185.973 389.779 185.886 389.8 185.806 389.841Z" fill="#455A64"/>
<path d="M188.593 387.556L186.977 388.574L188.593 389.602L190.21 388.574L188.593 387.556Z" fill="#334155"/>
<path opacity="0.25" d="M188.593 387.556L186.977 388.574L188.593 389.602L190.21 388.574L188.593 387.556Z" fill="black"/>
<path d="M195.056 384.047L189.724 387.465C189.582 387.558 189.582 387.693 189.724 387.787L190.168 388.067C190.246 388.108 190.332 388.129 190.418 388.129C190.505 388.129 190.591 388.108 190.669 388.067L196.001 384.68C196.143 384.597 196.143 384.452 196.001 384.358L195.566 384.078C195.489 384.032 195.403 384.005 195.314 384C195.226 383.995 195.138 384.011 195.056 384.047Z" fill="#455A64"/>
<path d="M197.742 381.738L196.125 382.767L197.751 383.785L199.358 382.767L197.742 381.738Z" fill="#334155"/>
<path opacity="0.4" d="M197.742 381.738L196.125 382.767L197.751 383.785L199.358 382.767L197.742 381.738Z" fill="black"/>
<path d="M204.308 378.257L198.966 381.634C198.824 381.727 198.824 381.873 198.966 381.956L199.41 382.236C199.488 382.277 199.574 382.298 199.661 382.298C199.747 382.298 199.833 382.277 199.911 382.236L205.253 378.849C205.281 378.835 205.305 378.813 205.322 378.784C205.339 378.756 205.348 378.722 205.348 378.688C205.348 378.654 205.339 378.621 205.322 378.592C205.305 378.564 205.281 378.541 205.253 378.527L204.809 378.257C204.732 378.211 204.646 378.187 204.558 378.187C204.471 378.187 204.384 378.211 204.308 378.257Z" fill="#455A64"/>
<path d="M214.554 389.188C214.418 389.106 214.276 389.037 214.129 388.98L213.76 388.803C212.78 388.39 211.767 388.077 210.735 387.868L209.733 387.671C209.056 387.563 208.374 387.497 207.69 387.474C207.341 387.474 206.991 387.474 206.65 387.474C206.31 387.474 206.102 387.474 205.818 387.474L205.138 387.526L204.135 387.629L203.559 387.733L203.2 387.796L202.689 387.91C202.074 388.055 201.488 388.222 200.921 388.419L200.316 388.658C200.071 388.747 199.832 388.852 199.597 388.97C199.363 389.071 199.136 389.189 198.917 389.323L198.264 389.697C193.537 392.72 193.537 397.624 198.264 400.647C202.992 403.67 210.744 403.66 215.509 400.647C220.274 397.634 220.237 392.731 215.509 389.718C215.2 389.523 214.881 389.346 214.554 389.188ZM213.609 399.463C211.671 400.61 209.504 401.214 207.303 401.218C207.199 401.218 207.066 401.218 206.944 401.218H206.556H206.197C204.076 401.183 201.994 400.588 200.127 399.483C196.402 397.115 196.402 393.25 200.127 390.923C200.552 390.662 200.99 390.429 201.441 390.227C201.791 390.071 202.159 389.936 202.528 389.811L203.096 389.645L203.568 389.531C203.762 389.478 203.957 389.437 204.154 389.406L204.674 389.323H204.835L205.582 389.25H205.714C205.976 389.229 206.238 389.229 206.499 389.25C206.716 389.235 206.934 389.235 207.152 389.25C208.066 389.26 208.977 389.361 209.874 389.551C211.2 389.803 212.478 390.294 213.656 391.006C217.344 393.281 217.344 397.104 213.628 399.463H213.609Z" fill="#334155"/>
<path opacity="0.25" d="M210.73 387.87L209.889 389.46C208.991 389.27 208.08 389.169 207.166 389.158C206.948 389.143 206.731 389.143 206.513 389.158C206.252 389.137 205.99 389.137 205.729 389.158H205.596C205.35 389.158 205.095 389.158 204.849 389.231H204.689L204.169 389.314C203.971 389.345 203.776 389.386 203.582 389.439L203.11 389.553L202.542 389.719C202.174 389.844 201.805 389.979 201.455 390.135C201.002 390.331 200.563 390.564 200.141 390.831L198.25 389.636L198.902 389.262C199.122 389.128 199.349 389.01 199.583 388.909C199.817 388.791 200.057 388.687 200.302 388.597L200.907 388.358C201.474 388.161 202.06 387.995 202.675 387.849L203.185 387.735L203.545 387.673L204.121 387.569L205.123 387.465L205.804 387.413C206.088 387.413 206.353 387.413 206.636 387.413C206.92 387.413 207.326 387.413 207.676 387.413C208.366 387.413 209.047 387.517 209.718 387.61L210.73 387.87Z" fill="black"/>
<path opacity="0.4" d="M215.509 389.726L213.618 390.91C212.439 390.199 211.161 389.707 209.836 389.456L210.677 387.866C211.71 388.074 212.723 388.387 213.703 388.801L214.072 388.978C214.218 389.034 214.361 389.104 214.497 389.186C214.843 389.345 215.181 389.525 215.509 389.726Z" fill="black"/>
<path d="M133.925 366.872C134.195 366.689 134.488 366.553 134.795 366.466C135.102 366.372 135.421 366.327 135.74 366.331C136.06 366.336 136.378 366.388 136.686 366.487C137.017 366.606 137.334 366.766 137.631 366.965C137.969 367.152 138.264 367.422 138.491 367.755C138.564 367.864 138.609 367.993 138.624 368.127C138.639 368.261 138.623 368.398 138.577 368.523L141.413 369.303C141.451 369.311 141.486 369.329 141.517 369.355C141.574 369.355 141.602 369.417 141.612 369.458C141.621 369.5 141.611 369.531 141.564 369.562L140.704 370.113C140.624 370.164 140.531 370.186 140.439 370.175H140.203L137.678 369.469L137.092 369.843L138.907 370.996C138.974 370.996 139.011 371.079 139.021 371.131C139.025 371.156 139.022 371.182 139.012 371.204C139.002 371.227 138.985 371.245 138.964 371.256L138.132 371.786C138.07 371.803 138.005 371.803 137.943 371.786C137.867 371.779 137.793 371.754 137.726 371.713L132.233 368.233C132.185 368.199 132.146 368.152 132.119 368.097C132.115 368.073 132.118 368.047 132.128 368.025C132.138 368.002 132.155 367.984 132.176 367.973L133.925 366.872ZM135.816 368.949L136.544 368.492C136.686 368.417 136.795 368.282 136.846 368.118C136.846 367.994 136.761 367.848 136.525 367.703C136.328 367.562 136.098 367.489 135.863 367.495C135.657 367.513 135.457 367.58 135.277 367.692L134.558 368.149L135.816 368.949Z" fill="#455A64"/>
<path d="M144.56 365.945C144.622 365.927 144.687 365.927 144.749 365.945C144.825 365.952 144.899 365.976 144.966 366.018L145.865 366.589C145.931 366.589 145.969 366.672 145.978 366.724C145.982 366.749 145.979 366.774 145.969 366.797C145.959 366.82 145.942 366.838 145.921 366.849L142.896 368.76C142.834 368.779 142.769 368.779 142.707 368.76C142.633 368.753 142.562 368.729 142.499 368.688L137.006 365.197C136.978 365.186 136.953 365.168 136.934 365.145C136.914 365.121 136.9 365.093 136.892 365.062C136.888 365.038 136.892 365.014 136.902 364.994C136.912 364.973 136.929 364.957 136.949 364.947L139.918 363.057C139.979 363.034 140.045 363.034 140.107 363.057C140.183 363.063 140.257 363.088 140.324 363.129L141.222 363.701C141.274 363.729 141.314 363.777 141.336 363.836C141.342 363.859 141.339 363.884 141.328 363.906C141.318 363.927 141.3 363.943 141.279 363.95L139.312 365.197L140.258 365.779L142.083 364.625C142.144 364.603 142.21 364.603 142.272 364.625C142.348 364.632 142.422 364.657 142.489 364.698L143.387 365.27C143.415 365.28 143.44 365.298 143.459 365.322C143.479 365.345 143.493 365.374 143.501 365.405C143.501 365.457 143.501 365.488 143.444 365.519L141.619 366.682L142.565 367.285L144.56 365.945Z" fill="#455A64"/>
<path d="M143.188 360.993C143.456 360.816 143.746 360.683 144.048 360.598C144.357 360.51 144.675 360.472 144.994 360.484C145.314 360.501 145.631 360.56 145.939 360.66C146.286 360.772 146.619 360.929 146.932 361.128C147.207 361.298 147.459 361.511 147.679 361.761C147.829 361.93 147.922 362.15 147.943 362.385C147.949 362.599 147.886 362.809 147.764 362.977C147.595 363.197 147.389 363.38 147.159 363.517L146.346 364.037L148.076 365.138C148.142 365.138 148.18 365.221 148.189 365.273C148.195 365.296 148.193 365.321 148.182 365.343C148.171 365.364 148.154 365.38 148.133 365.387L147.301 365.927C147.238 365.94 147.174 365.94 147.111 365.927C147.035 365.919 146.961 365.894 146.894 365.855L141.401 362.364C141.376 362.351 141.353 362.333 141.335 362.309C141.317 362.286 141.304 362.258 141.297 362.229C141.297 362.229 141.297 362.146 141.344 362.115L143.188 360.993ZM145.031 363.195L145.816 362.696C145.889 362.662 145.953 362.609 146.004 362.542C146.055 362.476 146.091 362.397 146.109 362.312C146.109 362.18 145.996 362.035 145.769 361.876C145.561 361.738 145.322 361.666 145.079 361.668C144.866 361.666 144.657 361.727 144.474 361.845L143.689 362.343L145.031 363.195Z" fill="#455A64"/>
<path d="M147.971 360.773C147.694 360.596 147.446 360.371 147.233 360.108C147.069 359.912 146.955 359.672 146.902 359.412C146.868 359.172 146.911 358.925 147.025 358.716C147.184 358.439 147.41 358.216 147.677 358.072C147.991 357.872 148.333 357.732 148.689 357.657C149.054 357.585 149.425 357.56 149.795 357.584C150.174 357.605 150.549 357.678 150.911 357.802C151.278 357.917 151.633 358.074 151.97 358.27L152.745 358.747L153.483 359.236C153.757 359.416 154.005 359.64 154.22 359.901C154.393 360.1 154.514 360.348 154.57 360.617C154.604 360.858 154.561 361.105 154.447 361.314C154.283 361.586 154.058 361.807 153.795 361.958C153.479 362.154 153.138 362.294 152.783 362.373C152.419 362.45 152.047 362.474 151.677 362.446C151.298 362.425 150.923 362.351 150.561 362.228C150.196 362.108 149.841 361.952 149.502 361.76L148.746 361.293C148.453 361.106 148.207 360.94 147.971 360.773ZM152.244 359.932L151.913 359.714L151.535 359.464L151.157 359.225L150.816 359.028C150.668 358.944 150.513 358.874 150.353 358.82C150.202 358.771 150.047 358.736 149.89 358.716C149.739 358.696 149.587 358.696 149.436 358.716C149.29 358.745 149.149 358.801 149.02 358.882C148.909 358.944 148.814 359.038 148.746 359.153C148.714 359.243 148.714 359.343 148.746 359.433C148.777 359.546 148.832 359.649 148.907 359.734C149.004 359.844 149.111 359.942 149.228 360.025L149.54 360.243L149.918 360.482L150.306 360.721L150.656 360.929C150.952 361.093 151.272 361.198 151.601 361.241C151.903 361.278 152.207 361.209 152.471 361.043C152.736 360.877 152.84 360.69 152.783 360.493C152.66 360.25 152.472 360.054 152.244 359.932Z" fill="#455A64"/>
<path d="M152.687 354.968C152.957 354.786 153.25 354.65 153.557 354.563C153.865 354.469 154.183 354.424 154.503 354.428C154.823 354.432 155.141 354.485 155.448 354.584C155.778 354.704 156.095 354.864 156.393 355.062C156.732 355.249 157.026 355.519 157.254 355.851C157.326 355.961 157.372 356.089 157.387 356.224C157.402 356.358 157.385 356.495 157.339 356.62L160.175 357.399C160.216 357.408 160.254 357.426 160.289 357.451C160.345 357.451 160.374 357.514 160.383 357.555C160.393 357.597 160.383 357.628 160.336 357.659L159.476 358.21C159.395 358.26 159.303 358.281 159.211 358.272H158.975L156.441 357.566L155.855 357.94L157.679 359.093C157.731 359.121 157.771 359.169 157.793 359.228C157.797 359.253 157.794 359.278 157.784 359.301C157.773 359.323 157.757 359.341 157.736 359.352L156.904 359.882C156.843 359.905 156.776 359.905 156.715 359.882C156.638 359.876 156.564 359.851 156.497 359.81L151.014 356.298C150.948 356.298 150.91 356.215 150.9 356.163C150.896 356.138 150.899 356.113 150.909 356.09C150.92 356.068 150.936 356.049 150.957 356.038L152.687 354.968ZM154.578 357.046L155.297 356.589C155.44 356.518 155.553 356.387 155.609 356.225C155.609 356.09 155.524 355.945 155.287 355.799C155.09 355.659 154.86 355.587 154.625 355.592C154.419 355.61 154.219 355.677 154.039 355.789L153.321 356.246L154.578 357.046Z" fill="#455A64"/>
<path d="M158.78 351.101C158.842 351.083 158.907 351.083 158.969 351.101C159.045 351.108 159.119 351.133 159.186 351.174L160.084 351.745C160.151 351.745 160.188 351.828 160.198 351.88C160.202 351.905 160.199 351.931 160.189 351.953C160.179 351.976 160.162 351.994 160.141 352.005L159.016 352.711L163.384 355.485C163.409 355.498 163.432 355.517 163.45 355.54C163.468 355.563 163.481 355.591 163.488 355.62C163.488 355.62 163.488 355.703 163.441 355.735L162.599 356.264C162.538 356.288 162.471 356.288 162.41 356.264C162.337 356.265 162.265 356.243 162.202 356.202L157.834 353.428L156.719 354.145C156.657 354.167 156.591 354.167 156.53 354.145C156.453 354.138 156.379 354.114 156.312 354.072L155.367 353.501C155.3 353.501 155.263 353.418 155.253 353.366C155.244 353.314 155.253 353.283 155.31 353.252L158.78 351.101Z" fill="#455A64"/>
<path d="M167.639 351.774L195.322 334.217L189.394 330.456L161.711 348.014L167.639 351.774Z" fill="#334155"/>
<g opacity="0.3">
<path d="M181.479 354.82C181.416 354.838 181.352 354.842 181.288 354.832C181.225 354.823 181.164 354.799 181.108 354.764C181.053 354.728 181.005 354.681 180.966 354.624C180.927 354.568 180.899 354.504 180.883 354.436C180.867 354.368 180.863 354.297 180.872 354.227C180.881 354.157 180.902 354.09 180.934 354.029C180.967 353.968 181.01 353.915 181.061 353.873C181.112 353.83 181.171 353.799 181.233 353.781L204.151 339.237C204.206 339.202 204.267 339.179 204.33 339.17C204.393 339.161 204.457 339.166 204.519 339.185C204.58 339.203 204.638 339.234 204.688 339.277C204.739 339.32 204.781 339.373 204.812 339.434C204.844 339.495 204.865 339.562 204.873 339.631C204.881 339.7 204.876 339.771 204.86 339.838C204.843 339.906 204.814 339.969 204.775 340.025C204.737 340.08 204.688 340.126 204.633 340.161L181.724 354.706C181.652 354.766 181.568 354.805 181.479 354.82Z" fill="#455A64"/>
<path d="M185.426 357.334C185.3 357.369 185.168 357.347 185.057 357.274C184.946 357.201 184.866 357.083 184.835 356.945C184.804 356.807 184.823 356.661 184.89 356.539C184.956 356.418 185.064 356.33 185.189 356.295L208.098 341.751C208.208 341.7 208.331 341.695 208.443 341.737C208.556 341.779 208.652 341.864 208.712 341.977C208.772 342.09 208.793 342.223 208.77 342.351C208.748 342.48 208.683 342.595 208.589 342.675L185.672 357.22C185.602 357.284 185.516 357.324 185.426 357.334Z" fill="#455A64"/>
<path d="M189.443 359.85C189.324 359.869 189.202 359.838 189.102 359.765C189.001 359.691 188.929 359.58 188.899 359.451C188.868 359.323 188.882 359.187 188.937 359.069C188.992 358.951 189.085 358.859 189.197 358.811L212.106 344.267C212.219 344.195 212.353 344.176 212.479 344.213C212.605 344.25 212.712 344.34 212.777 344.464C212.839 344.587 212.855 344.732 212.822 344.868C212.788 345.004 212.708 345.12 212.597 345.191L189.68 359.736C189.61 359.794 189.529 359.833 189.443 359.85Z" fill="#455A64"/>
<path d="M193.338 362.354C193.213 362.39 193.079 362.37 192.968 362.298C192.856 362.226 192.775 362.108 192.742 361.97C192.71 361.832 192.728 361.686 192.794 361.563C192.859 361.44 192.967 361.351 193.092 361.315L216.01 346.771C216.065 346.736 216.126 346.713 216.189 346.705C216.253 346.696 216.317 346.7 216.378 346.719C216.44 346.737 216.497 346.769 216.548 346.811C216.598 346.854 216.64 346.907 216.672 346.968C216.703 347.029 216.724 347.096 216.732 347.165C216.74 347.235 216.736 347.305 216.719 347.373C216.702 347.44 216.674 347.503 216.635 347.559C216.596 347.614 216.547 347.661 216.492 347.695L193.584 362.24C193.513 362.303 193.428 362.342 193.338 362.354Z" fill="#455A64"/>
<path d="M197.3 364.866C197.215 364.864 197.131 364.838 197.056 364.791C196.982 364.744 196.919 364.677 196.875 364.596C196.812 364.471 196.796 364.325 196.83 364.187C196.863 364.05 196.944 363.932 197.055 363.858L219.972 349.314C220.028 349.279 220.089 349.256 220.152 349.248C220.215 349.239 220.279 349.243 220.341 349.262C220.402 349.28 220.46 349.312 220.51 349.354C220.56 349.397 220.603 349.45 220.634 349.511C220.666 349.572 220.686 349.639 220.695 349.708C220.703 349.778 220.698 349.848 220.682 349.916C220.665 349.983 220.636 350.046 220.597 350.102C220.558 350.157 220.51 350.204 220.455 350.238L197.546 364.783C197.471 364.831 197.387 364.86 197.3 364.866Z" fill="#455A64"/>
</g>
<g opacity="0.3">
<path d="M213.131 374.89C213.045 374.888 212.961 374.862 212.887 374.815C212.813 374.768 212.75 374.701 212.706 374.62C212.674 374.559 212.653 374.492 212.645 374.423C212.636 374.353 212.641 374.283 212.657 374.215C212.674 374.147 212.703 374.084 212.742 374.029C212.781 373.973 212.83 373.927 212.885 373.893L235.803 359.348C235.915 359.278 236.047 359.259 236.171 359.296C236.296 359.333 236.401 359.423 236.465 359.545C236.529 359.668 236.546 359.813 236.512 359.95C236.479 360.086 236.397 360.202 236.286 360.272L213.368 374.817C213.295 374.862 213.214 374.887 213.131 374.89Z" fill="#455A64"/>
<path d="M217.088 377.392C217.026 377.41 216.961 377.414 216.898 377.405C216.834 377.395 216.773 377.372 216.718 377.336C216.662 377.3 216.614 377.253 216.575 377.197C216.537 377.14 216.508 377.076 216.492 377.008C216.476 376.94 216.472 376.869 216.481 376.799C216.49 376.729 216.511 376.662 216.544 376.601C216.576 376.54 216.619 376.487 216.671 376.445C216.722 376.402 216.78 376.371 216.842 376.354L239.76 361.809C239.815 361.774 239.876 361.752 239.939 361.743C240.002 361.734 240.067 361.739 240.128 361.757C240.19 361.775 240.247 361.807 240.298 361.849C240.348 361.892 240.39 361.945 240.422 362.006C240.453 362.067 240.474 362.134 240.482 362.203C240.49 362.273 240.486 362.343 240.469 362.411C240.452 362.478 240.424 362.541 240.385 362.597C240.346 362.652 240.297 362.699 240.242 362.733L217.334 377.278C217.264 377.343 217.178 377.382 217.088 377.392Z" fill="#455A64"/>
<path d="M221.04 379.906C220.955 379.904 220.872 379.878 220.799 379.831C220.726 379.784 220.666 379.717 220.624 379.636C220.59 379.576 220.568 379.509 220.559 379.439C220.55 379.369 220.554 379.298 220.571 379.23C220.588 379.162 220.617 379.098 220.657 379.043C220.697 378.988 220.747 378.942 220.803 378.909L243.712 364.364C243.821 364.314 243.944 364.309 244.057 364.35C244.17 364.392 244.265 364.477 244.326 364.59C244.386 364.703 244.406 364.836 244.384 364.965C244.361 365.093 244.297 365.208 244.203 365.289L221.285 379.833C221.21 379.878 221.125 379.903 221.04 379.906Z" fill="#455A64"/>
<path d="M224.991 382.411C224.904 382.413 224.819 382.389 224.743 382.342C224.668 382.294 224.607 382.225 224.565 382.141C224.533 382.08 224.512 382.013 224.504 381.944C224.496 381.874 224.5 381.804 224.517 381.736C224.534 381.669 224.562 381.605 224.601 381.55C224.641 381.495 224.689 381.448 224.745 381.414L247.653 366.869C247.709 366.822 247.772 366.788 247.841 366.77C247.909 366.752 247.98 366.75 248.048 366.765C248.117 366.779 248.182 366.81 248.24 366.854C248.297 366.899 248.345 366.956 248.38 367.023C248.415 367.089 248.437 367.163 248.445 367.24C248.452 367.316 248.444 367.394 248.422 367.467C248.399 367.54 248.363 367.607 248.315 367.663C248.268 367.719 248.21 367.764 248.145 367.794L225.227 382.338C225.156 382.387 225.074 382.412 224.991 382.411Z" fill="#455A64"/>
<path d="M228.952 384.924C228.866 384.922 228.782 384.896 228.707 384.849C228.633 384.802 228.571 384.735 228.526 384.654C228.494 384.593 228.473 384.526 228.465 384.457C228.457 384.387 228.461 384.317 228.478 384.249C228.494 384.181 228.523 384.118 228.562 384.063C228.602 384.007 228.65 383.961 228.706 383.927L251.614 369.382C251.727 369.31 251.861 369.291 251.987 369.328C252.113 369.365 252.22 369.455 252.285 369.579C252.317 369.64 252.338 369.707 252.347 369.776C252.355 369.846 252.351 369.916 252.334 369.984C252.317 370.052 252.288 370.115 252.249 370.17C252.21 370.226 252.161 370.272 252.106 370.307L229.197 384.851C229.121 384.895 229.037 384.919 228.952 384.924Z" fill="#455A64"/>
<path d="M232.927 387.461C232.843 387.461 232.761 387.437 232.688 387.392C232.615 387.346 232.554 387.28 232.511 387.201C232.446 387.077 232.428 386.93 232.462 386.791C232.496 386.653 232.578 386.535 232.691 386.463L255.599 371.919C255.709 371.868 255.832 371.863 255.945 371.905C256.058 371.946 256.153 372.032 256.213 372.145C256.273 372.258 256.294 372.391 256.271 372.519C256.249 372.648 256.185 372.763 256.091 372.843L233.173 387.388C233.097 387.433 233.013 387.458 232.927 387.461Z" fill="#455A64"/>
</g>
<path d="M346.891 159.484L323.869 168.294L323.227 169.448L345.123 207.586L366.926 196.781L367.578 195.628L346.891 159.484Z" fill="#37474F"/>
<path d="M347.541 158.332L323.867 168.295L345.773 206.434L367.576 195.629L347.541 158.332Z" fill="#455A64"/>
<path d="M347.727 162.146L327.617 171.298L345.836 202.476L364.386 192.617L347.727 162.146Z" fill="#F0F0F0"/>
<path opacity="0.15" d="M343.31 165.446L342.185 164.096C341.561 163.327 339.736 163.254 338.101 163.919L334.971 165.135C333.345 165.81 332.522 166.974 333.146 167.732L334.271 169.114L343.31 165.446Z" fill="black"/>
<path d="M340.244 160.255C339.988 160.012 339.675 159.853 339.341 159.796C339.006 159.739 338.664 159.787 338.353 159.933L337.152 160.473C337.152 160.473 334.713 157.481 331.792 158.395C328.87 159.31 331.385 162.738 331.385 162.738L330.118 163.341C329.419 163.673 329.173 164.317 329.485 164.795L330.118 165.657L340.972 161.097L340.244 160.255Z" fill="#334155"/>
<path opacity="0.15" d="M340.244 160.255C339.988 160.012 339.675 159.853 339.341 159.796C339.006 159.739 338.664 159.787 338.353 159.933L337.152 160.473C337.152 160.473 334.713 157.481 331.792 158.395C328.87 159.31 331.385 162.738 331.385 162.738L330.118 163.341C329.419 163.673 329.173 164.317 329.485 164.795L330.118 165.657L340.972 161.097L340.244 160.255Z" fill="black"/>
<path d="M339.649 161.69C338.618 162.075 338.155 162.293 339.11 163.477C340.065 164.662 341.086 165.815 341.086 165.815L336.283 167.841C336.283 167.841 334.931 166.137 334.392 165.472C334.186 165.131 333.884 164.872 333.533 164.736C333.182 164.599 332.8 164.591 332.444 164.714L331.82 164.184L339.469 161.14L339.649 161.69Z" fill="#334155"/>
<path opacity="0.4" d="M339.649 161.69C338.618 162.075 338.155 162.293 339.11 163.477C340.065 164.662 341.086 165.815 341.086 165.815L336.283 167.841C336.283 167.841 334.931 166.137 334.392 165.472C334.186 165.131 333.884 164.872 333.533 164.736C333.182 164.599 332.8 164.591 332.444 164.714L331.82 164.184L339.469 161.14L339.649 161.69Z" fill="black"/>
<path d="M343.638 165.584L342.513 164.202C341.889 163.433 340.064 163.361 338.429 164.026L335.299 165.304C333.673 165.979 332.85 167.142 333.474 167.901L334.59 169.283L343.638 165.584Z" fill="#334155"/>
<path opacity="0.15" d="M343.638 165.584L342.513 164.202C341.889 163.433 340.064 163.361 338.429 164.026L335.299 165.304C333.673 165.979 332.85 167.142 333.474 167.901L334.59 169.283L343.638 165.584Z" fill="black"/>
<path d="M358.288 177.928C358.288 177.928 358.609 173.575 357.342 172.204C356.075 170.833 351.253 171.56 348.833 170.646C346.186 169.669 346.819 172.838 348.152 173.762C350.97 175.632 356.463 176.1 358.288 177.928Z" fill="#B16668"/>
<path d="M401.221 308.373C401.92 308.664 402.318 310.108 402.63 313.63C402.819 315.812 403.499 318.7 400.464 320.466C399.356 321.094 398.124 321.414 396.876 321.4C395.629 321.385 394.404 321.036 393.307 320.383C390.688 318.596 389.866 314.513 386.793 311.864C384.099 309.547 379.759 307.22 378.284 303.636C377.036 300.675 377.036 296.446 381.508 296.675C386.963 296.955 390.017 301.672 393.742 301.766C395.765 301.818 400.521 308.093 401.221 308.373Z" fill="#263238"/>
<path d="M401.231 306.639V310.192C401.231 311.927 394.509 314.525 392.628 310.556C392.486 310.213 391.758 305.361 391.758 305.361L401.231 306.639Z" fill="#B16668"/>
<path d="M372.429 327.611C372.429 327.611 373.611 327.611 374.083 332.92C374.263 334.946 374.698 339.101 374.083 340.608C373.469 342.114 370.027 342.789 366.246 343.153C363.409 343.433 360.819 344.95 358.171 346.592C355.667 348.139 352.856 348.988 349.984 349.064H349.804C347.343 349.149 344.892 348.682 342.6 347.693C340.803 346.862 338.818 345.532 338.241 343.33C338.158 343.037 338.126 342.731 338.147 342.426C338.228 341.895 338.488 341.416 338.875 341.085C339.26 340.759 339.683 340.49 340.132 340.286C342.723 338.935 345.342 337.636 347.894 336.213C350.447 334.79 352.849 333.408 355.231 331.818C356.413 331.018 357.566 330.177 358.682 329.263C359.164 328.868 359.694 328.483 360.166 328.078C360.422 327.86 360.904 326.904 361.263 326.925L372.429 327.611Z" fill="#263238"/>
<path d="M372.124 323.675C372.124 323.675 372.124 326.345 372.124 327.83C372.124 329.316 370.498 331.633 366.225 331.498C363.218 331.394 361.11 330.521 361.223 327.83V323.945L372.124 323.675Z" fill="#B16668"/>
<path d="M403.115 263.077C402.421 257.246 401.208 251.505 399.494 245.935C399.494 245.935 400.497 231.12 400.941 217.074C401.332 202.684 400.969 188.282 399.854 173.938C399.854 173.938 356.429 169.419 355.71 186.945C354.992 204.472 355.843 247.94 355.843 256.376C355.843 264.095 356.703 271.772 357.979 286.12C359.199 299.875 361.08 325.183 361.08 325.183C366.186 328.175 372.426 324.861 372.426 324.861C372.426 324.861 375.952 289.891 376.851 281.05C377.479 274.708 376.889 268.291 375.12 262.214C375.12 262.214 375.631 255.482 377.238 240.584C378.373 230.06 379.318 217.5 379.318 217.5C379.318 217.5 380.179 234.579 381.077 242.849C381.918 250.516 382.92 253.581 385.596 268.614C388.196 283.159 391.203 307.365 391.203 307.365C396.308 310.358 401.347 306.815 401.347 306.815C401.347 306.815 404.496 273.829 403.115 263.077Z" fill="#37474F"/>
<path d="M379.297 217.496L381.367 202.848C381.367 202.848 389.82 199.897 394.122 194.37C394.122 194.37 391.824 200.811 383.949 204.271L380.791 216.603L379.921 228.031L379.297 217.496Z" fill="#263238"/>
<path d="M390.872 115.156C397.651 113.359 401.925 116.964 404.43 127.083C406.567 135.758 409.706 153.71 410.925 160.422C411.379 162.905 412.268 165.751 407.512 168.889C400.618 173.272 393.503 177.223 386.202 180.722L383.602 170.021L394.106 146.396L390.872 115.156Z" fill="#37474F"/>
<path d="M372.164 110.435L374.187 126.092L388.237 125.302L387.008 107.007L372.164 110.435Z" fill="#B16668"/>
<path d="M362.958 91.1133C362.958 91.1133 359.526 96.6507 359.895 97.2117C360.264 97.7727 362.731 98.2506 362.731 98.2506L362.958 91.1133Z" fill="#9A4A4D"/>
<path d="M364.098 94.7286C363.27 94.7141 362.464 94.4301 361.783 93.9124C361.102 93.3948 360.575 92.6667 360.27 91.8204C359.966 90.974 359.896 90.0474 360.07 89.1576C360.245 88.2678 360.656 87.4548 361.25 86.8214C361.845 86.188 362.598 85.7627 363.413 85.5993C364.228 85.4358 365.068 85.5415 365.828 85.903C366.589 86.2645 367.234 86.8656 367.684 87.6303C368.133 88.3949 368.366 89.2888 368.353 90.1989C368.333 91.4187 367.874 92.5802 367.077 93.4291C366.279 94.278 365.208 94.7453 364.098 94.7286ZM364.212 86.5524C363.569 86.5422 362.937 86.7418 362.397 87.1259C361.857 87.51 361.433 88.0615 361.178 88.7105C360.924 89.3595 360.85 90.077 360.966 90.7721C361.082 91.4673 361.384 92.1089 361.832 92.6159C362.28 93.1229 362.855 93.4725 363.484 93.6205C364.113 93.7685 364.768 93.7082 365.365 93.4472C365.963 93.1863 366.477 92.7365 366.842 92.1546C367.207 91.5727 367.407 90.8849 367.417 90.1782C367.427 89.2311 367.095 88.3181 366.495 87.6387C365.894 86.9593 365.074 86.5688 364.212 86.5524Z" fill="#263238"/>
<path d="M372.52 75.7914C365.694 77.2458 363.689 80.4976 362.876 92.3516C362.025 104.735 363.122 108.652 364.578 110.346C365.523 111.488 371.121 111.79 373.938 110.99C377.465 109.951 385.444 107.042 389.254 100.871C393.726 93.5983 395.022 83.6767 390.398 79.5211C383.894 73.6512 375.29 75.1888 372.52 75.7914Z" fill="#B16668"/>
<path d="M372.274 111.3C369.343 111.653 365.401 111.3 364.578 110.333C367.079 110.316 369.555 109.784 371.877 108.765L372.274 111.3Z" fill="#9A4A4D"/>
<path d="M361.603 79.5082C361.603 79.664 361.603 79.8199 361.65 79.9653C361.771 80.5314 362.003 81.0617 362.329 81.5192C362.656 81.9767 363.069 82.3505 363.541 82.6145C364.235 83.0269 365.003 83.2647 365.791 83.3106C366.075 83.3106 368.07 83.4249 368.145 83.1756C367.771 83.9355 367.521 84.7619 367.408 85.617C367.4 86.0481 367.494 86.4741 367.681 86.853C367.869 87.2319 368.143 87.5507 368.476 87.7779C368.9 87.947 369.308 88.1591 369.696 88.4117C370.329 88.9831 370.083 90.2921 370.358 91.0505C370.443 91.2998 372.003 93.5751 372.078 93.2738C372.078 93.2738 373.27 88.4948 376.938 89.1181C380.606 89.7415 381.06 94.988 378.687 98.0943C376.314 101.201 374.149 99.9644 374.149 99.9644C374.149 99.9644 374.149 106.811 376.872 110.748C376.872 110.748 380.001 111.922 385.806 110.665C389.371 109.896 394.467 105.097 396.651 99.9644C401.284 89.0974 401.737 79.2693 395.422 76.2045C394.552 69.0568 387.48 66.9478 381.921 66.7608C378.318 66.6465 374.688 67.0413 371.105 66.5426C369.402 66.2712 367.713 65.9002 366.046 65.431C365.014 65.0758 363.928 64.9487 362.851 65.057C361.789 65.3285 360.837 65.97 360.135 66.8856C359.432 67.8013 359.019 68.9419 358.955 70.1372C358.873 71.384 359.075 72.6336 359.542 73.7734C360.04 74.9409 360.83 75.9284 361.82 76.62C361.881 76.6552 361.93 76.7095 361.962 76.7759C361.981 76.8542 361.981 76.9365 361.962 77.0148C361.727 77.821 361.606 78.6618 361.603 79.5082Z" fill="#263238"/>
<path d="M394.926 77.0918L399.029 74.5256C398.885 74.2112 398.684 73.9324 398.438 73.7059C398.193 73.4795 397.908 73.3103 397.601 73.2085C397.295 73.1067 396.972 73.0746 396.654 73.114C396.336 73.1533 396.028 73.2635 395.749 73.4376C395.471 73.6118 395.227 73.8464 395.034 74.1271C394.841 74.4078 394.701 74.7288 394.624 75.0705C394.547 75.4123 394.534 75.7677 394.586 76.1152C394.638 76.4627 394.753 76.7949 394.926 77.0918Z" fill="#263238"/>
<path d="M371.97 95.9537L372.168 90.7591C371.541 90.7302 370.93 90.9761 370.468 91.4427C370.006 91.9093 369.732 92.5585 369.705 93.2473C369.679 93.9361 369.903 94.6083 370.327 95.1158C370.752 95.6234 371.343 95.9247 371.97 95.9537Z" fill="#263238"/>
<path d="M360.378 89.0977L372.991 91.1131L372.471 92.0793L360.359 90.147L360.378 89.0977Z" fill="#263238"/>
<path d="M401.172 123.383C399.678 116.952 397.569 114.853 392.473 114.708C389.846 114.903 387.232 115.27 384.645 115.809C384.115 118.521 377.724 120.37 371.257 118.926C369.366 119.539 364.251 121.056 362.654 121.7C358.078 123.518 355.865 128.744 355.563 145.304C355.563 145.304 354.683 184.596 355.563 191.38C367.097 196.325 379.067 196.096 385.675 194.496C399.432 191.109 401.058 184.824 401.058 184.824C401.058 184.824 400.34 169.053 399.876 157.064C400.557 149.428 401.597 143.683 401.975 137.595C402.313 132.84 402.042 128.056 401.172 123.383Z" fill="#455A64"/>
<path d="M310.25 135.371C310.666 135.694 313.739 138.488 315.082 139.839C315.082 139.839 317.767 127.039 317.767 127.029C317.767 127.019 316.528 125.762 316.415 125.616C315.975 125.096 315.567 124.544 315.195 123.964C314.414 122.559 313.746 121.082 313.2 119.549C312.532 117.882 311.684 116.309 310.676 114.863C309.692 113.395 308.706 111.934 307.716 110.479C307.554 110.173 307.31 109.93 307.017 109.783C306.764 109.715 306.497 109.751 306.266 109.883C306.035 110.014 305.855 110.234 305.759 110.5C305.58 111.042 305.54 111.628 305.646 112.193C305.795 113.329 306.055 114.444 306.421 115.518C306.639 116.152 307.272 117.72 305.958 117.596C305.545 117.491 305.172 117.247 304.889 116.9C303.294 115.262 301.803 113.506 300.427 111.643C299.997 110.994 299.488 110.414 298.914 109.918C298.622 109.678 298.282 109.517 297.923 109.446C297.563 109.376 297.194 109.399 296.844 109.513C296.434 109.761 296.076 110.1 295.791 110.507C295.507 110.915 295.302 111.383 295.189 111.882C294.689 113.063 294.37 114.326 294.244 115.622C294.229 116.45 294.325 117.276 294.527 118.074C295.33 121.233 296.85 124.118 298.943 126.458C300.573 128.474 302.457 130.224 304.54 131.652C305.003 131.964 305.873 132.504 306.733 133.096C308.01 133.896 308.785 134.26 310.25 135.371Z" fill="#B16668"/>
<path d="M336.439 141.99L315.771 125.368L311.734 136.443C311.734 136.443 325.566 150.884 332.27 157.159C335.106 159.912 338.236 159.299 341.289 157.657C346.546 154.831 359.962 143.403 359.962 143.403C359.962 143.403 367.129 129.69 362.647 121.711C360.291 122.212 358.087 123.355 356.237 125.035C353.032 127.996 336.836 141.939 336.836 141.939" fill="#B16668"/>
<path d="M363.525 121.357C361.295 121.24 359.08 121.828 357.144 123.051C354.789 124.516 336.835 141.481 336.835 141.481L322.304 130.178C318.285 131.279 315.581 137.066 315.203 141.024C315.203 141.024 322.984 148.941 327.608 154.083C335.171 162.467 336.901 161.418 341.08 159.028C345.259 156.639 360.566 144.359 360.566 144.359C360.566 144.359 365.246 140.536 366.135 136.214C368.584 124.287 363.525 121.357 363.525 121.357Z" fill="#37474F"/>
<path opacity="0.1" d="M336.839 141.481C334.998 143.079 333.64 145.252 332.944 147.714C332.871 146.378 333.076 145.041 333.542 143.804C334.009 142.568 334.726 141.464 335.639 140.577L336.839 141.481Z" fill="black"/>
<path d="M322.302 130.176L318.671 127.319C316.797 128.443 315.181 130.02 313.944 131.932C312.773 133.573 312.002 135.514 311.703 137.573L315.173 141.023C316.651 136.788 319.108 133.05 322.302 130.176Z" fill="#263238"/>
<path d="M313.293 137.49C313.339 137.626 313.421 137.744 313.529 137.829C313.636 137.914 313.763 137.962 313.895 137.968C314.027 137.973 314.158 137.936 314.271 137.861C314.383 137.785 314.473 137.675 314.529 137.543C314.585 137.412 314.605 137.265 314.585 137.121C314.566 136.978 314.508 136.844 314.419 136.736C314.331 136.628 314.215 136.552 314.087 136.516C313.959 136.48 313.824 136.487 313.699 136.535C313.615 136.567 313.537 136.618 313.471 136.684C313.405 136.75 313.351 136.829 313.313 136.918C313.275 137.008 313.254 137.104 313.251 137.202C313.247 137.3 313.261 137.398 313.293 137.49Z" fill="#334155"/>
<path d="M387.31 111.436L387.405 112.943C385.832 114.665 383.803 115.796 381.609 116.174C375.076 117.504 372.788 115.27 372.788 115.27L372.618 113.982C372.618 113.982 371.994 113.701 370.935 114.595C369.32 116.432 367.807 118.374 366.406 120.413C366.406 120.413 367.654 120.018 371.739 121.929C375.816 123.671 380.309 123.854 384.493 122.449C387.764 121.254 390.222 117.711 390.392 116.402C390.563 115.093 388.435 110.896 387.31 111.436Z" fill="#263238"/>
</svg>
